<?xml version="1.0" encoding="utf-8" ?><svg xmlns="http://www.w3.org/2000/svg" xmlns:xlink="http://www.w3.org/1999/xlink" width="800" height="800"><rect fill-opacity="0" width="800" height="800"/><clipPath id="cl_3"><rect y="740" width="800" height="60"/></clipPath><g clip-path="url(#cl_3)"><path fill="#4CAF50" d="M164.60001 770L204.60001 770L204.60001 790L164.60001 790L164.60001 770Z"/><path fill="none" stroke="white" stroke-width="2" stroke-miterlimit="10" d="M164.60001 770L204.60001 770L204.60001 790L164.60001 790L164.60001 770Z"/><text fill="#666" font-size="20" font-family="Helvetica Neue" x="214.60001, 224.24001, 230.89999, 242.01999, 252.01997, 258.31995, 269.05994, " y="787, ">Trusted</text><path fill="#FF9800" d="M310.91998 770L350.91998 770L350.91998 790L310.91998 790L310.91998 770Z"/><path fill="none" stroke="white" stroke-width="2" stroke-miterlimit="10" d="M310.91998 770L350.91998 770L350.91998 790L310.91998 790L310.91998 770Z"/><text fill="#666" font-size="20" font-family="Helvetica Neue" x="360.91998, 373.87997, 380.17996, 391.65997, 401.65994, 412.39993, 423.51993, 434.25992, 445.37991, 456.1199, " y="787, ">Provenance</text><path fill="#F44336" d="M496.85999 770L536.85999 770L536.85999 790L496.85999 790L496.85999 770Z"/><path fill="none" stroke="white" stroke-width="2" stroke-miterlimit="10" d="M496.85999 770L536.85999 770L536.85999 790L496.85999 790L496.85999 770Z"/><text fill="#666" font-size="20" font-family="Helvetica Neue" x="546.85999, 561.29999, 572.41998, 578.71997, 585.37994, 596.49994, 606.49994, 612.79993, 623.53992, " y="787, ">Untrusted</text></g><path fill="#4CAF50" d="M400 1Q417.59802 1 435.11624 2.674737Q452.6344 4.349474 469.91376 7.6837463Q487.19299 11.018019 504.0766 15.98156Q520.96014 20.945103 537.29474 27.492859L400 370L400 370L400 370L400 1Z"/><path fill="none" stroke="white" stroke-width="2" stroke-linejoin="bevel" d="M400 1Q417.59802 1 435.11624 2.674737Q452.6344 4.349474 469.91376 7.6837463Q487.19299 11.018019 504.0766 15.98156Q520.96014 20.945103 537.29474 27.492859L400 370L400 370L400 370L400 1Z"/><path fill="#FF9800" d="M537.29443 27.492737Q546.08936 31.018194 554.69177 34.990379Q563.29419 38.962566 571.6814 43.371014Q580.0686 47.779457 588.21851 52.612541Q596.36841 57.445625 604.25952 62.690613Q612.15063 67.935585 619.76208 73.578636Q627.37354 79.221695 634.68542 85.247955Q641.99731 91.274216 648.99023 97.667793Q655.98322 104.06137 662.63885 110.80542L400 370L400 370L400 370L537.29449 27.492739L537.29443 27.492737Z"/><path fill="none" stroke="white" stroke-width="2" stroke-linejoin="bevel" d="M537.29443 27.492737Q546.08936 31.018194 554.69177 34.990379Q563.29419 38.962566 571.6814 43.371014Q580.0686 47.779457 588.21851 52.612541Q596.36841 57.445625 604.25952 62.690613Q612.15063 67.935585 619.76208 73.578636Q627.37354 79.221695 634.68542 85.247955Q641.99731 91.274216 648.99023 97.667793Q655.98322 104.06137 662.63885 110.80542L400 370L400 370L400 370L537.29449 27.492739L537.29443 27.492737Z"/><path fill="#F44336" d="M662.63873 110.8053Q669.00159 117.25272 675.04041 124.00458Q681.07928 130.75644 686.77954 137.79648Q692.47986 144.83652 697.82776 152.14778Q703.17578 159.45905 708.15851 167.02391Q713.1413 174.58878 717.74689 182.38902Q722.35248 190.18927 726.56982 198.20612Q730.78711 206.22296 734.6059 214.43707Q738.4248 222.65118 741.836 231.04279Q745.24719 239.43439 748.24255 247.98328Q751.23792 256.53214 753.81024 265.21771Q756.38245 273.90326 758.52545 282.70456Q760.66846 291.50586 762.37695 300.40173Q764.08551 309.29761 765.35547 318.26657Q766.62549 327.23553 767.45392 336.25604Q768.28223 345.27649 768.66699 354.32675Q769.05176 363.37701 768.99194 372.43527Q768.93213 381.4935 768.42798 390.5379Q767.92383 399.58231 766.9765 408.59109Q766.02905 417.59985 764.64081 426.5513Q763.25256 435.50272 761.4267 444.37524Q759.60089 453.2478 757.34192 462.02005Q755.08295 470.7923 752.3963 479.44318Q749.70959 488.09399 746.60162 496.60254Q743.49371 505.11111 739.97205 513.45697Q736.45038 521.80286 732.52344 529.96582Q728.59656 538.12891 724.2738 546.08936Q719.95105 554.0498 715.24286 561.78857Q710.53467 569.52734 705.45251 577.02582Q700.37036 584.52423 694.92639 591.76428Q689.48242 599.00433 683.6897 605.96857Q677.89697 612.93274 671.76953 619.60431Q665.64209 626.27588 659.1947 632.63873Q654.37305 637.39709 649.38007 641.97528Q644.38702 646.55347 639.22937 650.94531Q634.07166 655.33716 628.75635 659.53668Q623.44092 663.73627 617.97504 667.73792Q612.50903 671.7395 606.8999 675.53784Q601.29077 679.33618 595.54602 682.92603Q589.80121 686.51587 583.92853 689.89246Q578.05591 693.26904 572.06323 696.42786Q566.07056 699.58661 559.96594 702.52332Q553.86145 705.45996 547.6532 708.17065Q541.44495 710.88135 535.14142 713.3623Q528.83789 715.84326 522.44757 718.09125Q516.05719 720.33917 509.58865 722.35101Q503.12009 724.36292 496.58206 726.13599Q490.04401 727.90906 483.44531 729.44092Q476.84662 730.9729 470.19617 732.2616Q463.54565 733.55029 456.85233 734.59399Q450.159 735.6377 443.43188 736.43506Q436.70477 737.23236 429.95294 737.78223Q423.20111 738.33215 416.43365 738.63385Q409.66617 738.93555 402.89218 738.98865Q396.11816 739.04169 389.3468 738.84607Q382.57544 738.65051 375.8158 738.20654Q369.05615 737.76257 362.31738 737.0708Q355.57858 736.37903 348.86975 735.44031Q342.16089 734.50165 335.49103 733.31738Q328.82117 732.13312 322.19925 730.70483Q315.57733 729.27661 309.0123 727.60626Q302.44727 725.93579 295.94797 724.02563Q289.44867 722.11536 283.02386 719.96796Q276.59906 717.82043 270.25742 715.4386Q263.91577 713.05676 257.66583 710.44379Q249.30841 706.94965 241.13251 703.04968Q232.95659 699.14966 224.98189 694.85321Q217.00717 690.55676 209.2529 685.87415Q201.4986 681.19153 193.98343 676.13409Q186.46826 671.07666 179.2103 665.65662Q171.95233 660.23651 164.96906 654.4668Q157.98578 648.69714 151.29402 642.59174Q144.60226 636.48633 138.21814 630.05994Q131.83401 623.63354 125.77293 616.90161Q119.71182 610.16974 113.98834 603.14856Q108.26486 596.12732 102.89278 588.83374Q97.520706 581.54016 92.512985 573.99182Q87.505264 566.44348 82.873947 558.65845Q78.242645 550.87341 73.998909 542.87054Q69.755173 534.86768 65.909233 526.6662Q62.063286 518.46472 58.624405 510.08441Q55.18552 501.7041 52.16198 493.16516Q49.138443 484.62622 46.537533 475.94925Q43.936619 467.27222 41.764603 458.47803Q39.592587 449.68381 37.854698 440.79364Q36.116806 431.9035 34.81723 422.93875Q33.517654 413.97403 32.659523 404.95633Q31.801388 395.9386 31.386768 386.88965Q30.972149 377.8407 31.002039 368.78232Q31.031929 359.72391 31.506258 350.67792Q31.980587 341.6319 32.898212 332.62006Q33.815834 323.60822 35.174541 314.65225Q36.533249 305.69629 38.329773 296.81775Q40.126297 287.93924 42.3563 279.15961Q44.586311 270.37994 47.244427 261.72028Q49.902542 253.06062 52.982368 244.54182Q56.062191 236.02303 59.556305 227.6656Q62.169319 221.41563 65.009964 215.26581Q67.850616 209.11597 70.915085 203.07454Q73.979546 197.03311 77.263687 191.10822Q80.547836 185.18335 84.047234 179.383Q87.546631 173.58264 91.256569 167.91463Q94.966507 162.24664 98.881989 156.71863Q102.79745 151.19061 106.9132 145.81006Q111.02893 140.42947 115.33939 135.20361Q119.64984 129.97774 124.1492 124.91359Q128.64856 119.84946 133.33078 114.95387Q138.01297 110.05829 142.87172 105.33786Q147.73045 100.61743 152.75919 96.078522Q157.7879 91.539604 162.97983 87.188324Q168.17175 82.837036 173.51991 78.67926Q178.86806 74.521477 184.36522 70.562798Q189.86237 66.604118 195.50111 62.84988Q201.13986 59.095627 206.9126 55.55088Q212.68533 52.006126 218.58429 48.675652Q224.48325 45.345173 230.50047 42.233452Q236.5177 39.121738 242.6451 36.232975Q248.77246 33.344208 255.00177 30.682293Q261.23105 28.020376 267.55383 25.588896Q273.87662 23.157413 280.28439 20.959642Q286.69217 18.761871 293.1763 16.800776Q299.66043 14.839678 306.21216 13.117896Q312.76392 11.396115 319.37442 9.9159708Q325.98492 8.4358263 332.64532 7.1993132Q339.30573 5.9627995 346.00702 4.9715834Q352.70831 3.9803672 359.44147 3.2357841Q366.17462 2.4912009 372.93057 1.9942547Q379.68652 1.4973084 386.45615 1.2486686Q393.22577 1.0000287 400 1.0000305L400 370L400 370L400 370L662.63879 110.80535L662.63873 110.8053Z"/><path fill="none" stroke="white" stroke-width="2" stroke-linejoin="bevel" d="M662.63873 110.8053Q669.00159 117.25272 675.04041 124.00458Q681.07928 130.75644 686.77954 137.79648Q692.47986 144.83652 697.82776 152.14778Q703.17578 159.45905 708.15851 167.02391Q713.1413 174.58878 717.74689 182.38902Q722.35248 190.18927 726.56982 198.20612Q730.78711 206.22296 734.6059 214.43707Q738.4248 222.65118 741.836 231.04279Q745.24719 239.43439 748.24255 247.98328Q751.23792 256.53214 753.81024 265.21771Q756.38245 273.90326 758.52545 282.70456Q760.66846 291.50586 762.37695 300.40173Q764.08551 309.29761 765.35547 318.26657Q766.62549 327.23553 767.45392 336.25604Q768.28223 345.27649 768.66699 354.32675Q769.05176 363.37701 768.99194 372.43527Q768.93213 381.4935 768.42798 390.5379Q767.92383 399.58231 766.9765 408.59109Q766.02905 417.59985 764.64081 426.5513Q763.25256 435.50272 761.4267 444.37524Q759.60089 453.2478 757.34192 462.02005Q755.08295 470.7923 752.3963 479.44318Q749.70959 488.09399 746.60162 496.60254Q743.49371 505.11111 739.97205 513.45697Q736.45038 521.80286 732.52344 529.96582Q728.59656 538.12891 724.2738 546.08936Q719.95105 554.0498 715.24286 561.78857Q710.53467 569.52734 705.45251 577.02582Q700.37036 584.52423 694.92639 591.76428Q689.48242 599.00433 683.6897 605.96857Q677.89697 612.93274 671.76953 619.60431Q665.64209 626.27588 659.1947 632.63873Q654.37305 637.39709 649.38007 641.97528Q644.38702 646.55347 639.22937 650.94531Q634.07166 655.33716 628.75635 659.53668Q623.44092 663.73627 617.97504 667.73792Q612.50903 671.7395 606.8999 675.53784Q601.29077 679.33618 595.54602 682.92603Q589.80121 686.51587 583.92853 689.89246Q578.05591 693.26904 572.06323 696.42786Q566.07056 699.58661 559.96594 702.52332Q553.86145 705.45996 547.6532 708.17065Q541.44495 710.88135 535.14142 713.3623Q528.83789 715.84326 522.44757 718.09125Q516.05719 720.33917 509.58865 722.35101Q503.12009 724.36292 496.58206 726.13599Q490.04401 727.90906 483.44531 729.44092Q476.84662 730.9729 470.19617 732.2616Q463.54565 733.55029 456.85233 734.59399Q450.159 735.6377 443.43188 736.43506Q436.70477 737.23236 429.95294 737.78223Q423.20111 738.33215 416.43365 738.63385Q409.66617 738.93555 402.89218 738.98865Q396.11816 739.04169 389.3468 738.84607Q382.57544 738.65051 375.8158 738.20654Q369.05615 737.76257 362.31738 737.0708Q355.57858 736.37903 348.86975 735.44031Q342.16089 734.50165 335.49103 733.31738Q328.82117 732.13312 322.19925 730.70483Q315.57733 729.27661 309.0123 727.60626Q302.44727 725.93579 295.94797 724.02563Q289.44867 722.11536 283.02386 719.96796Q276.59906 717.82043 270.25742 715.4386Q263.91577 713.05676 257.66583 710.44379Q249.30841 706.94965 241.13251 703.04968Q232.95659 699.14966 224.98189 694.85321Q217.00717 690.55676 209.2529 685.87415Q201.4986 681.19153 193.98343 676.13409Q186.46826 671.07666 179.2103 665.65662Q171.95233 660.23651 164.96906 654.4668Q157.98578 648.69714 151.29402 642.59174Q144.60226 636.48633 138.21814 630.05994Q131.83401 623.63354 125.77293 616.90161Q119.71182 610.16974 113.98834 603.14856Q108.26486 596.12732 102.89278 588.83374Q97.520706 581.54016 92.512985 573.99182Q87.505264 566.44348 82.873947 558.65845Q78.242645 550.87341 73.998909 542.87054Q69.755173 534.86768 65.909233 526.6662Q62.063286 518.46472 58.624405 510.08441Q55.18552 501.7041 52.16198 493.16516Q49.138443 484.62622 46.537533 475.94925Q43.936619 467.27222 41.764603 458.47803Q39.592587 449.68381 37.854698 440.79364Q36.116806 431.9035 34.81723 422.93875Q33.517654 413.97403 32.659523 404.95633Q31.801388 395.9386 31.386768 386.88965Q30.972149 377.8407 31.002039 368.78232Q31.031929 359.72391 31.506258 350.67792Q31.980587 341.6319 32.898212 332.62006Q33.815834 323.60822 35.174541 314.65225Q36.533249 305.69629 38.329773 296.81775Q40.126297 287.93924 42.3563 279.15961Q44.586311 270.37994 47.244427 261.72028Q49.902542 253.06062 52.982368 244.54182Q56.062191 236.02303 59.556305 227.6656Q62.169319 221.41563 65.009964 215.26581Q67.850616 209.11597 70.915085 203.07454Q73.979546 197.03311 77.263687 191.10822Q80.547836 185.18335 84.047234 179.383Q87.546631 173.58264 91.256569 167.91463Q94.966507 162.24664 98.881989 156.71863Q102.79745 151.19061 106.9132 145.81006Q111.02893 140.42947 115.33939 135.20361Q119.64984 129.97774 124.1492 124.91359Q128.64856 119.84946 133.33078 114.95387Q138.01297 110.05829 142.87172 105.33786Q147.73045 100.61743 152.75919 96.078522Q157.7879 91.539604 162.97983 87.188324Q168.17175 82.837036 173.51991 78.67926Q178.86806 74.521477 184.36522 70.562798Q189.86237 66.604118 195.50111 62.84988Q201.13986 59.095627 206.9126 55.55088Q212.68533 52.006126 218.58429 48.675652Q224.48325 45.345173 230.50047 42.233452Q236.5177 39.121738 242.6451 36.232975Q248.77246 33.344208 255.00177 30.682293Q261.23105 28.020376 267.55383 25.588896Q273.87662 23.157413 280.28439 20.959642Q286.69217 18.761871 293.1763 16.800776Q299.66043 14.839678 306.21216 13.117896Q312.76392 11.396115 319.37442 9.9159708Q325.98492 8.4358263 332.64532 7.1993132Q339.30573 5.9627995 346.00702 4.9715834Q352.70831 3.9803672 359.44147 3.2357841Q366.17462 2.4912009 372.93057 1.9942547Q379.68652 1.4973084 386.45615 1.2486686Q393.22577 1.0000287 400 1.0000305L400 370L400 370L400 370L662.63879 110.80535L662.63873 110.8053Z"/></svg>