<svg xmlns="http://www.w3.org/2000/svg" width="800" height="800"><path fill="none" d="M0 0h800v800H0z"/><clipPath id="a"><path d="M0 690h800v110H0z"/></clipPath><g clip-path="url(#a)"><path fill="#4caf50" d="M123.3 720h40v20h-40z"/><path fill="none" stroke="#fff" stroke-miterlimit="10" stroke-width="2" d="M123.3 720h40v20h-40z"/><path fill="#ff9800" d="M377.64 720h40v20h-40z"/><path fill="none" stroke="#fff" stroke-miterlimit="10" stroke-width="2" d="M377.64 720h40v20h-40z"/><path fill="#f44336" d="M262.92 770h40v20h-40z"/><path fill="none" stroke="#fff" stroke-miterlimit="10" stroke-width="2" d="M262.92 770h40v20h-40z"/></g><path fill="#4caf50" d="M400 1q4.398 0 8.794.112 4.396.113 8.788.338 4.392.224 8.777.561t8.76.786q4.374.45 8.736 1.01t8.708 1.232q4.346.672 8.673 1.455 4.328.783 8.634 1.676 4.306.894 8.588 1.897t8.536 2.115 8.48 2.332q4.225 1.221 8.417 2.55 4.193 1.327 8.35 2.762t8.276 2.976 8.197 3.186q4.078 1.645 8.113 3.395t8.024 3.6 7.929 3.806 7.829 4.006T568.333 45t7.614 4.401q3.78 2.25 7.5 4.595t7.379 4.785q3.659 2.44 7.254 4.971 3.596 2.533 7.125 5.156t6.991 5.336 6.853 5.513 6.709 5.687 6.561 5.856 6.41 6.022q3.166 3.051 6.253 6.183t6.094 6.342L400 345z"/><path fill="none" stroke="#fff" stroke-linejoin="bevel" stroke-width="2" d="M400 1q4.398 0 8.794.112 4.396.113 8.788.338 4.392.224 8.777.561t8.76.786q4.374.45 8.736 1.01t8.708 1.232q4.346.672 8.673 1.455 4.328.783 8.634 1.676 4.306.894 8.588 1.897t8.536 2.115 8.48 2.332q4.225 1.221 8.417 2.55 4.193 1.327 8.35 2.762t8.276 2.976 8.197 3.186q4.078 1.645 8.113 3.395t8.024 3.6 7.929 3.806 7.829 4.006T568.333 45t7.614 4.401q3.78 2.25 7.5 4.595t7.379 4.785q3.659 2.44 7.254 4.971 3.596 2.533 7.125 5.156t6.991 5.336 6.853 5.513 6.709 5.687 6.561 5.856 6.41 6.022q3.166 3.051 6.253 6.183t6.094 6.342L400 345z"/><path fill="#ff9800" d="M651.076 109.847q14.82 15.824 27.537 33.383t23.127 36.577L400 345z"/><path fill="none" stroke="#fff" stroke-linejoin="bevel" stroke-width="2" d="M651.076 109.847q14.82 15.824 27.537 33.383t23.127 36.577L400 345l251.076-235.153Z"/><path fill="#f44336" d="M701.74 179.807q4.056 7.407 7.743 15.005 3.687 7.597 6.996 15.366 3.31 7.77 6.234 15.692t5.457 15.978 4.666 16.227 3.865 16.436q1.73 8.265 3.053 16.606 1.322 8.34 2.234 16.736.912 8.395 1.411 16.825t.584 16.874q.084 8.445-.246 16.883t-1.073 16.85q-.743 8.412-1.899 16.777-1.155 8.366-2.72 16.664-1.564 8.299-3.533 16.51-1.97 8.212-4.34 16.318-2.37 8.105-5.136 16.084-2.765 7.98-5.918 15.813t-6.687 15.504-7.44 15.157-8.175 14.773-8.89 14.355q-4.62 7.068-9.583 13.901-4.962 6.833-10.254 13.414t-10.9 12.895-11.519 12.345q-5.91 6.03-12.11 11.764t-12.675 11.156-13.206 10.52q-6.732 5.099-13.706 9.86-6.974 4.763-14.173 9.176-7.2 4.414-14.607 8.47-4.884 2.673-9.852 5.188t-10.015 4.867-10.167 4.54q-5.12 2.187-10.31 4.208-5.188 2.021-10.439 3.873t-10.56 3.533q-5.308 1.68-10.668 3.189-5.36 1.508-10.766 2.842t-10.852 2.493-10.927 2.14-10.991 1.785-11.043 1.428-11.083 1.07-11.113.711-11.129.351-11.135-.009-11.128-.37-11.111-.73-11.082-1.088-11.04-1.447-10.988-1.804-10.924-2.158-10.848-2.51q-5.404-1.344-10.761-2.861t-10.663-3.207-10.554-3.551-10.433-3.89-10.301-4.226q-5.117-2.197-10.16-4.557t-10.007-4.884-9.843-5.205-9.67-5.52q-7.265-4.306-14.31-8.962-7.045-4.657-13.853-9.653t-13.363-10.321-12.84-10.964-12.287-11.581q-6-5.942-11.703-12.17-5.703-6.229-11.093-12.73-5.39-6.5-10.454-13.258t-9.791-13.756q-4.727-6.998-9.105-14.22-4.377-7.22-8.395-14.648-4.019-7.428-7.667-15.044-3.65-7.615-6.92-15.401t-6.155-15.722q-2.885-7.937-5.377-16.006t-4.585-16.25-3.782-16.455-2.97-16.621q-1.28-8.347-2.15-16.747t-1.327-16.832-.499-16.877q-.042-8.445.33-16.881t1.158-16.845 1.983-16.767 2.803-16.65 3.617-16.493 4.421-16.295 5.216-16.059 5.998-15.783 6.765-15.47 7.515-15.12 8.249-14.732q2.838-4.79 5.83-9.486t6.135-9.292q3.143-4.597 6.433-9.09t6.723-8.875 7.007-8.654 7.283-8.423 7.552-8.182 7.813-7.934q3.97-3.903 8.065-7.676t8.31-7.412q4.215-3.639 8.546-7.139t8.772-6.858 8.989-6.571 9.197-6.277 9.396-5.976 9.584-5.668 9.762-5.355q4.925-2.6 9.93-5.037 5.007-2.438 10.09-4.713 5.082-2.274 10.235-4.383t10.372-4.05q5.22-1.941 10.498-3.712 5.279-1.771 10.613-3.37t10.716-3.026 10.808-2.677q5.426-1.25 10.89-2.325 5.463-1.075 10.958-1.972t11.017-1.616 11.063-1.26 11.099-.9 11.122-.54T400 1v344z"/><path fill="none" stroke="#fff" stroke-linejoin="bevel" stroke-width="2" d="M701.74 179.807q4.056 7.407 7.743 15.005 3.687 7.597 6.996 15.366 3.31 7.77 6.234 15.692t5.457 15.978 4.666 16.227 3.865 16.436q1.73 8.265 3.053 16.606 1.322 8.34 2.234 16.736.912 8.395 1.411 16.825t.584 16.874q.084 8.445-.246 16.883t-1.073 16.85q-.743 8.412-1.899 16.777-1.155 8.366-2.72 16.664-1.564 8.299-3.533 16.51-1.97 8.212-4.34 16.318-2.37 8.105-5.136 16.084-2.765 7.98-5.918 15.813t-6.687 15.504-7.44 15.157-8.175 14.773-8.89 14.355q-4.62 7.068-9.583 13.901-4.962 6.833-10.254 13.414t-10.9 12.895-11.519 12.345q-5.91 6.03-12.11 11.764t-12.675 11.156-13.206 10.52q-6.732 5.099-13.706 9.86-6.974 4.763-14.173 9.176-7.2 4.414-14.607 8.47-4.884 2.673-9.852 5.188t-10.015 4.867-10.167 4.54q-5.12 2.187-10.31 4.208-5.188 2.021-10.439 3.873t-10.56 3.533q-5.308 1.68-10.668 3.189-5.36 1.508-10.766 2.842t-10.852 2.493-10.927 2.14-10.991 1.785-11.043 1.428-11.083 1.07-11.113.711-11.129.351-11.135-.009-11.128-.37-11.111-.73-11.082-1.088-11.04-1.447-10.988-1.804-10.924-2.158-10.848-2.51q-5.404-1.344-10.761-2.861t-10.663-3.207-10.554-3.551-10.433-3.89-10.301-4.226q-5.117-2.197-10.16-4.557t-10.007-4.884-9.843-5.205-9.67-5.52q-7.265-4.306-14.31-8.962-7.045-4.657-13.853-9.653t-13.363-10.321-12.84-10.964-12.287-11.581q-6-5.942-11.703-12.17-5.703-6.229-11.093-12.73-5.39-6.5-10.454-13.258t-9.791-13.756q-4.727-6.998-9.105-14.22-4.377-7.22-8.395-14.648-4.019-7.428-7.667-15.044-3.65-7.615-6.92-15.401t-6.155-15.722q-2.885-7.937-5.377-16.006t-4.585-16.25-3.782-16.455-2.97-16.621q-1.28-8.347-2.15-16.747t-1.327-16.832-.499-16.877q-.042-8.445.33-16.881t1.158-16.845 1.983-16.767 2.803-16.65 3.617-16.493 4.421-16.295 5.216-16.059 5.998-15.783 6.765-15.47 7.515-15.12 8.249-14.732q2.838-4.79 5.83-9.486t6.135-9.292q3.143-4.597 6.433-9.09t6.723-8.875 7.007-8.654 7.283-8.423 7.552-8.182 7.813-7.934q3.97-3.903 8.065-7.676t8.31-7.412q4.215-3.639 8.546-7.139t8.772-6.858 8.989-6.571 9.197-6.277 9.396-5.976 9.584-5.668 9.762-5.355q4.925-2.6 9.93-5.037 5.007-2.438 10.09-4.713 5.082-2.274 10.235-4.383t10.372-4.05q5.22-1.941 10.498-3.712 5.279-1.771 10.613-3.37t10.716-3.026 10.808-2.677q5.426-1.25 10.89-2.325 5.463-1.075 10.958-1.972t11.017-1.616 11.063-1.26 11.099-.9 11.122-.54T400 1v344l301.74-165.193Z"/></svg>