<svg xmlns="http://www.w3.org/2000/svg" width="800" height="800"><path fill="none" d="M0 0h800v800H0z"/><clipPath id="a"><path d="M0 740h800v60H0z"/></clipPath><g clip-path="url(#a)"><path fill="#4caf50" d="M164.745 770h40v20h-40z"/><path fill="none" stroke="#fff" stroke-miterlimit="10" stroke-width="2" d="M164.745 770h40v20h-40z"/><text x="214.745, 226.2196, 232.87976, 244.00281, 254.00281, 259.55945, 270.6825," y="786.5," fill="#666" font-family="Liberation Sans" font-size="20">Trusted</text><path fill="#ff9800" d="M311.805 770h40v20h-40z"/><path fill="none" stroke="#fff" stroke-miterlimit="10" stroke-width="2" d="M311.805 770h40v20h-40z"/><text x="361.80499, 375.14484, 381.80499, 392.92804, 402.92804, 414.05109, 425.17413, 436.29718, 447.42023, 457.42023," y="786.5," fill="#666" font-family="Liberation Sans" font-size="20">Provenance</text><path fill="#f44336" d="M498.545 770h40v20h-40z"/><path fill="none" stroke="#fff" stroke-miterlimit="10" stroke-width="2" d="M498.545 770h40v20h-40z"/><text x="548.54498, 562.98834, 574.11139, 579.66803, 586.32819, 597.45123, 607.45123, 613.00787, 624.13092," y="786.5," fill="#666" font-family="Liberation Sans" font-size="20">Untrusted</text></g><path fill="#4caf50" d="M400 1q5.829 0 11.655.184t11.642.552 11.62.92 11.585 1.286 11.538 1.651q5.757.917 11.48 2.015 5.725 1.098 11.412 2.377t11.33 2.735 11.239 3.093 11.135 3.445 11.02 3.796 10.896 4.142 10.759 4.484 10.612 4.821 10.454 5.155q5.187 2.66 10.287 5.481 5.1 2.823 10.108 5.804t9.92 6.12 9.721 6.431 9.514 6.735q4.704 3.442 9.296 7.031 4.593 3.59 9.07 7.322 4.476 3.733 8.833 7.605t8.59 7.88q4.232 4.007 8.335 8.146t8.075 8.407 7.805 8.657 7.527 8.899 7.243 9.132 6.95 9.357q3.402 4.734 6.652 9.572t6.346 9.777L400 370z"/><path fill="none" stroke="#fff" stroke-linejoin="bevel" stroke-width="2" d="M400 1q5.829 0 11.655.184t11.642.552 11.62.92 11.585 1.286 11.538 1.651q5.757.917 11.48 2.015 5.725 1.098 11.412 2.377t11.33 2.735 11.239 3.093 11.135 3.445 11.02 3.796 10.896 4.142 10.759 4.484 10.612 4.821 10.454 5.155q5.187 2.66 10.287 5.481 5.1 2.823 10.108 5.804t9.92 6.12 9.721 6.431 9.514 6.735q4.704 3.442 9.296 7.031 4.593 3.59 9.07 7.322 4.476 3.733 8.833 7.605t8.59 7.88q4.232 4.007 8.335 8.146t8.075 8.407 7.805 8.657 7.527 8.899 7.243 9.132 6.95 9.357q3.402 4.734 6.652 9.572t6.346 9.777L400 370z"/><path fill="#ff9800" d="M712.65 174.012q9.843 15.703 18.064 32.314 8.22 16.61 14.736 33.962L400 370z"/><path fill="none" stroke="#fff" stroke-linejoin="bevel" stroke-width="2" d="M712.65 174.012q9.843 15.703 18.064 32.314 8.22 16.61 14.736 33.962L400 370l312.65-195.988Z"/><path fill="#f44336" d="M745.45 240.287q3.184 8.48 5.948 17.107t5.102 17.378 4.244 17.607 3.374 17.795 2.497 17.938 1.614 18.04.726 18.096-.162 18.111-1.05 18.081-1.937 18.008-2.818 17.89-3.693 17.732-4.557 17.528-5.413 17.284-6.254 16.997-7.08 16.67-7.89 16.303-8.68 15.896q-4.536 7.84-9.45 15.45-4.915 7.61-10.197 14.969t-10.92 14.45q-5.636 7.09-11.614 13.896t-12.282 13.31q-6.305 6.505-12.921 12.692t-13.528 12.042-14.103 11.364q-7.19 5.51-14.643 10.659t-15.149 9.926-15.617 9.172-16.049 8.395q-8.127 4-16.441 7.596t-16.794 6.78q-5.21 1.957-10.475 3.755-5.266 1.798-10.583 3.436-5.318 1.639-10.683 3.116-5.364 1.477-10.77 2.792-5.407 1.315-10.851 2.467-5.444 1.15-10.92 2.138-5.476.986-10.98 1.807-5.503.821-11.028 1.476t-11.069 1.143-11.097.808-11.118.474-11.126.138-11.125-.198-11.115-.533-11.093-.868-11.062-1.201q-5.522-.685-11.021-1.535t-10.97-1.867-10.908-2.196-10.837-2.524-10.756-2.85-10.665-3.173q-5.31-1.667-10.565-3.493-5.256-1.826-10.455-3.81t-10.335-4.123-10.206-4.434-10.067-4.739-9.92-5.04-9.764-5.337-9.599-5.629-9.424-5.916-9.241-6.197q-7.447-5.158-14.631-10.676t-14.09-11.38-13.514-12.058-12.906-12.706-12.267-13.325-11.599-13.91q-5.628-7.098-10.902-14.463t-10.179-14.98-9.432-15.462-8.662-15.906-7.87-16.311-7.062-16.679q-3.326-8.425-6.234-17.004t-5.392-17.29q-2.484-8.712-4.538-17.534-2.054-8.823-3.672-17.735-1.618-8.913-2.797-17.895t-1.915-18.01-1.03-18.082-.141-18.11.747-18.096q.596-9.04 1.635-18.038t2.518-17.936q1.479-8.936 3.395-17.79t4.263-17.602q2.348-8.75 5.123-17.372 2.774-8.624 5.968-17.1t6.8-16.786q3.607-8.31 7.616-16.433 4.01-8.123 8.413-16.039t9.19-15.606 9.944-15.138q3.169-4.574 6.474-9.05 3.304-4.477 6.743-8.851 3.438-4.375 7.007-8.644t7.264-8.429 7.516-8.206 7.759-7.975 7.996-7.738 8.226-7.493 8.448-7.242 8.663-6.984 8.869-6.72 9.068-6.449 9.258-6.172 9.44-5.89 9.613-5.604 9.778-5.311q4.93-2.582 9.934-5.014T248.8 33.4t10.218-4.406 10.346-4.096 10.465-3.782 10.574-3.464q5.313-1.653 10.673-3.145t10.764-2.82 10.844-2.496 10.914-2.167 10.974-1.837 11.025-1.506 11.066-1.172 11.095-.838 11.116-.503T400 1v369z"/><path fill="none" stroke="#fff" stroke-linejoin="bevel" stroke-width="2" d="M745.45 240.287q3.184 8.48 5.948 17.107t5.102 17.378 4.244 17.607 3.374 17.795 2.497 17.938 1.614 18.04.726 18.096-.162 18.111-1.05 18.081-1.937 18.008-2.818 17.89-3.693 17.732-4.557 17.528-5.413 17.284-6.254 16.997-7.08 16.67-7.89 16.303-8.68 15.896q-4.536 7.84-9.45 15.45-4.915 7.61-10.197 14.969t-10.92 14.45q-5.636 7.09-11.614 13.896t-12.282 13.31q-6.305 6.505-12.921 12.692t-13.528 12.042-14.103 11.364q-7.19 5.51-14.643 10.659t-15.149 9.926-15.617 9.172-16.049 8.395q-8.127 4-16.441 7.596t-16.794 6.78q-5.21 1.957-10.475 3.755-5.266 1.798-10.583 3.436-5.318 1.639-10.683 3.116-5.364 1.477-10.77 2.792-5.407 1.315-10.851 2.467-5.444 1.15-10.92 2.138-5.476.986-10.98 1.807-5.503.821-11.028 1.476t-11.069 1.143-11.097.808-11.118.474-11.126.138-11.125-.198-11.115-.533-11.093-.868-11.062-1.201q-5.522-.685-11.021-1.535t-10.97-1.867-10.908-2.196-10.837-2.524-10.756-2.85-10.665-3.173q-5.31-1.667-10.565-3.493-5.256-1.826-10.455-3.81t-10.335-4.123-10.206-4.434-10.067-4.739-9.92-5.04-9.764-5.337-9.599-5.629-9.424-5.916-9.241-6.197q-7.447-5.158-14.631-10.676t-14.09-11.38-13.514-12.058-12.906-12.706-12.267-13.325-11.599-13.91q-5.628-7.098-10.902-14.463t-10.179-14.98-9.432-15.462-8.662-15.906-7.87-16.311-7.062-16.679q-3.326-8.425-6.234-17.004t-5.392-17.29q-2.484-8.712-4.538-17.534-2.054-8.823-3.672-17.735-1.618-8.913-2.797-17.895t-1.915-18.01-1.03-18.082-.141-18.11.747-18.096q.596-9.04 1.635-18.038t2.518-17.936q1.479-8.936 3.395-17.79t4.263-17.602q2.348-8.75 5.123-17.372 2.774-8.624 5.968-17.1t6.8-16.786q3.607-8.31 7.616-16.433 4.01-8.123 8.413-16.039t9.19-15.606 9.944-15.138q3.169-4.574 6.474-9.05 3.304-4.477 6.743-8.851 3.438-4.375 7.007-8.644t7.264-8.429 7.516-8.206 7.759-7.975 7.996-7.738 8.226-7.493 8.448-7.242 8.663-6.984 8.869-6.72 9.068-6.449 9.258-6.172 9.44-5.89 9.613-5.604 9.778-5.311q4.93-2.582 9.934-5.014T248.8 33.4t10.218-4.406 10.346-4.096 10.465-3.782 10.574-3.464q5.313-1.653 10.673-3.145t10.764-2.82 10.844-2.496 10.914-2.167 10.974-1.837 11.025-1.506 11.066-1.172 11.095-.838 11.116-.503T400 1v369l345.45-129.712Z"/></svg>