<svg xmlns="http://www.w3.org/2000/svg" width="800" height="800"><path fill="none" d="M0 0h800v800H0z"/><clipPath id="a"><path d="M0 740h800v60H0z"/></clipPath><g clip-path="url(#a)"><path fill="#4caf50" d="M164.745 770h40v20h-40z"/><path fill="none" stroke="#fff" stroke-miterlimit="10" stroke-width="2" d="M164.745 770h40v20h-40z"/><text x="214.745, 226.2196, 232.87976, 244.00281, 254.00281, 259.55945, 270.6825," y="786.5," fill="#666" font-family="Liberation Sans" font-size="20">Trusted</text><path fill="#ff9800" d="M311.805 770h40v20h-40z"/><path fill="none" stroke="#fff" stroke-miterlimit="10" stroke-width="2" d="M311.805 770h40v20h-40z"/><text x="361.80499, 375.14484, 381.80499, 392.92804, 402.92804, 414.05109, 425.17413, 436.29718, 447.42023, 457.42023," y="786.5," fill="#666" font-family="Liberation Sans" font-size="20">Provenance</text><path fill="#f44336" d="M498.545 770h40v20h-40z"/><path fill="none" stroke="#fff" stroke-miterlimit="10" stroke-width="2" d="M498.545 770h40v20h-40z"/><text x="548.54498, 562.98834, 574.11139, 579.66803, 586.32819, 597.45123, 607.45123, 613.00787, 624.13092," y="786.5," fill="#666" font-family="Liberation Sans" font-size="20">Untrusted</text></g><path fill="#4caf50" d="M400 1q5.724 0 11.445.178 5.722.177 11.435.532t11.413.887 11.379 1.24 11.336 1.593q5.655.885 11.28 1.944 5.625 1.06 11.215 2.293t11.139 2.639 11.05 2.983q5.503 1.578 10.954 3.325t10.845 3.664q5.394 1.915 10.726 3.997t10.597 4.329 10.458 4.655 10.308 4.977q5.116 2.569 10.149 5.295t9.98 5.607q4.946 2.88 9.8 5.913t9.614 6.215 9.415 6.51 9.21 6.799q4.55 3.47 8.993 7.081 4.442 3.61 8.77 7.357t8.537 7.626 8.297 7.886 8.048 8.14q3.96 4.132 7.791 8.386t7.528 8.623 7.257 8.853 6.979 9.073 6.694 9.286q3.274 4.695 6.402 9.489L400 370z"/><path fill="none" stroke="#fff" stroke-linejoin="bevel" stroke-width="2" d="M400 1q5.724 0 11.445.178 5.722.177 11.435.532t11.413.887 11.379 1.24 11.336 1.593q5.655.885 11.28 1.944 5.625 1.06 11.215 2.293t11.139 2.639 11.05 2.983q5.503 1.578 10.954 3.325t10.845 3.664q5.394 1.915 10.726 3.997t10.597 4.329 10.458 4.655 10.308 4.977q5.116 2.569 10.149 5.295t9.98 5.607q4.946 2.88 9.8 5.913t9.614 6.215 9.415 6.51 9.21 6.799q4.55 3.47 8.993 7.081 4.442 3.61 8.77 7.357t8.537 7.626 8.297 7.886 8.048 8.14q3.96 4.132 7.791 8.386t7.528 8.623 7.257 8.853 6.979 9.073 6.694 9.286q3.274 4.695 6.402 9.489L400 370z"/><path fill="#ff9800" d="M709.044 168.375q10.575 16.208 19.396 33.434 8.82 17.225 15.792 35.28L400 370z"/><path fill="none" stroke="#fff" stroke-linejoin="bevel" stroke-width="2" d="M709.044 168.375q10.575 16.208 19.396 33.434 8.82 17.225 15.792 35.28L400 370l309.044-201.625Z"/><path fill="#f44336" d="M744.232 237.088q3.263 8.45 6.107 17.05t5.263 17.33 4.406 17.568 3.54 17.762q1.55 8.925 2.662 17.915t1.781 18.023q.67 9.034.895 18.09t.006 18.111q-.22 9.056-.883 18.09-.664 9.034-1.77 18.025t-2.651 17.916-3.528 17.765-4.395 17.57q-2.413 8.73-5.252 17.333t-6.096 17.055-6.926 16.735q-3.668 8.282-7.738 16.375t-8.532 15.975-9.307 15.538-10.057 15.062-10.784 14.55-11.486 14.005-12.158 13.423-12.803 12.811q-6.558 6.249-13.416 12.168-6.857 5.918-13.996 11.494T612.57 671.62q-7.404 5.219-15.056 10.067-7.651 4.85-15.531 9.317t-15.97 8.543q-8.09 4.075-16.37 7.748t-16.731 6.937q-5.216 2.014-10.49 3.869-5.274 1.854-10.603 3.549t-10.705 3.226-10.798 2.9q-5.42 1.369-10.88 2.573t-10.954 2.24q-5.494 1.038-11.017 1.909-5.523.87-11.07 1.574-5.546.703-11.111 1.237t-11.145.9-11.166.563-11.179.224-11.18-.115-11.171-.454-11.153-.792-11.123-1.13-11.084-1.465-11.035-1.801q-5.504-.985-10.975-2.135t-10.905-2.466-10.826-2.795q-5.392-1.48-10.736-3.123-5.344-1.642-10.636-3.445-5.293-1.804-10.528-3.767t-10.408-4.084q-5.173-2.12-10.28-4.397-5.106-2.276-10.141-4.706t-9.995-5.012-9.838-5.312-9.672-5.608-9.499-5.899q-4.704-3.02-9.315-6.183-7.47-5.123-14.68-10.607t-14.142-11.315q-6.933-5.831-13.57-11.995t-12.965-12.647q-6.327-6.482-12.329-13.267t-11.663-13.856q-5.661-7.072-10.969-14.412t-10.249-14.933-9.503-15.418q-4.563-7.826-8.736-15.865t-7.946-16.276-7.139-16.645-6.313-16.975-5.472-17.265q-2.525-8.7-4.62-17.513-2.094-8.813-3.753-17.718t-2.88-17.88q-1.22-8.977-2-18.002-.778-9.025-1.113-18.077t-.225-18.11.664-18.1q.554-9.04 1.55-18.044.998-9.003 2.435-17.947t3.313-17.806q1.874-8.862 4.182-17.622 2.307-8.76 5.041-17.396 2.734-8.635 5.89-17.127 3.154-8.491 6.722-16.817 3.567-8.327 7.54-16.468 3.97-8.141 8.337-16.078t9.118-15.649q4.75-7.713 9.874-15.183 3.162-4.61 6.463-9.124 3.3-4.513 6.736-8.923t7.003-8.716 7.265-8.5q3.696-4.194 7.518-8.274 3.822-4.081 7.766-8.044t8.006-7.805 8.238-7.559 8.464-7.305 8.682-7.046 8.89-6.78 9.092-6.506 9.285-6.229 9.47-5.944 9.645-5.655 9.812-5.36 9.97-5.06 10.12-4.756 10.257-4.448q5.163-2.145 10.389-4.134 5.225-1.988 10.508-3.818 5.284-1.829 10.62-3.497 5.336-1.669 10.72-3.174 5.385-1.506 10.812-2.848 5.428-1.342 10.894-2.52 5.465-1.176 10.964-2.187t11.026-1.855q5.527-.844 11.077-1.52t11.118-1.183 11.148-.847 11.17-.508T400 1v369z"/><path fill="none" stroke="#fff" stroke-linejoin="bevel" stroke-width="2" d="M744.232 237.088q3.263 8.45 6.107 17.05t5.263 17.33 4.406 17.568 3.54 17.762q1.55 8.925 2.662 17.915t1.781 18.023q.67 9.034.895 18.09t.006 18.111q-.22 9.056-.883 18.09-.664 9.034-1.77 18.025t-2.651 17.916-3.528 17.765-4.395 17.57q-2.413 8.73-5.252 17.333t-6.096 17.055-6.926 16.735q-3.668 8.282-7.738 16.375t-8.532 15.975-9.307 15.538-10.057 15.062-10.784 14.55-11.486 14.005-12.158 13.423-12.803 12.811q-6.558 6.249-13.416 12.168-6.857 5.918-13.996 11.494T612.57 671.62q-7.404 5.219-15.056 10.067-7.651 4.85-15.531 9.317t-15.97 8.543q-8.09 4.075-16.37 7.748t-16.731 6.937q-5.216 2.014-10.49 3.869-5.274 1.854-10.603 3.549t-10.705 3.226-10.798 2.9q-5.42 1.369-10.88 2.573t-10.954 2.24q-5.494 1.038-11.017 1.909-5.523.87-11.07 1.574-5.546.703-11.111 1.237t-11.145.9-11.166.563-11.179.224-11.18-.115-11.171-.454-11.153-.792-11.123-1.13-11.084-1.465-11.035-1.801q-5.504-.985-10.975-2.135t-10.905-2.466-10.826-2.795q-5.392-1.48-10.736-3.123-5.344-1.642-10.636-3.445-5.293-1.804-10.528-3.767t-10.408-4.084q-5.173-2.12-10.28-4.397-5.106-2.276-10.141-4.706t-9.995-5.012-9.838-5.312-9.672-5.608-9.499-5.899q-4.704-3.02-9.315-6.183-7.47-5.123-14.68-10.607t-14.142-11.315q-6.933-5.831-13.57-11.995t-12.965-12.647q-6.327-6.482-12.329-13.267t-11.663-13.856q-5.661-7.072-10.969-14.412t-10.249-14.933-9.503-15.418q-4.563-7.826-8.736-15.865t-7.946-16.276-7.139-16.645-6.313-16.975-5.472-17.265q-2.525-8.7-4.62-17.513-2.094-8.813-3.753-17.718t-2.88-17.88q-1.22-8.977-2-18.002-.778-9.025-1.113-18.077t-.225-18.11.664-18.1q.554-9.04 1.55-18.044.998-9.003 2.435-17.947t3.313-17.806q1.874-8.862 4.182-17.622 2.307-8.76 5.041-17.396 2.734-8.635 5.89-17.127 3.154-8.491 6.722-16.817 3.567-8.327 7.54-16.468 3.97-8.141 8.337-16.078t9.118-15.649q4.75-7.713 9.874-15.183 3.162-4.61 6.463-9.124 3.3-4.513 6.736-8.923t7.003-8.716 7.265-8.5q3.696-4.194 7.518-8.274 3.822-4.081 7.766-8.044t8.006-7.805 8.238-7.559 8.464-7.305 8.682-7.046 8.89-6.78 9.092-6.506 9.285-6.229 9.47-5.944 9.645-5.655 9.812-5.36 9.97-5.06 10.12-4.756 10.257-4.448q5.163-2.145 10.389-4.134 5.225-1.988 10.508-3.818 5.284-1.829 10.62-3.497 5.336-1.669 10.72-3.174 5.385-1.506 10.812-2.848 5.428-1.342 10.894-2.52 5.465-1.176 10.964-2.187t11.026-1.855q5.527-.844 11.077-1.52t11.118-1.183 11.148-.847 11.17-.508T400 1v369l344.232-132.912Z"/></svg>