<svg xmlns="http://www.w3.org/2000/svg" width="800" height="800"><path fill="none" d="M0 0h800v800H0z"/><clipPath id="a"><path d="M0 740h800v60H0z"/></clipPath><g clip-path="url(#a)"><path fill="#4caf50" d="M144.605 770h40v20h-40z"/><path fill="none" stroke="#fff" stroke-miterlimit="10" stroke-width="2" d="M144.605 770h40v20h-40z"/><text x="194.605, 207.94484, 217.50539, 230.38625, 240.64992, 248.68703, 260.52295," y="787.5," fill="#666" font-family="DejaVu Serif" font-size="20">Trusted</text><path fill="#ff9800" d="M303.325 770h40v20h-40z"/><path fill="none" stroke="#fff" stroke-miterlimit="10" stroke-width="2" d="M303.325 770h40v20h-40z"/><text x="353.32501, 366.78204, 376.34259, 388.38361, 399.68243, 411.51837, 424.39923, 436.32306, 449.20392, 460.40509," y="787.5," fill="#666" font-family="DejaVu Serif" font-size="20">Provenance</text><path fill="#f44336" d="M502.245 770h40v20h-40z"/><path fill="none" stroke="#fff" stroke-miterlimit="10" stroke-width="2" d="M502.245 770h40v20h-40z"/><text x="552.245, 569.10046, 581.98132, 590.01843, 599.57898, 612.45984, 622.72351, 630.76062, 642.59656," y="787.5," fill="#666" font-family="DejaVu Serif" font-size="20">Untrusted</text></g><path fill="#4caf50" d="M400 1q7.83 0 15.654.332t15.626.996 15.57 1.658q7.766.994 15.484 2.317t15.373 2.972q7.655 1.649 15.233 3.621 7.578 1.973 15.066 4.265t14.871 4.9q7.384 2.607 14.65 5.525t14.402 6.143 14.129 6.747 13.83 7.342 13.506 7.921 13.157 8.487 12.786 9.038 12.391 9.572L400 370z"/><path fill="none" stroke="#fff" stroke-linejoin="bevel" stroke-width="2" d="M400 1q7.83 0 15.654.332t15.626.996 15.57 1.658q7.766.994 15.484 2.317t15.373 2.972q7.655 1.649 15.233 3.621 7.578 1.973 15.066 4.265t14.871 4.9q7.384 2.607 14.65 5.525t14.402 6.143 14.129 6.747 13.83 7.342 13.506 7.921 13.157 8.487 12.786 9.038 12.391 9.572L400 370z"/><path fill="#ff9800" d="M631.728 82.836q9.965 8.041 19.348 16.754 9.383 8.712 18.14 18.054t16.845 19.268 15.47 20.39L400 370z"/><path fill="none" stroke="#fff" stroke-linejoin="bevel" stroke-width="2" d="M631.728 82.836q9.965 8.041 19.348 16.754 9.383 8.712 18.14 18.054t16.845 19.268 15.47 20.39L400 370 631.728 82.836Z"/><path fill="#f44336" d="M701.53 157.302q5.222 7.402 10.074 15.051 4.852 7.65 9.322 15.528 4.471 7.878 8.55 15.966 4.079 8.089 7.756 16.367t6.943 16.728 6.114 17.048 5.27 17.328q2.423 8.728 4.415 17.565 1.99 8.837 3.546 17.76 1.556 8.925 2.671 17.914 1.116 8.99 1.789 18.023t.902 18.089q.229 9.055.014 18.111-.216 9.056-.876 18.09t-1.761 18.026-2.645 17.918-3.52 17.766-4.387 17.572q-2.41 8.732-5.245 17.335t-6.089 17.057q-3.253 8.454-6.918 16.738t-7.731 16.379q-4.067 8.094-8.526 15.979-4.46 7.885-9.3 15.541t-10.05 15.067-10.779 14.555q-5.568 7.146-11.48 14.01-5.91 6.863-12.152 13.428t-12.797 12.816q-6.556 6.251-13.41 12.173-6.855 5.922-13.992 11.5t-14.54 10.8q-5.148 3.632-10.417 7.085-5.269 3.454-10.653 6.725-5.383 3.272-10.876 6.358t-11.087 5.983q-5.594 2.896-11.284 5.6t-11.47 5.213-11.64 4.817-11.798 4.418-11.942 4.012-12.072 3.602-12.188 3.188-12.29 2.77-12.377 2.35q-6.209 1.068-12.45 1.925-6.242.856-12.509 1.499-6.267.642-12.552 1.07-6.286.43-12.582.643t-12.596.212q-6.3-.002-12.596-.218t-12.582-.648-12.552-1.077-12.507-1.505q-6.242-.859-12.45-1.93-6.208-1.072-12.376-2.355t-12.288-2.776-12.187-3.194-12.07-3.607-11.94-4.018-11.796-4.423-11.639-4.823-11.467-5.218q-5.688-2.706-11.282-5.606-8.042-4.168-15.87-8.727-7.828-4.558-15.422-9.495t-14.939-10.24-14.418-10.962-13.862-11.656-13.274-12.321-12.654-12.958-12.002-13.564-11.322-14.136-10.616-14.674-9.882-15.178-9.125-15.645-8.347-16.073T60.9 515.51t-6.731-16.815-5.898-17.124q-2.74-8.634-5.051-17.392-2.312-8.759-4.192-17.62-1.879-8.862-3.321-17.805t-2.444-17.945-1.561-18.044-.673-18.1q-.115-9.057.215-18.11t1.104-18.077 1.99-18.002q1.215-8.976 2.87-17.882t3.744-17.72q2.09-8.815 4.61-17.516t5.463-17.267 6.304-16.98 7.13-16.648 7.938-16.28q2.899-5.593 5.987-11.084t6.363-10.873 6.73-10.65 7.09-10.413 7.441-10.166 7.784-9.906 8.117-9.634 8.442-9.352 8.756-9.058 9.06-8.753 9.353-8.44 9.636-8.115 9.908-7.781 10.167-7.44 10.416-7.086 10.65-6.728q5.384-3.273 10.876-6.36t11.085-5.986 11.283-5.603q5.69-2.705 11.468-5.215 5.779-2.51 11.64-4.82 5.86-2.311 11.797-4.42 5.936-2.11 11.941-4.015 6.005-1.906 12.071-3.605 6.067-1.7 12.188-3.191 6.12-1.492 12.289-2.773t12.376-2.352q6.209-1.07 12.45-1.928t12.508-1.502 12.552-1.074 12.582-.645T400 1v369z"/><path fill="none" stroke="#fff" stroke-linejoin="bevel" stroke-width="2" d="M701.53 157.302q5.222 7.402 10.074 15.051 4.852 7.65 9.322 15.528 4.471 7.878 8.55 15.966 4.079 8.089 7.756 16.367t6.943 16.728 6.114 17.048 5.27 17.328q2.423 8.728 4.415 17.565 1.99 8.837 3.546 17.76 1.556 8.925 2.671 17.914 1.116 8.99 1.789 18.023t.902 18.089q.229 9.055.014 18.111-.216 9.056-.876 18.09t-1.761 18.026-2.645 17.918-3.52 17.766-4.387 17.572q-2.41 8.732-5.245 17.335t-6.089 17.057q-3.253 8.454-6.918 16.738t-7.731 16.379q-4.067 8.094-8.526 15.979-4.46 7.885-9.3 15.541t-10.05 15.067-10.779 14.555q-5.568 7.146-11.48 14.01-5.91 6.863-12.152 13.428t-12.797 12.816q-6.556 6.251-13.41 12.173-6.855 5.922-13.992 11.5t-14.54 10.8q-5.148 3.632-10.417 7.085-5.269 3.454-10.653 6.725-5.383 3.272-10.876 6.358t-11.087 5.983q-5.594 2.896-11.284 5.6t-11.47 5.213-11.64 4.817-11.798 4.418-11.942 4.012-12.072 3.602-12.188 3.188-12.29 2.77-12.377 2.35q-6.209 1.068-12.45 1.925-6.242.856-12.509 1.499-6.267.642-12.552 1.07-6.286.43-12.582.643t-12.596.212q-6.3-.002-12.596-.218t-12.582-.648-12.552-1.077-12.507-1.505q-6.242-.859-12.45-1.93-6.208-1.072-12.376-2.355t-12.288-2.776-12.187-3.194-12.07-3.607-11.94-4.018-11.796-4.423-11.639-4.823-11.467-5.218q-5.688-2.706-11.282-5.606-8.042-4.168-15.87-8.727-7.828-4.558-15.422-9.495t-14.939-10.24-14.418-10.962-13.862-11.656-13.274-12.321-12.654-12.958-12.002-13.564-11.322-14.136-10.616-14.674-9.882-15.178-9.125-15.645-8.347-16.073T60.9 515.51t-6.731-16.815-5.898-17.124q-2.74-8.634-5.051-17.392-2.312-8.759-4.192-17.62-1.879-8.862-3.321-17.805t-2.444-17.945-1.561-18.044-.673-18.1q-.115-9.057.215-18.11t1.104-18.077 1.99-18.002q1.215-8.976 2.87-17.882t3.744-17.72q2.09-8.815 4.61-17.516t5.463-17.267 6.304-16.98 7.13-16.648 7.938-16.28q2.899-5.593 5.987-11.084t6.363-10.873 6.73-10.65 7.09-10.413 7.441-10.166 7.784-9.906 8.117-9.634 8.442-9.352 8.756-9.058 9.06-8.753 9.353-8.44 9.636-8.115 9.908-7.781 10.167-7.44 10.416-7.086 10.65-6.728q5.384-3.273 10.876-6.36t11.085-5.986 11.283-5.603q5.69-2.705 11.468-5.215 5.779-2.51 11.64-4.82 5.86-2.311 11.797-4.42 5.936-2.11 11.941-4.015 6.005-1.906 12.071-3.605 6.067-1.7 12.188-3.191 6.12-1.492 12.289-2.773t12.376-2.352q6.209-1.07 12.45-1.928t12.508-1.502 12.552-1.074 12.582-.645T400 1v369l301.53-212.698Z"/></svg>