<svg xmlns="http://www.w3.org/2000/svg" width="800" height="800"><path fill="none" d="M0 0h800v800H0z"/><clipPath id="a"><path d="M0 740h800v60H0z"/></clipPath><g clip-path="url(#a)"><path fill="#4caf50" d="M144.605 770h40v20h-40z"/><path fill="none" stroke="#fff" stroke-miterlimit="10" stroke-width="2" d="M144.605 770h40v20h-40z"/><text x="194.605, 207.94484, 217.50539, 230.38625, 240.64992, 248.68703, 260.52295," y="787.5," fill="#666" font-family="DejaVu Serif" font-size="20">Trusted</text><path fill="#ff9800" d="M303.325 770h40v20h-40z"/><path fill="none" stroke="#fff" stroke-miterlimit="10" stroke-width="2" d="M303.325 770h40v20h-40z"/><text x="353.32501, 366.78204, 376.34259, 388.38361, 399.68243, 411.51837, 424.39923, 436.32306, 449.20392, 460.40509," y="787.5," fill="#666" font-family="DejaVu Serif" font-size="20">Provenance</text><path fill="#f44336" d="M502.245 770h40v20h-40z"/><path fill="none" stroke="#fff" stroke-miterlimit="10" stroke-width="2" d="M502.245 770h40v20h-40z"/><text x="552.245, 569.10046, 581.98132, 590.01843, 599.57898, 612.45984, 622.72351, 630.76062, 642.59656," y="787.5," fill="#666" font-family="DejaVu Serif" font-size="20">Untrusted</text></g><path fill="#4caf50" d="M400 1q6.361 0 12.719.22 6.358.219 12.704.657t12.673 1.095 12.629 1.531 12.568 1.966 12.493 2.397 12.402 2.827 12.298 3.253 12.179 3.674q6.057 1.943 12.044 4.093 5.988 2.15 11.897 4.505 5.91 2.355 11.734 4.912 5.825 2.557 11.558 5.314 5.733 2.756 11.367 5.709t11.165 6.097 10.947 6.479L400 370z"/><path fill="none" stroke="#fff" stroke-linejoin="bevel" stroke-width="2" d="M400 1q6.361 0 12.719.22 6.358.219 12.704.657t12.673 1.095 12.629 1.531 12.568 1.966 12.493 2.397 12.402 2.827 12.298 3.253 12.179 3.674q6.057 1.943 12.044 4.093 5.988 2.15 11.897 4.505 5.91 2.355 11.734 4.912 5.825 2.557 11.558 5.314 5.733 2.756 11.367 5.709t11.165 6.097 10.947 6.479L400 370z"/><path fill="#ff9800" d="M593.377 55.729q12.066 7.425 23.528 15.753t22.251 17.51T660 108.158t19.312 20.707L400 370z"/><path fill="none" stroke="#fff" stroke-linejoin="bevel" stroke-width="2" d="M593.377 55.729q12.066 7.425 23.528 15.753t22.251 17.51T660 108.158t19.312 20.707L400 370 593.377 55.729Z"/><path fill="#f44336" d="M679.311 128.865q5.92 6.856 11.496 13.995 5.576 7.14 10.795 14.543 5.219 7.404 10.068 15.055 4.85 7.651 9.317 15.53 4.469 7.88 8.545 15.97t7.75 16.37q3.674 8.28 6.938 16.73t6.108 17.05 5.265 17.33q2.42 8.728 4.408 17.566t3.54 17.762 2.665 17.914q1.113 8.99 1.783 18.024.67 9.033.896 18.09.226 9.055.008 18.11-.22 9.056-.882 18.09t-1.768 18.025q-1.105 8.991-2.65 17.917t-3.526 17.765q-1.98 8.839-4.393 17.57t-5.25 17.334q-2.839 8.602-6.095 17.055-3.257 8.453-6.924 16.736-3.668 8.282-7.737 16.375-4.07 8.093-8.531 15.977-4.462 7.883-9.305 15.538t-10.056 15.063q-5.213 7.409-10.783 14.552-5.57 7.144-11.484 14.005t-12.158 13.425-12.801 12.812-13.415 12.168q-4.982 4.301-10.114 8.422t-10.41 8.056q-5.275 3.936-10.688 7.68-5.414 3.745-10.957 7.294t-11.21 6.898q-5.666 3.35-11.448 6.494-5.782 3.145-11.673 6.082-5.89 2.936-11.882 5.661t-12.077 5.234q-6.085 2.51-12.255 4.8t-12.42 4.36q-6.247 2.07-12.566 3.914-6.318 1.845-12.698 3.464t-12.813 3.008-12.913 2.55-12.996 2.087-13.061 1.623-13.112 1.156-13.144.687-13.16.219-13.16-.252-13.142-.72-13.108-1.189-13.058-1.655-12.99-2.12-12.906-2.582-12.806-3.04-12.69-3.496q-6.313-1.86-12.557-3.945-6.243-2.085-12.408-4.391t-12.243-4.831-12.064-5.264q-8.236-3.771-16.277-7.941t-15.87-8.73-15.42-9.498-14.937-10.243-14.416-10.964-13.86-11.657q-6.788-6-13.273-12.324-6.484-6.325-12.65-12.96t-12-13.566q-5.834-6.93-11.32-14.138t-10.614-14.677-9.88-15.179-9.122-15.646-8.345-16.075-7.545-16.464q-3.57-8.325-6.729-16.815-3.158-8.49-5.895-17.126-2.738-8.634-5.048-17.393t-4.188-17.62q-1.878-8.862-3.32-17.806-1.44-8.943-2.44-17.946t-1.558-18.044-.67-18.1.218-18.11 1.107-18.077 1.993-18.001q1.217-8.976 2.873-17.882t3.748-17.72T45.58 267.3t5.466-17.267 6.307-16.978 7.132-16.648q2.74-5.984 5.692-11.868 2.951-5.883 6.11-11.657t6.523-11.432 6.926-11.193 7.321-10.938q3.759-5.404 7.707-10.67t8.082-10.388 8.447-10.094q4.314-4.971 8.802-9.786 4.489-4.814 9.146-9.466t9.477-9.133q4.82-4.483 9.797-8.79 4.977-4.308 10.104-8.435 5.128-4.127 10.399-8.069t10.68-7.693q5.408-3.751 10.947-7.307t11.2-6.913q5.663-3.356 11.441-6.508t11.665-6.096 11.875-5.677q5.989-2.732 12.07-5.249t12.25-4.815 12.414-4.376 12.561-3.93 12.694-3.479 12.81-3.025 12.91-2.565 12.992-2.104 13.06-1.64q6.544-.702 13.11-1.171t13.143-.704Q393.418 1 400 1v369z"/><path fill="none" stroke="#fff" stroke-linejoin="bevel" stroke-width="2" d="M679.311 128.865q5.92 6.856 11.496 13.995 5.576 7.14 10.795 14.543 5.219 7.404 10.068 15.055 4.85 7.651 9.317 15.53 4.469 7.88 8.545 15.97t7.75 16.37q3.674 8.28 6.938 16.73t6.108 17.05 5.265 17.33q2.42 8.728 4.408 17.566t3.54 17.762 2.665 17.914q1.113 8.99 1.783 18.024.67 9.033.896 18.09.226 9.055.008 18.11-.22 9.056-.882 18.09t-1.768 18.025q-1.105 8.991-2.65 17.917t-3.526 17.765q-1.98 8.839-4.393 17.57t-5.25 17.334q-2.839 8.602-6.095 17.055-3.257 8.453-6.924 16.736-3.668 8.282-7.737 16.375-4.07 8.093-8.531 15.977-4.462 7.883-9.305 15.538t-10.056 15.063q-5.213 7.409-10.783 14.552-5.57 7.144-11.484 14.005t-12.158 13.425-12.801 12.812-13.415 12.168q-4.982 4.301-10.114 8.422t-10.41 8.056q-5.275 3.936-10.688 7.68-5.414 3.745-10.957 7.294t-11.21 6.898q-5.666 3.35-11.448 6.494-5.782 3.145-11.673 6.082-5.89 2.936-11.882 5.661t-12.077 5.234q-6.085 2.51-12.255 4.8t-12.42 4.36q-6.247 2.07-12.566 3.914-6.318 1.845-12.698 3.464t-12.813 3.008-12.913 2.55-12.996 2.087-13.061 1.623-13.112 1.156-13.144.687-13.16.219-13.16-.252-13.142-.72-13.108-1.189-13.058-1.655-12.99-2.12-12.906-2.582-12.806-3.04-12.69-3.496q-6.313-1.86-12.557-3.945-6.243-2.085-12.408-4.391t-12.243-4.831-12.064-5.264q-8.236-3.771-16.277-7.941t-15.87-8.73-15.42-9.498-14.937-10.243-14.416-10.964-13.86-11.657q-6.788-6-13.273-12.324-6.484-6.325-12.65-12.96t-12-13.566q-5.834-6.93-11.32-14.138t-10.614-14.677-9.88-15.179-9.122-15.646-8.345-16.075-7.545-16.464q-3.57-8.325-6.729-16.815-3.158-8.49-5.895-17.126-2.738-8.634-5.048-17.393t-4.188-17.62q-1.878-8.862-3.32-17.806-1.44-8.943-2.44-17.946t-1.558-18.044-.67-18.1.218-18.11 1.107-18.077 1.993-18.001q1.217-8.976 2.873-17.882t3.748-17.72T45.58 267.3t5.466-17.267 6.307-16.978 7.132-16.648q2.74-5.984 5.692-11.868 2.951-5.883 6.11-11.657t6.523-11.432 6.926-11.193 7.321-10.938q3.759-5.404 7.707-10.67t8.082-10.388 8.447-10.094q4.314-4.971 8.802-9.786 4.489-4.814 9.146-9.466t9.477-9.133q4.82-4.483 9.797-8.79 4.977-4.308 10.104-8.435 5.128-4.127 10.399-8.069t10.68-7.693q5.408-3.751 10.947-7.307t11.2-6.913q5.663-3.356 11.441-6.508t11.665-6.096 11.875-5.677q5.989-2.732 12.07-5.249t12.25-4.815 12.414-4.376 12.561-3.93 12.694-3.479 12.81-3.025 12.91-2.565 12.992-2.104 13.06-1.64q6.544-.702 13.11-1.171t13.143-.704Q393.418 1 400 1v369l279.311-241.135Z"/></svg>