<svg xmlns="http://www.w3.org/2000/svg" width="800" height="800"><path fill="none" d="M0 0h800v800H0z"/><clipPath id="a"><path d="M0 740h800v60H0z"/></clipPath><g clip-path="url(#a)"><path fill="#4caf50" d="M144.605 770h40v20h-40z"/><path fill="none" stroke="#fff" stroke-miterlimit="10" stroke-width="2" d="M144.605 770h40v20h-40z"/><text x="194.605, 207.94484, 217.50539, 230.38625, 240.64992, 248.68703, 260.52295," y="787.5," fill="#666" font-family="DejaVu Serif" font-size="20">Trusted</text><path fill="#ff9800" d="M303.325 770h40v20h-40z"/><path fill="none" stroke="#fff" stroke-miterlimit="10" stroke-width="2" d="M303.325 770h40v20h-40z"/><text x="353.32501, 366.78204, 376.34259, 388.38361, 399.68243, 411.51837, 424.39923, 436.32306, 449.20392, 460.40509," y="787.5," fill="#666" font-family="DejaVu Serif" font-size="20">Provenance</text><path fill="#f44336" d="M502.245 770h40v20h-40z"/><path fill="none" stroke="#fff" stroke-miterlimit="10" stroke-width="2" d="M502.245 770h40v20h-40z"/><text x="552.245, 569.10046, 581.98132, 590.01843, 599.57898, 612.45984, 622.72351, 630.76062, 642.59656," y="787.5," fill="#666" font-family="DejaVu Serif" font-size="20">Untrusted</text></g><path fill="#4caf50" d="M400 1q6.566 0 13.127.234 6.562.233 13.11.7 6.55.467 13.078 1.166 6.528.7 13.028 1.631 6.499.932 12.961 2.094t12.879 2.553q6.416 1.39 12.78 3.01 6.362 1.618 12.664 3.462 6.301 1.843 12.533 3.91t12.386 4.354q6.155 2.288 12.224 4.792t12.045 5.224 11.852 5.65 11.643 6.066 11.42 6.478q5.653 3.34 11.183 6.88L400 370z"/><path fill="none" stroke="#fff" stroke-linejoin="bevel" stroke-width="2" d="M400 1q6.566 0 13.127.234 6.562.233 13.11.7 6.55.467 13.078 1.166 6.528.7 13.028 1.631 6.499.932 12.961 2.094t12.879 2.553q6.416 1.39 12.78 3.01 6.362 1.618 12.664 3.462 6.301 1.843 12.533 3.91t12.386 4.354q6.155 2.288 12.224 4.792t12.045 5.224 11.852 5.65 11.643 6.066 11.42 6.478q5.653 3.34 11.183 6.88L400 370z"/><path fill="#ff9800" d="M598.913 59.203q11.44 7.322 22.312 15.466t21.115 17.065q10.244 8.92 19.804 18.57t18.384 19.977L400 370z"/><path fill="none" stroke="#fff" stroke-linejoin="bevel" stroke-width="2" d="M598.913 59.203q11.44 7.322 22.312 15.466t21.115 17.065q10.244 8.92 19.804 18.57t18.384 19.977L400 370 598.913 59.203Z"/><path fill="#f44336" d="M680.528 130.281q5.885 6.887 11.424 14.054 5.54 7.167 10.722 14.597t9.992 15.106 9.238 15.578 8.464 16.012 7.667 16.408 6.853 16.765 6.022 17.081 5.177 17.356 4.32 17.589 3.45 17.78 2.574 17.927 1.691 18.032.805 18.094-.084 18.111-.973 18.085-1.86 18.016-2.74 17.903-3.616 17.747-4.482 17.548-5.338 17.307-6.181 17.024-7.009 16.7-7.82 16.336-8.611 15.933-9.383 15.492-10.132 15.012-10.857 14.497-11.555 13.947-12.225 13.362-12.866 12.747-13.476 12.1q-4.993 4.267-10.135 8.353-5.141 4.087-10.425 7.987-5.283 3.9-10.702 7.611-5.42 3.71-10.967 7.225t-11.217 6.83-11.453 6.427q-5.784 3.112-11.675 6.015-5.89 2.904-11.88 5.596t-12.073 5.17q-6.083 2.477-12.25 4.736t-12.409 4.298-12.555 3.854-12.684 3.404q-6.372 1.59-12.797 2.95-6.425 1.362-12.894 2.494t-12.975 2.033-13.038 1.57q-6.534.67-13.087 1.106t-13.117.638q-6.564.203-13.132.172t-13.13-.296-13.11-.763-13.075-1.229-13.024-1.693-12.954-2.156q-6.459-1.193-12.87-2.615-6.412-1.423-12.769-3.072t-12.651-3.524-12.518-3.972q-6.224-2.098-12.369-4.415t-12.203-4.853-12.023-5.283q-8.227-3.792-16.258-7.982t-15.847-8.77-15.397-9.537-14.91-10.28-14.389-11q-7.059-5.678-13.83-11.694-6.773-6.016-13.241-12.357-6.469-6.342-12.619-12.993-6.15-6.65-11.965-13.595-5.816-6.945-11.285-14.167-5.468-7.222-10.575-14.703T85.4 562.843t-9.084-15.67-8.303-16.095-7.504-16.484-6.686-16.832-5.852-17.14-5.004-17.406-4.144-17.632-3.274-17.813-2.395-17.952-1.512-18.048-.625-18.1q-.09-9.059.265-18.11.354-9.052 1.152-18.075t2.038-17.996 2.92-17.875q1.678-8.902 3.791-17.71t4.657-17.502 5.51-17.253q2.967-8.56 6.35-16.962 3.383-8.403 7.174-16.63 2.749-5.965 5.708-11.828t6.126-11.617 6.534-11.391q3.37-5.638 6.936-11.152 3.568-5.514 7.329-10.898t7.712-10.63q3.95-5.247 8.085-10.35 4.134-5.102 8.448-10.054 4.313-4.953 8.8-9.748 4.488-4.796 9.143-9.429 4.654-4.633 9.471-9.097t9.79-8.755 10.094-8.4q5.122-4.11 10.388-8.036 5.265-3.926 10.666-7.661 5.402-3.736 10.933-7.277t11.184-6.884 11.423-6.48q5.769-3.14 11.646-6.07 5.877-2.932 11.854-5.653 5.978-2.72 12.048-5.226t12.227-4.795q6.155-2.288 12.389-4.356t12.536-3.913 12.668-3.464 12.783-3.012 12.882-2.554 12.965-2.095 13.031-1.631 13.081-1.167q6.55-.468 13.114-.701Q393.432 1 400 1v369z"/><path fill="none" stroke="#fff" stroke-linejoin="bevel" stroke-width="2" d="M680.528 130.281q5.885 6.887 11.424 14.054 5.54 7.167 10.722 14.597t9.992 15.106 9.238 15.578 8.464 16.012 7.667 16.408 6.853 16.765 6.022 17.081 5.177 17.356 4.32 17.589 3.45 17.78 2.574 17.927 1.691 18.032.805 18.094-.084 18.111-.973 18.085-1.86 18.016-2.74 17.903-3.616 17.747-4.482 17.548-5.338 17.307-6.181 17.024-7.009 16.7-7.82 16.336-8.611 15.933-9.383 15.492-10.132 15.012-10.857 14.497-11.555 13.947-12.225 13.362-12.866 12.747-13.476 12.1q-4.993 4.267-10.135 8.353-5.141 4.087-10.425 7.987-5.283 3.9-10.702 7.611-5.42 3.71-10.967 7.225t-11.217 6.83-11.453 6.427q-5.784 3.112-11.675 6.015-5.89 2.904-11.88 5.596t-12.073 5.17q-6.083 2.477-12.25 4.736t-12.409 4.298-12.555 3.854-12.684 3.404q-6.372 1.59-12.797 2.95-6.425 1.362-12.894 2.494t-12.975 2.033-13.038 1.57q-6.534.67-13.087 1.106t-13.117.638q-6.564.203-13.132.172t-13.13-.296-13.11-.763-13.075-1.229-13.024-1.693-12.954-2.156q-6.459-1.193-12.87-2.615-6.412-1.423-12.769-3.072t-12.651-3.524-12.518-3.972q-6.224-2.098-12.369-4.415t-12.203-4.853-12.023-5.283q-8.227-3.792-16.258-7.982t-15.847-8.77-15.397-9.537-14.91-10.28-14.389-11q-7.059-5.678-13.83-11.694-6.773-6.016-13.241-12.357-6.469-6.342-12.619-12.993-6.15-6.65-11.965-13.595-5.816-6.945-11.285-14.167-5.468-7.222-10.575-14.703T85.4 562.843t-9.084-15.67-8.303-16.095-7.504-16.484-6.686-16.832-5.852-17.14-5.004-17.406-4.144-17.632-3.274-17.813-2.395-17.952-1.512-18.048-.625-18.1q-.09-9.059.265-18.11.354-9.052 1.152-18.075t2.038-17.996 2.92-17.875q1.678-8.902 3.791-17.71t4.657-17.502 5.51-17.253q2.967-8.56 6.35-16.962 3.383-8.403 7.174-16.63 2.749-5.965 5.708-11.828t6.126-11.617 6.534-11.391q3.37-5.638 6.936-11.152 3.568-5.514 7.329-10.898t7.712-10.63q3.95-5.247 8.085-10.35 4.134-5.102 8.448-10.054 4.313-4.953 8.8-9.748 4.488-4.796 9.143-9.429 4.654-4.633 9.471-9.097t9.79-8.755 10.094-8.4q5.122-4.11 10.388-8.036 5.265-3.926 10.666-7.661 5.402-3.736 10.933-7.277t11.184-6.884 11.423-6.48q5.769-3.14 11.646-6.07 5.877-2.932 11.854-5.653 5.978-2.72 12.048-5.226t12.227-4.795q6.155-2.288 12.389-4.356t12.536-3.913 12.668-3.464 12.783-3.012 12.882-2.554 12.965-2.095 13.031-1.631 13.081-1.167q6.55-.468 13.114-.701Q393.432 1 400 1v369l280.528-239.719Z"/></svg>