<svg xmlns="http://www.w3.org/2000/svg" width="800" height="800"><path fill="none" d="M0 0h800v800H0z"/><clipPath id="a"><path d="M0 740h800v60H0z"/></clipPath><g clip-path="url(#a)"><path fill="#4caf50" d="M164.745 770h40v20h-40z"/><path fill="none" stroke="#fff" stroke-miterlimit="10" stroke-width="2" d="M164.745 770h40v20h-40z"/><text x="214.745, 226.2196, 232.87976, 244.00281, 254.00281, 259.55945, 270.6825," y="786.5," fill="#666" font-family="Liberation Sans" font-size="20">Trusted</text><path fill="#ff9800" d="M311.805 770h40v20h-40z"/><path fill="none" stroke="#fff" stroke-miterlimit="10" stroke-width="2" d="M311.805 770h40v20h-40z"/><text x="361.80499, 375.14484, 381.80499, 392.92804, 402.92804, 414.05109, 425.17413, 436.29718, 447.42023, 457.42023," y="786.5," fill="#666" font-family="Liberation Sans" font-size="20">Provenance</text><path fill="#f44336" d="M498.545 770h40v20h-40z"/><path fill="none" stroke="#fff" stroke-miterlimit="10" stroke-width="2" d="M498.545 770h40v20h-40z"/><text x="548.54498, 562.98834, 574.11139, 579.66803, 586.32819, 597.45123, 607.45123, 613.00787, 624.13092," y="786.5," fill="#666" font-family="Liberation Sans" font-size="20">Untrusted</text></g><path fill="#4caf50" d="M400 1q5.503 0 11.003.164t10.994.492 10.973.82 10.945 1.146 10.905 1.473 10.857 1.797 10.798 2.12q5.384 1.14 10.73 2.44 5.348 1.301 10.654 2.76 5.305 1.46 10.565 3.077t10.47 3.39 10.363 3.7q5.154 1.928 10.248 4.008 5.095 2.08 10.125 4.312t9.991 4.612 9.85 4.908 9.699 5.199 9.54 5.486 9.37 5.768 9.196 6.045 9.011 6.317 8.819 6.582 8.618 6.843 8.41 7.096q4.153 3.61 8.196 7.344 4.043 3.733 7.973 7.585t7.743 7.82 7.506 8.047 7.263 8.267 7.013 8.48 6.758 8.685 6.495 8.883L400 370z"/><path fill="none" stroke="#fff" stroke-linejoin="bevel" stroke-width="2" d="M400 1q5.503 0 11.003.164t10.994.492 10.973.82 10.945 1.146 10.905 1.473 10.857 1.797 10.798 2.12q5.384 1.14 10.73 2.44 5.348 1.301 10.654 2.76 5.305 1.46 10.565 3.077t10.47 3.39 10.363 3.7q5.154 1.928 10.248 4.008 5.095 2.08 10.125 4.312t9.991 4.612 9.85 4.908 9.699 5.199 9.54 5.486 9.37 5.768 9.196 6.045 9.011 6.317 8.819 6.582 8.618 6.843 8.41 7.096q4.153 3.61 8.196 7.344 4.043 3.733 7.973 7.585t7.743 7.82 7.506 8.047 7.263 8.267 7.013 8.48 6.758 8.685 6.495 8.883L400 370z"/><path fill="#ff9800" d="M701.081 156.666q11.775 16.619 21.65 34.432t17.728 36.605L400 370z"/><path fill="none" stroke="#fff" stroke-linejoin="bevel" stroke-width="2" d="M701.081 156.666q11.775 16.619 21.65 34.432t17.728 36.605L400 370l301.081-213.334Z"/><path fill="#f44336" d="M740.46 227.703q3.493 8.358 6.571 16.877 3.08 8.52 5.737 17.18t4.886 17.44q2.229 8.779 4.024 17.658 1.796 8.878 3.154 17.834 1.357 8.957 2.274 17.969.917 9.011 1.39 18.058.473 9.046.502 18.104t-.387 18.107q-.415 9.05-1.274 18.067-.86 9.017-2.16 17.982t-3.04 17.855q-1.738 8.89-3.911 17.684-2.173 8.793-4.775 17.47t-5.627 17.216-6.464 16.918-7.287 16.581-8.09 16.204q-4.246 8.002-8.878 15.786-4.632 7.785-9.64 15.333-5.01 7.548-10.382 14.84-5.373 7.294-11.097 14.314T674.2 616.932q-6.062 6.731-12.447 13.157-6.385 6.425-13.077 12.53T635 654.493t-14.243 11.188-14.774 10.476-15.27 9.738-15.73 8.977q-7.976 4.296-16.152 8.195t-16.534 7.392q-5.232 2.187-10.528 4.212t-10.652 3.886q-5.356 1.86-10.766 3.556t-10.871 3.225-10.965 2.888-11.048 2.55q-5.543 1.191-11.121 2.21-5.578 1.02-11.184 1.868-5.606.847-11.236 1.522t-11.278 1.177-11.308.83q-5.66.327-11.328.481t-11.338.134q-5.67-.02-11.337-.215t-11.325-.564-11.302-.91-11.269-1.258-11.224-1.603-11.17-1.948-11.106-2.29-11.03-2.63-10.943-2.967-10.847-3.302-10.74-3.634q-5.343-1.9-10.624-3.963-5.282-2.062-10.498-4.286t-10.36-4.608-10.214-4.923q-5.07-2.54-10.058-5.235-4.989-2.695-9.892-5.542-4.904-2.847-9.718-5.843t-9.533-6.138q-7.54-5.02-14.824-10.405-7.285-5.385-14.296-11.12-7.011-5.736-13.733-11.808-6.722-6.073-13.137-12.468-6.416-6.395-12.51-13.097t-11.851-13.695-11.166-14.26-10.452-14.792-9.714-15.286q-4.67-7.762-8.952-15.744-4.283-7.982-8.17-16.165-3.885-8.182-7.365-16.545t-6.545-16.888-5.709-17.188q-2.643-8.664-4.858-17.448-2.215-8.783-3.997-17.665-1.78-8.881-3.124-17.84t-2.246-17.971q-.902-9.014-1.361-18.06-.46-9.047-.474-18.106-.014-9.058.416-18.106t1.304-18.065 2.188-17.978 3.068-17.85 3.94-17.678 4.803-17.463q2.615-8.672 5.653-17.206 3.039-8.534 6.492-16.908t7.313-16.57 8.117-16.19 8.902-15.773 9.665-15.317q3.143-4.72 6.429-9.34t6.712-9.138 6.99-8.928 7.262-8.709q3.697-4.298 7.525-8.481t7.783-8.246q3.954-4.064 8.032-8.004t8.274-7.752 8.508-7.495 8.735-7.23 8.953-6.958 9.162-6.68 9.363-6.395q4.731-3.126 9.556-6.104 4.824-2.98 9.738-5.808 4.914-2.83 9.912-5.506t10.077-5.199 10.231-4.887 10.377-4.57q5.224-2.205 10.513-4.249t10.638-3.924 10.754-3.595 10.858-3.264 10.955-2.928 11.039-2.59 11.113-2.25 11.177-1.907 11.23-1.563 11.274-1.217 11.305-.87 11.327-.523T400 1v369z"/><path fill="none" stroke="#fff" stroke-linejoin="bevel" stroke-width="2" d="M740.46 227.703q3.493 8.358 6.571 16.877 3.08 8.52 5.737 17.18t4.886 17.44q2.229 8.779 4.024 17.658 1.796 8.878 3.154 17.834 1.357 8.957 2.274 17.969.917 9.011 1.39 18.058.473 9.046.502 18.104t-.387 18.107q-.415 9.05-1.274 18.067-.86 9.017-2.16 17.982t-3.04 17.855q-1.738 8.89-3.911 17.684-2.173 8.793-4.775 17.47t-5.627 17.216-6.464 16.918-7.287 16.581-8.09 16.204q-4.246 8.002-8.878 15.786-4.632 7.785-9.64 15.333-5.01 7.548-10.382 14.84-5.373 7.294-11.097 14.314T674.2 616.932q-6.062 6.731-12.447 13.157-6.385 6.425-13.077 12.53T635 654.493t-14.243 11.188-14.774 10.476-15.27 9.738-15.73 8.977q-7.976 4.296-16.152 8.195t-16.534 7.392q-5.232 2.187-10.528 4.212t-10.652 3.886q-5.356 1.86-10.766 3.556t-10.871 3.225-10.965 2.888-11.048 2.55q-5.543 1.191-11.121 2.21-5.578 1.02-11.184 1.868-5.606.847-11.236 1.522t-11.278 1.177-11.308.83q-5.66.327-11.328.481t-11.338.134q-5.67-.02-11.337-.215t-11.325-.564-11.302-.91-11.269-1.258-11.224-1.603-11.17-1.948-11.106-2.29-11.03-2.63-10.943-2.967-10.847-3.302-10.74-3.634q-5.343-1.9-10.624-3.963-5.282-2.062-10.498-4.286t-10.36-4.608-10.214-4.923q-5.07-2.54-10.058-5.235-4.989-2.695-9.892-5.542-4.904-2.847-9.718-5.843t-9.533-6.138q-7.54-5.02-14.824-10.405-7.285-5.385-14.296-11.12-7.011-5.736-13.733-11.808-6.722-6.073-13.137-12.468-6.416-6.395-12.51-13.097t-11.851-13.695-11.166-14.26-10.452-14.792-9.714-15.286q-4.67-7.762-8.952-15.744-4.283-7.982-8.17-16.165-3.885-8.182-7.365-16.545t-6.545-16.888-5.709-17.188q-2.643-8.664-4.858-17.448-2.215-8.783-3.997-17.665-1.78-8.881-3.124-17.84t-2.246-17.971q-.902-9.014-1.361-18.06-.46-9.047-.474-18.106-.014-9.058.416-18.106t1.304-18.065 2.188-17.978 3.068-17.85 3.94-17.678 4.803-17.463q2.615-8.672 5.653-17.206 3.039-8.534 6.492-16.908t7.313-16.57 8.117-16.19 8.902-15.773 9.665-15.317q3.143-4.72 6.429-9.34t6.712-9.138 6.99-8.928 7.262-8.709q3.697-4.298 7.525-8.481t7.783-8.246q3.954-4.064 8.032-8.004t8.274-7.752 8.508-7.495 8.735-7.23 8.953-6.958 9.162-6.68 9.363-6.395q4.731-3.126 9.556-6.104 4.824-2.98 9.738-5.808 4.914-2.83 9.912-5.506t10.077-5.199 10.231-4.887 10.377-4.57q5.224-2.205 10.513-4.249t10.638-3.924 10.754-3.595 10.858-3.264 10.955-2.928 11.039-2.59 11.113-2.25 11.177-1.907 11.23-1.563 11.274-1.217 11.305-.87 11.327-.523T400 1v369l340.46-142.297Z"/></svg>