<svg xmlns="http://www.w3.org/2000/svg" width="800" height="800"><path fill="none" d="M0 0h800v800H0z"/><clipPath id="a"><path d="M0 740h800v60H0z"/></clipPath><g clip-path="url(#a)"><path fill="#4caf50" d="M164.745 770h40v20h-40z"/><path fill="none" stroke="#fff" stroke-miterlimit="10" stroke-width="2" d="M164.745 770h40v20h-40z"/><text x="214.745, 226.2196, 232.87976, 244.00281, 254.00281, 259.55945, 270.6825," y="786.5," fill="#666" font-family="Liberation Sans" font-size="20">Trusted</text><path fill="#ff9800" d="M311.805 770h40v20h-40z"/><path fill="none" stroke="#fff" stroke-miterlimit="10" stroke-width="2" d="M311.805 770h40v20h-40z"/><text x="361.80499, 375.14484, 381.80499, 392.92804, 402.92804, 414.05109, 425.17413, 436.29718, 447.42023, 457.42023," y="786.5," fill="#666" font-family="Liberation Sans" font-size="20">Provenance</text><path fill="#f44336" d="M498.545 770h40v20h-40z"/><path fill="none" stroke="#fff" stroke-miterlimit="10" stroke-width="2" d="M498.545 770h40v20h-40z"/><text x="548.54498, 562.98834, 574.11139, 579.66803, 586.32819, 597.45123, 607.45123, 613.00787, 624.13092," y="786.5," fill="#666" font-family="Liberation Sans" font-size="20">Untrusted</text></g><path fill="#4caf50" d="M400 1q5.308 0 10.614.153 5.306.152 10.606.458 5.3.305 10.588.762 5.288.458 10.562 1.068t10.526 1.37q5.254.761 10.483 1.673 5.23.911 10.43 1.973 5.201 1.062 10.37 2.273 5.168 1.21 10.3 2.57 5.13 1.36 10.22 2.865 5.09 1.507 10.136 3.158 5.044 1.652 10.04 3.449 4.994 1.796 9.936 3.736 4.941 1.939 9.825 4.02t9.705 4.3 9.577 4.579 9.442 4.852 9.298 5.121 9.147 5.387q4.535 2.76 8.988 5.648 4.454 2.888 8.823 5.904 4.368 3.015 8.648 6.155t8.468 6.402 8.28 6.642q4.093 3.38 8.087 6.878 3.993 3.497 7.884 7.108t7.677 7.331 7.463 7.55 7.243 7.76 7.016 7.966 6.785 8.165 6.547 8.356L400 370z"/><path fill="none" stroke="#fff" stroke-linejoin="bevel" stroke-width="2" d="M400 1q5.308 0 10.614.153 5.306.152 10.606.458 5.3.305 10.588.762 5.288.458 10.562 1.068t10.526 1.37q5.254.761 10.483 1.673 5.23.911 10.43 1.973 5.201 1.062 10.37 2.273 5.168 1.21 10.3 2.57 5.13 1.36 10.22 2.865 5.09 1.507 10.136 3.158 5.044 1.652 10.04 3.449 4.994 1.796 9.936 3.736 4.941 1.939 9.825 4.02t9.705 4.3 9.577 4.579 9.442 4.852 9.298 5.121 9.147 5.387q4.535 2.76 8.988 5.648 4.454 2.888 8.823 5.904 4.368 3.015 8.648 6.155t8.468 6.402 8.28 6.642q4.093 3.38 8.087 6.878 3.993 3.497 7.884 7.108t7.677 7.331 7.463 7.55 7.243 7.76 7.016 7.966 6.785 8.165 6.547 8.356L400 370z"/><path fill="#ff9800" d="M693.714 146.632q13.274 17.454 24.387 36.358t19.91 38.99L400 370z"/><path fill="none" stroke="#fff" stroke-linejoin="bevel" stroke-width="2" d="M693.714 146.632q13.274 17.454 24.387 36.358t19.91 38.99L400 370l293.714-223.368Z"/><path fill="#f44336" d="M738.01 221.98q3.634 8.298 6.857 16.764 3.222 8.466 6.025 17.08 2.802 8.614 5.18 17.355 2.376 8.741 4.321 17.588t3.454 17.78 2.577 17.927q1.068 8.995 1.694 18.032.626 9.036.808 18.093.181 9.057-.082 18.111-.262 9.055-.97 18.086-.706 9.03-1.855 18.016t-2.738 17.903q-1.589 8.918-3.613 17.747t-4.48 17.55-5.335 17.307-6.178 17.025-7.006 16.702-7.817 16.337-8.609 15.935-9.38 15.492-10.13 15.014q-5.25 7.383-10.854 14.499-5.605 7.116-11.553 13.949-5.947 6.832-12.223 13.365-6.275 6.532-12.864 12.749-6.588 6.216-13.474 12.102t-14.052 11.427-14.595 10.724q-7.43 5.182-15.104 9.994-7.675 4.812-15.577 9.242-7.901 4.43-16.01 8.466t-16.408 7.67q-5.238 2.294-10.545 4.424t-10.677 4.096q-5.371 1.965-10.8 3.763-5.428 1.797-10.91 3.426-5.482 1.628-11.012 3.086t-11.102 2.744-11.181 2.399q-5.61 1.112-11.251 2.05-5.641.939-11.309 1.702t-11.356 1.35-11.392.997-11.418.644-11.432.29-11.436-.065-11.428-.419q-5.711-.298-11.41-.772-5.7-.475-11.38-1.126-5.682-.652-11.34-1.479-5.66-.827-11.29-1.829-5.63-1.001-11.226-2.177t-11.154-2.525q-5.557-1.349-11.07-2.87-5.513-1.52-10.976-3.21t-10.871-3.55-10.756-3.884q-5.348-2.025-10.63-4.216-5.283-2.19-10.496-4.543-5.212-2.353-10.348-4.866-5.137-2.514-10.194-5.185-5.056-2.672-10.027-5.498t-9.852-5.807q-4.882-2.979-9.668-6.108-7.582-4.957-14.912-10.28t-14.389-10.999-13.832-11.692-13.242-12.356-12.62-12.991-11.966-13.595-11.285-14.166q-5.47-7.221-10.577-14.702t-9.842-15.204-9.085-15.668q-4.35-7.945-8.305-16.095t-7.505-16.483-6.688-16.832q-3.137-8.497-5.853-17.14-2.716-8.64-5.005-17.405-2.29-8.765-4.146-17.63-1.856-8.867-3.275-17.814t-2.397-17.952q-.978-9.005-1.513-18.048-.536-9.042-.626-18.1-.091-9.058.262-18.11.354-9.051 1.152-18.075t2.036-17.996q1.24-8.974 2.917-17.875 1.678-8.902 3.791-17.71 2.113-8.81 4.656-17.503 2.542-8.695 5.508-17.254t6.348-16.962q3.383-8.403 7.173-16.63 3.791-8.228 7.981-16.259t8.769-15.847q4.578-7.816 9.535-15.398 3.13-4.787 6.406-9.474t6.695-9.27 6.98-9.06 7.258-8.838q3.697-4.362 7.527-8.609t7.791-8.371q3.96-4.126 8.047-8.126 4.086-4.001 8.294-7.873 4.208-3.873 8.535-7.612 4.326-3.74 8.766-7.344t8.99-7.07 9.204-6.786 9.41-6.498 9.607-6.204 9.795-5.903 9.973-5.597 10.141-5.284 10.301-4.969 10.45-4.646 10.588-4.32 10.717-3.99 10.836-3.657 10.944-3.319 11.041-2.978 11.129-2.634 11.204-2.288 11.27-1.94 11.325-1.59 11.37-1.238 11.4-.885 11.424-.532T400 1v369z"/><path fill="none" stroke="#fff" stroke-linejoin="bevel" stroke-width="2" d="M738.01 221.98q3.634 8.298 6.857 16.764 3.222 8.466 6.025 17.08 2.802 8.614 5.18 17.355 2.376 8.741 4.321 17.588t3.454 17.78 2.577 17.927q1.068 8.995 1.694 18.032.626 9.036.808 18.093.181 9.057-.082 18.111-.262 9.055-.97 18.086-.706 9.03-1.855 18.016t-2.738 17.903q-1.589 8.918-3.613 17.747t-4.48 17.55-5.335 17.307-6.178 17.025-7.006 16.702-7.817 16.337-8.609 15.935-9.38 15.492-10.13 15.014q-5.25 7.383-10.854 14.499-5.605 7.116-11.553 13.949-5.947 6.832-12.223 13.365-6.275 6.532-12.864 12.749-6.588 6.216-13.474 12.102t-14.052 11.427-14.595 10.724q-7.43 5.182-15.104 9.994-7.675 4.812-15.577 9.242-7.901 4.43-16.01 8.466t-16.408 7.67q-5.238 2.294-10.545 4.424t-10.677 4.096q-5.371 1.965-10.8 3.763-5.428 1.797-10.91 3.426-5.482 1.628-11.012 3.086t-11.102 2.744-11.181 2.399q-5.61 1.112-11.251 2.05-5.641.939-11.309 1.702t-11.356 1.35-11.392.997-11.418.644-11.432.29-11.436-.065-11.428-.419q-5.711-.298-11.41-.772-5.7-.475-11.38-1.126-5.682-.652-11.34-1.479-5.66-.827-11.29-1.829-5.63-1.001-11.226-2.177t-11.154-2.525q-5.557-1.349-11.07-2.87-5.513-1.52-10.976-3.21t-10.871-3.55-10.756-3.884q-5.348-2.025-10.63-4.216-5.283-2.19-10.496-4.543-5.212-2.353-10.348-4.866-5.137-2.514-10.194-5.185-5.056-2.672-10.027-5.498t-9.852-5.807q-4.882-2.979-9.668-6.108-7.582-4.957-14.912-10.28t-14.389-10.999-13.832-11.692-13.242-12.356-12.62-12.991-11.966-13.595-11.285-14.166q-5.47-7.221-10.577-14.702t-9.842-15.204-9.085-15.668q-4.35-7.945-8.305-16.095t-7.505-16.483-6.688-16.832q-3.137-8.497-5.853-17.14-2.716-8.64-5.005-17.405-2.29-8.765-4.146-17.63-1.856-8.867-3.275-17.814t-2.397-17.952q-.978-9.005-1.513-18.048-.536-9.042-.626-18.1-.091-9.058.262-18.11.354-9.051 1.152-18.075t2.036-17.996q1.24-8.974 2.917-17.875 1.678-8.902 3.791-17.71 2.113-8.81 4.656-17.503 2.542-8.695 5.508-17.254t6.348-16.962q3.383-8.403 7.173-16.63 3.791-8.228 7.981-16.259t8.769-15.847q4.578-7.816 9.535-15.398 3.13-4.787 6.406-9.474t6.695-9.27 6.98-9.06 7.258-8.838q3.697-4.362 7.527-8.609t7.791-8.371q3.96-4.126 8.047-8.126 4.086-4.001 8.294-7.873 4.208-3.873 8.535-7.612 4.326-3.74 8.766-7.344t8.99-7.07 9.204-6.786 9.41-6.498 9.607-6.204 9.795-5.903 9.973-5.597 10.141-5.284 10.301-4.969 10.45-4.646 10.588-4.32 10.717-3.99 10.836-3.657 10.944-3.319 11.041-2.978 11.129-2.634 11.204-2.288 11.27-1.94 11.325-1.59 11.37-1.238 11.4-.885 11.424-.532T400 1v369l338.01-148.02Z"/></svg>