<svg xmlns="http://www.w3.org/2000/svg" width="800" height="800"><path fill="none" d="M0 0h800v800H0z"/><clipPath id="a"><path d="M0 740h800v60H0z"/></clipPath><g clip-path="url(#a)"><path fill="#4caf50" d="M164.745 770h40v20h-40z"/><path fill="none" stroke="#fff" stroke-miterlimit="10" stroke-width="2" d="M164.745 770h40v20h-40z"/><text x="214.745, 226.2196, 232.87976, 244.00281, 254.00281, 259.55945, 270.6825," y="786.5," fill="#666" font-family="Liberation Sans" font-size="20">Trusted</text><path fill="#ff9800" d="M311.805 770h40v20h-40z"/><path fill="none" stroke="#fff" stroke-miterlimit="10" stroke-width="2" d="M311.805 770h40v20h-40z"/><text x="361.80499, 375.14484, 381.80499, 392.92804, 402.92804, 414.05109, 425.17413, 436.29718, 447.42023, 457.42023," y="786.5," fill="#666" font-family="Liberation Sans" font-size="20">Provenance</text><path fill="#f44336" d="M498.545 770h40v20h-40z"/><path fill="none" stroke="#fff" stroke-miterlimit="10" stroke-width="2" d="M498.545 770h40v20h-40z"/><text x="548.54498, 562.98834, 574.11139, 579.66803, 586.32819, 597.45123, 607.45123, 613.00787, 624.13092," y="786.5," fill="#666" font-family="Liberation Sans" font-size="20">Untrusted</text></g><path fill="#4caf50" d="M400 1q5.379 0 10.755.157t10.747.47 10.727.783q5.359.47 10.7 1.096 5.343.626 10.665 1.407t10.618 1.717 10.564 2.026q5.268 1.09 10.5 2.333 5.234 1.243 10.429 2.638 5.194 1.395 10.346 2.941t10.257 3.241 10.157 3.54 10.05 3.833q4.998 1.99 9.935 4.124 4.937 2.135 9.81 4.413 4.872 2.278 9.677 4.696 4.804 2.42 9.536 4.977t9.387 5.252 9.23 5.524q4.574 2.83 9.064 5.79 4.49 2.962 8.892 6.053t8.712 6.309 8.525 6.56 8.33 6.806q4.115 3.463 8.127 7.045t7.919 7.28 7.703 7.507 7.482 7.729 7.252 7.943 7.019 8.152 6.777 8.352 6.532 8.547L400 370z"/><path fill="none" stroke="#fff" stroke-linejoin="bevel" stroke-width="2" d="M400 1q5.379 0 10.755.157t10.747.47 10.727.783q5.359.47 10.7 1.096 5.343.626 10.665 1.407t10.618 1.717 10.564 2.026q5.268 1.09 10.5 2.333 5.234 1.243 10.429 2.638 5.194 1.395 10.346 2.941t10.257 3.241 10.157 3.54 10.05 3.833q4.998 1.99 9.935 4.124 4.937 2.135 9.81 4.413 4.872 2.278 9.677 4.696 4.804 2.42 9.536 4.977t9.387 5.252 9.23 5.524q4.574 2.83 9.064 5.79 4.49 2.962 8.892 6.053t8.712 6.309 8.525 6.56 8.33 6.806q4.115 3.463 8.127 7.045t7.919 7.28 7.703 7.507 7.482 7.729 7.252 7.943 7.019 8.152 6.777 8.352 6.532 8.547L400 370z"/><path fill="#ff9800" d="M696.423 150.24q12.827 17.302 23.555 35.98 10.727 18.676 19.208 38.474L400 370z"/><path fill="none" stroke="#fff" stroke-linejoin="bevel" stroke-width="2" d="M696.423 150.24q12.827 17.302 23.555 35.98 10.727 18.676 19.208 38.474L400 370l296.423-219.76Z"/><path fill="#f44336" d="M739.186 224.694q3.567 8.326 6.721 16.818 3.154 8.491 5.888 17.127 2.734 8.637 5.04 17.396t4.181 17.623q1.875 8.862 3.311 17.806 1.437 8.944 2.434 17.947.996 9.003 1.55 18.045.553 9.041.662 18.1.11 9.057-.226 18.11t-1.115 18.076q-.78 9.025-2 18.001-1.221 8.976-2.881 17.88-1.66 8.906-3.756 17.719t-4.62 17.512-5.473 17.264-6.314 16.976q-3.366 8.41-7.14 16.644-3.774 8.235-7.948 16.275-4.173 8.04-8.736 15.865t-9.505 15.417-10.25 14.932q-5.307 7.34-10.97 14.411-5.661 7.071-11.663 13.856t-12.33 13.267-12.966 12.645q-6.638 6.164-13.57 11.995t-14.143 11.313-14.68 10.607q-7.472 5.123-15.185 9.873t-15.65 9.116q-7.936 4.366-16.078 8.337t-16.468 7.539q-5.235 2.243-10.537 4.323t-10.666 3.996-10.784 3.664q-5.42 1.75-10.892 3.33t-10.99 2.993q-5.518 1.41-11.077 2.651t-11.153 2.309q-5.595 1.068-11.22 1.963-5.624.895-11.274 1.616t-11.32 1.268-11.352.917q-5.683.371-11.376.567t-11.387.215-11.39-.137-11.379-.487-11.358-.84-11.328-1.188-11.285-1.538-11.233-1.886-11.17-2.23q-5.566-1.203-11.094-2.576t-11.01-2.916q-5.483-1.543-10.915-3.254t-10.81-3.59q-5.376-1.879-10.693-3.922t-10.567-4.25q-5.25-2.206-10.43-4.574-5.181-2.368-10.286-4.894t-10.129-5.209q-5.024-2.682-9.963-5.519-4.939-2.836-9.788-5.823t-9.604-6.124q-7.562-4.987-14.87-10.339t-14.345-11.056-13.785-11.748-13.192-12.409-12.568-13.042-11.912-13.642-11.228-14.21-10.518-14.746q-5.078-7.5-9.782-15.242t-9.021-15.705q-4.319-7.963-8.24-16.128-3.923-8.165-7.44-16.513t-6.62-16.858-5.785-17.163-4.935-17.426-4.075-17.647-3.203-17.826T33 408.379t-1.44-18.054-.554-18.103q-.055-9.058.335-18.108t1.224-18.07 2.108-17.988 2.99-17.863 3.86-17.695 4.726-17.484q2.578-8.684 5.578-17.232t6.416-16.936 7.24-16.602 8.045-16.226 8.832-15.812 9.598-15.36q3.135-4.754 6.416-9.41t6.704-9.208 6.985-8.996 7.26-8.777 7.526-8.548 7.787-8.312q3.958-4.096 8.04-8.068t8.285-7.816 8.522-7.556 8.752-7.29 8.972-7.016 9.185-6.736 9.388-6.45q4.743-3.151 9.582-6.155t9.768-5.858q4.93-2.854 9.944-5.554t10.111-5.244 10.268-4.929 10.415-4.61 10.552-4.287q5.31-2.061 10.68-3.958t10.797-3.628q5.426-1.73 10.903-3.292t11-2.954 11.086-2.613 11.162-2.27q5.598-1.05 11.226-1.925t11.28-1.577q5.652-.701 11.323-1.228t11.356-.878 11.378-.527Q394.304 1 400 1v369z"/><path fill="none" stroke="#fff" stroke-linejoin="bevel" stroke-width="2" d="M739.186 224.694q3.567 8.326 6.721 16.818 3.154 8.491 5.888 17.127 2.734 8.637 5.04 17.396t4.181 17.623q1.875 8.862 3.311 17.806 1.437 8.944 2.434 17.947.996 9.003 1.55 18.045.553 9.041.662 18.1.11 9.057-.226 18.11t-1.115 18.076q-.78 9.025-2 18.001-1.221 8.976-2.881 17.88-1.66 8.906-3.756 17.719t-4.62 17.512-5.473 17.264-6.314 16.976q-3.366 8.41-7.14 16.644-3.774 8.235-7.948 16.275-4.173 8.04-8.736 15.865t-9.505 15.417-10.25 14.932q-5.307 7.34-10.97 14.411-5.661 7.071-11.663 13.856t-12.33 13.267-12.966 12.645q-6.638 6.164-13.57 11.995t-14.143 11.313-14.68 10.607q-7.472 5.123-15.185 9.873t-15.65 9.116q-7.936 4.366-16.078 8.337t-16.468 7.539q-5.235 2.243-10.537 4.323t-10.666 3.996-10.784 3.664q-5.42 1.75-10.892 3.33t-10.99 2.993q-5.518 1.41-11.077 2.651t-11.153 2.309q-5.595 1.068-11.22 1.963-5.624.895-11.274 1.616t-11.32 1.268-11.352.917q-5.683.371-11.376.567t-11.387.215-11.39-.137-11.379-.487-11.358-.84-11.328-1.188-11.285-1.538-11.233-1.886-11.17-2.23q-5.566-1.203-11.094-2.576t-11.01-2.916q-5.483-1.543-10.915-3.254t-10.81-3.59q-5.376-1.879-10.693-3.922t-10.567-4.25q-5.25-2.206-10.43-4.574-5.181-2.368-10.286-4.894t-10.129-5.209q-5.024-2.682-9.963-5.519-4.939-2.836-9.788-5.823t-9.604-6.124q-7.562-4.987-14.87-10.339t-14.345-11.056-13.785-11.748-13.192-12.409-12.568-13.042-11.912-13.642-11.228-14.21-10.518-14.746q-5.078-7.5-9.782-15.242t-9.021-15.705q-4.319-7.963-8.24-16.128-3.923-8.165-7.44-16.513t-6.62-16.858-5.785-17.163-4.935-17.426-4.075-17.647-3.203-17.826T33 408.379t-1.44-18.054-.554-18.103q-.055-9.058.335-18.108t1.224-18.07 2.108-17.988 2.99-17.863 3.86-17.695 4.726-17.484q2.578-8.684 5.578-17.232t6.416-16.936 7.24-16.602 8.045-16.226 8.832-15.812 9.598-15.36q3.135-4.754 6.416-9.41t6.704-9.208 6.985-8.996 7.26-8.777 7.526-8.548 7.787-8.312q3.958-4.096 8.04-8.068t8.285-7.816 8.522-7.556 8.752-7.29 8.972-7.016 9.185-6.736 9.388-6.45q4.743-3.151 9.582-6.155t9.768-5.858q4.93-2.854 9.944-5.554t10.111-5.244 10.268-4.929 10.415-4.61 10.552-4.287q5.31-2.061 10.68-3.958t10.797-3.628q5.426-1.73 10.903-3.292t11-2.954 11.086-2.613 11.162-2.27q5.598-1.05 11.226-1.925t11.28-1.577q5.652-.701 11.323-1.228t11.356-.878 11.378-.527Q394.304 1 400 1v369z"/></svg>