<svg xmlns="http://www.w3.org/2000/svg" width="800" height="800"><path fill="none" d="M0 0h800v800H0z"/><clipPath id="a"><path d="M0 740h800v60H0z"/></clipPath><g clip-path="url(#a)"><path fill="#4caf50" d="M138.975 770h40v20h-40z"/><path fill="none" stroke="#fff" stroke-miterlimit="10" stroke-width="2" d="M138.975 770h40v20h-40z"/><text x="188.97501, 200.97696, 212.97891, 224.98087, 236.98282, 248.98477, 260.98672," y="785.5," fill="#666" font-family="Liberation Mono" font-size="20">Trusted</text><path fill="#ff9800" d="M302.985 770h40v20h-40z"/><path fill="none" stroke="#fff" stroke-miterlimit="10" stroke-width="2" d="M302.985 770h40v20h-40z"/><text x="352.98502, 364.98697, 376.98892, 388.99088, 400.99283, 412.99478, 424.99673, 436.99869, 449.00064, 461.00259," y="785.5," fill="#666" font-family="Liberation Mono" font-size="20">Provenance</text><path fill="#f44336" d="M503.005 770h40v20h-40z"/><path fill="none" stroke="#fff" stroke-miterlimit="10" stroke-width="2" d="M503.005 770h40v20h-40z"/><text x="553.005, 565.00696, 577.00891, 589.01086, 601.01282, 613.01477, 625.01672, 637.01868, 649.02063," y="785.5," fill="#666" font-family="Liberation Mono" font-size="20">Untrusted</text></g><path fill="#4caf50" d="M400 1q5.924 0 11.844.19t11.832.57 11.807.95q5.897.57 11.771 1.328t11.723 1.706q5.847.946 11.661 2.08t11.589 2.454 11.504 2.825 11.407 3.192 11.299 3.557q5.62 1.87 11.179 3.918 5.558 2.049 11.047 4.275t10.905 4.627q5.415 2.4 10.75 4.974 5.336 2.574 10.586 5.317t10.409 5.655q5.159 2.91 10.222 5.985t10.025 6.31 9.817 6.63q4.855 3.392 9.6 6.94 4.743 3.547 9.37 7.245 4.628 3.698 9.135 7.542 4.507 3.845 8.888 7.832 4.38 3.987 8.631 8.112 4.25 4.126 8.367 8.386 4.116 4.26 8.093 8.65t7.811 8.905 7.522 9.151 7.223 9.388 6.92 9.615q3.381 4.863 6.606 9.833t6.288 10.039L400 370z"/><path fill="none" stroke="#fff" stroke-linejoin="bevel" stroke-width="2" d="M400 1q5.924 0 11.844.19t11.832.57 11.807.95q5.897.57 11.771 1.328t11.723 1.706q5.847.946 11.661 2.08t11.589 2.454 11.504 2.825 11.407 3.192 11.299 3.557q5.62 1.87 11.179 3.918 5.558 2.049 11.047 4.275t10.905 4.627q5.415 2.4 10.75 4.974 5.336 2.574 10.586 5.317t10.409 5.655q5.159 2.91 10.222 5.985t10.025 6.31 9.817 6.63q4.855 3.392 9.6 6.94 4.743 3.547 9.37 7.245 4.628 3.698 9.135 7.542 4.507 3.845 8.888 7.832 4.38 3.987 8.631 8.112 4.25 4.126 8.367 8.386 4.116 4.26 8.093 8.65t7.811 8.905 7.522 9.151 7.223 9.388 6.92 9.615q3.381 4.863 6.606 9.833t6.288 10.039L400 370z"/><path fill="#ff9800" d="M715.83 179.18q9.484 15.697 17.364 32.256t14.08 33.818L400 370z"/><path fill="none" stroke="#fff" stroke-linejoin="bevel" stroke-width="2" d="M715.83 179.18q9.484 15.697 17.364 32.256t14.08 33.818L400 370l315.83-190.82Z"/><path fill="#f44336" d="M747.274 245.254q3.063 8.525 5.703 17.19t4.852 17.45q2.212 8.783 3.99 17.666 1.779 8.882 3.12 17.84 1.34 8.96 2.239 17.973.899 9.014 1.355 18.06.455 9.048.467 18.106.01 9.058-.422 18.107-.433 9.048-1.31 18.064t-2.195 17.978T762 441.536t-3.946 17.676-4.809 17.462-5.66 17.204-6.496 16.906-7.32 16.567-8.122 16.188-8.907 15.77q-4.648 7.775-9.67 15.313-5.024 7.538-10.411 14.82-5.387 7.283-11.125 14.293t-11.813 13.728-12.472 13.133-13.101 12.505-13.7 11.847q-6.995 5.756-14.264 11.16-7.269 5.406-14.794 10.448t-15.29 9.709q-7.764 4.666-15.747 8.946-7.984 4.28-16.168 8.164t-16.548 7.36-16.89 6.54q-5.197 1.866-10.449 3.577t-10.551 3.263q-5.3 1.553-10.644 2.947-5.345 1.393-10.728 2.626-5.384 1.233-10.802 2.304t-10.865 1.98-10.92 1.654q-5.473.745-10.965 1.326t-11 .998-11.024.667-11.04.338q-5.521.086-11.044.007-5.522-.08-11.04-.323-5.517-.245-11.025-.654-5.507-.41-11-.984t-10.967-1.312-10.922-1.64-10.868-1.965q-5.42-1.065-10.805-2.29-5.385-1.227-10.73-2.613-5.347-1.387-10.649-2.933t-10.555-3.25-10.454-3.564-10.342-3.876q-5.142-2.015-10.222-4.183t-10.091-4.488-9.953-4.787-9.806-5.083-9.648-5.375-9.484-5.66q-4.7-2.902-9.31-5.943t-9.128-6.218q-7.41-5.21-14.554-10.78-7.144-5.568-14.007-11.48t-13.428-12.155-12.814-12.799q-6.25-6.556-12.172-13.412-5.92-6.855-11.498-13.993t-10.798-14.54-10.072-15.053q-4.85-7.65-9.32-15.53-4.47-7.878-8.548-15.967-4.078-8.088-7.754-16.367t-6.941-16.729q-3.266-8.45-6.113-17.049-2.846-8.6-5.268-17.328t-4.412-17.566-3.544-17.761q-1.554-8.924-2.669-17.914t-1.786-18.023-.9-18.089-.011-18.111.877-18.09 1.764-18.026 2.646-17.917 3.522-17.766 4.39-17.57q2.41-8.733 5.247-17.336t6.09-17.056q3.256-8.454 6.921-16.737 3.666-8.284 7.734-16.378t8.527-15.978 9.302-15.54 10.053-15.066q3.177-4.517 6.488-8.938 3.311-4.42 6.753-8.739t7.011-8.534 7.264-8.32 7.51-8.098 7.748-7.87 7.98-7.635 8.206-7.393 8.423-7.144 8.633-6.889 8.836-6.627 9.03-6.36 9.215-6.086 9.395-5.808 9.563-5.524 9.725-5.236 9.877-4.942 10.02-4.645 10.156-4.342 10.28-4.037 10.397-3.727 10.503-3.414 10.601-3.098 10.69-2.78T323.25 9.07t10.836-2.135 10.895-1.81 10.945-1.483 10.984-1.155q5.5-.496 11.013-.826t11.034-.496Q394.477 1 400 1v369z"/><path fill="none" stroke="#fff" stroke-linejoin="bevel" stroke-width="2" d="M747.274 245.254q3.063 8.525 5.703 17.19t4.852 17.45q2.212 8.783 3.99 17.666 1.779 8.882 3.12 17.84 1.34 8.96 2.239 17.973.899 9.014 1.355 18.06.455 9.048.467 18.106.01 9.058-.422 18.107-.433 9.048-1.31 18.064t-2.195 17.978T762 441.536t-3.946 17.676-4.809 17.462-5.66 17.204-6.496 16.906-7.32 16.567-8.122 16.188-8.907 15.77q-4.648 7.775-9.67 15.313-5.024 7.538-10.411 14.82-5.387 7.283-11.125 14.293t-11.813 13.728-12.472 13.133-13.101 12.505-13.7 11.847q-6.995 5.756-14.264 11.16-7.269 5.406-14.794 10.448t-15.29 9.709q-7.764 4.666-15.747 8.946-7.984 4.28-16.168 8.164t-16.548 7.36-16.89 6.54q-5.197 1.866-10.449 3.577t-10.551 3.263q-5.3 1.553-10.644 2.947-5.345 1.393-10.728 2.626-5.384 1.233-10.802 2.304t-10.865 1.98-10.92 1.654q-5.473.745-10.965 1.326t-11 .998-11.024.667-11.04.338q-5.521.086-11.044.007-5.522-.08-11.04-.323-5.517-.245-11.025-.654-5.507-.41-11-.984t-10.967-1.312-10.922-1.64-10.868-1.965q-5.42-1.065-10.805-2.29-5.385-1.227-10.73-2.613-5.347-1.387-10.649-2.933t-10.555-3.25-10.454-3.564-10.342-3.876q-5.142-2.015-10.222-4.183t-10.091-4.488-9.953-4.787-9.806-5.083-9.648-5.375-9.484-5.66q-4.7-2.902-9.31-5.943t-9.128-6.218q-7.41-5.21-14.554-10.78-7.144-5.568-14.007-11.48t-13.428-12.155-12.814-12.799q-6.25-6.556-12.172-13.412-5.92-6.855-11.498-13.993t-10.798-14.54-10.072-15.053q-4.85-7.65-9.32-15.53-4.47-7.878-8.548-15.967-4.078-8.088-7.754-16.367t-6.941-16.729q-3.266-8.45-6.113-17.049-2.846-8.6-5.268-17.328t-4.412-17.566-3.544-17.761q-1.554-8.924-2.669-17.914t-1.786-18.023-.9-18.089-.011-18.111.877-18.09 1.764-18.026 2.646-17.917 3.522-17.766 4.39-17.57q2.41-8.733 5.247-17.336t6.09-17.056q3.256-8.454 6.921-16.737 3.666-8.284 7.734-16.378t8.527-15.978 9.302-15.54 10.053-15.066q3.177-4.517 6.488-8.938 3.311-4.42 6.753-8.739t7.011-8.534 7.264-8.32 7.51-8.098 7.748-7.87 7.98-7.635 8.206-7.393 8.423-7.144 8.633-6.889 8.836-6.627 9.03-6.36 9.215-6.086 9.395-5.808 9.563-5.524 9.725-5.236 9.877-4.942 10.02-4.645 10.156-4.342 10.28-4.037 10.397-3.727 10.503-3.414 10.601-3.098 10.69-2.78T323.25 9.07t10.836-2.135 10.895-1.81 10.945-1.483 10.984-1.155q5.5-.496 11.013-.826t11.034-.496Q394.477 1 400 1v369l347.274-124.746Z"/></svg>