<svg xmlns="http://www.w3.org/2000/svg" width="800" height="800"><path fill="none" d="M0 0h800v800H0z"/><clipPath id="a"><path d="M0 740h800v60H0z"/></clipPath><g clip-path="url(#a)"><path fill="#4caf50" d="M164.745 770h40v20h-40z"/><path fill="none" stroke="#fff" stroke-miterlimit="10" stroke-width="2" d="M164.745 770h40v20h-40z"/><text x="214.745, 226.2196, 232.87976, 244.00281, 254.00281, 259.55945, 270.6825," y="786.5," fill="#666" font-family="Liberation Sans" font-size="20">Trusted</text><path fill="#ff9800" d="M311.805 770h40v20h-40z"/><path fill="none" stroke="#fff" stroke-miterlimit="10" stroke-width="2" d="M311.805 770h40v20h-40z"/><text x="361.80499, 375.14484, 381.80499, 392.92804, 402.92804, 414.05109, 425.17413, 436.29718, 447.42023, 457.42023," y="786.5," fill="#666" font-family="Liberation Sans" font-size="20">Provenance</text><path fill="#f44336" d="M498.545 770h40v20h-40z"/><path fill="none" stroke="#fff" stroke-miterlimit="10" stroke-width="2" d="M498.545 770h40v20h-40z"/><text x="548.54498, 562.98834, 574.11139, 579.66803, 586.32819, 597.45123, 607.45123, 613.00787, 624.13092," y="786.5," fill="#666" font-family="Liberation Sans" font-size="20">Untrusted</text></g><path fill="#4caf50" d="M400 1q5.33 0 10.658.154t10.65.462q5.32.307 10.63.769 5.31.461 10.606 1.076 5.294.614 10.569 1.381 5.274.768 10.525 1.687 5.25.92 10.472 1.99t10.41 2.291q5.188 1.22 10.339 2.591 5.151 1.37 10.26 2.889 5.11 1.518 10.173 3.184 5.063 1.665 10.076 3.476t9.972 3.766 9.86 4.052 9.737 4.336 9.608 4.614 9.471 4.891 9.326 5.162 9.173 5.43 9.012 5.691 8.844 5.95q4.38 3.039 8.669 6.203t8.486 6.45q4.196 3.287 8.296 6.693 4.1 3.407 8.099 6.93t7.896 7.16 7.685 7.387 7.469 7.605 7.246 7.817 7.017 8.023 6.783 8.223 6.542 8.415L400 370z"/><path fill="none" stroke="#fff" stroke-linejoin="bevel" stroke-width="2" d="M400 1q5.33 0 10.658.154t10.65.462q5.32.307 10.63.769 5.31.461 10.606 1.076 5.294.614 10.569 1.381 5.274.768 10.525 1.687 5.25.92 10.472 1.99t10.41 2.291q5.188 1.22 10.339 2.591 5.151 1.37 10.26 2.889 5.11 1.518 10.173 3.184 5.063 1.665 10.076 3.476t9.972 3.766 9.86 4.052 9.737 4.336 9.608 4.614 9.471 4.891 9.326 5.162 9.173 5.43 9.012 5.691 8.844 5.95q4.38 3.039 8.669 6.203t8.486 6.45q4.196 3.287 8.296 6.693 4.1 3.407 8.099 6.93t7.896 7.16 7.685 7.387 7.469 7.605 7.246 7.817 7.017 8.023 6.783 8.223 6.542 8.415L400 370z"/><path fill="#ff9800" d="M694.56 147.748q13.136 17.412 24.13 36.25 10.995 18.837 19.694 38.838L400 370z"/><path fill="none" stroke="#fff" stroke-linejoin="bevel" stroke-width="2" d="M694.56 147.748q13.136 17.412 24.13 36.25 10.995 18.837 19.694 38.838L400 370l294.56-222.252Z"/><path fill="#f44336" d="M738.384 222.836q3.613 8.307 6.814 16.781t5.981 17.095 5.136 17.368 4.277 17.6q1.923 8.851 3.409 17.787t2.532 17.934q1.045 8.998 1.648 18.036t.762 18.095-.127 18.111-1.015 18.083-1.902 18.012-2.783 17.896-3.658 17.738q-2.047 8.824-4.524 17.538-2.477 8.713-5.379 17.294-2.902 8.58-6.22 17.01-3.32 8.428-7.05 16.683-3.728 8.255-7.857 16.318-4.13 8.062-8.65 15.912t-9.42 15.47-10.167 14.987-10.891 14.472-11.588 13.919-12.256 13.334-12.897 12.717-13.504 12.068-14.081 11.391-14.623 10.687-15.129 9.956-15.6 9.202q-7.912 4.41-16.032 8.426-8.12 4.015-16.426 7.628-5.238 2.278-10.543 4.392-5.306 2.115-10.674 4.065-5.369 1.949-10.795 3.731-5.426 1.783-10.905 3.396-5.478 1.614-11.004 3.057t-11.094 2.715q-5.568 1.271-11.173 2.37-5.605 1.098-11.24 2.023-5.637.924-11.299 1.674t-11.344 1.324-11.38.972q-5.698.398-11.405.62-5.707.22-11.418.266-5.711.044-11.421-.088t-11.413-.44-11.394-.794-11.364-1.146-11.322-1.497-11.271-1.847q-5.622-1.01-11.209-2.195t-11.135-2.54q-5.548-1.357-11.051-2.884-5.504-1.528-10.957-3.225T279.5 718.77t-10.736-3.897-10.61-4.226-10.475-4.553-10.329-4.876q-5.126-2.517-10.173-5.192t-10.007-5.505-9.832-5.812-9.648-6.113q-7.575-4.966-14.898-10.298t-14.375-11.018q-7.053-5.685-13.818-11.709T141.374 633.2q-6.46-6.349-12.603-13.007t-11.95-13.61-11.267-14.18-10.558-14.716-9.823-15.216q-4.725-7.728-9.065-15.68-4.34-7.95-8.285-16.105-3.944-8.154-7.484-16.493t-6.666-16.84-5.832-17.146q-2.705-8.645-4.983-17.413-2.278-8.767-4.123-17.636t-3.253-17.817-2.374-17.955q-.967-9.006-1.49-18.05-.524-9.043-.604-18.101t.286-18.11 1.174-18.073 2.06-17.994 2.94-17.87 3.812-17.706 4.678-17.497 5.53-17.247 6.37-16.954 7.194-16.621 8.001-16.249 8.789-15.836 9.555-15.386q3.131-4.776 6.409-9.453 3.278-4.678 6.698-9.251 3.421-4.574 6.982-9.04 3.56-4.465 7.258-8.818t7.527-8.59 7.79-8.353 8.044-8.107 8.292-7.855 8.53-7.595q4.325-3.731 8.762-7.327t8.984-7.052 9.198-6.77q4.652-3.315 9.404-6.483 4.751-3.169 9.6-6.189 4.847-3.02 9.785-5.889 4.94-2.868 9.964-5.583 5.025-2.714 10.132-5.272 5.107-2.557 10.29-4.955 5.184-2.399 10.439-4.635 5.255-2.237 10.577-4.31t10.705-3.98 10.824-3.647 10.93-3.31q5.492-1.571 11.03-2.971 5.536-1.4 11.114-2.628t11.191-2.282T343.12 5.41q5.643-.88 11.31-1.585 5.668-.706 11.355-1.235 5.686-.53 11.387-.883 5.7-.354 11.409-.53T400 1v369z"/><path fill="none" stroke="#fff" stroke-linejoin="bevel" stroke-width="2" d="M738.384 222.836q3.613 8.307 6.814 16.781t5.981 17.095 5.136 17.368 4.277 17.6q1.923 8.851 3.409 17.787t2.532 17.934q1.045 8.998 1.648 18.036t.762 18.095-.127 18.111-1.015 18.083-1.902 18.012-2.783 17.896-3.658 17.738q-2.047 8.824-4.524 17.538-2.477 8.713-5.379 17.294-2.902 8.58-6.22 17.01-3.32 8.428-7.05 16.683-3.728 8.255-7.857 16.318-4.13 8.062-8.65 15.912t-9.42 15.47-10.167 14.987-10.891 14.472-11.588 13.919-12.256 13.334-12.897 12.717-13.504 12.068-14.081 11.391-14.623 10.687-15.129 9.956-15.6 9.202q-7.912 4.41-16.032 8.426-8.12 4.015-16.426 7.628-5.238 2.278-10.543 4.392-5.306 2.115-10.674 4.065-5.369 1.949-10.795 3.731-5.426 1.783-10.905 3.396-5.478 1.614-11.004 3.057t-11.094 2.715q-5.568 1.271-11.173 2.37-5.605 1.098-11.24 2.023-5.637.924-11.299 1.674t-11.344 1.324-11.38.972q-5.698.398-11.405.62-5.707.22-11.418.266-5.711.044-11.421-.088t-11.413-.44-11.394-.794-11.364-1.146-11.322-1.497-11.271-1.847q-5.622-1.01-11.209-2.195t-11.135-2.54q-5.548-1.357-11.051-2.884-5.504-1.528-10.957-3.225T279.5 718.77t-10.736-3.897-10.61-4.226-10.475-4.553-10.329-4.876q-5.126-2.517-10.173-5.192t-10.007-5.505-9.832-5.812-9.648-6.113q-7.575-4.966-14.898-10.298t-14.375-11.018q-7.053-5.685-13.818-11.709T141.374 633.2q-6.46-6.349-12.603-13.007t-11.95-13.61-11.267-14.18-10.558-14.716-9.823-15.216q-4.725-7.728-9.065-15.68-4.34-7.95-8.285-16.105-3.944-8.154-7.484-16.493t-6.666-16.84-5.832-17.146q-2.705-8.645-4.983-17.413-2.278-8.767-4.123-17.636t-3.253-17.817-2.374-17.955q-.967-9.006-1.49-18.05-.524-9.043-.604-18.101t.286-18.11 1.174-18.073 2.06-17.994 2.94-17.87 3.812-17.706 4.678-17.497 5.53-17.247 6.37-16.954 7.194-16.621 8.001-16.249 8.789-15.836 9.555-15.386q3.131-4.776 6.409-9.453 3.278-4.678 6.698-9.251 3.421-4.574 6.982-9.04 3.56-4.465 7.258-8.818t7.527-8.59 7.79-8.353 8.044-8.107 8.292-7.855 8.53-7.595q4.325-3.731 8.762-7.327t8.984-7.052 9.198-6.77q4.652-3.315 9.404-6.483 4.751-3.169 9.6-6.189 4.847-3.02 9.785-5.889 4.94-2.868 9.964-5.583 5.025-2.714 10.132-5.272 5.107-2.557 10.29-4.955 5.184-2.399 10.439-4.635 5.255-2.237 10.577-4.31t10.705-3.98 10.824-3.647 10.93-3.31q5.492-1.571 11.03-2.971 5.536-1.4 11.114-2.628t11.191-2.282T343.12 5.41q5.643-.88 11.31-1.585 5.668-.706 11.355-1.235 5.686-.53 11.387-.883 5.7-.354 11.409-.53T400 1v369l338.384-147.164Z"/></svg>