<svg xmlns="http://www.w3.org/2000/svg" width="800" height="800"><path fill="none" d="M0 0h800v800H0z"/><clipPath id="a"><path d="M0 740h800v60H0z"/></clipPath><g clip-path="url(#a)"><path fill="#4caf50" d="M164.745 770h40v20h-40z"/><path fill="none" stroke="#fff" stroke-miterlimit="10" stroke-width="2" d="M164.745 770h40v20h-40z"/><text x="214.745, 226.2196, 232.87976, 244.00281, 254.00281, 259.55945, 270.6825," y="786.5," fill="#666" font-family="Liberation Sans" font-size="20">Trusted</text><path fill="#ff9800" d="M311.805 770h40v20h-40z"/><path fill="none" stroke="#fff" stroke-miterlimit="10" stroke-width="2" d="M311.805 770h40v20h-40z"/><text x="361.80499, 375.14484, 381.80499, 392.92804, 402.92804, 414.05109, 425.17413, 436.29718, 447.42023, 457.42023," y="786.5," fill="#666" font-family="Liberation Sans" font-size="20">Provenance</text><path fill="#f44336" d="M498.545 770h40v20h-40z"/><path fill="none" stroke="#fff" stroke-miterlimit="10" stroke-width="2" d="M498.545 770h40v20h-40z"/><text x="548.54498, 562.98834, 574.11139, 579.66803, 586.32819, 597.45123, 607.45123, 613.00787, 624.13092," y="786.5," fill="#666" font-family="Liberation Sans" font-size="20">Untrusted</text></g><path fill="#4caf50" d="M400 1q5.819 0 11.635.183 5.816.184 11.624.55 5.807.368 11.6.917 5.793.55 11.566 1.282 5.772.732 11.52 1.646 5.746.914 11.461 2.008 5.715 1.095 11.393 2.369t11.313 2.727q5.634 1.452 11.22 3.082t11.119 3.434 11.004 3.783q5.472 1.979 10.88 4.129 5.407 2.15 10.744 4.469t10.597 4.806 10.441 5.137 10.274 5.465 10.096 5.785 9.91 6.101 9.711 6.41 9.505 6.714 9.288 7.01 9.063 7.3q4.473 3.72 8.827 7.58 4.355 3.86 8.585 7.856t8.333 8.123 8.072 8.381 7.804 8.632 7.528 8.874 7.244 9.106q3.55 4.61 6.954 9.33t6.656 9.546 6.351 9.75L400 370z"/><path fill="none" stroke="#fff" stroke-linejoin="bevel" stroke-width="2" d="M400 1q5.819 0 11.635.183 5.816.184 11.624.55 5.807.368 11.6.917 5.793.55 11.566 1.282 5.772.732 11.52 1.646 5.746.914 11.461 2.008 5.715 1.095 11.393 2.369t11.313 2.727q5.634 1.452 11.22 3.082t11.119 3.434 11.004 3.783q5.472 1.979 10.88 4.129 5.407 2.15 10.744 4.469t10.597 4.806 10.441 5.137 10.274 5.465 10.096 5.785 9.91 6.101 9.711 6.41 9.505 6.714 9.288 7.01 9.063 7.3q4.473 3.72 8.827 7.58 4.355 3.86 8.585 7.856t8.333 8.123 8.072 8.381 7.804 8.632 7.528 8.874 7.244 9.106q3.55 4.61 6.954 9.33t6.656 9.546 6.351 9.75L400 370z"/><path fill="#ff9800" d="M712.319 173.485q9.87 15.687 18.119 32.284 8.248 16.596 14.793 33.936L400 370z"/><path fill="none" stroke="#fff" stroke-linejoin="bevel" stroke-width="2" d="M712.319 173.485q9.87 15.687 18.119 32.284 8.248 16.596 14.793 33.936L400 370l312.318-196.515Z"/><path fill="#f44336" d="M745.23 239.705q3.2 8.475 5.978 17.097 2.779 8.621 5.131 17.369t4.273 17.6q1.92 8.853 3.404 17.789t2.528 17.934 1.644 18.037q.6 9.038.757 18.095.156 9.057-.132 18.111t-1.02 18.083-1.906 18.01-2.788 17.896-3.662 17.738q-2.05 8.823-4.529 17.536-2.479 8.712-5.383 17.293T743.3 505.3t-7.053 16.682q-3.73 8.254-7.862 16.315t-8.654 15.91q-4.522 7.85-9.423 15.467-4.902 7.618-10.172 14.986t-10.894 14.468-11.591 13.917-12.26 13.33-12.9 12.714-13.508 12.065q-6.902 5.866-14.083 11.388-7.182 5.52-14.626 10.682t-15.132 9.953-15.601 9.198q-7.914 4.407-16.035 8.421-8.12 4.014-16.428 7.625t-16.783 6.809q-5.21 1.966-10.478 3.774t-10.587 3.457q-5.32 1.649-10.686 3.136-5.367 1.487-10.776 2.812-5.41 1.325-10.856 2.486-5.447 1.16-10.926 2.156-5.48.996-10.986 1.826t-11.037 1.494-11.076 1.16-11.106.825q-5.56.328-11.127.49-5.566.16-11.135.153-5.57-.008-11.136-.183t-11.125-.519q-5.558-.343-11.104-.854t-11.073-1.188-11.033-1.523q-5.504-.844-10.981-1.854t-10.92-2.186-10.85-2.513-10.769-2.84-10.678-3.164-10.578-3.484-10.467-3.803-10.349-4.116-10.22-4.427q-5.075-2.29-10.08-4.733t-9.934-5.035q-4.929-2.592-9.777-5.332t-9.612-5.626-9.438-5.912-9.255-6.195q-7.45-5.152-14.64-10.663-7.189-5.511-14.098-11.369t-13.525-12.046-12.917-12.696-12.278-13.314-11.61-13.9-10.914-14.454-10.192-14.972-9.445-15.453-8.676-15.899-7.884-16.305-7.075-16.672-6.25-17-5.406-17.285-4.552-17.53-3.687-17.732-2.812-17.892-1.931-18.008-1.045-18.082-.156-18.11.732-18.097 1.62-18.039q1.03-9 2.502-17.938t3.38-17.793 4.249-17.606q2.34-8.75 5.107-17.376t5.955-17.105q3.186-8.48 6.786-16.792t7.602-16.439 8.399-16.046 9.177-15.614q4.78-7.695 9.931-15.146 3.168-4.58 6.472-9.063t6.742-8.865 7.006-8.657q3.569-4.275 7.265-8.441t7.515-8.219 7.76-7.988 7.999-7.75 8.228-7.505 8.451-7.253 8.666-6.995 8.873-6.73q4.488-3.299 9.073-6.46 4.584-3.161 9.263-6.183 4.678-3.022 9.445-5.9 4.767-2.88 9.62-5.613 4.851-2.734 9.783-5.32 4.933-2.586 9.94-5.022 5.009-2.436 10.088-4.72 5.08-2.284 10.225-4.414 5.146-2.13 10.354-4.102 5.207-1.974 10.472-3.789t10.583-3.47 10.682-3.15q5.365-1.495 10.772-2.826 5.408-1.332 10.853-2.5t10.923-2.17 10.984-1.841 11.035-1.508q5.528-.67 11.075-1.174t11.105-.84 11.125-.504T400 1v369z"/><path fill="none" stroke="#fff" stroke-linejoin="bevel" stroke-width="2" d="M745.23 239.705q3.2 8.475 5.978 17.097 2.779 8.621 5.131 17.369t4.273 17.6q1.92 8.853 3.404 17.789t2.528 17.934 1.644 18.037q.6 9.038.757 18.095.156 9.057-.132 18.111t-1.02 18.083-1.906 18.01-2.788 17.896-3.662 17.738q-2.05 8.823-4.529 17.536-2.479 8.712-5.383 17.293T743.3 505.3t-7.053 16.682q-3.73 8.254-7.862 16.315t-8.654 15.91q-4.522 7.85-9.423 15.467-4.902 7.618-10.172 14.986t-10.894 14.468-11.591 13.917-12.26 13.33-12.9 12.714-13.508 12.065q-6.902 5.866-14.083 11.388-7.182 5.52-14.626 10.682t-15.132 9.953-15.601 9.198q-7.914 4.407-16.035 8.421-8.12 4.014-16.428 7.625t-16.783 6.809q-5.21 1.966-10.478 3.774t-10.587 3.457q-5.32 1.649-10.686 3.136-5.367 1.487-10.776 2.812-5.41 1.325-10.856 2.486-5.447 1.16-10.926 2.156-5.48.996-10.986 1.826t-11.037 1.494-11.076 1.16-11.106.825q-5.56.328-11.127.49-5.566.16-11.135.153-5.57-.008-11.136-.183t-11.125-.519q-5.558-.343-11.104-.854t-11.073-1.188-11.033-1.523q-5.504-.844-10.981-1.854t-10.92-2.186-10.85-2.513-10.769-2.84-10.678-3.164-10.578-3.484-10.467-3.803-10.349-4.116-10.22-4.427q-5.075-2.29-10.08-4.733t-9.934-5.035q-4.929-2.592-9.777-5.332t-9.612-5.626-9.438-5.912-9.255-6.195q-7.45-5.152-14.64-10.663-7.189-5.511-14.098-11.369t-13.525-12.046-12.917-12.696-12.278-13.314-11.61-13.9-10.914-14.454-10.192-14.972-9.445-15.453-8.676-15.899-7.884-16.305-7.075-16.672-6.25-17-5.406-17.285-4.552-17.53-3.687-17.732-2.812-17.892-1.931-18.008-1.045-18.082-.156-18.11.732-18.097 1.62-18.039q1.03-9 2.502-17.938t3.38-17.793 4.249-17.606q2.34-8.75 5.107-17.376t5.955-17.105q3.186-8.48 6.786-16.792t7.602-16.439 8.399-16.046 9.177-15.614q4.78-7.695 9.931-15.146 3.168-4.58 6.472-9.063t6.742-8.865 7.006-8.657q3.569-4.275 7.265-8.441t7.515-8.219 7.76-7.988 7.999-7.75 8.228-7.505 8.451-7.253 8.666-6.995 8.873-6.73q4.488-3.299 9.073-6.46 4.584-3.161 9.263-6.183 4.678-3.022 9.445-5.9 4.767-2.88 9.62-5.613 4.851-2.734 9.783-5.32 4.933-2.586 9.94-5.022 5.009-2.436 10.088-4.72 5.08-2.284 10.225-4.414 5.146-2.13 10.354-4.102 5.207-1.974 10.472-3.789t10.583-3.47 10.682-3.15q5.365-1.495 10.772-2.826 5.408-1.332 10.853-2.5t10.923-2.17 10.984-1.841 11.035-1.508q5.528-.67 11.075-1.174t11.105-.84 11.125-.504T400 1v369l345.23-130.295Z"/></svg>