<?xml version="1.0" encoding="utf-8" ?><svg xmlns="http://www.w3.org/2000/svg" xmlns:xlink="http://www.w3.org/1999/xlink" width="800" height="800"><rect fill-opacity="0" width="800" height="800"/><clipPath id="cl_3"><rect y="740" width="800" height="60"/></clipPath><g clip-path="url(#cl_3)"><path fill="#4CAF50" d="M144.605 770L184.605 770L184.605 790L144.605 790L144.605 770Z"/><path fill="none" stroke="white" stroke-width="2" stroke-miterlimit="10" d="M144.605 770L184.605 770L184.605 790L144.605 790L144.605 770Z"/><text fill="#666" font-size="20" font-family="DejaVu Serif" x="194.605, 207.94484, 217.50539, 230.38625, 240.64992, 248.68703, 260.52295, " y="787.5, ">Trusted</text><path fill="#FF9800" d="M303.32501 770L343.32501 770L343.32501 790L303.32501 790L303.32501 770Z"/><path fill="none" stroke="white" stroke-width="2" stroke-miterlimit="10" d="M303.32501 770L343.32501 770L343.32501 790L303.32501 790L303.32501 770Z"/><text fill="#666" font-size="20" font-family="DejaVu Serif" x="353.32501, 366.78204, 376.34259, 388.38361, 399.68243, 411.51837, 424.39923, 436.32306, 449.20392, 460.40509, " y="787.5, ">Provenance</text><path fill="#F44336" d="M502.245 770L542.245 770L542.245 790L502.245 790L502.245 770Z"/><path fill="none" stroke="white" stroke-width="2" stroke-miterlimit="10" d="M502.245 770L542.245 770L542.245 790L502.245 790L502.245 770Z"/><text fill="#666" font-size="20" font-family="DejaVu Serif" x="552.245, 569.10046, 581.98132, 590.01843, 599.57898, 612.45984, 622.72351, 630.76062, 642.59656, " y="787.5, ">Untrusted</text></g><path fill="#4CAF50" d="M400 1Q408.95709 1.0000076 417.90369 1.4346032Q426.85025 1.869199 435.7652 2.737359Q444.68011 3.6055188 453.54242 4.9051976Q462.40469 6.2048769 471.19348 7.9330139Q479.98233 9.6611671 488.677 11.813714Q497.37161 13.966261 505.95157 16.538132Q514.53149 19.110004 522.97662 22.09514Q531.42163 25.080278 539.71191 28.471649L400 370L400 370L400 370L400 1Z"/><path fill="none" stroke="white" stroke-width="2" stroke-linejoin="bevel" d="M400 1Q408.95709 1.0000076 417.90369 1.4346032Q426.85025 1.869199 435.7652 2.737359Q444.68011 3.6055188 453.54242 4.9051976Q462.40469 6.2048769 471.19348 7.9330139Q479.98233 9.6611671 488.677 11.813714Q497.37161 13.966261 505.95157 16.538132Q514.53149 19.110004 522.97662 22.09514Q531.42163 25.080278 539.71191 28.471649L400 370L400 370L400 370L400 1Z"/><path fill="#FF9800" d="M539.71191 28.47168Q548.3396 32.001072 556.77808 35.961594Q565.21649 39.922119 573.44427 44.303673Q581.672 48.685219 589.66797 53.476624Q597.66406 58.268028 605.40796 63.457062Q613.15186 68.646057 620.62378 74.219444Q628.09583 79.792831 635.27686 85.736389Q642.45789 91.679932 649.32965 97.978477Q656.20142 104.27703 662.74646 110.91452L400 370L400 370L400 370L539.71179 28.471642L539.71191 28.47168Z"/><path fill="none" stroke="white" stroke-width="2" stroke-linejoin="bevel" d="M539.71191 28.47168Q548.3396 32.001072 556.77808 35.961594Q565.21649 39.922119 573.44427 44.303673Q581.672 48.685219 589.66797 53.476624Q597.66406 58.268028 605.40796 63.457062Q613.15186 68.646057 620.62378 74.219444Q628.09583 79.792831 635.27686 85.736389Q642.45789 91.679932 649.32965 97.978477Q656.20142 104.27703 662.74646 110.91452L400 370L400 370L400 370L539.71179 28.471642L539.71191 28.47168Z"/><path fill="#F44336" d="M662.74646 110.91452Q669.10663 117.36459 675.1427 124.11897Q681.17871 130.87334 686.8761 137.91576Q692.57349 144.95816 697.9184 152.27164Q703.26331 159.58511 708.24292 167.15207Q713.22253 174.71899 717.82489 182.52118Q722.42725 190.32333 726.64124 198.34193Q730.85516 206.36052 734.67059 214.5762Q738.48602 222.79192 741.89374 231.18494Q745.30145 239.57796 748.29321 248.12807Q751.28503 256.67819 753.8537 265.36481Q756.42236 274.05142 758.56165 282.85364Q760.70099 291.65582 762.40582 300.5524Q764.11066 309.44897 765.37689 318.41846Q766.64319 327.38797 767.46777 336.40881Q768.29236 345.42963 768.67334 354.48007Q769.05438 363.53046 768.99084 372.58868Q768.92725 381.64691 768.41931 390.6911Q767.91138 399.73529 766.96033 408.74365Q766.00916 417.75201 764.61719 426.70285Q763.2251 435.65369 761.39563 444.52545Q759.56616 453.39722 757.30359 462.16858Q755.04095 470.93988 752.35071 479.5896Q749.6604 488.23932 746.54895 496.74658Q743.4375 505.25391 739.91241 513.59827Q736.38727 521.94263 732.45697 530.104Q728.52661 538.26538 724.20056 546.22406Q719.87451 554.18274 715.16309 561.91956Q710.45178 569.65637 705.36646 577.15271Q700.28113 584.64905 694.83411 591.88684Q689.38708 599.12463 683.59155 606.08649Q677.79596 613.04822 671.66577 619.71722Q665.53552 626.38623 659.08545 632.74646Q654.2627 637.50195 649.26874 642.07727Q644.27478 646.65259 639.11621 651.04163Q633.9577 655.4306 628.6416 659.62732Q623.32544 663.8241 617.85895 667.82294Q612.39233 671.82172 606.78278 675.61725Q601.17316 679.41272 595.4281 682.99982Q589.68292 686.58691 583.81006 689.96069Q577.93713 693.33453 571.94446 696.4906Q565.95172 699.64661 559.84717 702.58063Q553.74268 705.51465 547.53455 708.22266Q541.32648 710.93066 535.02319 713.409Q528.71997 715.88739 522.32996 718.13281Q515.93994 720.37817 509.47186 722.38745Q503.00378 724.39685 496.46631 726.16748Q489.92883 727.93811 483.33081 729.46765Q476.73273 730.99719 470.08304 732.28357Q463.43329 733.56995 456.74084 734.61145Q450.0484 735.65289 443.32227 736.44812Q436.5961 737.24329 429.84531 737.79108Q423.09448 738.33887 416.32812 738.63861Q409.56174 738.93823 402.78891 738.9895Q396.01611 739.04065 389.24597 738.84326Q382.47583 738.64587 375.71753 738.20013Q368.9592 737.75439 362.22177 737.06104Q355.48438 736.36755 348.77692 735.42743Q342.06952 734.48718 335.40109 733.30151Q328.73267 732.11578 322.11227 730.68616Q315.49188 729.25659 308.92841 727.58496Q302.36493 725.91333 295.86719 724.00195Q289.36948 722.09058 282.94629 719.94208Q276.52307 717.79352 270.18307 715.41071Q263.84305 713.02789 257.59473 710.41406Q249.23804 706.91821 241.06293 703.01648Q232.88785 699.11487 224.91406 694.81677Q216.94025 690.51862 209.18695 685.83435Q201.43364 681.15021 193.91953 676.09125Q186.4054 671.03223 179.14856 665.61066Q171.89174 660.18909 164.90967 654.41797Q157.92761 648.64673 151.23712 642.53992Q144.54663 636.43317 138.16386 630.00549Q131.78108 623.57776 125.7214 616.8446Q119.66171 610.11145 113.9397 603.08911Q108.21768 596.06671 102.84713 588.77203Q97.476578 581.47729 92.470428 573.92792Q87.464279 566.37848 82.834595 558.59253Q78.20491 550.80658 73.962845 542.80286Q69.720772 534.79907 65.876541 526.5968Q62.032307 518.39453 58.595177 510.01346Q55.158043 501.63245 52.136284 493.0929Q49.114525 484.55328 46.515427 475.87576Q43.916321 467.19818 41.746136 458.40356Q39.575951 449.60889 37.839912 440.71838Q36.103874 431.82785 34.806168 422.86285Q33.508457 413.89786 32.652203 404.87997Q31.795948 395.86206 31.383213 386.81302Q30.970474 377.76398 31.002251 368.7056Q31.034027 359.64722 31.510239 350.60129Q31.98645 341.55536 32.905952 332.54373Q33.825455 323.53207 35.186028 314.57639Q36.5466 305.62073 38.344967 296.74258Q40.143333 287.86447 42.375168 279.0853Q44.607002 270.30609 47.266918 261.64697Q49.926834 252.98785 53.00843 244.4697Q56.090027 235.95152 59.585876 227.59483Q62.199722 221.34651 65.041107 215.19833Q67.882492 209.05016 70.947594 203.01041Q74.012688 196.97064 77.297363 191.04742Q80.582047 185.12422 84.081879 179.32555Q87.581711 173.52686 91.291977 167.8605Q95.002258 162.19418 98.917976 156.66782Q102.83369 151.14145 106.94957 145.76248Q111.06545 140.38354 115.37596 135.15926Q119.68646 129.93497 124.18578 124.87239Q128.6851 119.80981 133.36719 114.91577Q138.04926 110.02171 142.90778 105.30279Q147.7663 100.58385 152.79474 96.046402Q157.82315 91.508942 163.01471 87.159073Q168.20627 82.809204 173.55396 78.652779Q178.90163 74.496353 184.39824 70.538986Q189.89484 66.581612 195.53299 62.828613Q201.17111 59.075615 206.94319 55.532055Q212.71526 51.988495 218.61348 48.659142Q224.5117 45.329788 230.52814 42.219128Q236.54456 39.108467 242.6711 36.220695Q248.79762 33.332916 255.026 30.671915Q261.25436 28.010914 267.5762 25.580275Q273.89801 23.149632 280.30481 20.952621Q286.71155 18.755611 293.19464 16.795198Q299.67773 14.834783 306.22839 13.113603Q312.77905 11.392422 319.38849 9.9127951Q325.99789 8.4331684 332.65717 7.1970878Q339.31641 5.9610071 346.01654 4.9701385Q352.71667 3.9792695 359.44867 3.2349472Q366.18063 2.4906249 372.93539 1.9938519Q379.69012 1.4970789 386.45856 1.2485247Q393.22699 0.99997032 400 0.99996948L400 370L400 370L400 370L662.74652 110.91457L662.74646 110.91452Z"/><path fill="none" stroke="white" stroke-width="2" stroke-linejoin="bevel" d="M662.74646 110.91452Q669.10663 117.36459 675.1427 124.11897Q681.17871 130.87334 686.8761 137.91576Q692.57349 144.95816 697.9184 152.27164Q703.26331 159.58511 708.24292 167.15207Q713.22253 174.71899 717.82489 182.52118Q722.42725 190.32333 726.64124 198.34193Q730.85516 206.36052 734.67059 214.5762Q738.48602 222.79192 741.89374 231.18494Q745.30145 239.57796 748.29321 248.12807Q751.28503 256.67819 753.8537 265.36481Q756.42236 274.05142 758.56165 282.85364Q760.70099 291.65582 762.40582 300.5524Q764.11066 309.44897 765.37689 318.41846Q766.64319 327.38797 767.46777 336.40881Q768.29236 345.42963 768.67334 354.48007Q769.05438 363.53046 768.99084 372.58868Q768.92725 381.64691 768.41931 390.6911Q767.91138 399.73529 766.96033 408.74365Q766.00916 417.75201 764.61719 426.70285Q763.2251 435.65369 761.39563 444.52545Q759.56616 453.39722 757.30359 462.16858Q755.04095 470.93988 752.35071 479.5896Q749.6604 488.23932 746.54895 496.74658Q743.4375 505.25391 739.91241 513.59827Q736.38727 521.94263 732.45697 530.104Q728.52661 538.26538 724.20056 546.22406Q719.87451 554.18274 715.16309 561.91956Q710.45178 569.65637 705.36646 577.15271Q700.28113 584.64905 694.83411 591.88684Q689.38708 599.12463 683.59155 606.08649Q677.79596 613.04822 671.66577 619.71722Q665.53552 626.38623 659.08545 632.74646Q654.2627 637.50195 649.26874 642.07727Q644.27478 646.65259 639.11621 651.04163Q633.9577 655.4306 628.6416 659.62732Q623.32544 663.8241 617.85895 667.82294Q612.39233 671.82172 606.78278 675.61725Q601.17316 679.41272 595.4281 682.99982Q589.68292 686.58691 583.81006 689.96069Q577.93713 693.33453 571.94446 696.4906Q565.95172 699.64661 559.84717 702.58063Q553.74268 705.51465 547.53455 708.22266Q541.32648 710.93066 535.02319 713.409Q528.71997 715.88739 522.32996 718.13281Q515.93994 720.37817 509.47186 722.38745Q503.00378 724.39685 496.46631 726.16748Q489.92883 727.93811 483.33081 729.46765Q476.73273 730.99719 470.08304 732.28357Q463.43329 733.56995 456.74084 734.61145Q450.0484 735.65289 443.32227 736.44812Q436.5961 737.24329 429.84531 737.79108Q423.09448 738.33887 416.32812 738.63861Q409.56174 738.93823 402.78891 738.9895Q396.01611 739.04065 389.24597 738.84326Q382.47583 738.64587 375.71753 738.20013Q368.9592 737.75439 362.22177 737.06104Q355.48438 736.36755 348.77692 735.42743Q342.06952 734.48718 335.40109 733.30151Q328.73267 732.11578 322.11227 730.68616Q315.49188 729.25659 308.92841 727.58496Q302.36493 725.91333 295.86719 724.00195Q289.36948 722.09058 282.94629 719.94208Q276.52307 717.79352 270.18307 715.41071Q263.84305 713.02789 257.59473 710.41406Q249.23804 706.91821 241.06293 703.01648Q232.88785 699.11487 224.91406 694.81677Q216.94025 690.51862 209.18695 685.83435Q201.43364 681.15021 193.91953 676.09125Q186.4054 671.03223 179.14856 665.61066Q171.89174 660.18909 164.90967 654.41797Q157.92761 648.64673 151.23712 642.53992Q144.54663 636.43317 138.16386 630.00549Q131.78108 623.57776 125.7214 616.8446Q119.66171 610.11145 113.9397 603.08911Q108.21768 596.06671 102.84713 588.77203Q97.476578 581.47729 92.470428 573.92792Q87.464279 566.37848 82.834595 558.59253Q78.20491 550.80658 73.962845 542.80286Q69.720772 534.79907 65.876541 526.5968Q62.032307 518.39453 58.595177 510.01346Q55.158043 501.63245 52.136284 493.0929Q49.114525 484.55328 46.515427 475.87576Q43.916321 467.19818 41.746136 458.40356Q39.575951 449.60889 37.839912 440.71838Q36.103874 431.82785 34.806168 422.86285Q33.508457 413.89786 32.652203 404.87997Q31.795948 395.86206 31.383213 386.81302Q30.970474 377.76398 31.002251 368.7056Q31.034027 359.64722 31.510239 350.60129Q31.98645 341.55536 32.905952 332.54373Q33.825455 323.53207 35.186028 314.57639Q36.5466 305.62073 38.344967 296.74258Q40.143333 287.86447 42.375168 279.0853Q44.607002 270.30609 47.266918 261.64697Q49.926834 252.98785 53.00843 244.4697Q56.090027 235.95152 59.585876 227.59483Q62.199722 221.34651 65.041107 215.19833Q67.882492 209.05016 70.947594 203.01041Q74.012688 196.97064 77.297363 191.04742Q80.582047 185.12422 84.081879 179.32555Q87.581711 173.52686 91.291977 167.8605Q95.002258 162.19418 98.917976 156.66782Q102.83369 151.14145 106.94957 145.76248Q111.06545 140.38354 115.37596 135.15926Q119.68646 129.93497 124.18578 124.87239Q128.6851 119.80981 133.36719 114.91577Q138.04926 110.02171 142.90778 105.30279Q147.7663 100.58385 152.79474 96.046402Q157.82315 91.508942 163.01471 87.159073Q168.20627 82.809204 173.55396 78.652779Q178.90163 74.496353 184.39824 70.538986Q189.89484 66.581612 195.53299 62.828613Q201.17111 59.075615 206.94319 55.532055Q212.71526 51.988495 218.61348 48.659142Q224.5117 45.329788 230.52814 42.219128Q236.54456 39.108467 242.6711 36.220695Q248.79762 33.332916 255.026 30.671915Q261.25436 28.010914 267.5762 25.580275Q273.89801 23.149632 280.30481 20.952621Q286.71155 18.755611 293.19464 16.795198Q299.67773 14.834783 306.22839 13.113603Q312.77905 11.392422 319.38849 9.9127951Q325.99789 8.4331684 332.65717 7.1970878Q339.31641 5.9610071 346.01654 4.9701385Q352.71667 3.9792695 359.44867 3.2349472Q366.18063 2.4906249 372.93539 1.9938519Q379.69012 1.4970789 386.45856 1.2485247Q393.22699 0.99997032 400 0.99996948L400 370L400 370L400 370L662.74652 110.91457L662.74646 110.91452Z"/></svg>