<svg xmlns="http://www.w3.org/2000/svg" width="800" height="800"><path fill="none" d="M0 0h800v800H0z"/><clipPath id="a"><path d="M0 690h800v110H0z"/></clipPath><g clip-path="url(#a)"><path fill="#4caf50" d="M123.3 720h40v20h-40z"/><path fill="none" stroke="#fff" stroke-miterlimit="10" stroke-width="2" d="M123.3 720h40v20h-40z"/><path fill="#ff9800" d="M377.64 720h40v20h-40z"/><path fill="none" stroke="#fff" stroke-miterlimit="10" stroke-width="2" d="M377.64 720h40v20h-40z"/><path fill="#f44336" d="M262.92 770h40v20h-40z"/><path fill="none" stroke="#fff" stroke-miterlimit="10" stroke-width="2" d="M262.92 770h40v20h-40z"/></g><path fill="#4caf50" d="M400 1q4.733 0 9.465.13 4.731.13 9.457.39 4.726.261 9.443.651 4.718.39 9.422.91t9.393 1.17 9.358 1.427q4.669.778 9.314 1.684t9.265 1.94 9.208 2.193 9.144 2.447 9.073 2.697 8.996 2.945 8.91 3.192q4.435 1.658 8.82 3.436 4.387 1.779 8.723 3.678 4.336 1.898 8.618 3.916 4.281 2.017 8.506 4.151t8.39 4.384 8.265 4.613q4.1 2.364 8.135 4.84 4.034 2.475 8 5.06 3.964 2.585 7.856 5.28 3.892 2.693 7.708 5.492t7.555 5.703 7.395 5.91 7.23 6.11 7.058 6.306 6.882 6.499 6.701 6.685 6.514 6.867q3.21 3.479 6.324 7.044 3.113 3.566 6.126 7.215L400 345z"/><path fill="none" stroke="#fff" stroke-linejoin="bevel" stroke-width="2" d="M400 1q4.733 0 9.465.13 4.731.13 9.457.39 4.726.261 9.443.651 4.718.39 9.422.91t9.393 1.17 9.358 1.427q4.669.778 9.314 1.684t9.265 1.94 9.208 2.193 9.144 2.447 9.073 2.697 8.996 2.945 8.91 3.192q4.435 1.658 8.82 3.436 4.387 1.779 8.723 3.678 4.336 1.898 8.618 3.916 4.281 2.017 8.506 4.151t8.39 4.384 8.265 4.613q4.1 2.364 8.135 4.84 4.034 2.475 8 5.06 3.964 2.585 7.856 5.28 3.892 2.693 7.708 5.492t7.555 5.703 7.395 5.91 7.23 6.11 7.058 6.306 6.882 6.499 6.701 6.685 6.514 6.867q3.21 3.479 6.324 7.044 3.113 3.566 6.126 7.215L400 345z"/><path fill="#ff9800" d="M665.254 125.965q13.596 16.465 25.052 34.485t20.594 37.318L400 345z"/><path fill="none" stroke="#fff" stroke-linejoin="bevel" stroke-width="2" d="M665.254 125.965q13.596 16.465 25.052 34.485t20.594 37.318L400 345l265.254-219.035Z"/><path fill="#f44336" d="M710.9 197.768q3.614 7.632 6.85 15.433 3.235 7.8 6.084 15.75t5.304 16.03q2.456 8.08 4.512 16.27t3.707 16.472 2.895 16.635 2.075 16.756 1.25 16.838q.419 8.434.423 16.879t-.406 16.88-1.234 16.839-2.059 16.758-2.878 16.637-3.691 16.476-4.496 16.275q-2.447 8.082-5.288 16.035t-6.069 15.756-6.835 15.44q-3.606 7.635-7.584 15.084-3.977 7.45-8.315 14.695-4.337 7.246-9.026 14.27-4.688 7.023-9.715 13.809T666.023 563.1 655 575.89t-11.637 12.234-12.223 11.649q-6.254 5.674-12.78 11.034-6.524 5.36-13.305 10.395-6.78 5.033-13.8 9.729-7.019 4.695-14.26 9.04t-14.686 8.33-15.078 7.598q-4.89 2.316-9.85 4.477-4.961 2.16-9.987 4.164t-10.112 3.849-10.228 3.528-10.335 3.205-10.43 2.879-10.515 2.549-10.59 2.217-10.655 1.883-10.709 1.546-10.752 1.21-10.784.87-10.807.532-10.818.19-10.819-.149-10.809-.49-10.788-.829-10.756-1.168-10.715-1.506-10.662-1.842-10.598-2.176q-5.283-1.172-10.525-2.509-5.243-1.337-10.441-2.838t-10.347-3.166-10.241-3.489-10.127-3.81-10.003-4.126-9.867-4.438-9.723-4.747-9.569-5.05-9.405-5.35-9.233-5.641q-7.135-4.516-14.04-9.377-6.906-4.86-13.565-10.055t-13.054-10.708-12.514-11.336q-6.117-5.821-11.942-11.936-5.824-6.114-11.342-12.508-5.517-6.393-10.714-13.049T118.8 543.147q-4.865-6.903-9.384-14.036-4.52-7.134-8.684-14.48-4.164-7.347-7.963-14.89-3.799-7.541-7.223-15.26-3.424-7.72-6.465-15.598t-5.692-15.896-4.905-16.156q-2.255-8.139-4.107-16.378t-3.298-16.559-2.482-16.7q-1.035-8.382-1.659-16.804-.623-8.421-.832-16.863-.21-8.443-.004-16.885.205-8.442.824-16.864.62-8.422 1.65-16.803 1.032-8.382 2.474-16.703t3.29-16.56 4.099-16.38q2.25-8.14 4.897-16.158 2.647-8.02 5.684-15.9 3.037-7.879 6.458-15.6 3.42-7.72 7.215-15.265 3.795-7.544 7.955-14.893 4.161-7.348 8.677-14.484 2.894-4.572 5.93-9.05t6.21-8.86q3.176-4.38 6.487-8.66 3.312-4.278 6.756-8.451t7.018-8.235 7.274-8.01 7.522-7.777q3.822-3.83 7.763-7.537 3.94-3.708 7.996-7.29t8.222-7.033 8.438-6.772 8.647-6.504q4.375-3.183 8.848-6.228t9.04-5.946q4.565-2.903 9.22-5.66t9.396-5.367q4.74-2.61 9.559-5.068 4.82-2.46 9.714-4.766t9.859-4.457q4.964-2.152 9.994-4.146t10.12-3.829 10.235-3.509 10.34-3.185q5.195-1.511 10.435-2.858t10.52-2.53q5.28-1.18 10.595-2.196 5.315-1.015 10.658-1.862 5.344-.848 10.712-1.527t10.754-1.189 10.787-.85 10.808-.51Q394.589 1 400 1v344z"/><path fill="none" stroke="#fff" stroke-linejoin="bevel" stroke-width="2" d="M710.9 197.768q3.614 7.632 6.85 15.433 3.235 7.8 6.084 15.75t5.304 16.03q2.456 8.08 4.512 16.27t3.707 16.472 2.895 16.635 2.075 16.756 1.25 16.838q.419 8.434.423 16.879t-.406 16.88-1.234 16.839-2.059 16.758-2.878 16.637-3.691 16.476-4.496 16.275q-2.447 8.082-5.288 16.035t-6.069 15.756-6.835 15.44q-3.606 7.635-7.584 15.084-3.977 7.45-8.315 14.695-4.337 7.246-9.026 14.27-4.688 7.023-9.715 13.809T666.023 563.1 655 575.89t-11.637 12.234-12.223 11.649q-6.254 5.674-12.78 11.034-6.524 5.36-13.305 10.395-6.78 5.033-13.8 9.729-7.019 4.695-14.26 9.04t-14.686 8.33-15.078 7.598q-4.89 2.316-9.85 4.477-4.961 2.16-9.987 4.164t-10.112 3.849-10.228 3.528-10.335 3.205-10.43 2.879-10.515 2.549-10.59 2.217-10.655 1.883-10.709 1.546-10.752 1.21-10.784.87-10.807.532-10.818.19-10.819-.149-10.809-.49-10.788-.829-10.756-1.168-10.715-1.506-10.662-1.842-10.598-2.176q-5.283-1.172-10.525-2.509-5.243-1.337-10.441-2.838t-10.347-3.166-10.241-3.489-10.127-3.81-10.003-4.126-9.867-4.438-9.723-4.747-9.569-5.05-9.405-5.35-9.233-5.641q-7.135-4.516-14.04-9.377-6.906-4.86-13.565-10.055t-13.054-10.708-12.514-11.336q-6.117-5.821-11.942-11.936-5.824-6.114-11.342-12.508-5.517-6.393-10.714-13.049T118.8 543.147q-4.865-6.903-9.384-14.036-4.52-7.134-8.684-14.48-4.164-7.347-7.963-14.89-3.799-7.541-7.223-15.26-3.424-7.72-6.465-15.598t-5.692-15.896-4.905-16.156q-2.255-8.139-4.107-16.378t-3.298-16.559-2.482-16.7q-1.035-8.382-1.659-16.804-.623-8.421-.832-16.863-.21-8.443-.004-16.885.205-8.442.824-16.864.62-8.422 1.65-16.803 1.032-8.382 2.474-16.703t3.29-16.56 4.099-16.38q2.25-8.14 4.897-16.158 2.647-8.02 5.684-15.9 3.037-7.879 6.458-15.6 3.42-7.72 7.215-15.265 3.795-7.544 7.955-14.893 4.161-7.348 8.677-14.484 2.894-4.572 5.93-9.05t6.21-8.86q3.176-4.38 6.487-8.66 3.312-4.278 6.756-8.451t7.018-8.235 7.274-8.01 7.522-7.777q3.822-3.83 7.763-7.537 3.94-3.708 7.996-7.29t8.222-7.033 8.438-6.772 8.647-6.504q4.375-3.183 8.848-6.228t9.04-5.946q4.565-2.903 9.22-5.66t9.396-5.367q4.74-2.61 9.559-5.068 4.82-2.46 9.714-4.766t9.859-4.457q4.964-2.152 9.994-4.146t10.12-3.829 10.235-3.509 10.34-3.185q5.195-1.511 10.435-2.858t10.52-2.53q5.28-1.18 10.595-2.196 5.315-1.015 10.658-1.862 5.344-.848 10.712-1.527t10.754-1.189 10.787-.85 10.808-.51Q394.589 1 400 1v344l310.9-147.232Z"/></svg>