<svg xmlns="http://www.w3.org/2000/svg" width="800" height="800"><path fill="none" d="M0 0h800v800H0z"/><clipPath id="a"><path d="M0 740h800v60H0z"/></clipPath><g clip-path="url(#a)"><path fill="#4caf50" d="M164.745 770h40v20h-40z"/><path fill="none" stroke="#fff" stroke-miterlimit="10" stroke-width="2" d="M164.745 770h40v20h-40z"/><text x="214.745, 226.2196, 232.87976, 244.00281, 254.00281, 259.55945, 270.6825," y="786.5," fill="#666" font-family="Liberation Sans" font-size="20">Trusted</text><path fill="#ff9800" d="M311.805 770h40v20h-40z"/><path fill="none" stroke="#fff" stroke-miterlimit="10" stroke-width="2" d="M311.805 770h40v20h-40z"/><text x="361.80499, 375.14484, 381.80499, 392.92804, 402.92804, 414.05109, 425.17413, 436.29718, 447.42023, 457.42023," y="786.5," fill="#666" font-family="Liberation Sans" font-size="20">Provenance</text><path fill="#f44336" d="M498.545 770h40v20h-40z"/><path fill="none" stroke="#fff" stroke-miterlimit="10" stroke-width="2" d="M498.545 770h40v20h-40z"/><text x="548.54498, 562.98834, 574.11139, 579.66803, 586.32819, 597.45123, 607.45123, 613.00787, 624.13092," y="786.5," fill="#666" font-family="Liberation Sans" font-size="20">Untrusted</text></g><path fill="#4caf50" d="M400 1q5.588 0 11.173.17 5.586.168 11.163.507 5.578.338 11.143.845t11.112 1.182 11.07 1.518q5.525.843 11.02 1.853 5.497 1.01 10.96 2.186 5.462 1.175 10.887 2.516t10.807 2.845 10.715 3.17 10.614 3.495q5.281 1.827 10.504 3.813t10.383 4.13 10.254 4.443q5.093 2.298 10.115 4.75 5.02 2.452 9.966 5.055 4.944 2.603 9.808 5.355 4.863 2.751 9.641 5.649 4.778 2.897 9.466 5.938 4.689 3.04 9.283 6.222t9.089 6.5q4.495 3.32 8.888 6.773 4.393 3.454 8.68 7.04 4.286 3.584 8.462 7.297 4.175 3.714 8.237 7.552 4.061 3.838 8.004 7.797 3.944 3.959 7.765 8.036 3.822 4.077 7.519 8.267t7.264 8.491 7.004 8.708 6.737 8.915q3.3 4.509 6.464 9.115L400 370z"/><path fill="none" stroke="#fff" stroke-linejoin="bevel" stroke-width="2" d="M400 1q5.588 0 11.173.17 5.586.168 11.163.507 5.578.338 11.143.845t11.112 1.182 11.07 1.518q5.525.843 11.02 1.853 5.497 1.01 10.96 2.186 5.462 1.175 10.887 2.516t10.807 2.845 10.715 3.17 10.614 3.495q5.281 1.827 10.504 3.813t10.383 4.13 10.254 4.443q5.093 2.298 10.115 4.75 5.02 2.452 9.966 5.055 4.944 2.603 9.808 5.355 4.863 2.751 9.641 5.649 4.778 2.897 9.466 5.938 4.689 3.04 9.283 6.222t9.089 6.5q4.495 3.32 8.888 6.773 4.393 3.454 8.68 7.04 4.286 3.584 8.462 7.297 4.175 3.714 8.237 7.552 4.061 3.838 8.004 7.797 3.944 3.959 7.765 8.036 3.822 4.077 7.519 8.267t7.264 8.491 7.004 8.708 6.737 8.915q3.3 4.509 6.464 9.115L400 370z"/><path fill="#ff9800" d="M704.197 161.134q11.285 16.436 20.734 33.993t16.951 36.03L400 370z"/><path fill="none" stroke="#fff" stroke-linejoin="bevel" stroke-width="2" d="M704.197 161.134q11.285 16.436 20.734 33.993t16.951 36.03L400 370l304.197-208.867Z"/><path fill="#f44336" d="M741.882 231.156q3.409 8.393 6.401 16.943t5.562 17.236 4.71 17.489 3.845 17.698 2.973 17.866 2.092 17.99q.825 9.02 1.207 18.071.382 9.05.319 18.109-.063 9.058-.57 18.102t-1.458 18.053-2.341 17.96q-1.391 8.95-3.22 17.822t-4.09 17.644q-2.263 8.771-4.952 17.421t-5.8 17.158-6.636 16.852-7.454 16.506-8.255 16.121-9.036 15.696q-4.71 7.738-9.795 15.234-5.085 7.497-10.531 14.735-5.447 7.239-11.242 14.2-5.795 6.963-11.925 13.633t-12.579 13.03q-6.45 6.36-13.203 12.397-6.754 6.037-13.796 11.735T617.753 667.9t-14.88 10.326-15.368 9.583-15.82 8.818-16.233 8.03-16.608 7.225q-5.227 2.123-10.516 4.084-5.288 1.962-10.635 3.761t-10.745 3.434-10.844 3.104q-5.447 1.47-10.935 2.772t-11.014 2.435-11.084 2.098-11.143 1.758q-5.584.794-11.19 1.416-5.607.623-11.23 1.074t-11.256.73-11.274.386-11.28.041-11.277-.304-11.262-.648q-5.625-.41-11.236-.993-5.61-.582-11.201-1.335-5.59-.754-11.155-1.677-5.565-.924-11.099-2.018t-11.031-2.355-10.955-2.692-10.867-3.025-10.77-3.356-10.662-3.684q-5.302-1.924-10.544-4.008t-10.417-4.328-10.28-4.645q-5.104-2.401-10.133-4.957t-9.976-5.264q-4.949-2.708-9.812-5.567t-9.636-5.864q-4.773-3.005-9.453-6.155-7.514-5.059-14.771-10.48t-14.24-11.192-13.673-11.878q-6.69-6.106-13.073-12.534-6.383-6.427-12.443-13.16t-11.783-13.755-11.093-14.317-10.377-14.843q-5.007-7.55-9.637-15.335t-8.872-15.79q-4.242-8.003-8.087-16.205-3.845-8.203-7.282-16.583-3.437-8.381-6.46-16.92-3.022-8.54-5.621-17.218-2.6-8.677-4.77-17.472-2.17-8.794-3.907-17.685t-3.035-17.855-2.154-17.983-1.27-18.067-.382-18.107q.032-9.058.507-18.104.476-9.046 1.395-18.058.92-9.012 2.28-17.967 1.36-8.956 3.158-17.834t4.03-17.658q2.23-8.78 4.89-17.438 2.66-8.66 5.741-17.178t6.577-16.875 7.397-16.532 8.199-16.15q4.298-7.973 8.982-15.727 4.683-7.753 9.742-15.268 3.15-4.679 6.442-9.26t6.722-9.059 6.995-8.849 7.263-8.631 7.523-8.405 7.777-8.172 8.023-7.93 8.261-7.68 8.493-7.425 8.715-7.162 8.93-6.892q4.518-3.377 9.137-6.615t9.334-6.334 9.524-6.045 9.704-5.751 9.876-5.452q4.98-2.65 10.037-5.147t10.19-4.839 10.334-4.524 10.466-4.207 10.59-3.884q5.326-1.862 10.705-3.56t10.808-3.23q5.429-1.532 10.902-2.898t10.985-2.564 11.058-2.227 11.121-1.888 11.174-1.546 11.216-1.205 11.247-.861 11.269-.518T400 1v369z"/><path fill="none" stroke="#fff" stroke-linejoin="bevel" stroke-width="2" d="M741.882 231.156q3.409 8.393 6.401 16.943t5.562 17.236 4.71 17.489 3.845 17.698 2.973 17.866 2.092 17.99q.825 9.02 1.207 18.071.382 9.05.319 18.109-.063 9.058-.57 18.102t-1.458 18.053-2.341 17.96q-1.391 8.95-3.22 17.822t-4.09 17.644q-2.263 8.771-4.952 17.421t-5.8 17.158-6.636 16.852-7.454 16.506-8.255 16.121-9.036 15.696q-4.71 7.738-9.795 15.234-5.085 7.497-10.531 14.735-5.447 7.239-11.242 14.2-5.795 6.963-11.925 13.633t-12.579 13.03q-6.45 6.36-13.203 12.397-6.754 6.037-13.796 11.735T617.753 667.9t-14.88 10.326-15.368 9.583-15.82 8.818-16.233 8.03-16.608 7.225q-5.227 2.123-10.516 4.084-5.288 1.962-10.635 3.761t-10.745 3.434-10.844 3.104q-5.447 1.47-10.935 2.772t-11.014 2.435-11.084 2.098-11.143 1.758q-5.584.794-11.19 1.416-5.607.623-11.23 1.074t-11.256.73-11.274.386-11.28.041-11.277-.304-11.262-.648q-5.625-.41-11.236-.993-5.61-.582-11.201-1.335-5.59-.754-11.155-1.677-5.565-.924-11.099-2.018t-11.031-2.355-10.955-2.692-10.867-3.025-10.77-3.356-10.662-3.684q-5.302-1.924-10.544-4.008t-10.417-4.328-10.28-4.645q-5.104-2.401-10.133-4.957t-9.976-5.264q-4.949-2.708-9.812-5.567t-9.636-5.864q-4.773-3.005-9.453-6.155-7.514-5.059-14.771-10.48t-14.24-11.192-13.673-11.878q-6.69-6.106-13.073-12.534-6.383-6.427-12.443-13.16t-11.783-13.755-11.093-14.317-10.377-14.843q-5.007-7.55-9.637-15.335t-8.872-15.79q-4.242-8.003-8.087-16.205-3.845-8.203-7.282-16.583-3.437-8.381-6.46-16.92-3.022-8.54-5.621-17.218-2.6-8.677-4.77-17.472-2.17-8.794-3.907-17.685t-3.035-17.855-2.154-17.983-1.27-18.067-.382-18.107q.032-9.058.507-18.104.476-9.046 1.395-18.058.92-9.012 2.28-17.967 1.36-8.956 3.158-17.834t4.03-17.658q2.23-8.78 4.89-17.438 2.66-8.66 5.741-17.178t6.577-16.875 7.397-16.532 8.199-16.15q4.298-7.973 8.982-15.727 4.683-7.753 9.742-15.268 3.15-4.679 6.442-9.26t6.722-9.059 6.995-8.849 7.263-8.631 7.523-8.405 7.777-8.172 8.023-7.93 8.261-7.68 8.493-7.425 8.715-7.162 8.93-6.892q4.518-3.377 9.137-6.615t9.334-6.334 9.524-6.045 9.704-5.751 9.876-5.452q4.98-2.65 10.037-5.147t10.19-4.839 10.334-4.524 10.466-4.207 10.59-3.884q5.326-1.862 10.705-3.56t10.808-3.23q5.429-1.532 10.902-2.898t10.985-2.564 11.058-2.227 11.121-1.888 11.174-1.546 11.216-1.205 11.247-.861 11.269-.518T400 1v369l341.882-138.844Z"/></svg>