<svg xmlns="http://www.w3.org/2000/svg" width="800" height="800"><path fill="none" d="M0 0h800v800H0z"/><clipPath id="a"><path d="M0 740h800v60H0z"/></clipPath><g clip-path="url(#a)"><path fill="#4caf50" d="M144.605 770h40v20h-40z"/><path fill="none" stroke="#fff" stroke-miterlimit="10" stroke-width="2" d="M144.605 770h40v20h-40z"/><text x="194.605, 207.94484, 217.50539, 230.38625, 240.64992, 248.68703, 260.52295," y="787.5," fill="#666" font-family="DejaVu Serif" font-size="20">Trusted</text><path fill="#ff9800" d="M303.325 770h40v20h-40z"/><path fill="none" stroke="#fff" stroke-miterlimit="10" stroke-width="2" d="M303.325 770h40v20h-40z"/><text x="353.32501, 366.78204, 376.34259, 388.38361, 399.68243, 411.51837, 424.39923, 436.32306, 449.20392, 460.40509," y="787.5," fill="#666" font-family="DejaVu Serif" font-size="20">Provenance</text><path fill="#f44336" d="M502.245 770h40v20h-40z"/><path fill="none" stroke="#fff" stroke-miterlimit="10" stroke-width="2" d="M502.245 770h40v20h-40z"/><text x="552.245, 569.10046, 581.98132, 590.01843, 599.57898, 612.45984, 622.72351, 630.76062, 642.59656," y="787.5," fill="#666" font-family="DejaVu Serif" font-size="20">Untrusted</text></g><path fill="#4caf50" d="M400 1q8.804 0 17.597.42t17.557 1.258q8.764.84 17.477 2.095t17.358 2.925q8.644 1.67 17.198 3.75t17 4.566 16.762 5.371 16.488 6.165 16.174 6.944 15.826 7.707 15.44 8.453 15.018 9.18 14.564 9.886 14.076 10.569 13.556 11.228 13.005 11.862L400 370z"/><path fill="none" stroke="#fff" stroke-linejoin="bevel" stroke-width="2" d="M400 1q8.804 0 17.597.42t17.557 1.258q8.764.84 17.477 2.095t17.358 2.925q8.644 1.67 17.198 3.75t17 4.566 16.762 5.371 16.488 6.165 16.174 6.944 15.826 7.707 15.44 8.453 15.018 9.18 14.564 9.886 14.076 10.569 13.556 11.228 13.005 11.862L400 370z"/><path fill="#ff9800" d="M655.096 103.379q18.018 17.238 33.552 36.745 15.535 19.506 28.304 40.925L400 370z"/><path fill="none" stroke="#fff" stroke-linejoin="bevel" stroke-width="2" d="M655.096 103.379q18.018 17.238 33.552 36.745 15.535 19.506 28.304 40.925L400 370l255.096-266.621Z"/><path fill="#f44336" d="M716.952 181.049q4.638 7.78 8.89 15.78 4.25 7.998 8.104 16.196t7.3 16.575q3.447 8.377 6.478 16.913t5.64 17.211 4.79 17.467 3.926 17.68q1.746 8.89 3.054 17.853t2.174 17.98q.866 9.017 1.29 18.066.422 9.048.4 18.107-.02 9.058-.487 18.104-.466 9.047-1.375 18.06-.91 9.012-2.26 17.97t-3.138 17.837-4.01 17.662q-2.223 8.781-4.873 17.444t-5.722 17.183q-3.072 8.522-6.558 16.883t-7.379 16.54-8.181 16.158-8.965 15.737-9.726 15.279-10.464 14.782-11.176 14.252-11.863 13.686-12.52 13.088-13.146 12.457-13.742 11.797-14.305 11.109-14.832 10.393q-7.544 5.015-15.325 9.654-5.22 3.112-10.542 6.051-5.32 2.94-10.735 5.701-5.415 2.762-10.918 5.345t-11.088 4.982-11.246 4.614-11.392 4.24q-5.73 2.027-11.525 3.864-5.794 1.837-11.646 3.482t-11.755 3.097q-5.902 1.45-11.85 2.707t-11.933 2.316q-5.985 1.06-12.003 1.921-6.017.862-12.06 1.525-6.041.663-12.102 1.127t-12.134.728q-6.073.264-12.151.328-6.079.064-12.156-.073-6.077-.136-12.146-.473t-12.124-.873-12.09-1.272q-6.033-.735-12.04-1.669t-11.979-2.065-11.904-2.458-11.817-2.85-11.717-3.236q-5.831-1.715-11.603-3.62-5.772-1.907-11.479-4.002t-11.34-4.377q-5.634-2.282-11.19-4.748t-11.027-5.115q-5.472-2.647-10.853-5.474t-10.667-5.83q-7.876-4.473-15.523-9.329-7.648-4.855-15.048-10.08t-14.534-10.806q-7.134-5.582-13.987-11.506t-13.405-12.18q-6.553-6.253-12.791-12.821t-12.147-13.434-11.473-14.014-10.772-14.56q-5.207-7.413-10.044-15.071-4.837-7.66-9.293-15.546-4.456-7.887-8.519-15.983t-7.724-16.382q-3.66-8.286-6.91-16.74-3.25-8.456-6.082-17.06-2.831-8.605-5.237-17.339t-4.38-17.573-3.512-17.768-2.636-17.919q-1.099-8.991-1.754-18.026-.656-9.035-.867-18.09-.212-9.056.021-18.112t.91-18.088 1.797-18.023 2.679-17.912 3.554-17.759 4.422-17.563 5.278-17.326q2.851-8.598 6.122-17.045t6.95-16.725 7.764-16.363q4.082-8.086 8.556-15.963 3.003-5.285 6.177-10.469 3.175-5.183 6.52-10.26 3.343-5.076 6.852-10.039t7.18-9.808q3.671-4.845 7.5-9.567 3.828-4.721 7.81-9.314t8.113-9.052q4.131-4.46 8.407-8.78 4.275-4.321 8.69-8.499 4.417-4.177 8.967-8.207t9.232-7.907q4.681-3.878 9.488-7.6t9.732-7.282 9.967-6.958 10.191-6.627 10.404-6.286 10.605-5.941 10.795-5.588 10.973-5.23 11.14-4.865 11.293-4.496 11.435-4.121 11.566-3.743 11.682-3.36 11.786-2.972 11.878-2.583 11.957-2.19 12.022-1.796 12.075-1.398 12.114-1 12.141-.6T400 1v369z"/><path fill="none" stroke="#fff" stroke-linejoin="bevel" stroke-width="2" d="M716.952 181.049q4.638 7.78 8.89 15.78 4.25 7.998 8.104 16.196t7.3 16.575q3.447 8.377 6.478 16.913t5.64 17.211 4.79 17.467 3.926 17.68q1.746 8.89 3.054 17.853t2.174 17.98q.866 9.017 1.29 18.066.422 9.048.4 18.107-.02 9.058-.487 18.104-.466 9.047-1.375 18.06-.91 9.012-2.26 17.97t-3.138 17.837-4.01 17.662q-2.223 8.781-4.873 17.444t-5.722 17.183q-3.072 8.522-6.558 16.883t-7.379 16.54-8.181 16.158-8.965 15.737-9.726 15.279-10.464 14.782-11.176 14.252-11.863 13.686-12.52 13.088-13.146 12.457-13.742 11.797-14.305 11.109-14.832 10.393q-7.544 5.015-15.325 9.654-5.22 3.112-10.542 6.051-5.32 2.94-10.735 5.701-5.415 2.762-10.918 5.345t-11.088 4.982-11.246 4.614-11.392 4.24q-5.73 2.027-11.525 3.864-5.794 1.837-11.646 3.482t-11.755 3.097q-5.902 1.45-11.85 2.707t-11.933 2.316q-5.985 1.06-12.003 1.921-6.017.862-12.06 1.525-6.041.663-12.102 1.127t-12.134.728q-6.073.264-12.151.328-6.079.064-12.156-.073-6.077-.136-12.146-.473t-12.124-.873-12.09-1.272q-6.033-.735-12.04-1.669t-11.979-2.065-11.904-2.458-11.817-2.85-11.717-3.236q-5.831-1.715-11.603-3.62-5.772-1.907-11.479-4.002t-11.34-4.377q-5.634-2.282-11.19-4.748t-11.027-5.115q-5.472-2.647-10.853-5.474t-10.667-5.83q-7.876-4.473-15.523-9.329-7.648-4.855-15.048-10.08t-14.534-10.806q-7.134-5.582-13.987-11.506t-13.405-12.18q-6.553-6.253-12.791-12.821t-12.147-13.434-11.473-14.014-10.772-14.56q-5.207-7.413-10.044-15.071-4.837-7.66-9.293-15.546-4.456-7.887-8.519-15.983t-7.724-16.382q-3.66-8.286-6.91-16.74-3.25-8.456-6.082-17.06-2.831-8.605-5.237-17.339t-4.38-17.573-3.512-17.768-2.636-17.919q-1.099-8.991-1.754-18.026-.656-9.035-.867-18.09-.212-9.056.021-18.112t.91-18.088 1.797-18.023 2.679-17.912 3.554-17.759 4.422-17.563 5.278-17.326q2.851-8.598 6.122-17.045t6.95-16.725 7.764-16.363q4.082-8.086 8.556-15.963 3.003-5.285 6.177-10.469 3.175-5.183 6.52-10.26 3.343-5.076 6.852-10.039t7.18-9.808q3.671-4.845 7.5-9.567 3.828-4.721 7.81-9.314t8.113-9.052q4.131-4.46 8.407-8.78 4.275-4.321 8.69-8.499 4.417-4.177 8.967-8.207t9.232-7.907q4.681-3.878 9.488-7.6t9.732-7.282 9.967-6.958 10.191-6.627 10.404-6.286 10.605-5.941 10.795-5.588 10.973-5.23 11.14-4.865 11.293-4.496 11.435-4.121 11.566-3.743 11.682-3.36 11.786-2.972 11.878-2.583 11.957-2.19 12.022-1.796 12.075-1.398 12.114-1 12.141-.6T400 1v369l316.952-188.952Z"/></svg>