<svg xmlns="http://www.w3.org/2000/svg" width="800" height="800"><path fill="none" d="M0 0h800v800H0z"/><clipPath id="a"><path d="M0 740h800v60H0z"/></clipPath><g clip-path="url(#a)"><path fill="#4caf50" d="M144.605 770h40v20h-40z"/><path fill="none" stroke="#fff" stroke-miterlimit="10" stroke-width="2" d="M144.605 770h40v20h-40z"/><text x="194.605, 207.94484, 217.50539, 230.38625, 240.64992, 248.68703, 260.52295," y="787.5," fill="#666" font-family="DejaVu Serif" font-size="20">Trusted</text><path fill="#ff9800" d="M303.325 770h40v20h-40z"/><path fill="none" stroke="#fff" stroke-miterlimit="10" stroke-width="2" d="M303.325 770h40v20h-40z"/><text x="353.32501, 366.78204, 376.34259, 388.38361, 399.68243, 411.51837, 424.39923, 436.32306, 449.20392, 460.40509," y="787.5," fill="#666" font-family="DejaVu Serif" font-size="20">Provenance</text><path fill="#f44336" d="M502.245 770h40v20h-40z"/><path fill="none" stroke="#fff" stroke-miterlimit="10" stroke-width="2" d="M502.245 770h40v20h-40z"/><text x="552.245, 569.10046, 581.98132, 590.01843, 599.57898, 612.45984, 622.72351, 630.76062, 642.59656," y="787.5," fill="#666" font-family="DejaVu Serif" font-size="20">Untrusted</text></g><path fill="#4caf50" d="M400 1q8.784 0 17.558.418 8.775.418 17.519 1.253t17.439 2.085 17.32 2.913 17.162 3.733 16.965 4.546 16.73 5.348q8.3 2.873 16.455 6.138t16.145 6.914 15.798 7.674q7.807 4.026 15.415 8.418t14.996 9.141 14.545 9.845 14.06 10.525 13.543 11.183q6.639 5.753 12.996 11.815L400 370z"/><path fill="none" stroke="#fff" stroke-linejoin="bevel" stroke-width="2" d="M400 1q8.784 0 17.558.418 8.775.418 17.519 1.253t17.439 2.085 17.32 2.913 17.162 3.733 16.965 4.546 16.73 5.348q8.3 2.873 16.455 6.138t16.145 6.914 15.798 7.674q7.807 4.026 15.415 8.418t14.996 9.141 14.545 9.845 14.06 10.525 13.543 11.183q6.639 5.753 12.996 11.815L400 370z"/><path fill="#ff9800" d="M654.646 102.949q18.075 17.235 33.663 36.749t28.403 40.95L400 370z"/><path fill="none" stroke="#fff" stroke-linejoin="bevel" stroke-width="2" d="M654.646 102.949q18.075 17.235 33.663 36.749t28.403 40.95L400 370l254.646-267.051Z"/><path fill="#f44336" d="M716.712 180.648q4.649 7.775 8.91 15.768t8.125 16.187 7.321 16.566 6.5 16.905 5.662 17.203 4.81 17.46 3.95 17.677 3.076 17.848 2.197 17.978 1.312 18.063.425 18.107-.465 18.105-1.352 18.061-2.237 17.973q-1.34 8.959-3.116 17.841-1.778 8.883-3.988 17.667t-4.85 17.45-5.7 17.191q-3.062 8.526-6.538 16.89-3.475 8.366-7.357 16.55t-8.161 16.169q-4.28 7.984-8.945 15.748-4.666 7.765-9.707 15.291-5.04 7.526-10.445 14.796-5.404 7.27-11.158 14.266-5.755 6.996-11.845 13.7-6.091 6.706-12.504 13.104t-13.13 12.474q-6.72 6.076-13.728 11.815-7.009 5.739-14.29 11.127-7.282 5.388-14.82 10.412-7.537 5.024-15.312 9.672-5.22 3.122-10.54 6.069t-10.736 5.718q-5.414 2.77-10.917 5.36t-11.089 4.999-11.247 4.63-11.394 4.257-11.527 3.879-11.65 3.496-11.758 3.112q-5.905 1.458-11.854 2.722-5.95 1.263-11.938 2.33-5.988 1.066-12.008 1.934-6.02.869-12.065 1.539-6.046.67-12.11 1.14t-12.14.74-12.158.339-12.163-.061q-6.08-.131-12.154-.463-6.073-.33-12.132-.862-6.06-.531-12.098-1.262-6.038-.73-12.049-1.66t-11.988-2.056-11.913-2.45-11.827-2.841-11.726-3.23q-5.836-1.711-11.613-3.614t-11.488-3.995-11.35-4.372-11.2-4.743-11.038-5.11q-5.477-2.645-10.863-5.47t-10.677-5.826q-7.879-4.47-15.53-9.32t-15.053-10.07-14.541-10.797-13.994-11.498q-6.856-5.92-13.413-12.17t-12.8-12.814-12.155-13.427q-5.913-6.862-11.482-14.006-5.57-7.145-10.78-14.553-5.213-7.41-10.055-15.065-4.842-7.656-9.302-15.54t-8.529-15.978-7.734-16.376-6.922-16.737-6.092-17.056-5.248-17.335-4.391-17.57-3.523-17.766-2.648-17.917-1.765-18.025-.879-18.09.01-18.112.899-18.089 1.785-18.023 2.668-17.914 3.543-17.761 4.41-17.566q2.421-8.73 5.267-17.33t6.111-17.048 6.94-16.73 7.753-16.368 8.547-15.968q3-5.29 6.174-10.479t6.517-10.27 6.851-10.05 7.18-9.818 7.498-9.576q3.828-4.726 7.81-9.324t8.113-9.062 8.408-8.789 8.692-8.507 8.968-8.216 9.234-7.917 9.49-7.607 9.736-7.291 9.97-6.966q5.043-3.4 10.195-6.634 5.152-3.232 10.408-6.294 5.256-3.06 10.61-5.947t10.8-5.595q5.445-2.708 10.978-5.235t11.144-4.871q5.613-2.344 11.3-4.501t11.442-4.127q5.754-1.968 11.57-3.746t11.69-3.364 11.793-2.976q5.92-1.391 11.884-2.586Q333.458 6.998 339.458 6q6-.997 12.03-1.797t12.081-1.4 12.122-1.001 12.148-.602T400 1v369z"/><path fill="none" stroke="#fff" stroke-linejoin="bevel" stroke-width="2" d="M716.712 180.648q4.649 7.775 8.91 15.768t8.125 16.187 7.321 16.566 6.5 16.905 5.662 17.203 4.81 17.46 3.95 17.677 3.076 17.848 2.197 17.978 1.312 18.063.425 18.107-.465 18.105-1.352 18.061-2.237 17.973q-1.34 8.959-3.116 17.841-1.778 8.883-3.988 17.667t-4.85 17.45-5.7 17.191q-3.062 8.526-6.538 16.89-3.475 8.366-7.357 16.55t-8.161 16.169q-4.28 7.984-8.945 15.748-4.666 7.765-9.707 15.291-5.04 7.526-10.445 14.796-5.404 7.27-11.158 14.266-5.755 6.996-11.845 13.7-6.091 6.706-12.504 13.104t-13.13 12.474q-6.72 6.076-13.728 11.815-7.009 5.739-14.29 11.127-7.282 5.388-14.82 10.412-7.537 5.024-15.312 9.672-5.22 3.122-10.54 6.069t-10.736 5.718q-5.414 2.77-10.917 5.36t-11.089 4.999-11.247 4.63-11.394 4.257-11.527 3.879-11.65 3.496-11.758 3.112q-5.905 1.458-11.854 2.722-5.95 1.263-11.938 2.33-5.988 1.066-12.008 1.934-6.02.869-12.065 1.539-6.046.67-12.11 1.14t-12.14.74-12.158.339-12.163-.061q-6.08-.131-12.154-.463-6.073-.33-12.132-.862-6.06-.531-12.098-1.262-6.038-.73-12.049-1.66t-11.988-2.056-11.913-2.45-11.827-2.841-11.726-3.23q-5.836-1.711-11.613-3.614t-11.488-3.995-11.35-4.372-11.2-4.743-11.038-5.11q-5.477-2.645-10.863-5.47t-10.677-5.826q-7.879-4.47-15.53-9.32t-15.053-10.07-14.541-10.797-13.994-11.498q-6.856-5.92-13.413-12.17t-12.8-12.814-12.155-13.427q-5.913-6.862-11.482-14.006-5.57-7.145-10.78-14.553-5.213-7.41-10.055-15.065-4.842-7.656-9.302-15.54t-8.529-15.978-7.734-16.376-6.922-16.737-6.092-17.056-5.248-17.335-4.391-17.57-3.523-17.766-2.648-17.917-1.765-18.025-.879-18.09.01-18.112.899-18.089 1.785-18.023 2.668-17.914 3.543-17.761 4.41-17.566q2.421-8.73 5.267-17.33t6.111-17.048 6.94-16.73 7.753-16.368 8.547-15.968q3-5.29 6.174-10.479t6.517-10.27 6.851-10.05 7.18-9.818 7.498-9.576q3.828-4.726 7.81-9.324t8.113-9.062 8.408-8.789 8.692-8.507 8.968-8.216 9.234-7.917 9.49-7.607 9.736-7.291 9.97-6.966q5.043-3.4 10.195-6.634 5.152-3.232 10.408-6.294 5.256-3.06 10.61-5.947t10.8-5.595q5.445-2.708 10.978-5.235t11.144-4.871q5.613-2.344 11.3-4.501t11.442-4.127q5.754-1.968 11.57-3.746t11.69-3.364 11.793-2.976q5.92-1.391 11.884-2.586Q333.458 6.998 339.458 6q6-.997 12.03-1.797t12.081-1.4 12.122-1.001 12.148-.602T400 1v369l316.712-189.352Z"/></svg>