<?xml version="1.0" encoding="utf-8" ?><svg xmlns="http://www.w3.org/2000/svg" xmlns:xlink="http://www.w3.org/1999/xlink" width="1000" height="500"><rect fill-opacity="0" width="1000" height="500"/><path fill="none" stroke="black" stroke-width="1" stroke-miterlimit="10" stroke-opacity="0.098039217" d="M48.5 41.599998L48.5 389"/><path fill="none" stroke="black" stroke-width="1" stroke-miterlimit="10" stroke-opacity="0.098039217" d="M48.5 390L48.5 397.47501"/><path fill="none" stroke="black" stroke-width="1" stroke-miterlimit="10" stroke-opacity="0.098039217" d="M128.5 41.599998L128.5 389"/><path fill="none" stroke="black" stroke-width="1" stroke-miterlimit="10" stroke-opacity="0.098039217" d="M128.5 390L128.5 397.47501"/><path fill="none" stroke="black" stroke-width="1" stroke-miterlimit="10" stroke-opacity="0.098039217" d="M207.5 41.599998L207.5 389"/><path fill="none" stroke="black" stroke-width="1" stroke-miterlimit="10" stroke-opacity="0.098039217" d="M207.5 390L207.5 397.47501"/><path fill="none" stroke="black" stroke-width="1" stroke-miterlimit="10" stroke-opacity="0.098039217" d="M287.5 41.599998L287.5 389"/><path fill="none" stroke="black" stroke-width="1" stroke-miterlimit="10" stroke-opacity="0.098039217" d="M287.5 390L287.5 397.47501"/><path fill="none" stroke="black" stroke-width="1" stroke-miterlimit="10" stroke-opacity="0.098039217" d="M366.5 41.599998L366.5 389"/><path fill="none" stroke="black" stroke-width="1" stroke-miterlimit="10" stroke-opacity="0.098039217" d="M366.5 390L366.5 397.47501"/><path fill="none" stroke="black" stroke-width="1" stroke-miterlimit="10" stroke-opacity="0.098039217" d="M446.5 41.599998L446.5 389"/><path fill="none" stroke="black" stroke-width="1" stroke-miterlimit="10" stroke-opacity="0.098039217" d="M446.5 390L446.5 397.47501"/><path fill="none" stroke="black" stroke-width="1" stroke-miterlimit="10" stroke-opacity="0.098039217" d="M526.5 41.599998L526.5 389"/><path fill="none" stroke="black" stroke-width="1" stroke-miterlimit="10" stroke-opacity="0.098039217" d="M526.5 390L526.5 397.47501"/><path fill="none" stroke="black" stroke-width="1" stroke-miterlimit="10" stroke-opacity="0.098039217" d="M605.5 41.599998L605.5 389"/><path fill="none" stroke="black" stroke-width="1" stroke-miterlimit="10" stroke-opacity="0.098039217" d="M605.5 390L605.5 397.47501"/><path fill="none" stroke="black" stroke-width="1" stroke-miterlimit="10" stroke-opacity="0.098039217" d="M685.5 41.599998L685.5 389"/><path fill="none" stroke="black" stroke-width="1" stroke-miterlimit="10" stroke-opacity="0.098039217" d="M685.5 390L685.5 397.47501"/><path fill="none" stroke="black" stroke-width="1" stroke-miterlimit="10" stroke-opacity="0.098039217" d="M764.5 41.599998L764.5 389"/><path fill="none" stroke="black" stroke-width="1" stroke-miterlimit="10" stroke-opacity="0.098039217" d="M764.5 390L764.5 397.47501"/><path fill="none" stroke="black" stroke-width="1" stroke-miterlimit="10" stroke-opacity="0.098039217" d="M844.5 41.599998L844.5 389"/><path fill="none" stroke="black" stroke-width="1" stroke-miterlimit="10" stroke-opacity="0.098039217" d="M844.5 390L844.5 397.47501"/><path fill="none" stroke="black" stroke-width="1" stroke-miterlimit="10" stroke-opacity="0.098039217" d="M924.5 41.599998L924.5 389"/><path fill="none" stroke="black" stroke-width="1" stroke-miterlimit="10" stroke-opacity="0.098039217" d="M924.5 390L924.5 397.47501"/><path fill="none" stroke="black" stroke-width="1" stroke-miterlimit="10" stroke-opacity="0.098039217" d="M49 389.5L1000 389.5"/><path fill="none" stroke="black" stroke-width="1" stroke-miterlimit="10" stroke-opacity="0.098039217" d="M40.68 389.5L48 389.5"/><path fill="none" stroke="black" stroke-width="1" stroke-miterlimit="10" stroke-opacity="0.098039217" d="M49 354.5L1000 354.5"/><path fill="none" stroke="black" stroke-width="1" stroke-miterlimit="10" stroke-opacity="0.098039217" d="M40.68 354.5L48 354.5"/><path fill="none" stroke="black" stroke-width="1" stroke-miterlimit="10" stroke-opacity="0.098039217" d="M49 319.5L1000 319.5"/><path fill="none" stroke="black" stroke-width="1" stroke-miterlimit="10" stroke-opacity="0.098039217" d="M40.68 319.5L48 319.5"/><path fill="none" stroke="black" stroke-width="1" stroke-miterlimit="10" stroke-opacity="0.098039217" d="M49 285.5L1000 285.5"/><path fill="none" stroke="black" stroke-width="1" stroke-miterlimit="10" stroke-opacity="0.098039217" d="M40.68 285.5L48 285.5"/><path fill="none" stroke="black" stroke-width="1" stroke-miterlimit="10" stroke-opacity="0.098039217" d="M49 250.5L1000 250.5"/><path fill="none" stroke="black" stroke-width="1" stroke-miterlimit="10" stroke-opacity="0.098039217" d="M40.68 250.5L48 250.5"/><path fill="none" stroke="black" stroke-width="1" stroke-miterlimit="10" stroke-opacity="0.098039217" d="M49 215.5L1000 215.5"/><path fill="none" stroke="black" stroke-width="1" stroke-miterlimit="10" stroke-opacity="0.098039217" d="M40.68 215.5L48 215.5"/><path fill="none" stroke="black" stroke-width="1" stroke-miterlimit="10" stroke-opacity="0.098039217" d="M49 180.5L1000 180.5"/><path fill="none" stroke="black" stroke-width="1" stroke-miterlimit="10" stroke-opacity="0.098039217" d="M40.68 180.5L48 180.5"/><path fill="none" stroke="black" stroke-width="1" stroke-miterlimit="10" stroke-opacity="0.098039217" d="M49 145.5L1000 145.5"/><path fill="none" stroke="black" stroke-width="1" stroke-miterlimit="10" stroke-opacity="0.098039217" d="M40.68 145.5L48 145.5"/><path fill="none" stroke="black" stroke-width="1" stroke-miterlimit="10" stroke-opacity="0.098039217" d="M49 111.5L1000 111.5"/><path fill="none" stroke="black" stroke-width="1" stroke-miterlimit="10" stroke-opacity="0.098039217" d="M40.68 111.5L48 111.5"/><path fill="none" stroke="black" stroke-width="1" stroke-miterlimit="10" stroke-opacity="0.098039217" d="M49 76.5L1000 76.5"/><path fill="none" stroke="black" stroke-width="1" stroke-miterlimit="10" stroke-opacity="0.098039217" d="M40.68 76.5L48 76.5"/><path fill="none" stroke="black" stroke-width="1" stroke-miterlimit="10" stroke-opacity="0.098039217" d="M49 41.5L1000 41.5"/><path fill="none" stroke="black" stroke-width="1" stroke-miterlimit="10" stroke-opacity="0.098039217" d="M40.68 41.5L48 41.5"/><clipPath id="cl_3"><rect y="458" width="1000" height="42"/></clipPath><g clip-path="url(#cl_3)"><path fill="#59A14F" d="M250.05 474L290.04999 474L290.04999 490L250.05 490L250.05 474Z"/><path fill="none" stroke="#59A14F" stroke-width="2" stroke-miterlimit="10" d="M250.05 474L290.04999 474L290.04999 490L250.05 490L250.05 474Z"/><text fill="#666" font-size="16" font-family="Helvetica Neue" x="298.04999, 305.76202, 311.09003, 319.98602, 327.98605, 333.02606, 341.61807, " y="487.5, ">Trusted</text><path fill="#F28E2C" d="M367.10999 474L407.10999 474L407.10999 490L367.10999 490L367.10999 474Z"/><path fill="none" stroke="#F28E2C" stroke-width="2" stroke-miterlimit="10" d="M367.10999 474L407.10999 474L407.10999 490L367.10999 490L367.10999 474Z"/><text fill="#666" font-size="16" font-family="Helvetica Neue" x="415.10999, 425.47803, 430.51804, 439.70206, 447.70209, 456.29407, 465.19009, 473.7821, 482.6781, 491.27014, " y="487.5, ">Provenance</text><path fill="#E15759" d="M515.85999 474L555.85999 474L555.85999 490L515.85999 490L515.85999 474Z"/><path fill="none" stroke="#E15759" stroke-width="2" stroke-miterlimit="10" d="M515.85999 474L555.85999 474L555.85999 490L515.85999 490L515.85999 474Z"/><text fill="#666" font-size="16" font-family="Helvetica Neue" x="563.85999, 575.41199, 584.30798, 589.34802, 594.67603, 603.57202, 611.57208, 616.61206, 625.2041, " y="487.5, ">Untrusted</text><path fill="#4E79A7" d="M650.69 474L690.69 474L690.69 490L650.69 490L650.69 474Z"/><path fill="none" stroke="#4E79A7" stroke-width="2" stroke-miterlimit="10" d="M650.69 474L690.69 474L690.69 490L650.69 490L650.69 474Z"/><text fill="#666" font-size="16" font-family="Helvetica Neue" x="698.69, 709.05804, 714.09802, 722.69006, 731.87408, 740.46606, " y="487.5, ">Staged</text></g><text fill="#666" transform="translate(500 18.8)" font-size="18" font-family="Helvetica Neue" x="-227.22, -217.21207, -206.53813, -191.18423, -186.18027, -177.84633, -167.51439, -156.84045, -151.83649, -140.17256, -130.50662, -120.84068, -111.49875, -101.83281, -91.50087, -81.83493, -72.834991, -67.831024, -49.831131, -44.827164, -33.163239, -27.493286, -17.161346, -8.1614075, 1.5045319, 11.512466, 21.178406, 31.18634, 40.852264, 50.518219, 55.522186, 67.186127, 72.85611, 82.522064, 88.192047, 98.199982, 107.19992, 112.20389, 125.88382, 134.88376, 144.54971, 150.54367, 155.54764, 165.87958, 169.87555, 185.22946, 194.89542, 199.89938, 204.56137, 222.56125, " y="6.5, ">npm Top Packages — Provenance Status Over Time (%)</text><path fill="none" stroke="black" stroke-width="1" stroke-miterlimit="10" stroke-opacity="0.098039217" d="M48 389.5L1001 389.5"/><clipPath id="cl_4"><rect y="389.47501" width="1000" height="68.524994"/></clipPath><g clip-path="url(#cl_4)"><text fill="#666" transform="matrix(0.707107 -0.707107 0.707107 0.707107 43.5888 400.475)" font-size="12" font-family="Helvetica Neue" x="-62.709999, -56.037956, -49.365913, -42.693871, -36.021828, -31.353798, -24.681755, -18.009712, -13.341682, -6.6696396, " y="12.2, ">2025-08-30</text><text fill="#666" transform="matrix(0.707107 -0.707107 0.707107 0.707107 123.167 400.475)" font-size="12" font-family="Helvetica Neue" x="-62.709999, -56.037956, -49.365913, -42.693871, -36.021828, -31.353798, -24.681755, -18.009712, -13.341682, -6.6696396, " y="12.2, ">2025-09-24</text><text fill="#666" transform="matrix(0.707107 -0.707107 0.707107 0.707107 202.745 400.475)" font-size="12" font-family="Helvetica Neue" x="-62.709999, -56.037956, -49.365913, -42.693871, -36.021828, -31.353798, -24.681755, -18.009712, -13.341682, -6.6696396, " y="12.2, ">2025-10-16</text><text fill="#666" transform="matrix(0.707107 -0.707107 0.707107 0.707107 282.323 400.475)" font-size="12" font-family="Helvetica Neue" x="-62.709999, -56.037956, -49.365913, -42.693871, -36.021828, -31.353798, -24.681755, -18.009712, -13.341682, -6.6696396, " y="12.2, ">2025-11-07</text><text fill="#666" transform="matrix(0.707107 -0.707107 0.707107 0.707107 361.901 400.475)" font-size="12" font-family="Helvetica Neue" x="-62.709999, -56.037956, -49.365913, -42.693871, -36.021828, -31.353798, -24.681755, -18.009712, -13.341682, -6.6696396, " y="12.2, ">2025-11-29</text><text fill="#666" transform="matrix(0.707107 -0.707107 0.707107 0.707107 441.479 400.475)" font-size="12" font-family="Helvetica Neue" x="-62.709999, -56.037956, -49.365913, -42.693871, -36.021828, -31.353798, -24.681755, -18.009712, -13.341682, -6.6696396, " y="12.2, ">2025-12-21</text><text fill="#666" transform="matrix(0.707107 -0.707107 0.707107 0.707107 521.057 400.475)" font-size="12" font-family="Helvetica Neue" x="-62.709999, -56.037956, -49.365913, -42.693871, -36.021828, -31.353798, -24.681755, -18.009712, -13.341682, -6.6696396, " y="12.2, ">2026-01-12</text><text fill="#666" transform="matrix(0.707107 -0.707107 0.707107 0.707107 600.635 400.475)" font-size="12" font-family="Helvetica Neue" x="-62.709999, -56.037956, -49.365913, -42.693871, -36.021828, -31.353798, -24.681755, -18.009712, -13.341682, -6.6696396, " y="12.2, ">2026-02-03</text><text fill="#666" transform="matrix(0.707107 -0.707107 0.707107 0.707107 680.214 400.475)" font-size="12" font-family="Helvetica Neue" x="-62.709999, -56.037956, -49.365913, -42.693871, -36.021828, -31.353798, -24.681755, -18.009712, -13.341682, -6.6696396, " y="12.2, ">2026-02-25</text><text fill="#666" transform="matrix(0.707107 -0.707107 0.707107 0.707107 759.792 400.475)" font-size="12" font-family="Helvetica Neue" x="-62.709999, -56.037956, -49.365913, -42.693871, -36.021828, -31.353798, -24.681755, -18.009712, -13.341682, -6.6696396, " y="12.2, ">2026-03-19</text><text fill="#666" transform="matrix(0.707107 -0.707107 0.707107 0.707107 839.37 400.475)" font-size="12" font-family="Helvetica Neue" x="-62.709999, -56.037956, -49.365913, -42.693871, -36.021828, -31.353798, -24.681755, -18.009712, -13.341682, -6.6696396, " y="12.2, ">2026-04-10</text><text fill="#666" transform="matrix(0.707107 -0.707107 0.707107 0.707107 918.948 400.475)" font-size="12" font-family="Helvetica Neue" x="-62.709999, -56.037956, -49.365913, -42.693871, -36.021828, -31.353798, -24.681755, -18.009712, -13.341682, -6.6696396, " y="12.2, ">2026-05-02</text></g><path fill="none" stroke="black" stroke-width="1" stroke-miterlimit="10" stroke-opacity="0.098039217" d="M48.5 41L48.5 390"/><clipPath id="cl_5"><rect width="48.68" height="500"/></clipPath><g clip-path="url(#cl_5)"><text fill="#666" transform="translate(37.68 389.475)" font-size="13" font-family="Helvetica Neue" x="-20.23, -13.001987, " y="5, ">0%</text><text fill="#666" transform="translate(37.68 354.688)" font-size="13" font-family="Helvetica Neue" x="-27.459999, -20.231987, -13.003975, " y="5, ">10%</text><text fill="#666" transform="translate(37.68 319.9)" font-size="13" font-family="Helvetica Neue" x="-27.459999, -20.231987, -13.003975, " y="5, ">20%</text><text fill="#666" transform="translate(37.68 285.112)" font-size="13" font-family="Helvetica Neue" x="-27.459999, -20.231987, -13.003975, " y="5, ">30%</text><text fill="#666" transform="translate(37.68 250.325)" font-size="13" font-family="Helvetica Neue" x="-27.459999, -20.231987, -13.003975, " y="5, ">40%</text><text fill="#666" transform="translate(37.68 215.537)" font-size="13" font-family="Helvetica Neue" x="-27.459999, -20.231987, -13.003975, " y="5, ">50%</text><text fill="#666" transform="translate(37.68 180.75)" font-size="13" font-family="Helvetica Neue" x="-27.459999, -20.231987, -13.003975, " y="5, ">60%</text><text fill="#666" transform="translate(37.68 145.962)" font-size="13" font-family="Helvetica Neue" x="-27.459999, -20.231987, -13.003975, " y="5, ">70%</text><text fill="#666" transform="translate(37.68 111.175)" font-size="13" font-family="Helvetica Neue" x="-27.459999, -20.231987, -13.003975, " y="5, ">80%</text><text fill="#666" transform="translate(37.68 76.3875)" font-size="13" font-family="Helvetica Neue" x="-27.459999, -20.231987, -13.003975, " y="5, ">90%</text><text fill="#666" transform="translate(37.68 41.6)" font-size="13" font-family="Helvetica Neue" x="-34.68, -27.451988, -20.223976, -12.995964, " y="5, ">100%</text></g><clipPath id="cl_7"><rect x="47.68" y="41.599998" width="953.32001" height="348.875"/></clipPath><g clip-path="url(#cl_7)"><path fill="none" stroke="#E15759" stroke-width="2" stroke-miterlimit="10" d="M48.68 67.72541C49.403439 67.72541 51.57375 67.72541 52.297188 67.72541C53.020622 67.72541 55.193741 67.680367 55.914371 67.72541C56.640614 67.770813 58.805466 68.121788 59.531559 68.17765C60.252342 68.233109 62.425159 68.271576 63.148746 68.282013C63.872032 68.29245 66.042496 68.282013 66.76593 68.282013C67.489372 68.282013 69.659683 68.282013 70.383118 68.282013C71.106552 68.282013 73.276886 68.278534 74.000305 68.282013C74.723755 68.285492 76.894051 68.309845 77.617493 68.316803C78.340927 68.323761 80.511223 68.348106 81.23468 68.351585C81.958099 68.355064 84.134369 68.286034 84.85186 68.351585C85.581238 68.418228 87.739693 68.942406 88.469048 69.01255C89.186562 69.081558 91.362846 69.036903 92.086235 69.04734C92.809723 69.057777 94.980988 69.082176 95.703423 69.116913C96.427856 69.151749 98.596252 69.356895 99.32061 69.39521C100.04313 69.433434 102.21745 69.440689 102.9378 69.499573C103.66433 69.558968 105.82845 69.927208 106.55499 69.986603C107.27532 70.045486 109.44884 70.066612 110.17216 70.090965C110.89572 70.115318 113.06572 70.209236 113.78935 70.23011C114.51259 70.250977 116.68304 70.292732 117.40654 70.29969C118.12991 70.306641 120.30031 70.296211 121.02373 70.29969C121.74718 70.303169 123.91772 70.317085 124.64091 70.334473C125.3646 70.351875 127.53446 70.452744 128.2581 70.473625C128.98134 70.494492 131.15178 70.53624 131.87529 70.543198C132.59866 70.550156 134.76903 70.543198 135.49248 70.543198C136.21591 70.543198 138.38629 70.53624 139.10966 70.543198C139.83316 70.550156 142.00336 70.609299 142.72684 70.612778C143.45023 70.616257 145.62059 70.577988 146.34402 70.577988C147.06747 70.577988 149.23776 70.609299 149.96121 70.612778C150.68463 70.616257 152.85777 70.567726 153.5784 70.612778C154.30464 70.658173 156.46942 71.012634 157.19559 71.06501C157.91629 71.116997 160.09944 71.041969 160.81277 71.13459C161.54631 71.229828 163.69638 71.91256 164.42996 72.004272C165.14325 72.093452 167.32372 72.032104 168.04715 72.039062C168.77058 72.046021 170.9417 72.046051 171.66434 72.073853C172.38858 72.101707 174.55742 72.282539 175.28152 72.31736C176.00429 72.352119 178.17513 72.411285 178.89871 72.421722C179.62199 72.432159 181.79253 72.414764 182.5159 72.421722C183.2394 72.42868 185.40958 72.484344 186.13309 72.491302C186.85645 72.498253 189.0269 72.484344 189.75026 72.491302C190.47377 72.49826 192.64395 72.553917 193.36745 72.560875C194.09082 72.567833 196.26135 72.550438 196.98463 72.560875C197.70822 72.571312 199.87825 72.651321 200.60182 72.665237C201.32513 72.679153 203.49582 72.68264 204.21901 72.700027C204.9427 72.717422 207.1279 72.719963 207.8362 72.839172C208.57477 72.963478 210.71457 73.803902 211.45338 73.917587C212.16144 74.026543 214.34712 73.948898 215.07057 73.952377C215.79399 73.955856 217.96432 73.952377 218.68776 73.952377C219.41119 73.952377 221.58177 73.938461 222.30495 73.952377C223.02864 73.966293 225.19925 74.053291 225.92213 74.091522C226.64612 74.129822 228.81532 74.296745 229.53932 74.335037C230.26221 74.373276 232.44725 74.358231 233.15651 74.47419C233.89413 74.594788 236.03606 75.397217 236.77368 75.517815C237.48294 75.633766 239.66719 75.646523 240.39087 75.65696C241.11406 75.667397 243.28462 75.622177 244.00806 75.622177C244.73149 75.622177 246.90181 75.650002 247.62524 75.65696C248.34868 75.663918 250.51904 75.681313 251.24243 75.69175C251.96593 75.702187 254.13985 75.702484 254.85962 75.761322C255.58672 75.820763 257.74973 76.223701 258.47681 76.283134C259.19659 76.34198 261.37054 76.338799 262.09399 76.352715C262.81744 76.366631 264.98767 76.415329 265.71118 76.422287C266.43454 76.429245 268.60492 76.422287 269.32837 76.422287C270.05179 76.422287 272.22226 76.41185 272.94556 76.422287C273.66913 76.432724 275.8392 76.52317 276.56274 76.526649C277.2861 76.530128 279.45648 76.457077 280.17993 76.457077C280.90335 76.457077 283.07376 76.509254 283.79712 76.526649C284.52063 76.544044 286.69073 76.617096 287.41431 76.631012C288.1376 76.644928 290.30804 76.658844 291.03149 76.665802C291.75491 76.67276 293.93967 76.594902 294.64868 76.700584C295.38654 76.810585 297.52802 77.630676 298.26587 77.744209C298.97491 77.853317 301.15961 77.799873 301.88306 77.813789C302.60648 77.827705 304.77673 77.872925 305.50021 77.883362C306.2236 77.893799 308.39423 77.900764 309.1174 77.918152C309.84109 77.935547 312.01089 78.043381 312.73459 78.057297C313.45776 78.071213 315.62842 78.050346 316.35178 78.057297C317.07529 78.064255 319.24548 78.123398 319.96896 78.126877C320.69235 78.130356 322.8627 78.095566 323.58615 78.092087C324.30957 78.088608 326.48032 78.074707 327.20334 78.092087C327.92722 78.109489 330.09668 78.248619 330.82053 78.266022C331.54355 78.283409 333.71429 78.266022 334.43771 78.266022C335.16116 78.266022 337.33148 78.266022 338.0549 78.266022C338.77835 78.266022 340.94879 78.255592 341.67209 78.266022C342.39569 78.276466 344.5657 78.359947 345.28928 78.370384C346.01257 78.380821 348.18304 78.366905 348.90646 78.370384C349.62991 78.373863 351.80035 78.391266 352.52365 78.405174C353.24722 78.41909 355.41733 78.492142 356.14084 78.509537C356.8642 78.526932 359.03558 78.544373 359.75803 78.579109C360.48245 78.613945 362.65073 78.826057 363.37521 78.857414C364.0976 78.888672 366.26935 78.871338 366.9924 78.892197C367.71625 78.913086 369.88574 79.04525 370.60959 79.066139C371.33261 79.086998 373.50348 79.087013 374.22678 79.100922C374.95035 79.114845 377.12036 79.194847 377.84396 79.205284C378.56723 79.215721 380.73853 79.180962 381.46115 79.205284C382.18539 79.229668 384.60959 79.00251 385.07834 79.448799C386.05646 80.380096 387.71667 85.189491 388.69553 86.093208C389.16354 86.52533 391.58966 86.10714 392.31271 86.127998C393.03653 86.14888 395.20602 86.284531 395.9299 86.301933C396.65289 86.319321 398.8237 86.294983 399.54706 86.301933C400.27057 86.308899 402.444 86.316093 403.16425 86.371513C403.89087 86.427414 406.05536 86.788704 406.78143 86.858536C407.50223 86.927856 409.67465 87.039413 410.39862 87.067261C411.12152 87.09507 413.29825 87.064377 414.01581 87.136841C414.74512 87.210487 416.90369 87.724152 417.633 87.797798C418.35056 87.870262 420.5267 87.856941 421.25018 87.867378C421.97357 87.877808 424.14526 87.867439 424.86737 87.902161C425.59213 87.937012 427.76038 88.163017 428.48456 88.215248C429.20724 88.26738 431.38248 88.344421 432.10175 88.423973C432.82935 88.504448 434.99072 88.955833 435.71893 89.015366C436.43759 89.074112 438.6127 89.011887 439.33612 89.015366C440.05957 89.018845 442.23001 89.03624 442.95331 89.050148C443.67688 89.064064 445.84698 89.137115 446.5705 89.15451C447.29385 89.171906 449.4642 89.213654 450.18768 89.224091C450.91107 89.23452 453.08157 89.244965 453.80487 89.258873C454.52844 89.272789 456.69849 89.349319 457.42206 89.363235C458.14536 89.377151 460.3158 89.394547 461.03925 89.398026C461.76266 89.401505 463.93301 89.394547 464.65643 89.398026C465.37988 89.401505 467.55017 89.429337 468.27362 89.432816C468.99704 89.436287 471.16739 89.429337 471.89081 89.432816C472.61426 89.436295 474.78461 89.457161 475.508 89.467598C476.23148 89.478035 478.40173 89.523262 479.12518 89.537178C479.8486 89.551086 482.01886 89.599792 482.74237 89.60675C483.46573 89.613708 485.63611 89.603271 486.35956 89.60675C487.08301 89.610229 489.25751 89.582741 489.97672 89.641541C490.70438 89.701019 492.86685 90.121223 493.5939 90.198135C494.31372 90.274284 496.48712 90.379013 497.21109 90.40686C497.93402 90.434669 500.1048 90.466003 500.82828 90.47644C501.55167 90.48687 503.72336 90.476501 504.44547 90.511223C505.17026 90.546074 507.33868 90.768608 508.06265 90.82431C508.78555 90.879929 510.95566 91.036484 511.67984 91.067825C512.40253 91.099098 514.57379 91.116531 515.29706 91.137398C516.02069 91.158279 518.19061 91.255669 518.91425 91.27655C519.63745 91.297417 521.80792 91.339165 522.53143 91.346123C523.25476 91.353081 525.45013 91.211777 526.14862 91.346123C526.89697 91.490074 529.01819 92.568672 529.76581 92.737625C530.46509 92.895668 532.65979 92.92897 533.383 92.98114C534.10663 93.033333 536.2757 93.224602 537.00012 93.259438C537.7226 93.294174 539.89392 93.315094 540.61731 93.32901C541.34076 93.342926 543.51129 93.377724 544.2345 93.39859C544.95819 93.419464 547.12805 93.516861 547.85168 93.537735C548.57495 93.558601 550.74542 93.600357 551.46887 93.607315C552.19226 93.614265 554.36401 93.576065 555.08606 93.607315C555.81085 93.63868 557.97864 93.878586 558.70325 93.920403C559.42554 93.962074 561.59692 94.00737 562.32043 94.024765C563.04382 94.042152 565.21417 94.0839 565.93762 94.094337C566.66101 94.104774 568.83142 94.11869 569.55481 94.129128C570.27832 94.139565 572.44849 94.191742 573.172 94.1987C573.89539 94.205658 576.06616 94.181313 576.78918 94.1987C577.51306 94.216103 579.68292 94.337852 580.40637 94.372635C581.12982 94.407425 583.38013 94.289764 584.02356 94.546577C584.82703 94.867241 586.83704 96.94696 587.64075 97.260002C588.28394 97.510521 590.53442 97.34697 591.25793 97.364365C591.98132 97.381752 594.15247 97.402664 594.87512 97.433937C595.5993 97.465279 597.76807 97.64959 598.49231 97.677452C599.21497 97.705246 601.38605 97.705276 602.1095 97.712234C602.83295 97.719193 605.00348 97.729637 605.72668 97.747025C606.45038 97.764427 608.62183 97.837563 609.34387 97.886177C610.06873 97.934975 612.23602 98.192215 612.96106 98.234047C613.68292 98.275703 615.85492 98.286232 616.57825 98.303627C617.30176 98.321022 619.47186 98.394066 620.19543 98.40799C620.91876 98.421898 623.08923 98.432343 623.81262 98.442772C624.53613 98.453209 626.70691 98.484543 627.42981 98.512352C628.15381 98.540199 630.323 98.693222 631.047 98.721077C631.7699 98.748886 633.94073 98.776733 634.66418 98.790649C635.38763 98.804565 637.55804 98.842834 638.28137 98.860222C639.00488 98.877617 641.17523 98.940239 641.89856 98.964584C642.62213 98.988945 644.79205 99.086334 645.51575 99.103737C646.23895 99.121124 648.40973 99.12114 649.13293 99.138527C649.85663 99.155922 652.02643 99.260277 652.75012 99.277672C653.47333 99.295059 655.64386 99.305504 656.36731 99.312462C657.09076 99.31942 659.26105 99.340294 659.9845 99.347252C660.70795 99.35421 662.87836 99.368126 663.60168 99.382034C664.32526 99.395958 666.49768 99.43438 667.21887 99.486397C667.94452 99.538742 670.11023 99.858475 670.83606 99.903847C671.55713 99.948921 673.7298 99.931679 674.45325 99.938637C675.1767 99.945595 677.34711 99.959511 678.07043 99.973427C678.79401 99.987343 680.96417 100.05692 681.68762 100.07779C682.41107 100.09866 684.58124 100.16823 685.30481 100.18215C686.02808 100.19606 688.19958 100.18568 688.922 100.21693C689.64648 100.24829 691.8147 100.4604 692.53918 100.49524C693.2616 100.52998 695.43286 100.55437 696.15637 100.56481C696.87976 100.57525 699.05011 100.59612 699.77356 100.5996C700.49695 100.60308 702.66742 100.58916 703.39075 100.5996C704.11432 100.61004 706.28436 100.68657 707.00793 100.70396C707.73126 100.72135 709.90167 100.75962 710.62512 100.77354C711.34851 100.78745 713.51892 100.82572 714.24231 100.84311C714.96582 100.8605 717.13617 100.92313 717.8595 100.94747C718.58301 100.97183 720.75299 101.06922 721.47668 101.08662C722.19983 101.10401 724.37177 101.08669 725.09381 101.12141C725.8186 101.15627 727.98633 101.39616 728.711 101.4345C729.43317 101.47269 731.6051 101.47974 732.32819 101.50407C733.052 101.52843 735.22235 101.63629 735.94537 101.67801C736.66925 101.71978 738.83838 101.89018 739.56256 101.92152C740.28528 101.9528 742.45654 101.97023 743.17975 101.9911C743.90338 102.01198 746.07324 102.11285 746.79694 102.13025C747.52014 102.14764 749.6911 102.14417 750.41412 102.16504C751.138 102.18592 753.3075 102.31809 754.03131 102.33897C754.75439 102.35983 756.92706 102.33213 757.6485 102.37376C758.37396 102.41562 760.54065 102.70065 761.26569 102.75642C761.98755 102.81196 764.15985 102.88864 764.88287 102.93036C765.60675 102.97213 767.776 103.13905 768.50006 103.17387C769.22284 103.20863 771.39368 103.2678 772.11725 103.27824C772.84058 103.28867 775.01111 103.27128 775.73444 103.27824C776.45795 103.28519 778.62817 103.3339 779.35162 103.34781C780.07507 103.36172 782.24536 103.40347 782.96881 103.41739C783.69226 103.4313 785.8631 103.45915 786.586 103.48696C787.31 103.51482 789.47925 103.66784 790.20319 103.69569C790.92609 103.7235 793.09692 103.75135 793.82037 103.76526C794.54382 103.77917 796.71405 103.82788 797.43756 103.83484C798.16095 103.8418 800.33136 103.82788 801.05475 103.83484C801.77826 103.8418 803.94849 103.8905 804.67194 103.90441C805.39539 103.91833 807.5658 103.9566 808.28912 103.97398C809.01263 103.99139 811.18274 104.06443 811.90631 104.07835C812.62964 104.09226 814.80066 104.08881 815.5235 104.11314C816.2475 104.1375 818.41669 104.29749 819.14069 104.32186C819.86353 104.34619 822.03503 104.33232 822.75787 104.35665C823.48187 104.38102 825.651 104.54449 826.37506 104.56538C827.0979 104.58623 829.2691 104.55147 829.99225 104.56538C830.71594 104.57929 832.89105 104.62852 833.60944 104.70452C834.33795 104.78159 836.49799 105.25712 837.22662 105.3307C837.94489 105.40323 840.12036 105.41419 840.84381 105.43506C841.56726 105.45593 843.73767 105.51508 844.461 105.53942C845.18457 105.56378 847.35449 105.66117 848.07819 105.67857C848.80139 105.69596 850.97192 105.70988 851.69537 105.71336C852.41876 105.71684 854.58917 105.70641 855.31256 105.71336C856.03607 105.72032 858.2063 105.76902 858.92975 105.78294C859.6532 105.79685 861.82343 105.84207 862.54694 105.85251C863.27032 105.86295 865.44073 105.87686 866.16412 105.8873C866.88757 105.89774 869.05792 105.93948 869.78131 105.95687C870.50482 105.97427 872.67493 106.04732 873.3985 106.06123C874.12177 106.07515 876.2923 106.08559 877.01569 106.09602C877.73914 106.10646 879.9126 106.11018 880.63287 106.1656C881.3595 106.2215 883.52338 106.60021 884.25006 106.65263C884.97021 106.70457 887.1438 106.68393 887.86725 106.68741C888.59064 106.69089 890.76337 106.64581 891.48444 106.68741C892.21027 106.72929 894.37585 107.056 895.10162 107.10486C895.82269 107.1534 897.9953 107.16748 898.71881 107.17444C899.44214 107.1814 901.61255 107.17096 902.336 107.17444C903.05945 107.17792 905.2298 107.19879 905.95319 107.20922C906.67664 107.21966 908.84686 107.26836 909.57031 107.2788C910.2937 107.28924 912.46832 107.25479 913.1875 107.31358C913.91516 107.37307 916.07721 107.80372 916.80469 107.87019C917.52405 107.93591 919.69891 107.94326 920.42188 107.97455C921.14581 108.00587 923.31506 108.16238 924.03906 108.18327C924.7619 108.20413 926.93286 108.17979 927.65625 108.18327C928.3797 108.18675 930.55017 108.20415 931.27344 108.21806C931.99701 108.23198 934.16705 108.30851 934.89062 108.32243C935.61395 108.33633 937.78442 108.34678 938.50781 108.35721C939.23132 108.36765 941.40155 108.41635 942.125 108.42679C942.84839 108.43723 945.01904 108.44418 945.74219 108.46157C946.46588 108.47897 948.63574 108.57985 949.35938 108.60072C950.08264 108.62159 952.25311 108.65986 952.97656 108.6703C953.69995 108.68073 955.87073 108.68423 956.59375 108.70509C957.31763 108.72597 959.48718 108.85466 960.21094 108.87902C960.93402 108.90337 963.10468 108.93468 963.82812 108.9486C964.55157 108.96252 966.7229 108.98344 967.44531 109.01817C968.16974 109.05301 970.33826 109.25468 971.0625 109.29647C971.78516 109.33817 973.95599 109.41823 974.67969 109.43562C975.40289 109.45301 977.57343 109.46346 978.29688 109.47041C979.02032 109.47737 981.19434 109.44982 981.91406 109.5052C982.64124 109.56114 984.80414 109.97107 985.53125 110.02701C986.25098 110.08239 988.42511 110.04789 989.14844 110.0618C989.87201 110.07571 992.0437 110.12103 992.76562 110.16616C993.4906 110.21148 995.65778 110.4722 996.38281 110.51404C997.10468 110.55569 999.27655 110.56969 1000 110.58361"/><path d="M388.69553 80.093208L393.89166 89.093208L383.49936 89.093208L388.69553 80.093208Z"/><path fill="none" stroke="black" stroke-width="2" stroke-miterlimit="10" d="M388.69553 80.093208L393.89166 89.093208L383.49936 89.093208L388.69553 80.093208Z"/></g><clipPath id="cl_8"><rect x="47.68" y="41.599998" width="953.32001" height="348.875"/></clipPath><g clip-path="url(#cl_8)"><path fill="none" stroke="#F28E2C" stroke-width="2" stroke-miterlimit="10" d="M48.68 365.26291C49.403439 365.26291 51.57375 365.26291 52.297188 365.26291C53.020622 365.26291 55.196877 365.19736 55.914371 365.26291C56.643749 365.32953 58.802181 365.85721 59.531559 365.92386C60.249058 365.98941 62.425308 365.92386 63.148746 365.92386C63.872181 365.92386 66.042511 365.92038 66.76593 365.92386C67.489388 365.92734 69.662056 365.91357 70.383118 365.95865C71.108932 366.00403 73.274628 366.32376 74.000305 366.3761C74.721497 366.42813 76.893921 366.46655 77.617493 366.48047C78.340797 366.49438 80.511375 366.50134 81.23468 366.51526C81.958244 366.52917 84.128273 366.60916 84.85186 366.6196C85.57515 366.63004 87.745628 366.61612 88.469048 366.6196C89.192505 366.62308 91.363602 366.62659 92.086235 366.65439C92.810471 366.68225 94.979164 366.87354 95.703423 366.89792C96.426041 366.92224 98.597191 366.9014 99.32061 366.89792C100.04406 366.89444 102.21476 366.84921 102.9378 366.86313C103.66164 366.87704 105.83119 367.0127 106.55499 367.03705C107.27807 367.0614 109.44868 367.09619 110.17216 367.10663C110.89555 367.11707 113.06592 367.13446 113.78935 367.14142C114.51279 367.14838 116.68308 367.17273 117.40654 367.17621C118.12996 367.17969 120.3007 367.15881 121.02373 367.17621C121.74758 367.1936 123.91708 367.32925 124.64091 367.35016C125.36395 367.371 127.53465 367.38147 128.2581 367.38495C128.98152 367.38843 131.15385 367.34677 131.87529 367.38495C132.60074 367.42331 134.76703 367.72922 135.49248 367.76761C136.2139 367.80576 138.38623 367.76413 139.10966 367.76761C139.83311 367.77109 142.00339 367.79892 142.72684 367.8024C143.45027 367.80588 145.6555 367.64346 146.34402 367.8024C147.10239 367.97742 149.20288 369.29352 149.96121 369.4722C150.64977 369.63443 152.85497 369.5 153.5784 369.50696C154.30183 369.51392 156.4722 369.53131 157.19559 369.54175C157.91908 369.55219 160.08929 369.60089 160.81277 369.61133C161.53616 369.62177 163.70653 369.63916 164.42996 369.64612C165.1534 369.65308 167.3237 369.67743 168.04715 369.68091C168.77057 369.68439 170.95186 369.59183 171.66434 369.68091C172.39874 369.77274 174.54713 370.49005 175.28152 370.58539C175.994 370.67789 178.17528 370.61322 178.89871 370.62018C179.62215 370.62714 181.79245 370.64801 182.5159 370.65497C183.23933 370.66193 185.4097 370.67932 186.13309 370.68976C186.85657 370.7002 189.02682 370.75931 189.75026 370.75931C190.47371 370.75931 192.64395 370.69672 193.36745 370.68976C194.09082 370.6828 196.26128 370.6828 196.98463 370.68976C197.70815 370.69672 199.87834 370.75583 200.60182 370.75931C201.32521 370.76279 203.49571 370.71759 204.21901 370.72455C204.94258 370.73151 207.11261 370.81845 207.8362 370.82889C208.55948 370.83932 210.73036 370.81152 211.45338 370.82889C212.17725 370.84631 214.34671 370.98544 215.07057 371.00284C215.79359 371.02023 217.96432 371.00284 218.68776 371.00284C219.41119 371.00284 221.58151 371.00284 222.30495 371.00284C223.02838 371.00284 225.2007 370.96466 225.92213 371.00284C226.64758 371.0412 228.83653 371.21991 229.53932 371.3855C230.2834 371.56082 232.41241 372.5321 233.15651 372.70743C233.85928 372.87302 236.04825 373.04822 236.77368 373.09009C237.49513 373.13171 239.66743 373.11792 240.39087 373.12488C241.11432 373.13184 243.28461 373.15619 244.00806 373.15967C244.73148 373.16315 246.90187 373.15271 247.62524 373.15967C248.34875 373.16663 250.519 373.21533 251.24243 373.22925C251.96587 373.24316 254.13626 373.2814 254.85962 373.2988C255.58315 373.31619 257.75323 373.39621 258.47681 373.40317C259.2001 373.41013 261.37054 373.37186 262.09399 373.36838C262.81741 373.3649 264.98773 373.36838 265.71118 373.36838C266.43463 373.36838 268.60492 373.36838 269.32837 373.36838C270.05179 373.36838 272.22226 373.35794 272.94556 373.36838C273.66913 373.37881 275.83957 373.44492 276.56274 373.47275C277.28644 373.50058 279.45609 373.62579 280.17993 373.6467C280.90295 373.66754 283.07391 373.66409 283.79712 373.68146C284.52081 373.69888 286.69061 373.80322 287.41431 373.82062C288.13748 373.83801 290.30801 373.85193 291.03149 373.85541C291.75491 373.85889 293.92529 373.84845 294.64868 373.85541C295.37216 373.86237 297.54276 373.90063 298.26587 373.92499C298.98965 373.94934 301.15924 374.07455 301.88306 374.09891C302.60614 374.12326 304.77679 374.15457 305.50021 374.16849C306.22366 374.1824 308.39417 374.21719 309.1174 374.23807C309.84106 374.25894 312.01093 374.35983 312.73459 374.37723C313.45779 374.39462 315.62836 374.41202 316.35178 374.41202C317.07523 374.41202 319.24554 374.37723 319.96896 374.37723C320.69241 374.37723 322.86298 374.39462 323.58615 374.41202C324.30984 374.42941 326.47964 374.53723 327.20334 374.55115C327.92651 374.56506 330.09949 374.50955 330.82053 374.55115C331.54636 374.59305 333.71191 374.92325 334.43771 374.9686C335.15878 375.01367 337.33145 374.99991 338.0549 375.00339C338.77832 375.00687 340.94867 375.00687 341.67209 375.00339C342.39554 374.99991 344.56583 374.97208 345.28928 374.9686C346.0127 374.96512 348.18301 374.9686 348.90646 374.9686C349.62991 374.9686 351.80029 374.96164 352.52365 374.9686C353.24716 374.97556 355.41733 375.03122 356.14084 375.03818C356.8642 375.04514 359.03473 375.04861 359.75803 375.03818C360.4816 375.02774 362.6517 374.93729 363.37521 374.93381C364.09857 374.93033 366.26917 375.01035 366.9924 375.00339C367.71603 374.99643 369.88586 374.87817 370.60959 374.86426C371.33276 374.85034 373.50333 374.86426 374.22678 374.86426C374.9502 374.86426 377.12054 374.86078 377.84396 374.86426C378.56741 374.86774 380.7377 374.89209 381.46115 374.89905C382.18457 374.90601 384.67184 375.41074 385.07834 374.93381C386.11871 373.7131 387.65646 367.58505 388.69553 366.41089C389.10333 365.95004 391.72021 366.41974 392.31271 366.75876C393.16711 367.24768 395.07388 370.10193 395.9299 370.5506C396.52075 370.86029 398.82364 370.5506 399.54706 370.5506C400.27051 370.5506 402.44089 370.54364 403.16425 370.5506C403.88776 370.55756 406.0582 370.5993 406.78143 370.62018C407.5051 370.64105 409.67499 370.73843 410.39862 370.75931C411.12186 370.78018 413.2934 370.79416 414.01581 370.82889C414.74026 370.86374 416.90851 371.07932 417.633 371.10721C418.35538 371.13498 420.52676 371.10721 421.25018 371.10721C421.97363 371.10721 424.1441 371.09677 424.86737 371.10721C425.59097 371.11765 427.76099 371.20111 428.48456 371.21155C429.20786 371.22198 431.37833 371.21155 432.10175 371.21155C432.8252 371.21155 434.99551 371.20807 435.71893 371.21155C436.44238 371.21503 438.63208 371.12448 439.33612 371.24634C440.07895 371.37494 442.21045 372.3389 442.95331 372.4639C443.65735 372.5824 445.84732 372.45001 446.5705 372.4639C447.29419 372.47784 449.46405 372.58218 450.18768 372.60306C450.91092 372.62393 453.08179 372.64828 453.80487 372.67264C454.52866 372.69699 456.69955 372.79794 457.42206 372.84656C458.14642 372.89532 460.31448 373.12482 461.03925 373.15967C461.76135 373.1944 463.93298 373.19098 464.65643 373.19446C465.37985 373.19794 467.55017 373.19446 468.27362 373.19446C468.99704 373.19446 471.16797 373.17358 471.89081 373.19446C472.61484 373.21533 474.78394 373.38229 475.508 373.40317C476.23083 373.42404 478.40176 373.39969 479.12518 373.40317C479.84863 373.40665 482.01892 373.431 482.74237 373.43796C483.46579 373.44492 485.63608 373.46927 486.35956 373.47275C487.08298 373.47623 489.2533 373.47275 489.97672 373.47275C490.70016 373.47275 492.87048 373.47275 493.5939 373.47275C494.31735 373.47275 496.48773 373.46579 497.21109 373.47275C497.9346 373.47971 500.10486 373.52841 500.82828 373.54233C501.55173 373.55624 503.72198 373.60495 504.44547 373.61191C505.16885 373.61887 507.33939 373.60147 508.06265 373.61191C508.78625 373.62234 510.95627 373.70233 511.67984 373.71625C512.40314 373.73016 514.57361 373.74756 515.29706 373.75104C516.02045 373.75452 518.19086 373.758 518.91425 373.75104C519.6377 373.74408 521.80792 373.68494 522.53143 373.68146C523.25482 373.67798 525.42511 373.71277 526.14862 373.71625C526.87201 373.71973 529.04236 373.71277 529.76581 373.71625C530.48926 373.71973 532.65961 373.7406 533.383 373.75104C534.10645 373.76147 536.27667 373.81366 537.00012 373.82062C537.72351 373.82758 539.89398 373.81366 540.61731 373.82062C541.34082 373.82758 543.51105 373.87976 544.2345 373.8902C544.95789 373.90063 547.12823 373.92151 547.85168 373.92499C548.57513 373.92847 550.74548 373.92151 551.46887 373.92499C552.19232 373.92847 554.36267 373.94934 555.08606 373.95978C555.80957 373.97021 557.97974 374.0224 558.70325 374.02936C559.42664 374.03632 561.59705 374.02936 562.32043 374.02936C563.04388 374.02936 565.21423 374.02588 565.93762 374.02936C566.66107 374.03284 568.83136 374.06067 569.55481 374.06415C570.27826 374.06763 572.44861 374.06067 573.172 374.06415C573.89545 374.06763 576.06573 374.09543 576.78918 374.09891C577.51263 374.10239 579.68292 374.09891 580.40637 374.09891C581.12982 374.09891 583.30023 374.09198 584.02356 374.09891C584.74707 374.10587 586.9173 374.15805 587.64075 374.16849C588.36414 374.17892 590.53448 374.19632 591.25793 374.20328C591.98138 374.21024 594.15167 374.23807 594.87512 374.23807C595.59857 374.23807 597.76886 374.20328 598.49231 374.20328C599.21576 374.20328 601.38605 374.23459 602.1095 374.23807C602.83295 374.24155 605.0033 374.23111 605.72668 374.23807C606.4502 374.24503 608.62036 374.29721 609.34387 374.30765C610.06726 374.31808 612.23761 374.33548 612.96106 374.34244C613.68451 374.3494 615.8548 374.37375 616.57825 374.37723C617.3017 374.38071 619.47205 374.37375 620.19543 374.37723C620.91888 374.38071 623.08917 374.40506 623.81262 374.41202C624.53607 374.41898 626.70642 374.43637 627.42981 374.44681C628.15332 374.45724 630.32349 374.5094 631.047 374.51636C631.77039 374.52332 633.9408 374.50943 634.66418 374.51636C635.3877 374.52332 637.55792 374.57202 638.28137 374.58594C639.00482 374.59985 641.17505 374.64856 641.89856 374.65552C642.62195 374.66248 644.7923 374.65204 645.51575 374.65552C646.2392 374.659 648.40948 374.68335 649.13293 374.69031C649.85638 374.69727 652.02667 374.71814 652.75012 374.7251C653.47357 374.73206 655.64392 374.74945 656.36731 374.75989C657.09076 374.77032 659.26111 374.81207 659.9845 374.82947C660.70801 374.84686 662.87811 374.91989 663.60168 374.93381C664.32495 374.94772 666.49542 374.96512 667.21887 374.9686C667.94226 374.97208 670.11261 374.9686 670.83606 374.9686C671.55951 374.9686 673.7298 374.9686 674.45325 374.9686C675.1767 374.9686 677.34705 374.96164 678.07043 374.9686C678.79395 374.97556 680.96411 375.03122 681.68762 375.03818C682.41095 375.04514 684.58142 375.04514 685.30481 375.03818C686.02832 375.03122 688.19861 374.96512 688.922 374.9686C689.64551 374.97208 691.81573 375.05209 692.53918 375.07297C693.26257 375.09384 695.4328 375.16342 696.15637 375.17734C696.87964 375.19125 699.05011 375.20517 699.77356 375.21213C700.49695 375.21909 702.66736 375.23648 703.39075 375.24692C704.1142 375.25735 706.28467 375.29562 707.00793 375.3165C707.73157 375.33737 709.90143 375.43475 710.62512 375.45563C711.34833 375.4765 713.51886 375.51129 714.24231 375.52521C714.9657 375.53912 717.13599 375.58783 717.8595 375.59479C718.58282 375.60175 720.75323 375.59479 721.47668 375.59479C722.20007 375.59479 724.37042 375.59479 725.09381 375.59479C725.81726 375.59479 727.98767 375.58783 728.711 375.59479C729.43451 375.60175 731.60474 375.65741 732.32819 375.66437C733.05157 375.67133 735.22198 375.66437 735.94537 375.66437C736.66882 375.66437 738.83917 375.66089 739.56256 375.66437C740.28601 375.66785 742.45636 375.6922 743.17975 375.69916C743.9032 375.70612 746.07355 375.73395 746.79694 375.73395C747.52039 375.73395 749.69098 375.71652 750.41412 375.69916C751.13782 375.68173 753.3078 375.56348 754.03131 375.56C754.75464 375.55652 756.92493 375.65393 757.6485 375.66437C758.37183 375.6748 760.54224 375.66437 761.26569 375.66437C761.98914 375.66437 764.15942 375.66437 764.88287 375.66437C765.60632 375.66437 767.77667 375.66089 768.50006 375.66437C769.22351 375.66785 771.3938 375.69568 772.11725 375.69916C772.8407 375.70264 775.01099 375.69916 775.73444 375.69916C776.45789 375.69916 778.62817 375.69916 779.35162 375.69916C780.07507 375.69916 782.24542 375.69568 782.96881 375.69916C783.69226 375.70264 785.86255 375.73047 786.586 375.73395C787.30945 375.73743 789.4798 375.73743 790.20319 375.73395C790.92664 375.73047 793.09692 375.69916 793.82037 375.69916C794.54382 375.69916 796.71411 375.73047 797.43756 375.73395C798.16101 375.73743 800.3313 375.73395 801.05475 375.73395C801.7782 375.73395 803.94849 375.73395 804.67194 375.73395C805.39539 375.73395 807.56567 375.73395 808.28912 375.73395C809.01257 375.73395 811.18292 375.72699 811.90631 375.73395C812.62982 375.74091 814.80023 375.81046 815.5235 375.8035C816.24713 375.79654 818.4176 375.65741 819.14069 375.66437C819.86444 375.67133 822.03381 375.8522 822.75787 375.87308C823.48071 375.89395 825.65161 375.87308 826.37506 375.87308C827.09851 375.87308 829.2691 375.85916 829.99225 375.87308C830.71594 375.88699 832.88586 375.98788 833.60944 376.01224C834.33276 376.03659 836.50305 376.10269 837.22662 376.11661C837.94989 376.13052 840.12115 376.1236 840.84381 376.1514C841.56805 376.17926 843.73712 376.38794 844.461 376.3949C845.18402 376.40186 847.35431 376.23489 848.07819 376.22095C848.80121 376.20706 850.97198 376.2453 851.69537 376.25574C852.41882 376.26617 854.58905 376.31488 855.31256 376.32532C856.03595 376.33575 858.2063 376.35315 858.92975 376.36011C859.6532 376.36707 861.82361 376.38098 862.54694 376.3949C863.27051 376.40881 865.44049 376.48883 866.16412 376.49927C866.88739 376.5097 869.05786 376.49579 869.78131 376.49927C870.50476 376.50275 872.67505 376.5271 873.3985 376.53406C874.12189 376.54102 876.29224 376.56537 877.01569 376.56885C877.73907 376.57233 879.91595 376.49988 880.63287 376.56885C881.36285 376.63904 883.52063 377.1734 884.25006 377.26459C884.96753 377.35428 887.14319 377.45242 887.86725 377.4733C888.59009 377.49417 890.76099 377.46982 891.48444 377.4733C892.20789 377.47678 894.37811 377.50461 895.10162 377.50809C895.82501 377.51157 897.99536 377.50809 898.71881 377.50809C899.4422 377.50809 901.61255 377.50809 902.336 377.50809C903.05939 377.50809 905.22974 377.50461 905.95319 377.50809C906.67664 377.51157 908.84692 377.53592 909.57031 377.54288C910.29376 377.54984 912.46411 377.56723 913.1875 377.57767C913.91101 377.5881 916.0816 377.62289 916.80469 377.64725C917.5285 377.6716 919.69806 377.80029 920.42188 377.8212C921.14496 377.84204 923.31561 377.85248 924.03906 377.85596C924.76251 377.85944 926.93286 377.85596 927.65625 377.85596C928.3797 377.85596 930.55005 377.85596 931.27344 377.85596C931.99689 377.85596 934.16724 377.85248 934.89062 377.85596C935.61407 377.85944 937.78571 377.85605 938.50781 377.89075C939.2326 377.9256 941.40027 378.16553 942.125 378.20386C942.84717 378.24203 945.01886 378.25604 945.74219 378.27341C946.4657 378.29083 948.6358 378.36734 949.35938 378.37778C950.0827 378.38821 952.25311 378.37778 952.97656 378.37778C953.70001 378.37778 955.87036 378.3743 956.59375 378.37778C957.3172 378.38126 959.48749 378.41257 960.21094 378.41257C960.93439 378.41257 963.10468 378.37778 963.82812 378.37778C964.55157 378.37778 966.72186 378.40909 967.44531 378.41257C968.16876 378.41605 970.33911 378.40561 971.0625 378.41257C971.78601 378.41953 973.95618 378.47519 974.67969 378.48215C975.40308 378.48911 977.57343 378.48215 978.29688 378.48215C979.02032 378.48215 981.19067 378.47867 981.91406 378.48215C982.63751 378.48563 984.8078 378.51346 985.53125 378.51694C986.2547 378.52042 988.42499 378.51694 989.14844 378.51694C989.87189 378.51694 992.04224 378.51346 992.76562 378.51694C993.48907 378.52042 995.65936 378.54825 996.38281 378.55173C997.10626 378.55521 999.27655 378.55173 1000 378.55173"/><path d="M388.69553 360.41089L393.89166 369.41089L383.49936 369.41089L388.69553 360.41089Z"/><path fill="none" stroke="black" stroke-width="2" stroke-miterlimit="10" d="M388.69553 360.41089L393.89166 369.41089L383.49936 369.41089L388.69553 360.41089Z"/></g><clipPath id="cl_9"><rect x="47.68" y="41.599998" width="953.32001" height="348.875"/></clipPath><g clip-path="url(#cl_9)"><path fill="none" stroke="#59A14F" stroke-width="2" stroke-miterlimit="10" d="M48.68 387.56168C49.403439 387.56168 51.57375 387.56168 52.297188 387.56168C53.020622 387.56168 55.207298 387.67047 55.914371 387.56168C56.654175 387.44785 58.791908 386.57297 59.531559 386.44849C60.238785 386.32947 62.425159 386.35455 63.148746 386.34412C63.872032 386.33368 66.042564 386.35107 66.76593 386.34412C67.489433 386.33716 69.661629 386.31964 70.383118 386.27454C71.108498 386.22919 73.275124 385.94418 74.000305 385.89188C74.722 385.83984 76.893936 385.7771 77.617493 385.75275C78.340813 385.72839 80.511238 385.66925 81.23468 385.64838C81.958115 385.6275 84.133614 385.61655 84.85186 385.54401C85.58049 385.47043 87.740341 384.98792 88.469048 384.91785C89.18721 384.84875 91.364082 384.88644 92.086235 384.84827C92.810959 384.80994 94.979706 384.59433 95.703423 384.53519C96.426575 384.47604 98.596169 384.29172 99.32061 384.25687C100.04305 384.22214 102.22023 384.25977 102.9378 384.18729C103.66711 384.11365 105.8262 383.61395 106.55499 383.52634C107.27308 383.44 109.44839 383.35242 110.17216 383.3176C110.89527 383.28284 113.0658 383.20282 113.78935 383.17847C114.51267 383.15411 116.68295 383.08453 117.40654 383.0741C118.12983 383.06366 120.3007 383.09149 121.02373 383.0741C121.74758 383.0567 123.91766 382.93842 124.64091 382.90015C125.36453 382.86188 127.53413 382.7193 128.2581 382.69144C128.981 382.66364 131.15417 382.67041 131.87529 382.62186C132.60104 382.573 134.76665 382.24631 135.49248 382.20441C136.21352 382.16281 138.38637 382.21484 139.10966 382.20441C139.83325 382.19397 142.00328 382.10699 142.72684 382.10004C143.45015 382.09308 145.65681 382.29346 146.34402 382.13483C147.1037 381.9595 149.20155 380.61288 149.96121 380.43024C150.64844 380.26501 152.8582 380.44742 153.5784 380.39545C154.30507 380.34305 156.46906 379.96783 157.19559 379.90845C157.91592 379.84955 160.09935 379.90012 160.81277 379.80408C161.54622 379.70532 163.69643 379.02963 164.42996 378.93439C165.14331 378.84177 167.32365 378.87524 168.04715 378.86481C168.77054 378.85437 170.96028 378.9519 171.66434 378.83002C172.40717 378.70142 174.53894 377.75171 175.28152 377.61246C175.98582 377.48038 178.17502 377.49072 178.89871 377.4733C179.62189 377.45593 181.79251 377.44894 182.5159 377.43851C183.23938 377.42807 185.40959 377.37939 186.13309 377.36896C186.85646 377.35852 189.02682 377.34113 189.75026 377.33417C190.47371 377.32721 192.644 377.30286 193.36745 377.29938C194.09087 377.2959 196.26147 377.31329 196.98463 377.29938C197.70834 377.28546 199.87814 377.17761 200.60182 377.16022C201.32501 377.14282 203.49637 377.15323 204.21901 377.12543C204.94325 377.09756 207.12733 377.01144 207.8362 376.88193C208.57422 376.74707 210.71515 375.93484 211.45338 375.8035C212.16202 375.67743 214.34653 375.61566 215.07057 375.59479C215.79341 375.57394 217.96432 375.59479 218.68776 375.59479C219.41119 375.59479 221.58177 375.6087 222.30495 375.59479C223.02864 375.58087 225.2032 375.52823 225.92213 375.45563C226.65007 375.38214 228.83965 375.0661 229.53932 374.86426C230.28653 374.64865 232.42947 373.65857 233.15651 373.36838C233.87634 373.08109 236.02589 372.1423 236.77368 371.9769C237.47278 371.82224 239.66684 371.78906 240.39087 371.76816C241.11371 371.74731 243.28464 371.77164 244.00806 371.76816C244.73152 371.76468 246.90195 371.74728 247.62524 371.73337C248.34882 371.71945 250.51912 371.65335 251.24243 371.629C251.96599 371.60464 254.14125 371.56586 254.85962 371.48987C255.58813 371.41278 257.74805 370.93027 258.47681 370.86368C259.19492 370.79807 261.37061 370.83932 262.09399 370.82889C262.81747 370.81845 264.98767 370.76627 265.71118 370.75931C266.43454 370.75235 268.60492 370.75931 269.32837 370.75931C270.05179 370.75931 272.22272 370.78018 272.94556 370.75931C273.66959 370.73843 275.83884 370.58194 276.56274 370.5506C277.28574 370.51932 279.45639 370.46362 280.17993 370.44623C280.90329 370.42883 283.07468 370.41141 283.79712 370.37665C284.52155 370.34183 286.68985 370.13321 287.41431 370.09836C288.13672 370.06363 290.30798 370.03922 291.03149 370.02878C291.75488 370.01834 293.94159 370.1062 294.64868 369.99399C295.38846 369.87662 297.52689 369.01938 298.26587 368.8808C298.97375 368.74805 301.15906 368.67557 301.88306 368.6373C302.60593 368.59906 304.77667 368.52249 305.50021 368.49814C306.22354 368.47379 308.3949 368.43198 309.1174 368.39377C309.84177 368.35547 312.0101 368.14682 312.73459 368.11548C313.457 368.0842 315.62836 368.08765 316.35178 368.08069C317.07523 368.07373 319.24551 368.04938 319.96896 368.0459C320.69238 368.04242 322.86298 368.05981 323.58615 368.0459C324.30988 368.03198 326.48007 367.93805 327.20334 367.90674C327.92694 367.87543 330.09869 367.78836 330.82053 367.73282C331.54556 367.67703 333.71228 367.392 334.43771 367.35016C335.15915 367.3085 337.33145 367.31885 338.0549 367.31537C338.77832 367.31189 340.94879 367.32581 341.67209 367.31537C342.39569 367.30493 344.5657 367.22144 345.28928 367.211C346.01257 367.20056 348.18304 367.21448 348.90646 367.211C349.62991 367.20752 351.80063 367.19708 352.52365 367.17621C353.2475 367.15533 355.41705 367.02664 356.14084 367.00226C356.86392 366.97794 359.03479 366.95355 359.75803 366.93271C360.48166 366.9118 362.65176 366.82138 363.37521 366.79355C364.09863 366.76572 366.26871 366.67178 366.9924 366.65439C367.71558 366.63702 369.88614 366.62656 370.60959 366.6196C371.33301 366.61264 373.50348 366.59872 374.22678 366.58481C374.95035 366.57089 377.12039 366.49438 377.84396 366.48047C378.56726 366.46655 380.73849 366.47348 381.46115 366.44568C382.18539 366.41782 384.39581 366.05118 385.07834 366.20215C385.84268 366.37125 387.93234 367.89175 388.69553 368.0459C389.37924 368.18399 391.72827 368.01453 392.31271 367.66324C393.17514 367.14484 395.06552 364.17545 395.9299 363.69745C396.51239 363.37534 398.82364 363.66962 399.54706 363.66266C400.27051 363.6557 402.44559 363.69009 403.16425 363.6279C403.89246 363.56485 406.0546 363.12738 406.78143 363.0365C407.50146 362.94647 409.6741 362.76871 410.39862 362.72342C411.12097 362.67825 413.30392 362.69037 414.01581 362.58426C414.75079 362.4747 416.89783 361.74753 417.633 361.64499C418.3447 361.54575 420.5267 361.58585 421.25018 361.57541C421.97357 361.56497 424.1463 361.58572 424.86737 361.54065C425.5932 361.49527 427.75955 361.18942 428.48456 361.1232C429.20642 361.05722 431.38171 360.95932 432.10175 360.87967C432.82861 360.79929 434.99127 360.38257 435.71893 360.32306C436.43817 360.26428 438.63315 360.41336 439.33612 360.2883C440.08002 360.15594 442.20956 359.17542 442.95331 359.03595C443.65643 358.90408 445.8475 358.96286 446.5705 358.93158C447.29437 358.90024 449.46381 358.75418 450.18768 358.72284C450.91068 358.69156 453.08234 358.65671 453.80487 358.6185C454.52924 358.58017 456.69922 358.40274 457.42206 358.34018C458.14609 358.27753 460.31415 358.03067 461.03925 357.99231C461.76102 357.95413 463.93298 357.961 464.65643 357.95752C465.37985 357.95404 467.5502 357.961 468.27362 357.95752C468.99707 357.95404 471.16794 357.94705 471.89081 357.92273C472.61481 357.89838 474.78409 357.74533 475.508 357.71402C476.23096 357.68271 478.40173 357.63052 479.12518 357.60965C479.8486 357.58878 482.0188 357.5192 482.74237 357.50528C483.46567 357.49136 485.63617 357.48093 486.35956 357.47049C487.08304 357.46005 489.25745 357.46317 489.97672 357.40091C490.70435 357.33795 492.86685 356.92123 493.5939 356.84433C494.31372 356.76819 496.48712 356.66345 497.21109 356.63559C497.93402 356.60779 500.10504 356.58688 500.82828 356.56601C501.55194 356.54514 503.72311 356.47202 504.44547 356.42688C505.16998 356.38159 507.33954 356.17984 508.06265 356.11377C508.78641 356.04767 510.95502 355.8147 511.67984 355.7659C512.40192 355.71732 514.57349 355.65112 515.29706 355.62677C516.02032 355.60242 518.19067 355.53632 518.91425 355.5224C519.63751 355.50848 521.80798 355.49109 522.53143 355.48761C523.25482 355.48413 525.45013 355.62195 526.14862 355.48761C526.89697 355.34366 529.01819 354.26508 529.76581 354.0961C530.46509 353.93805 532.6604 353.91165 533.383 353.8526C534.10724 353.7934 536.27533 353.55353 537.00012 353.50473C537.72217 353.45612 539.8938 353.38992 540.61731 353.36557C541.34064 353.34122 543.51135 353.28903 544.2345 353.2612C544.95825 353.23337 547.12793 353.11163 547.85168 353.08728C548.57477 353.06293 550.74542 353.02814 551.46887 353.0177C552.19226 353.00726 554.36462 353.02454 555.08606 352.98291C555.81152 352.94104 557.97797 352.64908 558.70325 352.60025C559.42487 352.55167 561.59692 352.51328 562.32043 352.49588C563.04382 352.47849 565.21423 352.44022 565.93762 352.4263C566.66107 352.41238 568.83142 352.37064 569.55481 352.35672C570.27826 352.34283 572.44855 352.29761 573.172 352.28717C573.89539 352.27673 576.06616 352.27322 576.78918 352.25238C577.51306 352.23148 579.68311 352.1167 580.40637 352.07843C581.13 352.04016 583.38159 352.13211 584.02356 351.86972C584.82849 351.54071 586.83551 349.44287 587.64075 349.12149C588.28241 348.86542 590.53436 349.00671 591.25793 348.98236C591.98126 348.95801 594.15216 348.90927 594.87512 348.87799C595.599 348.84665 597.76837 348.69711 598.49231 348.66925C599.21521 348.64145 601.38605 348.61359 602.1095 348.59967C602.83295 348.58575 605.00348 348.55096 605.72668 348.53012C606.45032 348.50922 608.62256 348.44644 609.34387 348.39096C610.06946 348.33514 612.23529 348.02237 612.96106 347.97351C613.68219 347.92496 615.85504 347.9248 616.57825 347.90393C617.30188 347.88306 619.4718 347.78568 620.19543 347.76477C620.9187 347.74393 623.08929 347.71262 623.81262 347.69522C624.53613 347.67783 626.70728 347.62906 627.42981 347.59085C628.15417 347.55252 630.32263 347.35086 631.047 347.31256C631.76953 347.27432 633.94073 347.22906 634.66418 347.20819C635.38763 347.18732 637.55841 347.1351 638.28137 347.10382C639.00525 347.07248 641.17468 346.92642 641.89856 346.89511C642.62152 346.8638 644.7923 346.81161 645.51575 346.79074C646.2392 346.76987 648.40961 346.71072 649.13293 346.68637C649.85651 346.66202 652.02649 346.56812 652.75012 346.54721C653.47333 346.52637 655.64392 346.49503 656.36731 346.47766C657.09082 346.46027 659.26117 346.39764 659.9845 346.37329C660.70807 346.34894 662.87811 346.25848 663.60168 346.23413C664.32501 346.20978 666.49805 346.18524 667.21887 346.12976C667.94495 346.07391 670.1098 345.72641 670.83606 345.67752C671.5567 345.62903 673.7298 345.64972 674.45325 345.64276C675.1767 345.6358 677.34741 345.62881 678.07043 345.60797C678.79425 345.58707 680.96393 345.46185 681.68762 345.43402C682.41077 345.40619 684.58118 345.34009 685.30481 345.32965C686.02808 345.31921 688.2002 345.36438 688.922 345.32965C689.64709 345.2948 691.81464 345.03754 692.53918 344.98178C693.26154 344.92621 695.43231 344.79742 696.15637 344.77307C696.87921 344.74872 699.05011 344.74524 699.77356 344.73828C700.49695 344.73132 702.66754 344.72089 703.39075 344.70349C704.11444 344.6861 706.28528 344.60605 707.00793 344.56433C707.73212 344.52255 709.90076 344.32434 710.62512 344.28604C711.3476 344.2478 713.5191 344.2095 714.24231 344.18167C714.966 344.15384 717.13586 344.03906 717.8595 344.00772C718.58276 343.97644 720.75293 343.88251 721.47668 343.86859C722.19983 343.85468 724.37177 343.89984 725.09381 343.86859C725.8186 343.83722 727.98663 343.60425 728.711 343.55551C729.43353 343.50687 731.6048 343.41635 732.32819 343.38156C733.05164 343.34677 735.22235 343.24936 735.94537 343.20761C736.66925 343.16586 738.8385 342.99893 739.56256 342.96411C740.28534 342.92935 742.45648 342.88409 743.17975 342.85974C743.90332 342.83539 746.07324 342.73801 746.79694 342.72061C747.52014 342.70322 749.69073 342.69278 750.41412 342.68582C751.13757 342.67886 753.30817 342.6684 754.03131 342.65103C754.755 342.63364 756.92682 342.56393 757.6485 342.51187C758.37372 342.45956 760.54065 342.185 761.26569 342.12921C761.98755 342.07367 764.15985 341.99701 764.88287 341.95526C765.60675 341.91351 767.77606 341.75006 768.50006 341.71176C769.22296 341.67352 771.39355 341.58652 772.11725 341.5726C772.84045 341.55869 775.01111 341.57956 775.73444 341.5726C776.45795 341.56564 778.62817 341.51694 779.35162 341.50302C780.07507 341.48911 782.24548 341.45084 782.96881 341.43347C783.69232 341.41608 785.86304 341.36038 786.586 341.3291C787.30988 341.29776 789.47919 341.14474 790.20319 341.12036C790.92603 341.09604 793.09698 341.09601 793.82037 341.08557C794.54388 341.07513 796.71405 341.02646 797.43756 341.01602C798.16095 341.00558 800.33136 340.99167 801.05475 340.98123C801.77826 340.97079 803.94849 340.92557 804.67194 340.91165C805.39539 340.89774 807.5658 340.85947 808.28912 340.84207C809.01263 340.82468 811.18286 340.75858 811.90631 340.7377C812.62976 340.71683 814.80005 340.65421 815.5235 340.63336C816.24695 340.61249 818.41791 340.56375 819.14069 340.52899C819.86481 340.49417 822.03406 340.32724 822.75787 340.28546C823.4809 340.24374 825.65118 340.12894 826.37506 340.11154C827.09808 340.09415 829.27014 340.14279 829.99225 340.11154C830.71704 340.08017 832.89124 339.89859 833.60944 339.79846C834.33807 339.69684 836.49689 339.18692 837.22662 339.10269C837.94373 339.01993 840.12213 339.01559 840.84381 338.96356C841.56897 338.91125 843.7356 338.61227 844.461 338.58087C845.1825 338.54965 847.35474 338.65045 848.07819 338.65045C848.80164 338.65045 850.97192 338.59479 851.69537 338.58087C852.41882 338.56696 854.58917 338.52869 855.31256 338.51132C856.03607 338.49393 858.2063 338.42783 858.92975 338.40695C859.6532 338.38608 861.82361 338.32693 862.54694 338.30258C863.27045 338.27823 865.44055 338.18777 866.16412 338.16342C866.88745 338.1391 869.05786 338.07996 869.78131 338.05908C870.5047 338.03821 872.67499 337.97211 873.3985 337.95471C874.12183 337.93732 876.29224 337.89905 877.01569 337.88513C877.73907 337.87122 879.92773 337.93762 880.63287 337.81555C881.37457 337.68716 883.50903 336.77887 884.25006 336.63278C884.95593 336.49362 887.14294 336.41367 887.86725 336.38928C888.58984 336.36496 890.76337 336.43088 891.48444 336.38928C892.21027 336.34738 894.37604 336.02765 895.10162 335.97183C895.82294 335.91632 897.99506 335.84659 898.71881 335.83267C899.44196 335.81876 901.61255 335.83267 902.336 335.83267C903.05939 335.83267 905.22986 335.84311 905.95319 335.83267C906.67676 335.82224 908.8468 335.7457 909.57031 335.7283C910.2937 335.71091 912.46936 335.72781 913.1875 335.65872C913.91626 335.58865 916.07703 335.12354 916.80469 335.03256C917.52386 334.94266 919.69824 334.80646 920.42188 334.75427C921.14508 334.70209 923.31482 334.5386 924.03906 334.51074C924.76172 334.48294 926.9328 334.47943 927.65625 334.47595C928.3797 334.47247 930.55029 334.48987 931.27344 334.47595C931.99719 334.46204 934.16693 334.35422 934.89062 334.33682C935.61383 334.31943 937.78638 334.34366 938.50781 334.30203C939.23328 334.26016 941.39972 333.9682 942.125 333.91937C942.84662 333.87079 945.01923 333.84628 945.74219 333.815C946.46606 333.78366 948.6355 333.6376 949.35938 333.60626C950.0824 333.57498 952.25299 333.51584 952.97656 333.50192C953.69989 333.48801 955.87091 333.49146 956.59375 333.46713C957.31781 333.44275 959.487 333.28625 960.21094 333.25839C960.93384 333.23059 963.10468 333.20273 963.82812 333.18881C964.55157 333.1749 966.7229 333.15399 967.44531 333.11923C968.16974 333.08441 970.33862 332.88968 971.0625 332.84094C971.78546 332.79227 973.95569 332.65659 974.67969 332.63223C975.40253 332.60788 977.57343 332.6044 978.29688 332.59744C979.02032 332.59048 981.19434 332.61801 981.91406 332.56265C982.64124 332.50671 984.80414 332.09677 985.53125 332.04083C986.25098 331.98547 988.42523 332.02344 989.14844 332.00604C989.87213 331.98865 992.04395 331.91895 992.76562 331.86688C993.49078 331.81458 995.65741 331.52957 996.38281 331.48422C997.10431 331.43912 999.27655 331.42859 1000 331.41467"/><path d="M388.69553 362.0459L393.89166 371.0459L383.49936 371.0459L388.69553 362.0459Z"/><path fill="none" stroke="black" stroke-width="2" stroke-miterlimit="10" d="M388.69553 362.0459L393.89166 371.0459L383.49936 371.0459L388.69553 362.0459Z"/></g><path fill-opacity="0.34901962" d="M389.19553 41.599998L389.19553 45.599998L388.19553 45.599998L388.19553 41.599998M389.19553 49.599998L389.19553 53.599998L388.19553 53.599998L388.19553 49.599998M389.19553 57.599998L389.19553 61.599998L388.19553 61.599998L388.19553 57.599998M389.19553 65.599998L389.19553 69.599998L388.19553 69.599998L388.19553 65.599998M389.19553 73.599998L389.19553 77.599998L388.19553 77.599998L388.19553 73.599998M389.19553 81.599998L389.19553 85.599998L388.19553 85.599998L388.19553 81.599998M389.19553 89.599998L389.19553 93.599998L388.19553 93.599998L388.19553 89.599998M389.19553 97.599998L389.19553 101.6L388.19553 101.6L388.19553 97.599998M389.19553 105.6L389.19553 109.6L388.19553 109.6L388.19553 105.6M389.19553 113.6L389.19553 117.6L388.19553 117.6L388.19553 113.6M389.19553 121.6L389.19553 125.6L388.19553 125.6L388.19553 121.6M389.19553 129.60001L389.19553 133.60001L388.19553 133.60001L388.19553 129.60001M389.19553 137.60001L389.19553 141.60001L388.19553 141.60001L388.19553 137.60001M389.19553 145.60001L389.19553 149.60001L388.19553 149.60001L388.19553 145.60001M389.19553 153.60001L389.19553 157.60001L388.19553 157.60001L388.19553 153.60001M389.19553 161.60001L389.19553 165.60001L388.19553 165.60001L388.19553 161.60001M389.19553 169.60001L389.19553 173.60001L388.19553 173.60001L388.19553 169.60001M389.19553 177.60001L389.19553 181.60001L388.19553 181.60001L388.19553 177.60001M389.19553 185.60001L389.19553 189.60001L388.19553 189.60001L388.19553 185.60001M389.19553 193.60001L389.19553 197.60001L388.19553 197.60001L388.19553 193.60001M389.19553 201.60001L389.19553 205.60001L388.19553 205.60001L388.19553 201.60001M389.19553 209.60001L389.19553 213.60001L388.19553 213.60001L388.19553 209.60001M389.19553 217.60001L389.19553 221.60001L388.19553 221.60001L388.19553 217.60001M389.19553 225.60001L389.19553 229.60001L388.19553 229.60001L388.19553 225.60001M389.19553 233.60001L389.19553 237.60001L388.19553 237.60001L388.19553 233.60001M389.19553 241.60001L389.19553 245.60001L388.19553 245.60001L388.19553 241.60001M389.19553 249.60001L389.19553 253.60001L388.19553 253.60001L388.19553 249.60001M389.19553 257.60001L389.19553 261.60001L388.19553 261.60001L388.19553 257.60001M389.19553 265.60001L389.19553 269.60001L388.19553 269.60001L388.19553 265.60001M389.19553 273.60001L389.19553 277.60001L388.19553 277.60001L388.19553 273.60001M389.19553 281.60001L389.19553 285.60001L388.19553 285.60001L388.19553 281.60001M389.19553 289.60001L389.19553 293.60001L388.19553 293.60001L388.19553 289.60001M389.19553 297.60001L389.19553 301.60001L388.19553 301.60001L388.19553 297.60001M389.19553 305.60001L389.19553 309.60001L388.19553 309.60001L388.19553 305.60001M389.19553 313.60001L389.19553 317.60001L388.19553 317.60001L388.19553 313.60001M389.19553 321.60001L389.19553 325.60001L388.19553 325.60001L388.19553 321.60001M389.19553 329.60001L389.19553 333.60001L388.19553 333.60001L388.19553 329.60001M389.19553 337.60001L389.19553 341.60001L388.19553 341.60001L388.19553 337.60001M389.19553 345.60001L389.19553 349.60001L388.19553 349.60001L388.19553 345.60001M389.19553 353.60001L389.19553 357.60001L388.19553 357.60001L388.19553 353.60001M389.19553 361.60001L389.19553 365.60001L388.19553 365.60001L388.19553 361.60001M389.19553 369.60001L389.19553 373.60001L388.19553 373.60001L388.19553 369.60001M389.19553 377.60001L389.19553 381.60001L388.19553 381.60001L388.19553 377.60001M389.19553 385.60001L389.19553 389.47501L388.19553 389.47501L388.19553 385.60001"/></svg>