<svg xmlns="http://www.w3.org/2000/svg" width="800" height="800"><path fill="none" d="M0 0h800v800H0z"/><clipPath id="a"><path d="M0 690h800v110H0z"/></clipPath><g clip-path="url(#a)"><path fill="#4caf50" d="M123.3 720h40v20h-40z"/><path fill="none" stroke="#fff" stroke-miterlimit="10" stroke-width="2" d="M123.3 720h40v20h-40z"/><path fill="#ff9800" d="M377.64 720h40v20h-40z"/><path fill="none" stroke="#fff" stroke-miterlimit="10" stroke-width="2" d="M377.64 720h40v20h-40z"/><path fill="#f44336" d="M262.92 770h40v20h-40z"/><path fill="none" stroke="#fff" stroke-miterlimit="10" stroke-width="2" d="M262.92 770h40v20h-40z"/></g><path fill="#4caf50" d="M400 1q4.21 0 8.418.103t8.413.309q4.204.206 8.402.515 4.198.308 8.388.72 4.19.411 8.367.925t8.343 1.13 8.312 1.333 8.277 1.537 8.237 1.738 8.192 1.94 8.142 2.14 8.087 2.338 8.028 2.535 7.963 2.731 7.894 2.925q3.929 1.51 7.82 3.117 3.89 1.607 7.741 3.308t7.658 3.496q3.808 1.795 7.57 3.683t7.478 3.867 7.382 4.048 7.28 4.228q3.613 2.159 7.173 4.405t7.065 4.579 6.95 4.75 6.831 4.92q3.386 2.501 6.71 5.084 3.323 2.584 6.582 5.248t6.453 5.407 6.318 5.563 6.18 5.717 6.039 5.865L400 345z"/><path fill="none" stroke="#fff" stroke-linejoin="bevel" stroke-width="2" d="M400 1q4.21 0 8.418.103t8.413.309q4.204.206 8.402.515 4.198.308 8.388.72 4.19.411 8.367.925t8.343 1.13 8.312 1.333 8.277 1.537 8.237 1.738 8.192 1.94 8.142 2.14 8.087 2.338 8.028 2.535 7.963 2.731 7.894 2.925q3.929 1.51 7.82 3.117 3.89 1.607 7.741 3.308t7.658 3.496q3.808 1.795 7.57 3.683t7.478 3.867 7.382 4.048 7.28 4.228q3.613 2.159 7.173 4.405t7.065 4.579 6.95 4.75 6.831 4.92q3.386 2.501 6.71 5.084 3.323 2.584 6.582 5.248t6.453 5.407 6.318 5.563 6.18 5.717 6.039 5.865L400 345z"/><path fill="#ff9800" d="M642.693 101.204q16.01 15.938 29.799 33.833t25.118 37.44L400 345z"/><path fill="none" stroke="#fff" stroke-linejoin="bevel" stroke-width="2" d="M642.693 101.204q16.01 15.938 29.799 33.833t25.118 37.44L400 345l242.693-243.795Z"/><path fill="#f44336" d="M697.61 172.477q4.235 7.306 8.107 14.81t7.37 15.191 6.616 15.534 5.846 15.84 5.062 16.108 4.265 16.337 3.458 16.527 2.644 16.676 1.821 16.785.996 16.855q.292 8.44.168 16.884t-.66 16.871q-.538 8.428-1.489 16.819-.95 8.391-2.31 16.725-1.362 8.335-3.13 16.592-1.768 8.258-3.94 16.419-2.17 8.16-4.74 16.205t-5.53 15.953q-2.96 7.909-6.306 15.663-3.345 7.753-7.067 15.334t-7.81 14.969q-4.09 7.389-8.537 14.568-4.446 7.179-9.24 14.131t-9.923 13.661-10.581 13.158-11.214 12.622-11.82 12.057-12.397 11.463q-6.34 5.579-12.945 10.84t-13.46 10.193-13.946 9.52-14.395 8.823q-4.874 2.826-9.838 5.49t-10.013 5.165-10.176 4.834-10.33 4.498-10.47 4.158-10.602 3.812-10.721 3.464-10.829 3.11-10.924 2.754-11.009 2.395-11.081 2.033-11.142 1.67-11.19 1.303-11.228.936-11.252.568-11.265.2-11.265-.17q-5.63-.177-11.253-.538t-11.23-.907-11.194-1.274-11.146-1.64q-5.56-.91-11.087-2.004-5.527-1.092-11.015-2.366-5.488-1.273-10.932-2.725-5.443-1.452-10.837-3.082-5.393-1.63-10.73-3.435-5.336-1.805-10.611-3.784-5.275-1.98-10.482-4.13t-10.341-4.472q-5.134-2.32-10.19-4.807t-10.026-5.138q-4.97-2.652-9.852-5.464-7.317-4.216-14.419-8.786-7.101-4.57-13.97-9.483-6.868-4.913-13.488-10.157t-12.973-10.806-12.427-11.43-11.852-12.026-11.247-12.593-10.616-13.13-9.958-13.634-9.278-14.107-8.574-14.545-7.85-14.949-7.108-15.315-6.347-15.646q-2.982-7.901-5.572-15.939T67.8 434.326t-3.983-16.408-3.173-16.584-2.355-16.72-1.533-16.814-.705-16.87.123-16.883q.27-8.44.952-16.858.683-8.417 1.778-16.79 1.095-8.374 2.599-16.683 1.504-8.31 3.415-16.536 1.91-8.226 4.222-16.348t5.019-16.121 5.804-15.855 6.575-15.552 7.33-15.21 8.068-14.832q2.813-4.882 5.784-9.669t6.097-9.474 6.404-9.269 6.705-9.054 6.997-8.83 7.282-8.596 7.56-8.353 7.83-8.101 8.09-7.84q4.11-3.855 8.344-7.572t8.586-7.294q4.353-3.576 8.821-7.009 4.468-3.432 9.046-6.716t9.26-6.416 9.466-6.11 9.661-5.796q4.878-2.82 9.846-5.477 4.967-2.658 10.02-5.152 5.051-2.493 10.182-4.82 5.13-2.327 10.335-4.485t10.477-4.144 10.606-3.799 10.726-3.449 10.832-3.096 10.928-2.74q5.487-1.28 11.012-2.38t11.084-2.019 11.145-1.654 11.192-1.289 11.228-.921 11.253-.554T400 1v344z"/><path fill="none" stroke="#fff" stroke-linejoin="bevel" stroke-width="2" d="M697.61 172.477q4.235 7.306 8.107 14.81t7.37 15.191 6.616 15.534 5.846 15.84 5.062 16.108 4.265 16.337 3.458 16.527 2.644 16.676 1.821 16.785.996 16.855q.292 8.44.168 16.884t-.66 16.871q-.538 8.428-1.489 16.819-.95 8.391-2.31 16.725-1.362 8.335-3.13 16.592-1.768 8.258-3.94 16.419-2.17 8.16-4.74 16.205t-5.53 15.953q-2.96 7.909-6.306 15.663-3.345 7.753-7.067 15.334t-7.81 14.969q-4.09 7.389-8.537 14.568-4.446 7.179-9.24 14.131t-9.923 13.661-10.581 13.158-11.214 12.622-11.82 12.057-12.397 11.463q-6.34 5.579-12.945 10.84t-13.46 10.193-13.946 9.52-14.395 8.823q-4.874 2.826-9.838 5.49t-10.013 5.165-10.176 4.834-10.33 4.498-10.47 4.158-10.602 3.812-10.721 3.464-10.829 3.11-10.924 2.754-11.009 2.395-11.081 2.033-11.142 1.67-11.19 1.303-11.228.936-11.252.568-11.265.2-11.265-.17q-5.63-.177-11.253-.538t-11.23-.907-11.194-1.274-11.146-1.64q-5.56-.91-11.087-2.004-5.527-1.092-11.015-2.366-5.488-1.273-10.932-2.725-5.443-1.452-10.837-3.082-5.393-1.63-10.73-3.435-5.336-1.805-10.611-3.784-5.275-1.98-10.482-4.13t-10.341-4.472q-5.134-2.32-10.19-4.807t-10.026-5.138q-4.97-2.652-9.852-5.464-7.317-4.216-14.419-8.786-7.101-4.57-13.97-9.483-6.868-4.913-13.488-10.157t-12.973-10.806-12.427-11.43-11.852-12.026-11.247-12.593-10.616-13.13-9.958-13.634-9.278-14.107-8.574-14.545-7.85-14.949-7.108-15.315-6.347-15.646q-2.982-7.901-5.572-15.939T67.8 434.326t-3.983-16.408-3.173-16.584-2.355-16.72-1.533-16.814-.705-16.87.123-16.883q.27-8.44.952-16.858.683-8.417 1.778-16.79 1.095-8.374 2.599-16.683 1.504-8.31 3.415-16.536 1.91-8.226 4.222-16.348t5.019-16.121 5.804-15.855 6.575-15.552 7.33-15.21 8.068-14.832q2.813-4.882 5.784-9.669t6.097-9.474 6.404-9.269 6.705-9.054 6.997-8.83 7.282-8.596 7.56-8.353 7.83-8.101 8.09-7.84q4.11-3.855 8.344-7.572t8.586-7.294q4.353-3.576 8.821-7.009 4.468-3.432 9.046-6.716t9.26-6.416 9.466-6.11 9.661-5.796q4.878-2.82 9.846-5.477 4.967-2.658 10.02-5.152 5.051-2.493 10.182-4.82 5.13-2.327 10.335-4.485t10.477-4.144 10.606-3.799 10.726-3.449 10.832-3.096 10.928-2.74q5.487-1.28 11.012-2.38t11.084-2.019 11.145-1.654 11.192-1.289 11.228-.921 11.253-.554T400 1v344l297.61-172.523Z"/></svg>