<svg xmlns="http://www.w3.org/2000/svg" width="800" height="800"><path fill="none" d="M0 0h800v800H0z"/><clipPath id="a"><path d="M0 690h800v110H0z"/></clipPath><g clip-path="url(#a)"><path fill="#4caf50" d="M123.3 720h40v20h-40z"/><path fill="none" stroke="#fff" stroke-miterlimit="10" stroke-width="2" d="M123.3 720h40v20h-40z"/><path fill="#ff9800" d="M377.64 720h40v20h-40z"/><path fill="none" stroke="#fff" stroke-miterlimit="10" stroke-width="2" d="M377.64 720h40v20h-40z"/><path fill="#f44336" d="M262.92 770h40v20h-40z"/><path fill="none" stroke="#fff" stroke-miterlimit="10" stroke-width="2" d="M262.92 770h40v20h-40z"/></g><path fill="#4caf50" d="M400 1q4.284 0 8.567.107 4.283.106 8.562.32 4.28.213 8.552.533t8.535.746 8.515.958 8.487 1.17 8.456 1.381q4.22.744 8.42 1.592 4.199.848 8.376 1.8t8.33 2.009 8.276 2.215 8.22 2.42q4.094 1.263 8.155 2.626 4.062 1.363 8.088 2.827 4.027 1.464 8.016 3.027t7.937 3.227 7.855 3.423 7.767 3.617q3.86 1.857 7.674 3.81t7.577 4q3.764 2.047 7.475 4.187 3.712 2.14 7.369 4.372t7.257 4.555 7.142 4.733 7.022 4.91 6.897 5.084 6.768 5.253q3.352 2.67 6.636 5.42 3.284 2.752 6.498 5.585 3.214 2.832 6.357 5.744t6.213 5.9q3.069 2.99 6.063 6.055L400 345z"/><path fill="none" stroke="#fff" stroke-linejoin="bevel" stroke-width="2" d="M400 1q4.284 0 8.567.107 4.283.106 8.562.32 4.28.213 8.552.533t8.535.746 8.515.958 8.487 1.17 8.456 1.381q4.22.744 8.42 1.592 4.199.848 8.376 1.8t8.33 2.009 8.276 2.215 8.22 2.42q4.094 1.263 8.155 2.626 4.062 1.363 8.088 2.827 4.027 1.464 8.016 3.027t7.937 3.227 7.855 3.423 7.767 3.617q3.86 1.857 7.674 3.81t7.577 4q3.764 2.047 7.475 4.187 3.712 2.14 7.369 4.372t7.257 4.555 7.142 4.733 7.022 4.91 6.897 5.084 6.768 5.253q3.352 2.67 6.636 5.42 3.284 2.752 6.498 5.585 3.214 2.832 6.357 5.744t6.213 5.9q3.069 2.99 6.063 6.055L400 345z"/><path fill="#ff9800" d="M646.062 104.606q15.762 16.133 29.282 34.186t24.567 37.717L400 345z"/><path fill="none" stroke="#fff" stroke-linejoin="bevel" stroke-width="2" d="M646.062 104.606q15.762 16.133 29.282 34.186t24.567 37.717L400 345l246.062-240.394Z"/><path fill="#f44336" d="M699.911 176.509q4.136 7.362 7.906 14.919 3.77 7.556 7.165 15.288t6.406 15.622 5.631 15.918 4.844 16.175 4.044 16.392 3.235 16.572q1.415 8.325 2.418 16.71t1.596 16.81q.591 8.423.768 16.866t-.06 16.884q-.237 8.442-.888 16.861-.652 8.42-1.715 16.797t-2.537 16.693q-1.473 8.315-3.353 16.548t-4.16 16.364q-2.282 8.13-4.96 16.14t-5.744 15.877q-3.067 7.868-6.517 15.576t-7.273 15.237-8.012 14.862-8.732 14.452-9.43 14.005-10.106 13.526q-5.22 6.639-10.758 13.014-5.539 6.374-11.383 12.47-5.845 6.095-11.982 11.896t-12.55 11.294q-6.414 5.494-13.09 10.665-6.676 5.172-13.598 10.01-6.921 4.838-14.072 9.33-7.15 4.493-14.513 8.63-4.88 2.74-9.847 5.322t-10.015 5q-5.048 2.419-10.172 4.672t-10.32 4.338-10.454 4-10.58 3.658-10.692 3.311q-5.373 1.57-10.795 2.962-5.421 1.394-10.885 2.61t-10.965 2.253-11.032 1.896-11.088 1.536q-5.556.677-11.132 1.174t-11.164.811-11.185.448-11.193.084q-5.598-.05-11.19-.28-5.594-.232-11.176-.646-5.582-.413-11.148-1.007-5.566-.595-11.11-1.37t-11.059-1.731-10.997-2.09-10.923-2.446-10.838-2.8q-5.396-1.49-10.741-3.152t-10.633-3.5q-5.288-1.836-10.513-3.843t-10.383-4.184-10.24-4.519-10.09-4.85-9.925-5.175-9.751-5.496q-7.289-4.265-14.36-8.883t-13.905-9.577-13.419-10.247-12.9-10.894-12.35-11.513-11.77-12.106-11.162-12.668-10.527-13.201-9.866-13.702-9.183-14.17-8.476-14.602-7.749-15.001q-3.69-7.596-7.004-15.363-3.313-7.768-6.241-15.689-2.928-7.92-5.465-15.975t-4.673-16.225q-2.138-8.17-3.872-16.434-1.735-8.265-3.061-16.605-1.327-8.34-2.243-16.735t-1.419-16.824q-.502-8.43-.591-16.874-.089-8.445.237-16.883t1.065-16.85 1.891-16.779 2.712-16.665 3.527-16.512q1.965-8.213 4.332-16.32 2.366-8.106 5.128-16.086 2.76-7.98 5.91-15.816 3.15-7.835 6.68-15.507t7.433-15.16 8.168-14.777q2.827-4.832 5.81-9.568 2.983-4.737 6.118-9.374t6.42-9.17 6.715-8.956 7.003-8.732 7.284-8.5q3.71-4.192 7.556-8.26t7.82-8.008q3.976-3.94 8.077-7.75 4.102-3.81 8.325-7.483 4.224-3.674 8.564-7.208 4.341-3.535 8.795-6.926t9.014-6.636q4.562-3.244 9.226-6.339 4.665-3.094 9.427-6.036 4.763-2.94 9.619-5.725t9.8-5.41 9.97-5.088 10.131-4.76q5.104-2.299 10.28-4.43 5.177-2.13 10.42-4.091t10.546-3.751q5.304-1.79 10.664-3.406t10.768-3.057q5.409-1.44 10.862-2.705 5.453-1.264 10.944-2.35t11.015-1.993T355.35 3.91t11.121-1.272 11.157-.91 11.18-.546T400 1v344z"/><path fill="none" stroke="#fff" stroke-linejoin="bevel" stroke-width="2" d="M699.911 176.509q4.136 7.362 7.906 14.919 3.77 7.556 7.165 15.288t6.406 15.622 5.631 15.918 4.844 16.175 4.044 16.392 3.235 16.572q1.415 8.325 2.418 16.71t1.596 16.81q.591 8.423.768 16.866t-.06 16.884q-.237 8.442-.888 16.861-.652 8.42-1.715 16.797t-2.537 16.693q-1.473 8.315-3.353 16.548t-4.16 16.364q-2.282 8.13-4.96 16.14t-5.744 15.877q-3.067 7.868-6.517 15.576t-7.273 15.237-8.012 14.862-8.732 14.452-9.43 14.005-10.106 13.526q-5.22 6.639-10.758 13.014-5.539 6.374-11.383 12.47-5.845 6.095-11.982 11.896t-12.55 11.294q-6.414 5.494-13.09 10.665-6.676 5.172-13.598 10.01-6.921 4.838-14.072 9.33-7.15 4.493-14.513 8.63-4.88 2.74-9.847 5.322t-10.015 5q-5.048 2.419-10.172 4.672t-10.32 4.338-10.454 4-10.58 3.658-10.692 3.311q-5.373 1.57-10.795 2.962-5.421 1.394-10.885 2.61t-10.965 2.253-11.032 1.896-11.088 1.536q-5.556.677-11.132 1.174t-11.164.811-11.185.448-11.193.084q-5.598-.05-11.19-.28-5.594-.232-11.176-.646-5.582-.413-11.148-1.007-5.566-.595-11.11-1.37t-11.059-1.731-10.997-2.09-10.923-2.446-10.838-2.8q-5.396-1.49-10.741-3.152t-10.633-3.5q-5.288-1.836-10.513-3.843t-10.383-4.184-10.24-4.519-10.09-4.85-9.925-5.175-9.751-5.496q-7.289-4.265-14.36-8.883t-13.905-9.577-13.419-10.247-12.9-10.894-12.35-11.513-11.77-12.106-11.162-12.668-10.527-13.201-9.866-13.702-9.183-14.17-8.476-14.602-7.749-15.001q-3.69-7.596-7.004-15.363-3.313-7.768-6.241-15.689-2.928-7.92-5.465-15.975t-4.673-16.225q-2.138-8.17-3.872-16.434-1.735-8.265-3.061-16.605-1.327-8.34-2.243-16.735t-1.419-16.824q-.502-8.43-.591-16.874-.089-8.445.237-16.883t1.065-16.85 1.891-16.779 2.712-16.665 3.527-16.512q1.965-8.213 4.332-16.32 2.366-8.106 5.128-16.086 2.76-7.98 5.91-15.816 3.15-7.835 6.68-15.507t7.433-15.16 8.168-14.777q2.827-4.832 5.81-9.568 2.983-4.737 6.118-9.374t6.42-9.17 6.715-8.956 7.003-8.732 7.284-8.5q3.71-4.192 7.556-8.26t7.82-8.008q3.976-3.94 8.077-7.75 4.102-3.81 8.325-7.483 4.224-3.674 8.564-7.208 4.341-3.535 8.795-6.926t9.014-6.636q4.562-3.244 9.226-6.339 4.665-3.094 9.427-6.036 4.763-2.94 9.619-5.725t9.8-5.41 9.97-5.088 10.131-4.76q5.104-2.299 10.28-4.43 5.177-2.13 10.42-4.091t10.546-3.751q5.304-1.79 10.664-3.406t10.768-3.057q5.409-1.44 10.862-2.705 5.453-1.264 10.944-2.35t11.015-1.993T355.35 3.91t11.121-1.272 11.157-.91 11.18-.546T400 1v344l299.911-168.491Z"/></svg>