<svg xmlns="http://www.w3.org/2000/svg" width="800" height="800"><path fill="none" d="M0 0h800v800H0z"/><clipPath id="a"><path d="M0 740h800v60H0z"/></clipPath><g clip-path="url(#a)"><path fill="#4caf50" d="M138.975 770h40v20h-40z"/><path fill="none" stroke="#fff" stroke-miterlimit="10" stroke-width="2" d="M138.975 770h40v20h-40z"/><text x="188.97501, 200.97696, 212.97891, 224.98087, 236.98282, 248.98477, 260.98672," y="785.5," fill="#666" font-family="Liberation Mono" font-size="20">Trusted</text><path fill="#ff9800" d="M302.985 770h40v20h-40z"/><path fill="none" stroke="#fff" stroke-miterlimit="10" stroke-width="2" d="M302.985 770h40v20h-40z"/><text x="352.98502, 364.98697, 376.98892, 388.99088, 400.99283, 412.99478, 424.99673, 436.99869, 449.00064, 461.00259," y="785.5," fill="#666" font-family="Liberation Mono" font-size="20">Provenance</text><path fill="#f44336" d="M503.005 770h40v20h-40z"/><path fill="none" stroke="#fff" stroke-miterlimit="10" stroke-width="2" d="M503.005 770h40v20h-40z"/><text x="553.005, 565.00696, 577.00891, 589.01086, 601.01282, 613.01477, 625.01672, 637.01868, 649.02063," y="785.5," fill="#666" font-family="Liberation Mono" font-size="20">Untrusted</text></g><path fill="#4caf50" d="M400 1q5.928 0 11.854.19t11.841.572q5.917.38 11.818.95 5.9.571 11.78 1.331t11.732 1.708 11.67 2.084 11.598 2.458q5.78 1.323 11.513 2.83 5.734 1.507 11.416 3.197t11.307 3.563 11.187 3.924 11.055 4.282 10.913 4.634 10.757 4.982 10.592 5.326 10.415 5.663 10.228 5.995 10.03 6.32 9.822 6.64 9.604 6.95 9.376 7.256 9.137 7.554 8.89 7.843 8.633 8.125 8.369 8.398 8.093 8.662 7.812 8.918 7.52 9.164q3.688 4.643 7.224 9.402t6.917 9.628q3.381 4.87 6.604 9.845t6.284 10.053L400 370z"/><path fill="none" stroke="#fff" stroke-linejoin="bevel" stroke-width="2" d="M400 1q5.928 0 11.854.19t11.841.572q5.917.38 11.818.95 5.9.571 11.78 1.331t11.732 1.708 11.67 2.084 11.598 2.458q5.78 1.323 11.513 2.83 5.734 1.507 11.416 3.197t11.307 3.563 11.187 3.924 11.055 4.282 10.913 4.634 10.757 4.982 10.592 5.326 10.415 5.663 10.228 5.995 10.03 6.32 9.822 6.64 9.604 6.95 9.376 7.256 9.137 7.554 8.89 7.843 8.633 8.125 8.369 8.398 8.093 8.662 7.812 8.918 7.52 9.164q3.688 4.643 7.224 9.402t6.917 9.628q3.381 4.87 6.604 9.845t6.284 10.053L400 370z"/><path fill="#ff9800" d="M715.991 179.447q9.47 15.704 17.337 32.27t14.051 33.83L400 370z"/><path fill="none" stroke="#fff" stroke-linejoin="bevel" stroke-width="2" d="M715.991 179.447q9.47 15.704 17.337 32.27t14.051 33.83L400 370l315.991-190.553Z"/><path fill="#f44336" d="M747.38 245.547q3.055 8.528 5.688 17.195t4.837 17.453 3.976 17.67 3.103 17.844 2.224 17.974 1.34 18.062.452 18.105q.004 9.059-.437 18.107t-1.325 18.063-2.21 17.976-3.09 17.846-3.96 17.673-4.824 17.457-5.674 17.2-6.511 16.9-7.333 16.56-8.137 16.182q-4.266 7.99-8.92 15.762-4.654 7.771-9.684 15.305t-10.422 14.812-11.137 14.283q-5.744 7.004-11.825 13.718t-12.483 13.123-13.112 12.493-13.71 11.836q-7 5.75-14.273 11.149-7.274 5.399-14.803 10.434-7.53 5.036-15.298 9.696t-15.755 8.933-16.174 8.15-16.555 7.346-16.895 6.525q-5.197 1.862-10.447 3.568t-10.55 3.253-10.642 2.937-10.725 2.616-10.798 2.295-10.863 1.97-10.916 1.645-10.96 1.318q-5.491.576-10.996.989-5.505.412-11.02.66-5.515.247-11.035.329t-11.04 0-11.034-.331-11.02-.661-10.995-.99-10.96-1.319-10.917-1.646-10.862-1.971-10.799-2.296-10.725-2.618q-5.342-1.39-10.641-2.937-5.3-1.549-10.55-3.255t-10.446-3.568-10.336-3.88q-5.139-2.017-10.215-4.187t-10.085-4.49-9.946-4.79-9.799-5.086q-4.86-2.616-9.642-5.377-4.78-2.76-9.476-5.662t-9.304-5.944-9.12-6.219h-.001q-7.407-5.215-14.55-10.786-7.142-5.572-14.002-11.487t-13.422-12.16-12.81-12.804q-6.247-6.56-12.165-13.418t-11.493-13.998-10.792-14.545-10.065-15.057-9.314-15.532-8.541-15.972q-4.075-8.09-7.747-16.37-3.673-8.281-6.934-16.732t-6.105-17.051-5.261-17.33-4.405-17.569-3.537-17.762-2.66-17.915-1.78-18.024-.892-18.09q-.224-9.055-.004-18.11.22-9.057.885-18.09.665-9.035 1.772-18.025t2.654-17.916 3.53-17.764q1.982-8.84 4.397-17.57t5.254-17.332q2.84-8.602 6.098-17.054 3.258-8.453 6.927-16.735 3.67-8.282 7.74-16.374 4.072-8.092 8.535-15.974 4.463-7.883 9.308-15.537t10.06-15.061q3.177-4.514 6.488-8.931t6.754-8.733 7.012-8.527 7.263-8.314 7.51-8.092q3.814-3.99 7.747-7.864t7.98-7.63q4.047-3.754 8.204-7.386t8.422-7.138 8.631-6.883 8.833-6.622 9.028-6.354 9.213-6.082 9.392-5.803q4.739-2.831 9.56-5.52t9.722-5.23q4.9-2.544 9.874-4.939t10.017-4.64 10.151-4.339 10.277-4.033 10.392-3.724 10.5-3.411 10.597-3.096q5.321-1.469 10.684-2.777 5.363-1.31 10.763-2.457 5.4-1.148 10.832-2.133 5.431-.986 10.89-1.809t10.94-1.482 10.98-1.154q5.497-.494 11.008-.825t11.029-.495Q394.48 1 400 1v369z"/><path fill="none" stroke="#fff" stroke-linejoin="bevel" stroke-width="2" d="M747.38 245.547q3.055 8.528 5.688 17.195t4.837 17.453 3.976 17.67 3.103 17.844 2.224 17.974 1.34 18.062.452 18.105q.004 9.059-.437 18.107t-1.325 18.063-2.21 17.976-3.09 17.846-3.96 17.673-4.824 17.457-5.674 17.2-6.511 16.9-7.333 16.56-8.137 16.182q-4.266 7.99-8.92 15.762-4.654 7.771-9.684 15.305t-10.422 14.812-11.137 14.283q-5.744 7.004-11.825 13.718t-12.483 13.123-13.112 12.493-13.71 11.836q-7 5.75-14.273 11.149-7.274 5.399-14.803 10.434-7.53 5.036-15.298 9.696t-15.755 8.933-16.174 8.15-16.555 7.346-16.895 6.525q-5.197 1.862-10.447 3.568t-10.55 3.253-10.642 2.937-10.725 2.616-10.798 2.295-10.863 1.97-10.916 1.645-10.96 1.318q-5.491.576-10.996.989-5.505.412-11.02.66-5.515.247-11.035.329t-11.04 0-11.034-.331-11.02-.661-10.995-.99-10.96-1.319-10.917-1.646-10.862-1.971-10.799-2.296-10.725-2.618q-5.342-1.39-10.641-2.937-5.3-1.549-10.55-3.255t-10.446-3.568-10.336-3.88q-5.139-2.017-10.215-4.187t-10.085-4.49-9.946-4.79-9.799-5.086q-4.86-2.616-9.642-5.377-4.78-2.76-9.476-5.662t-9.304-5.944-9.12-6.219h-.001q-7.407-5.215-14.55-10.786-7.142-5.572-14.002-11.487t-13.422-12.16-12.81-12.804q-6.247-6.56-12.165-13.418t-11.493-13.998-10.792-14.545-10.065-15.057-9.314-15.532-8.541-15.972q-4.075-8.09-7.747-16.37-3.673-8.281-6.934-16.732t-6.105-17.051-5.261-17.33-4.405-17.569-3.537-17.762-2.66-17.915-1.78-18.024-.892-18.09q-.224-9.055-.004-18.11.22-9.057.885-18.09.665-9.035 1.772-18.025t2.654-17.916 3.53-17.764q1.982-8.84 4.397-17.57t5.254-17.332q2.84-8.602 6.098-17.054 3.258-8.453 6.927-16.735 3.67-8.282 7.74-16.374 4.072-8.092 8.535-15.974 4.463-7.883 9.308-15.537t10.06-15.061q3.177-4.514 6.488-8.931t6.754-8.733 7.012-8.527 7.263-8.314 7.51-8.092q3.814-3.99 7.747-7.864t7.98-7.63q4.047-3.754 8.204-7.386t8.422-7.138 8.631-6.883 8.833-6.622 9.028-6.354 9.213-6.082 9.392-5.803q4.739-2.831 9.56-5.52t9.722-5.23q4.9-2.544 9.874-4.939t10.017-4.64 10.151-4.339 10.277-4.033 10.392-3.724 10.5-3.411 10.597-3.096q5.321-1.469 10.684-2.777 5.363-1.31 10.763-2.457 5.4-1.148 10.832-2.133 5.431-.986 10.89-1.809t10.94-1.482 10.98-1.154q5.497-.494 11.008-.825t11.029-.495Q394.48 1 400 1v369l347.38-124.453Z"/></svg>