<svg xmlns="http://www.w3.org/2000/svg" width="800" height="800"><path fill="none" d="M0 0h800v800H0z"/><clipPath id="a"><path d="M0 690h800v110H0z"/></clipPath><g clip-path="url(#a)"><path fill="#4caf50" d="M123.3 720h40v20h-40z"/><path fill="none" stroke="#fff" stroke-miterlimit="10" stroke-width="2" d="M123.3 720h40v20h-40z"/><path fill="#ff9800" d="M377.64 720h40v20h-40z"/><path fill="none" stroke="#fff" stroke-miterlimit="10" stroke-width="2" d="M377.64 720h40v20h-40z"/><path fill="#f44336" d="M262.92 770h40v20h-40z"/><path fill="none" stroke="#fff" stroke-miterlimit="10" stroke-width="2" d="M262.92 770h40v20h-40z"/></g><path fill="#4caf50" d="M400 1q4.255 0 8.508.105 4.254.105 8.504.316 4.25.21 8.493.526 4.243.315 8.477.736 4.234.42 8.456.945 4.223.525 8.43 1.154 4.209.63 8.4 1.362t8.363 1.57q4.172.836 8.322 1.776t8.275 1.981 8.224 2.185 8.167 2.388 8.106 2.59 8.039 2.789 7.967 2.987q3.966 1.543 7.892 3.183t7.81 3.377 7.724 3.57 7.634 3.76q3.793 1.926 7.538 3.946t7.438 4.133 7.334 4.315 7.225 4.495 7.111 4.673q3.527 2.38 6.994 4.847 3.467 2.466 6.872 5.018t6.745 5.187 6.615 5.352 6.48 5.514 6.343 5.673q3.136 2.875 6.2 5.828 3.064 2.952 6.054 5.98L400 345z"/><path fill="none" stroke="#fff" stroke-linejoin="bevel" stroke-width="2" d="M400 1q4.255 0 8.508.105 4.254.105 8.504.316 4.25.21 8.493.526 4.243.315 8.477.736 4.234.42 8.456.945 4.223.525 8.43 1.154 4.209.63 8.4 1.362t8.363 1.57q4.172.836 8.322 1.776t8.275 1.981 8.224 2.185 8.167 2.388 8.106 2.59 8.039 2.789 7.967 2.987q3.966 1.543 7.892 3.183t7.81 3.377 7.724 3.57 7.634 3.76q3.793 1.926 7.538 3.946t7.438 4.133 7.334 4.315 7.225 4.495 7.111 4.673q3.527 2.38 6.994 4.847 3.467 2.466 6.872 5.018t6.745 5.187 6.615 5.352 6.48 5.514 6.343 5.673q3.136 2.875 6.2 5.828 3.064 2.952 6.054 5.98L400 345z"/><path fill="#ff9800" d="M644.74 103.26q15.85 16.047 29.47 34.025 13.618 17.979 24.773 37.582L400 345z"/><path fill="none" stroke="#fff" stroke-linejoin="bevel" stroke-width="2" d="M644.74 103.26q15.85 16.047 29.47 34.025 13.618 17.979 24.773 37.582L400 345l244.74-241.74Z"/><path fill="#f44336" d="M698.983 174.867q4.176 7.34 7.988 14.875 3.811 7.536 7.248 15.25 3.437 7.713 6.492 15.586 3.054 7.873 5.718 15.887t4.933 16.148 4.134 16.37 3.326 16.554 2.51 16.696q1.049 8.38 1.686 16.8.638 8.42.861 16.863.224 8.441.033 16.884t-.796 16.866-1.623 16.806q-1.017 8.383-2.445 16.706t-3.262 16.566-4.071 16.387-4.87 16.166q-2.634 8.024-5.658 15.909-3.024 7.884-6.431 15.611t-7.19 15.277-7.93 14.906-8.653 14.5-9.353 14.056-10.032 13.581-10.686 13.072-11.315 12.533q-5.81 6.127-11.916 11.962-6.105 5.835-12.488 11.363-6.384 5.528-13.032 10.736t-13.542 10.084-14.02 9.408-14.466 8.708q-4.878 2.776-9.844 5.39-4.966 2.616-10.014 5.068-5.049 2.451-10.175 4.737-5.125 2.286-10.323 4.403t-10.462 4.064-10.588 3.72q-5.325 1.775-10.705 3.374t-10.808 3.022-10.902 2.668-10.983 2.31-11.052 1.952q-5.542.886-11.11 1.59t-11.156 1.226-11.19.862-11.212.497-11.223.13-11.22-.235q-5.61-.21-11.208-.602t-11.181-.967q-5.583-.575-11.144-1.331-5.561-.757-11.095-1.694-5.533-.938-11.033-2.055t-10.961-2.414-10.876-2.77-10.78-3.124-10.672-3.473-10.553-3.82q-5.246-1.996-10.423-4.162-5.178-2.166-10.282-4.5t-10.13-4.832-9.966-5.16-9.793-5.484q-7.3-4.245-14.383-8.843t-13.932-9.539-13.447-10.21-12.93-10.859-12.381-11.48q-6.05-5.891-11.803-12.073-5.754-6.181-11.197-12.638t-10.563-13.172-9.904-13.674-9.221-14.144-8.516-14.58q-4.08-7.394-7.79-14.98-3.712-7.585-7.046-15.343-3.335-7.759-6.285-15.672-2.95-7.912-5.508-15.96t-4.718-16.212-3.917-16.424-3.107-16.596-2.288-16.728q-.94-8.393-1.465-16.821t-.638-16.872.191-16.884 1.02-16.853 1.844-16.784 2.666-16.672q1.538-8.304 3.481-16.522 1.944-8.218 4.288-16.33 2.344-8.113 5.083-16.101 2.74-7.989 5.868-15.832t6.637-15.526q3.51-7.68 7.392-15.18 3.881-7.5 8.127-14.8 2.821-4.852 5.8-9.609 2.977-4.757 6.11-9.414 3.13-4.657 6.413-9.21 3.282-4.553 6.71-8.996 3.43-4.443 7.001-8.772t7.283-8.54 7.558-8.297q3.847-4.086 7.825-8.046 3.977-3.959 8.082-7.786 4.105-3.828 8.333-7.519t8.573-7.243q4.346-3.551 8.805-6.96 4.46-3.407 9.027-6.668 4.568-3.26 9.24-6.37t9.443-6.066 9.636-5.754 9.819-5.437q4.953-2.639 9.99-5.114t10.152-4.785 10.303-4.452q5.187-2.141 10.442-4.113 5.255-1.971 10.571-3.77 5.317-1.799 10.689-3.423t10.794-3.073 10.889-2.719q5.467-1.27 10.972-2.362t11.043-2.004 11.102-1.642q5.565-.73 11.15-1.278 5.586-.549 11.186-.915t11.21-.549T400 1v344z"/><path fill="none" stroke="#fff" stroke-linejoin="bevel" stroke-width="2" d="M698.983 174.867q4.176 7.34 7.988 14.875 3.811 7.536 7.248 15.25 3.437 7.713 6.492 15.586 3.054 7.873 5.718 15.887t4.933 16.148 4.134 16.37 3.326 16.554 2.51 16.696q1.049 8.38 1.686 16.8.638 8.42.861 16.863.224 8.441.033 16.884t-.796 16.866-1.623 16.806q-1.017 8.383-2.445 16.706t-3.262 16.566-4.071 16.387-4.87 16.166q-2.634 8.024-5.658 15.909-3.024 7.884-6.431 15.611t-7.19 15.277-7.93 14.906-8.653 14.5-9.353 14.056-10.032 13.581-10.686 13.072-11.315 12.533q-5.81 6.127-11.916 11.962-6.105 5.835-12.488 11.363-6.384 5.528-13.032 10.736t-13.542 10.084-14.02 9.408-14.466 8.708q-4.878 2.776-9.844 5.39-4.966 2.616-10.014 5.068-5.049 2.451-10.175 4.737-5.125 2.286-10.323 4.403t-10.462 4.064-10.588 3.72q-5.325 1.775-10.705 3.374t-10.808 3.022-10.902 2.668-10.983 2.31-11.052 1.952q-5.542.886-11.11 1.59t-11.156 1.226-11.19.862-11.212.497-11.223.13-11.22-.235q-5.61-.21-11.208-.602t-11.181-.967q-5.583-.575-11.144-1.331-5.561-.757-11.095-1.694-5.533-.938-11.033-2.055t-10.961-2.414-10.876-2.77-10.78-3.124-10.672-3.473-10.553-3.82q-5.246-1.996-10.423-4.162-5.178-2.166-10.282-4.5t-10.13-4.832-9.966-5.16-9.793-5.484q-7.3-4.245-14.383-8.843t-13.932-9.539-13.447-10.21-12.93-10.859-12.381-11.48q-6.05-5.891-11.803-12.073-5.754-6.181-11.197-12.638t-10.563-13.172-9.904-13.674-9.221-14.144-8.516-14.58q-4.08-7.394-7.79-14.98-3.712-7.585-7.046-15.343-3.335-7.759-6.285-15.672-2.95-7.912-5.508-15.96t-4.718-16.212-3.917-16.424-3.107-16.596-2.288-16.728q-.94-8.393-1.465-16.821t-.638-16.872.191-16.884 1.02-16.853 1.844-16.784 2.666-16.672q1.538-8.304 3.481-16.522 1.944-8.218 4.288-16.33 2.344-8.113 5.083-16.101 2.74-7.989 5.868-15.832t6.637-15.526q3.51-7.68 7.392-15.18 3.881-7.5 8.127-14.8 2.821-4.852 5.8-9.609 2.977-4.757 6.11-9.414 3.13-4.657 6.413-9.21 3.282-4.553 6.71-8.996 3.43-4.443 7.001-8.772t7.283-8.54 7.558-8.297q3.847-4.086 7.825-8.046 3.977-3.959 8.082-7.786 4.105-3.828 8.333-7.519t8.573-7.243q4.346-3.551 8.805-6.96 4.46-3.407 9.027-6.668 4.568-3.26 9.24-6.37t9.443-6.066 9.636-5.754 9.819-5.437q4.953-2.639 9.99-5.114t10.152-4.785 10.303-4.452q5.187-2.141 10.442-4.113 5.255-1.971 10.571-3.77 5.317-1.799 10.689-3.423t10.794-3.073 10.889-2.719q5.467-1.27 10.972-2.362t11.043-2.004 11.102-1.642q5.565-.73 11.15-1.278 5.586-.549 11.186-.915t11.21-.549T400 1v344l298.983-170.133Z"/></svg>