<svg xmlns="http://www.w3.org/2000/svg" width="800" height="800"><path fill="none" d="M0 0h800v800H0z"/><clipPath id="a"><path d="M0 740h800v60H0z"/></clipPath><g clip-path="url(#a)"><path fill="#4caf50" d="M144.605 770h40v20h-40z"/><path fill="none" stroke="#fff" stroke-miterlimit="10" stroke-width="2" d="M144.605 770h40v20h-40z"/><text x="194.605, 207.94484, 217.50539, 230.38625, 240.64992, 248.68703, 260.52295," y="787.5," fill="#666" font-family="DejaVu Serif" font-size="20">Trusted</text><path fill="#ff9800" d="M303.325 770h40v20h-40z"/><path fill="none" stroke="#fff" stroke-miterlimit="10" stroke-width="2" d="M303.325 770h40v20h-40z"/><text x="353.32501, 366.78204, 376.34259, 388.38361, 399.68243, 411.51837, 424.39923, 436.32306, 449.20392, 460.40509," y="787.5," fill="#666" font-family="DejaVu Serif" font-size="20">Provenance</text><path fill="#f44336" d="M502.245 770h40v20h-40z"/><path fill="none" stroke="#fff" stroke-miterlimit="10" stroke-width="2" d="M502.245 770h40v20h-40z"/><text x="552.245, 569.10046, 581.98132, 590.01843, 599.57898, 612.45984, 622.72351, 630.76062, 642.59656," y="787.5," fill="#666" font-family="DejaVu Serif" font-size="20">Untrusted</text></g><path fill="#4caf50" d="M400 1q11.646 0 23.268.734 11.623.735 23.176 2.2t22.99 3.658q11.439 2.191 22.715 5.1t22.348 6.521q11.071 3.614 21.892 7.918t21.349 9.283 20.721 10.61L400 370z"/><path fill="none" stroke="#fff" stroke-linejoin="bevel" stroke-width="2" d="M400 1q11.646 0 23.268.734 11.623.735 23.176 2.2t22.99 3.658q11.439 2.191 22.715 5.1t22.348 6.521q11.071 3.614 21.892 7.918t21.349 9.283 20.721 10.61L400 370z"/><path fill="#ff9800" d="M578.46 47.024q13.39 7.399 26.12 15.88 12.732 8.482 24.718 17.988t23.143 19.972q11.158 10.465 21.411 21.819L400 370z"/><path fill="none" stroke="#fff" stroke-linejoin="bevel" stroke-width="2" d="M578.46 47.024q13.39 7.399 26.12 15.88 12.732 8.482 24.718 17.988t23.143 19.972q11.158 10.465 21.411 21.819L400 370 578.46 47.024Z"/><path fill="#f44336" d="M673.852 122.682q6.071 6.723 11.806 13.736 5.734 7.012 11.117 14.297t10.402 14.827q5.02 7.54 9.662 15.318 4.644 7.778 8.9 15.775 4.255 7.996 8.114 16.192 3.858 8.195 7.31 16.57t6.488 16.91 5.65 17.207 4.8 17.464 3.936 17.679q1.752 8.887 3.065 17.85t2.185 17.98 1.3 18.064.412 18.107-.476 18.105q-.46 9.046-1.365 18.06-.904 9.013-2.249 17.97-1.345 8.959-3.128 17.84t-4 17.664q-2.217 8.783-4.862 17.447t-5.711 17.187-6.549 16.886-7.369 16.545-8.172 16.163-8.955 15.743q-4.67 7.76-9.717 15.284-5.046 7.523-10.455 14.789t-11.168 14.258-11.854 13.693-12.512 13.095-13.14 12.465q-4.932 4.455-10.022 8.73-5.09 4.273-10.33 8.362-5.241 4.088-10.625 7.985-5.385 3.896-10.906 7.597-5.521 3.7-11.172 7.2-5.651 3.498-11.424 6.792-5.774 3.293-11.662 6.376t-11.883 5.953q-5.995 2.869-12.09 5.52-6.095 2.652-12.281 5.082t-12.456 4.636-12.615 4.185q-6.346 1.978-12.758 3.727-6.412 1.75-12.883 3.266-6.472 1.517-12.993 2.8-6.522 1.282-13.085 2.33-6.564 1.046-13.16 1.857-6.598.81-13.22 1.381-6.622.572-13.26.906-6.638.333-13.284.426-6.646.094-13.29-.051-6.646-.146-13.281-.53-6.635-.386-13.253-1.01-6.617-.623-13.207-1.484t-13.146-1.96-13.067-2.431-12.97-2.901q-6.46-1.567-12.858-3.366t-12.728-3.827-12.582-4.283-12.42-4.733q-6.167-2.478-12.24-5.177-8.279-3.678-16.366-7.758t-15.966-8.552q-7.877-4.472-15.526-9.325t-15.05-10.076-14.538-10.802-13.99-11.502-13.409-12.175-12.795-12.818-12.15-13.43-11.478-14.01-10.776-14.558-10.049-15.068q-4.84-7.657-9.297-15.543t-8.523-15.98-7.73-16.38q-3.663-8.284-6.916-16.739-3.252-8.454-6.086-17.058T44.28 468.1t-4.385-17.573-3.518-17.766-2.641-17.918q-1.1-8.991-1.76-18.026-.658-9.034-.872-18.09t.016-18.111.905-18.09 1.791-18.022q1.117-8.99 2.674-17.913t3.55-17.76 4.415-17.565 5.273-17.327q2.85-8.598 6.117-17.047t6.946-16.727q2.699-6.074 5.615-12.046 2.916-5.973 6.045-11.837t6.467-11.611 6.881-11.371 7.286-11.116 7.682-10.846 8.068-10.562 8.442-10.266 8.807-9.954 9.16-9.63 9.5-9.295 9.83-8.947 10.144-8.586 10.448-8.216 10.736-7.834 11.012-7.443 11.273-7.04 11.518-6.631q5.82-3.212 11.75-6.211 5.932-3 11.967-5.785 6.035-2.784 12.167-5.35 6.131-2.564 12.351-4.907t12.52-4.46q6.301-2.117 12.673-4.006 6.373-1.889 12.81-3.547 6.436-1.658 12.928-3.084 6.491-1.425 13.03-2.616 6.54-1.19 13.117-2.144t13.186-1.672q6.607-.716 13.237-1.195 6.629-.478 13.271-.718Q393.353 1 400 1v369z"/><path fill="none" stroke="#fff" stroke-linejoin="bevel" stroke-width="2" d="M673.852 122.682q6.071 6.723 11.806 13.736 5.734 7.012 11.117 14.297t10.402 14.827q5.02 7.54 9.662 15.318 4.644 7.778 8.9 15.775 4.255 7.996 8.114 16.192 3.858 8.195 7.31 16.57t6.488 16.91 5.65 17.207 4.8 17.464 3.936 17.679q1.752 8.887 3.065 17.85t2.185 17.98 1.3 18.064.412 18.107-.476 18.105q-.46 9.046-1.365 18.06-.904 9.013-2.249 17.97-1.345 8.959-3.128 17.84t-4 17.664q-2.217 8.783-4.862 17.447t-5.711 17.187-6.549 16.886-7.369 16.545-8.172 16.163-8.955 15.743q-4.67 7.76-9.717 15.284-5.046 7.523-10.455 14.789t-11.168 14.258-11.854 13.693-12.512 13.095-13.14 12.465q-4.932 4.455-10.022 8.73-5.09 4.273-10.33 8.362-5.241 4.088-10.625 7.985-5.385 3.896-10.906 7.597-5.521 3.7-11.172 7.2-5.651 3.498-11.424 6.792-5.774 3.293-11.662 6.376t-11.883 5.953q-5.995 2.869-12.09 5.52-6.095 2.652-12.281 5.082t-12.456 4.636-12.615 4.185q-6.346 1.978-12.758 3.727-6.412 1.75-12.883 3.266-6.472 1.517-12.993 2.8-6.522 1.282-13.085 2.33-6.564 1.046-13.16 1.857-6.598.81-13.22 1.381-6.622.572-13.26.906-6.638.333-13.284.426-6.646.094-13.29-.051-6.646-.146-13.281-.53-6.635-.386-13.253-1.01-6.617-.623-13.207-1.484t-13.146-1.96-13.067-2.431-12.97-2.901q-6.46-1.567-12.858-3.366t-12.728-3.827-12.582-4.283-12.42-4.733q-6.167-2.478-12.24-5.177-8.279-3.678-16.366-7.758t-15.966-8.552q-7.877-4.472-15.526-9.325t-15.05-10.076-14.538-10.802-13.99-11.502-13.409-12.175-12.795-12.818-12.15-13.43-11.478-14.01-10.776-14.558-10.049-15.068q-4.84-7.657-9.297-15.543t-8.523-15.98-7.73-16.38q-3.663-8.284-6.916-16.739-3.252-8.454-6.086-17.058T44.28 468.1t-4.385-17.573-3.518-17.766-2.641-17.918q-1.1-8.991-1.76-18.026-.658-9.034-.872-18.09t.016-18.111.905-18.09 1.791-18.022q1.117-8.99 2.674-17.913t3.55-17.76 4.415-17.565 5.273-17.327q2.85-8.598 6.117-17.047t6.946-16.727q2.699-6.074 5.615-12.046 2.916-5.973 6.045-11.837t6.467-11.611 6.881-11.371 7.286-11.116 7.682-10.846 8.068-10.562 8.442-10.266 8.807-9.954 9.16-9.63 9.5-9.295 9.83-8.947 10.144-8.586 10.448-8.216 10.736-7.834 11.012-7.443 11.273-7.04 11.518-6.631q5.82-3.212 11.75-6.211 5.932-3 11.967-5.785 6.035-2.784 12.167-5.35 6.131-2.564 12.351-4.907t12.52-4.46q6.301-2.117 12.673-4.006 6.373-1.889 12.81-3.547 6.436-1.658 12.928-3.084 6.491-1.425 13.03-2.616 6.54-1.19 13.117-2.144t13.186-1.672q6.607-.716 13.237-1.195 6.629-.478 13.271-.718Q393.353 1 400 1v369l273.852-247.318Z"/></svg>