<svg xmlns="http://www.w3.org/2000/svg" width="800" height="800"><path fill="none" d="M0 0h800v800H0z"/><clipPath id="a"><path d="M0 740h800v60H0z"/></clipPath><g clip-path="url(#a)"><path fill="#4caf50" d="M144.605 770h40v20h-40z"/><path fill="none" stroke="#fff" stroke-miterlimit="10" stroke-width="2" d="M144.605 770h40v20h-40z"/><text x="194.605, 207.94484, 217.50539, 230.38625, 240.64992, 248.68703, 260.52295," y="787.5," fill="#666" font-family="DejaVu Serif" font-size="20">Trusted</text><path fill="#ff9800" d="M303.325 770h40v20h-40z"/><path fill="none" stroke="#fff" stroke-miterlimit="10" stroke-width="2" d="M303.325 770h40v20h-40z"/><text x="353.32501, 366.78204, 376.34259, 388.38361, 399.68243, 411.51837, 424.39923, 436.32306, 449.20392, 460.40509," y="787.5," fill="#666" font-family="DejaVu Serif" font-size="20">Provenance</text><path fill="#f44336" d="M502.245 770h40v20h-40z"/><path fill="none" stroke="#fff" stroke-miterlimit="10" stroke-width="2" d="M502.245 770h40v20h-40z"/><text x="552.245, 569.10046, 581.98132, 590.01843, 599.57898, 612.45984, 622.72351, 630.76062, 642.59656," y="787.5," fill="#666" font-family="DejaVu Serif" font-size="20">Untrusted</text></g><path fill="#4caf50" d="M400 1q11.909 0 23.792.768t23.694 2.3 23.496 3.823 23.2 5.33 22.808 6.816q11.295 3.775 22.322 8.271t21.742 9.694q10.714 5.198 21.071 11.075L400 370z"/><path fill="none" stroke="#fff" stroke-linejoin="bevel" stroke-width="2" d="M400 1q11.909 0 23.792.768t23.694 2.3 23.496 3.823 23.2 5.33 22.808 6.816q11.295 3.775 22.322 8.271t21.742 9.694q10.714 5.198 21.071 11.075L400 370z"/><path fill="#ff9800" d="M582.125 49.077q13.237 7.512 25.81 16.089 12.574 8.577 24.398 18.16t22.82 20.106q10.994 10.525 21.085 21.918L400 370z"/><path fill="none" stroke="#fff" stroke-linejoin="bevel" stroke-width="2" d="M582.125 49.077q13.237 7.512 25.81 16.089 12.574 8.577 24.398 18.16t22.82 20.106q10.994 10.525 21.085 21.918L400 370 582.125 49.077Z"/><path fill="#f44336" d="M676.238 125.35q6.006 6.782 11.672 13.85t10.978 14.404 10.258 14.927 9.513 15.411 8.746 15.86q4.178 8.038 7.957 16.27 3.778 8.233 7.148 16.641t6.324 16.972q2.954 8.563 5.484 17.261t4.63 17.51 3.764 17.716 2.892 17.879 2.01 18 1.125 18.076q.34 9.052.237 18.11t-.653 18.1-1.54 18.045-2.423 17.949q-1.431 8.944-3.3 17.808-1.87 8.863-4.172 17.624-2.301 8.762-5.03 17.4t-5.878 17.13q-3.15 8.493-6.712 16.822-3.563 8.329-7.53 16.472t-8.328 16.083q-4.361 7.94-9.107 15.655-4.746 7.716-9.865 15.19T693.84 593.2t-11.306 14.15-11.986 13.577-12.639 12.973-13.26 12.337q-4.954 4.388-10.063 8.596t-10.365 8.23q-5.257 4.021-10.654 7.852-5.398 3.83-10.929 7.465t-11.19 7.069q-5.657 3.433-11.435 6.662-5.777 3.23-11.667 6.249-5.89 3.02-11.884 5.825-5.994 2.807-12.085 5.397-6.09 2.59-12.27 4.959-6.18 2.37-12.441 4.516t-12.595 4.066-12.732 3.613q-6.4 1.692-12.854 3.154-6.455 1.461-12.959 2.69-6.503 1.23-13.047 2.225-6.543.995-13.118 1.754-6.575.76-13.172 1.284-6.598.523-13.21.81t-13.231.336q-6.619.05-13.235-.139-6.615-.188-13.22-.613-6.605-.426-13.19-1.087-6.586-.662-13.144-1.56-6.557-.897-13.078-2.03t-12.997-2.497-12.9-2.962q-6.423-1.596-12.784-3.422t-12.654-3.88-12.507-4.33q-6.214-2.276-12.343-4.775t-12.164-5.216q-8.26-3.718-16.328-7.837-8.068-4.12-15.924-8.63t-15.48-9.4q-7.626-4.89-15.002-10.148t-14.485-10.872-13.934-11.57-13.35-12.24q-6.524-6.284-12.732-12.88-6.209-6.596-12.086-13.49-5.877-6.892-11.41-14.065-5.531-7.173-10.705-14.61-5.173-7.435-9.975-15.116-4.802-7.68-9.222-15.588t-8.446-16.021q-4.026-8.115-7.65-16.417-3.623-8.302-6.834-16.772-3.212-8.47-6.004-17.088t-5.158-17.361q-2.365-8.744-4.3-17.594-1.933-8.85-3.43-17.783t-2.555-17.93-1.672-18.035q-.614-9.037-.785-18.094-.17-9.057.104-18.111t.993-18.085 1.878-18.013 2.76-17.9 3.636-17.743 4.501-17.543 5.357-17.301 6.2-17.017 7.027-16.693q2.716-6.035 5.648-11.97 2.931-5.933 6.074-11.758t6.491-11.534q3.35-5.709 6.902-11.293 3.551-5.585 7.301-11.039t7.693-10.77q3.943-5.315 8.074-10.486t8.445-10.191q4.314-5.02 8.805-9.881t9.154-9.56 9.49-9.224q4.829-4.527 9.816-8.878t10.127-8.52q5.14-4.17 10.427-8.153 5.286-3.982 10.712-7.773t10.984-7.383q5.558-3.594 11.241-6.985 5.684-3.392 11.485-6.578 5.802-3.185 11.714-6.161t11.927-5.737q6.014-2.762 12.124-5.306t12.308-4.868 12.474-4.423q6.276-2.1 12.624-3.973t12.76-3.518 12.876-3.057 12.979-2.594 13.063-2.127q6.55-.947 13.13-1.658 6.58-.71 13.182-1.185 6.602-.474 13.216-.712Q393.381 1 400 1v369z"/><path fill="none" stroke="#fff" stroke-linejoin="bevel" stroke-width="2" d="M676.238 125.35q6.006 6.782 11.672 13.85t10.978 14.404 10.258 14.927 9.513 15.411 8.746 15.86q4.178 8.038 7.957 16.27 3.778 8.233 7.148 16.641t6.324 16.972q2.954 8.563 5.484 17.261t4.63 17.51 3.764 17.716 2.892 17.879 2.01 18 1.125 18.076q.34 9.052.237 18.11t-.653 18.1-1.54 18.045-2.423 17.949q-1.431 8.944-3.3 17.808-1.87 8.863-4.172 17.624-2.301 8.762-5.03 17.4t-5.878 17.13q-3.15 8.493-6.712 16.822-3.563 8.329-7.53 16.472t-8.328 16.083q-4.361 7.94-9.107 15.655-4.746 7.716-9.865 15.19T693.84 593.2t-11.306 14.15-11.986 13.577-12.639 12.973-13.26 12.337q-4.954 4.388-10.063 8.596t-10.365 8.23q-5.257 4.021-10.654 7.852-5.398 3.83-10.929 7.465t-11.19 7.069q-5.657 3.433-11.435 6.662-5.777 3.23-11.667 6.249-5.89 3.02-11.884 5.825-5.994 2.807-12.085 5.397-6.09 2.59-12.27 4.959-6.18 2.37-12.441 4.516t-12.595 4.066-12.732 3.613q-6.4 1.692-12.854 3.154-6.455 1.461-12.959 2.69-6.503 1.23-13.047 2.225-6.543.995-13.118 1.754-6.575.76-13.172 1.284-6.598.523-13.21.81t-13.231.336q-6.619.05-13.235-.139-6.615-.188-13.22-.613-6.605-.426-13.19-1.087-6.586-.662-13.144-1.56-6.557-.897-13.078-2.03t-12.997-2.497-12.9-2.962q-6.423-1.596-12.784-3.422t-12.654-3.88-12.507-4.33q-6.214-2.276-12.343-4.775t-12.164-5.216q-8.26-3.718-16.328-7.837-8.068-4.12-15.924-8.63t-15.48-9.4q-7.626-4.89-15.002-10.148t-14.485-10.872-13.934-11.57-13.35-12.24q-6.524-6.284-12.732-12.88-6.209-6.596-12.086-13.49-5.877-6.892-11.41-14.065-5.531-7.173-10.705-14.61-5.173-7.435-9.975-15.116-4.802-7.68-9.222-15.588t-8.446-16.021q-4.026-8.115-7.65-16.417-3.623-8.302-6.834-16.772-3.212-8.47-6.004-17.088t-5.158-17.361q-2.365-8.744-4.3-17.594-1.933-8.85-3.43-17.783t-2.555-17.93-1.672-18.035q-.614-9.037-.785-18.094-.17-9.057.104-18.111t.993-18.085 1.878-18.013 2.76-17.9 3.636-17.743 4.501-17.543 5.357-17.301 6.2-17.017 7.027-16.693q2.716-6.035 5.648-11.97 2.931-5.933 6.074-11.758t6.491-11.534q3.35-5.709 6.902-11.293 3.551-5.585 7.301-11.039t7.693-10.77q3.943-5.315 8.074-10.486t8.445-10.191q4.314-5.02 8.805-9.881t9.154-9.56 9.49-9.224q4.829-4.527 9.816-8.878t10.127-8.52q5.14-4.17 10.427-8.153 5.286-3.982 10.712-7.773t10.984-7.383q5.558-3.594 11.241-6.985 5.684-3.392 11.485-6.578 5.802-3.185 11.714-6.161t11.927-5.737q6.014-2.762 12.124-5.306t12.308-4.868 12.474-4.423q6.276-2.1 12.624-3.973t12.76-3.518 12.876-3.057 12.979-2.594 13.063-2.127q6.55-.947 13.13-1.658 6.58-.71 13.182-1.185 6.602-.474 13.216-.712Q393.381 1 400 1v369l276.238-244.65Z"/></svg>