<svg xmlns="http://www.w3.org/2000/svg" width="800" height="800"><path fill="none" d="M0 0h800v800H0z"/><clipPath id="a"><path d="M0 740h800v60H0z"/></clipPath><g clip-path="url(#a)"><path fill="#4caf50" d="M144.605 770h40v20h-40z"/><path fill="none" stroke="#fff" stroke-miterlimit="10" stroke-width="2" d="M144.605 770h40v20h-40z"/><text x="194.605, 207.94484, 217.50539, 230.38625, 240.64992, 248.68703, 260.52295," y="787.5," fill="#666" font-family="DejaVu Serif" font-size="20">Trusted</text><path fill="#ff9800" d="M303.325 770h40v20h-40z"/><path fill="none" stroke="#fff" stroke-miterlimit="10" stroke-width="2" d="M303.325 770h40v20h-40z"/><text x="353.32501, 366.78204, 376.34259, 388.38361, 399.68243, 411.51837, 424.39923, 436.32306, 449.20392, 460.40509," y="787.5," fill="#666" font-family="DejaVu Serif" font-size="20">Provenance</text><path fill="#f44336" d="M502.245 770h40v20h-40z"/><path fill="none" stroke="#fff" stroke-miterlimit="10" stroke-width="2" d="M502.245 770h40v20h-40z"/><text x="552.245, 569.10046, 581.98132, 590.01843, 599.57898, 612.45984, 622.72351, 630.76062, 642.59656," y="787.5," fill="#666" font-family="DejaVu Serif" font-size="20">Untrusted</text></g><path fill="#4caf50" d="M400 1q12.142 0 24.258.798t24.154 2.392 23.944 3.973 23.63 5.54q11.725 3.158 23.216 7.08t22.7 8.593q11.209 4.67 22.086 10.065 10.877 5.397 21.376 11.496L400 370z"/><path fill="none" stroke="#fff" stroke-linejoin="bevel" stroke-width="2" d="M400 1q12.142 0 24.258.798t24.154 2.392 23.944 3.973 23.63 5.54q11.725 3.158 23.216 7.08t22.7 8.593q11.209 4.67 22.086 10.065 10.877 5.397 21.376 11.496L400 370z"/><path fill="#ff9800" d="M585.364 50.937q13.16 7.646 25.646 16.35 12.486 8.703 24.213 18.405t22.614 20.336 20.863 22.13L400 370z"/><path fill="none" stroke="#fff" stroke-linejoin="bevel" stroke-width="2" d="M585.364 50.937q13.16 7.646 25.646 16.35 12.486 8.703 24.213 18.405t22.614 20.336 20.863 22.13L400 370 585.364 50.937Z"/><path fill="#f44336" d="M678.7 128.159q5.937 6.841 11.531 13.966t10.832 14.516 10.106 15.029 9.357 15.507q4.488 7.869 8.584 15.948 4.097 8.08 7.792 16.35t6.98 16.712 6.152 17.035 5.308 17.316 4.453 17.555q2.01 8.833 3.585 17.753t2.71 17.908q1.136 8.987 1.829 18.019t.942 18.087.053 18.11-.836 18.093-1.722 18.03q-1.082 8.993-2.605 17.923t-3.48 17.773q-1.96 8.844-4.35 17.582-2.39 8.737-5.206 17.347t-6.052 17.07-6.881 16.753-7.696 16.396-8.49 15.998-9.266 15.562-10.018 15.088-10.746 14.58-11.448 14.033-12.124 13.456-12.769 12.844-13.384 12.202q-4.976 4.319-10.104 8.457t-10.4 8.09q-5.273 3.953-10.683 7.715t-10.951 7.328-11.206 6.932-11.446 6.528q-5.781 3.162-11.672 6.115-5.89 2.953-11.882 5.694-5.993 2.741-12.079 5.266t-12.259 4.832q-6.172 2.307-12.423 4.391t-12.573 3.945-12.705 3.493-12.822 3.038-12.922 2.577-13.005 2.115-13.074 1.65q-6.55.707-13.123 1.18-6.572.474-13.157.712-6.586.239-13.175.242t-13.175-.229q-6.585-.232-13.158-.699t-13.124-1.168-13.075-1.637-13.008-2.102-12.925-2.565-12.824-3.025q-6.386-1.627-12.709-3.48-6.323-1.855-12.576-3.933-6.253-2.079-12.428-4.379t-12.263-4.82-12.084-5.254q-8.241-3.76-16.288-7.92t-15.88-8.71-15.433-9.479-14.95-10.224-14.43-10.945-13.875-11.64-13.287-12.308-12.668-12.944-12.017-13.55-11.338-14.124-10.631-14.663-9.899-15.167-9.143-15.634-8.364-16.064-7.567-16.455-6.75-16.807-5.917-17.118-5.07-17.387-4.21-17.615-3.342-17.8q-1.452-8.942-2.463-17.944t-1.58-18.042q-.57-9.04-.694-18.098-.125-9.058.195-18.11.32-9.053 1.084-18.08t1.97-18.004q1.206-8.977 2.851-17.885t3.725-17.724q2.08-8.817 4.59-17.52 2.51-8.704 5.445-17.274 2.934-8.57 6.285-16.986t7.111-16.657q2.736-5.995 5.683-11.888 2.948-5.894 6.104-11.678t6.516-11.453q3.36-5.668 6.922-11.212 3.56-5.545 7.317-10.958 3.756-5.414 7.704-10.69 3.947-5.277 8.08-10.408 4.133-5.132 8.447-10.113t8.803-9.805 9.147-9.485 9.48-9.152q4.822-4.49 9.8-8.807 4.98-4.316 10.11-8.452t10.404-8.086q5.274-3.95 10.686-7.709t10.954-7.322 11.21-6.927 11.449-6.522 11.675-6.11 11.885-5.688 12.081-5.26 12.261-4.826 12.426-4.385 12.574-3.939 12.707-3.487 12.823-3.031q6.44-1.401 12.924-2.571t13.007-2.109q6.522-.938 13.074-1.642 6.551-.705 13.124-1.175 6.572-.47 13.157-.706Q393.411 1 400 1v369z"/><path fill="none" stroke="#fff" stroke-linejoin="bevel" stroke-width="2" d="M678.7 128.159q5.937 6.841 11.531 13.966t10.832 14.516 10.106 15.029 9.357 15.507q4.488 7.869 8.584 15.948 4.097 8.08 7.792 16.35t6.98 16.712 6.152 17.035 5.308 17.316 4.453 17.555q2.01 8.833 3.585 17.753t2.71 17.908q1.136 8.987 1.829 18.019t.942 18.087.053 18.11-.836 18.093-1.722 18.03q-1.082 8.993-2.605 17.923t-3.48 17.773q-1.96 8.844-4.35 17.582-2.39 8.737-5.206 17.347t-6.052 17.07-6.881 16.753-7.696 16.396-8.49 15.998-9.266 15.562-10.018 15.088-10.746 14.58-11.448 14.033-12.124 13.456-12.769 12.844-13.384 12.202q-4.976 4.319-10.104 8.457t-10.4 8.09q-5.273 3.953-10.683 7.715t-10.951 7.328-11.206 6.932-11.446 6.528q-5.781 3.162-11.672 6.115-5.89 2.953-11.882 5.694-5.993 2.741-12.079 5.266t-12.259 4.832q-6.172 2.307-12.423 4.391t-12.573 3.945-12.705 3.493-12.822 3.038-12.922 2.577-13.005 2.115-13.074 1.65q-6.55.707-13.123 1.18-6.572.474-13.157.712-6.586.239-13.175.242t-13.175-.229q-6.585-.232-13.158-.699t-13.124-1.168-13.075-1.637-13.008-2.102-12.925-2.565-12.824-3.025q-6.386-1.627-12.709-3.48-6.323-1.855-12.576-3.933-6.253-2.079-12.428-4.379t-12.263-4.82-12.084-5.254q-8.241-3.76-16.288-7.92t-15.88-8.71-15.433-9.479-14.95-10.224-14.43-10.945-13.875-11.64-13.287-12.308-12.668-12.944-12.017-13.55-11.338-14.124-10.631-14.663-9.899-15.167-9.143-15.634-8.364-16.064-7.567-16.455-6.75-16.807-5.917-17.118-5.07-17.387-4.21-17.615-3.342-17.8q-1.452-8.942-2.463-17.944t-1.58-18.042q-.57-9.04-.694-18.098-.125-9.058.195-18.11.32-9.053 1.084-18.08t1.97-18.004q1.206-8.977 2.851-17.885t3.725-17.724q2.08-8.817 4.59-17.52 2.51-8.704 5.445-17.274 2.934-8.57 6.285-16.986t7.111-16.657q2.736-5.995 5.683-11.888 2.948-5.894 6.104-11.678t6.516-11.453q3.36-5.668 6.922-11.212 3.56-5.545 7.317-10.958 3.756-5.414 7.704-10.69 3.947-5.277 8.08-10.408 4.133-5.132 8.447-10.113t8.803-9.805 9.147-9.485 9.48-9.152q4.822-4.49 9.8-8.807 4.98-4.316 10.11-8.452t10.404-8.086q5.274-3.95 10.686-7.709t10.954-7.322 11.21-6.927 11.449-6.522 11.675-6.11 11.885-5.688 12.081-5.26 12.261-4.826 12.426-4.385 12.574-3.939 12.707-3.487 12.823-3.031q6.44-1.401 12.924-2.571t13.007-2.109q6.522-.938 13.074-1.642 6.551-.705 13.124-1.175 6.572-.47 13.157-.706Q393.411 1 400 1v369l278.7-241.841Z"/></svg>