<svg xmlns="http://www.w3.org/2000/svg" width="1000" height="500"><path fill="none" d="M0 0h1000v500H0z"/><path fill="none" stroke="#000" stroke-miterlimit="10" stroke-opacity=".098" d="M48.5 41.6V389M48.5 390v7.475M128.5 41.6V389M128.5 390v7.475M207.5 41.6V389M207.5 390v7.475M287.5 41.6V389M287.5 390v7.475M366.5 41.6V389M366.5 390v7.475M446.5 41.6V389M446.5 390v7.475M526.5 41.6V389M526.5 390v7.475M605.5 41.6V389M605.5 390v7.475M685.5 41.6V389M685.5 390v7.475M764.5 41.6V389M764.5 390v7.475M844.5 41.6V389M844.5 390v7.475M924.5 41.6V389M924.5 390v7.475M49 389.5h951M40.68 389.5H48M49 354.5h951M40.68 354.5H48M49 319.5h951M40.68 319.5H48M49 285.5h951M40.68 285.5H48M49 250.5h951M40.68 250.5H48M49 215.5h951M40.68 215.5H48M49 180.5h951M40.68 180.5H48M49 145.5h951M40.68 145.5H48M49 111.5h951M40.68 111.5H48M49 76.5h951M40.68 76.5H48M49 41.5h951M40.68 41.5H48"/><clipPath id="a"><path d="M0 458h1000v42H0z"/></clipPath><g clip-path="url(#a)"><path fill="#4caf50" d="M307.68 474h40v16h-40z"/><path fill="none" stroke="#4caf50" stroke-miterlimit="10" stroke-width="2" d="M307.68 474h40v16h-40z"/><text x="355.67999, 363.39203, 368.72003, 377.61603, 385.61606, 390.65607, 399.24808," y="487.5," fill="#666" font-family="Helvetica Neue" font-size="16">Trusted</text><path fill="#ff9800" d="M424.74 474h40v16h-40z"/><path fill="none" stroke="#ff9800" stroke-miterlimit="10" stroke-width="2" d="M424.74 474h40v16h-40z"/><text x="472.73999, 483.10803, 488.14804, 497.33206, 505.33209, 513.92407, 522.82007, 531.41211, 540.30811, 548.90015," y="487.5," fill="#666" font-family="Helvetica Neue" font-size="16">Provenance</text><path fill="#f44336" d="M573.49 474h40v16h-40z"/><path fill="none" stroke="#f44336" stroke-miterlimit="10" stroke-width="2" d="M573.49 474h40v16h-40z"/><text x="621.48999, 633.04199, 641.93799, 646.97803, 652.30603, 661.20203, 669.20209, 674.24207, 682.83411," y="487.5," fill="#666" font-family="Helvetica Neue" font-size="16">Untrusted</text></g><text x="-227.22, -217.21207, -206.53813, -191.18423, -186.18027, -177.84633, -167.51439, -156.84045, -151.83649, -140.17256, -130.50662, -120.84068, -111.49875, -101.83281, -91.50087, -81.83493, -72.834991, -67.831024, -49.831131, -44.827164, -33.163239, -27.493286, -17.161346, -8.1614075, 1.5045319, 11.512466, 21.178406, 31.18634, 40.852264, 50.518219, 55.522186, 67.186127, 72.85611, 82.522064, 88.192047, 98.199982, 107.19992, 112.20389, 125.88382, 134.88376, 144.54971, 150.54367, 155.54764, 165.87958, 169.87555, 185.22946, 194.89542, 199.89938, 204.56137, 222.56125," y="6.5," fill="#666" font-family="Helvetica Neue" font-size="18" transform="translate(500 18.8)">npm Top Packages — Provenance Status Over Time (%)</text><path fill="none" stroke="#000" stroke-miterlimit="10" stroke-opacity=".098" d="M48 389.5h953"/><clipPath id="b"><path d="M0 389.475h1000V458H0z"/></clipPath><g fill="#666" clip-path="url(#b)" font-family="Helvetica Neue" font-size="12"><text x="-62.709999, -56.037956, -49.365913, -42.693871, -36.021828, -31.353798, -24.681755, -18.009712, -13.341682, -6.6696396," y="12.2," transform="rotate(-45 505.21 147.621)">2025-08-30</text><text x="-62.709999, -56.037956, -49.365913, -42.693871, -36.021828, -31.353798, -24.681755, -18.009712, -13.341682, -6.6696396," y="12.2," transform="rotate(-45 545 51.562)">2025-09-24</text><text x="-62.709999, -56.037956, -49.365913, -42.693871, -36.021828, -31.353798, -24.681755, -18.009712, -13.341682, -6.6696396," y="12.2," transform="rotate(-45 584.789 -44.497)">2025-10-16</text><text x="-62.709999, -56.037956, -49.365913, -42.693871, -36.021828, -31.353798, -24.681755, -18.009712, -13.341682, -6.6696396," y="12.2," transform="rotate(-45 624.578 -140.557)">2025-11-07</text><text x="-62.709999, -56.037956, -49.365913, -42.693871, -36.021828, -31.353798, -24.681755, -18.009712, -13.341682, -6.6696396," y="12.2," transform="rotate(-45 664.367 -236.616)">2025-11-29</text><text x="-62.709999, -56.037956, -49.365913, -42.693871, -36.021828, -31.353798, -24.681755, -18.009712, -13.341682, -6.6696396," y="12.2," transform="rotate(-45 704.156 -332.675)">2025-12-21</text><text x="-62.709999, -56.037956, -49.365913, -42.693871, -36.021828, -31.353798, -24.681755, -18.009712, -13.341682, -6.6696396," y="12.2," transform="rotate(-45 743.945 -428.734)">2026-01-12</text><text x="-62.709999, -56.037956, -49.365913, -42.693871, -36.021828, -31.353798, -24.681755, -18.009712, -13.341682, -6.6696396," y="12.2," transform="rotate(-45 783.734 -524.793)">2026-02-03</text><text x="-62.709999, -56.037956, -49.365913, -42.693871, -36.021828, -31.353798, -24.681755, -18.009712, -13.341682, -6.6696396," y="12.2," transform="rotate(-45 823.523 -620.853)">2026-02-25</text><text x="-62.709999, -56.037956, -49.365913, -42.693871, -36.021828, -31.353798, -24.681755, -18.009712, -13.341682, -6.6696396," y="12.2," transform="rotate(-45 863.312 -716.913)">2026-03-19</text><text x="-62.709999, -56.037956, -49.365913, -42.693871, -36.021828, -31.353798, -24.681755, -18.009712, -13.341682, -6.6696396," y="12.2," transform="rotate(-45 903.101 -812.972)">2026-04-10</text><text x="-62.709999, -56.037956, -49.365913, -42.693871, -36.021828, -31.353798, -24.681755, -18.009712, -13.341682, -6.6696396," y="12.2," transform="rotate(-45 942.89 -909.03)">2026-05-02</text></g><path fill="none" stroke="#000" stroke-miterlimit="10" stroke-opacity=".098" d="M48.5 41v349"/><clipPath id="c"><path d="M0 0h48.68v500H0z"/></clipPath><g fill="#666" clip-path="url(#c)" font-family="Helvetica Neue" font-size="13"><text x="-20.23, -13.001987," y="5," transform="translate(37.68 389.475)">0%</text><text x="-27.459999, -20.231987, -13.003975," y="5," transform="translate(37.68 354.688)">10%</text><text x="-27.459999, -20.231987, -13.003975," y="5," transform="translate(37.68 319.9)">20%</text><text x="-27.459999, -20.231987, -13.003975," y="5," transform="translate(37.68 285.112)">30%</text><text x="-27.459999, -20.231987, -13.003975," y="5," transform="translate(37.68 250.325)">40%</text><text x="-27.459999, -20.231987, -13.003975," y="5," transform="translate(37.68 215.537)">50%</text><text x="-27.459999, -20.231987, -13.003975," y="5," transform="translate(37.68 180.75)">60%</text><text x="-27.459999, -20.231987, -13.003975," y="5," transform="translate(37.68 145.962)">70%</text><text x="-27.459999, -20.231987, -13.003975," y="5," transform="translate(37.68 111.175)">80%</text><text x="-27.459999, -20.231987, -13.003975," y="5," transform="translate(37.68 76.388)">90%</text><text x="-34.68, -27.451988, -20.223976, -12.995964," y="5," transform="translate(37.68 41.6)">100%</text></g><clipPath id="d"><path d="M47.68 41.6H1001v348.875H47.68z"/></clipPath><g clip-path="url(#d)"><path fill="none" stroke="#f44336" stroke-miterlimit="10" stroke-width="2" d="M48.68 67.725h3.617c.724 0 2.897-.045 3.617 0 .727.046 2.891.397 3.618.453.72.055 2.893.094 3.617.104.723.01 2.893 0 3.617 0h3.617c.724 0 2.894-.003 3.617 0 .724.003 2.894.028 3.617.035.724.007 2.894.031 3.618.035.723.003 2.9-.066 3.617 0 .73.066 2.888.59 3.617.66.718.07 2.894.025 3.617.035.724.01 2.895.035 3.617.07.725.035 2.893.24 3.618.278.722.038 2.896.046 3.617.105.726.059 2.89.427 3.617.487.72.058 2.894.08 3.617.104.724.024 2.894.118 3.617.14.724.02 2.894.062 3.618.069s2.893-.004 3.617 0c.723.003 2.894.017 3.617.034.724.018 2.893.119 3.617.14.723.02 2.894.062 3.617.07.724.006 2.894 0 3.617 0 .724 0 2.894-.008 3.618 0 .723.006 2.893.065 3.617.069.723.003 2.894-.035 3.617-.035s2.894.031 3.617.035c.724.003 2.897-.045 3.617 0 .727.045 2.891.4 3.618.452.72.052 2.903-.023 3.617.07.733.095 2.883.778 3.617.87.713.088 2.894.027 3.617.034.724.007 2.895.007 3.617.035.725.028 2.893.209 3.618.243.722.035 2.893.094 3.617.105.723.01 2.894-.007 3.617 0s2.894.062 3.617.07c.723.006 2.894-.008 3.617 0 .724.006 2.894.062 3.617.069.724.007 2.894-.01 3.618 0s2.893.09 3.617.104c.723.014 2.894.018 3.617.035.724.017 2.909.02 3.617.14.739.123 2.879.964 3.617 1.078.708.109 2.894.03 3.618.034s2.893 0 3.617 0c.723 0 2.894-.014 3.617 0 .724.014 2.894.101 3.617.14.724.038 2.893.205 3.617.243.723.038 2.908.023 3.618.14.737.12 2.88.922 3.617 1.043.709.116 2.893.129 3.617.139.723.01 2.894-.035 3.617-.035s2.894.028 3.617.035c.724.007 2.894.024 3.617.035.724.01 2.898.01 3.618.07.727.059 2.89.462 3.617.521.72.059 2.894.056 3.617.07s2.894.062 3.617.07c.724.006 2.894 0 3.617 0 .724 0 2.894-.011 3.618 0s2.893.1 3.617.104c.723.003 2.893-.07 3.617-.07.723 0 2.894.052 3.617.07.724.017 2.894.09 3.617.104.724.014 2.894.028 3.617.035.724.007 2.909-.071 3.618.035.738.11 2.879.93 3.617 1.043.709.11 2.894.056 3.617.07s2.894.059 3.617.07c.724.01 2.894.017 3.617.034.724.018 2.894.125 3.618.14.723.013 2.893-.008 3.617 0 .723.006 2.893.065 3.617.069.723.003 2.894-.031 3.617-.035.724-.003 2.894-.017 3.617 0 .724.017 2.894.157 3.618.174s2.893 0 3.617 0h3.617c.723 0 2.894-.01 3.617 0 .724.01 2.894.094 3.617.104.724.01 2.894-.003 3.617 0 .724.004 2.894.021 3.618.035s2.893.087 3.617.105c.723.017 2.895.034 3.617.07.724.034 2.893.246 3.617.277.723.032 2.894.014 3.617.035.724.021 2.894.153 3.618.174s2.893.021 3.617.035c.723.014 2.893.094 3.617.104.723.01 2.895-.024 3.617 0 .724.025 3.149-.202 3.617.244.978.931 2.639 5.74 3.618 6.644.468.432 2.894.014 3.617.035.724.02 2.893.157 3.617.174.723.017 2.894-.007 3.617 0 .724.007 2.897.014 3.617.07.727.055 2.891.417 3.617.487.721.069 2.894.18 3.618.208s2.9-.003 3.617.07c.73.073 2.888.587 3.617.66.718.073 2.894.06 3.617.07.724.01 2.895 0 3.617.035.725.035 2.893.261 3.618.313.722.052 2.897.13 3.617.209.727.08 2.889.532 3.617.591.719.06 2.894-.003 3.617 0 .724.004 2.894.021 3.617.035.724.014 2.894.087 3.618.105.723.017 2.893.059 3.617.07.723.01 2.894.02 3.617.034s2.893.09 3.617.104c.723.014 2.894.032 3.617.035.724.004 2.894-.003 3.617 0 .724.004 2.894.031 3.618.035.723.003 2.893-.004 3.617 0 .723.003 2.894.024 3.617.035.723.01 2.894.055 3.617.07.724.013 2.894.062 3.617.069.724.007 2.894-.004 3.618 0 .723.003 2.898-.024 3.617.035.727.059 2.89.48 3.617.556.72.076 2.893.181 3.617.209.723.028 2.894.059 3.617.07.724.01 2.895 0 3.617.034.725.035 2.894.258 3.618.313.723.056 2.893.212 3.617.244.723.031 2.894.049 3.617.07.724.02 2.894.118 3.617.139.723.02 2.894.062 3.617.07.724.006 2.92-.135 3.618 0 .748.143 2.87 1.222 3.617 1.39.7.159 2.894.192 3.617.244.724.052 2.893.244 3.617.278.723.035 2.894.056 3.617.07.724.014 2.894.049 3.618.07.723.02 2.893.118 3.617.139.723.02 2.893.062 3.617.07.723.006 2.895-.032 3.617 0 .725.03 2.893.27 3.617.312.723.042 2.894.087 3.617.105.724.017 2.894.059 3.618.07.723.01 2.893.024 3.617.034.723.01 2.893.063 3.617.07.723.007 2.894-.018 3.617 0 .724.017 2.894.139 3.617.174.724.034 2.974-.083 3.618.174.803.32 2.813 2.4 3.617 2.713.643.25 2.893.087 3.617.104.723.018 2.894.039 3.617.07.724.031 2.893.216 3.617.243.723.028 2.894.028 3.618.035s2.893.018 3.617.035c.723.017 2.895.09 3.617.14.725.048 2.892.305 3.617.347.722.042 2.894.052 3.617.07.724.017 2.894.09 3.617.104.724.014 2.894.024 3.618.035.723.01 2.894.042 3.617.07.724.027 2.893.18 3.617.208.723.028 2.894.056 3.617.07.724.014 2.894.052 3.617.07.724.017 2.894.08 3.618.104s2.893.121 3.617.139c.723.017 2.894.017 3.617.035.724.017 2.893.121 3.617.139.723.017 2.894.028 3.617.034l3.618.035c.723.007 2.893.021 3.617.035.723.014 2.896.052 3.617.104.726.053 2.891.372 3.617.418.721.045 2.894.028 3.617.035.724.007 2.894.02 3.617.034.724.014 2.894.084 3.618.105s2.893.09 3.617.104c.723.014 2.895.004 3.617.035.724.031 2.893.243 3.617.278.723.035 2.894.06 3.617.07.724.01 2.894.031 3.618.035.723.003 2.893-.01 3.617 0 .723.01 2.893.087 3.617.104.723.017 2.894.056 3.617.07.724.013 2.894.052 3.617.07.724.017 2.894.08 3.618.103.723.025 2.893.122 3.617.14.723.017 2.895 0 3.617.034.725.035 2.892.275 3.617.314.722.038 2.894.045 3.617.07.724.023 2.894.131 3.617.173.724.042 2.893.212 3.618.244.722.03 2.894.048 3.617.07.723.02 2.893.12 3.617.138.723.018 2.894.014 3.617.035.724.02 2.894.153 3.617.174s2.896-.007 3.618.035c.725.042 2.892.327 3.617.382.722.056 2.894.133 3.617.174.724.042 2.893.209 3.617.244.723.035 2.894.094 3.617.104.724.01 2.894-.007 3.617 0 .724.007 2.894.056 3.618.07l3.617.07c.723.013 2.894.041 3.617.069.724.028 2.893.18 3.617.209.723.028 2.894.055 3.617.07.724.013 2.894.062 3.618.069s2.893-.007 3.617 0c.723.007 2.893.056 3.617.07.723.013 2.894.052 3.617.069.724.017 2.894.09 3.617.104.724.014 2.895.01 3.618.035s2.893.184 3.617.209c.723.024 2.894.01 3.617.035.724.024 2.893.187 3.617.208.723.021 2.894-.014 3.617 0 .724.014 2.899.064 3.617.14.729.077 2.889.552 3.618.626.718.072 2.893.083 3.617.104.723.02 2.894.08 3.617.104.724.025 2.893.122 3.617.14.723.017 2.894.03 3.617.034.724.004 2.894-.007 3.618 0s2.893.056 3.617.07c.723.014 2.893.06 3.617.07.723.01 2.894.024 3.617.034.724.01 2.894.052 3.617.07.724.017 2.894.09 3.618.104s2.893.025 3.617.035c.723.01 2.897.014 3.617.07.726.056 2.89.434 3.617.487.72.052 2.894.03 3.617.034.724.004 2.896-.041 3.617 0 .726.042 2.892.369 3.618.418.72.048 2.893.062 3.617.07.723.006 2.894-.004 3.617 0 .723.003 2.894.024 3.617.034.724.01 2.894.06 3.617.07.724.01 2.898-.024 3.617.035.728.06 2.89.49 3.618.556.72.066 2.894.073 3.617.105.724.03 2.893.187 3.617.208.723.021 2.894-.003 3.617 0 .724.004 2.894.021 3.617.035.724.014 2.894.09 3.618.104s2.893.025 3.617.035c.723.01 2.894.06 3.617.07s2.894.017 3.617.035c.724.017 2.894.118 3.617.139.724.02 2.894.059 3.618.07.723.01 2.894.013 3.617.034.724.021 2.893.15 3.617.174.723.024 2.894.056 3.617.07.724.014 2.895.034 3.617.07.725.034 2.893.236 3.617.277.723.042 2.894.122 3.618.14.723.017 2.893.027 3.617.034.723.007 2.897-.02 3.617.035.727.056 2.89.466 3.617.522.72.055 2.894.02 3.617.035.724.014 2.896.059 3.618.104.725.045 2.892.306 3.617.348.722.042 2.894.056 3.617.07"/><path d="m388.696 80.093 5.196 9h-10.393z"/><path fill="none" stroke="#000" stroke-miterlimit="10" stroke-width="2" d="m388.696 80.093 5.196 9h-10.393z"/></g><clipPath id="e"><path d="M47.68 41.6H1001v348.875H47.68z"/></clipPath><g clip-path="url(#e)"><path fill="none" stroke="#ff9800" stroke-miterlimit="10" stroke-width="2" d="M48.68 365.263h3.617c.724 0 2.9-.066 3.617 0 .73.067 2.888.594 3.618.66.717.066 2.893 0 3.617 0 .723 0 2.894-.003 3.617 0 .723.004 2.896-.01 3.617.036.726.045 2.892.365 3.617.417.721.052 2.894.09 3.617.104.724.014 2.894.021 3.618.035s2.893.094 3.617.105c.723.01 2.894-.004 3.617 0 .724.003 2.895.007 3.617.034.724.028 2.893.22 3.617.244.723.024 2.894.003 3.618 0 .723-.004 2.894-.049 3.617-.035.724.014 2.893.15 3.617.174.723.024 2.894.06 3.617.07.724.01 2.894.027 3.617.034.724.007 2.894.032 3.618.035s2.894-.017 3.617 0c.724.018 2.893.153 3.617.174.723.021 2.894.031 3.617.035.724.003 2.896-.038 3.617 0 .726.038 2.892.344 3.617.383.722.038 2.894-.004 3.618 0 .723.003 2.893.03 3.617.034.723.004 2.928-.159 3.617 0 .758.175 2.859 1.492 3.617 1.67.689.162 2.894.028 3.617.035.724.007 2.894.024 3.618.035.723.01 2.893.059 3.617.07.723.01 2.894.027 3.617.034s2.894.031 3.617.035c.724.003 2.905-.09 3.617 0 .735.092 2.883.81 3.618.904.712.093 2.893.028 3.617.035l3.617.035c.723.007 2.894.024 3.617.035.724.01 2.894.07 3.617.07.724 0 2.894-.063 3.617-.07.724-.007 2.894-.007 3.618 0s2.893.066 3.617.07c.723.003 2.894-.042 3.617-.035.724.007 2.894.093 3.617.104s2.894-.017 3.617 0c.724.017 2.894.156 3.618.174s2.893 0 3.617 0h3.617c.723 0 2.896-.038 3.617 0 .726.038 2.915.217 3.617.382.744.176 2.873 1.147 3.618 1.322.702.166 2.891.341 3.617.383.721.042 2.893.028 3.617.035.723.007 2.894.031 3.617.035.723.003 2.894-.007 3.617 0 .724.007 2.894.055 3.617.07.724.013 2.894.051 3.618.069.723.017 2.893.097 3.617.104.723.007 2.894-.031 3.617-.035.723-.003 2.894 0 3.617 0h3.617c.724 0 2.894-.01 3.618 0s2.894.077 3.617.105 2.893.153 3.617.174c.723.02 2.894.017 3.617.034.724.018 2.894.122 3.617.14.723.017 2.894.03 3.617.034.724.004 2.894-.007 3.618 0s2.894.046 3.617.07c.724.024 2.893.15 3.617.174.723.024 2.894.056 3.617.07.724.013 2.894.048 3.617.07.724.02 2.894.12 3.618.138s2.893.035 3.617.035c.723 0 2.894-.035 3.617-.035s2.894.018 3.617.035c.724.017 2.894.125 3.617.14.724.013 2.896-.042 3.618 0 .725.041 2.89.371 3.617.417.72.045 2.893.03 3.617.034.723.004 2.894.004 3.617 0 .724-.003 2.894-.03 3.617-.034.724-.004 2.894 0 3.617 0 .724 0 2.894-.007 3.618 0s2.893.062 3.617.07c.723.006 2.894.01 3.617 0 .724-.011 2.894-.102 3.617-.105.724-.004 2.894.076 3.617.07.724-.008 2.894-.126 3.618-.14s2.893 0 3.617 0c.723 0 2.894-.003 3.617 0 .723.004 2.894.028 3.617.035.724.007 3.21.512 3.617.035 1.04-1.22 2.578-7.349 3.618-8.523.407-.461 3.024.009 3.617.348.854.489 2.76 3.343 3.617 3.792.59.31 2.894 0 3.617 0 .724 0 2.894-.007 3.617 0 .724.007 2.894.048 3.617.07.724.02 2.894.117 3.618.138s2.894.035 3.617.07c.724.035 2.893.25 3.617.278.722.028 2.894 0 3.617 0 .724 0 2.894-.01 3.617 0 .724.01 2.894.094 3.618.105s2.893 0 3.617 0c.723 0 2.894-.004 3.617 0 .723.003 2.913-.088 3.617.034.743.129 2.874 1.093 3.617 1.218.704.118 2.894-.014 3.618 0s2.893.118 3.617.14c.723.02 2.894.044 3.617.069.724.024 2.895.125 3.617.174.724.048 2.892.278 3.617.313.722.034 2.894.031 3.617.034.724.004 2.894 0 3.618 0s2.894-.02 3.617 0c.724.021 2.893.188 3.617.21.723.02 2.894-.004 3.617 0 .724.003 2.894.027 3.617.034.724.007 2.894.031 3.618.035.723.003 2.893 0 3.617 0h3.617c.723 0 2.894-.007 3.617 0 .724.007 2.894.055 3.617.07.724.013 2.894.062 3.617.069.724.007 2.894-.01 3.618 0s2.893.09 3.617.104c.723.014 2.894.032 3.617.035s2.894.007 3.617 0c.724-.007 2.894-.066 3.617-.07.724-.003 2.894.032 3.618.035s2.893-.003 3.617 0c.723.004 2.894.025 3.617.035s2.894.063 3.617.07c.724.007 2.894-.007 3.617 0 .724.007 2.894.059 3.618.07.723.01 2.893.03 3.617.034.723.003 2.893-.003 3.617 0 .723.003 2.894.024 3.617.035.724.01 2.894.062 3.617.07.724.006 2.894 0 3.617 0 .724 0 2.894-.004 3.618 0 .723.003 2.893.03 3.617.034.723.004 2.894-.003 3.617 0 .723.004 2.894.031 3.617.035.724.003 2.894 0 3.617 0 .724 0 2.894-.007 3.618 0s2.893.06 3.617.07c.723.01 2.893.027 3.617.034.723.007 2.894.035 3.617.035.724 0 2.894-.035 3.617-.035.724 0 2.894.032 3.618.035s2.893-.007 3.617 0c.723.007 2.893.06 3.617.07.723.01 2.894.027 3.617.034.724.007 2.894.032 3.617.035.724.004 2.894-.003 3.617 0 .724.004 2.894.028 3.618.035s2.893.024 3.617.035c.723.01 2.893.062 3.617.07.723.006 2.894-.008 3.617 0 .724.006 2.894.055 3.617.069.724.014 2.894.063 3.618.07.723.006 2.893-.004 3.617 0 .723.003 2.893.027 3.617.034l3.617.035c.724.007 2.894.024 3.617.035.724.01 2.894.052 3.618.07.723.017 2.893.09 3.617.104.723.014 2.893.031 3.617.035.723.003 2.894 0 3.617 0h3.617c.724 0 2.894-.007 3.617 0 .724.007 2.894.062 3.618.07.723.006 2.893.006 3.617 0 .723-.008 2.894-.074 3.617-.07.724.003 2.894.083 3.617.104.724.02 2.894.09 3.617.104.724.014 2.894.028 3.618.035s2.893.024 3.617.035c.723.01 2.894.049 3.617.07.724.02 2.893.118 3.617.139.723.02 2.894.055 3.617.07.724.013 2.894.062 3.618.069s2.893 0 3.617 0h3.617c.723 0 2.894-.007 3.617 0 .724.007 2.894.062 3.617.07.724.006 2.894 0 3.617 0 .724 0 2.894-.004 3.618 0 .723.003 2.893.027 3.617.034.723.007 2.894.035 3.617.035s2.894-.017 3.617-.035c.724-.017 2.894-.136 3.617-.139.724-.003 2.894.094 3.618.104s2.893 0 3.617 0h3.617c.723 0 2.894-.003 3.617 0 .724.004 2.894.032 3.617.035.724.004 2.894 0 3.617 0h3.618c.723 0 2.893-.003 3.617 0 .723.004 2.894.031 3.617.035.723.003 2.894.003 3.617 0 .724-.004 2.894-.035 3.617-.035.724 0 2.894.031 3.618.035.723.003 2.893 0 3.617 0h7.234c.724 0 2.894-.007 3.617 0 .724.007 2.894.076 3.618.07.723-.007 2.894-.147 3.617-.14s2.893.188 3.617.21c.723.02 2.894 0 3.617 0 .724 0 2.894-.015 3.617 0 .724.013 2.894.114 3.617.138.724.025 2.894.09 3.618.105s2.894.007 3.617.034c.724.028 2.893.237 3.617.244.723.007 2.893-.16 3.617-.174.723-.014 2.894.024 3.617.035.724.01 2.894.059 3.618.07.723.01 2.893.027 3.617.034.723.007 2.894.021 3.617.035.724.014 2.893.094 3.617.104.723.01 2.894-.003 3.617 0 .724.004 2.894.028 3.618.035s2.893.031 3.617.035c.723.003 2.9-.07 3.617 0 .73.07 2.888.604 3.617.696.718.09 2.893.187 3.617.208.723.021 2.894-.003 3.617 0 .724.004 2.894.032 3.618.035s2.893 0 3.617 0h3.617c.723 0 2.894-.003 3.617 0 .724.004 2.894.028 3.617.035.724.007 2.894.024 3.617.035.724.01 2.895.045 3.618.07.724.024 2.893.152 3.617.173.723.021 2.894.031 3.617.035.724.003 2.894 0 3.617 0h3.617c.724 0 2.894-.004 3.618 0 .723.003 2.895 0 3.617.035.725.035 2.892.275 3.617.313.722.038 2.894.052 3.617.07.724.017 2.894.093 3.617.104.724.01 2.894 0 3.618 0s2.893-.004 3.617 0c.723.003 2.893.035 3.617.035.723 0 2.894-.035 3.617-.035.724 0 2.894.031 3.617.035.724.003 2.894-.007 3.617 0 .724.007 2.894.062 3.618.07.723.006 2.893 0 3.617 0 .723 0 2.894-.004 3.617 0 .724.003 2.894.03 3.617.034.724.003 2.894 0 3.617 0 .724 0 2.894-.004 3.618 0 .723.003 2.893.031 3.617.035.723.003 2.894 0 3.617 0"/><path d="m388.696 360.41 5.196 9h-10.393z"/><path fill="none" stroke="#000" stroke-miterlimit="10" stroke-width="2" d="m388.696 360.41 5.196 9h-10.393z"/></g><clipPath id="f"><path d="M47.68 41.6H1001v348.875H47.68z"/></clipPath><g clip-path="url(#f)"><path fill="none" stroke="#4caf50" stroke-miterlimit="10" stroke-width="2" d="M48.68 387.562h3.617c.724 0 2.91.108 3.617 0 .74-.114 2.878-.989 3.618-1.114.707-.119 2.893-.093 3.617-.104.723-.01 2.894.007 3.617 0s2.896-.024 3.617-.07c.725-.045 2.892-.33 3.617-.382.722-.052 2.894-.115 3.617-.14.724-.024 2.894-.083 3.618-.104s2.899-.031 3.617-.104c.728-.074 2.888-.556 3.617-.626.718-.07 2.895-.032 3.617-.07.725-.038 2.894-.254 3.617-.313.724-.059 2.893-.243 3.618-.278.722-.035 2.9.003 3.617-.07.73-.073 2.888-.573 3.617-.66.718-.087 2.893-.175 3.617-.21.723-.034 2.894-.114 3.617-.139a313 313 0 0 1 3.618-.104c.723-.01 2.894.017 3.617 0 .724-.017 2.894-.136 3.617-.174.724-.038 2.893-.18 3.617-.209.723-.027 2.896-.02 3.617-.07.726-.048 2.892-.375 3.617-.417.722-.041 2.894.01 3.618 0s2.893-.097 3.617-.104c.723-.007 2.93.193 3.617.035.76-.175 2.858-1.522 3.617-1.705.687-.165 2.897.017 3.617-.035.727-.052 2.891-.427 3.618-.487.72-.058 2.903-.008 3.617-.104.733-.099 2.883-.774 3.617-.87.713-.092 2.894-.059 3.617-.07.724-.01 2.913.088 3.617-.034.743-.129 2.875-1.078 3.618-1.218.704-.132 2.893-.121 3.617-.139.723-.017 2.894-.024 3.617-.034s2.894-.06 3.617-.07 2.894-.028 3.617-.035c.724-.007 2.894-.031 3.617-.035.724-.003 2.894.014 3.618 0s2.893-.121 3.617-.139c.723-.017 2.894-.007 3.617-.035.724-.027 2.908-.114 3.617-.243.738-.135 2.88-.947 3.617-1.079.709-.126 2.894-.187 3.618-.208.722-.021 2.893 0 3.617 0 .723 0 2.894.014 3.617 0 .724-.014 2.898-.067 3.617-.14.728-.073 2.918-.389 3.617-.59.748-.216 2.89-1.206 3.618-1.497.72-.287 2.869-1.226 3.617-1.391.699-.155 2.893-.188 3.617-.209.723-.02 2.894.004 3.617 0 .724-.003 2.894-.02 3.617-.035.724-.014 2.894-.08 3.617-.104.724-.024 2.9-.063 3.618-.14.728-.076 2.888-.559 3.617-.625.718-.066 2.894-.025 3.617-.035s2.894-.063 3.617-.07c.724-.007 2.894 0 3.617 0 .724 0 2.895.021 3.618 0 .724-.02 2.893-.177 3.617-.208.723-.032 2.893-.087 3.617-.105.723-.017 2.895-.035 3.617-.07.725-.034 2.893-.243 3.617-.278.723-.034 2.894-.059 3.617-.07.724-.01 2.91.078 3.618-.034.74-.117 2.878-.975 3.617-1.113.708-.133 2.893-.205 3.617-.244.723-.038 2.894-.115 3.617-.139.724-.024 2.895-.066 3.617-.104.725-.039 2.893-.247 3.618-.279.722-.03 2.893-.027 3.617-.034.723-.007 2.894-.032 3.617-.035s2.894.014 3.617 0c.724-.014 2.894-.108 3.617-.14.724-.03 2.896-.118 3.618-.173.725-.056 2.891-.341 3.617-.383.721-.042 2.893-.031 3.617-.035.723-.003 2.894.01 3.617 0 .724-.01 2.894-.094 3.617-.104.724-.01 2.894.003 3.617 0 .724-.003 2.895-.014 3.618-.035.724-.02 2.893-.15 3.617-.174.723-.024 2.894-.048 3.617-.07.724-.02 2.894-.11 3.617-.138.724-.028 2.894-.122 3.617-.14.724-.017 2.894-.027 3.618-.034s2.893-.021 3.617-.035c.723-.014 2.893-.09 3.617-.105.723-.013 2.894-.007 3.617-.034.724-.028 2.935-.395 3.617-.244.765.17 2.854 1.69 3.618 1.844.683.138 3.032-.031 3.617-.383.862-.518 2.753-3.488 3.617-3.966.582-.322 2.894-.027 3.617-.034.724-.007 2.899.027 3.617-.035.728-.063 2.89-.5 3.617-.591.72-.09 2.893-.268 3.618-.314.722-.045 2.905-.033 3.617-.139.735-.11 2.882-.836 3.617-.939.712-.1 2.894-.06 3.617-.07.724-.01 2.896.01 3.617-.034.726-.046 2.893-.352 3.618-.418.721-.066 2.897-.164 3.617-.243.727-.08 2.89-.497 3.617-.557.72-.059 2.914.09 3.617-.035.744-.132 2.874-1.113 3.617-1.252.703-.132 2.895-.073 3.618-.104.723-.032 2.893-.178 3.617-.21.723-.03 2.894-.065 3.617-.103.724-.039 2.894-.216 3.617-.279.724-.062 2.892-.31 3.617-.348.722-.038 2.894-.031 3.617-.034.724-.004 2.894.003 3.618 0 .723-.004 2.894-.011 3.617-.035.724-.025 2.893-.178 3.617-.209.723-.031 2.894-.083 3.617-.104.724-.021 2.894-.09 3.617-.105.724-.014 2.894-.024 3.618-.035.723-.01 2.897-.007 3.617-.07.727-.062 2.89-.479 3.617-.556.72-.076 2.893-.18 3.617-.208.723-.028 2.894-.05 3.617-.07.724-.02 2.895-.094 3.617-.14.725-.044 2.895-.246 3.618-.312s2.892-.3 3.617-.348c.722-.049 2.893-.115 3.617-.14.723-.024 2.894-.09 3.617-.104.724-.014 2.894-.03 3.617-.034.724-.004 2.92.134 3.618 0 .748-.144 2.87-1.223 3.617-1.392.7-.158 2.894-.184 3.617-.243.724-.06 2.892-.3 3.617-.348.722-.049 2.894-.115 3.617-.14.724-.024 2.894-.076 3.618-.104s2.893-.15 3.617-.174c.723-.024 2.893-.059 3.617-.07.723-.01 2.896.008 3.617-.034.726-.042 2.892-.334 3.617-.383.722-.048 2.894-.087 3.617-.104.724-.018 2.894-.056 3.618-.07l3.617-.07c.723-.013 2.894-.058 3.617-.069.723-.01 2.894-.014 3.617-.035.724-.02 2.894-.135 3.617-.174.724-.038 2.976.054 3.618-.208.804-.33 2.812-2.427 3.617-2.749.641-.256 2.893-.114 3.617-.139.723-.024 2.894-.073 3.617-.104.724-.031 2.893-.18 3.617-.209.723-.028 2.894-.055 3.618-.07.723-.013 2.893-.048 3.617-.069.723-.02 2.896-.084 3.617-.139.725-.056 2.891-.369 3.617-.417.721-.049 2.894-.05 3.617-.07.724-.02 2.894-.118 3.617-.14.724-.02 2.894-.051 3.618-.069.723-.017 2.894-.066 3.617-.104.724-.038 2.893-.24 3.617-.278.723-.039 2.894-.084 3.617-.105.724-.02 2.894-.073 3.617-.104.724-.032 2.894-.178 3.618-.209s2.893-.083 3.617-.104c.723-.021 2.894-.08 3.617-.105.724-.024 2.893-.118 3.617-.139.723-.02 2.894-.052 3.617-.07.724-.017 2.894-.08 3.618-.104s2.893-.115 3.617-.139c.723-.024 2.896-.049 3.617-.104.726-.056 2.89-.404 3.617-.452.72-.049 2.894-.028 3.617-.035.724-.007 2.894-.014 3.617-.035.724-.02 2.894-.146 3.618-.174s2.893-.094 3.617-.104c.723-.01 2.895.034 3.617 0 .725-.035 2.893-.292 3.617-.348.723-.056 2.893-.185 3.617-.209.723-.024 2.894-.028 3.618-.035s2.894-.017 3.617-.035c.723-.017 2.894-.097 3.617-.139.724-.041 2.893-.24 3.617-.278.723-.038 2.894-.077 3.617-.104.724-.028 2.894-.143 3.618-.174.723-.032 2.893-.125 3.617-.14.723-.013 2.895.032 3.617 0 .725-.03 2.893-.264 3.617-.312.723-.05 2.894-.14 3.617-.174.724-.035 2.894-.133 3.617-.174.724-.042 2.893-.21 3.618-.244.722-.035 2.893-.08 3.617-.104.723-.025 2.893-.122 3.617-.14.723-.017 2.894-.027 3.617-.034.724-.007 2.894-.018 3.617-.035.724-.017 2.896-.087 3.618-.14.725-.051 2.892-.326 3.617-.382.722-.055 2.894-.132 3.617-.174.724-.041 2.893-.205 3.617-.243.723-.038 2.894-.125 3.617-.14.723-.013 2.894.008 3.617 0 .724-.006 2.894-.055 3.618-.069s2.893-.052 3.617-.07c.723-.017 2.894-.073 3.617-.104.724-.031 2.893-.184 3.617-.209.723-.024 2.894-.024 3.617-.034.724-.01 2.894-.06 3.618-.07s2.893-.024 3.617-.035c.723-.01 2.893-.055 3.617-.07.723-.013 2.894-.052 3.617-.069.724-.017 2.894-.083 3.617-.104l3.618-.105c.723-.02 2.894-.07 3.617-.104.724-.035 2.893-.202 3.617-.244.723-.041 2.893-.156 3.617-.173.723-.018 2.895.03 3.617 0 .725-.032 2.9-.213 3.617-.314.73-.101 2.888-.611 3.618-.695.717-.083 2.895-.087 3.617-.14.725-.052 2.892-.35 3.617-.382.721-.031 2.894.07 3.617.07.724 0 2.894-.056 3.617-.07.724-.014 2.894-.052 3.618-.07.723-.017 2.893-.083 3.617-.104.723-.02 2.894-.08 3.617-.104.723-.025 2.894-.115 3.617-.14.723-.024 2.894-.083 3.617-.104.724-.02 2.894-.087 3.618-.104s2.893-.056 3.617-.07c.723-.014 2.912.053 3.617-.07.742-.128 2.876-1.036 3.617-1.182.706-.14 2.893-.22 3.617-.244.723-.024 2.896.042 3.617 0 .726-.042 2.892-.361 3.618-.417.72-.056 2.893-.125 3.617-.14.723-.013 2.894 0 3.617 0s2.894.011 3.617 0c.724-.01 2.894-.086 3.617-.104.724-.017 2.9 0 3.617-.07.73-.07 2.89-.534 3.618-.625.719-.09 2.893-.227 3.617-.279.723-.052 2.893-.215 3.617-.243.723-.028 2.894-.032 3.617-.035.724-.004 2.894.014 3.617 0 .724-.014 2.894-.122 3.618-.14.723-.017 2.895.008 3.617-.034.725-.042 2.892-.334 3.617-.383.722-.048 2.894-.073 3.617-.104.724-.031 2.894-.177 3.617-.209.723-.031 2.894-.09 3.618-.104s2.894-.01 3.617-.035c.724-.024 2.893-.18 3.617-.209.723-.027 2.894-.055 3.617-.07.724-.013 2.895-.034 3.617-.069.725-.035 2.894-.23 3.617-.278s2.894-.184 3.618-.209 2.893-.028 3.617-.035c.723-.007 2.897.021 3.617-.034.727-.056 2.89-.466 3.617-.522.72-.056 2.894-.018 3.617-.035.724-.017 2.896-.087 3.618-.14.725-.051 2.891-.336 3.617-.382.721-.045 2.894-.055 3.617-.07"/><path d="m388.696 362.046 5.196 9h-10.393z"/><path fill="none" stroke="#000" stroke-miterlimit="10" stroke-width="2" d="m388.696 362.046 5.196 9h-10.393z"/></g><path fill-opacity=".349" d="M389.196 41.6v4h-1v-4m1 8v4h-1v-4m1 8v4h-1v-4m1 8v4h-1v-4m1 8v4h-1v-4m1 8v4h-1v-4m1 8v4h-1v-4m1 8v4h-1v-4m1 8v4h-1v-4m1 8v4h-1v-4m1 8v4h-1v-4m1 8v4h-1v-4m1 8v4h-1v-4m1 8v4h-1v-4m1 8v4h-1v-4m1 8v4h-1v-4m1 8v4h-1v-4m1 8v4h-1v-4m1 8v4h-1v-4m1 8v4h-1v-4m1 8v4h-1v-4m1 8v4h-1v-4m1 8v4h-1v-4m1 8v4h-1v-4m1 8v4h-1v-4m1 8v4h-1v-4m1 8v4h-1v-4m1 8v4h-1v-4m1 8v4h-1v-4m1 8v4h-1v-4m1 8v4h-1v-4m1 8v4h-1v-4m1 8v4h-1v-4m1 8v4h-1v-4m1 8v4h-1v-4m1 8v4h-1v-4m1 8v4h-1v-4m1 8v4h-1v-4m1 8v4h-1v-4m1 8v4h-1v-4m1 8v4h-1v-4m1 8v4h-1v-4m1 8v4h-1v-4m1 8v3.875h-1V385.6"/></svg>