<svg xmlns="http://www.w3.org/2000/svg" width="800" height="800"><path fill="none" d="M0 0h800v800H0z"/><clipPath id="a"><path d="M0 690h800v110H0z"/></clipPath><g clip-path="url(#a)"><path fill="#4caf50" d="M123.3 720h40v20h-40z"/><path fill="none" stroke="#fff" stroke-miterlimit="10" stroke-width="2" d="M123.3 720h40v20h-40z"/><path fill="#ff9800" d="M377.64 720h40v20h-40z"/><path fill="none" stroke="#fff" stroke-miterlimit="10" stroke-width="2" d="M377.64 720h40v20h-40z"/><path fill="#f44336" d="M262.92 770h40v20h-40z"/><path fill="none" stroke="#fff" stroke-miterlimit="10" stroke-width="2" d="M262.92 770h40v20h-40z"/></g><path fill="#4caf50" d="M400 1q4.475 0 8.948.116 4.473.117 8.942.35t8.93.581 8.912.814q4.45.465 8.887 1.045t8.858 1.276 8.82 1.506 8.78 1.735 8.73 1.963 8.678 2.189q4.324 1.15 8.617 2.414 4.293 1.263 8.551 2.637 4.259 1.375 8.48 2.86t8.403 3.078q4.18 1.594 8.32 3.296 4.138 1.702 8.23 3.512 4.093 1.809 8.137 3.724t8.038 3.935 7.932 4.142q3.94 2.123 7.822 4.348t7.706 4.549 7.585 4.748q3.762 2.424 7.46 4.944t7.327 5.137q3.63 2.616 7.192 5.325t7.051 5.51 6.905 5.693 6.755 5.87q3.34 2.978 6.6 6.043t6.44 6.213 6.277 6.378q3.097 3.23 6.109 6.54L400 345z"/><path fill="none" stroke="#fff" stroke-linejoin="bevel" stroke-width="2" d="M400 1q4.475 0 8.948.116 4.473.117 8.942.35t8.93.581 8.912.814q4.45.465 8.887 1.045t8.858 1.276 8.82 1.506 8.78 1.735 8.73 1.963 8.678 2.189q4.324 1.15 8.617 2.414 4.293 1.263 8.551 2.637 4.259 1.375 8.48 2.86t8.403 3.078q4.18 1.594 8.32 3.296 4.138 1.702 8.23 3.512 4.093 1.809 8.137 3.724t8.038 3.935 7.932 4.142q3.94 2.123 7.822 4.348t7.706 4.549 7.585 4.748q3.762 2.424 7.46 4.944t7.327 5.137q3.63 2.616 7.192 5.325t7.051 5.51 6.905 5.693 6.755 5.87q3.34 2.978 6.6 6.043t6.44 6.213 6.277 6.378q3.097 3.23 6.109 6.54L400 345z"/><path fill="#ff9800" d="M654.422 113.471q14.47 15.9 26.846 33.478 12.378 17.578 22.47 36.56L400 345z"/><path fill="none" stroke="#fff" stroke-linejoin="bevel" stroke-width="2" d="M654.422 113.471q14.47 15.9 26.846 33.478 12.378 17.578 22.47 36.56L400 345l254.422-231.529Z"/><path fill="#f44336" d="M703.738 183.51q3.964 7.456 7.558 15.098t6.808 15.45q3.215 7.81 6.042 15.767t5.261 16.044q2.434 8.086 4.467 16.282 2.034 8.197 3.663 16.483t2.85 16.642 2.03 16.762q.81 8.406 1.205 16.841.396 8.435.377 16.88t-.452 16.878-1.279 16.836-2.104 16.753-2.923 16.63q-1.666 8.278-3.736 16.465t-4.539 16.263q-2.469 8.076-5.331 16.02-2.863 7.945-6.112 15.74t-6.876 15.42-7.625 15.066-8.354 14.672-9.065 14.245-9.753 13.783q-5.045 6.772-10.417 13.288t-11.056 12.76-11.67 12.203-12.254 11.615-12.81 11q-6.539 5.343-13.333 10.359-6.794 5.015-13.826 9.692-7.031 4.676-14.284 9.001-7.253 4.326-14.71 8.29-4.887 2.599-9.855 5.038t-10.013 4.72q-5.045 2.278-10.16 4.393-5.115 2.116-10.296 4.065t-10.42 3.732-10.537 3.395-10.64 3.053-10.732 2.71q-5.387 1.269-10.813 2.363t-10.885 2.014-10.943 1.663-10.992 1.31-11.028.955q-5.521.39-11.052.6-5.532.212-11.067.245t-11.068-.112-11.06-.468-11.038-.824-11.006-1.178q-5.494-.678-10.963-1.532t-10.908-1.883q-5.438-1.03-10.841-2.234t-10.764-2.581-10.675-2.926q-5.315-1.55-10.576-3.269t-10.465-3.606-10.344-3.942-10.211-4.272q-5.071-2.219-10.069-4.599-4.997-2.38-9.915-4.92t-9.752-5.237-9.579-5.548q-7.238-4.35-14.255-9.049-7.016-4.699-13.793-9.737-6.778-5.038-13.3-10.402-6.522-5.365-12.772-11.043-6.251-5.678-12.216-11.656t-11.629-12.241-11.014-12.797-10.373-13.323-9.707-13.815-9.018-14.274q-4.333-7.249-8.306-14.7-3.972-7.452-7.574-15.09-3.603-7.638-6.826-15.444-3.223-7.805-6.059-15.76-2.836-7.954-5.278-16.037-2.443-8.084-4.486-16.278t-3.681-16.478-2.868-16.64-2.049-16.759-1.223-16.84T56 344.62q.01-8.444.433-16.878.424-8.435 1.26-16.838.838-8.403 2.086-16.755 1.249-8.352 2.905-16.632 1.657-8.281 3.718-16.47 2.06-8.19 4.52-16.268 2.461-8.079 5.315-16.027 2.854-7.947 6.094-15.746 3.24-7.798 6.86-15.428 3.618-7.63 7.607-15.073t8.339-14.682q2.85-4.745 5.853-9.395t6.152-9.202 6.445-8.999 6.732-8.787 7.01-8.566q3.574-4.227 7.283-8.336 3.708-4.11 7.547-8.098t7.803-7.85 8.053-7.595 8.292-7.333 8.524-7.061q4.319-3.463 8.747-6.784 4.428-3.322 8.96-6.5t9.165-6.206 9.36-5.91 9.545-5.604 9.72-5.295q4.904-2.57 9.887-4.98t10.04-4.659q5.059-2.248 10.186-4.333 5.128-2.085 10.32-4.003t10.443-3.67 10.556-3.331 10.658-2.99 10.748-2.646 10.828-2.298 10.896-1.949 10.954-1.597 10.999-1.244 11.033-.89 11.056-.534T400 1v344z"/><path fill="none" stroke="#fff" stroke-linejoin="bevel" stroke-width="2" d="M703.738 183.51q3.964 7.456 7.558 15.098t6.808 15.45q3.215 7.81 6.042 15.767t5.261 16.044q2.434 8.086 4.467 16.282 2.034 8.197 3.663 16.483t2.85 16.642 2.03 16.762q.81 8.406 1.205 16.841.396 8.435.377 16.88t-.452 16.878-1.279 16.836-2.104 16.753-2.923 16.63q-1.666 8.278-3.736 16.465t-4.539 16.263q-2.469 8.076-5.331 16.02-2.863 7.945-6.112 15.74t-6.876 15.42-7.625 15.066-8.354 14.672-9.065 14.245-9.753 13.783q-5.045 6.772-10.417 13.288t-11.056 12.76-11.67 12.203-12.254 11.615-12.81 11q-6.539 5.343-13.333 10.359-6.794 5.015-13.826 9.692-7.031 4.676-14.284 9.001-7.253 4.326-14.71 8.29-4.887 2.599-9.855 5.038t-10.013 4.72q-5.045 2.278-10.16 4.393-5.115 2.116-10.296 4.065t-10.42 3.732-10.537 3.395-10.64 3.053-10.732 2.71q-5.387 1.269-10.813 2.363t-10.885 2.014-10.943 1.663-10.992 1.31-11.028.955q-5.521.39-11.052.6-5.532.212-11.067.245t-11.068-.112-11.06-.468-11.038-.824-11.006-1.178q-5.494-.678-10.963-1.532t-10.908-1.883q-5.438-1.03-10.841-2.234t-10.764-2.581-10.675-2.926q-5.315-1.55-10.576-3.269t-10.465-3.606-10.344-3.942-10.211-4.272q-5.071-2.219-10.069-4.599-4.997-2.38-9.915-4.92t-9.752-5.237-9.579-5.548q-7.238-4.35-14.255-9.049-7.016-4.699-13.793-9.737-6.778-5.038-13.3-10.402-6.522-5.365-12.772-11.043-6.251-5.678-12.216-11.656t-11.629-12.241-11.014-12.797-10.373-13.323-9.707-13.815-9.018-14.274q-4.333-7.249-8.306-14.7-3.972-7.452-7.574-15.09-3.603-7.638-6.826-15.444-3.223-7.805-6.059-15.76-2.836-7.954-5.278-16.037-2.443-8.084-4.486-16.278t-3.681-16.478-2.868-16.64-2.049-16.759-1.223-16.84T56 344.62q.01-8.444.433-16.878.424-8.435 1.26-16.838.838-8.403 2.086-16.755 1.249-8.352 2.905-16.632 1.657-8.281 3.718-16.47 2.06-8.19 4.52-16.268 2.461-8.079 5.315-16.027 2.854-7.947 6.094-15.746 3.24-7.798 6.86-15.428 3.618-7.63 7.607-15.073t8.339-14.682q2.85-4.745 5.853-9.395t6.152-9.202 6.445-8.999 6.732-8.787 7.01-8.566q3.574-4.227 7.283-8.336 3.708-4.11 7.547-8.098t7.803-7.85 8.053-7.595 8.292-7.333 8.524-7.061q4.319-3.463 8.747-6.784 4.428-3.322 8.96-6.5t9.165-6.206 9.36-5.91 9.545-5.604 9.72-5.295q4.904-2.57 9.887-4.98t10.04-4.659q5.059-2.248 10.186-4.333 5.128-2.085 10.32-4.003t10.443-3.67 10.556-3.331 10.658-2.99 10.748-2.646 10.828-2.298 10.896-1.949 10.954-1.597 10.999-1.244 11.033-.89 11.056-.534T400 1v344l303.738-161.49Z"/></svg>