<svg xmlns="http://www.w3.org/2000/svg" width="800" height="800"><path fill="none" d="M0 0h800v800H0z"/><clipPath id="a"><path d="M0 740h800v60H0z"/></clipPath><g clip-path="url(#a)"><path fill="#4caf50" d="M144.605 770h40v20h-40z"/><path fill="none" stroke="#fff" stroke-miterlimit="10" stroke-width="2" d="M144.605 770h40v20h-40z"/><text x="194.605, 207.94484, 217.50539, 230.38625, 240.64992, 248.68703, 260.52295," y="787.5," fill="#666" font-family="DejaVu Serif" font-size="20">Trusted</text><path fill="#ff9800" d="M303.325 770h40v20h-40z"/><path fill="none" stroke="#fff" stroke-miterlimit="10" stroke-width="2" d="M303.325 770h40v20h-40z"/><text x="353.32501, 366.78204, 376.34259, 388.38361, 399.68243, 411.51837, 424.39923, 436.32306, 449.20392, 460.40509," y="787.5," fill="#666" font-family="DejaVu Serif" font-size="20">Provenance</text><path fill="#f44336" d="M502.245 770h40v20h-40z"/><path fill="none" stroke="#fff" stroke-miterlimit="10" stroke-width="2" d="M502.245 770h40v20h-40z"/><text x="552.245, 569.10046, 581.98132, 590.01843, 599.57898, 612.45984, 622.72351, 630.76062, 642.59656," y="787.5," fill="#666" font-family="DejaVu Serif" font-size="20">Untrusted</text></g><path fill="#4caf50" d="M400 1q7.543 0 15.08.308 7.538.309 15.056.925t15.005 1.539q7.487.922 14.93 2.15t14.83 2.76q7.385 1.53 14.703 3.363 7.318 1.831 14.555 3.96 7.236 2.13 14.38 4.553t14.182 5.137q7.039 2.713 13.96 5.712 6.923 2.998 13.716 6.277 6.794 3.28 13.448 6.833 6.653 3.554 13.156 7.377t12.845 7.908 12.51 8.427 12.156 8.93L400 370z"/><path fill="none" stroke="#fff" stroke-linejoin="bevel" stroke-width="2" d="M400 1q7.543 0 15.08.308 7.538.309 15.056.925t15.005 1.539q7.487.922 14.93 2.15t14.83 2.76q7.385 1.53 14.703 3.363 7.318 1.831 14.555 3.96 7.236 2.13 14.38 4.553t14.182 5.137q7.039 2.713 13.96 5.712 6.923 2.998 13.716 6.277 6.794 3.28 13.448 6.833 6.653 3.554 13.156 7.377t12.845 7.908 12.51 8.427 12.156 8.93L400 370z"/><path fill="#ff9800" d="M624.512 77.16q10.316 7.909 20.05 16.524T663.4 111.58q9.104 9.28 17.532 19.176 8.428 9.897 16.139 20.362L400 370z"/><path fill="none" stroke="#fff" stroke-linejoin="bevel" stroke-width="2" d="M624.512 77.16q10.316 7.909 20.05 16.524T663.4 111.58q9.104 9.28 17.532 19.176 8.428 9.897 16.139 20.362L400 370 624.512 77.16Z"/><path fill="#f44336" d="M697.07 151.117q5.374 7.292 10.383 14.84 5.01 7.548 9.642 15.332t8.877 15.786q4.245 8.002 8.093 16.203t7.287 16.58 6.466 16.919q3.024 8.538 5.627 17.215t4.776 17.47 3.912 17.684 3.04 17.854q1.302 8.965 2.162 17.983.86 9.017 1.275 18.066.416 9.049.388 18.107t-.501 18.105-1.39 18.058q-.915 9.012-2.272 17.968-1.358 8.956-3.153 17.835t-4.023 17.659-4.885 17.44q-2.657 8.66-5.736 17.18t-6.57 16.877-7.392 16.534-8.194 16.152-8.976 15.73-9.738 15.272-10.475 14.775-11.187 14.243-11.873 13.677-12.53 13.078-13.156 12.447-13.75 11.787-14.314 11.098q-5.12 3.772-10.366 7.366-5.247 3.594-10.615 7.004-5.367 3.411-10.85 6.635-5.481 3.224-11.07 6.257t-11.281 5.871q-5.691 2.839-11.477 5.48-5.785 2.64-11.658 5.08t-11.826 4.676-11.98 4.265-12.121 3.85q-6.093 1.821-12.246 3.43-6.152 1.61-12.357 3.007-6.204 1.396-12.453 2.579-6.248 1.181-12.534 2.147t-12.601 1.715q-6.315.749-12.653 1.28-6.337.53-12.689.843t-12.71.405q-6.36.093-12.718-.034-6.358-.126-12.708-.471t-12.685-.91-12.646-1.345-12.592-1.78q-6.28-1-12.523-2.214t-12.44-2.643-12.34-3.071q-6.144-1.642-12.228-3.494t-12.1-3.914q-6.016-2.06-11.958-4.327t-11.802-4.738-11.631-5.141-11.448-5.54q-8.085-4.085-15.96-8.562-7.874-4.477-15.52-9.336-7.645-4.858-15.043-10.085t-14.53-10.812-13.982-11.512-13.4-12.184q-6.552-6.256-12.787-12.827t-12.142-13.438q-5.906-6.869-11.468-14.019T97.979 582 87.94 566.925t-9.287-15.549q-4.452-7.888-8.512-15.986t-7.718-16.385-6.905-16.743-6.075-17.063-5.23-17.34q-2.402-8.733-4.373-17.575t-3.506-17.769-2.63-17.92q-1.094-8.991-1.746-18.026t-.86-18.091q-.209-9.056.028-18.112.236-9.055.917-18.088.68-9.033 1.803-18.021t2.686-17.911 3.561-17.758 4.428-17.562 5.285-17.323 6.128-17.043 6.957-16.722 7.77-16.36q2.868-5.677 5.93-11.25t6.314-11.04q3.253-5.464 6.691-10.814 3.44-5.35 7.06-10.578 3.621-5.228 7.42-10.328t7.772-10.066 8.114-9.792q4.14-4.827 8.446-9.508 4.305-4.68 8.769-9.21t9.081-8.903 9.383-8.584 9.673-8.256q4.907-4.045 9.951-7.918t10.219-7.57 10.473-7.214 10.716-6.849 10.945-6.475q5.528-3.143 11.162-6.094 5.633-2.95 11.365-5.706 5.732-2.755 11.555-5.31 5.823-2.557 11.731-4.91t11.894-4.503q5.985-2.148 12.041-4.09 6.056-1.94 12.176-3.672t12.294-3.251q6.176-1.52 12.4-2.825t12.49-2.396Q342.99 5.375 349.29 4.5t12.625-1.53 12.67-1.095 12.7-.657T400 1v369z"/><path fill="none" stroke="#fff" stroke-linejoin="bevel" stroke-width="2" d="M697.07 151.117q5.374 7.292 10.383 14.84 5.01 7.548 9.642 15.332t8.877 15.786q4.245 8.002 8.093 16.203t7.287 16.58 6.466 16.919q3.024 8.538 5.627 17.215t4.776 17.47 3.912 17.684 3.04 17.854q1.302 8.965 2.162 17.983.86 9.017 1.275 18.066.416 9.049.388 18.107t-.501 18.105-1.39 18.058q-.915 9.012-2.272 17.968-1.358 8.956-3.153 17.835t-4.023 17.659-4.885 17.44q-2.657 8.66-5.736 17.18t-6.57 16.877-7.392 16.534-8.194 16.152-8.976 15.73-9.738 15.272-10.475 14.775-11.187 14.243-11.873 13.677-12.53 13.078-13.156 12.447-13.75 11.787-14.314 11.098q-5.12 3.772-10.366 7.366-5.247 3.594-10.615 7.004-5.367 3.411-10.85 6.635-5.481 3.224-11.07 6.257t-11.281 5.871q-5.691 2.839-11.477 5.48-5.785 2.64-11.658 5.08t-11.826 4.676-11.98 4.265-12.121 3.85q-6.093 1.821-12.246 3.43-6.152 1.61-12.357 3.007-6.204 1.396-12.453 2.579-6.248 1.181-12.534 2.147t-12.601 1.715q-6.315.749-12.653 1.28-6.337.53-12.689.843t-12.71.405q-6.36.093-12.718-.034-6.358-.126-12.708-.471t-12.685-.91-12.646-1.345-12.592-1.78q-6.28-1-12.523-2.214t-12.44-2.643-12.34-3.071q-6.144-1.642-12.228-3.494t-12.1-3.914q-6.016-2.06-11.958-4.327t-11.802-4.738-11.631-5.141-11.448-5.54q-8.085-4.085-15.96-8.562-7.874-4.477-15.52-9.336-7.645-4.858-15.043-10.085t-14.53-10.812-13.982-11.512-13.4-12.184q-6.552-6.256-12.787-12.827t-12.142-13.438q-5.906-6.869-11.468-14.019T97.979 582 87.94 566.925t-9.287-15.549q-4.452-7.888-8.512-15.986t-7.718-16.385-6.905-16.743-6.075-17.063-5.23-17.34q-2.402-8.733-4.373-17.575t-3.506-17.769-2.63-17.92q-1.094-8.991-1.746-18.026t-.86-18.091q-.209-9.056.028-18.112.236-9.055.917-18.088.68-9.033 1.803-18.021t2.686-17.911 3.561-17.758 4.428-17.562 5.285-17.323 6.128-17.043 6.957-16.722 7.77-16.36q2.868-5.677 5.93-11.25t6.314-11.04q3.253-5.464 6.691-10.814 3.44-5.35 7.06-10.578 3.621-5.228 7.42-10.328t7.772-10.066 8.114-9.792q4.14-4.827 8.446-9.508 4.305-4.68 8.769-9.21t9.081-8.903 9.383-8.584 9.673-8.256q4.907-4.045 9.951-7.918t10.219-7.57 10.473-7.214 10.716-6.849 10.945-6.475q5.528-3.143 11.162-6.094 5.633-2.95 11.365-5.706 5.732-2.755 11.555-5.31 5.823-2.557 11.731-4.91t11.894-4.503q5.985-2.148 12.041-4.09 6.056-1.94 12.176-3.672t12.294-3.251q6.176-1.52 12.4-2.825t12.49-2.396Q342.99 5.375 349.29 4.5t12.625-1.53 12.67-1.095 12.7-.657T400 1v369l297.07-218.883Z"/></svg>