<svg xmlns="http://www.w3.org/2000/svg" width="800" height="800"><path fill="none" d="M0 0h800v800H0z"/><clipPath id="a"><path d="M0 690h800v110H0z"/></clipPath><g clip-path="url(#a)"><path fill="#4caf50" d="M123.3 720h40v20h-40z"/><path fill="none" stroke="#fff" stroke-miterlimit="10" stroke-width="2" d="M123.3 720h40v20h-40z"/><path fill="#ff9800" d="M377.64 720h40v20h-40z"/><path fill="none" stroke="#fff" stroke-miterlimit="10" stroke-width="2" d="M377.64 720h40v20h-40z"/><path fill="#f44336" d="M262.92 770h40v20h-40z"/><path fill="none" stroke="#fff" stroke-miterlimit="10" stroke-width="2" d="M262.92 770h40v20h-40z"/></g><path fill="#4caf50" d="M400 1q4.361 0 8.721.11 4.36.111 8.716.332t8.705.553 8.688.773 8.665.993 8.638 1.212q4.31.661 8.604 1.431t8.565 1.649 8.52 1.865q4.248.987 8.47 2.081t8.415 2.295q4.193 1.2 8.354 2.507t8.288 2.719q4.127 1.412 8.216 2.927 4.09 1.516 8.14 3.135 4.05 1.62 8.057 3.34 4.007 1.722 7.97 3.544t7.877 3.745 7.78 3.943 7.678 4.139 7.57 4.332q3.757 2.214 7.458 4.523t7.34 4.71 7.22 4.896q3.578 2.493 7.092 5.076t6.962 5.255 6.826 5.43q3.378 2.757 6.686 5.6t6.542 5.769q3.235 2.925 6.394 5.932t6.241 6.093 6.085 6.25L400 345z"/><path fill="none" stroke="#fff" stroke-linejoin="bevel" stroke-width="2" d="M400 1q4.361 0 8.721.11 4.36.111 8.716.332t8.705.553 8.688.773 8.665.993 8.638 1.212q4.31.661 8.604 1.431t8.565 1.649 8.52 1.865q4.248.987 8.47 2.081t8.415 2.295q4.193 1.2 8.354 2.507t8.288 2.719q4.127 1.412 8.216 2.927 4.09 1.516 8.14 3.135 4.05 1.62 8.057 3.34 4.007 1.722 7.97 3.544t7.877 3.745 7.78 3.943 7.678 4.139 7.57 4.332q3.757 2.214 7.458 4.523t7.34 4.71 7.22 4.896q3.578 2.493 7.092 5.076t6.962 5.255 6.826 5.43q3.378 2.757 6.686 5.6t6.542 5.769q3.235 2.925 6.394 5.932t6.241 6.093 6.085 6.25L400 345z"/><path fill="#ff9800" d="M649.483 108.158q15.178 15.988 28.19 33.782 13.014 17.795 23.649 37.104L400 345z"/><path fill="none" stroke="#fff" stroke-linejoin="bevel" stroke-width="2" d="M649.483 108.158q15.178 15.988 28.19 33.782 13.014 17.795 23.649 37.104L400 345l249.483-236.842Z"/><path fill="#f44336" d="M701.322 179.044q4.074 7.397 7.78 14.985t7.035 15.349 6.274 15.675 5.497 15.965 4.707 16.215 3.906 16.426 3.095 16.598 2.277 16.73q.933 8.394 1.454 16.822.52 8.429.626 16.873t-.203 16.883-1.03 16.853-1.857 16.782-2.677 16.67-3.492 16.52-4.3 16.328-5.094 16.097-5.878 15.828-6.648 15.52q-3.515 7.68-7.402 15.177t-8.137 14.794q-4.25 7.297-8.853 14.377t-9.548 13.925-10.22 13.44-10.867 12.923-11.488 12.373-12.082 11.795q-6.185 5.75-12.645 11.188-6.46 5.44-13.18 10.554-6.719 5.116-13.68 9.895-6.963 4.78-14.15 9.211-7.19 4.433-14.586 8.507-4.883 2.689-9.851 5.219t-10.016 4.897-10.168 4.57-10.311 4.24-10.444 3.901-10.564 3.562-10.674 3.217-10.773 2.87-10.86 2.52-10.936 2.165-11 1.811-11.054 1.453-11.094 1.094-11.125.734-11.142.374-11.148.012q-5.575-.085-11.143-.35t-11.126-.71-11.097-1.07-11.057-1.43q-5.516-.804-11.004-1.786-5.488-.983-10.94-2.143-5.454-1.16-10.866-2.496-5.413-1.336-10.779-2.846t-10.68-3.195-10.573-3.539-10.451-3.88-10.32-4.216q-5.127-2.191-10.18-4.548-5.052-2.357-10.025-4.876t-9.862-5.198q-4.89-2.68-9.689-5.515-7.27-4.296-14.321-8.944-7.051-4.647-13.865-9.635-6.815-4.988-13.376-10.304t-12.854-10.948-12.301-11.565q-6.009-5.934-11.72-12.156-5.71-6.221-11.108-12.715t-10.47-13.245q-5.074-6.752-9.81-13.743-4.735-6.992-9.122-14.208t-8.414-14.639q-4.028-7.422-7.686-15.033t-6.94-15.393q-3.28-7.781-6.174-15.714t-5.397-15.999-4.606-16.244-3.802-16.45q-1.7-8.273-2.991-16.618t-2.172-16.744q-.88-8.399-1.348-16.83-.467-8.432-.52-16.877t.308-16.882q.362-8.436 1.137-16.846t1.961-16.77 2.782-16.653q1.596-8.293 3.596-16.497t4.401-16.3q2.4-8.097 5.196-16.066t5.977-15.79 6.746-15.48q3.562-7.656 7.496-15.128t8.23-14.743q2.836-4.8 5.826-9.505t6.131-9.311 6.43-9.108 6.721-8.894 7.006-8.672q3.573-4.28 7.284-8.44 3.71-4.162 7.553-8.2 3.842-4.04 7.814-7.952t8.069-7.693 8.313-7.428q4.217-3.647 8.55-7.155 4.332-3.508 8.777-6.874t8.995-6.586 9.204-6.291 9.403-5.99 9.592-5.681 9.77-5.368q4.93-2.605 9.94-5.049 5.011-2.443 10.099-4.723 5.087-2.28 10.246-4.394t10.383-4.06 10.51-3.72q5.284-1.776 10.623-3.38 5.34-1.603 10.728-3.032 5.389-1.43 10.821-2.683 5.432-1.254 10.902-2.331 5.47-1.078 10.972-1.977 5.502-.9 11.03-1.62t11.077-1.262 11.112-.903 11.135-.541T400 1v344z"/><path fill="none" stroke="#fff" stroke-linejoin="bevel" stroke-width="2" d="M701.322 179.044q4.074 7.397 7.78 14.985t7.035 15.349 6.274 15.675 5.497 15.965 4.707 16.215 3.906 16.426 3.095 16.598 2.277 16.73q.933 8.394 1.454 16.822.52 8.429.626 16.873t-.203 16.883-1.03 16.853-1.857 16.782-2.677 16.67-3.492 16.52-4.3 16.328-5.094 16.097-5.878 15.828-6.648 15.52q-3.515 7.68-7.402 15.177t-8.137 14.794q-4.25 7.297-8.853 14.377t-9.548 13.925-10.22 13.44-10.867 12.923-11.488 12.373-12.082 11.795q-6.185 5.75-12.645 11.188-6.46 5.44-13.18 10.554-6.719 5.116-13.68 9.895-6.963 4.78-14.15 9.211-7.19 4.433-14.586 8.507-4.883 2.689-9.851 5.219t-10.016 4.897-10.168 4.57-10.311 4.24-10.444 3.901-10.564 3.562-10.674 3.217-10.773 2.87-10.86 2.52-10.936 2.165-11 1.811-11.054 1.453-11.094 1.094-11.125.734-11.142.374-11.148.012q-5.575-.085-11.143-.35t-11.126-.71-11.097-1.07-11.057-1.43q-5.516-.804-11.004-1.786-5.488-.983-10.94-2.143-5.454-1.16-10.866-2.496-5.413-1.336-10.779-2.846t-10.68-3.195-10.573-3.539-10.451-3.88-10.32-4.216q-5.127-2.191-10.18-4.548-5.052-2.357-10.025-4.876t-9.862-5.198q-4.89-2.68-9.689-5.515-7.27-4.296-14.321-8.944-7.051-4.647-13.865-9.635-6.815-4.988-13.376-10.304t-12.854-10.948-12.301-11.565q-6.009-5.934-11.72-12.156-5.71-6.221-11.108-12.715t-10.47-13.245q-5.074-6.752-9.81-13.743-4.735-6.992-9.122-14.208t-8.414-14.639q-4.028-7.422-7.686-15.033t-6.94-15.393q-3.28-7.781-6.174-15.714t-5.397-15.999-4.606-16.244-3.802-16.45q-1.7-8.273-2.991-16.618t-2.172-16.744q-.88-8.399-1.348-16.83-.467-8.432-.52-16.877t.308-16.882q.362-8.436 1.137-16.846t1.961-16.77 2.782-16.653q1.596-8.293 3.596-16.497t4.401-16.3q2.4-8.097 5.196-16.066t5.977-15.79 6.746-15.48q3.562-7.656 7.496-15.128t8.23-14.743q2.836-4.8 5.826-9.505t6.131-9.311 6.43-9.108 6.721-8.894 7.006-8.672q3.573-4.28 7.284-8.44 3.71-4.162 7.553-8.2 3.842-4.04 7.814-7.952t8.069-7.693 8.313-7.428q4.217-3.647 8.55-7.155 4.332-3.508 8.777-6.874t8.995-6.586 9.204-6.291 9.403-5.99 9.592-5.681 9.77-5.368q4.93-2.605 9.94-5.049 5.011-2.443 10.099-4.723 5.087-2.28 10.246-4.394t10.383-4.06 10.51-3.72q5.284-1.776 10.623-3.38 5.34-1.603 10.728-3.032 5.389-1.43 10.821-2.683 5.432-1.254 10.902-2.331 5.47-1.078 10.972-1.977 5.502-.9 11.03-1.62t11.077-1.262 11.112-.903 11.135-.541T400 1v344l301.322-165.956Z"/></svg>