<svg xmlns="http://www.w3.org/2000/svg" width="800" height="800"><path fill="none" d="M0 0h800v800H0z"/><clipPath id="a"><path d="M0 690h800v110H0z"/></clipPath><g clip-path="url(#a)"><path fill="#4caf50" d="M123.3 720h40v20h-40z"/><path fill="none" stroke="#fff" stroke-miterlimit="10" stroke-width="2" d="M123.3 720h40v20h-40z"/><path fill="#ff9800" d="M377.64 720h40v20h-40z"/><path fill="none" stroke="#fff" stroke-miterlimit="10" stroke-width="2" d="M377.64 720h40v20h-40z"/><path fill="#f44336" d="M262.92 770h40v20h-40z"/><path fill="none" stroke="#fff" stroke-miterlimit="10" stroke-width="2" d="M262.92 770h40v20h-40z"/></g><path fill="#4caf50" d="M400 1q4.638 0 9.274.125 4.637.125 9.268.375t9.254.625 9.234.874 9.207 1.123 9.174 1.37 9.133 1.617q4.555.87 9.086 1.863 4.53.993 9.033 2.108 4.502 1.114 8.972 2.35t8.906 2.59 8.833 2.83 8.753 3.068 8.668 3.302 8.575 3.535 8.477 3.765 8.372 3.991q4.16 2.053 8.262 4.216t8.145 4.437q4.042 2.274 8.022 4.656t7.894 4.87 7.76 5.08 7.62 5.289 7.475 5.491 7.323 5.691q3.624 2.895 7.168 5.887t7.007 6.078 6.84 6.264 6.668 6.447 6.493 6.624 6.311 6.796 6.126 6.965L400 345z"/><path fill="none" stroke="#fff" stroke-linejoin="bevel" stroke-width="2" d="M400 1q4.638 0 9.274.125 4.637.125 9.268.375t9.254.625 9.234.874 9.207 1.123 9.174 1.37 9.133 1.617q4.555.87 9.086 1.863 4.53.993 9.033 2.108 4.502 1.114 8.972 2.35t8.906 2.59 8.833 2.83 8.753 3.068 8.668 3.302 8.575 3.535 8.477 3.765 8.372 3.991q4.16 2.053 8.262 4.216t8.145 4.437q4.042 2.274 8.022 4.656t7.894 4.87 7.76 5.08 7.62 5.289 7.475 5.491 7.323 5.691q3.624 2.895 7.168 5.887t7.007 6.078 6.84 6.264 6.668 6.447 6.493 6.624 6.311 6.796 6.126 6.965L400 345z"/><path fill="#ff9800" d="M661.333 121.302q13.957 16.304 25.778 34.217 11.822 17.913 21.326 37.156L400 345z"/><path fill="none" stroke="#fff" stroke-linejoin="bevel" stroke-width="2" d="M661.333 121.302q13.957 16.304 25.778 34.217 11.822 17.913 21.326 37.156L400 345l261.333-223.698Z"/><path fill="#f44336" d="M708.437 192.675q3.739 7.572 7.102 15.318t6.343 15.648q2.979 7.901 5.567 15.94t4.778 16.194q2.19 8.156 3.978 16.409t3.168 16.584 2.35 16.72q.97 8.39 1.527 16.816.558 8.426.7 16.87.144 8.443-.128 16.883-.271 8.44-.957 16.858-.685 8.416-1.782 16.79-1.098 8.373-2.605 16.682t-3.42 16.534q-1.912 8.225-4.227 16.347-2.314 8.121-5.024 16.12-2.71 7.998-5.808 15.853-3.1 7.856-6.58 15.55t-7.335 15.208q-3.854 7.514-8.072 14.83t-8.79 14.415q-4.573 7.1-9.487 13.967-4.915 6.867-10.161 13.485t-10.81 12.97-11.434 12.424-12.03 11.848-12.596 11.243-13.133 10.612-13.638 9.954q-6.94 4.81-14.11 9.274-7.168 4.463-14.547 8.57-7.38 4.106-14.951 7.846-4.89 2.415-9.856 4.674-4.965 2.26-9.999 4.36t-10.132 4.04-10.256 3.717q-5.157 1.778-10.368 3.39-5.21 1.613-10.47 3.06t-10.562 2.727q-5.303 1.279-10.643 2.39-5.34 1.11-10.714 2.05-5.373.942-10.773 1.711t-10.822 1.369q-5.422.598-10.86 1.024t-10.887.68q-5.45.253-10.903.333-5.455.081-10.909-.011-5.454-.093-10.902-.358t-10.886-.703-10.857-1.048-10.82-1.392-10.769-1.734q-5.37-.953-10.709-2.075t-10.638-2.413q-5.3-1.29-10.556-2.75-5.256-1.457-10.464-3.082-5.207-1.624-10.36-3.412-5.154-1.789-10.248-3.74-5.093-1.95-10.123-4.062t-9.99-4.382-9.845-4.696-9.692-5.006q-4.806-2.58-9.528-5.31-4.722-2.731-9.355-5.61-7.173-4.458-14.118-9.261-6.945-4.804-13.646-9.943-6.702-5.14-13.143-10.6-6.44-5.462-12.606-11.233t-12.04-11.838q-5.874-6.066-11.444-12.414t-10.821-12.96-10.173-13.476q-4.92-6.863-9.499-13.96-4.578-7.095-8.802-14.407-4.225-7.312-8.085-14.823-3.86-7.51-7.348-15.202-3.488-7.69-6.594-15.543-3.105-7.853-5.822-15.849t-5.038-16.115-4.241-16.343-3.434-16.532-2.62-16.68q-1.104-8.372-1.796-16.788-.693-8.417-.972-16.857-.278-8.44-.143-16.883.136-8.444.686-16.87.55-8.428 1.513-16.817.962-8.39 2.336-16.722t3.153-16.588q1.78-8.254 3.964-16.412 2.183-8.158 4.764-16.198t5.553-15.945 6.33-15.654 7.089-15.323 7.833-14.958 8.557-14.555q2.88-4.633 5.904-9.173t6.192-8.98 6.473-8.78 6.748-8.57 7.017-8.352q3.575-4.12 7.278-8.126t7.532-7.89 7.778-7.648 8.017-7.397 8.248-7.14q4.18-3.503 8.47-6.873 4.289-3.37 8.682-6.603 4.395-3.232 8.889-6.323t9.084-6.039 9.271-5.747q4.682-2.8 9.45-5.451t9.616-5.148 9.775-4.841 9.924-4.529 10.062-4.211q5.065-2.026 10.191-3.89t10.31-3.566q5.182-1.701 10.416-3.237t10.515-2.905 10.6-2.57 10.678-2.232q5.357-1.032 10.743-1.893t10.797-1.551 10.841-1.208q5.43-.519 10.874-.864 5.444-.346 10.896-.52Q394.545 1 400 1v344z"/><path fill="none" stroke="#fff" stroke-linejoin="bevel" stroke-width="2" d="M708.437 192.675q3.739 7.572 7.102 15.318t6.343 15.648q2.979 7.901 5.567 15.94t4.778 16.194q2.19 8.156 3.978 16.409t3.168 16.584 2.35 16.72q.97 8.39 1.527 16.816.558 8.426.7 16.87.144 8.443-.128 16.883-.271 8.44-.957 16.858-.685 8.416-1.782 16.79-1.098 8.373-2.605 16.682t-3.42 16.534q-1.912 8.225-4.227 16.347-2.314 8.121-5.024 16.12-2.71 7.998-5.808 15.853-3.1 7.856-6.58 15.55t-7.335 15.208q-3.854 7.514-8.072 14.83t-8.79 14.415q-4.573 7.1-9.487 13.967-4.915 6.867-10.161 13.485t-10.81 12.97-11.434 12.424-12.03 11.848-12.596 11.243-13.133 10.612-13.638 9.954q-6.94 4.81-14.11 9.274-7.168 4.463-14.547 8.57-7.38 4.106-14.951 7.846-4.89 2.415-9.856 4.674-4.965 2.26-9.999 4.36t-10.132 4.04-10.256 3.717q-5.157 1.778-10.368 3.39-5.21 1.613-10.47 3.06t-10.562 2.727q-5.303 1.279-10.643 2.39-5.34 1.11-10.714 2.05-5.373.942-10.773 1.711t-10.822 1.369q-5.422.598-10.86 1.024t-10.887.68q-5.45.253-10.903.333-5.455.081-10.909-.011-5.454-.093-10.902-.358t-10.886-.703-10.857-1.048-10.82-1.392-10.769-1.734q-5.37-.953-10.709-2.075t-10.638-2.413q-5.3-1.29-10.556-2.75-5.256-1.457-10.464-3.082-5.207-1.624-10.36-3.412-5.154-1.789-10.248-3.74-5.093-1.95-10.123-4.062t-9.99-4.382-9.845-4.696-9.692-5.006q-4.806-2.58-9.528-5.31-4.722-2.731-9.355-5.61-7.173-4.458-14.118-9.261-6.945-4.804-13.646-9.943-6.702-5.14-13.143-10.6-6.44-5.462-12.606-11.233t-12.04-11.838q-5.874-6.066-11.444-12.414t-10.821-12.96-10.173-13.476q-4.92-6.863-9.499-13.96-4.578-7.095-8.802-14.407-4.225-7.312-8.085-14.823-3.86-7.51-7.348-15.202-3.488-7.69-6.594-15.543-3.105-7.853-5.822-15.849t-5.038-16.115-4.241-16.343-3.434-16.532-2.62-16.68q-1.104-8.372-1.796-16.788-.693-8.417-.972-16.857-.278-8.44-.143-16.883.136-8.444.686-16.87.55-8.428 1.513-16.817.962-8.39 2.336-16.722t3.153-16.588q1.78-8.254 3.964-16.412 2.183-8.158 4.764-16.198t5.553-15.945 6.33-15.654 7.089-15.323 7.833-14.958 8.557-14.555q2.88-4.633 5.904-9.173t6.192-8.98 6.473-8.78 6.748-8.57 7.017-8.352q3.575-4.12 7.278-8.126t7.532-7.89 7.778-7.648 8.017-7.397 8.248-7.14q4.18-3.503 8.47-6.873 4.289-3.37 8.682-6.603 4.395-3.232 8.889-6.323t9.084-6.039 9.271-5.747q4.682-2.8 9.45-5.451t9.616-5.148 9.775-4.841 9.924-4.529 10.062-4.211q5.065-2.026 10.191-3.89t10.31-3.566q5.182-1.701 10.416-3.237t10.515-2.905 10.6-2.57 10.678-2.232q5.357-1.032 10.743-1.893t10.797-1.551 10.841-1.208q5.43-.519 10.874-.864 5.444-.346 10.896-.52Q394.545 1 400 1v344l308.437-152.325Z"/></svg>