<svg xmlns="http://www.w3.org/2000/svg" width="800" height="800"><path fill="none" d="M0 0h800v800H0z"/><clipPath id="a"><path d="M0 740h800v60H0z"/></clipPath><g clip-path="url(#a)"><path fill="#4caf50" d="M144.605 770h40v20h-40z"/><path fill="none" stroke="#fff" stroke-miterlimit="10" stroke-width="2" d="M144.605 770h40v20h-40z"/><text x="194.605, 207.94484, 217.50539, 230.38625, 240.64992, 248.68703, 260.52295," y="787.5," fill="#666" font-family="DejaVu Serif" font-size="20">Trusted</text><path fill="#ff9800" d="M303.325 770h40v20h-40z"/><path fill="none" stroke="#fff" stroke-miterlimit="10" stroke-width="2" d="M303.325 770h40v20h-40z"/><text x="353.32501, 366.78204, 376.34259, 388.38361, 399.68243, 411.51837, 424.39923, 436.32306, 449.20392, 460.40509," y="787.5," fill="#666" font-family="DejaVu Serif" font-size="20">Provenance</text><path fill="#f44336" d="M502.245 770h40v20h-40z"/><path fill="none" stroke="#fff" stroke-miterlimit="10" stroke-width="2" d="M502.245 770h40v20h-40z"/><text x="552.245, 569.10046, 581.98132, 590.01843, 599.57898, 612.45984, 622.72351, 630.76062, 642.59656," y="787.5," fill="#666" font-family="DejaVu Serif" font-size="20">Untrusted</text></g><path fill="#4caf50" d="M400 1q11.821 0 23.618.757 11.797.756 23.52 2.266 11.725 1.51 23.328 3.768t23.039 5.253 22.655 6.716 22.179 8.153 21.611 9.556q10.653 5.124 20.956 10.92L400 370z"/><path fill="none" stroke="#fff" stroke-linejoin="bevel" stroke-width="2" d="M400 1q11.821 0 23.618.757 11.797.756 23.52 2.266 11.725 1.51 23.328 3.768t23.039 5.253 22.655 6.716 22.179 8.153 21.611 9.556q10.653 5.124 20.956 10.92L400 370z"/><path fill="#ff9800" d="M580.906 48.388q13.265 7.462 25.87 15.99 12.607 8.53 24.467 18.068t22.896 20.02q11.034 10.482 21.169 21.838L400 370z"/><path fill="none" stroke="#fff" stroke-linejoin="bevel" stroke-width="2" d="M580.906 48.388q13.265 7.462 25.87 15.99 12.607 8.53 24.467 18.068t22.896 20.02q11.034 10.482 21.169 21.838L400 370 580.906 48.388Z"/><path fill="#f44336" d="M675.308 124.304q6.031 6.758 11.724 13.804 5.692 7.047 11.032 14.364t10.315 14.887q4.974 7.57 9.572 15.375 4.597 7.806 8.805 15.827 4.209 8.022 8.019 16.24t7.212 16.613 6.388 16.948 5.549 17.24 4.696 17.492 3.832 17.702q1.7 8.897 2.96 17.868t2.078 17.991q.819 9.022 1.194 18.072.375 9.051.305 18.11-.07 9.057-.584 18.101t-1.47 18.052q-.958 9.008-2.356 17.958t-3.233 17.82-4.104 17.64q-2.269 8.77-4.965 17.418t-5.813 17.153-6.648 16.847-7.467 16.501q-3.935 8.159-8.267 16.115t-9.048 15.69-9.807 15.226q-5.09 7.493-10.542 14.727t-11.252 14.192-11.935 13.623-12.589 13.02-13.213 12.388q-4.946 4.414-10.047 8.648-5.102 4.233-10.352 8.28-5.25 4.049-10.643 7.905-5.393 3.857-10.92 7.517t-11.183 7.12-11.431 6.713-11.665 6.299q-5.89 3.044-11.884 5.875t-12.087 5.445-12.275 5.007q-6.183 2.393-12.447 4.563t-12.603 4.113-12.742 3.657-12.866 3.197q-6.461 1.484-12.972 2.734t-13.062 2.265-13.134 1.795q-6.584.78-13.191 1.322t-13.23.847-13.252.371q-6.629.067-13.256-.104-6.628-.172-13.244-.581-6.617-.41-13.215-1.057t-13.168-1.53-13.105-2.002q-6.535-1.12-13.025-2.472-6.49-1.353-12.927-2.938t-12.813-3.4-12.683-3.86q-6.307-2.042-12.536-4.311-6.23-2.268-12.373-4.76-6.144-2.49-12.195-5.2-8.267-3.703-16.342-7.806-8.076-4.104-15.94-8.6-7.865-4.495-15.499-9.37-7.634-4.876-15.02-10.12-7.386-5.245-14.506-10.845t-13.956-11.543-13.373-12.215-12.757-12.856q-6.221-6.584-12.111-13.466t-11.436-14.044q-5.546-7.163-10.733-14.589t-10.004-15.098q-4.817-7.671-9.252-15.57-4.434-7.899-8.476-16.005-4.042-8.107-7.68-16.403-3.64-8.295-6.867-16.759-3.228-8.464-6.036-17.076-2.809-8.612-5.191-17.352t-4.333-17.585q-1.95-8.846-3.465-17.777-1.515-8.93-2.589-17.925t-1.706-18.031q-.631-9.037-.819-18.093-.187-9.057.07-18.111t.958-18.086q.7-9.032 1.844-18.018t2.727-17.905q1.583-8.919 3.601-17.75 2.019-8.83 4.468-17.551 2.45-8.721 5.325-17.311t6.167-17.03q3.292-8.438 6.995-16.705 2.71-6.05 5.635-12t6.063-11.79 6.482-11.563 6.893-11.324 7.296-11.069 7.689-10.8q3.94-5.33 8.071-10.516 4.13-5.185 8.444-10.22 4.314-5.033 8.806-9.91 4.492-4.875 9.156-9.586t9.495-9.252 9.82-8.905q4.99-4.364 10.135-8.547 5.144-4.182 10.434-8.177 5.291-3.994 10.722-7.796t10.995-7.407q5.564-3.605 11.254-7.007t11.498-6.598 11.728-6.18q5.92-2.986 11.942-5.757t12.141-5.322 12.325-4.884 12.492-4.437 12.644-3.986q6.357-1.88 12.778-3.53t12.897-3.067 12.999-2.603 13.084-2.134 13.152-1.663 13.204-1.189 13.237-.714T400 1v369z"/><path fill="none" stroke="#fff" stroke-linejoin="bevel" stroke-width="2" d="M675.308 124.304q6.031 6.758 11.724 13.804 5.692 7.047 11.032 14.364t10.315 14.887q4.974 7.57 9.572 15.375 4.597 7.806 8.805 15.827 4.209 8.022 8.019 16.24t7.212 16.613 6.388 16.948 5.549 17.24 4.696 17.492 3.832 17.702q1.7 8.897 2.96 17.868t2.078 17.991q.819 9.022 1.194 18.072.375 9.051.305 18.11-.07 9.057-.584 18.101t-1.47 18.052q-.958 9.008-2.356 17.958t-3.233 17.82-4.104 17.64q-2.269 8.77-4.965 17.418t-5.813 17.153-6.648 16.847-7.467 16.501q-3.935 8.159-8.267 16.115t-9.048 15.69-9.807 15.226q-5.09 7.493-10.542 14.727t-11.252 14.192-11.935 13.623-12.589 13.02-13.213 12.388q-4.946 4.414-10.047 8.648-5.102 4.233-10.352 8.28-5.25 4.049-10.643 7.905-5.393 3.857-10.92 7.517t-11.183 7.12-11.431 6.713-11.665 6.299q-5.89 3.044-11.884 5.875t-12.087 5.445-12.275 5.007q-6.183 2.393-12.447 4.563t-12.603 4.113-12.742 3.657-12.866 3.197q-6.461 1.484-12.972 2.734t-13.062 2.265-13.134 1.795q-6.584.78-13.191 1.322t-13.23.847-13.252.371q-6.629.067-13.256-.104-6.628-.172-13.244-.581-6.617-.41-13.215-1.057t-13.168-1.53-13.105-2.002q-6.535-1.12-13.025-2.472-6.49-1.353-12.927-2.938t-12.813-3.4-12.683-3.86q-6.307-2.042-12.536-4.311-6.23-2.268-12.373-4.76-6.144-2.49-12.195-5.2-8.267-3.703-16.342-7.806-8.076-4.104-15.94-8.6-7.865-4.495-15.499-9.37-7.634-4.876-15.02-10.12-7.386-5.245-14.506-10.845t-13.956-11.543-13.373-12.215-12.757-12.856q-6.221-6.584-12.111-13.466t-11.436-14.044q-5.546-7.163-10.733-14.589t-10.004-15.098q-4.817-7.671-9.252-15.57-4.434-7.899-8.476-16.005-4.042-8.107-7.68-16.403-3.64-8.295-6.867-16.759-3.228-8.464-6.036-17.076-2.809-8.612-5.191-17.352t-4.333-17.585q-1.95-8.846-3.465-17.777-1.515-8.93-2.589-17.925t-1.706-18.031q-.631-9.037-.819-18.093-.187-9.057.07-18.111t.958-18.086q.7-9.032 1.844-18.018t2.727-17.905q1.583-8.919 3.601-17.75 2.019-8.83 4.468-17.551 2.45-8.721 5.325-17.311t6.167-17.03q3.292-8.438 6.995-16.705 2.71-6.05 5.635-12t6.063-11.79 6.482-11.563 6.893-11.324 7.296-11.069 7.689-10.8q3.94-5.33 8.071-10.516 4.13-5.185 8.444-10.22 4.314-5.033 8.806-9.91 4.492-4.875 9.156-9.586t9.495-9.252 9.82-8.905q4.99-4.364 10.135-8.547 5.144-4.182 10.434-8.177 5.291-3.994 10.722-7.796t10.995-7.407q5.564-3.605 11.254-7.007t11.498-6.598 11.728-6.18q5.92-2.986 11.942-5.757t12.141-5.322 12.325-4.884 12.492-4.437 12.644-3.986q6.357-1.88 12.778-3.53t12.897-3.067 12.999-2.603 13.084-2.134 13.152-1.663 13.204-1.189 13.237-.714T400 1v369l275.308-245.696Z"/></svg>