<svg xmlns="http://www.w3.org/2000/svg" width="800" height="800"><path fill="none" d="M0 0h800v800H0z"/><clipPath id="a"><path d="M0 740h800v60H0z"/></clipPath><g clip-path="url(#a)"><path fill="#4caf50" d="M144.605 770h40v20h-40z"/><path fill="none" stroke="#fff" stroke-miterlimit="10" stroke-width="2" d="M144.605 770h40v20h-40z"/><text x="194.605, 207.94484, 217.50539, 230.38625, 240.64992, 248.68703, 260.52295," y="787.5," fill="#666" font-family="DejaVu Serif" font-size="20">Trusted</text><path fill="#ff9800" d="M303.325 770h40v20h-40z"/><path fill="none" stroke="#fff" stroke-miterlimit="10" stroke-width="2" d="M303.325 770h40v20h-40z"/><text x="353.32501, 366.78204, 376.34259, 388.38361, 399.68243, 411.51837, 424.39923, 436.32306, 449.20392, 460.40509," y="787.5," fill="#666" font-family="DejaVu Serif" font-size="20">Provenance</text><path fill="#f44336" d="M502.245 770h40v20h-40z"/><path fill="none" stroke="#fff" stroke-miterlimit="10" stroke-width="2" d="M502.245 770h40v20h-40z"/><text x="552.245, 569.10046, 581.98132, 590.01843, 599.57898, 612.45984, 622.72351, 630.76062, 642.59656," y="787.5," fill="#666" font-family="DejaVu Serif" font-size="20">Untrusted</text></g><path fill="#4caf50" d="M400 1q7.018 0 14.031.267t14.01.8q6.999.533 13.971 1.332 6.973.8 13.91 1.863 6.937 1.064 13.828 2.39 6.892 1.327 13.728 2.914t13.607 3.435q6.77 1.846 13.466 3.949t13.307 4.458 13.127 4.96 12.93 5.458 12.712 5.944 12.477 6.423q6.178 3.33 12.224 6.893t11.953 7.353 11.665 7.803L400 370z"/><path fill="none" stroke="#fff" stroke-linejoin="bevel" stroke-width="2" d="M400 1q7.018 0 14.031.267t14.01.8q6.999.533 13.971 1.332 6.973.8 13.91 1.863 6.937 1.064 13.828 2.39 6.892 1.327 13.728 2.914t13.607 3.435q6.77 1.846 13.466 3.949t13.307 4.458 13.127 4.96 12.93 5.458 12.712 5.944 12.477 6.423q6.178 3.33 12.224 6.893t11.953 7.353 11.665 7.803L400 370z"/><path fill="#ff9800" d="M610.946 67.241q10.778 7.51 20.994 15.766t19.82 17.219 18.544 18.584 17.177 19.856L400 370z"/><path fill="none" stroke="#fff" stroke-linejoin="bevel" stroke-width="2" d="M610.946 67.241q10.778 7.51 20.994 15.766t19.82 17.219 18.544 18.584 17.177 19.856L400 370 610.946 67.242Z"/><path fill="#f44336" d="M687.481 138.666q5.679 7.057 11.005 14.384 5.326 7.328 10.285 14.908t9.542 15.394 8.775 15.843 7.987 16.256q3.794 8.225 7.18 16.627t6.355 16.96 5.516 17.251 4.662 17.501 3.798 17.709q1.682 8.9 2.924 17.874 1.243 8.972 2.044 17.995t1.159 18.075.27 18.11q-.087 9.057-.619 18.1-.531 9.043-1.506 18.049t-2.39 17.953-3.268 17.814-4.138 17.632q-2.286 8.766-4.999 17.408t-5.846 17.142-6.68 16.834q-3.548 8.336-7.5 16.487-3.95 8.15-8.298 16.098-4.346 7.947-9.078 15.672-4.731 7.724-9.836 15.207t-10.571 14.707-11.28 14.17-11.961 13.6-12.614 12.996-13.237 12.362-13.828 11.697q-5.05 4.064-10.24 7.948t-10.513 7.584-10.773 7.209-11.02 6.827-11.252 6.435-11.471 6.036-11.677 5.63-11.867 5.216-12.043 4.796-12.204 4.37-12.35 3.938q-6.209 1.86-12.48 3.502t-12.596 3.062-12.696 2.618q-6.37 1.197-12.78 2.17-6.408.972-12.848 1.72-6.439.747-12.9 1.267t-12.937.813-12.958.36-12.963-.098-12.95-.551-12.924-1.007-12.88-1.46-12.821-1.911-12.746-2.36q-6.353-1.293-12.656-2.807t-12.548-3.25-12.427-3.688-12.29-4.122-12.137-4.552q-6.03-2.382-11.97-4.975-5.942-2.592-11.788-5.392-8.17-3.913-16.139-8.221-7.968-4.309-15.715-9.003t-15.255-9.763-14.757-10.5-14.224-11.211-13.657-11.896q-6.683-6.116-13.057-12.552T125.4 616.486q-6.051-6.74-11.764-13.77t-11.074-14.332q-5.361-7.302-10.357-14.858-4.997-7.556-9.616-15.348-4.62-7.792-8.851-15.801t-8.066-16.217q-3.833-8.207-7.26-16.592-3.425-8.386-6.436-16.93-3.01-8.543-5.598-17.224-2.588-8.68-4.747-17.478t-3.883-17.69q-1.724-8.893-3.01-17.86-1.287-8.967-2.131-17.986t-1.245-18.068-.358-18.108.532-18.104 1.42-18.056q.93-9.01 2.303-17.964t3.182-17.83q1.81-8.875 4.053-17.652 2.243-8.776 4.915-17.431 2.67-8.656 5.764-17.17 3.092-8.514 6.6-16.866 3.506-8.353 7.418-16.523 2.8-5.846 5.803-11.59 3.004-5.745 6.207-11.381t6.603-11.155 6.99-10.917 7.37-10.664q3.778-5.267 7.739-10.399 3.96-5.13 8.1-10.12 4.138-4.99 8.45-9.83t8.79-9.527q4.48-4.686 9.12-9.212t9.437-8.886 9.744-8.55q4.947-4.188 10.038-8.201t10.32-7.844q5.23-3.832 10.59-7.477t10.845-7.1q5.485-3.455 11.088-6.715t11.317-6.321 11.532-5.92q5.818-2.86 11.732-5.512 5.915-2.652 11.92-5.095 6.004-2.444 12.09-4.674t12.248-4.247q6.16-2.015 12.389-3.813t12.515-3.376 12.626-2.935 12.722-2.489 12.8-2.04 12.866-1.59 12.913-1.138q6.466-.455 12.944-.682T400 1v369z"/><path fill="none" stroke="#fff" stroke-linejoin="bevel" stroke-width="2" d="M687.481 138.666q5.679 7.057 11.005 14.384 5.326 7.328 10.285 14.908t9.542 15.394 8.775 15.843 7.987 16.256q3.794 8.225 7.18 16.627t6.355 16.96 5.516 17.251 4.662 17.501 3.798 17.709q1.682 8.9 2.924 17.874 1.243 8.972 2.044 17.995t1.159 18.075.27 18.11q-.087 9.057-.619 18.1-.531 9.043-1.506 18.049t-2.39 17.953-3.268 17.814-4.138 17.632q-2.286 8.766-4.999 17.408t-5.846 17.142-6.68 16.834q-3.548 8.336-7.5 16.487-3.95 8.15-8.298 16.098-4.346 7.947-9.078 15.672-4.731 7.724-9.836 15.207t-10.571 14.707-11.28 14.17-11.961 13.6-12.614 12.996-13.237 12.362-13.828 11.697q-5.05 4.064-10.24 7.948t-10.513 7.584-10.773 7.209-11.02 6.827-11.252 6.435-11.471 6.036-11.677 5.63-11.867 5.216-12.043 4.796-12.204 4.37-12.35 3.938q-6.209 1.86-12.48 3.502t-12.596 3.062-12.696 2.618q-6.37 1.197-12.78 2.17-6.408.972-12.848 1.72-6.439.747-12.9 1.267t-12.937.813-12.958.36-12.963-.098-12.95-.551-12.924-1.007-12.88-1.46-12.821-1.911-12.746-2.36q-6.353-1.293-12.656-2.807t-12.548-3.25-12.427-3.688-12.29-4.122-12.137-4.552q-6.03-2.382-11.97-4.975-5.942-2.592-11.788-5.392-8.17-3.913-16.139-8.221-7.968-4.309-15.715-9.003t-15.255-9.763-14.757-10.5-14.224-11.211-13.657-11.896q-6.683-6.116-13.057-12.552T125.4 616.486q-6.051-6.74-11.764-13.77t-11.074-14.332q-5.361-7.302-10.357-14.858-4.997-7.556-9.616-15.348-4.62-7.792-8.851-15.801t-8.066-16.217q-3.833-8.207-7.26-16.592-3.425-8.386-6.436-16.93-3.01-8.543-5.598-17.224-2.588-8.68-4.747-17.478t-3.883-17.69q-1.724-8.893-3.01-17.86-1.287-8.967-2.131-17.986t-1.245-18.068-.358-18.108.532-18.104 1.42-18.056q.93-9.01 2.303-17.964t3.182-17.83q1.81-8.875 4.053-17.652 2.243-8.776 4.915-17.431 2.67-8.656 5.764-17.17 3.092-8.514 6.6-16.866 3.506-8.353 7.418-16.523 2.8-5.846 5.803-11.59 3.004-5.745 6.207-11.381t6.603-11.155 6.99-10.917 7.37-10.664q3.778-5.267 7.739-10.399 3.96-5.13 8.1-10.12 4.138-4.99 8.45-9.83t8.79-9.527q4.48-4.686 9.12-9.212t9.437-8.886 9.744-8.55q4.947-4.188 10.038-8.201t10.32-7.844q5.23-3.832 10.59-7.477t10.845-7.1q5.485-3.455 11.088-6.715t11.317-6.321 11.532-5.92q5.818-2.86 11.732-5.512 5.915-2.652 11.92-5.095 6.004-2.444 12.09-4.674t12.248-4.247q6.16-2.015 12.389-3.813t12.515-3.376 12.626-2.935 12.722-2.489 12.8-2.04 12.866-1.59 12.913-1.138q6.466-.455 12.944-.682T400 1v369l287.481-231.334Z"/></svg>