<svg xmlns="http://www.w3.org/2000/svg" width="800" height="800"><path fill="none" d="M0 0h800v800H0z"/><clipPath id="a"><path d="M0 740h800v60H0z"/></clipPath><g clip-path="url(#a)"><path fill="#4caf50" d="M164.745 770h40v20h-40z"/><path fill="none" stroke="#fff" stroke-miterlimit="10" stroke-width="2" d="M164.745 770h40v20h-40z"/><text x="214.745, 226.2196, 232.87976, 244.00281, 254.00281, 259.55945, 270.6825," y="786.5," fill="#666" font-family="Liberation Sans" font-size="20">Trusted</text><path fill="#ff9800" d="M311.805 770h40v20h-40z"/><path fill="none" stroke="#fff" stroke-miterlimit="10" stroke-width="2" d="M311.805 770h40v20h-40z"/><text x="361.80499, 375.14484, 381.80499, 392.92804, 402.92804, 414.05109, 425.17413, 436.29718, 447.42023, 457.42023," y="786.5," fill="#666" font-family="Liberation Sans" font-size="20">Provenance</text><path fill="#f44336" d="M498.545 770h40v20h-40z"/><path fill="none" stroke="#fff" stroke-miterlimit="10" stroke-width="2" d="M498.545 770h40v20h-40z"/><text x="548.54498, 562.98834, 574.11139, 579.66803, 586.32819, 597.45123, 607.45123, 613.00787, 624.13092," y="786.5," fill="#666" font-family="Liberation Sans" font-size="20">Untrusted</text></g><path fill="#4caf50" d="M400 1q5.354 0 10.707.155 5.352.156 10.697.466 5.346.31 10.68.776t10.653 1.086 10.616 1.395q5.299.774 10.572 1.701 5.274.928 10.518 2.008t10.455 2.312 10.384 2.615 10.303 2.915T515.8 19.64t10.117 3.508 10.011 3.8 9.897 4.088q4.918 2.116 9.774 4.374t9.642 4.655q4.788 2.398 9.504 4.934t9.356 5.207 9.202 5.476 9.038 5.741 8.869 6.001 8.69 6.256q4.3 3.19 8.505 6.505t8.313 6.75 8.114 6.987 7.907 7.22q3.902 3.668 7.695 7.447t7.475 7.667q3.682 3.887 7.25 7.88t7.018 8.087 6.78 8.288 6.537 8.48L400 370z"/><path fill="none" stroke="#fff" stroke-linejoin="bevel" stroke-width="2" d="M400 1q5.354 0 10.707.155 5.352.156 10.697.466 5.346.31 10.68.776t10.653 1.086 10.616 1.395q5.299.774 10.572 1.701 5.274.928 10.518 2.008t10.455 2.312 10.384 2.615 10.303 2.915T515.8 19.64t10.117 3.508 10.011 3.8 9.897 4.088q4.918 2.116 9.774 4.374t9.642 4.655q4.788 2.398 9.504 4.934t9.356 5.207 9.202 5.476 9.038 5.741 8.869 6.001 8.69 6.256q4.3 3.19 8.505 6.505t8.313 6.75 8.114 6.987 7.907 7.22q3.902 3.668 7.695 7.447t7.475 7.667q3.682 3.887 7.25 7.88t7.018 8.087 6.78 8.288 6.537 8.48L400 370z"/><path fill="#ff9800" d="M695.494 148.993q12.947 17.31 23.784 36.013 10.837 18.704 19.416 38.544L400 370z"/><path fill="none" stroke="#fff" stroke-linejoin="bevel" stroke-width="2" d="M695.494 148.993q12.947 17.31 23.784 36.013 10.837 18.704 19.416 38.544L400 370l295.494-221.007Z"/><path fill="#f44336" d="M738.694 223.55q3.595 8.315 6.778 16.796t5.945 17.107 5.1 17.38 4.24 17.607 3.37 17.795 2.495 17.939 1.61 18.04.724 18.097-.165 18.11q-.305 9.054-1.054 18.081t-1.94 18.007q-1.19 8.98-2.82 17.89t-3.696 17.731-4.56 17.528-5.416 17.283q-2.92 8.575-6.257 16.996t-7.083 16.669-7.893 16.301-8.683 15.894-9.452 15.45-10.2 14.966-10.92 14.448q-5.639 7.09-11.618 13.895t-12.285 13.308q-6.305 6.504-12.923 12.69-6.617 6.186-13.53 12.04t-14.104 11.361-14.645 10.656-15.15 9.924q-7.698 4.777-15.62 9.17t-16.05 8.39q-8.128 4-16.442 7.595-5.237 2.264-10.541 4.365t-10.671 4.038-10.79 3.706q-5.425 1.77-10.9 3.37-5.477 1.602-11 3.033t-11.087 2.69-11.165 2.346q-5.601 1.087-11.233 2-5.632.914-11.289 1.652-5.657.739-11.335 1.302-5.677.564-11.37.951-5.691.388-11.393.6-5.701.21-11.406.246-5.705.035-11.409-.106t-11.4-.46-11.38-.81-11.35-1.163-11.309-1.512-11.256-1.862-11.193-2.21-11.12-2.553-11.036-2.896-10.94-3.237q-5.445-1.702-10.836-3.572-5.39-1.87-10.72-3.907-5.329-2.035-10.593-4.235t-10.458-4.561q-5.194-2.362-10.312-4.883t-10.156-5.198q-5.037-2.678-9.99-5.51-4.953-2.833-9.815-5.817-4.863-2.984-9.631-6.117-7.57-4.975-14.888-10.315t-14.363-11.032q-7.047-5.692-13.805-11.724-6.759-6.031-13.213-12.387-6.455-6.356-12.59-13.02-6.134-6.665-11.935-13.623-5.8-6.958-11.252-14.192t-10.543-14.726-9.807-15.227-9.048-15.689-8.268-16.114-7.467-16.5-6.648-16.848-5.814-17.153-4.965-17.417q-2.268-8.77-4.104-17.64t-3.234-17.821-2.355-17.958-1.472-18.051-.584-18.102.305-18.11 1.193-18.071 2.078-17.992 2.959-17.868q1.699-8.898 3.832-17.702 2.133-8.803 4.696-17.492t5.548-17.24 6.388-16.948q3.402-8.395 7.212-16.613t8.018-16.24 8.805-15.827 9.571-15.376q3.133-4.768 6.412-9.437t6.701-9.234 6.983-9.023 7.258-8.802 7.528-8.574q3.83-4.23 7.788-8.337 3.96-4.109 8.043-8.093 4.084-3.984 8.289-7.84t8.527-7.58q4.323-3.723 8.758-7.312 4.436-3.588 8.98-7.038t9.193-6.757q4.648-3.308 9.397-6.47t9.593-6.177 9.78-5.876q4.934-2.863 9.955-5.572 5.022-2.709 10.124-5.261t10.282-4.946 10.43-4.625 10.567-4.3q5.317-2.07 10.695-3.973t10.814-3.64q5.434-1.736 10.92-3.303t11.018-2.964 11.103-2.622 11.18-2.278 11.245-1.93q5.637-.88 11.299-1.583 5.661-.704 11.342-1.233 5.68-.528 11.375-.88 5.695-.353 11.397-.53Q394.295 1 400 1v369z"/><path fill="none" stroke="#fff" stroke-linejoin="bevel" stroke-width="2" d="M738.694 223.55q3.595 8.315 6.778 16.796t5.945 17.107 5.1 17.38 4.24 17.607 3.37 17.795 2.495 17.939 1.61 18.04.724 18.097-.165 18.11q-.305 9.054-1.054 18.081t-1.94 18.007q-1.19 8.98-2.82 17.89t-3.696 17.731-4.56 17.528-5.416 17.283q-2.92 8.575-6.257 16.996t-7.083 16.669-7.893 16.301-8.683 15.894-9.452 15.45-10.2 14.966-10.92 14.448q-5.639 7.09-11.618 13.895t-12.285 13.308q-6.305 6.504-12.923 12.69-6.617 6.186-13.53 12.04t-14.104 11.361-14.645 10.656-15.15 9.924q-7.698 4.777-15.62 9.17t-16.05 8.39q-8.128 4-16.442 7.595-5.237 2.264-10.541 4.365t-10.671 4.038-10.79 3.706q-5.425 1.77-10.9 3.37-5.477 1.602-11 3.033t-11.087 2.69-11.165 2.346q-5.601 1.087-11.233 2-5.632.914-11.289 1.652-5.657.739-11.335 1.302-5.677.564-11.37.951-5.691.388-11.393.6-5.701.21-11.406.246-5.705.035-11.409-.106t-11.4-.46-11.38-.81-11.35-1.163-11.309-1.512-11.256-1.862-11.193-2.21-11.12-2.553-11.036-2.896-10.94-3.237q-5.445-1.702-10.836-3.572-5.39-1.87-10.72-3.907-5.329-2.035-10.593-4.235t-10.458-4.561q-5.194-2.362-10.312-4.883t-10.156-5.198q-5.037-2.678-9.99-5.51-4.953-2.833-9.815-5.817-4.863-2.984-9.631-6.117-7.57-4.975-14.888-10.315t-14.363-11.032q-7.047-5.692-13.805-11.724-6.759-6.031-13.213-12.387-6.455-6.356-12.59-13.02-6.134-6.665-11.935-13.623-5.8-6.958-11.252-14.192t-10.543-14.726-9.807-15.227-9.048-15.689-8.268-16.114-7.467-16.5-6.648-16.848-5.814-17.153-4.965-17.417q-2.268-8.77-4.104-17.64t-3.234-17.821-2.355-17.958-1.472-18.051-.584-18.102.305-18.11 1.193-18.071 2.078-17.992 2.959-17.868q1.699-8.898 3.832-17.702 2.133-8.803 4.696-17.492t5.548-17.24 6.388-16.948q3.402-8.395 7.212-16.613t8.018-16.24 8.805-15.827 9.571-15.376q3.133-4.768 6.412-9.437t6.701-9.234 6.983-9.023 7.258-8.802 7.528-8.574q3.83-4.23 7.788-8.337 3.96-4.109 8.043-8.093 4.084-3.984 8.289-7.84t8.527-7.58q4.323-3.723 8.758-7.312 4.436-3.588 8.98-7.038t9.193-6.757q4.648-3.308 9.397-6.47t9.593-6.177 9.78-5.876q4.934-2.863 9.955-5.572 5.022-2.709 10.124-5.261t10.282-4.946 10.43-4.625 10.567-4.3q5.317-2.07 10.695-3.973t10.814-3.64q5.434-1.736 10.92-3.303t11.018-2.964 11.103-2.622 11.18-2.278 11.245-1.93q5.637-.88 11.299-1.583 5.661-.704 11.342-1.233 5.68-.528 11.375-.88 5.695-.353 11.397-.53Q394.295 1 400 1v369l338.694-146.45Z"/></svg>