<svg xmlns="http://www.w3.org/2000/svg" width="800" height="800"><path fill="none" d="M0 0h800v800H0z"/><clipPath id="a"><path d="M0 740h800v60H0z"/></clipPath><g clip-path="url(#a)"><path fill="#4caf50" d="M144.605 770h40v20h-40z"/><path fill="none" stroke="#fff" stroke-miterlimit="10" stroke-width="2" d="M144.605 770h40v20h-40z"/><text x="194.605, 207.94484, 217.50539, 230.38625, 240.64992, 248.68703, 260.52295," y="787.5," fill="#666" font-family="DejaVu Serif" font-size="20">Trusted</text><path fill="#ff9800" d="M303.325 770h40v20h-40z"/><path fill="none" stroke="#fff" stroke-miterlimit="10" stroke-width="2" d="M303.325 770h40v20h-40z"/><text x="353.32501, 366.78204, 376.34259, 388.38361, 399.68243, 411.51837, 424.39923, 436.32306, 449.20392, 460.40509," y="787.5," fill="#666" font-family="DejaVu Serif" font-size="20">Provenance</text><path fill="#f44336" d="M502.245 770h40v20h-40z"/><path fill="none" stroke="#fff" stroke-miterlimit="10" stroke-width="2" d="M502.245 770h40v20h-40z"/><text x="552.245, 569.10046, 581.98132, 590.01843, 599.57898, 612.45984, 622.72351, 630.76062, 642.59656," y="787.5," fill="#666" font-family="DejaVu Serif" font-size="20">Untrusted</text></g><path fill="#4caf50" d="M400 1q7.787 0 15.567.328 7.78.329 15.538.985 7.76.657 15.484 1.64t15.4 2.291 15.29 2.939 15.153 3.581q7.538 1.95 14.988 4.218 7.45 2.266 14.797 4.845 7.347 2.58 14.579 5.466t14.335 6.076 14.067 6.675 13.772 7.263 13.454 7.837 13.11 8.398q6.468 4.337 12.746 8.944 6.278 4.606 12.357 9.473L400 370z"/><path fill="none" stroke="#fff" stroke-linejoin="bevel" stroke-width="2" d="M400 1q7.787 0 15.567.328 7.78.329 15.538.985 7.76.657 15.484 1.64t15.4 2.291 15.29 2.939 15.153 3.581q7.538 1.95 14.988 4.218 7.45 2.266 14.797 4.845 7.347 2.58 14.579 5.466t14.335 6.076 14.067 6.675 13.772 7.263 13.454 7.837 13.11 8.398q6.468 4.337 12.746 8.944 6.278 4.606 12.357 9.473L400 370z"/><path fill="#ff9800" d="M630.636 81.959q10.01 8.015 19.44 16.706t18.234 18.015 16.939 19.238 15.562 20.368L400 370z"/><path fill="none" stroke="#fff" stroke-linejoin="bevel" stroke-width="2" d="M630.636 81.959q10.01 8.015 19.44 16.706t18.234 18.015 16.939 19.238 15.562 20.368L400 370 630.636 81.959Z"/><path fill="#f44336" d="M700.81 156.285q5.247 7.385 10.125 15.018t9.375 15.496 8.603 15.938 7.811 16.34 7 16.704 6.172 17.028 5.329 17.31 4.473 17.55 3.606 17.748q1.586 8.92 2.732 17.905t1.85 18.017q.703 9.03.962 18.085.26 9.055.075 18.112t-.814 18.093q-.63 9.036-1.701 18.031t-2.584 17.926q-1.512 8.932-3.46 17.778-1.948 8.847-4.328 17.587t-5.186 17.353-6.031 17.078-6.862 16.76-7.676 16.405-8.472 16.008-9.247 15.573-10 15.1-10.73 14.592-11.431 14.047-12.108 13.47-12.754 12.86-13.369 12.218-13.953 11.547-14.502 10.849q-5.144 3.654-10.41 7.13-5.265 3.477-10.647 6.771-5.381 3.295-10.872 6.403-5.49 3.109-11.085 6.027-5.594 2.92-11.284 5.645-5.69 2.726-11.47 5.256t-11.645 4.86-11.803 4.46-11.948 4.053q-6.01 1.925-12.08 3.643-6.072 1.718-12.199 3.227-6.126 1.51-12.3 2.809t-12.39 2.386q-6.216 1.087-12.464 1.961-6.25.874-12.524 1.534-6.275.66-12.57 1.105-6.293.445-12.599.675-6.305.23-12.615.243-6.31.014-12.616-.188t-12.602-.62q-6.296-.416-12.574-1.049-6.278-.632-12.53-1.479-6.253-.846-12.473-1.906t-12.4-2.332-12.314-2.755q-6.133-1.482-12.211-3.174-6.08-1.69-12.097-3.589-6.017-1.898-11.966-4-5.949-2.104-11.823-4.409-5.873-2.305-11.665-4.809-5.79-2.504-11.493-5.205t-11.31-5.595q-8.049-4.156-15.884-8.7-7.836-4.546-15.44-9.47-7.602-4.924-14.955-10.216-7.352-5.29-14.436-10.937-7.084-5.645-13.882-11.632-6.799-5.986-13.295-12.299-6.497-6.313-12.675-12.937-6.18-6.624-12.026-13.543-5.846-6.92-11.346-14.117t-10.64-14.657q-5.14-7.458-9.908-15.16-4.767-7.703-9.152-15.63-4.384-7.926-8.374-16.059-3.99-8.132-7.576-16.45-3.586-8.319-6.76-16.803t-5.927-17.114-5.08-17.385-4.22-17.612-3.353-17.799-2.474-17.942q-1.017-9-1.591-18.041-.574-9.04-.704-18.098t.185-18.11 1.073-18.08 1.96-18.005 2.84-17.887 3.714-17.727 4.58-17.522 5.434-17.277 6.276-16.99T64.2 217.03t7.91-16.293q2.895-5.606 5.98-11.11 3.083-5.505 6.354-10.901t6.724-10.677q3.453-5.28 7.085-10.44t7.438-10.192q3.806-5.033 7.782-9.932 3.976-4.9 8.117-9.66 4.14-4.76 8.442-9.377 4.302-4.616 8.758-9.083 4.457-4.466 9.064-8.778 4.607-4.311 9.358-8.463t9.643-8.138 9.914-7.804 10.176-7.46 10.425-7.108 10.662-6.747 10.886-6.38 11.098-6.002 11.297-5.62 11.482-5.23q5.786-2.518 11.655-4.836 5.868-2.317 11.813-4.433 5.944-2.116 11.957-4.027t12.088-3.616 12.205-3.201 12.307-2.782Q331 7.454 337.216 6.38q6.218-1.073 12.469-1.934 6.25-.86 12.527-1.506t12.571-1.077q6.295-.432 12.601-.647T400 1v369z"/><path fill="none" stroke="#fff" stroke-linejoin="bevel" stroke-width="2" d="M700.81 156.285q5.247 7.385 10.125 15.018t9.375 15.496 8.603 15.938 7.811 16.34 7 16.704 6.172 17.028 5.329 17.31 4.473 17.55 3.606 17.748q1.586 8.92 2.732 17.905t1.85 18.017q.703 9.03.962 18.085.26 9.055.075 18.112t-.814 18.093q-.63 9.036-1.701 18.031t-2.584 17.926q-1.512 8.932-3.46 17.778-1.948 8.847-4.328 17.587t-5.186 17.353-6.031 17.078-6.862 16.76-7.676 16.405-8.472 16.008-9.247 15.573-10 15.1-10.73 14.592-11.431 14.047-12.108 13.47-12.754 12.86-13.369 12.218-13.953 11.547-14.502 10.849q-5.144 3.654-10.41 7.13-5.265 3.477-10.647 6.771-5.381 3.295-10.872 6.403-5.49 3.109-11.085 6.027-5.594 2.92-11.284 5.645-5.69 2.726-11.47 5.256t-11.645 4.86-11.803 4.46-11.948 4.053q-6.01 1.925-12.08 3.643-6.072 1.718-12.199 3.227-6.126 1.51-12.3 2.809t-12.39 2.386q-6.216 1.087-12.464 1.961-6.25.874-12.524 1.534-6.275.66-12.57 1.105-6.293.445-12.599.675-6.305.23-12.615.243-6.31.014-12.616-.188t-12.602-.62q-6.296-.416-12.574-1.049-6.278-.632-12.53-1.479-6.253-.846-12.473-1.906t-12.4-2.332-12.314-2.755q-6.133-1.482-12.211-3.174-6.08-1.69-12.097-3.589-6.017-1.898-11.966-4-5.949-2.104-11.823-4.409-5.873-2.305-11.665-4.809-5.79-2.504-11.493-5.205t-11.31-5.595q-8.049-4.156-15.884-8.7-7.836-4.546-15.44-9.47-7.602-4.924-14.955-10.216-7.352-5.29-14.436-10.937-7.084-5.645-13.882-11.632-6.799-5.986-13.295-12.299-6.497-6.313-12.675-12.937-6.18-6.624-12.026-13.543-5.846-6.92-11.346-14.117t-10.64-14.657q-5.14-7.458-9.908-15.16-4.767-7.703-9.152-15.63-4.384-7.926-8.374-16.059-3.99-8.132-7.576-16.45-3.586-8.319-6.76-16.803t-5.927-17.114-5.08-17.385-4.22-17.612-3.353-17.799-2.474-17.942q-1.017-9-1.591-18.041-.574-9.04-.704-18.098t.185-18.11 1.073-18.08 1.96-18.005 2.84-17.887 3.714-17.727 4.58-17.522 5.434-17.277 6.276-16.99T64.2 217.03t7.91-16.293q2.895-5.606 5.98-11.11 3.083-5.505 6.354-10.901t6.724-10.677q3.453-5.28 7.085-10.44t7.438-10.192q3.806-5.033 7.782-9.932 3.976-4.9 8.117-9.66 4.14-4.76 8.442-9.377 4.302-4.616 8.758-9.083 4.457-4.466 9.064-8.778 4.607-4.311 9.358-8.463t9.643-8.138 9.914-7.804 10.176-7.46 10.425-7.108 10.662-6.747 10.886-6.38 11.098-6.002 11.297-5.62 11.482-5.23q5.786-2.518 11.655-4.836 5.868-2.317 11.813-4.433 5.944-2.116 11.957-4.027t12.088-3.616 12.205-3.201 12.307-2.782Q331 7.454 337.216 6.38q6.218-1.073 12.469-1.934 6.25-.86 12.527-1.506t12.571-1.077q6.295-.432 12.601-.647T400 1v369l300.81-213.714Z"/></svg>