<svg xmlns="http://www.w3.org/2000/svg" width="800" height="800"><path fill="none" d="M0 0h800v800H0z"/><clipPath id="a"><path d="M0 690h800v110H0z"/></clipPath><g clip-path="url(#a)"><path fill="#4caf50" d="M123.3 720h40v20h-40z"/><path fill="none" stroke="#fff" stroke-miterlimit="10" stroke-width="2" d="M123.3 720h40v20h-40z"/><path fill="#ff9800" d="M377.64 720h40v20h-40z"/><path fill="none" stroke="#fff" stroke-miterlimit="10" stroke-width="2" d="M377.64 720h40v20h-40z"/><path fill="#f44336" d="M262.92 770h40v20h-40z"/><path fill="none" stroke="#fff" stroke-miterlimit="10" stroke-width="2" d="M262.92 770h40v20h-40z"/></g><path fill="#4caf50" d="M400 1q4.527 0 9.052.12 4.526.118 9.046.356 4.521.239 9.034.596t9.015.832 8.99 1.07 8.958 1.306 8.92 1.541q4.451.83 8.878 1.775 4.427.946 8.827 2.009t8.772 2.24 8.71 2.47 8.641 2.698 8.568 2.925 8.488 3.149 8.402 3.372q4.178 1.74 8.31 3.591 4.131 1.85 8.213 3.809 4.081 1.958 8.11 4.023 4.028 2.066 8 4.236t7.887 4.445q3.914 2.274 7.767 4.65t7.643 4.854 7.511 5.053 7.376 5.25 7.236 5.44 7.09 5.63 6.939 5.814 6.784 5.995 6.623 6.171 6.46 6.344 6.29 6.511q3.101 3.297 6.115 6.675L400 345z"/><path fill="none" stroke="#fff" stroke-linejoin="bevel" stroke-width="2" d="M400 1q4.527 0 9.052.12 4.526.118 9.046.356 4.521.239 9.034.596t9.015.832 8.99 1.07 8.958 1.306 8.92 1.541q4.451.83 8.878 1.775 4.427.946 8.827 2.009t8.772 2.24 8.71 2.47 8.641 2.698 8.568 2.925 8.488 3.149 8.402 3.372q4.178 1.74 8.31 3.591 4.131 1.85 8.213 3.809 4.081 1.958 8.11 4.023 4.028 2.066 8 4.236t7.887 4.445q3.914 2.274 7.767 4.65t7.643 4.854 7.511 5.053 7.376 5.25 7.236 5.44 7.09 5.63 6.939 5.814 6.784 5.995 6.623 6.171 6.46 6.344 6.29 6.511q3.101 3.297 6.115 6.675L400 345z"/><path fill="#ff9800" d="M656.655 115.95q14.267 15.985 26.439 33.617 12.172 17.633 22.062 36.639L400 345z"/><path fill="none" stroke="#fff" stroke-linejoin="bevel" stroke-width="2" d="M656.655 115.95q14.267 15.985 26.439 33.617 12.172 17.633 22.062 36.639L400 345l256.655-229.05Z"/><path fill="#f44336" d="M705.156 186.206q3.899 7.491 7.425 15.165t6.67 15.51 5.903 15.82q2.756 7.981 5.118 16.09 2.362 8.107 4.323 16.32 1.961 8.215 3.517 16.515t2.702 16.666 1.882 16.78 1.055 16.851.228 16.883-.601 16.873-1.429 16.824q-.92 8.395-2.252 16.734t-3.07 16.603q-1.74 8.263-3.881 16.432-2.143 8.168-4.683 16.222-2.541 8.053-5.474 15.972-2.933 7.92-6.25 15.685t-7.013 15.36q-3.695 7.593-7.758 14.996t-8.484 14.598-9.19 14.164q-4.77 6.97-9.875 13.696-5.105 6.727-10.534 13.195t-11.17 12.662-11.776 12.099-12.357 11.506-12.906 10.887-13.425 10.24-13.91 9.568-14.365 8.875-14.782 8.16q-4.889 2.544-9.857 4.93t-10.01 4.612-10.153 4.289-10.285 3.962-10.407 3.63q-5.232 1.731-10.517 3.294-5.285 1.564-10.618 2.957-5.332 1.393-10.707 2.614-5.374 1.222-10.785 2.27-5.41 1.05-10.852 1.924-5.442.875-10.909 1.575t-10.953 1.224-10.987.874-11.01.52q-5.508.173-11.02.168-5.51-.004-11.02-.185-5.508-.181-11.008-.539-5.5-.357-10.985-.89-5.486-.534-10.952-1.243-5.465-.708-10.906-1.592-5.44-.883-10.849-1.94-5.409-1.058-10.781-2.288t-10.703-2.632-10.613-2.973-10.512-3.312-10.401-3.647-10.279-3.978-10.146-4.305-10.002-4.628q-4.965-2.394-9.85-4.946t-9.686-5.26q-4.8-2.707-9.512-5.566-7.22-4.382-14.215-9.112t-13.75-9.798-13.253-10.462-12.724-11.099q-6.226-5.705-12.164-11.71-5.938-6.004-11.574-12.292t-10.958-12.846-10.314-13.368-9.645-13.858-8.954-14.315-8.241-14.736-7.508-15.124q-3.569-7.653-6.757-15.473t-5.99-15.786q-2.8-7.967-5.207-16.062-2.406-8.094-4.413-16.297t-3.608-16.494q-1.602-8.292-2.795-16.652t-1.974-16.768-1.149-16.846-.32-16.88.507-16.878 1.335-16.831 2.16-16.746 2.978-16.62q1.694-8.273 3.79-16.453 2.098-8.18 4.594-16.247t5.385-16.003 6.164-15.72q3.274-7.783 6.927-15.397t7.675-15.04 8.403-14.644q2.86-4.711 5.869-9.329t6.164-9.136q3.156-4.52 6.454-8.935 3.299-4.415 6.737-8.723 3.438-4.307 7.013-8.502t7.282-8.274 7.543-8.036q3.835-3.957 7.796-7.79 3.96-3.833 8.042-7.537t8.28-7.275q4.198-3.57 8.508-7.006 4.31-3.434 8.728-6.73 4.418-3.295 8.94-6.446 4.52-3.152 9.14-6.157t9.335-5.862q4.714-2.855 9.517-5.559 4.803-2.703 9.69-5.251t9.853-4.938 10.006-4.62 10.15-4.298 10.281-3.97 10.404-3.638 10.515-3.303 10.615-2.965 10.705-2.623 10.784-2.279 10.85-1.932 10.908-1.584 10.952-1.233 10.986-.882 11.009-.53T400 1v344z"/><path fill="none" stroke="#fff" stroke-linejoin="bevel" stroke-width="2" d="M705.156 186.206q3.899 7.491 7.425 15.165t6.67 15.51 5.903 15.82q2.756 7.981 5.118 16.09 2.362 8.107 4.323 16.32 1.961 8.215 3.517 16.515t2.702 16.666 1.882 16.78 1.055 16.851.228 16.883-.601 16.873-1.429 16.824q-.92 8.395-2.252 16.734t-3.07 16.603q-1.74 8.263-3.881 16.432-2.143 8.168-4.683 16.222-2.541 8.053-5.474 15.972-2.933 7.92-6.25 15.685t-7.013 15.36q-3.695 7.593-7.758 14.996t-8.484 14.598-9.19 14.164q-4.77 6.97-9.875 13.696-5.105 6.727-10.534 13.195t-11.17 12.662-11.776 12.099-12.357 11.506-12.906 10.887-13.425 10.24-13.91 9.568-14.365 8.875-14.782 8.16q-4.889 2.544-9.857 4.93t-10.01 4.612-10.153 4.289-10.285 3.962-10.407 3.63q-5.232 1.731-10.517 3.294-5.285 1.564-10.618 2.957-5.332 1.393-10.707 2.614-5.374 1.222-10.785 2.27-5.41 1.05-10.852 1.924-5.442.875-10.909 1.575t-10.953 1.224-10.987.874-11.01.52q-5.508.173-11.02.168-5.51-.004-11.02-.185-5.508-.181-11.008-.539-5.5-.357-10.985-.89-5.486-.534-10.952-1.243-5.465-.708-10.906-1.592-5.44-.883-10.849-1.94-5.409-1.058-10.781-2.288t-10.703-2.632-10.613-2.973-10.512-3.312-10.401-3.647-10.279-3.978-10.146-4.305-10.002-4.628q-4.965-2.394-9.85-4.946t-9.686-5.26q-4.8-2.707-9.512-5.566-7.22-4.382-14.215-9.112t-13.75-9.798-13.253-10.462-12.724-11.099q-6.226-5.705-12.164-11.71-5.938-6.004-11.574-12.292t-10.958-12.846-10.314-13.368-9.645-13.858-8.954-14.315-8.241-14.736-7.508-15.124q-3.569-7.653-6.757-15.473t-5.99-15.786q-2.8-7.967-5.207-16.062-2.406-8.094-4.413-16.297t-3.608-16.494q-1.602-8.292-2.795-16.652t-1.974-16.768-1.149-16.846-.32-16.88.507-16.878 1.335-16.831 2.16-16.746 2.978-16.62q1.694-8.273 3.79-16.453 2.098-8.18 4.594-16.247t5.385-16.003 6.164-15.72q3.274-7.783 6.927-15.397t7.675-15.04 8.403-14.644q2.86-4.711 5.869-9.329t6.164-9.136q3.156-4.52 6.454-8.935 3.299-4.415 6.737-8.723 3.438-4.307 7.013-8.502t7.282-8.274 7.543-8.036q3.835-3.957 7.796-7.79 3.96-3.833 8.042-7.537t8.28-7.275q4.198-3.57 8.508-7.006 4.31-3.434 8.728-6.73 4.418-3.295 8.94-6.446 4.52-3.152 9.14-6.157t9.335-5.862q4.714-2.855 9.517-5.559 4.803-2.703 9.69-5.251t9.853-4.938 10.006-4.62 10.15-4.298 10.281-3.97 10.404-3.638 10.515-3.303 10.615-2.965 10.705-2.623 10.784-2.279 10.85-1.932 10.908-1.584 10.952-1.233 10.986-.882 11.009-.53T400 1v344l305.156-158.794Z"/></svg>