<svg xmlns="http://www.w3.org/2000/svg" width="800" height="800"><path fill="none" d="M0 0h800v800H0z"/><clipPath id="a"><path d="M0 740h800v60H0z"/></clipPath><g clip-path="url(#a)"><path fill="#4caf50" d="M144.605 770h40v20h-40z"/><path fill="none" stroke="#fff" stroke-miterlimit="10" stroke-width="2" d="M144.605 770h40v20h-40z"/><text x="194.605, 207.94484, 217.50539, 230.38625, 240.64992, 248.68703, 260.52295," y="787.5," fill="#666" font-family="DejaVu Serif" font-size="20">Trusted</text><path fill="#ff9800" d="M303.325 770h40v20h-40z"/><path fill="none" stroke="#fff" stroke-miterlimit="10" stroke-width="2" d="M303.325 770h40v20h-40z"/><text x="353.32501, 366.78204, 376.34259, 388.38361, 399.68243, 411.51837, 424.39923, 436.32306, 449.20392, 460.40509," y="787.5," fill="#666" font-family="DejaVu Serif" font-size="20">Provenance</text><path fill="#f44336" d="M502.245 770h40v20h-40z"/><path fill="none" stroke="#fff" stroke-miterlimit="10" stroke-width="2" d="M502.245 770h40v20h-40z"/><text x="552.245, 569.10046, 581.98132, 590.01843, 599.57898, 612.45984, 622.72351, 630.76062, 642.59656," y="787.5," fill="#666" font-family="DejaVu Serif" font-size="20">Untrusted</text></g><path fill="#4caf50" d="M400 1q6.95 0 13.895.262 6.945.261 13.875.784 6.93.524 13.836 1.307 6.906.784 13.777 1.827t13.698 2.344 13.6 2.859q6.774 1.557 13.484 3.368t13.347 3.874q6.636 2.062 13.19 4.374 6.555 2.31 13.018 4.867t12.825 5.354q6.362 2.798 12.614 5.833t12.385 6.304 12.14 6.766 11.875 7.218 11.596 7.66L400 370z"/><path fill="none" stroke="#fff" stroke-linejoin="bevel" stroke-width="2" d="M400 1q6.95 0 13.895.262 6.945.261 13.875.784 6.93.524 13.836 1.307 6.906.784 13.777 1.827t13.698 2.344 13.6 2.859q6.774 1.557 13.484 3.368t13.347 3.874q6.636 2.062 13.19 4.374 6.555 2.31 13.018 4.867t12.825 5.354q6.362 2.798 12.614 5.833t12.385 6.304 12.14 6.766 11.875 7.218 11.596 7.66L400 370z"/><path fill="#ff9800" d="M609.155 66.001q10.886 7.49 21.208 15.739t20.028 17.215 18.745 18.604 17.367 19.896L400 370z"/><path fill="none" stroke="#fff" stroke-linejoin="bevel" stroke-width="2" d="M609.155 66.001q10.886 7.49 21.208 15.739t20.028 17.215 18.745 18.604 17.367 19.896L400 370 609.155 66.001Z"/><path fill="#f44336" d="M686.503 137.455q5.709 7.034 11.065 14.339 5.357 7.304 10.349 14.863 4.992 7.56 9.606 15.354 4.615 7.795 8.842 15.807 4.227 8.011 8.056 16.221t7.25 16.597q3.42 8.388 6.426 16.933t5.588 17.228q2.583 8.682 4.736 17.481 2.154 8.799 3.873 17.693 1.719 8.893 3 17.86 1.28 8.968 2.12 17.988.839 9.02 1.234 18.07.396 9.049.347 18.107t-.543 18.103-1.43 18.055-2.314 17.963-3.193 17.828-4.064 17.65-4.925 17.429-5.774 17.166-6.61 16.862q-3.511 8.35-7.428 16.518-3.918 8.168-8.231 16.133-4.313 7.966-9.012 15.71t-9.772 15.25-10.509 14.75-11.22 14.218q-5.784 6.97-11.904 13.65-6.12 6.678-12.559 13.05-6.44 6.37-13.184 12.416-6.745 6.047-13.778 11.756-5.043 4.093-10.226 8.006t-10.502 7.64-10.764 7.268-11.012 6.883-11.249 6.492q-5.68 3.146-11.47 6.091-5.788 2.945-11.676 5.685-5.889 2.739-11.87 5.27t-12.048 4.848q-6.066 2.319-12.21 4.422-6.145 2.104-12.36 3.99t-12.492 3.552-12.609 3.11-12.71 2.665-12.797 2.216-12.867 1.764q-6.449.77-12.92 1.31-6.472.542-12.96.855-6.486.314-12.98.399-6.494.084-12.987-.06-6.493-.143-12.977-.515t-12.95-.972-12.91-1.427q-6.44-.828-12.85-1.881-6.408-1.053-12.775-2.332-6.368-1.278-12.686-2.78-6.319-1.5-12.58-3.224-6.262-1.723-12.46-3.665-6.197-1.942-12.322-4.101-6.125-2.16-12.17-4.533-6.046-2.373-12.004-4.958t-11.822-5.377q-8.178-3.895-16.155-8.187t-15.734-8.97-15.276-9.73-14.779-10.47-14.248-11.18-13.682-11.867-13.083-12.524-12.453-13.151-11.793-13.746-11.104-14.308-10.389-14.836-9.648-15.328-8.884-15.783-8.1-16.2-7.294-16.576-6.473-16.916-5.634-17.212-4.784-17.469-3.92-17.682-3.048-17.853-2.169-17.981-1.283-18.066T31 369.002t.494-18.105 1.381-18.058 2.266-17.97 3.144-17.836 4.016-17.66q2.225-8.782 4.878-17.443t5.728-17.182q3.074-8.52 6.564-16.88 3.489-8.36 7.384-16.538 2.793-5.863 5.79-11.624t6.195-11.415 6.593-11.188 6.983-10.95 7.364-10.698 7.736-10.432 8.098-10.153 8.45-9.862 8.792-9.558 9.123-9.243 9.443-8.916 9.75-8.579 10.047-8.23 10.33-7.871 10.6-7.503 10.858-7.126 11.102-6.739 11.332-6.344 11.548-5.94 11.75-5.532 11.938-5.114 12.11-4.692 12.268-4.262 12.41-3.827 12.537-3.389 12.649-2.945 12.744-2.499 12.825-2.048 12.888-1.596 12.937-1.141 12.969-.685T400 1v369z"/><path fill="none" stroke="#fff" stroke-linejoin="bevel" stroke-width="2" d="M686.503 137.455q5.709 7.034 11.065 14.339 5.357 7.304 10.349 14.863 4.992 7.56 9.606 15.354 4.615 7.795 8.842 15.807 4.227 8.011 8.056 16.221t7.25 16.597q3.42 8.388 6.426 16.933t5.588 17.228q2.583 8.682 4.736 17.481 2.154 8.799 3.873 17.693 1.719 8.893 3 17.86 1.28 8.968 2.12 17.988.839 9.02 1.234 18.07.396 9.049.347 18.107t-.543 18.103-1.43 18.055-2.314 17.963-3.193 17.828-4.064 17.65-4.925 17.429-5.774 17.166-6.61 16.862q-3.511 8.35-7.428 16.518-3.918 8.168-8.231 16.133-4.313 7.966-9.012 15.71t-9.772 15.25-10.509 14.75-11.22 14.218q-5.784 6.97-11.904 13.65-6.12 6.678-12.559 13.05-6.44 6.37-13.184 12.416-6.745 6.047-13.778 11.756-5.043 4.093-10.226 8.006t-10.502 7.64-10.764 7.268-11.012 6.883-11.249 6.492q-5.68 3.146-11.47 6.091-5.788 2.945-11.676 5.685-5.889 2.739-11.87 5.27t-12.048 4.848q-6.066 2.319-12.21 4.422-6.145 2.104-12.36 3.99t-12.492 3.552-12.609 3.11-12.71 2.665-12.797 2.216-12.867 1.764q-6.449.77-12.92 1.31-6.472.542-12.96.855-6.486.314-12.98.399-6.494.084-12.987-.06-6.493-.143-12.977-.515t-12.95-.972-12.91-1.427q-6.44-.828-12.85-1.881-6.408-1.053-12.775-2.332-6.368-1.278-12.686-2.78-6.319-1.5-12.58-3.224-6.262-1.723-12.46-3.665-6.197-1.942-12.322-4.101-6.125-2.16-12.17-4.533-6.046-2.373-12.004-4.958t-11.822-5.377q-8.178-3.895-16.155-8.187t-15.734-8.97-15.276-9.73-14.779-10.47-14.248-11.18-13.682-11.867-13.083-12.524-12.453-13.151-11.793-13.746-11.104-14.308-10.389-14.836-9.648-15.328-8.884-15.783-8.1-16.2-7.294-16.576-6.473-16.916-5.634-17.212-4.784-17.469-3.92-17.682-3.048-17.853-2.169-17.981-1.283-18.066T31 369.002t.494-18.105 1.381-18.058 2.266-17.97 3.144-17.836 4.016-17.66q2.225-8.782 4.878-17.443t5.728-17.182q3.074-8.52 6.564-16.88 3.489-8.36 7.384-16.538 2.793-5.863 5.79-11.624t6.195-11.415 6.593-11.188 6.983-10.95 7.364-10.698 7.736-10.432 8.098-10.153 8.45-9.862 8.792-9.558 9.123-9.243 9.443-8.916 9.75-8.579 10.047-8.23 10.33-7.871 10.6-7.503 10.858-7.126 11.102-6.739 11.332-6.344 11.548-5.94 11.75-5.532 11.938-5.114 12.11-4.692 12.268-4.262 12.41-3.827 12.537-3.389 12.649-2.945 12.744-2.499 12.825-2.048 12.888-1.596 12.937-1.141 12.969-.685T400 1v369l286.503-232.545Z"/></svg>