<svg xmlns="http://www.w3.org/2000/svg" width="800" height="800"><path fill="none" d="M0 0h800v800H0z"/><clipPath id="a"><path d="M0 740h800v60H0z"/></clipPath><g clip-path="url(#a)"><path fill="#4caf50" d="M164.745 770h40v20h-40z"/><path fill="none" stroke="#fff" stroke-miterlimit="10" stroke-width="2" d="M164.745 770h40v20h-40z"/><text x="214.745, 226.2196, 232.87976, 244.00281, 254.00281, 259.55945, 270.6825," y="786.5," fill="#666" font-family="Liberation Sans" font-size="20">Trusted</text><path fill="#ff9800" d="M311.805 770h40v20h-40z"/><path fill="none" stroke="#fff" stroke-miterlimit="10" stroke-width="2" d="M311.805 770h40v20h-40z"/><text x="361.80499, 375.14484, 381.80499, 392.92804, 402.92804, 414.05109, 425.17413, 436.29718, 447.42023, 457.42023," y="786.5," fill="#666" font-family="Liberation Sans" font-size="20">Provenance</text><path fill="#f44336" d="M498.545 770h40v20h-40z"/><path fill="none" stroke="#fff" stroke-miterlimit="10" stroke-width="2" d="M498.545 770h40v20h-40z"/><text x="548.54498, 562.98834, 574.11139, 579.66803, 586.32819, 597.45123, 607.45123, 613.00787, 624.13092," y="786.5," fill="#666" font-family="Liberation Sans" font-size="20">Untrusted</text></g><path fill="#4caf50" d="M400 1q5.787 0 11.572.181 5.784.182 11.56.545t11.538.906T446.174 3.9q5.742.725 11.458 1.628 5.717.904 11.402 1.987t11.333 2.343 11.255 2.698 11.164 3.049 11.064 3.398 10.951 3.742q5.446 1.958 10.829 4.085 5.382 2.127 10.695 4.422t10.551 4.756 10.397 5.084 10.232 5.407 10.058 5.726 9.873 6.038q4.89 3.097 9.68 6.345 4.789 3.248 9.475 6.645 4.685 3.397 9.262 6.94 4.576 3.542 9.04 7.226t8.809 7.506 8.569 7.78 8.321 8.043q4.098 4.087 8.065 8.3t7.8 8.55 7.529 8.79 7.249 9.022 6.963 9.244 6.669 9.459q3.26 4.781 6.37 9.663L400 370z"/><path fill="none" stroke="#fff" stroke-linejoin="bevel" stroke-width="2" d="M400 1q5.787 0 11.572.181 5.784.182 11.56.545t11.538.906T446.174 3.9q5.742.725 11.458 1.628 5.717.904 11.402 1.987t11.333 2.343 11.255 2.698 11.164 3.049 11.064 3.398 10.951 3.742q5.446 1.958 10.829 4.085 5.382 2.127 10.695 4.422t10.551 4.756 10.397 5.084 10.232 5.407 10.058 5.726 9.873 6.038q4.89 3.097 9.68 6.345 4.789 3.248 9.475 6.645 4.685 3.397 9.262 6.94 4.576 3.542 9.04 7.226t8.809 7.506 8.569 7.78 8.321 8.043q4.098 4.087 8.065 8.3t7.8 8.55 7.529 8.79 7.249 9.022 6.963 9.244 6.669 9.459q3.26 4.781 6.37 9.663L400 370z"/><path fill="#ff9800" d="M711.236 171.776q10.082 15.83 18.506 32.6t15.103 34.31L400 370z"/><path fill="none" stroke="#fff" stroke-linejoin="bevel" stroke-width="2" d="M711.236 171.776q10.082 15.83 18.506 32.6t15.103 34.31L400 370l311.236-198.224Z"/><path fill="#f44336" d="M744.844 238.686q3.224 8.466 6.028 17.08 2.805 8.613 5.183 17.353t4.325 17.588q1.946 8.847 3.456 17.778 1.51 8.932 2.58 17.927t1.698 18.032q.627 9.036.81 18.093t-.078 18.111q-.261 9.055-.967 18.086-.705 9.03-1.853 18.016-1.147 8.986-2.734 17.904-1.588 8.918-3.61 17.748-2.023 8.83-4.477 17.55t-5.332 17.308-6.175 17.026q-3.297 8.438-7.003 16.703t-7.815 16.339q-4.107 8.073-8.606 15.936-4.5 7.862-9.378 15.494-4.88 7.632-10.127 15.016-5.248 7.383-10.852 14.5t-11.55 13.95-12.22 13.368-12.863 12.751-13.472 12.105-14.05 11.43-14.593 10.725-15.103 9.997q-7.674 4.814-15.574 9.244-7.901 4.431-16.01 8.469t-16.406 7.673-16.762 6.858q-5.213 1.985-10.483 3.812t-10.593 3.493-10.694 3.17-10.784 2.847q-5.414 1.341-10.866 2.519-5.452 1.177-10.937 2.19-5.485 1.011-10.998 1.857t-11.05 1.525q-5.536.679-11.09 1.19t-11.12.854q-5.568.343-11.143.518t-11.152.18-11.153-.156-11.143-.493-11.123-.83-11.093-1.166-11.053-1.5-11.002-1.834-10.941-2.166q-5.455-1.165-10.872-2.495t-10.79-2.823-10.701-3.147q-5.327-1.655-10.6-3.47-5.275-1.815-10.492-3.788-5.217-1.974-10.371-4.104t-10.243-4.415-10.105-4.723-9.957-5.026-9.801-5.325-9.636-5.618-9.46-5.907q-4.687-3.026-9.28-6.19-7.458-5.142-14.655-10.642t-14.116-11.348q-6.918-5.847-13.542-12.026-6.623-6.18-12.935-12.677t-12.298-13.296-11.631-13.883q-5.645-7.085-10.936-14.438-5.29-7.353-10.213-14.956-4.924-7.604-9.468-15.44-4.545-7.836-8.699-15.886t-7.909-16.293q-3.754-8.244-7.1-16.662t-6.273-16.99q-2.929-8.572-5.433-17.278t-4.578-17.523-3.713-17.727-2.838-17.887-1.958-18.006-1.071-18.08-.184-18.11.706-18.097 1.593-18.042q1.018-9 2.476-17.941t3.354-17.798q1.895-8.858 4.223-17.613t5.081-17.383 5.93-17.114 6.76-16.802q3.588-8.318 7.578-16.45t8.376-16.058q4.385-7.927 9.154-15.628 4.768-7.702 9.909-15.16 3.165-4.593 6.468-9.088t6.74-8.887 7.005-8.68 7.264-8.464q3.697-4.177 7.517-8.24t7.763-8.01 8.001-7.771q4.06-3.825 8.232-7.526 4.173-3.7 8.456-7.274t8.672-7.014 8.88-6.75q4.491-3.307 9.08-6.478t9.272-6.2 9.455-5.918 9.63-5.63q4.856-2.74 9.794-5.335 4.938-2.593 9.952-5.037t10.1-4.733q5.085-2.291 10.238-4.427t10.367-4.115 10.486-3.8 10.597-3.48 10.697-3.16 10.788-2.835q5.416-1.335 10.869-2.507 5.453-1.171 10.94-2.177 5.485-1.006 11-1.846 5.513-.84 11.05-1.513t11.092-1.178 11.122-.842q5.567-.337 11.142-.505Q394.422 1 400 1v369z"/><path fill="none" stroke="#fff" stroke-linejoin="bevel" stroke-width="2" d="M744.844 238.686q3.224 8.466 6.028 17.08 2.805 8.613 5.183 17.353t4.325 17.588q1.946 8.847 3.456 17.778 1.51 8.932 2.58 17.927t1.698 18.032q.627 9.036.81 18.093t-.078 18.111q-.261 9.055-.967 18.086-.705 9.03-1.853 18.016-1.147 8.986-2.734 17.904-1.588 8.918-3.61 17.748-2.023 8.83-4.477 17.55t-5.332 17.308-6.175 17.026q-3.297 8.438-7.003 16.703t-7.815 16.339q-4.107 8.073-8.606 15.936-4.5 7.862-9.378 15.494-4.88 7.632-10.127 15.016-5.248 7.383-10.852 14.5t-11.55 13.95-12.22 13.368-12.863 12.751-13.472 12.105-14.05 11.43-14.593 10.725-15.103 9.997q-7.674 4.814-15.574 9.244-7.901 4.431-16.01 8.469t-16.406 7.673-16.762 6.858q-5.213 1.985-10.483 3.812t-10.593 3.493-10.694 3.17-10.784 2.847q-5.414 1.341-10.866 2.519-5.452 1.177-10.937 2.19-5.485 1.011-10.998 1.857t-11.05 1.525q-5.536.679-11.09 1.19t-11.12.854q-5.568.343-11.143.518t-11.152.18-11.153-.156-11.143-.493-11.123-.83-11.093-1.166-11.053-1.5-11.002-1.834-10.941-2.166q-5.455-1.165-10.872-2.495t-10.79-2.823-10.701-3.147q-5.327-1.655-10.6-3.47-5.275-1.815-10.492-3.788-5.217-1.974-10.371-4.104t-10.243-4.415-10.105-4.723-9.957-5.026-9.801-5.325-9.636-5.618-9.46-5.907q-4.687-3.026-9.28-6.19-7.458-5.142-14.655-10.642t-14.116-11.348q-6.918-5.847-13.542-12.026-6.623-6.18-12.935-12.677t-12.298-13.296-11.631-13.883q-5.645-7.085-10.936-14.438-5.29-7.353-10.213-14.956-4.924-7.604-9.468-15.44-4.545-7.836-8.699-15.886t-7.909-16.293q-3.754-8.244-7.1-16.662t-6.273-16.99q-2.929-8.572-5.433-17.278t-4.578-17.523-3.713-17.727-2.838-17.887-1.958-18.006-1.071-18.08-.184-18.11.706-18.097 1.593-18.042q1.018-9 2.476-17.941t3.354-17.798q1.895-8.858 4.223-17.613t5.081-17.383 5.93-17.114 6.76-16.802q3.588-8.318 7.578-16.45t8.376-16.058q4.385-7.927 9.154-15.628 4.768-7.702 9.909-15.16 3.165-4.593 6.468-9.088t6.74-8.887 7.005-8.68 7.264-8.464q3.697-4.177 7.517-8.24t7.763-8.01 8.001-7.771q4.06-3.825 8.232-7.526 4.173-3.7 8.456-7.274t8.672-7.014 8.88-6.75q4.491-3.307 9.08-6.478t9.272-6.2 9.455-5.918 9.63-5.63q4.856-2.74 9.794-5.335 4.938-2.593 9.952-5.037t10.1-4.733q5.085-2.291 10.238-4.427t10.367-4.115 10.486-3.8 10.597-3.48 10.697-3.16 10.788-2.835q5.416-1.335 10.869-2.507 5.453-1.171 10.94-2.177 5.485-1.006 11-1.846 5.513-.84 11.05-1.513t11.092-1.178 11.122-.842q5.567-.337 11.142-.505Q394.422 1 400 1v369l344.845-131.314Z"/></svg>