<svg xmlns="http://www.w3.org/2000/svg" width="800" height="800"><path fill="none" d="M0 0h800v800H0z"/><clipPath id="a"><path d="M0 690h800v110H0z"/></clipPath><g clip-path="url(#a)"><path fill="#4caf50" d="M123.3 720h40v20h-40z"/><path fill="none" stroke="#fff" stroke-miterlimit="10" stroke-width="2" d="M123.3 720h40v20h-40z"/><path fill="#ff9800" d="M377.64 720h40v20h-40z"/><path fill="none" stroke="#fff" stroke-miterlimit="10" stroke-width="2" d="M377.64 720h40v20h-40z"/><path fill="#f44336" d="M262.92 770h40v20h-40z"/><path fill="none" stroke="#fff" stroke-miterlimit="10" stroke-width="2" d="M262.92 770h40v20h-40z"/></g><path fill="#4caf50" d="M400 1q4.742 0 9.483.13 4.74.131 9.475.393 4.736.261 9.462.653t9.44.914q4.713.522 9.41 1.173 4.697.652 9.375 1.433 4.678.78 9.332 1.69t9.282 1.947q4.627 1.038 9.224 2.202 4.597 1.165 9.16 2.456 4.564 1.291 9.09 2.707t9.01 2.957 8.927 3.204 8.834 3.449q4.393 1.785 8.736 3.69 4.343 1.907 8.63 3.931 4.29 2.025 8.52 4.167 4.231 2.142 8.401 4.4t8.277 4.63q4.106 2.373 8.146 4.857t8.009 5.08q3.97 2.594 7.866 5.297t7.716 5.513q3.82 2.81 7.562 5.724 3.742 2.913 7.402 5.93 3.66 3.015 7.235 6.13 3.575 3.117 7.063 6.33t6.886 6.52q3.398 3.308 6.704 6.709t6.516 6.89 6.324 7.068 6.126 7.24L400 345z"/><path fill="none" stroke="#fff" stroke-linejoin="bevel" stroke-width="2" d="M400 1q4.742 0 9.483.13 4.74.131 9.475.393 4.736.261 9.462.653t9.44.914q4.713.522 9.41 1.173 4.697.652 9.375 1.433 4.678.78 9.332 1.69t9.282 1.947q4.627 1.038 9.224 2.202 4.597 1.165 9.16 2.456 4.564 1.291 9.09 2.707t9.01 2.957 8.927 3.204 8.834 3.449q4.393 1.785 8.736 3.69 4.343 1.907 8.63 3.931 4.29 2.025 8.52 4.167 4.231 2.142 8.401 4.4t8.277 4.63q4.106 2.373 8.146 4.857t8.009 5.08q3.97 2.594 7.866 5.297t7.716 5.513q3.82 2.81 7.562 5.724 3.742 2.913 7.402 5.93 3.66 3.015 7.235 6.13 3.575 3.117 7.063 6.33t6.886 6.52q3.398 3.308 6.704 6.709t6.516 6.89 6.324 7.068 6.126 7.24L400 345z"/><path fill="#ff9800" d="M665.623 126.413q13.5 16.404 24.877 34.343 11.378 17.94 20.462 37.144L400 345z"/><path fill="none" stroke="#fff" stroke-linejoin="bevel" stroke-width="2" d="M665.623 126.413q13.5 16.404 24.877 34.343 11.378 17.94 20.462 37.144L400 345l265.623-218.587Z"/><path fill="#f44336" d="M710.962 197.9q3.611 7.633 6.843 15.435 3.233 7.802 6.078 15.752t5.298 16.032q2.451 8.081 4.504 16.273t3.7 16.474q1.649 8.282 2.888 16.635 1.24 8.353 2.068 16.757t1.243 16.839.416 16.88-.413 16.878-1.241 16.84q-.827 8.403-2.066 16.757-1.238 8.353-2.885 16.636t-3.699 16.474-4.502 16.273q-2.45 8.081-5.295 16.033-2.844 7.95-6.075 15.753-3.231 7.802-6.842 15.436t-7.59 15.082-8.321 14.692-9.032 14.265-9.721 13.805-10.387 13.312-11.028 12.786-11.641 12.229-12.228 11.643-12.784 11.03-13.31 10.388-13.804 9.723-14.264 9.034-14.69 8.324-15.082 7.592q-4.89 2.313-9.85 4.472-4.96 2.158-9.986 4.159-5.025 2.001-10.111 3.844t-10.228 3.523-10.333 3.2-10.429 2.874-10.514 2.545-10.589 2.213-10.653 1.878-10.707 1.543-10.75 1.205-10.783.867q-5.398.349-10.805.527-5.406.179-10.816.188-5.409.008-10.816-.153-5.407-.162-10.806-.493-5.4-.332-10.786-.833t-10.754-1.171-10.712-1.509-10.659-1.844-10.596-2.18-10.522-2.51q-5.24-1.339-10.437-2.841t-10.344-3.168q-5.147-1.665-10.239-3.49-5.092-1.827-10.124-3.812t-9.999-4.128q-4.967-2.142-9.864-4.44t-9.72-4.748-9.565-5.052q-4.744-2.6-9.403-5.35-4.659-2.748-9.229-5.642-7.135-4.518-14.04-9.38T188.37 616.2t-13.052-10.711-12.511-11.339-11.94-11.938-11.339-12.51-10.712-13.052-10.058-13.561-9.381-14.039-8.681-14.482-7.96-14.89-7.22-15.263-6.461-15.599-5.689-15.897-4.902-16.157q-2.252-8.14-4.103-16.379t-3.294-16.56q-1.444-8.32-2.478-16.7-1.034-8.382-1.656-16.804t-.83-16.864 0-16.884.828-16.864 1.655-16.804 2.476-16.701q1.444-8.32 3.294-16.56t4.102-16.379 4.9-16.157q2.65-8.019 5.688-15.898 3.04-7.879 6.461-15.6 3.422-7.72 7.219-15.263 3.796-7.543 7.958-14.89t8.68-14.483q2.894-4.57 5.93-9.047t6.212-8.857 6.487-8.657 6.756-8.448 7.018-8.232 7.273-8.007 7.522-7.775 7.763-7.534 7.995-7.286 8.221-7.031 8.438-6.77 8.646-6.5 8.847-6.226 9.038-5.944 9.22-5.658 9.394-5.364 9.557-5.067 9.713-4.763 9.857-4.456 9.992-4.144q5.03-1.993 10.118-3.827 5.09-1.834 10.233-3.508t10.339-3.184q5.194-1.51 10.433-2.857 5.24-1.346 10.518-2.528 5.279-1.18 10.592-2.196 5.314-1.014 10.657-1.861 5.342-.847 10.709-1.526t10.752-1.188 10.784-.85 10.806-.51T400 1v344z"/><path fill="none" stroke="#fff" stroke-linejoin="bevel" stroke-width="2" d="M710.962 197.9q3.611 7.633 6.843 15.435 3.233 7.802 6.078 15.752t5.298 16.032q2.451 8.081 4.504 16.273t3.7 16.474q1.649 8.282 2.888 16.635 1.24 8.353 2.068 16.757t1.243 16.839.416 16.88-.413 16.878-1.241 16.84q-.827 8.403-2.066 16.757-1.238 8.353-2.885 16.636t-3.699 16.474-4.502 16.273q-2.45 8.081-5.295 16.033-2.844 7.95-6.075 15.753-3.231 7.802-6.842 15.436t-7.59 15.082-8.321 14.692-9.032 14.265-9.721 13.805-10.387 13.312-11.028 12.786-11.641 12.229-12.228 11.643-12.784 11.03-13.31 10.388-13.804 9.723-14.264 9.034-14.69 8.324-15.082 7.592q-4.89 2.313-9.85 4.472-4.96 2.158-9.986 4.159-5.025 2.001-10.111 3.844t-10.228 3.523-10.333 3.2-10.429 2.874-10.514 2.545-10.589 2.213-10.653 1.878-10.707 1.543-10.75 1.205-10.783.867q-5.398.349-10.805.527-5.406.179-10.816.188-5.409.008-10.816-.153-5.407-.162-10.806-.493-5.4-.332-10.786-.833t-10.754-1.171-10.712-1.509-10.659-1.844-10.596-2.18-10.522-2.51q-5.24-1.339-10.437-2.841t-10.344-3.168q-5.147-1.665-10.239-3.49-5.092-1.827-10.124-3.812t-9.999-4.128q-4.967-2.142-9.864-4.44t-9.72-4.748-9.565-5.052q-4.744-2.6-9.403-5.35-4.659-2.748-9.229-5.642-7.135-4.518-14.04-9.38T188.37 616.2t-13.052-10.711-12.511-11.339-11.94-11.938-11.339-12.51-10.712-13.052-10.058-13.561-9.381-14.039-8.681-14.482-7.96-14.89-7.22-15.263-6.461-15.599-5.689-15.897-4.902-16.157q-2.252-8.14-4.103-16.379t-3.294-16.56q-1.444-8.32-2.478-16.7-1.034-8.382-1.656-16.804t-.83-16.864 0-16.884.828-16.864 1.655-16.804 2.476-16.701q1.444-8.32 3.294-16.56t4.102-16.379 4.9-16.157q2.65-8.019 5.688-15.898 3.04-7.879 6.461-15.6 3.422-7.72 7.219-15.263 3.796-7.543 7.958-14.89t8.68-14.483q2.894-4.57 5.93-9.047t6.212-8.857 6.487-8.657 6.756-8.448 7.018-8.232 7.273-8.007 7.522-7.775 7.763-7.534 7.995-7.286 8.221-7.031 8.438-6.77 8.646-6.5 8.847-6.226 9.038-5.944 9.22-5.658 9.394-5.364 9.557-5.067 9.713-4.763 9.857-4.456 9.992-4.144q5.03-1.993 10.118-3.827 5.09-1.834 10.233-3.508t10.339-3.184q5.194-1.51 10.433-2.857 5.24-1.346 10.518-2.528 5.279-1.18 10.592-2.196 5.314-1.014 10.657-1.861 5.342-.847 10.709-1.526t10.752-1.188 10.784-.85 10.806-.51T400 1v344l310.962-147.1Z"/></svg>