<svg xmlns="http://www.w3.org/2000/svg" width="800" height="800"><path fill="none" d="M0 0h800v800H0z"/><clipPath id="a"><path d="M0 740h800v60H0z"/></clipPath><g clip-path="url(#a)"><path fill="#4caf50" d="M144.605 770h40v20h-40z"/><path fill="none" stroke="#fff" stroke-miterlimit="10" stroke-width="2" d="M144.605 770h40v20h-40z"/><text x="194.605, 207.94484, 217.50539, 230.38625, 240.64992, 248.68703, 260.52295," y="787.5," fill="#666" font-family="DejaVu Serif" font-size="20">Trusted</text><path fill="#ff9800" d="M303.325 770h40v20h-40z"/><path fill="none" stroke="#fff" stroke-miterlimit="10" stroke-width="2" d="M303.325 770h40v20h-40z"/><text x="353.32501, 366.78204, 376.34259, 388.38361, 399.68243, 411.51837, 424.39923, 436.32306, 449.20392, 460.40509," y="787.5," fill="#666" font-family="DejaVu Serif" font-size="20">Provenance</text><path fill="#f44336" d="M502.245 770h40v20h-40z"/><path fill="none" stroke="#fff" stroke-miterlimit="10" stroke-width="2" d="M502.245 770h40v20h-40z"/><text x="552.245, 569.10046, 581.98132, 590.01843, 599.57898, 612.45984, 622.72351, 630.76062, 642.59656," y="787.5," fill="#666" font-family="DejaVu Serif" font-size="20">Untrusted</text></g><path fill="#4caf50" d="M400 1q11.626 0 23.23.732 11.603.732 23.137 2.193Q457.9 5.385 469.32 7.57 480.74 9.754 492 12.652q11.259 2.9 22.313 6.5 11.055 3.603 21.86 7.893t21.32 9.253q10.514 4.962 20.695 10.576L400 370z"/><path fill="none" stroke="#fff" stroke-linejoin="bevel" stroke-width="2" d="M400 1q11.626 0 23.23.732 11.603.732 23.137 2.193Q457.9 5.385 469.32 7.57 480.74 9.754 492 12.652q11.259 2.9 22.313 6.5 11.055 3.603 21.86 7.893t21.32 9.253q10.514 4.962 20.695 10.576L400 370z"/><path fill="#ff9800" d="M578.187 46.874q13.413 7.397 26.167 15.88 12.754 8.482 24.76 17.993 12.008 9.51 23.185 19.984 11.178 10.473 21.449 21.836L400 370z"/><path fill="none" stroke="#fff" stroke-linejoin="bevel" stroke-width="2" d="M578.187 46.874q13.413 7.397 26.167 15.88 12.754 8.482 24.76 17.993 12.008 9.51 23.185 19.984 11.178 10.473 21.449 21.836L400 370 578.187 46.874Z"/><path fill="#f44336" d="M673.748 122.567q6.074 6.72 11.811 13.73t11.123 14.293 10.409 14.822 9.669 15.315 8.905 15.77 8.121 16.19 7.317 16.567 6.495 16.906 5.658 17.205 4.807 17.462q2.19 8.79 3.944 17.677t3.072 17.849 2.193 17.978q.876 9.016 1.308 18.064t.42 18.107-.47 18.105q-.456 9.047-1.356 18.06-.9 9.014-2.242 17.973-1.341 8.959-3.12 17.84-1.78 8.883-3.993 17.667-2.213 8.783-4.854 17.448t-5.705 17.19q-3.063 8.525-6.54 16.889-3.479 8.364-7.363 16.547t-8.165 16.167q-4.28 7.983-8.948 15.746t-9.71 15.289q-5.044 7.525-10.45 14.793-5.406 7.269-11.162 14.263t-11.848 13.698-12.507 13.1q-6.414 6.397-13.134 12.47-4.932 4.459-10.02 8.736-5.09 4.277-10.33 8.368-5.24 4.09-10.623 7.99-5.384 3.9-10.905 7.603t-11.171 7.205-11.424 6.798q-5.773 3.297-11.66 6.383-5.889 3.086-11.884 5.958-5.996 2.872-12.09 5.526-6.096 2.654-12.282 5.087-6.187 2.433-12.457 4.641t-12.616 4.19q-6.345 1.981-12.758 3.732t-12.885 3.271q-6.472 1.52-12.994 2.804-6.523 1.285-13.087 2.335t-13.162 1.861-13.221 1.387-13.262.909-13.287.43-13.293-.047-13.283-.527-13.255-1.005-13.21-1.482q-6.593-.86-13.15-1.956-6.556-1.097-13.069-2.429t-12.974-2.898-12.86-3.363-12.732-3.825-12.585-4.28-12.423-4.732-12.244-5.175q-8.28-3.677-16.368-7.755t-15.967-8.549q-7.878-4.47-15.528-9.321-7.65-4.852-15.052-10.073-7.403-5.22-14.54-10.799-7.138-5.578-13.993-11.499t-13.411-12.172-12.798-12.815-12.154-13.428-11.48-14.008-10.78-14.555q-5.21-7.41-10.051-15.066t-9.3-15.541q-4.46-7.885-8.527-15.979-4.068-8.094-7.733-16.377-3.665-8.284-6.92-16.738t-6.09-17.057-5.245-17.335-4.389-17.572-3.521-17.765q-1.543-8.927-2.646-17.918t-1.763-18.025q-.66-9.034-.876-18.09t.012-18.112.901-18.089 1.788-18.023 2.67-17.913 3.545-17.761 4.413-17.566 5.269-17.328q2.847-8.6 6.113-17.048 3.266-8.45 6.942-16.728 2.698-6.076 5.614-12.05t6.043-11.84 6.466-11.615q3.338-5.75 6.88-11.375 3.543-5.625 7.286-11.119t7.682-10.85 8.067-10.565 8.442-10.268 8.807-9.958 9.16-9.633 9.501-9.298 9.83-8.95 10.145-8.589 10.449-8.219 10.737-7.836 11.013-7.445 11.274-7.044 11.52-6.633 11.752-6.213 11.968-5.786 12.169-5.352 12.354-4.91q6.22-2.343 12.522-4.46 6.301-2.119 12.675-4.008 6.373-1.89 12.81-3.549t12.931-3.084T333.89 6.97t13.119-2.146 13.187-1.672 13.24-1.196q6.63-.478 13.274-.718Q393.352 1 400 1v369z"/><path fill="none" stroke="#fff" stroke-linejoin="bevel" stroke-width="2" d="M673.748 122.567q6.074 6.72 11.811 13.73t11.123 14.293 10.409 14.822 9.669 15.315 8.905 15.77 8.121 16.19 7.317 16.567 6.495 16.906 5.658 17.205 4.807 17.462q2.19 8.79 3.944 17.677t3.072 17.849 2.193 17.978q.876 9.016 1.308 18.064t.42 18.107-.47 18.105q-.456 9.047-1.356 18.06-.9 9.014-2.242 17.973-1.341 8.959-3.12 17.84-1.78 8.883-3.993 17.667-2.213 8.783-4.854 17.448t-5.705 17.19q-3.063 8.525-6.54 16.889-3.479 8.364-7.363 16.547t-8.165 16.167q-4.28 7.983-8.948 15.746t-9.71 15.289q-5.044 7.525-10.45 14.793-5.406 7.269-11.162 14.263t-11.848 13.698-12.507 13.1q-6.414 6.397-13.134 12.47-4.932 4.459-10.02 8.736-5.09 4.277-10.33 8.368-5.24 4.09-10.623 7.99-5.384 3.9-10.905 7.603t-11.171 7.205-11.424 6.798q-5.773 3.297-11.66 6.383-5.889 3.086-11.884 5.958-5.996 2.872-12.09 5.526-6.096 2.654-12.282 5.087-6.187 2.433-12.457 4.641t-12.616 4.19q-6.345 1.981-12.758 3.732t-12.885 3.271q-6.472 1.52-12.994 2.804-6.523 1.285-13.087 2.335t-13.162 1.861-13.221 1.387-13.262.909-13.287.43-13.293-.047-13.283-.527-13.255-1.005-13.21-1.482q-6.593-.86-13.15-1.956-6.556-1.097-13.069-2.429t-12.974-2.898-12.86-3.363-12.732-3.825-12.585-4.28-12.423-4.732-12.244-5.175q-8.28-3.677-16.368-7.755t-15.967-8.549q-7.878-4.47-15.528-9.321-7.65-4.852-15.052-10.073-7.403-5.22-14.54-10.799-7.138-5.578-13.993-11.499t-13.411-12.172-12.798-12.815-12.154-13.428-11.48-14.008-10.78-14.555q-5.21-7.41-10.051-15.066t-9.3-15.541q-4.46-7.885-8.527-15.979-4.068-8.094-7.733-16.377-3.665-8.284-6.92-16.738t-6.09-17.057-5.245-17.335-4.389-17.572-3.521-17.765q-1.543-8.927-2.646-17.918t-1.763-18.025q-.66-9.034-.876-18.09t.012-18.112.901-18.089 1.788-18.023 2.67-17.913 3.545-17.761 4.413-17.566 5.269-17.328q2.847-8.6 6.113-17.048 3.266-8.45 6.942-16.728 2.698-6.076 5.614-12.05t6.043-11.84 6.466-11.615q3.338-5.75 6.88-11.375 3.543-5.625 7.286-11.119t7.682-10.85 8.067-10.565 8.442-10.268 8.807-9.958 9.16-9.633 9.501-9.298 9.83-8.95 10.145-8.589 10.449-8.219 10.737-7.836 11.013-7.445 11.274-7.044 11.52-6.633 11.752-6.213 11.968-5.786 12.169-5.352 12.354-4.91q6.22-2.343 12.522-4.46 6.301-2.119 12.675-4.008 6.373-1.89 12.81-3.549t12.931-3.084T333.89 6.97t13.119-2.146 13.187-1.672 13.24-1.196q6.63-.478 13.274-.718Q393.352 1 400 1v369l273.748-247.433Z"/></svg>