<svg xmlns="http://www.w3.org/2000/svg" width="800" height="800"><path fill="none" d="M0 0h800v800H0z"/><clipPath id="a"><path d="M0 740h800v60H0z"/></clipPath><g clip-path="url(#a)"><path fill="#4caf50" d="M144.605 770h40v20h-40z"/><path fill="none" stroke="#fff" stroke-miterlimit="10" stroke-width="2" d="M144.605 770h40v20h-40z"/><text x="194.605, 207.94484, 217.50539, 230.38625, 240.64992, 248.68703, 260.52295," y="787.5," fill="#666" font-family="DejaVu Serif" font-size="20">Trusted</text><path fill="#ff9800" d="M303.325 770h40v20h-40z"/><path fill="none" stroke="#fff" stroke-miterlimit="10" stroke-width="2" d="M303.325 770h40v20h-40z"/><text x="353.32501, 366.78204, 376.34259, 388.38361, 399.68243, 411.51837, 424.39923, 436.32306, 449.20392, 460.40509," y="787.5," fill="#666" font-family="DejaVu Serif" font-size="20">Provenance</text><path fill="#f44336" d="M502.245 770h40v20h-40z"/><path fill="none" stroke="#fff" stroke-miterlimit="10" stroke-width="2" d="M502.245 770h40v20h-40z"/><text x="552.245, 569.10046, 581.98132, 590.01843, 599.57898, 612.45984, 622.72351, 630.76062, 642.59656," y="787.5," fill="#666" font-family="DejaVu Serif" font-size="20">Untrusted</text></g><path fill="#4caf50" d="M400 1q7.047 0 14.09.27 7.042.268 14.068.806 7.027.538 14.028 1.343 7.001.806 13.966 1.878 6.965 1.073 13.885 2.41 6.919 1.338 13.782 2.939t13.66 3.462 13.518 3.982 13.356 4.495 13.174 5.001 12.974 5.5 12.754 5.993 12.517 6.475 12.26 6.948 11.986 7.411 11.694 7.863L400 370z"/><path fill="none" stroke="#fff" stroke-linejoin="bevel" stroke-width="2" d="M400 1q7.047 0 14.09.27 7.042.268 14.068.806 7.027.538 14.028 1.343 7.001.806 13.966 1.878 6.965 1.073 13.885 2.41 6.919 1.338 13.782 2.939t13.66 3.462 13.518 3.982 13.356 4.495 13.174 5.001 12.974 5.5 12.754 5.993 12.517 6.475 12.26 6.948 11.986 7.411 11.694 7.863L400 370z"/><path fill="#ff9800" d="M611.712 67.776q10.726 7.514 20.893 15.77t19.723 17.211 18.453 18.566 17.09 19.828L400 370z"/><path fill="none" stroke="#fff" stroke-linejoin="bevel" stroke-width="2" d="M611.712 67.776q10.726 7.514 20.893 15.77t19.723 17.211 18.453 18.566 17.09 19.828L400 370 611.712 67.776Z"/><path fill="#f44336" d="M687.871 139.15q5.667 7.068 10.98 14.404t10.261 14.925q4.947 7.588 9.516 15.41t8.748 15.858 7.96 16.27q3.78 8.231 7.151 16.639t6.327 16.97q2.955 8.563 5.486 17.26t4.633 17.51q2.101 8.81 3.768 17.715 1.667 8.903 2.894 17.878t2.014 18 1.128 18.076.24 18.11-.65 18.1q-.547 9.041-1.537 18.046t-2.42 17.948q-1.43 8.945-3.298 17.81-1.867 8.863-4.168 17.624-2.3 8.762-5.028 17.4t-5.875 17.132-6.709 16.823q-3.56 8.33-7.526 16.473-3.966 8.145-8.326 16.085t-9.105 15.656q-4.744 7.717-9.862 15.191-5.117 7.475-10.595 14.689t-11.304 14.151-11.984 13.58-12.636 12.975q-6.478 6.332-13.258 12.339t-13.847 11.674q-5.053 4.052-10.246 7.925-5.192 3.872-10.517 7.56t-10.777 7.187-11.022 6.804q-5.57 3.305-11.254 6.413t-11.472 6.014q-5.79 2.906-11.676 5.607-5.888 2.702-11.866 5.195-5.979 2.493-12.041 4.774t-12.201 4.35-12.346 3.918-12.477 3.482q-6.268 1.632-12.59 3.043-6.322 1.41-12.69 2.598t-12.773 2.152q-6.405.964-12.84 1.702-6.436.738-12.893 1.25t-12.929.798q-6.47.285-12.948.342-6.477.058-12.952-.111-6.476-.17-12.941-.567t-12.913-1.02q-6.447-.623-12.869-1.473-6.421-.849-12.81-1.923-6.387-1.074-12.733-2.372T313.43 728.7q-6.297-1.52-12.536-3.259-6.24-1.74-12.414-3.697-6.175-1.958-12.277-4.131t-12.124-4.56q-6.022-2.385-11.957-4.981-5.934-2.596-11.774-5.399-8.167-3.919-16.132-8.234-7.964-4.315-15.707-9.016t-15.247-9.776-14.748-10.513-14.215-11.223-13.647-11.907-13.046-12.563q-6.37-6.441-12.414-13.187-6.046-6.747-11.753-13.781t-11.061-14.341-10.345-14.867-9.603-15.356q-4.613-7.795-8.838-15.808t-8.051-16.224-7.246-16.599q-3.419-8.388-6.422-16.934-3.004-8.546-5.584-17.23-2.58-8.682-4.732-17.482-2.151-8.799-3.868-17.693t-2.996-17.862-2.115-17.988-1.23-18.07-.342-18.107.547-18.104 1.434-18.054q.94-9.01 2.319-17.962t3.197-17.827 4.068-17.65q2.251-8.773 4.93-17.427t5.778-17.165 6.614-16.86 7.433-16.516q2.802-5.84 5.808-11.578t6.211-11.367q3.206-5.629 6.607-11.141 3.4-5.513 6.993-10.903 3.592-5.39 7.371-10.651 3.78-5.26 7.741-10.386 3.962-5.125 8.1-10.107 4.14-4.983 8.451-9.817t8.79-9.514q4.478-4.68 9.118-9.2t9.436-8.874 9.74-8.538 10.036-8.19 10.316-7.834q5.226-3.826 10.584-7.466t10.84-7.09q5.483-3.45 11.083-6.705t11.31-6.313 11.526-5.911q5.815-2.855 11.726-5.503 5.911-2.65 11.912-5.089 6-2.44 12.083-4.667 6.082-2.227 12.239-4.24t12.38-3.808 12.507-3.37 12.617-2.931q6.335-1.354 12.713-2.485 6.378-1.132 12.791-2.038 6.414-.907 12.856-1.588 6.441-.68 12.903-1.135t12.935-.682Q393.523 1 400 1v369z"/><path fill="none" stroke="#fff" stroke-linejoin="bevel" stroke-width="2" d="M687.871 139.15q5.667 7.068 10.98 14.404t10.261 14.925q4.947 7.588 9.516 15.41t8.748 15.858 7.96 16.27q3.78 8.231 7.151 16.639t6.327 16.97q2.955 8.563 5.486 17.26t4.633 17.51q2.101 8.81 3.768 17.715 1.667 8.903 2.894 17.878t2.014 18 1.128 18.076.24 18.11-.65 18.1q-.547 9.041-1.537 18.046t-2.42 17.948q-1.43 8.945-3.298 17.81-1.867 8.863-4.168 17.624-2.3 8.762-5.028 17.4t-5.875 17.132-6.709 16.823q-3.56 8.33-7.526 16.473-3.966 8.145-8.326 16.085t-9.105 15.656q-4.744 7.717-9.862 15.191-5.117 7.475-10.595 14.689t-11.304 14.151-11.984 13.58-12.636 12.975q-6.478 6.332-13.258 12.339t-13.847 11.674q-5.053 4.052-10.246 7.925-5.192 3.872-10.517 7.56t-10.777 7.187-11.022 6.804q-5.57 3.305-11.254 6.413t-11.472 6.014q-5.79 2.906-11.676 5.607-5.888 2.702-11.866 5.195-5.979 2.493-12.041 4.774t-12.201 4.35-12.346 3.918-12.477 3.482q-6.268 1.632-12.59 3.043-6.322 1.41-12.69 2.598t-12.773 2.152q-6.405.964-12.84 1.702-6.436.738-12.893 1.25t-12.929.798q-6.47.285-12.948.342-6.477.058-12.952-.111-6.476-.17-12.941-.567t-12.913-1.02q-6.447-.623-12.869-1.473-6.421-.849-12.81-1.923-6.387-1.074-12.733-2.372T313.43 728.7q-6.297-1.52-12.536-3.259-6.24-1.74-12.414-3.697-6.175-1.958-12.277-4.131t-12.124-4.56q-6.022-2.385-11.957-4.981-5.934-2.596-11.774-5.399-8.167-3.919-16.132-8.234-7.964-4.315-15.707-9.016t-15.247-9.776-14.748-10.513-14.215-11.223-13.647-11.907-13.046-12.563q-6.37-6.441-12.414-13.187-6.046-6.747-11.753-13.781t-11.061-14.341-10.345-14.867-9.603-15.356q-4.613-7.795-8.838-15.808t-8.051-16.224-7.246-16.599q-3.419-8.388-6.422-16.934-3.004-8.546-5.584-17.23-2.58-8.682-4.732-17.482-2.151-8.799-3.868-17.693t-2.996-17.862-2.115-17.988-1.23-18.07-.342-18.107.547-18.104 1.434-18.054q.94-9.01 2.319-17.962t3.197-17.827 4.068-17.65q2.251-8.773 4.93-17.427t5.778-17.165 6.614-16.86 7.433-16.516q2.802-5.84 5.808-11.578t6.211-11.367q3.206-5.629 6.607-11.141 3.4-5.513 6.993-10.903 3.592-5.39 7.371-10.651 3.78-5.26 7.741-10.386 3.962-5.125 8.1-10.107 4.14-4.983 8.451-9.817t8.79-9.514q4.478-4.68 9.118-9.2t9.436-8.874 9.74-8.538 10.036-8.19 10.316-7.834q5.226-3.826 10.584-7.466t10.84-7.09q5.483-3.45 11.083-6.705t11.31-6.313 11.526-5.911q5.815-2.855 11.726-5.503 5.911-2.65 11.912-5.089 6-2.44 12.083-4.667 6.082-2.227 12.239-4.24t12.38-3.808 12.507-3.37 12.617-2.931q6.335-1.354 12.713-2.485 6.378-1.132 12.791-2.038 6.414-.907 12.856-1.588 6.441-.68 12.903-1.135t12.935-.682Q393.523 1 400 1v369l287.871-230.849Z"/></svg>