<svg xmlns="http://www.w3.org/2000/svg" width="800" height="800"><path fill="none" d="M0 0h800v800H0z"/><clipPath id="a"><path d="M0 690h800v110H0z"/></clipPath><g clip-path="url(#a)"><path fill="#4caf50" d="M123.3 720h40v20h-40z"/><path fill="none" stroke="#fff" stroke-miterlimit="10" stroke-width="2" d="M123.3 720h40v20h-40z"/><path fill="#ff9800" d="M377.64 720h40v20h-40z"/><path fill="none" stroke="#fff" stroke-miterlimit="10" stroke-width="2" d="M377.64 720h40v20h-40z"/><path fill="#f44336" d="M262.92 770h40v20h-40z"/><path fill="none" stroke="#fff" stroke-miterlimit="10" stroke-width="2" d="M262.92 770h40v20h-40z"/></g><path fill="#4caf50" d="M400 1q4.652 0 9.302.126t9.294.377 9.281.628q4.637.377 9.261.88 4.625.502 9.234 1.129t9.2 1.378q4.59.752 9.159 1.627 4.568.875 9.111 1.874 4.543.998 9.058 2.12 4.515 1.12 8.997 2.363t8.93 2.606 8.856 2.847q4.409 1.483 8.776 3.085t8.69 3.32 8.596 3.556 8.497 3.786 8.392 4.014 8.28 4.24q4.11 2.176 8.162 4.462 4.05 2.286 8.039 4.681 3.987 2.395 7.909 4.897t7.774 5.11q3.852 2.606 7.633 5.317 3.78 2.71 7.486 5.521t7.334 5.722q3.629 2.911 7.177 5.919 3.549 3.008 7.014 6.11t6.847 6.298q3.38 3.195 6.673 6.48t6.496 6.659 6.314 6.832q3.11 3.458 6.127 7L400 345z"/><path fill="none" stroke="#fff" stroke-linejoin="bevel" stroke-width="2" d="M400 1q4.652 0 9.302.126t9.294.377 9.281.628q4.637.377 9.261.88 4.625.502 9.234 1.129t9.2 1.378q4.59.752 9.159 1.627 4.568.875 9.111 1.874 4.543.998 9.058 2.12 4.515 1.12 8.997 2.363t8.93 2.606 8.856 2.847q4.409 1.483 8.776 3.085t8.69 3.32 8.596 3.556 8.497 3.786 8.392 4.014 8.28 4.24q4.11 2.176 8.162 4.462 4.05 2.286 8.039 4.681 3.987 2.395 7.909 4.897t7.774 5.11q3.852 2.606 7.633 5.317 3.78 2.71 7.486 5.521t7.334 5.722q3.629 2.911 7.177 5.919 3.549 3.008 7.014 6.11t6.847 6.298q3.38 3.195 6.673 6.48t6.496 6.659 6.314 6.832q3.11 3.458 6.127 7L400 345z"/><path fill="#ff9800" d="M661.899 121.964q13.891 16.312 25.651 34.222t21.207 37.14L400 345z"/><path fill="none" stroke="#fff" stroke-linejoin="bevel" stroke-width="2" d="M661.899 121.964q13.891 16.312 25.651 34.222t21.207 37.14L400 345l261.899-223.036Z"/><path fill="#f44336" d="M708.757 193.326q3.723 7.58 7.07 15.332 3.347 7.754 6.31 15.662t5.533 15.951 4.744 16.205 3.944 16.417 3.133 16.591 2.315 16.725 1.491 16.818q.54 8.428.665 16.872t-.164 16.883q-.29 8.44-.992 16.855-.703 8.416-1.818 16.787t-2.64 16.676-3.454 16.528-4.262 16.337-5.058 16.11-5.842 15.84-6.613 15.536-7.367 15.193-8.103 14.812-8.82 14.398q-4.588 7.09-9.517 13.947-4.93 6.856-10.19 13.463t-10.837 12.947-11.46 12.4-12.054 11.822q-6.173 5.764-12.62 11.217-6.448 5.454-13.156 10.584-6.707 5.13-13.658 9.926-6.952 4.795-14.13 9.244t-14.565 8.539-14.968 7.814q-4.89 2.403-9.855 4.65-4.965 2.246-9.998 4.334t-10.13 4.015-10.252 3.693-10.364 3.367q-5.208 1.6-10.465 3.036t-10.556 2.703q-5.3 1.268-10.637 2.368t-10.706 2.03-10.765 1.69-10.813 1.347-10.85 1.005q-5.434.416-10.878.66-5.443.244-10.892.315t-10.897-.03q-5.448-.1-10.89-.374t-10.873-.72-10.845-1.063-10.806-1.407-10.756-1.748q-5.364-.959-10.695-2.087-5.33-1.129-10.623-2.426t-10.541-2.76q-5.25-1.465-10.449-3.094-5.2-1.63-10.345-3.423t-10.232-3.748-10.108-4.071-9.974-4.389q-4.952-2.273-9.83-4.702-4.878-2.43-9.676-5.012t-9.513-5.315-9.339-5.615q-7.168-4.465-14.108-9.276-6.94-4.81-13.636-9.957-6.696-5.146-13.13-10.614-6.436-5.468-12.595-11.246-6.159-5.777-12.027-11.85t-11.431-12.426q-5.564-6.354-10.808-12.972-5.245-6.619-10.159-13.487-4.913-6.868-9.484-13.969t-8.787-14.417-8.07-14.832q-3.852-7.514-7.332-15.209t-6.577-15.55q-3.097-7.857-5.806-15.855-2.708-8-5.02-16.121-2.313-8.122-4.224-16.348t-3.417-16.535-2.601-16.682-1.78-16.79q-.683-8.418-.953-16.858t-.126-16.884.704-16.87 1.53-16.815q.972-8.388 2.354-16.72 1.382-8.33 3.17-16.583 1.79-8.253 3.982-16.408t4.781-16.194 5.57-15.939q2.981-7.9 6.346-15.646t7.105-15.317 7.85-14.949q4.107-7.378 8.572-14.546 2.88-4.625 5.907-9.157 3.026-4.532 6.194-8.965 3.168-4.434 6.475-8.765 3.307-4.33 6.75-8.555t7.017-8.336q3.574-4.113 7.277-8.111t7.53-7.876q3.829-3.878 7.777-7.633t8.015-7.384q4.065-3.628 8.244-7.125 4.178-3.498 8.465-6.861 4.288-3.364 8.68-6.59 4.39-3.226 8.882-6.311t9.079-6.027q4.587-2.941 9.265-5.736t9.442-5.44 9.61-5.138 9.766-4.831q4.922-2.339 9.916-4.52t10.054-4.203 10.181-3.882 10.3-3.558 10.407-3.23q5.23-1.533 10.504-2.9 5.275-1.366 10.591-2.564t10.667-2.228 10.732-1.889q5.38-.86 10.786-1.548t10.83-1.206q5.425-.517 10.863-.862t10.884-.517T400 1v344z"/><path fill="none" stroke="#fff" stroke-linejoin="bevel" stroke-width="2" d="M708.757 193.326q3.723 7.58 7.07 15.332 3.347 7.754 6.31 15.662t5.533 15.951 4.744 16.205 3.944 16.417 3.133 16.591 2.315 16.725 1.491 16.818q.54 8.428.665 16.872t-.164 16.883q-.29 8.44-.992 16.855-.703 8.416-1.818 16.787t-2.64 16.676-3.454 16.528-4.262 16.337-5.058 16.11-5.842 15.84-6.613 15.536-7.367 15.193-8.103 14.812-8.82 14.398q-4.588 7.09-9.517 13.947-4.93 6.856-10.19 13.463t-10.837 12.947-11.46 12.4-12.054 11.822q-6.173 5.764-12.62 11.217-6.448 5.454-13.156 10.584-6.707 5.13-13.658 9.926-6.952 4.795-14.13 9.244t-14.565 8.539-14.968 7.814q-4.89 2.403-9.855 4.65-4.965 2.246-9.998 4.334t-10.13 4.015-10.252 3.693-10.364 3.367q-5.208 1.6-10.465 3.036t-10.556 2.703q-5.3 1.268-10.637 2.368t-10.706 2.03-10.765 1.69-10.813 1.347-10.85 1.005q-5.434.416-10.878.66-5.443.244-10.892.315t-10.897-.03q-5.448-.1-10.89-.374t-10.873-.72-10.845-1.063-10.806-1.407-10.756-1.748q-5.364-.959-10.695-2.087-5.33-1.129-10.623-2.426t-10.541-2.76q-5.25-1.465-10.449-3.094-5.2-1.63-10.345-3.423t-10.232-3.748-10.108-4.071-9.974-4.389q-4.952-2.273-9.83-4.702-4.878-2.43-9.676-5.012t-9.513-5.315-9.339-5.615q-7.168-4.465-14.108-9.276-6.94-4.81-13.636-9.957-6.696-5.146-13.13-10.614-6.436-5.468-12.595-11.246-6.159-5.777-12.027-11.85t-11.431-12.426q-5.564-6.354-10.808-12.972-5.245-6.619-10.159-13.487-4.913-6.868-9.484-13.969t-8.787-14.417-8.07-14.832q-3.852-7.514-7.332-15.209t-6.577-15.55q-3.097-7.857-5.806-15.855-2.708-8-5.02-16.121-2.313-8.122-4.224-16.348t-3.417-16.535-2.601-16.682-1.78-16.79q-.683-8.418-.953-16.858t-.126-16.884.704-16.87 1.53-16.815q.972-8.388 2.354-16.72 1.382-8.33 3.17-16.583 1.79-8.253 3.982-16.408t4.781-16.194 5.57-15.939q2.981-7.9 6.346-15.646t7.105-15.317 7.85-14.949q4.107-7.378 8.572-14.546 2.88-4.625 5.907-9.157 3.026-4.532 6.194-8.965 3.168-4.434 6.475-8.765 3.307-4.33 6.75-8.555t7.017-8.336q3.574-4.113 7.277-8.111t7.53-7.876q3.829-3.878 7.777-7.633t8.015-7.384q4.065-3.628 8.244-7.125 4.178-3.498 8.465-6.861 4.288-3.364 8.68-6.59 4.39-3.226 8.882-6.311t9.079-6.027q4.587-2.941 9.265-5.736t9.442-5.44 9.61-5.138 9.766-4.831q4.922-2.339 9.916-4.52t10.054-4.203 10.181-3.882 10.3-3.558 10.407-3.23q5.23-1.533 10.504-2.9 5.275-1.366 10.591-2.564t10.667-2.228 10.732-1.889q5.38-.86 10.786-1.548t10.83-1.206q5.425-.517 10.863-.862t10.884-.517T400 1v344l308.757-151.674Z"/></svg>