<?xml version="1.0" encoding="utf-8" ?>
<svg xmlns="http://www.w3.org/2000/svg" xmlns:xlink="http://www.w3.org/1999/xlink" width="800" height="800">
	<clipPath id="cl_3">
		<rect y="740" width="800" height="60"/>
	</clipPath>
	<g clip-path="url(#cl_3)">
		<path fill="#4CAF50" d="M164.60001 770L204.60001 770L204.60001 790L164.60001 790L164.60001 770Z"/>
		<path fill="none" stroke="white" stroke-width="2" stroke-miterlimit="10" d="M164.60001 770L204.60001 770L204.60001 790L164.60001 790L164.60001 770Z"/>
	</g>
	<clipPath id="cl_4">
		<rect y="740" width="800" height="60"/>
	</clipPath>
	<g clip-path="url(#cl_4)">
		<text fill="#666" font-size="20" font-family="Helvetica Neue" x="214.60001, 224.24001, 230.90001, 242.02, 252.02, 258.32001, 269.06, " y="787.07007, ">
				Trusted
		</text>
	</g>
	<clipPath id="cl_5">
		<rect y="740" width="800" height="60"/>
	</clipPath>
	<g clip-path="url(#cl_5)">
		<path fill="#FF9800" d="M310.91998 770L350.91998 770L350.91998 790L310.91998 790L310.91998 770Z"/>
		<path fill="none" stroke="white" stroke-width="2" stroke-miterlimit="10" d="M310.91998 770L350.91998 770L350.91998 790L310.91998 790L310.91998 770Z"/>
	</g>
	<clipPath id="cl_6">
		<rect y="740" width="800" height="60"/>
	</clipPath>
	<g clip-path="url(#cl_6)">
		<text fill="#666" font-size="20" font-family="Helvetica Neue" x="360.91998, 373.88, 380.17999, 391.65997, 401.65997, 412.39999, 423.51999, 434.26001, 445.38, 456.12, " y="787.07007, ">
				Provenance
		</text>
	</g>
	<clipPath id="cl_7">
		<rect y="740" width="800" height="60"/>
	</clipPath>
	<g clip-path="url(#cl_7)">
		<path fill="#F44336" d="M496.85999 770L536.85999 770L536.85999 790L496.85999 790L496.85999 770Z"/>
		<path fill="none" stroke="white" stroke-width="2" stroke-miterlimit="10" d="M496.85999 770L536.85999 770L536.85999 790L496.85999 790L496.85999 770Z"/>
	</g>
	<clipPath id="cl_8">
		<rect y="740" width="800" height="60"/>
	</clipPath>
	<g clip-path="url(#cl_8)">
		<text fill="#666" font-size="20" font-family="Helvetica Neue" x="546.85999, 561.29999, 572.41998, 578.71997, 585.38, 596.5, 606.5, 612.79999, 623.53998, " y="787.07007, ">
				Untrusted
		</text>
	</g>
	<path fill="#4CAF50" d="M400 1Q410.43469 1.0000076 420.85275 1.589694Q431.27081 2.1793804 441.63889 3.3568611Q452.00696 4.5343418 462.2919 6.2958536Q472.57684 8.0573654 482.74585 10.397278Q492.91483 12.737206 502.93533 15.648055Q512.95581 18.558907 522.79584 22.031374Q532.63586 25.503841 542.26385 29.526833Q551.89191 33.54982 561.27716 38.110474L400 370L400 1Z"/>
	<path fill="none" stroke="white" stroke-width="2" stroke-linejoin="bevel" d="M400 1Q410.43469 1.0000076 420.85275 1.589694Q431.27081 2.1793804 441.63889 3.3568611Q452.00696 4.5343418 462.2919 6.2958536Q472.57684 8.0573654 482.74585 10.397278Q492.91483 12.737206 502.93533 15.648055Q512.95581 18.558907 522.79584 22.031374Q532.63586 25.503841 542.26385 29.526833Q551.89191 33.54982 561.27716 38.110474L400 370L400 1Z"/>
	<path fill="#FF9800" d="M561.27716 38.110443Q575.42883 44.987274 588.94379 53.043804Q602.45874 61.100334 615.23889 70.278076Q628.01892 79.455788 639.97131 89.688087Q651.92371 99.920387 662.96173 111.133L400 370L561.27698 38.110344L561.27716 38.110443Z"/>
	<path fill="none" stroke="white" stroke-width="2" stroke-linejoin="bevel" d="M561.27716 38.110443Q575.42883 44.987274 588.94379 53.043804Q602.45874 61.100334 615.23889 70.278076Q628.01892 79.455788 639.97131 89.688087Q651.92371 99.920387 662.96173 111.133L400 370L561.27698 38.110344L561.27716 38.110443Z"/>
	<path fill="#F44336" d="M662.96173 111.133Q669.31653 117.58835 675.34692 124.34773Q681.37738 131.10712 687.06891 138.15427Q692.76038 145.20142 698.09924 152.51933Q703.43799 159.83725 708.41138 167.40834Q713.38477 174.97942 717.98059 182.7854Q722.57648 190.5914 726.78375 198.61349Q730.99109 206.63557 734.79968 214.85443Q738.60828 223.0733 742.00903 231.46915Q745.40979 239.86499 748.39441 248.4176Q751.37915 256.97021 753.94055 265.65897Q756.50195 274.34772 758.63397 283.15167Q760.76599 291.95563 762.46338 300.85364Q764.16083 309.75162 765.41962 318.72217Q766.67847 327.69275 767.49554 336.71426Q768.31274 345.73578 768.68616 354.7865Q769.05969 363.83722 768.98859 372.89539Q768.91748 381.95355 768.40204 390.99731Q767.8866 400.04108 766.92804 409.04865Q765.96936 418.05621 764.56995 427.00589Q763.17053 435.95557 761.33362 444.82584Q759.49677 453.69608 757.22687 462.46552Q754.95697 471.23492 752.25952 479.88245Q749.56207 488.52994 746.44354 497.03467Q743.32507 505.53937 739.79297 513.8808Q736.26086 522.22229 732.32373 530.38037Q728.38672 538.53845 724.05402 546.49353Q719.72131 554.44861 715.00354 562.18152Q710.28571 569.91443 705.19421 577.40649Q700.10266 584.89862 694.64966 592.1319Q689.19666 599.36511 683.39532 606.32214Q677.59387 613.27905 671.45813 619.94299Q665.32239 626.60693 658.867 632.96173Q654.04205 637.71155 649.04608 642.28119Q644.05017 646.85083 638.88989 651.23413Q633.72961 655.61737 628.41205 659.80835Q623.09448 663.99939 617.62683 667.99255Q612.15906 671.9856 606.54852 675.77551Q600.93799 679.56531 595.1922 683.14685Q589.44641 686.72833 583.57312 690.09668Q577.69983 693.46497 571.70697 696.61554Q565.71399 699.76611 559.60956 702.6947Q553.50513 705.62329 547.29736 708.32599Q541.0896 711.02869 534.78687 713.50183Q528.48413 715.97498 522.09491 718.21527Q515.70569 720.45544 509.23853 722.45984Q502.77142 724.46423 496.23511 726.22998Q489.69879 727.99573 483.10214 729.52051Q476.50543 731.04529 469.8573 732.32715Q463.20911 733.60889 456.51837 734.64587Q449.8277 735.68298 443.10345 736.47388Q436.37921 737.26471 429.63046 737.80835Q422.88171 738.35205 416.11761 738.64783Q409.35345 738.94348 402.58298 738.99084Q395.81256 739.03827 389.04495 738.83728Q382.27731 738.63623 375.52164 738.18713Q368.76593 737.73798 362.03128 737.04138Q355.29657 736.34473 348.59201 735.40143Q341.88742 734.45813 335.22198 733.26959Q328.55652 732.08099 321.93918 730.64874Q315.32181 729.21643 308.76144 727.54236Q302.20105 725.86823 295.70651 723.95459Q289.21198 722.04095 282.79199 719.89038Q276.37201 717.73975 270.03525 715.3551Q263.69849 712.97046 257.45349 710.35498L257.45334 710.35486Q249.0981 706.85553 240.92464 702.95044Q232.75116 699.04541 224.77914 694.74396Q216.80711 690.4425 209.05576 685.75507Q201.30438 681.06763 193.79237 676.00549Q186.28036 670.94336 179.02579 665.5188Q171.77121 660.09418 164.79155 654.32019Q157.81187 648.54614 151.12393 642.43652Q144.43597 636.32697 138.05588 629.89661Q131.67577 623.46619 125.61888 616.73053Q119.56198 609.99487 113.84288 602.97015Q108.12378 595.94531 102.75626 588.64844Q97.388748 581.35144 92.385735 573.79999Q87.382721 566.24847 82.756271 558.46057Q78.129822 550.67273 73.891083 542.66718Q69.652344 534.66162 65.811516 526.45776Q61.970695 518.25391 58.537041 509.87149Q55.103386 501.48901 52.085178 492.94818Q49.066971 484.40738 46.471474 475.72876Q43.875977 467.05011 41.709446 458.25458Q39.542915 449.45901 37.81057 440.56778Q36.078224 431.67651 34.784245 422.711Q33.490261 413.74548 32.637756 404.72723Q31.78525 395.70898 31.376274 386.65976Q30.967297 377.61053 31.002838 368.55219Q31.03838 359.49384 31.518353 350.44812Q31.998323 341.4024 32.92157 332.39114Q33.844814 323.37985 35.209106 314.42474Q36.573402 305.46964 38.375458 296.59225Q40.177517 287.71487 42.412998 278.93661Q44.648479 270.15836 47.311996 261.50037Q49.975513 252.84236 53.060654 244.32547Q56.145786 235.80859 59.645111 227.45334Q62.260632 221.20831 65.103485 215.06346Q67.946342 208.91861 71.012711 202.88219Q74.079071 196.84576 77.364815 190.92589Q80.650558 185.00601 84.151268 179.21065Q87.651962 173.41528 91.362915 167.75224Q95.073868 162.0892 98.990067 156.56613Q102.90626 151.04303 107.02243 145.66733Q111.1386 140.29163 115.44922 135.07054Q119.75982 129.84946 124.25906 124.79001Q128.7583 119.73057 133.44012 114.83959Q138.12195 109.94861 142.98004 105.23268Q147.83813 100.51674 152.86595 95.982201Q157.89377 91.447647 163.08456 87.100594Q168.27534 82.753548 173.6221 78.599854Q178.96887 74.446152 184.4644 70.491386Q189.95993 66.536629 195.59686 62.786137Q201.23376 59.035637 207.00449 55.494453Q212.77521 51.95327 218.67195 48.626171Q224.56866 45.299068 230.5835 42.190529Q236.59833 39.081985 242.72314 36.196186Q248.84793 33.310387 255.07449 30.651217Q261.30103 27.992048 267.62094 25.563089Q273.94086 23.134129 280.34561 20.938648Q286.75037 18.743166 293.23135 16.784121Q299.71234 14.825072 306.26083 13.105098Q312.80933 11.385122 319.41653 9.9065351Q326.02371 8.427947 332.68069 7.1927371Q339.33765 5.9575276 346.03549 4.9673586Q352.73328 3.9771891 359.46289 3.233393Q366.19254 2.4895971 372.94495 1.9931762Q379.6973 1.4967552 386.46335 1.2483776Q393.22937 1 400 1L400 370L662.96185 111.13313L662.96173 111.133Z"/>
	<path fill="none" stroke="white" stroke-width="2" stroke-linejoin="bevel" d="M662.96173 111.133Q669.31653 117.58835 675.34692 124.34773Q681.37738 131.10712 687.06891 138.15427Q692.76038 145.20142 698.09924 152.51933Q703.43799 159.83725 708.41138 167.40834Q713.38477 174.97942 717.98059 182.7854Q722.57648 190.5914 726.78375 198.61349Q730.99109 206.63557 734.79968 214.85443Q738.60828 223.0733 742.00903 231.46915Q745.40979 239.86499 748.39441 248.4176Q751.37915 256.97021 753.94055 265.65897Q756.50195 274.34772 758.63397 283.15167Q760.76599 291.95563 762.46338 300.85364Q764.16083 309.75162 765.41962 318.72217Q766.67847 327.69275 767.49554 336.71426Q768.31274 345.73578 768.68616 354.7865Q769.05969 363.83722 768.98859 372.89539Q768.91748 381.95355 768.40204 390.99731Q767.8866 400.04108 766.92804 409.04865Q765.96936 418.05621 764.56995 427.00589Q763.17053 435.95557 761.33362 444.82584Q759.49677 453.69608 757.22687 462.46552Q754.95697 471.23492 752.25952 479.88245Q749.56207 488.52994 746.44354 497.03467Q743.32507 505.53937 739.79297 513.8808Q736.26086 522.22229 732.32373 530.38037Q728.38672 538.53845 724.05402 546.49353Q719.72131 554.44861 715.00354 562.18152Q710.28571 569.91443 705.19421 577.40649Q700.10266 584.89862 694.64966 592.1319Q689.19666 599.36511 683.39532 606.32214Q677.59387 613.27905 671.45813 619.94299Q665.32239 626.60693 658.867 632.96173Q654.04205 637.71155 649.04608 642.28119Q644.05017 646.85083 638.88989 651.23413Q633.72961 655.61737 628.41205 659.80835Q623.09448 663.99939 617.62683 667.99255Q612.15906 671.9856 606.54852 675.77551Q600.93799 679.56531 595.1922 683.14685Q589.44641 686.72833 583.57312 690.09668Q577.69983 693.46497 571.70697 696.61554Q565.71399 699.76611 559.60956 702.6947Q553.50513 705.62329 547.29736 708.32599Q541.0896 711.02869 534.78687 713.50183Q528.48413 715.97498 522.09491 718.21527Q515.70569 720.45544 509.23853 722.45984Q502.77142 724.46423 496.23511 726.22998Q489.69879 727.99573 483.10214 729.52051Q476.50543 731.04529 469.8573 732.32715Q463.20911 733.60889 456.51837 734.64587Q449.8277 735.68298 443.10345 736.47388Q436.37921 737.26471 429.63046 737.80835Q422.88171 738.35205 416.11761 738.64783Q409.35345 738.94348 402.58298 738.99084Q395.81256 739.03827 389.04495 738.83728Q382.27731 738.63623 375.52164 738.18713Q368.76593 737.73798 362.03128 737.04138Q355.29657 736.34473 348.59201 735.40143Q341.88742 734.45813 335.22198 733.26959Q328.55652 732.08099 321.93918 730.64874Q315.32181 729.21643 308.76144 727.54236Q302.20105 725.86823 295.70651 723.95459Q289.21198 722.04095 282.79199 719.89038Q276.37201 717.73975 270.03525 715.3551Q263.69849 712.97046 257.45349 710.35498L257.45334 710.35486Q249.0981 706.85553 240.92464 702.95044Q232.75116 699.04541 224.77914 694.74396Q216.80711 690.4425 209.05576 685.75507Q201.30438 681.06763 193.79237 676.00549Q186.28036 670.94336 179.02579 665.5188Q171.77121 660.09418 164.79155 654.32019Q157.81187 648.54614 151.12393 642.43652Q144.43597 636.32697 138.05588 629.89661Q131.67577 623.46619 125.61888 616.73053Q119.56198 609.99487 113.84288 602.97015Q108.12378 595.94531 102.75626 588.64844Q97.388748 581.35144 92.385735 573.79999Q87.382721 566.24847 82.756271 558.46057Q78.129822 550.67273 73.891083 542.66718Q69.652344 534.66162 65.811516 526.45776Q61.970695 518.25391 58.537041 509.87149Q55.103386 501.48901 52.085178 492.94818Q49.066971 484.40738 46.471474 475.72876Q43.875977 467.05011 41.709446 458.25458Q39.542915 449.45901 37.81057 440.56778Q36.078224 431.67651 34.784245 422.711Q33.490261 413.74548 32.637756 404.72723Q31.78525 395.70898 31.376274 386.65976Q30.967297 377.61053 31.002838 368.55219Q31.03838 359.49384 31.518353 350.44812Q31.998323 341.4024 32.92157 332.39114Q33.844814 323.37985 35.209106 314.42474Q36.573402 305.46964 38.375458 296.59225Q40.177517 287.71487 42.412998 278.93661Q44.648479 270.15836 47.311996 261.50037Q49.975513 252.84236 53.060654 244.32547Q56.145786 235.80859 59.645111 227.45334Q62.260632 221.20831 65.103485 215.06346Q67.946342 208.91861 71.012711 202.88219Q74.079071 196.84576 77.364815 190.92589Q80.650558 185.00601 84.151268 179.21065Q87.651962 173.41528 91.362915 167.75224Q95.073868 162.0892 98.990067 156.56613Q102.90626 151.04303 107.02243 145.66733Q111.1386 140.29163 115.44922 135.07054Q119.75982 129.84946 124.25906 124.79001Q128.7583 119.73057 133.44012 114.83959Q138.12195 109.94861 142.98004 105.23268Q147.83813 100.51674 152.86595 95.982201Q157.89377 91.447647 163.08456 87.100594Q168.27534 82.753548 173.6221 78.599854Q178.96887 74.446152 184.4644 70.491386Q189.95993 66.536629 195.59686 62.786137Q201.23376 59.035637 207.00449 55.494453Q212.77521 51.95327 218.67195 48.626171Q224.56866 45.299068 230.5835 42.190529Q236.59833 39.081985 242.72314 36.196186Q248.84793 33.310387 255.07449 30.651217Q261.30103 27.992048 267.62094 25.563089Q273.94086 23.134129 280.34561 20.938648Q286.75037 18.743166 293.23135 16.784121Q299.71234 14.825072 306.26083 13.105098Q312.80933 11.385122 319.41653 9.9065351Q326.02371 8.427947 332.68069 7.1927371Q339.33765 5.9575276 346.03549 4.9673586Q352.73328 3.9771891 359.46289 3.233393Q366.19254 2.4895971 372.94495 1.9931762Q379.6973 1.4967552 386.46335 1.2483776Q393.22937 1 400 1L400 370L662.96185 111.13313L662.96173 111.133Z"/>
</svg>
