<svg xmlns="http://www.w3.org/2000/svg" width="800" height="800"><path fill="none" d="M0 0h800v800H0z"/><clipPath id="a"><path d="M0 740h800v60H0z"/></clipPath><g clip-path="url(#a)"><path fill="#4caf50" d="M144.605 770h40v20h-40z"/><path fill="none" stroke="#fff" stroke-miterlimit="10" stroke-width="2" d="M144.605 770h40v20h-40z"/><text x="194.605, 207.94484, 217.50539, 230.38625, 240.64992, 248.68703, 260.52295," y="787.5," fill="#666" font-family="DejaVu Serif" font-size="20">Trusted</text><path fill="#ff9800" d="M303.325 770h40v20h-40z"/><path fill="none" stroke="#fff" stroke-miterlimit="10" stroke-width="2" d="M303.325 770h40v20h-40z"/><text x="353.32501, 366.78204, 376.34259, 388.38361, 399.68243, 411.51837, 424.39923, 436.32306, 449.20392, 460.40509," y="787.5," fill="#666" font-family="DejaVu Serif" font-size="20">Provenance</text><path fill="#f44336" d="M502.245 770h40v20h-40z"/><path fill="none" stroke="#fff" stroke-miterlimit="10" stroke-width="2" d="M502.245 770h40v20h-40z"/><text x="552.245, 569.10046, 581.98132, 590.01843, 599.57898, 612.45984, 622.72351, 630.76062, 642.59656," y="787.5," fill="#666" font-family="DejaVu Serif" font-size="20">Untrusted</text></g><path fill="#4caf50" d="M400 1q11.208 0 22.395.68t22.312 2.038 22.147 3.389 21.9 4.726q10.88 2.696 21.574 6.047t21.167 7.345q10.472 3.994 20.682 8.616t20.121 9.855L400 370z"/><path fill="none" stroke="#fff" stroke-linejoin="bevel" stroke-width="2" d="M400 1q11.208 0 22.395.68t22.312 2.038 22.147 3.389 21.9 4.726q10.88 2.696 21.574 6.047t21.167 7.345q10.472 3.994 20.682 8.616t20.121 9.855L400 370z"/><path fill="#ff9800" d="M572.298 43.696q13.752 7.261 26.844 15.654t25.432 17.857 23.839 19.934 22.077 21.868L400 370z"/><path fill="none" stroke="#fff" stroke-linejoin="bevel" stroke-width="2" d="M572.298 43.696q13.752 7.261 26.844 15.654t25.432 17.857 23.839 19.934 22.077 21.868L400 370 572.298 43.696Z"/><path fill="#f44336" d="M670.49 119.01q6.161 6.64 11.99 13.574 5.828 6.935 11.309 14.147t10.601 14.684 9.868 15.187 9.111 15.653 8.332 16.081 7.533 16.47 6.716 16.82q3.151 8.494 5.882 17.13 2.731 8.638 5.035 17.398t4.175 17.624q1.87 8.863 3.305 17.807 1.434 8.944 2.427 17.948t1.544 18.046.657 18.1q.106 9.057-.233 18.11-.338 9.051-1.12 18.076-.783 9.024-2.007 18-1.224 8.975-2.887 17.88t-3.761 17.716-4.626 17.51q-2.528 8.7-5.48 17.264-2.95 8.564-6.32 16.973-3.367 8.409-7.144 16.642-3.777 8.234-7.953 16.272t-8.742 15.862-9.51 15.414-10.254 14.929q-5.31 7.338-10.975 14.407-5.664 7.07-11.668 13.852-6.005 6.783-12.335 13.263t-12.97 12.64q-4.9 4.548-9.962 8.915-5.063 4.367-10.28 8.548-5.217 4.18-10.582 8.17-5.365 3.988-10.87 7.78-5.507 3.792-11.147 7.382t-11.405 6.973-11.651 6.556-11.881 6.13-12.095 5.695q-6.1 2.737-12.294 5.252-6.194 2.516-12.475 4.805-6.282 2.289-12.642 4.35t-12.79 3.888-12.924 3.422-13.038 2.952-13.137 2.478-13.219 2-13.282 1.521-13.328 1.038q-6.673.399-13.357.555t-13.369.07-13.362-.413-13.339-.898q-6.66-.57-13.297-1.38-6.636-.81-13.238-1.86-6.603-1.051-13.163-2.34t-13.069-2.814-12.958-3.286q-6.45-1.76-12.832-3.754-6.381-1.993-12.686-4.215-6.305-2.223-12.526-4.673-6.22-2.45-12.348-5.123-8.303-3.622-16.418-7.647t-16.022-8.444-15.59-9.22-15.117-9.974-14.61-10.704q-7.174-5.53-14.067-11.407-6.894-5.877-13.491-12.084-6.597-6.208-12.882-12.732t-12.24-13.348q-5.958-6.825-11.572-13.933-5.615-7.108-10.874-14.484-5.26-7.375-10.15-15-4.892-7.624-9.403-15.48-4.51-7.855-8.63-15.922t-7.84-16.327q-3.72-8.26-7.029-16.692-3.31-8.432-6.201-17.017-2.892-8.584-5.359-17.3t-4.503-17.543-3.638-17.742-2.762-17.9-1.88-18.013-.996-18.084-.106-18.111.783-18.095 1.67-18.034 2.552-17.93q1.497-8.935 3.43-17.785t4.297-17.594q2.365-8.744 5.156-17.362t6.002-17.088 6.833-16.773q2.673-6.128 5.567-12.154 2.893-6.027 6.003-11.945t6.433-11.72 6.852-11.479 7.264-11.223 7.666-10.952 8.057-10.668q4.126-5.26 8.439-10.369 4.313-5.108 8.809-10.056 4.495-4.949 9.167-9.73 4.671-4.783 9.513-9.393t9.848-9.042q5.006-4.431 10.169-8.678 5.162-4.248 10.476-8.305 5.313-4.058 10.77-7.92t11.05-7.524 11.316-7.12 11.565-6.704 11.802-6.282 12.02-5.85q6.064-2.815 12.226-5.41 6.161-2.594 12.412-4.964t12.585-4.511 12.74-4.053q6.406-1.91 12.878-3.588 6.471-1.677 13-3.12 6.528-1.441 13.104-2.646t13.191-2.17 13.262-1.69 13.313-1.21 13.35-.726Q393.313 1 400 1v369z"/><path fill="none" stroke="#fff" stroke-linejoin="bevel" stroke-width="2" d="M670.49 119.01q6.161 6.64 11.99 13.574 5.828 6.935 11.309 14.147t10.601 14.684 9.868 15.187 9.111 15.653 8.332 16.081 7.533 16.47 6.716 16.82q3.151 8.494 5.882 17.13 2.731 8.638 5.035 17.398t4.175 17.624q1.87 8.863 3.305 17.807 1.434 8.944 2.427 17.948t1.544 18.046.657 18.1q.106 9.057-.233 18.11-.338 9.051-1.12 18.076-.783 9.024-2.007 18-1.224 8.975-2.887 17.88t-3.761 17.716-4.626 17.51q-2.528 8.7-5.48 17.264-2.95 8.564-6.32 16.973-3.367 8.409-7.144 16.642-3.777 8.234-7.953 16.272t-8.742 15.862-9.51 15.414-10.254 14.929q-5.31 7.338-10.975 14.407-5.664 7.07-11.668 13.852-6.005 6.783-12.335 13.263t-12.97 12.64q-4.9 4.548-9.962 8.915-5.063 4.367-10.28 8.548-5.217 4.18-10.582 8.17-5.365 3.988-10.87 7.78-5.507 3.792-11.147 7.382t-11.405 6.973-11.651 6.556-11.881 6.13-12.095 5.695q-6.1 2.737-12.294 5.252-6.194 2.516-12.475 4.805-6.282 2.289-12.642 4.35t-12.79 3.888-12.924 3.422-13.038 2.952-13.137 2.478-13.219 2-13.282 1.521-13.328 1.038q-6.673.399-13.357.555t-13.369.07-13.362-.413-13.339-.898q-6.66-.57-13.297-1.38-6.636-.81-13.238-1.86-6.603-1.051-13.163-2.34t-13.069-2.814-12.958-3.286q-6.45-1.76-12.832-3.754-6.381-1.993-12.686-4.215-6.305-2.223-12.526-4.673-6.22-2.45-12.348-5.123-8.303-3.622-16.418-7.647t-16.022-8.444-15.59-9.22-15.117-9.974-14.61-10.704q-7.174-5.53-14.067-11.407-6.894-5.877-13.491-12.084-6.597-6.208-12.882-12.732t-12.24-13.348q-5.958-6.825-11.572-13.933-5.615-7.108-10.874-14.484-5.26-7.375-10.15-15-4.892-7.624-9.403-15.48-4.51-7.855-8.63-15.922t-7.84-16.327q-3.72-8.26-7.029-16.692-3.31-8.432-6.201-17.017-2.892-8.584-5.359-17.3t-4.503-17.543-3.638-17.742-2.762-17.9-1.88-18.013-.996-18.084-.106-18.111.783-18.095 1.67-18.034 2.552-17.93q1.497-8.935 3.43-17.785t4.297-17.594q2.365-8.744 5.156-17.362t6.002-17.088 6.833-16.773q2.673-6.128 5.567-12.154 2.893-6.027 6.003-11.945t6.433-11.72 6.852-11.479 7.264-11.223 7.666-10.952 8.057-10.668q4.126-5.26 8.439-10.369 4.313-5.108 8.809-10.056 4.495-4.949 9.167-9.73 4.671-4.783 9.513-9.393t9.848-9.042q5.006-4.431 10.169-8.678 5.162-4.248 10.476-8.305 5.313-4.058 10.77-7.92t11.05-7.524 11.316-7.12 11.565-6.704 11.802-6.282 12.02-5.85q6.064-2.815 12.226-5.41 6.161-2.594 12.412-4.964t12.585-4.511 12.74-4.053q6.406-1.91 12.878-3.588 6.471-1.677 13-3.12 6.528-1.441 13.104-2.646t13.191-2.17 13.262-1.69 13.313-1.21 13.35-.726Q393.313 1 400 1v369l270.49-250.99Z"/></svg>