<svg xmlns="http://www.w3.org/2000/svg" width="800" height="800"><path fill="none" d="M0 0h800v800H0z"/><clipPath id="a"><path d="M0 690h800v110H0z"/></clipPath><g clip-path="url(#a)"><path fill="#4caf50" d="M123.3 720h40v20h-40z"/><path fill="none" stroke="#fff" stroke-miterlimit="10" stroke-width="2" d="M123.3 720h40v20h-40z"/><path fill="#ff9800" d="M377.64 720h40v20h-40z"/><path fill="none" stroke="#fff" stroke-miterlimit="10" stroke-width="2" d="M377.64 720h40v20h-40z"/><path fill="#f44336" d="M262.92 770h40v20h-40z"/><path fill="none" stroke="#fff" stroke-miterlimit="10" stroke-width="2" d="M262.92 770h40v20h-40z"/></g><path fill="#4caf50" d="M400 1q8.307 0 16.604.401 8.297.4 16.566 1.202 8.268.8 16.488 2t16.372 2.794 16.219 3.58q8.066 1.986 16.027 4.36 7.96 2.373 15.797 5.127 7.837 2.755 15.532 5.885t15.23 6.627 14.891 7.355q7.358 3.857 14.52 8.064 7.163 4.208 14.113 8.757 6.952 4.548 13.675 9.427t13.203 10.076 12.702 10.702 12.17 11.302L400 345z"/><path fill="none" stroke="#fff" stroke-linejoin="bevel" stroke-width="2" d="M400 1q8.307 0 16.604.401 8.297.4 16.566 1.202 8.268.8 16.488 2t16.372 2.794 16.219 3.58q8.066 1.986 16.027 4.36 7.96 2.373 15.797 5.127 7.837 2.755 15.532 5.885t15.23 6.627 14.891 7.355q7.358 3.857 14.52 8.064 7.163 4.208 14.113 8.757 6.952 4.548 13.675 9.427t13.203 10.076 12.702 10.702 12.17 11.302L400 345z"/><path fill="#ff9800" d="M640.109 98.66q16.464 16.047 30.647 34.144t25.83 37.919L400 345z"/><path fill="none" stroke="#fff" stroke-linejoin="bevel" stroke-width="2" d="M640.109 98.66q16.464 16.047 30.647 34.144t25.83 37.919L400 345 640.109 98.66Z"/><path fill="#f44336" d="M696.586 170.723q4.279 7.28 8.194 14.762t7.46 15.147 6.708 15.495q3.164 7.83 5.94 15.805 2.775 7.976 5.156 16.078t4.361 16.311 3.556 16.506 2.742 16.66 1.921 16.775 1.096 16.849.267 16.882-.561 16.875q-.488 8.43-1.389 16.827-.9 8.397-2.212 16.74-1.312 8.341-3.032 16.61-1.719 8.267-3.842 16.44t-4.645 16.233q-2.521 8.06-5.435 15.986t-6.214 15.7q-3.3 7.773-6.976 15.375t-7.723 15.015q-4.045 7.413-8.45 14.618t-9.156 14.186-9.842 13.719-10.503 13.22q-5.414 6.48-11.14 12.688-5.725 6.208-11.748 12.127t-12.33 11.536-12.88 10.916-13.4 10.272-13.889 9.602-14.343 8.908q-4.87 2.863-9.833 5.563-4.962 2.701-10.01 5.238-5.05 2.536-10.178 4.905-5.13 2.37-10.334 4.569-5.203 2.2-10.477 4.227-5.273 2.027-10.61 3.88-5.338 1.854-10.733 3.53-5.395 1.677-10.843 3.176-5.447 1.5-10.94 2.818-5.494 1.32-11.028 2.457-5.534 1.138-11.103 2.094-5.568.956-11.165 1.728t-11.216 1.36-11.254.992-11.281.621-11.295.25-11.298-.12-11.287-.492-11.265-.862q-5.626-.523-11.23-1.231-5.606-.708-11.185-1.6-5.58-.891-11.126-1.966-5.547-1.074-11.055-2.33t-10.973-2.692-10.878-3.05-10.772-3.407-10.655-3.759-10.525-4.106-10.385-4.45-10.233-4.788-10.07-5.122q-4.994-2.643-9.898-5.45-7.329-4.194-14.444-8.743t-13.998-9.441-13.517-10.117-13.006-10.768-12.46-11.393-11.888-11.991q-5.796-6.142-11.284-12.56t-10.654-13.098-10-13.605q-4.832-6.926-9.319-14.08-4.486-7.154-8.617-14.52-4.13-7.366-7.894-14.925t-7.153-15.295-6.393-15.627-5.62-15.922-4.83-16.178-4.031-16.396-3.222-16.574-2.405-16.713-1.582-16.81-.755-16.867.074-16.884q.244-8.442.901-16.86.658-8.42 1.728-16.796 1.07-8.377 2.55-16.69 1.48-8.315 3.367-16.546 1.886-8.232 4.173-16.36 2.288-8.13 4.972-16.137t5.757-15.872 6.53-15.57q3.455-7.706 7.285-15.233 3.83-7.526 8.024-14.856 2.806-4.903 5.771-9.712 2.966-4.809 6.088-9.518t6.397-9.312 6.7-9.098 6.993-8.873 7.282-8.638 7.562-8.394 7.833-8.142 8.097-7.88 8.35-7.61q4.239-3.736 8.597-7.331t8.832-7.045q4.474-3.45 9.06-6.752 4.584-3.301 9.275-6.45 4.69-3.149 9.483-6.142 4.791-2.993 9.679-5.828 4.887-2.834 9.865-5.506t10.04-5.18q5.064-2.507 10.206-4.847 5.143-2.34 10.36-4.51t10.501-4.166 10.633-3.82 10.752-3.468 10.861-3.113 10.957-2.755 11.042-2.394 11.114-2.03 11.175-1.663 11.223-1.296 11.26-.927q5.638-.37 11.284-.556T400 1v344z"/><path fill="none" stroke="#fff" stroke-linejoin="bevel" stroke-width="2" d="M696.586 170.723q4.279 7.28 8.194 14.762t7.46 15.147 6.708 15.495q3.164 7.83 5.94 15.805 2.775 7.976 5.156 16.078t4.361 16.311 3.556 16.506 2.742 16.66 1.921 16.775 1.096 16.849.267 16.882-.561 16.875q-.488 8.43-1.389 16.827-.9 8.397-2.212 16.74-1.312 8.341-3.032 16.61-1.719 8.267-3.842 16.44t-4.645 16.233q-2.521 8.06-5.435 15.986t-6.214 15.7q-3.3 7.773-6.976 15.375t-7.723 15.015q-4.045 7.413-8.45 14.618t-9.156 14.186-9.842 13.719-10.503 13.22q-5.414 6.48-11.14 12.688-5.725 6.208-11.748 12.127t-12.33 11.536-12.88 10.916-13.4 10.272-13.889 9.602-14.343 8.908q-4.87 2.863-9.833 5.563-4.962 2.701-10.01 5.238-5.05 2.536-10.178 4.905-5.13 2.37-10.334 4.569-5.203 2.2-10.477 4.227-5.273 2.027-10.61 3.88-5.338 1.854-10.733 3.53-5.395 1.677-10.843 3.176-5.447 1.5-10.94 2.818-5.494 1.32-11.028 2.457-5.534 1.138-11.103 2.094-5.568.956-11.165 1.728t-11.216 1.36-11.254.992-11.281.621-11.295.25-11.298-.12-11.287-.492-11.265-.862q-5.626-.523-11.23-1.231-5.606-.708-11.185-1.6-5.58-.891-11.126-1.966-5.547-1.074-11.055-2.33t-10.973-2.692-10.878-3.05-10.772-3.407-10.655-3.759-10.525-4.106-10.385-4.45-10.233-4.788-10.07-5.122q-4.994-2.643-9.898-5.45-7.329-4.194-14.444-8.743t-13.998-9.441-13.517-10.117-13.006-10.768-12.46-11.393-11.888-11.991q-5.796-6.142-11.284-12.56t-10.654-13.098-10-13.605q-4.832-6.926-9.319-14.08-4.486-7.154-8.617-14.52-4.13-7.366-7.894-14.925t-7.153-15.295-6.393-15.627-5.62-15.922-4.83-16.178-4.031-16.396-3.222-16.574-2.405-16.713-1.582-16.81-.755-16.867.074-16.884q.244-8.442.901-16.86.658-8.42 1.728-16.796 1.07-8.377 2.55-16.69 1.48-8.315 3.367-16.546 1.886-8.232 4.173-16.36 2.288-8.13 4.972-16.137t5.757-15.872 6.53-15.57q3.455-7.706 7.285-15.233 3.83-7.526 8.024-14.856 2.806-4.903 5.771-9.712 2.966-4.809 6.088-9.518t6.397-9.312 6.7-9.098 6.993-8.873 7.282-8.638 7.562-8.394 7.833-8.142 8.097-7.88 8.35-7.61q4.239-3.736 8.597-7.331t8.832-7.045q4.474-3.45 9.06-6.752 4.584-3.301 9.275-6.45 4.69-3.149 9.483-6.142 4.791-2.993 9.679-5.828 4.887-2.834 9.865-5.506t10.04-5.18q5.064-2.507 10.206-4.847 5.143-2.34 10.36-4.51t10.501-4.166 10.633-3.82 10.752-3.468 10.861-3.113 10.957-2.755 11.042-2.394 11.114-2.03 11.175-1.663 11.223-1.296 11.26-.927q5.638-.37 11.284-.556T400 1v344l296.586-174.277Z"/></svg>