<svg xmlns="http://www.w3.org/2000/svg" width="800" height="800"><path fill="none" d="M0 0h800v800H0z"/><clipPath id="a"><path d="M0 740h800v60H0z"/></clipPath><g clip-path="url(#a)"><path fill="#4caf50" d="M144.605 770h40v20h-40z"/><path fill="none" stroke="#fff" stroke-miterlimit="10" stroke-width="2" d="M144.605 770h40v20h-40z"/><text x="194.605, 207.94484, 217.50539, 230.38625, 240.64992, 248.68703, 260.52295," y="787.5," fill="#666" font-family="DejaVu Serif" font-size="20">Trusted</text><path fill="#ff9800" d="M303.325 770h40v20h-40z"/><path fill="none" stroke="#fff" stroke-miterlimit="10" stroke-width="2" d="M303.325 770h40v20h-40z"/><text x="353.32501, 366.78204, 376.34259, 388.38361, 399.68243, 411.51837, 424.39923, 436.32306, 449.20392, 460.40509," y="787.5," fill="#666" font-family="DejaVu Serif" font-size="20">Provenance</text><path fill="#f44336" d="M502.245 770h40v20h-40z"/><path fill="none" stroke="#fff" stroke-miterlimit="10" stroke-width="2" d="M502.245 770h40v20h-40z"/><text x="552.245, 569.10046, 581.98132, 590.01843, 599.57898, 612.45984, 622.72351, 630.76062, 642.59656," y="787.5," fill="#666" font-family="DejaVu Serif" font-size="20">Untrusted</text></g><path fill="#4caf50" d="M400 1q7.719 0 15.43.323 7.712.323 15.404.968 7.692.644 15.35 1.61t15.268 2.252 15.162 2.888 15.027 3.52 14.867 4.144 14.68 4.763q7.29 2.535 14.469 5.373t14.231 5.973 13.97 6.563q6.915 3.427 13.681 7.14 6.767 3.714 13.372 7.708 6.605 3.993 13.038 8.26 6.432 4.265 12.68 8.797 6.25 4.531 12.303 9.32L400 370z"/><path fill="none" stroke="#fff" stroke-linejoin="bevel" stroke-width="2" d="M400 1q7.719 0 15.43.323 7.712.323 15.404.968 7.692.644 15.35 1.61t15.268 2.252 15.162 2.888 15.027 3.52 14.867 4.144 14.68 4.763q7.29 2.535 14.469 5.373t14.231 5.973 13.97 6.563q6.915 3.427 13.681 7.14 6.767 3.714 13.372 7.708 6.605 3.993 13.038 8.26 6.432 4.265 12.68 8.797 6.25 4.531 12.303 9.32L400 370z"/><path fill="#ff9800" d="M628.932 80.602q10.088 7.98 19.596 16.644t18.39 17.967q8.88 9.305 17.093 19.205t15.715 20.348L400 370z"/><path fill="none" stroke="#fff" stroke-linejoin="bevel" stroke-width="2" d="M628.932 80.602q10.088 7.98 19.596 16.644t18.39 17.967q8.88 9.305 17.093 19.205t15.715 20.348L400 370 628.932 80.602Z"/><path fill="#f44336" d="M699.725 154.766q5.284 7.358 10.2 14.966 4.917 7.608 9.454 15.449 4.537 7.84 8.684 15.893t7.893 16.301 7.085 16.669q3.337 8.42 6.257 16.996t5.417 17.282q2.496 8.708 4.562 17.528 2.065 8.82 3.696 17.73 1.63 8.91 2.822 17.89 1.191 8.98 1.94 18.007.75 9.028 1.055 18.081.306 9.053.166 18.11-.139 9.058-.722 18.098-.584 9.04-1.61 18.04t-2.493 17.939q-1.466 8.938-3.37 17.795-1.903 8.856-4.24 17.608-2.335 8.752-5.097 17.379t-5.945 17.108-6.777 16.796-7.593 16.443-8.39 16.05-9.169 15.62-9.923 15.15-10.655 14.646q-5.508 7.192-11.361 14.105t-12.04 13.531q-6.185 6.618-12.688 12.924t-13.307 12.286q-6.805 5.979-13.894 11.617t-14.448 10.922q-5.137 3.69-10.397 7.2t-10.638 6.839q-5.378 3.328-10.866 6.47-5.489 3.143-11.082 6.095t-11.284 5.71q-5.69 2.76-11.472 5.322t-11.649 4.925q-5.866 2.362-11.81 4.522t-11.959 4.116-12.092 3.703-12.212 3.286-12.318 2.866-12.408 2.442q-6.226 1.115-12.485 2.016-6.26.901-12.547 1.587t-12.594 1.156-12.626.723-12.643.29q-6.324.038-12.646-.142t-12.634-.576q-6.311-.397-12.606-1.01-6.295-.612-12.564-1.44-6.27-.827-12.508-1.87-6.238-1.042-12.436-2.297-6.199-1.255-12.35-2.722-6.152-1.467-12.25-3.144t-12.135-3.562-12.005-3.975q-5.97-2.091-11.863-4.385t-11.705-4.789q-5.811-2.494-11.534-5.186-5.723-2.693-11.35-5.58-8.06-4.134-15.906-8.66-7.847-4.525-15.463-9.43t-14.981-10.177-14.464-10.9-13.912-11.598-13.326-12.265-12.708-12.905-12.06-13.513-11.381-14.088-10.677-14.63-9.946-15.135-9.192-15.606-8.414-16.038-7.618-16.432-6.802-16.785-5.97-17.1-5.125-17.37q-2.349-8.75-4.266-17.603t-3.396-17.79q-1.48-8.936-2.52-17.935t-1.637-18.037-.75-18.096.14-18.111 1.027-18.082 1.914-18.01q1.178-8.982 2.795-17.895t3.67-17.736q2.052-8.822 4.535-17.534t5.39-17.29q2.908-8.58 6.233-17.006t7.06-16.679 7.868-16.312q2.887-5.627 5.965-11.152t6.343-10.941 6.715-10.717 7.078-10.48 7.432-10.233q3.805-5.052 7.78-9.97 3.974-4.92 8.116-9.7 4.14-4.78 8.443-9.414 4.303-4.636 8.762-9.12 4.459-4.485 9.069-8.815t9.365-8.498 9.651-8.173 9.926-7.837 10.189-7.493 10.439-7.138 10.677-6.777 10.904-6.407 11.117-6.03 11.317-5.645 11.503-5.254 11.677-4.857 11.837-4.453 11.982-4.046 12.114-3.632 12.23-3.216 12.335-2.794 12.423-2.37 12.496-1.943 12.556-1.513 12.6-1.082 12.63-.65T400 1v369z"/><path fill="none" stroke="#fff" stroke-linejoin="bevel" stroke-width="2" d="M699.725 154.766q5.284 7.358 10.2 14.966 4.917 7.608 9.454 15.449 4.537 7.84 8.684 15.893t7.893 16.301 7.085 16.669q3.337 8.42 6.257 16.996t5.417 17.282q2.496 8.708 4.562 17.528 2.065 8.82 3.696 17.73 1.63 8.91 2.822 17.89 1.191 8.98 1.94 18.007.75 9.028 1.055 18.081.306 9.053.166 18.11-.139 9.058-.722 18.098-.584 9.04-1.61 18.04t-2.493 17.939q-1.466 8.938-3.37 17.795-1.903 8.856-4.24 17.608-2.335 8.752-5.097 17.379t-5.945 17.108-6.777 16.796-7.593 16.443-8.39 16.05-9.169 15.62-9.923 15.15-10.655 14.646q-5.508 7.192-11.361 14.105t-12.04 13.531q-6.185 6.618-12.688 12.924t-13.307 12.286q-6.805 5.979-13.894 11.617t-14.448 10.922q-5.137 3.69-10.397 7.2t-10.638 6.839q-5.378 3.328-10.866 6.47-5.489 3.143-11.082 6.095t-11.284 5.71q-5.69 2.76-11.472 5.322t-11.649 4.925q-5.866 2.362-11.81 4.522t-11.959 4.116-12.092 3.703-12.212 3.286-12.318 2.866-12.408 2.442q-6.226 1.115-12.485 2.016-6.26.901-12.547 1.587t-12.594 1.156-12.626.723-12.643.29q-6.324.038-12.646-.142t-12.634-.576q-6.311-.397-12.606-1.01-6.295-.612-12.564-1.44-6.27-.827-12.508-1.87-6.238-1.042-12.436-2.297-6.199-1.255-12.35-2.722-6.152-1.467-12.25-3.144t-12.135-3.562-12.005-3.975q-5.97-2.091-11.863-4.385t-11.705-4.789q-5.811-2.494-11.534-5.186-5.723-2.693-11.35-5.58-8.06-4.134-15.906-8.66-7.847-4.525-15.463-9.43t-14.981-10.177-14.464-10.9-13.912-11.598-13.326-12.265-12.708-12.905-12.06-13.513-11.381-14.088-10.677-14.63-9.946-15.135-9.192-15.606-8.414-16.038-7.618-16.432-6.802-16.785-5.97-17.1-5.125-17.37q-2.349-8.75-4.266-17.603t-3.396-17.79q-1.48-8.936-2.52-17.935t-1.637-18.037-.75-18.096.14-18.111 1.027-18.082 1.914-18.01q1.178-8.982 2.795-17.895t3.67-17.736q2.052-8.822 4.535-17.534t5.39-17.29q2.908-8.58 6.233-17.006t7.06-16.679 7.868-16.312q2.887-5.627 5.965-11.152t6.343-10.941 6.715-10.717 7.078-10.48 7.432-10.233q3.805-5.052 7.78-9.97 3.974-4.92 8.116-9.7 4.14-4.78 8.443-9.414 4.303-4.636 8.762-9.12 4.459-4.485 9.069-8.815t9.365-8.498 9.651-8.173 9.926-7.837 10.189-7.493 10.439-7.138 10.677-6.777 10.904-6.407 11.117-6.03 11.317-5.645 11.503-5.254 11.677-4.857 11.837-4.453 11.982-4.046 12.114-3.632 12.23-3.216 12.335-2.794 12.423-2.37 12.496-1.943 12.556-1.513 12.6-1.082 12.63-.65T400 1v369l299.725-215.234Z"/></svg>