<svg xmlns="http://www.w3.org/2000/svg" width="800" height="800"><path fill="none" d="M0 0h800v800H0z"/><clipPath id="a"><path d="M0 690h800v110H0z"/></clipPath><g clip-path="url(#a)"><path fill="#4caf50" d="M123.3 720h40v20h-40z"/><path fill="none" stroke="#fff" stroke-miterlimit="10" stroke-width="2" d="M123.3 720h40v20h-40z"/><path fill="#ff9800" d="M377.64 720h40v20h-40z"/><path fill="none" stroke="#fff" stroke-miterlimit="10" stroke-width="2" d="M377.64 720h40v20h-40z"/><path fill="#f44336" d="M262.92 770h40v20h-40z"/><path fill="none" stroke="#fff" stroke-miterlimit="10" stroke-width="2" d="M262.92 770h40v20h-40z"/></g><path fill="#4caf50" d="M400 1q4.751 0 9.5.131 4.75.131 9.495.394 4.744.262 9.479.655 4.735.394 9.457.918t9.429 1.178 9.392 1.438 9.35 1.697 9.298 1.954 9.241 2.21 9.177 2.465 9.105 2.718q4.534 1.421 9.026 2.968 4.493 1.546 8.941 3.216t8.85 3.462 8.75 3.704q4.348 1.913 8.643 3.945t8.532 4.183q4.237 2.15 8.413 4.416t8.288 4.647 8.157 4.874 8.019 5.098 7.874 5.317 7.725 5.532 7.57 5.744 7.407 5.951 7.24 6.153q3.579 3.126 7.069 6.35 3.49 3.225 6.89 6.544 3.4 3.32 6.706 6.731t6.518 6.914 6.324 7.091q3.114 3.59 6.127 7.264L400 345z"/><path fill="none" stroke="#fff" stroke-linejoin="bevel" stroke-width="2" d="M400 1q4.751 0 9.5.131 4.75.131 9.495.394 4.744.262 9.479.655 4.735.394 9.457.918t9.429 1.178 9.392 1.438 9.35 1.697 9.298 1.954 9.241 2.21 9.177 2.465 9.105 2.718q4.534 1.421 9.026 2.968 4.493 1.546 8.941 3.216t8.85 3.462 8.75 3.704q4.348 1.913 8.643 3.945t8.532 4.183q4.237 2.15 8.413 4.416t8.288 4.647 8.157 4.874 8.019 5.098 7.874 5.317 7.725 5.532 7.57 5.744 7.407 5.951 7.24 6.153q3.579 3.126 7.069 6.35 3.49 3.225 6.89 6.544 3.4 3.32 6.706 6.731t6.518 6.914 6.324 7.091q3.114 3.59 6.127 7.264L400 345z"/><path fill="#ff9800" d="M665.992 126.862q13.61 16.595 25.05 34.753 11.442 18.158 20.538 37.597L400 345z"/><path fill="none" stroke="#fff" stroke-linejoin="bevel" stroke-width="2" d="M665.992 126.862q13.61 16.595 25.05 34.753 11.442 18.158 20.538 37.597L400 345l265.992-218.138Z"/><path fill="#f44336" d="M711.58 199.212q3.579 7.649 6.778 15.464 3.2 7.816 6.011 15.778t5.23 16.054 4.435 16.292 3.632 16.489 2.817 16.648q1.205 8.358 1.997 16.765.793 8.408 1.173 16.844.379 8.436.344 16.88-.035 8.445-.484 16.878-.45 8.433-1.312 16.834t-2.137 16.748q-1.273 8.348-2.955 16.624t-3.768 16.459-4.57 16.253-5.363 16.01-6.142 15.728-6.906 15.408q-3.643 7.618-7.654 15.05-4.012 7.43-8.383 14.656-4.372 7.225-9.093 14.227-4.72 7.002-9.779 13.764t-10.443 13.267-11.081 12.74-11.693 12.18-12.277 11.591q-6.28 5.645-12.83 10.975t-13.354 10.333-13.845 9.665q-7.04 4.662-14.302 8.974-7.261 4.311-14.725 8.26-7.464 3.95-15.113 7.53-4.89 2.287-9.848 4.42t-9.982 4.11q-5.023 1.977-10.106 3.795t-10.22 3.475-10.324 3.154-10.418 2.827q-5.232 1.332-10.502 2.5t-10.575 2.168q-5.304 1.002-10.637 1.836t-10.69 1.501-10.732 1.165q-5.375.499-10.763.828-5.388.33-10.784.49t-10.794.15-10.793-.187-10.782-.527-10.76-.864-10.728-1.202-10.685-1.537-10.632-1.872q-5.3-1.02-10.567-2.205-5.266-1.185-10.493-2.535-5.226-1.35-10.408-2.864t-10.313-3.188-10.209-3.51q-5.076-1.836-10.093-3.83-5.016-1.993-9.968-4.143-4.95-2.15-9.832-4.455-4.882-2.304-9.689-4.76t-9.534-5.063-9.37-5.36q-4.644-2.752-9.199-5.65-7.125-4.532-14.019-9.41-6.894-4.876-13.54-10.085-6.647-5.21-13.03-10.739t-12.487-11.365q-6.104-5.835-11.914-11.963t-11.313-12.534-10.685-13.074-10.03-13.583-9.35-14.058-8.651-14.5-7.928-14.907-7.188-15.279-6.429-15.612-5.655-15.91-4.868-16.167q-2.235-8.143-4.068-16.386-1.833-8.244-3.26-16.567T58.5 386.4t-1.62-16.806q-.603-8.424-.793-16.866t.035-16.884.863-16.863q.639-8.42 1.69-16.8 1.051-8.378 2.512-16.696 1.461-8.317 3.329-16.553 1.867-8.236 4.136-16.37t4.935-16.147 5.721-15.885 6.494-15.586 7.25-15.248 7.99-14.874 8.71-14.465q2.898-4.554 5.937-9.016t6.216-8.825 6.49-8.626 6.758-8.418 7.019-8.202 7.272-7.978 7.519-7.745 7.758-7.506 7.99-7.259q4.052-3.566 8.214-7.004t8.43-6.743q4.268-3.306 8.637-6.476t8.836-6.201 9.026-5.921 9.208-5.635 9.38-5.343 9.542-5.046 9.697-4.744q4.885-2.297 9.84-4.438 4.955-2.142 9.975-4.127t10.1-3.812T293.81 17.8t10.319-3.17 10.413-2.846 10.497-2.517T335.61 7.08t10.635-1.854 10.687-1.52 10.73-1.183 10.762-.846 10.782-.508T400 1v344z"/><path fill="none" stroke="#fff" stroke-linejoin="bevel" stroke-width="2" d="M711.58 199.212q3.579 7.649 6.778 15.464 3.2 7.816 6.011 15.778t5.23 16.054 4.435 16.292 3.632 16.489 2.817 16.648q1.205 8.358 1.997 16.765.793 8.408 1.173 16.844.379 8.436.344 16.88-.035 8.445-.484 16.878-.45 8.433-1.312 16.834t-2.137 16.748q-1.273 8.348-2.955 16.624t-3.768 16.459-4.57 16.253-5.363 16.01-6.142 15.728-6.906 15.408q-3.643 7.618-7.654 15.05-4.012 7.43-8.383 14.656-4.372 7.225-9.093 14.227-4.72 7.002-9.779 13.764t-10.443 13.267-11.081 12.74-11.693 12.18-12.277 11.591q-6.28 5.645-12.83 10.975t-13.354 10.333-13.845 9.665q-7.04 4.662-14.302 8.974-7.261 4.311-14.725 8.26-7.464 3.95-15.113 7.53-4.89 2.287-9.848 4.42t-9.982 4.11q-5.023 1.977-10.106 3.795t-10.22 3.475-10.324 3.154-10.418 2.827q-5.232 1.332-10.502 2.5t-10.575 2.168q-5.304 1.002-10.637 1.836t-10.69 1.501-10.732 1.165q-5.375.499-10.763.828-5.388.33-10.784.49t-10.794.15-10.793-.187-10.782-.527-10.76-.864-10.728-1.202-10.685-1.537-10.632-1.872q-5.3-1.02-10.567-2.205-5.266-1.185-10.493-2.535-5.226-1.35-10.408-2.864t-10.313-3.188-10.209-3.51q-5.076-1.836-10.093-3.83-5.016-1.993-9.968-4.143-4.95-2.15-9.832-4.455-4.882-2.304-9.689-4.76t-9.534-5.063-9.37-5.36q-4.644-2.752-9.199-5.65-7.125-4.532-14.019-9.41-6.894-4.876-13.54-10.085-6.647-5.21-13.03-10.739t-12.487-11.365q-6.104-5.835-11.914-11.963t-11.313-12.534-10.685-13.074-10.03-13.583-9.35-14.058-8.651-14.5-7.928-14.907-7.188-15.279-6.429-15.612-5.655-15.91-4.868-16.167q-2.235-8.143-4.068-16.386-1.833-8.244-3.26-16.567T58.5 386.4t-1.62-16.806q-.603-8.424-.793-16.866t.035-16.884.863-16.863q.639-8.42 1.69-16.8 1.051-8.378 2.512-16.696 1.461-8.317 3.329-16.553 1.867-8.236 4.136-16.37t4.935-16.147 5.721-15.885 6.494-15.586 7.25-15.248 7.99-14.874 8.71-14.465q2.898-4.554 5.937-9.016t6.216-8.825 6.49-8.626 6.758-8.418 7.019-8.202 7.272-7.978 7.519-7.745 7.758-7.506 7.99-7.259q4.052-3.566 8.214-7.004t8.43-6.743q4.268-3.306 8.637-6.476t8.836-6.201 9.026-5.921 9.208-5.635 9.38-5.343 9.542-5.046 9.697-4.744q4.885-2.297 9.84-4.438 4.955-2.142 9.975-4.127t10.1-3.812T293.81 17.8t10.319-3.17 10.413-2.846 10.497-2.517T335.61 7.08t10.635-1.854 10.687-1.52 10.73-1.183 10.762-.846 10.782-.508T400 1v344l311.58-145.788Z"/></svg>