<svg xmlns="http://www.w3.org/2000/svg" width="800" height="800"><path fill="none" d="M0 0h800v800H0z"/><clipPath id="a"><path d="M0 740h800v60H0z"/></clipPath><g clip-path="url(#a)"><path fill="#4caf50" d="M164.745 770h40v20h-40z"/><path fill="none" stroke="#fff" stroke-miterlimit="10" stroke-width="2" d="M164.745 770h40v20h-40z"/><text x="214.745, 226.2196, 232.87976, 244.00281, 254.00281, 259.55945, 270.6825," y="786.5," fill="#666" font-family="Liberation Sans" font-size="20">Trusted</text><path fill="#ff9800" d="M311.805 770h40v20h-40z"/><path fill="none" stroke="#fff" stroke-miterlimit="10" stroke-width="2" d="M311.805 770h40v20h-40z"/><text x="361.80499, 375.14484, 381.80499, 392.92804, 402.92804, 414.05109, 425.17413, 436.29718, 447.42023, 457.42023," y="786.5," fill="#666" font-family="Liberation Sans" font-size="20">Provenance</text><path fill="#f44336" d="M498.545 770h40v20h-40z"/><path fill="none" stroke="#fff" stroke-miterlimit="10" stroke-width="2" d="M498.545 770h40v20h-40z"/><text x="548.54498, 562.98834, 574.11139, 579.66803, 586.32819, 597.45123, 607.45123, 613.00787, 624.13092," y="786.5," fill="#666" font-family="Liberation Sans" font-size="20">Untrusted</text></g><path fill="#4caf50" d="M400 1q5.605 0 11.207.17t11.197.51 11.177.851 11.145 1.19 11.104 1.527 11.053 1.864 10.99 2.199q5.48 1.183 10.92 2.531 5.44 1.35 10.837 2.862 5.396 1.514 10.745 3.19 5.348 1.677 10.643 3.515t10.532 3.837 10.41 4.154 10.28 4.469 10.138 4.779 9.99 5.084 9.829 5.386 9.662 5.682 9.485 5.972q4.697 3.059 9.299 6.258 4.602 3.2 9.104 6.538 4.503 3.338 8.902 6.81 4.4 3.474 8.691 7.079t8.472 7.339q4.18 3.734 8.245 7.593t8.011 7.84 7.77 8.079q3.822 4.099 7.52 8.312 3.696 4.213 7.263 8.536t7.002 8.753 6.732 8.961 6.457 9.162L400 370z"/><path fill="none" stroke="#fff" stroke-linejoin="bevel" stroke-width="2" d="M400 1q5.605 0 11.207.17t11.197.51 11.177.851 11.145 1.19 11.104 1.527 11.053 1.864 10.99 2.199q5.48 1.183 10.92 2.531 5.44 1.35 10.837 2.862 5.396 1.514 10.745 3.19 5.348 1.677 10.643 3.515t10.532 3.837 10.41 4.154 10.28 4.469 10.138 4.779 9.99 5.084 9.829 5.386 9.662 5.682 9.485 5.972q4.697 3.059 9.299 6.258 4.602 3.2 9.104 6.538 4.503 3.338 8.902 6.81 4.4 3.474 8.691 7.079t8.472 7.339q4.18 3.734 8.245 7.593t8.011 7.84 7.77 8.079q3.822 4.099 7.52 8.312 3.696 4.213 7.263 8.536t7.002 8.753 6.732 8.961 6.457 9.162L400 370z"/><path fill="#ff9800" d="M704.812 162.032q11.193 16.406 20.56 33.918 9.368 17.512 16.802 35.928L400 370z"/><path fill="none" stroke="#fff" stroke-linejoin="bevel" stroke-width="2" d="M704.812 162.032q11.193 16.406 20.56 33.918 9.368 17.512 16.802 35.928L400 370l304.812-207.968Z"/><path fill="#f44336" d="M742.174 231.878q3.39 8.4 6.365 16.956t5.526 17.248 4.672 17.498 3.809 17.706 2.935 17.872 2.054 17.995 1.169 18.074q.363 9.05.28 18.109-.081 9.058-.607 18.101-.527 9.043-1.496 18.05-.97 9.006-2.38 17.954t-3.257 17.816q-1.847 8.868-4.128 17.635-2.28 8.767-4.988 17.41-2.708 8.645-5.836 17.146t-6.671 16.838q-3.542 8.337-7.489 16.49-3.947 8.154-8.289 16.104t-9.07 15.677q-4.726 7.728-9.827 15.214-5.1 7.486-10.562 14.712-5.461 7.227-11.271 14.177t-11.953 13.607-12.607 13.003q-6.463 6.348-13.23 12.37-6.766 6.022-13.82 11.705t-14.378 11.014q-7.325 5.33-14.902 10.294t-15.388 9.55-15.839 8.785-16.25 7.997-16.624 7.19q-5.225 2.108-10.512 4.057t-10.63 3.735q-5.345 1.786-10.741 3.409t-10.84 3.079-10.928 2.746-11.007 2.412-11.076 2.075-11.133 1.735-11.182 1.395-11.219 1.052q-5.617.44-11.246.71-5.628.269-11.262.365-5.634.097-11.268.022t-11.264-.322-11.248-.666-11.223-1.01-11.187-1.351-11.14-1.692-11.084-2.032-11.016-2.37-10.94-2.704-10.85-3.037-10.754-3.367-10.645-3.694-10.528-4.017-10.4-4.337-10.263-4.653-10.116-4.963q-5.02-2.56-9.96-5.27-4.94-2.711-9.794-5.572-4.855-2.86-9.62-5.868t-9.436-6.16q-7.51-5.066-14.76-10.495-7.252-5.429-14.228-11.207t-13.66-11.892T137.9 629.74t-12.43-13.173q-6.052-6.74-11.767-13.768t-11.078-14.328-10.362-14.855q-4.998-7.554-9.62-15.345-4.622-7.79-8.856-15.798-4.234-8.009-8.07-16.215t-7.264-16.59-6.442-16.927q-3.013-8.543-5.604-17.223-2.59-8.68-4.751-17.477t-3.888-17.69q-1.728-8.892-3.016-17.858t-2.136-17.985q-.847-9.019-1.25-18.068-.404-9.05-.363-18.108.04-9.058.526-18.104.485-9.045 1.414-18.056.929-9.01 2.298-17.965 1.37-8.954 3.177-17.83 1.808-8.877 4.048-17.654t4.91-17.433 5.759-17.172 6.594-16.868 7.415-16.524 8.216-16.14 8.998-15.719 9.759-15.257q3.151-4.671 6.444-9.244t6.724-9.042 6.996-8.833 7.263-8.615q3.698-4.252 7.523-8.39 3.826-4.137 7.776-8.155 3.95-4.019 8.02-7.915 4.071-3.896 8.26-7.666 4.187-3.77 8.488-7.41t8.711-7.147 8.926-6.878q4.515-3.371 9.131-6.603t9.329-6.32 9.517-6.033 9.697-5.74 9.868-5.44 10.029-5.137T247 34.214t10.324-4.515 10.458-4.198 10.58-3.876 10.694-3.552 10.797-3.223 10.89-2.893T321.72 9.4t11.047-2.222 11.11-1.884 11.161-1.543 11.204-1.202 11.236-.86 11.256-.516T400 1v369z"/><path fill="none" stroke="#fff" stroke-linejoin="bevel" stroke-width="2" d="M742.174 231.878q3.39 8.4 6.365 16.956t5.526 17.248 4.672 17.498 3.809 17.706 2.935 17.872 2.054 17.995 1.169 18.074q.363 9.05.28 18.109-.081 9.058-.607 18.101-.527 9.043-1.496 18.05-.97 9.006-2.38 17.954t-3.257 17.816q-1.847 8.868-4.128 17.635-2.28 8.767-4.988 17.41-2.708 8.645-5.836 17.146t-6.671 16.838q-3.542 8.337-7.489 16.49-3.947 8.154-8.289 16.104t-9.07 15.677q-4.726 7.728-9.827 15.214-5.1 7.486-10.562 14.712-5.461 7.227-11.271 14.177t-11.953 13.607-12.607 13.003q-6.463 6.348-13.23 12.37-6.766 6.022-13.82 11.705t-14.378 11.014q-7.325 5.33-14.902 10.294t-15.388 9.55-15.839 8.785-16.25 7.997-16.624 7.19q-5.225 2.108-10.512 4.057t-10.63 3.735q-5.345 1.786-10.741 3.409t-10.84 3.079-10.928 2.746-11.007 2.412-11.076 2.075-11.133 1.735-11.182 1.395-11.219 1.052q-5.617.44-11.246.71-5.628.269-11.262.365-5.634.097-11.268.022t-11.264-.322-11.248-.666-11.223-1.01-11.187-1.351-11.14-1.692-11.084-2.032-11.016-2.37-10.94-2.704-10.85-3.037-10.754-3.367-10.645-3.694-10.528-4.017-10.4-4.337-10.263-4.653-10.116-4.963q-5.02-2.56-9.96-5.27-4.94-2.711-9.794-5.572-4.855-2.86-9.62-5.868t-9.436-6.16q-7.51-5.066-14.76-10.495-7.252-5.429-14.228-11.207t-13.66-11.892T137.9 629.74t-12.43-13.173q-6.052-6.74-11.767-13.768t-11.078-14.328-10.362-14.855q-4.998-7.554-9.62-15.345-4.622-7.79-8.856-15.798-4.234-8.009-8.07-16.215t-7.264-16.59-6.442-16.927q-3.013-8.543-5.604-17.223-2.59-8.68-4.751-17.477t-3.888-17.69q-1.728-8.892-3.016-17.858t-2.136-17.985q-.847-9.019-1.25-18.068-.404-9.05-.363-18.108.04-9.058.526-18.104.485-9.045 1.414-18.056.929-9.01 2.298-17.965 1.37-8.954 3.177-17.83 1.808-8.877 4.048-17.654t4.91-17.433 5.759-17.172 6.594-16.868 7.415-16.524 8.216-16.14 8.998-15.719 9.759-15.257q3.151-4.671 6.444-9.244t6.724-9.042 6.996-8.833 7.263-8.615q3.698-4.252 7.523-8.39 3.826-4.137 7.776-8.155 3.95-4.019 8.02-7.915 4.071-3.896 8.26-7.666 4.187-3.77 8.488-7.41t8.711-7.147 8.926-6.878q4.515-3.371 9.131-6.603t9.329-6.32 9.517-6.033 9.697-5.74 9.868-5.44 10.029-5.137T247 34.214t10.324-4.515 10.458-4.198 10.58-3.876 10.694-3.552 10.797-3.223 10.89-2.893T321.72 9.4t11.047-2.222 11.11-1.884 11.161-1.543 11.204-1.202 11.236-.86 11.256-.516T400 1v369l342.174-138.122Z"/></svg>