<svg xmlns="http://www.w3.org/2000/svg" width="800" height="800"><path fill="none" d="M0 0h800v800H0z"/><clipPath id="a"><path d="M0 740h800v60H0z"/></clipPath><g clip-path="url(#a)"><path fill="#4caf50" d="M164.6 770h40v20h-40z"/><path fill="none" stroke="#fff" stroke-miterlimit="10" stroke-width="2" d="M164.6 770h40v20h-40z"/><text x="214.60001, 224.24001, 230.89999, 242.01999, 252.01997, 258.31995, 269.05994," y="787," fill="#666" font-family="Helvetica Neue" font-size="20">Trusted</text><path fill="#ff9800" d="M310.92 770h40v20h-40z"/><path fill="none" stroke="#fff" stroke-miterlimit="10" stroke-width="2" d="M310.92 770h40v20h-40z"/><text x="360.91998, 373.87997, 380.17996, 391.65997, 401.65994, 412.39993, 423.51993, 434.25992, 445.37991, 456.1199," y="787," fill="#666" font-family="Helvetica Neue" font-size="20">Provenance</text><path fill="#f44336" d="M496.86 770h40v20h-40z"/><path fill="none" stroke="#fff" stroke-miterlimit="10" stroke-width="2" d="M496.86 770h40v20h-40z"/><text x="546.85999, 561.29999, 572.41998, 578.71997, 585.37994, 596.49994, 606.49994, 612.79993, 623.53992," y="787," fill="#666" font-family="Helvetica Neue" font-size="20">Untrusted</text></g><path fill="#4caf50" d="M400 1q10.74 0 21.463.625 10.722.624 21.39 1.872 10.667 1.247 21.245 3.113 10.577 1.865 21.027 4.343t20.74 5.56 20.381 6.755 19.954 7.93q9.861 4.256 19.459 9.078L400 370z"/><path fill="none" stroke="#fff" stroke-linejoin="bevel" stroke-width="2" d="M400 1q10.74 0 21.463.625 10.722.624 21.39 1.872 10.667 1.247 21.245 3.113 10.577 1.865 21.027 4.343t20.74 5.56 20.381 6.755 19.954 7.93q9.861 4.256 19.459 9.078L400 370z"/><path fill="#ff9800" d="M565.659 40.275q14.087 7.078 27.52 15.332 13.432 8.253 26.111 17.622t24.514 19.786q11.834 10.417 22.737 21.804L400 370z"/><path fill="none" stroke="#fff" stroke-linejoin="bevel" stroke-width="2" d="M565.659 40.275q14.087 7.078 27.52 15.332 13.432 8.253 26.111 17.622t24.514 19.786q11.834 10.417 22.737 21.804L400 370 565.658 40.275Z"/><path fill="#f44336" d="M666.54 114.82q6.265 6.543 12.2 13.386 5.937 6.842 11.53 13.968t10.829 14.517q5.236 7.392 10.103 15.031 4.868 7.64 9.355 15.51 4.486 7.868 8.581 15.948 4.096 8.08 7.79 16.351t6.977 16.714q3.283 8.442 6.149 17.035t5.305 17.317 4.45 17.557 3.582 17.753 2.707 17.908 1.826 18.02.938 18.087.05 18.111-.838 18.092-1.725 18.029-2.608 17.923-3.484 17.773-4.352 17.58-5.21 17.347q-2.817 8.609-6.054 17.07t-6.884 16.751-7.699 16.394q-4.05 8.103-8.493 15.997t-9.268 15.56-10.02 15.087-10.749 14.577-11.45 14.032q-5.899 6.876-12.126 13.454-6.228 6.577-12.772 12.842-4.861 4.654-9.89 9.128-5.027 4.474-10.215 8.762t-10.53 8.383-10.827 7.994q-5.486 3.898-11.111 7.594-5.626 3.695-11.382 7.183t-11.635 6.764-11.875 6.334-12.098 5.898q-6.102 2.838-12.305 5.452t-12.495 5-12.67 4.541-12.826 4.076-12.967 3.606q-6.516 1.684-13.09 3.13t-13.194 2.65q-6.622 1.206-13.283 2.169-6.662.963-13.353 1.682-6.692.72-13.406 1.194-6.714.475-13.44.704-6.727.23-13.457.214t-13.456-.277-13.437-.768-13.4-1.257-13.345-1.745-13.272-2.23-13.183-2.713-13.074-3.192-12.95-3.667-12.807-4.136-12.648-4.6-12.472-5.06q-8.33-3.557-16.477-7.52-8.146-3.961-16.088-8.318-7.941-4.357-15.66-9.098t-15.195-9.856q-7.477-5.114-14.693-10.589-7.217-5.475-14.156-11.297t-13.585-11.979-12.98-12.63-12.345-13.253-11.68-13.842-10.987-14.398-10.267-14.92-9.522-15.407-8.755-15.854-7.967-16.266-7.158-16.636q-3.376-8.406-6.334-16.968-2.96-8.562-5.494-17.258-2.535-8.697-4.64-17.507-2.106-8.81-3.776-17.713t-2.902-17.878q-1.231-8.974-2.021-17.998t-1.136-18.076-.247-18.11.641-18.1 1.53-18.047 2.412-17.95q1.426-8.945 3.29-17.81t4.16-17.627q2.297-8.762 5.02-17.401 2.725-8.64 5.869-17.135t6.702-16.826q2.643-6.19 5.51-12.279t5.954-12.07 6.391-11.844 6.818-11.604 7.237-11.347 7.646-11.076 8.045-10.79 8.433-10.489 8.81-10.175 9.174-9.846 9.528-9.506 9.869-9.152q5.017-4.485 10.195-8.785t10.509-8.408q5.331-4.109 10.809-8.02t11.094-7.62q5.616-3.708 11.364-7.21t11.62-6.79q5.872-3.29 11.86-6.363t12.083-5.926 12.292-5.482 12.484-5.03q6.287-2.4 12.658-4.57t12.817-4.106 12.959-3.636 13.082-3.161q6.57-1.462 13.188-2.682 6.62-1.221 13.278-2.2 6.66-.978 13.35-1.713t13.402-1.226 13.439-.736Q393.27 1 400 1v369z"/><path fill="none" stroke="#fff" stroke-linejoin="bevel" stroke-width="2" d="M666.54 114.82q6.265 6.543 12.2 13.386 5.937 6.842 11.53 13.968t10.829 14.517q5.236 7.392 10.103 15.031 4.868 7.64 9.355 15.51 4.486 7.868 8.581 15.948 4.096 8.08 7.79 16.351t6.977 16.714q3.283 8.442 6.149 17.035t5.305 17.317 4.45 17.557 3.582 17.753 2.707 17.908 1.826 18.02.938 18.087.05 18.111-.838 18.092-1.725 18.029-2.608 17.923-3.484 17.773-4.352 17.58-5.21 17.347q-2.817 8.609-6.054 17.07t-6.884 16.751-7.699 16.394q-4.05 8.103-8.493 15.997t-9.268 15.56-10.02 15.087-10.749 14.577-11.45 14.032q-5.899 6.876-12.126 13.454-6.228 6.577-12.772 12.842-4.861 4.654-9.89 9.128-5.027 4.474-10.215 8.762t-10.53 8.383-10.827 7.994q-5.486 3.898-11.111 7.594-5.626 3.695-11.382 7.183t-11.635 6.764-11.875 6.334-12.098 5.898q-6.102 2.838-12.305 5.452t-12.495 5-12.67 4.541-12.826 4.076-12.967 3.606q-6.516 1.684-13.09 3.13t-13.194 2.65q-6.622 1.206-13.283 2.169-6.662.963-13.353 1.682-6.692.72-13.406 1.194-6.714.475-13.44.704-6.727.23-13.457.214t-13.456-.277-13.437-.768-13.4-1.257-13.345-1.745-13.272-2.23-13.183-2.713-13.074-3.192-12.95-3.667-12.807-4.136-12.648-4.6-12.472-5.06q-8.33-3.557-16.477-7.52-8.146-3.961-16.088-8.318-7.941-4.357-15.66-9.098t-15.195-9.856q-7.477-5.114-14.693-10.589-7.217-5.475-14.156-11.297t-13.585-11.979-12.98-12.63-12.345-13.253-11.68-13.842-10.987-14.398-10.267-14.92-9.522-15.407-8.755-15.854-7.967-16.266-7.158-16.636q-3.376-8.406-6.334-16.968-2.96-8.562-5.494-17.258-2.535-8.697-4.64-17.507-2.106-8.81-3.776-17.713t-2.902-17.878q-1.231-8.974-2.021-17.998t-1.136-18.076-.247-18.11.641-18.1 1.53-18.047 2.412-17.95q1.426-8.945 3.29-17.81t4.16-17.627q2.297-8.762 5.02-17.401 2.725-8.64 5.869-17.135t6.702-16.826q2.643-6.19 5.51-12.279t5.954-12.07 6.391-11.844 6.818-11.604 7.237-11.347 7.646-11.076 8.045-10.79 8.433-10.489 8.81-10.175 9.174-9.846 9.528-9.506 9.869-9.152q5.017-4.485 10.195-8.785t10.509-8.408q5.331-4.109 10.809-8.02t11.094-7.62q5.616-3.708 11.364-7.21t11.62-6.79q5.872-3.29 11.86-6.363t12.083-5.926 12.292-5.482 12.484-5.03q6.287-2.4 12.658-4.57t12.817-4.106 12.959-3.636 13.082-3.161q6.57-1.462 13.188-2.682 6.62-1.221 13.278-2.2 6.66-.978 13.35-1.713t13.402-1.226 13.439-.736Q393.27 1 400 1v369l266.54-255.18Z"/></svg>