<svg xmlns="http://www.w3.org/2000/svg" width="800" height="800"><path fill="none" d="M0 0h800v800H0z"/><clipPath id="a"><path d="M0 690h800v110H0z"/></clipPath><g clip-path="url(#a)"><path fill="#4caf50" d="M123.3 720h40v20h-40z"/><path fill="none" stroke="#fff" stroke-miterlimit="10" stroke-width="2" d="M123.3 720h40v20h-40z"/><path fill="#ff9800" d="M377.64 720h40v20h-40z"/><path fill="none" stroke="#fff" stroke-miterlimit="10" stroke-width="2" d="M377.64 720h40v20h-40z"/><path fill="#f44336" d="M262.92 770h40v20h-40z"/><path fill="none" stroke="#fff" stroke-miterlimit="10" stroke-width="2" d="M262.92 770h40v20h-40z"/></g><path fill="#4caf50" d="M400 1q8.266 0 16.523.397t16.484 1.19 16.409 1.98 16.294 2.767q8.114 1.58 16.143 3.546 8.028 1.967 15.953 4.317t15.728 5.078T529 26.103t15.168 6.564 14.835 7.285 14.468 7.99q7.139 4.168 14.068 8.675 6.93 4.506 13.635 9.34t13.17 9.985 12.676 10.605 12.152 11.203L400 345z"/><path fill="none" stroke="#fff" stroke-linejoin="bevel" stroke-width="2" d="M400 1q8.266 0 16.523.397t16.484 1.19 16.409 1.98 16.294 2.767q8.114 1.58 16.143 3.546 8.028 1.967 15.953 4.317t15.728 5.078T529 26.103t15.168 6.564 14.835 7.285 14.468 7.99q7.139 4.168 14.068 8.675 6.93 4.506 13.635 9.34t13.17 9.985 12.676 10.605 12.152 11.203L400 345z"/><path fill="#ff9800" d="M639.172 97.75q16.552 16.01 30.822 34.085t26.003 37.888L400 345z"/><path fill="none" stroke="#fff" stroke-linejoin="bevel" stroke-width="2" d="M639.172 97.75q16.552 16.01 30.822 34.085t26.003 37.888L400 345 639.172 97.75Z"/><path fill="#f44336" d="M695.997 169.723q4.303 7.266 8.244 14.735t7.51 15.122 6.76 15.472 5.993 15.785 5.21 16.06q2.41 8.094 4.417 16.297 2.009 8.202 3.612 16.493 1.603 8.292 2.798 16.651 1.194 8.36 1.977 16.769t1.153 16.845.324 16.88-.504 16.878-1.332 16.831-2.156 16.747-2.975 16.62q-1.692 8.273-3.787 16.454-2.096 8.18-4.59 16.248-2.495 8.068-5.382 16.004t-6.16 15.72-6.925 15.4-7.671 15.04q-4.02 7.427-8.4 14.647t-9.11 14.216-9.795 13.753-10.459 13.255-11.096 12.726-11.708 12.166-12.29 11.577-12.844 10.96-13.365 10.317q-6.81 4.995-13.856 9.649t-14.313 8.957q-4.87 2.883-9.83 5.605-4.962 2.721-10.01 5.278-5.049 2.557-10.178 4.947t-10.335 4.609-10.481 4.266q-5.276 2.048-10.616 3.92t-10.739 3.568q-5.398 1.696-10.85 3.213t-10.95 2.855q-5.499 1.337-11.039 2.493t-11.114 2.128-11.178 1.762-11.23 1.393-11.27 1.023-11.297.651-11.313.28-11.316-.092-11.306-.465-11.286-.836q-5.635-.511-11.251-1.207t-11.206-1.577-11.148-1.944-11.078-2.31-10.996-2.672-10.902-3.034-10.796-3.39q-5.37-1.784-10.68-3.743-5.308-1.96-10.55-4.093-5.241-2.133-10.41-4.437-5.168-2.304-10.258-4.777t-10.096-5.112q-5.005-2.64-9.922-5.442-7.336-4.182-14.459-8.719t-14.013-9.417q-6.892-4.881-13.535-10.095-6.644-5.213-13.023-10.746-6.38-5.532-12.48-11.372t-11.908-11.97q-5.807-6.132-11.305-12.541-5.5-6.41-10.677-13.08-5.178-6.672-10.022-13.589t-9.343-14.064q-4.499-7.146-8.641-14.505t-7.92-14.912-7.178-15.282-6.42-15.616-5.646-15.913q-2.628-8.025-4.858-16.17t-4.06-16.39q-1.827-8.244-3.249-16.568T58.476 386.2t-1.61-16.808q-.599-8.423-.784-16.866-.184-8.443.045-16.884.23-8.442.874-16.862.643-8.42 1.7-16.799 1.055-8.378 2.521-16.695t3.338-16.55q1.873-8.235 4.147-16.368t4.944-16.144q2.67-8.012 5.73-15.882 3.06-7.871 6.503-15.582t7.26-15.244 7.999-14.87q2.802-4.916 5.765-9.737 2.962-4.822 6.082-9.543t6.392-9.338 6.697-9.122 6.992-8.897 7.282-8.662 7.562-8.418 7.836-8.165 8.1-7.903q4.114-3.884 8.355-7.632 4.24-3.747 8.601-7.353t8.84-7.066 9.066-6.771 9.284-6.47 9.492-6.16 9.69-5.846 9.876-5.523 10.053-5.196q5.07-2.515 10.219-4.862t10.373-4.523q5.223-2.177 10.516-4.18 5.292-2.004 10.647-3.832t10.768-3.48q5.413-1.65 10.877-3.122 5.464-1.473 10.973-2.764 5.51-1.292 11.059-2.402t11.131-2.036 11.193-1.669 11.241-1.3 11.278-.93 11.302-.558T400 1v344z"/><path fill="none" stroke="#fff" stroke-linejoin="bevel" stroke-width="2" d="M695.997 169.723q4.303 7.266 8.244 14.735t7.51 15.122 6.76 15.472 5.993 15.785 5.21 16.06q2.41 8.094 4.417 16.297 2.009 8.202 3.612 16.493 1.603 8.292 2.798 16.651 1.194 8.36 1.977 16.769t1.153 16.845.324 16.88-.504 16.878-1.332 16.831-2.156 16.747-2.975 16.62q-1.692 8.273-3.787 16.454-2.096 8.18-4.59 16.248-2.495 8.068-5.382 16.004t-6.16 15.72-6.925 15.4-7.671 15.04q-4.02 7.427-8.4 14.647t-9.11 14.216-9.795 13.753-10.459 13.255-11.096 12.726-11.708 12.166-12.29 11.577-12.844 10.96-13.365 10.317q-6.81 4.995-13.856 9.649t-14.313 8.957q-4.87 2.883-9.83 5.605-4.962 2.721-10.01 5.278-5.049 2.557-10.178 4.947t-10.335 4.609-10.481 4.266q-5.276 2.048-10.616 3.92t-10.739 3.568q-5.398 1.696-10.85 3.213t-10.95 2.855q-5.499 1.337-11.039 2.493t-11.114 2.128-11.178 1.762-11.23 1.393-11.27 1.023-11.297.651-11.313.28-11.316-.092-11.306-.465-11.286-.836q-5.635-.511-11.251-1.207t-11.206-1.577-11.148-1.944-11.078-2.31-10.996-2.672-10.902-3.034-10.796-3.39q-5.37-1.784-10.68-3.743-5.308-1.96-10.55-4.093-5.241-2.133-10.41-4.437-5.168-2.304-10.258-4.777t-10.096-5.112q-5.005-2.64-9.922-5.442-7.336-4.182-14.459-8.719t-14.013-9.417q-6.892-4.881-13.535-10.095-6.644-5.213-13.023-10.746-6.38-5.532-12.48-11.372t-11.908-11.97q-5.807-6.132-11.305-12.541-5.5-6.41-10.677-13.08-5.178-6.672-10.022-13.589t-9.343-14.064q-4.499-7.146-8.641-14.505t-7.92-14.912-7.178-15.282-6.42-15.616-5.646-15.913q-2.628-8.025-4.858-16.17t-4.06-16.39q-1.827-8.244-3.249-16.568T58.476 386.2t-1.61-16.808q-.599-8.423-.784-16.866-.184-8.443.045-16.884.23-8.442.874-16.862.643-8.42 1.7-16.799 1.055-8.378 2.521-16.695t3.338-16.55q1.873-8.235 4.147-16.368t4.944-16.144q2.67-8.012 5.73-15.882 3.06-7.871 6.503-15.582t7.26-15.244 7.999-14.87q2.802-4.916 5.765-9.737 2.962-4.822 6.082-9.543t6.392-9.338 6.697-9.122 6.992-8.897 7.282-8.662 7.562-8.418 7.836-8.165 8.1-7.903q4.114-3.884 8.355-7.632 4.24-3.747 8.601-7.353t8.84-7.066 9.066-6.771 9.284-6.47 9.492-6.16 9.69-5.846 9.876-5.523 10.053-5.196q5.07-2.515 10.219-4.862t10.373-4.523q5.223-2.177 10.516-4.18 5.292-2.004 10.647-3.832t10.768-3.48q5.413-1.65 10.877-3.122 5.464-1.473 10.973-2.764 5.51-1.292 11.059-2.402t11.131-2.036 11.193-1.669 11.241-1.3 11.278-.93 11.302-.558T400 1v344l295.997-175.277Z"/></svg>