<svg xmlns="http://www.w3.org/2000/svg" width="800" height="800"><path fill="none" d="M0 0h800v800H0z"/><clipPath id="a"><path d="M0 740h800v60H0z"/></clipPath><g clip-path="url(#a)"><path fill="#4caf50" d="M144.605 770h40v20h-40z"/><path fill="none" stroke="#fff" stroke-miterlimit="10" stroke-width="2" d="M144.605 770h40v20h-40z"/><text x="194.605, 207.94484, 217.50539, 230.38625, 240.64992, 248.68703, 260.52295," y="787.5," fill="#666" font-family="DejaVu Serif" font-size="20">Trusted</text><path fill="#ff9800" d="M303.325 770h40v20h-40z"/><path fill="none" stroke="#fff" stroke-miterlimit="10" stroke-width="2" d="M303.325 770h40v20h-40z"/><text x="353.32501, 366.78204, 376.34259, 388.38361, 399.68243, 411.51837, 424.39923, 436.32306, 449.20392, 460.40509," y="787.5," fill="#666" font-family="DejaVu Serif" font-size="20">Provenance</text><path fill="#f44336" d="M502.245 770h40v20h-40z"/><path fill="none" stroke="#fff" stroke-miterlimit="10" stroke-width="2" d="M502.245 770h40v20h-40z"/><text x="552.245, 569.10046, 581.98132, 590.01843, 599.57898, 612.45984, 622.72351, 630.76062, 642.59656," y="787.5," fill="#666" font-family="DejaVu Serif" font-size="20">Untrusted</text></g><path fill="#4caf50" d="M400 1q12.162 0 24.297.8 12.135.802 24.192 2.4 12.056 1.598 23.98 3.986 11.926 2.389 23.668 5.557t23.249 7.104 22.731 8.619q11.224 4.684 22.115 10.096 10.89 5.413 21.401 11.532L400 370z"/><path fill="none" stroke="#fff" stroke-linejoin="bevel" stroke-width="2" d="M400 1q12.162 0 24.297.8 12.135.802 24.192 2.4 12.056 1.598 23.98 3.986 11.926 2.389 23.668 5.557t23.249 7.104 22.731 8.619q11.224 4.684 22.115 10.096 10.89 5.413 21.401 11.532L400 370z"/><path fill="#ff9800" d="M585.633 51.094q13.137 7.646 25.6 16.348t24.17 18.398 22.573 20.324 20.826 22.112L400 370z"/><path fill="none" stroke="#fff" stroke-linejoin="bevel" stroke-width="2" d="M585.633 51.094q13.137 7.646 25.6 16.348t24.17 18.398 22.573 20.324 20.826 22.112L400 370 585.633 51.094Z"/><path fill="#f44336" d="M678.802 128.276q5.934 6.844 11.525 13.971 5.591 7.128 10.826 14.52 5.234 7.393 10.1 15.034t9.35 15.511 8.578 15.952 7.785 16.353 6.973 16.715 6.144 17.037 5.301 17.318 4.445 17.558 3.578 17.754 2.703 17.909 1.82 18.02.935 18.087.045 18.111-.843 18.092-1.73 18.029-2.612 17.922-3.488 17.772-4.357 17.58-5.214 17.345-6.058 17.068-6.889 16.75-7.702 16.392-8.498 15.994-9.272 15.558-10.024 15.085-10.752 14.574-11.455 14.03-12.129 13.45-12.774 12.838-13.39 12.197q-4.977 4.316-10.106 8.451t-10.401 8.085-10.684 7.709q-5.41 3.758-10.952 7.322t-11.206 6.926q-5.665 3.364-11.447 6.522-5.781 3.16-11.672 6.11-5.89 2.95-11.882 5.689-5.993 2.738-12.079 5.26-6.086 2.523-12.258 4.827t-12.423 4.386-12.571 3.94-12.704 3.488q-6.383 1.63-12.82 3.033-6.438 1.401-12.92 2.573-6.484 1.17-13.005 2.11-6.52.939-13.071 1.645-6.55.705-13.122 1.176-6.571.472-13.155.708-6.584.237-13.172.238t-13.172-.232-13.156-.703-13.122-1.172-13.072-1.64q-6.52-.936-13.004-2.104t-12.922-2.568q-6.438-1.4-12.822-3.028t-12.705-3.483-12.573-3.935q-6.251-2.08-12.425-4.38-6.173-2.302-12.26-4.822t-12.08-5.257q-8.24-3.762-16.286-7.923-8.046-4.162-15.878-8.713-7.832-4.552-15.431-9.482-7.6-4.93-14.948-10.227t-14.427-10.949-13.873-11.643q-6.794-5.992-13.285-12.31t-12.665-12.947-12.014-13.553-11.335-14.126-10.628-14.665-9.896-15.169-9.14-15.636-8.36-16.066-7.564-16.457q-3.58-8.321-6.746-16.808t-5.913-17.119-5.067-17.388-4.207-17.616-3.337-17.802-2.46-17.943-1.577-18.043-.69-18.098q-.122-9.058.2-18.11.322-9.053 1.088-18.08.766-9.025 1.974-18.003t2.854-17.885 3.73-17.723 4.593-17.52T50.92 250.4t6.289-16.984 7.115-16.656q2.736-5.993 5.684-11.885t6.105-11.674 6.517-11.45 6.922-11.208 7.318-10.955 7.704-10.687 8.081-10.405 8.447-10.11 8.803-9.801 9.147-9.482 9.48-9.148q4.82-4.49 9.8-8.805 4.978-4.315 10.107-8.449 5.13-4.134 10.404-8.083 5.273-3.948 10.685-7.706 5.411-3.758 10.953-7.32t11.208-6.925 11.448-6.52 11.673-6.106 11.884-5.687q5.992-2.737 12.079-5.259 6.087-2.521 12.26-4.824 6.172-2.302 12.423-4.383 6.25-2.08 12.572-3.937t12.705-3.486q6.383-1.63 12.82-3.03t12.922-2.57 13.004-2.108 13.072-1.642 13.122-1.175q6.57-.47 13.155-.705T400 1v369z"/><path fill="none" stroke="#fff" stroke-linejoin="bevel" stroke-width="2" d="M678.802 128.276q5.934 6.844 11.525 13.971 5.591 7.128 10.826 14.52 5.234 7.393 10.1 15.034t9.35 15.511 8.578 15.952 7.785 16.353 6.973 16.715 6.144 17.037 5.301 17.318 4.445 17.558 3.578 17.754 2.703 17.909 1.82 18.02.935 18.087.045 18.111-.843 18.092-1.73 18.029-2.612 17.922-3.488 17.772-4.357 17.58-5.214 17.345-6.058 17.068-6.889 16.75-7.702 16.392-8.498 15.994-9.272 15.558-10.024 15.085-10.752 14.574-11.455 14.03-12.129 13.45-12.774 12.838-13.39 12.197q-4.977 4.316-10.106 8.451t-10.401 8.085-10.684 7.709q-5.41 3.758-10.952 7.322t-11.206 6.926q-5.665 3.364-11.447 6.522-5.781 3.16-11.672 6.11-5.89 2.95-11.882 5.689-5.993 2.738-12.079 5.26-6.086 2.523-12.258 4.827t-12.423 4.386-12.571 3.94-12.704 3.488q-6.383 1.63-12.82 3.033-6.438 1.401-12.92 2.573-6.484 1.17-13.005 2.11-6.52.939-13.071 1.645-6.55.705-13.122 1.176-6.571.472-13.155.708-6.584.237-13.172.238t-13.172-.232-13.156-.703-13.122-1.172-13.072-1.64q-6.52-.936-13.004-2.104t-12.922-2.568q-6.438-1.4-12.822-3.028t-12.705-3.483-12.573-3.935q-6.251-2.08-12.425-4.38-6.173-2.302-12.26-4.822t-12.08-5.257q-8.24-3.762-16.286-7.923-8.046-4.162-15.878-8.713-7.832-4.552-15.431-9.482-7.6-4.93-14.948-10.227t-14.427-10.949-13.873-11.643q-6.794-5.992-13.285-12.31t-12.665-12.947-12.014-13.553-11.335-14.126-10.628-14.665-9.896-15.169-9.14-15.636-8.36-16.066-7.564-16.457q-3.58-8.321-6.746-16.808t-5.913-17.119-5.067-17.388-4.207-17.616-3.337-17.802-2.46-17.943-1.577-18.043-.69-18.098q-.122-9.058.2-18.11.322-9.053 1.088-18.08.766-9.025 1.974-18.003t2.854-17.885 3.73-17.723 4.593-17.52T50.92 250.4t6.289-16.984 7.115-16.656q2.736-5.993 5.684-11.885t6.105-11.674 6.517-11.45 6.922-11.208 7.318-10.955 7.704-10.687 8.081-10.405 8.447-10.11 8.803-9.801 9.147-9.482 9.48-9.148q4.82-4.49 9.8-8.805 4.978-4.315 10.107-8.449 5.13-4.134 10.404-8.083 5.273-3.948 10.685-7.706 5.411-3.758 10.953-7.32t11.208-6.925 11.448-6.52 11.673-6.106 11.884-5.687q5.992-2.737 12.079-5.259 6.087-2.521 12.26-4.824 6.172-2.302 12.423-4.383 6.25-2.08 12.572-3.937t12.705-3.486q6.383-1.63 12.82-3.03t12.922-2.57 13.004-2.108 13.072-1.642 13.122-1.175q6.57-.47 13.155-.705T400 1v369l278.802-241.724Z"/></svg>