<svg xmlns="http://www.w3.org/2000/svg" width="800" height="800"><path fill="none" d="M0 0h800v800H0z"/><clipPath id="a"><path d="M0 690h800v110H0z"/></clipPath><g clip-path="url(#a)"><path fill="#4caf50" d="M123.3 720h40v20h-40z"/><path fill="none" stroke="#fff" stroke-miterlimit="10" stroke-width="2" d="M123.3 720h40v20h-40z"/><path fill="#ff9800" d="M377.64 720h40v20h-40z"/><path fill="none" stroke="#fff" stroke-miterlimit="10" stroke-width="2" d="M377.64 720h40v20h-40z"/><path fill="#f44336" d="M262.92 770h40v20h-40z"/><path fill="none" stroke="#fff" stroke-miterlimit="10" stroke-width="2" d="M262.92 770h40v20h-40z"/></g><path fill="#4caf50" d="M400 1q4.708 0 9.415.129t9.408.386q4.7.258 9.393.644t9.373.9q4.68.515 9.344 1.158t9.31 1.412 9.267 1.666 9.218 1.92q4.595 1.022 9.162 2.17 4.566 1.149 9.099 2.422 4.533 1.272 9.03 2.669 4.496 1.396 8.952 2.915 4.457 1.519 8.87 3.159 4.414 1.64 8.78 3.4 4.367 1.761 8.684 3.64t8.581 3.876 8.472 4.11 8.356 4.34 8.234 4.566 8.106 4.79 7.972 5.011 7.832 5.227 7.685 5.44 7.534 5.647 7.377 5.851q3.648 2.977 7.214 6.052 3.565 3.075 7.045 6.246t6.872 6.437 6.693 6.623 6.51 6.803 6.32 6.979 6.127 7.15L400 345z"/><path fill="none" stroke="#fff" stroke-linejoin="bevel" stroke-width="2" d="M400 1q4.708 0 9.415.129t9.408.386q4.7.258 9.393.644t9.373.9q4.68.515 9.344 1.158t9.31 1.412 9.267 1.666 9.218 1.92q4.595 1.022 9.162 2.17 4.566 1.149 9.099 2.422 4.533 1.272 9.03 2.669 4.496 1.396 8.952 2.915 4.457 1.519 8.87 3.159 4.414 1.64 8.78 3.4 4.367 1.761 8.684 3.64t8.581 3.876 8.472 4.11 8.356 4.34 8.234 4.566 8.106 4.79 7.972 5.011 7.832 5.227 7.685 5.44 7.534 5.647 7.377 5.851q3.648 2.977 7.214 6.052 3.565 3.075 7.045 6.246t6.872 6.437 6.693 6.623 6.51 6.803 6.32 6.979 6.127 7.15L400 345z"/><path fill="#ff9800" d="M664.235 124.737q13.696 16.43 25.25 34.43t20.791 37.291L400 345z"/><path fill="none" stroke="#fff" stroke-linejoin="bevel" stroke-width="2" d="M664.235 124.737q13.696 16.43 25.25 34.43t20.791 37.291L400 345l264.235-220.263Z"/><path fill="#f44336" d="M710.276 196.459q3.647 7.617 6.915 15.403t6.15 15.724 5.373 16.007 4.58 16.252 3.776 16.456q1.687 8.275 2.965 16.622 1.279 8.348 2.146 16.748t1.321 16.832.494 16.877q.04 8.445-.335 16.881-.374 8.437-1.163 16.845-.788 8.408-1.988 16.767t-2.808 16.649-3.621 16.491-4.427 16.294-5.22 16.057-6.003 15.781-6.77 15.468-7.52 15.117-8.253 14.73-8.966 14.307-9.657 13.85-10.325 13.36-10.968 12.837-11.585 12.283-12.173 11.7-12.733 11.088-13.262 10.45-13.758 9.788-14.222 9.1-14.652 8.391-15.046 7.662q-4.89 2.342-9.852 4.528-4.961 2.186-9.99 4.214-5.028 2.029-10.117 3.898t-10.236 3.576-10.343 3.253-10.44 2.924-10.528 2.595-10.604 2.26-10.67 1.927-10.726 1.588-10.77 1.25-10.804.91-10.828.569-10.84.227-10.842-.114-10.833-.456-10.813-.797-10.783-1.138-10.741-1.477-10.69-1.814q-5.33-.992-10.627-2.15-5.296-1.16-10.554-2.485-5.257-1.325-10.47-2.816t-10.377-3.144-10.272-3.47-10.158-3.792-10.033-4.11-9.9-4.424-9.754-4.734-9.6-5.04-9.437-5.338-9.264-5.634q-7.145-4.501-14.06-9.347-6.916-4.847-13.586-10.026-6.67-5.18-13.077-10.681t-12.537-11.31-11.967-11.91-11.368-12.484-10.742-13.027-10.09-13.538q-4.879-6.892-9.414-14.016-4.534-7.124-8.714-14.462t-7.994-14.872q-3.815-7.534-7.255-15.246t-6.498-15.584-5.726-15.884-4.94-16.146q-2.27-8.133-4.14-16.368-1.87-8.236-3.333-16.552-1.463-8.317-2.517-16.696t-1.694-16.8-.869-16.861-.04-16.885.79-16.866q.6-8.423 1.615-16.807 1.014-8.383 2.438-16.707t3.255-16.568 4.064-16.388 4.863-16.168 5.65-15.911q3.022-7.886 6.426-15.614t7.183-15.28q3.779-7.553 7.924-14.91t8.646-14.503q2.89-4.587 5.923-9.081t6.206-8.89q3.173-4.397 6.484-8.691t6.754-8.482 7.018-8.265 7.274-8.04q3.701-3.962 7.525-7.806t7.767-7.565q3.943-3.722 8.002-7.317 4.058-3.595 8.228-7.061t8.446-6.798 8.657-6.529 8.858-6.252 9.05-5.97 9.235-5.682q4.662-2.769 9.41-5.389 4.746-2.62 9.573-5.089t9.73-4.784 9.875-4.476 10.012-4.162q5.039-2.003 10.138-3.845t10.254-3.523 10.36-3.199 10.456-2.87 10.54-2.54 10.617-2.205 10.68-1.87q5.354-.852 10.733-1.533 5.379-.682 10.777-1.194t10.809-.854q5.41-.341 10.83-.512T400 1v344z"/><path fill="none" stroke="#fff" stroke-linejoin="bevel" stroke-width="2" d="M710.276 196.459q3.647 7.617 6.915 15.403t6.15 15.724 5.373 16.007 4.58 16.252 3.776 16.456q1.687 8.275 2.965 16.622 1.279 8.348 2.146 16.748t1.321 16.832.494 16.877q.04 8.445-.335 16.881-.374 8.437-1.163 16.845-.788 8.408-1.988 16.767t-2.808 16.649-3.621 16.491-4.427 16.294-5.22 16.057-6.003 15.781-6.77 15.468-7.52 15.117-8.253 14.73-8.966 14.307-9.657 13.85-10.325 13.36-10.968 12.837-11.585 12.283-12.173 11.7-12.733 11.088-13.262 10.45-13.758 9.788-14.222 9.1-14.652 8.391-15.046 7.662q-4.89 2.342-9.852 4.528-4.961 2.186-9.99 4.214-5.028 2.029-10.117 3.898t-10.236 3.576-10.343 3.253-10.44 2.924-10.528 2.595-10.604 2.26-10.67 1.927-10.726 1.588-10.77 1.25-10.804.91-10.828.569-10.84.227-10.842-.114-10.833-.456-10.813-.797-10.783-1.138-10.741-1.477-10.69-1.814q-5.33-.992-10.627-2.15-5.296-1.16-10.554-2.485-5.257-1.325-10.47-2.816t-10.377-3.144-10.272-3.47-10.158-3.792-10.033-4.11-9.9-4.424-9.754-4.734-9.6-5.04-9.437-5.338-9.264-5.634q-7.145-4.501-14.06-9.347-6.916-4.847-13.586-10.026-6.67-5.18-13.077-10.681t-12.537-11.31-11.967-11.91-11.368-12.484-10.742-13.027-10.09-13.538q-4.879-6.892-9.414-14.016-4.534-7.124-8.714-14.462t-7.994-14.872q-3.815-7.534-7.255-15.246t-6.498-15.584-5.726-15.884-4.94-16.146q-2.27-8.133-4.14-16.368-1.87-8.236-3.333-16.552-1.463-8.317-2.517-16.696t-1.694-16.8-.869-16.861-.04-16.885.79-16.866q.6-8.423 1.615-16.807 1.014-8.383 2.438-16.707t3.255-16.568 4.064-16.388 4.863-16.168 5.65-15.911q3.022-7.886 6.426-15.614t7.183-15.28q3.779-7.553 7.924-14.91t8.646-14.503q2.89-4.587 5.923-9.081t6.206-8.89q3.173-4.397 6.484-8.691t6.754-8.482 7.018-8.265 7.274-8.04q3.701-3.962 7.525-7.806t7.767-7.565q3.943-3.722 8.002-7.317 4.058-3.595 8.228-7.061t8.446-6.798 8.657-6.529 8.858-6.252 9.05-5.97 9.235-5.682q4.662-2.769 9.41-5.389 4.746-2.62 9.573-5.089t9.73-4.784 9.875-4.476 10.012-4.162q5.039-2.003 10.138-3.845t10.254-3.523 10.36-3.199 10.456-2.87 10.54-2.54 10.617-2.205 10.68-1.87q5.354-.852 10.733-1.533 5.379-.682 10.777-1.194t10.809-.854q5.41-.341 10.83-.512T400 1v344l310.276-148.541Z"/></svg>