<svg xmlns="http://www.w3.org/2000/svg" width="800" height="800"><path fill="none" d="M0 0h800v800H0z"/><clipPath id="a"><path d="M0 740h800v60H0z"/></clipPath><g clip-path="url(#a)"><path fill="#4caf50" d="M164.745 770h40v20h-40z"/><path fill="none" stroke="#fff" stroke-miterlimit="10" stroke-width="2" d="M164.745 770h40v20h-40z"/><text x="214.745, 226.2196, 232.87976, 244.00281, 254.00281, 259.55945, 270.6825," y="786.5," fill="#666" font-family="Liberation Sans" font-size="20">Trusted</text><path fill="#ff9800" d="M311.805 770h40v20h-40z"/><path fill="none" stroke="#fff" stroke-miterlimit="10" stroke-width="2" d="M311.805 770h40v20h-40z"/><text x="361.80499, 375.14484, 381.80499, 392.92804, 402.92804, 414.05109, 425.17413, 436.29718, 447.42023, 457.42023," y="786.5," fill="#666" font-family="Liberation Sans" font-size="20">Provenance</text><path fill="#f44336" d="M498.545 770h40v20h-40z"/><path fill="none" stroke="#fff" stroke-miterlimit="10" stroke-width="2" d="M498.545 770h40v20h-40z"/><text x="548.54498, 562.98834, 574.11139, 579.66803, 586.32819, 597.45123, 607.45123, 613.00787, 624.13092," y="786.5," fill="#666" font-family="Liberation Sans" font-size="20">Untrusted</text></g><path fill="#4caf50" d="M400 1q5.729 0 11.455.178t11.444.533 11.423.889 11.389 1.242 11.345 1.596 11.29 1.947q5.63 1.06 11.224 2.296t11.147 2.644 11.06 2.989q5.507 1.58 10.962 3.33t10.853 3.67 10.734 4.004 10.605 4.335 10.464 4.663q5.197 2.413 10.315 4.986 5.12 2.572 10.156 5.303t9.985 5.616 9.807 5.923 9.618 6.225q4.76 3.187 9.42 6.52 4.66 3.334 9.213 6.81 4.554 3.476 8.998 7.092t8.773 7.369 8.54 7.637 8.298 7.898 8.05 8.153q3.96 4.138 7.792 8.398t7.528 8.636q3.697 4.377 7.256 8.866t6.978 9.087q3.418 4.597 6.692 9.298 3.274 4.702 6.4 9.503L400 370z"/><path fill="none" stroke="#fff" stroke-linejoin="bevel" stroke-width="2" d="M400 1q5.729 0 11.455.178t11.444.533 11.423.889 11.389 1.242 11.345 1.596 11.29 1.947q5.63 1.06 11.224 2.296t11.147 2.644 11.06 2.989q5.507 1.58 10.962 3.33t10.853 3.67 10.734 4.004 10.605 4.335 10.464 4.663q5.197 2.413 10.315 4.986 5.12 2.572 10.156 5.303t9.985 5.616 9.807 5.923 9.618 6.225q4.76 3.187 9.42 6.52 4.66 3.334 9.213 6.81 4.554 3.476 8.998 7.092t8.773 7.369 8.54 7.637 8.298 7.898 8.05 8.153q3.96 4.138 7.792 8.398t7.528 8.636q3.697 4.377 7.256 8.866t6.978 9.087q3.418 4.597 6.692 9.298 3.274 4.702 6.4 9.503L400 370z"/><path fill="#ff9800" d="M709.214 168.636q10.561 16.217 19.368 33.45t15.762 35.293L400 370z"/><path fill="none" stroke="#fff" stroke-linejoin="bevel" stroke-width="2" d="M709.214 168.636q10.561 16.217 19.368 33.45t15.762 35.293L400 370l309.214-201.364Z"/><path fill="#f44336" d="M744.344 237.378q3.255 8.454 6.092 17.056t5.249 17.335q2.411 8.731 4.391 17.57t3.524 17.766 2.649 17.917q1.104 8.99 1.765 18.025.662 9.034.88 18.09t-.01 18.111-.898 18.09-1.785 18.023-2.667 17.914-3.542 17.761-4.41 17.566-5.267 17.33-6.11 17.049-6.94 16.729-7.752 16.368-8.546 15.969-9.32 15.53-10.07 15.054-10.796 14.541q-5.576 7.138-11.497 13.995-5.92 6.856-12.17 13.413t-12.813 12.8-13.426 12.156-14.006 11.482q-7.145 5.57-14.553 10.782t-15.065 10.054q-7.655 4.842-15.54 9.303-7.883 4.46-15.976 8.53-8.094 4.068-16.377 7.734t-16.736 6.923q-5.216 2.008-10.49 3.858-5.273 1.85-10.6 3.539t-10.703 3.216-10.795 2.89-10.878 2.563q-5.459 1.199-10.951 2.232t-11.013 1.9q-5.521.865-11.066 1.564-5.545.698-11.108 1.229-5.564.53-11.14.892-5.577.361-11.163.554-5.585.192-11.173.216-5.589.023-11.175-.123t-11.167-.46-11.147-.8-11.118-1.135-11.078-1.473-11.03-1.807q-5.5-.987-10.968-2.14t-10.9-2.471-10.819-2.8q-5.388-1.483-10.729-3.127-5.341-1.645-10.63-3.45t-10.52-3.771-10.402-4.087-10.273-4.401-10.135-4.71-9.988-5.014-9.831-5.314-9.666-5.61-9.492-5.9q-4.7-3.022-9.308-6.185-7.468-5.126-14.676-10.613t-14.137-11.321-13.565-12.001-12.96-12.652-12.323-13.273q-5.999-6.787-11.657-13.861t-10.963-14.417-10.242-14.937-9.497-15.421q-4.56-7.828-8.73-15.87-4.169-8.041-7.939-16.278t-7.131-16.648q-3.362-8.412-6.306-16.979t-5.466-17.267q-2.52-8.7-4.611-17.514t-3.747-17.72-2.872-17.882q-1.217-8.976-1.992-18.002t-1.105-18.077-.218-18.11.671-18.1 1.559-18.044q1-9.003 2.442-17.946 1.441-8.943 3.32-17.804 1.878-8.862 4.19-17.62 2.31-8.76 5.048-17.394 2.738-8.635 5.896-17.125t6.73-16.815q3.571-8.324 7.546-16.464t8.346-16.074q4.37-7.935 9.123-15.646 4.754-7.71 9.881-15.178 3.163-4.608 6.464-9.117 3.3-4.51 6.737-8.918 3.436-4.407 7.003-8.708t7.265-8.493q3.696-4.192 7.518-8.27t7.765-8.037q3.944-3.96 8.005-7.798 4.062-3.84 8.238-7.553t8.462-7.3q4.287-3.586 8.68-7.04t8.888-6.774 9.09-6.502q4.595-3.182 9.283-6.223t9.467-5.94q4.778-2.898 9.642-5.65t9.81-5.356 9.966-5.056 10.115-4.752 10.255-4.443q5.16-2.144 10.384-4.13 5.224-1.987 10.505-3.815t10.615-3.495 10.717-3.171 10.807-2.846q5.426-1.34 10.889-2.517t10.96-2.186q5.496-1.01 11.021-1.853t11.072-1.518 11.113-1.183 11.144-.845 11.164-.508T400 1v369z"/><path fill="none" stroke="#fff" stroke-linejoin="bevel" stroke-width="2" d="M744.344 237.378q3.255 8.454 6.092 17.056t5.249 17.335q2.411 8.731 4.391 17.57t3.524 17.766 2.649 17.917q1.104 8.99 1.765 18.025.662 9.034.88 18.09t-.01 18.111-.898 18.09-1.785 18.023-2.667 17.914-3.542 17.761-4.41 17.566-5.267 17.33-6.11 17.049-6.94 16.729-7.752 16.368-8.546 15.969-9.32 15.53-10.07 15.054-10.796 14.541q-5.576 7.138-11.497 13.995-5.92 6.856-12.17 13.413t-12.813 12.8-13.426 12.156-14.006 11.482q-7.145 5.57-14.553 10.782t-15.065 10.054q-7.655 4.842-15.54 9.303-7.883 4.46-15.976 8.53-8.094 4.068-16.377 7.734t-16.736 6.923q-5.216 2.008-10.49 3.858-5.273 1.85-10.6 3.539t-10.703 3.216-10.795 2.89-10.878 2.563q-5.459 1.199-10.951 2.232t-11.013 1.9q-5.521.865-11.066 1.564-5.545.698-11.108 1.229-5.564.53-11.14.892-5.577.361-11.163.554-5.585.192-11.173.216-5.589.023-11.175-.123t-11.167-.46-11.147-.8-11.118-1.135-11.078-1.473-11.03-1.807q-5.5-.987-10.968-2.14t-10.9-2.471-10.819-2.8q-5.388-1.483-10.729-3.127-5.341-1.645-10.63-3.45t-10.52-3.771-10.402-4.087-10.273-4.401-10.135-4.71-9.988-5.014-9.831-5.314-9.666-5.61-9.492-5.9q-4.7-3.022-9.308-6.185-7.468-5.126-14.676-10.613t-14.137-11.321-13.565-12.001-12.96-12.652-12.323-13.273q-5.999-6.787-11.657-13.861t-10.963-14.417-10.242-14.937-9.497-15.421q-4.56-7.828-8.73-15.87-4.169-8.041-7.939-16.278t-7.131-16.648q-3.362-8.412-6.306-16.979t-5.466-17.267q-2.52-8.7-4.611-17.514t-3.747-17.72-2.872-17.882q-1.217-8.976-1.992-18.002t-1.105-18.077-.218-18.11.671-18.1 1.559-18.044q1-9.003 2.442-17.946 1.441-8.943 3.32-17.804 1.878-8.862 4.19-17.62 2.31-8.76 5.048-17.394 2.738-8.635 5.896-17.125t6.73-16.815q3.571-8.324 7.546-16.464t8.346-16.074q4.37-7.935 9.123-15.646 4.754-7.71 9.881-15.178 3.163-4.608 6.464-9.117 3.3-4.51 6.737-8.918 3.436-4.407 7.003-8.708t7.265-8.493q3.696-4.192 7.518-8.27t7.765-8.037q3.944-3.96 8.005-7.798 4.062-3.84 8.238-7.553t8.462-7.3q4.287-3.586 8.68-7.04t8.888-6.774 9.09-6.502q4.595-3.182 9.283-6.223t9.467-5.94q4.778-2.898 9.642-5.65t9.81-5.356 9.966-5.056 10.115-4.752 10.255-4.443q5.16-2.144 10.384-4.13 5.224-1.987 10.505-3.815t10.615-3.495 10.717-3.171 10.807-2.846q5.426-1.34 10.889-2.517t10.96-2.186q5.496-1.01 11.021-1.853t11.072-1.518 11.113-1.183 11.144-.845 11.164-.508T400 1v369l344.344-132.621Z"/></svg>