<svg xmlns="http://www.w3.org/2000/svg" width="800" height="800"><path fill="none" d="M0 0h800v800H0z"/><clipPath id="a"><path d="M0 740h800v60H0z"/></clipPath><g clip-path="url(#a)"><path fill="#4caf50" d="M144.605 770h40v20h-40z"/><path fill="none" stroke="#fff" stroke-miterlimit="10" stroke-width="2" d="M144.605 770h40v20h-40z"/><text x="194.605, 207.94484, 217.50539, 230.38625, 240.64992, 248.68703, 260.52295," y="787.5," fill="#666" font-family="DejaVu Serif" font-size="20">Trusted</text><path fill="#ff9800" d="M303.325 770h40v20h-40z"/><path fill="none" stroke="#fff" stroke-miterlimit="10" stroke-width="2" d="M303.325 770h40v20h-40z"/><text x="353.32501, 366.78204, 376.34259, 388.38361, 399.68243, 411.51837, 424.39923, 436.32306, 449.20392, 460.40509," y="787.5," fill="#666" font-family="DejaVu Serif" font-size="20">Provenance</text><path fill="#f44336" d="M502.245 770h40v20h-40z"/><path fill="none" stroke="#fff" stroke-miterlimit="10" stroke-width="2" d="M502.245 770h40v20h-40z"/><text x="552.245, 569.10046, 581.98132, 590.01843, 599.57898, 612.45984, 622.72351, 630.76062, 642.59656," y="787.5," fill="#666" font-family="DejaVu Serif" font-size="20">Untrusted</text></g><path fill="#4caf50" d="M400 1q8.497 0 16.985.391t16.95 1.173 16.876 1.951 16.77 2.726 16.626 3.496 16.448 4.257 16.234 5.009 15.987 5.751 15.705 6.482q7.777 3.42 15.39 7.197 7.611 3.776 15.042 7.898 7.43 4.122 14.662 8.582t14.253 9.247 13.811 9.895 13.341 10.519 12.843 11.122L400 370z"/><path fill="none" stroke="#fff" stroke-linejoin="bevel" stroke-width="2" d="M400 1q8.497 0 16.985.391t16.95 1.173 16.876 1.951 16.77 2.726 16.626 3.496 16.448 4.257 16.234 5.009 15.987 5.751 15.705 6.482q7.777 3.42 15.39 7.197 7.611 3.776 15.042 7.898 7.43 4.122 14.662 8.582t14.253 9.247 13.811 9.895 13.341 10.519 12.843 11.122L400 370z"/><path fill="#ff9800" d="M647.923 96.696q9.426 8.55 18.24 17.73 8.815 9.18 16.976 18.945t15.63 20.07 14.21 21.099L400 370z"/><path fill="none" stroke="#fff" stroke-linejoin="bevel" stroke-width="2" d="M647.923 96.696q9.426 8.55 18.24 17.73 8.815 9.18 16.976 18.945t15.63 20.07 14.21 21.099L400 370 647.923 96.696Z"/><path fill="#f44336" d="M712.98 174.54q4.798 7.683 9.213 15.592 4.416 7.91 8.438 16.026 4.022 8.117 7.641 16.421 3.62 8.304 6.826 16.776 3.207 8.471 5.995 17.09t5.15 17.364q2.36 8.746 4.29 17.596t3.422 17.785q1.493 8.935 2.545 17.932 1.053 8.997 1.663 18.035t.775 18.095-.113 18.11-1.002 18.085-1.888 18.012-2.77 17.899-3.644 17.74-4.51 17.542-5.366 17.298-6.208 17.014-7.036 16.69q-3.722 8.257-7.845 16.323-4.124 8.066-8.638 15.92t-9.408 15.475-10.156 14.996-10.88 14.48-11.577 13.928-12.247 13.343-12.886 12.726-13.496 12.08q-6.896 5.873-14.072 11.401t-14.614 10.698q-7.439 5.17-15.122 9.968-5.206 3.251-10.518 6.328-5.311 3.076-10.722 5.974t-10.916 5.615-11.096 5.248q-5.591 2.532-11.264 4.877t-11.42 4.499-11.564 4.117-11.695 3.73-11.811 3.339q-5.934 1.57-11.917 2.944t-12.008 2.546-12.085 2.145-12.15 1.743-12.203 1.337q-6.111.567-12.239.93-6.127.364-12.263.523t-12.275.115-12.27-.293-12.256-.702-12.224-1.108q-6.103-.656-12.181-1.515t-12.124-1.919-12.053-2.321-11.97-2.72-11.872-3.118-11.762-3.51-11.638-3.9-11.503-4.285-11.354-4.665-11.192-5.04-11.019-5.41-10.832-5.772q-7.922-4.393-15.62-9.169-7.696-4.776-15.15-9.924-7.453-5.148-14.645-10.656-7.192-5.507-14.105-11.36-6.913-5.855-13.53-12.04-6.618-6.186-12.923-12.69-6.306-6.503-12.286-13.307t-11.617-13.895-10.921-14.448-10.2-14.967-9.453-15.448-8.683-15.895-7.893-16.3-7.084-16.67q-3.337-8.42-6.257-16.995t-5.416-17.283q-2.495-8.708-4.56-17.528-2.066-8.82-3.696-17.73t-2.822-17.89q-1.19-8.98-1.94-18.008-.749-9.027-1.054-18.08-.305-9.054-.165-18.111t.723-18.097 1.61-18.04 2.494-17.939 3.37-17.795 4.24-17.608 5.1-17.379 5.945-17.108q3.182-8.48 6.777-16.795t7.594-16.443q3.999-8.128 8.391-16.05 2.977-5.368 6.13-10.634 3.154-5.267 6.48-10.425t6.824-10.203 7.159-9.971 7.487-9.727 7.806-9.473q3.982-4.672 8.117-9.208t8.418-8.933 8.711-8.648 8.994-8.353 9.267-8.05 9.53-7.737q4.828-3.789 9.78-7.416 4.953-3.626 10.023-7.086t10.253-6.749q5.183-3.29 10.472-6.404 5.289-3.115 10.678-6.053t10.875-5.693 11.057-5.33 11.229-4.958 11.387-4.582 11.534-4.2 11.667-3.816 11.787-3.425 11.895-3.03 11.988-2.634 12.07-2.233 12.138-1.831 12.191-1.426 12.233-1.02 12.259-.612T400 1v369z"/><path fill="none" stroke="#fff" stroke-linejoin="bevel" stroke-width="2" d="M712.98 174.54q4.798 7.683 9.213 15.592 4.416 7.91 8.438 16.026 4.022 8.117 7.641 16.421 3.62 8.304 6.826 16.776 3.207 8.471 5.995 17.09t5.15 17.364q2.36 8.746 4.29 17.596t3.422 17.785q1.493 8.935 2.545 17.932 1.053 8.997 1.663 18.035t.775 18.095-.113 18.11-1.002 18.085-1.888 18.012-2.77 17.899-3.644 17.74-4.51 17.542-5.366 17.298-6.208 17.014-7.036 16.69q-3.722 8.257-7.845 16.323-4.124 8.066-8.638 15.92t-9.408 15.475-10.156 14.996-10.88 14.48-11.577 13.928-12.247 13.343-12.886 12.726-13.496 12.08q-6.896 5.873-14.072 11.401t-14.614 10.698q-7.439 5.17-15.122 9.968-5.206 3.251-10.518 6.328-5.311 3.076-10.722 5.974t-10.916 5.615-11.096 5.248q-5.591 2.532-11.264 4.877t-11.42 4.499-11.564 4.117-11.695 3.73-11.811 3.339q-5.934 1.57-11.917 2.944t-12.008 2.546-12.085 2.145-12.15 1.743-12.203 1.337q-6.111.567-12.239.93-6.127.364-12.263.523t-12.275.115-12.27-.293-12.256-.702-12.224-1.108q-6.103-.656-12.181-1.515t-12.124-1.919-12.053-2.321-11.97-2.72-11.872-3.118-11.762-3.51-11.638-3.9-11.503-4.285-11.354-4.665-11.192-5.04-11.019-5.41-10.832-5.772q-7.922-4.393-15.62-9.169-7.696-4.776-15.15-9.924-7.453-5.148-14.645-10.656-7.192-5.507-14.105-11.36-6.913-5.855-13.53-12.04-6.618-6.186-12.923-12.69-6.306-6.503-12.286-13.307t-11.617-13.895-10.921-14.448-10.2-14.967-9.453-15.448-8.683-15.895-7.893-16.3-7.084-16.67q-3.337-8.42-6.257-16.995t-5.416-17.283q-2.495-8.708-4.56-17.528-2.066-8.82-3.696-17.73t-2.822-17.89q-1.19-8.98-1.94-18.008-.749-9.027-1.054-18.08-.305-9.054-.165-18.111t.723-18.097 1.61-18.04 2.494-17.939 3.37-17.795 4.24-17.608 5.1-17.379 5.945-17.108q3.182-8.48 6.777-16.795t7.594-16.443q3.999-8.128 8.391-16.05 2.977-5.368 6.13-10.634 3.154-5.267 6.48-10.425t6.824-10.203 7.159-9.971 7.487-9.727 7.806-9.473q3.982-4.672 8.117-9.208t8.418-8.933 8.711-8.648 8.994-8.353 9.267-8.05 9.53-7.737q4.828-3.789 9.78-7.416 4.953-3.626 10.023-7.086t10.253-6.749q5.183-3.29 10.472-6.404 5.289-3.115 10.678-6.053t10.875-5.693 11.057-5.33 11.229-4.958 11.387-4.582 11.534-4.2 11.667-3.816 11.787-3.425 11.895-3.03 11.988-2.634 12.07-2.233 12.138-1.831 12.191-1.426 12.233-1.02 12.259-.612T400 1v369l312.98-195.46Z"/></svg>