<svg xmlns="http://www.w3.org/2000/svg" width="800" height="800"><path fill="none" d="M0 0h800v800H0z"/><clipPath id="a"><path d="M0 690h800v110H0z"/></clipPath><g clip-path="url(#a)"><path fill="#4caf50" d="M123.3 720h40v20h-40z"/><path fill="none" stroke="#fff" stroke-miterlimit="10" stroke-width="2" d="M123.3 720h40v20h-40z"/><path fill="#ff9800" d="M377.64 720h40v20h-40z"/><path fill="none" stroke="#fff" stroke-miterlimit="10" stroke-width="2" d="M377.64 720h40v20h-40z"/><path fill="#f44336" d="M262.92 770h40v20h-40z"/><path fill="none" stroke="#fff" stroke-miterlimit="10" stroke-width="2" d="M262.92 770h40v20h-40z"/></g><path fill="#4caf50" d="M400 1q4.822 0 9.641.135 4.82.135 9.634.405t9.619.676 9.596.944 9.566 1.213 9.528 1.48 9.483 1.748 9.43 2.012 9.37 2.276 9.302 2.538q4.634 1.333 9.228 2.797 4.594 1.463 9.146 3.054 4.551 1.592 9.056 3.31 4.505 1.719 8.96 3.563t8.857 3.812 8.747 4.059 8.629 4.302 8.505 4.543 8.375 4.779 8.237 5.012 8.094 5.24 7.944 5.467 7.787 5.686q3.854 2.897 7.625 5.902t7.456 6.114 7.283 6.32 7.102 6.522 6.916 6.718q3.412 3.408 6.726 6.91 3.314 3.501 6.53 7.095 3.214 3.593 6.327 7.275t6.122 7.45L400 345z"/><path fill="none" stroke="#fff" stroke-linejoin="bevel" stroke-width="2" d="M400 1q4.822 0 9.641.135 4.82.135 9.634.405t9.619.676 9.596.944 9.566 1.213 9.528 1.48 9.483 1.748 9.43 2.012 9.37 2.276 9.302 2.538q4.634 1.333 9.228 2.797 4.594 1.463 9.146 3.054 4.551 1.592 9.056 3.31 4.505 1.719 8.96 3.563t8.857 3.812 8.747 4.059 8.629 4.302 8.505 4.543 8.375 4.779 8.237 5.012 8.094 5.24 7.944 5.467 7.787 5.686q3.854 2.897 7.625 5.902t7.456 6.114 7.283 6.32 7.102 6.522 6.916 6.718q3.412 3.408 6.726 6.91 3.314 3.501 6.53 7.095 3.214 3.593 6.327 7.275t6.122 7.45L400 345z"/><path fill="#ff9800" d="M668.82 130.357q13.051 16.345 24.026 34.151t19.71 36.81L400 345z"/><path fill="none" stroke="#fff" stroke-linejoin="bevel" stroke-width="2" d="M668.82 130.357q13.051 16.345 24.026 34.151t19.71 36.81L400 345l268.82-214.642Z"/><path fill="#f44336" d="M712.556 201.318q3.527 7.673 6.674 15.51 3.146 7.836 5.905 15.818 2.758 7.981 5.121 16.089t4.326 16.32q1.962 8.214 3.52 16.514 1.556 8.3 2.705 16.666 1.147 8.366 1.884 16.779t1.058 16.851q.323 8.439.23 16.883-.091 8.444-.598 16.874-.506 8.43-1.425 16.824-.92 8.394-2.25 16.734-1.33 8.339-3.067 16.603t-3.879 16.433-4.68 16.223q-2.54 8.053-5.47 15.973-2.932 7.92-6.249 15.686t-7.01 15.36q-3.693 7.594-7.755 14.998t-8.482 14.6-9.188 14.165-9.872 13.698-10.532 13.197-11.167 12.664-11.775 12.1q-6.036 5.907-12.355 11.51-6.318 5.602-12.904 10.888t-13.423 10.242-13.91 9.57-14.362 8.878-14.78 8.162-15.164 7.426q-4.888 2.247-9.844 4.34t-9.976 4.03q-5.019 1.938-10.096 3.717t-10.207 3.4q-5.13 1.619-10.31 3.077-5.178 1.458-10.4 2.754-5.221 1.296-10.48 2.428t-10.553 2.098-10.612 1.768-10.663 1.435-10.702 1.1-10.731.766-10.75.43-10.758.093-10.756-.244-10.743-.58-10.72-.914-10.686-1.25-10.641-1.584-10.587-1.915-10.522-2.246-10.446-2.574-10.36-2.898-10.266-3.222-10.159-3.541-10.043-3.857-9.918-4.169-9.783-4.477-9.638-4.781-9.484-5.08-9.32-5.374-9.148-5.663q-7.11-4.557-13.987-9.457-6.878-4.9-13.507-10.132t-12.993-10.782-12.449-11.407-11.873-12.004-11.27-12.572q-5.482-6.424-10.641-13.11-5.16-6.685-9.984-13.616-4.825-6.93-9.304-14.09-4.479-7.159-8.601-14.529t-7.878-14.934-7.136-15.302q-3.38-7.74-6.376-15.634-2.996-7.896-5.602-15.928-2.605-8.033-4.813-16.184t-4.013-16.4-3.204-16.578q-1.398-8.329-2.386-16.715-.988-8.387-1.564-16.812-.575-8.425-.736-16.868-.162-8.444.092-16.885.253-8.44.92-16.859.667-8.418 1.747-16.794 1.079-8.375 2.568-16.687t3.384-16.542q1.895-8.23 4.192-16.356 2.296-8.126 4.989-16.13t5.775-15.867 6.546-15.563 7.302-15.224 8.04-14.847 8.76-14.435q2.902-4.53 5.945-8.966t6.224-8.776 6.495-8.576 6.76-8.37q3.446-4.132 7.019-8.154t7.27-7.93 7.514-7.7q3.818-3.79 7.752-7.46t7.981-7.215q4.047-3.545 8.203-6.962t8.417-6.701 8.621-6.435 8.82-6.162 9.007-5.884 9.187-5.599 9.357-5.309 9.52-5.014 9.67-4.713 9.814-4.409 9.947-4.1 10.07-3.786 10.184-3.47 10.287-3.15 10.38-2.827 10.465-2.5 10.537-2.173 10.6-1.841 10.652-1.51q5.338-.67 10.694-1.175 5.356-.504 10.726-.84 5.37-.337 10.747-.505T400 1v344z"/><path fill="none" stroke="#fff" stroke-linejoin="bevel" stroke-width="2" d="M712.556 201.318q3.527 7.673 6.674 15.51 3.146 7.836 5.905 15.818 2.758 7.981 5.121 16.089t4.326 16.32q1.962 8.214 3.52 16.514 1.556 8.3 2.705 16.666 1.147 8.366 1.884 16.779t1.058 16.851q.323 8.439.23 16.883-.091 8.444-.598 16.874-.506 8.43-1.425 16.824-.92 8.394-2.25 16.734-1.33 8.339-3.067 16.603t-3.879 16.433-4.68 16.223q-2.54 8.053-5.47 15.973-2.932 7.92-6.249 15.686t-7.01 15.36q-3.693 7.594-7.755 14.998t-8.482 14.6-9.188 14.165-9.872 13.698-10.532 13.197-11.167 12.664-11.775 12.1q-6.036 5.907-12.355 11.51-6.318 5.602-12.904 10.888t-13.423 10.242-13.91 9.57-14.362 8.878-14.78 8.162-15.164 7.426q-4.888 2.247-9.844 4.34t-9.976 4.03q-5.019 1.938-10.096 3.717t-10.207 3.4q-5.13 1.619-10.31 3.077-5.178 1.458-10.4 2.754-5.221 1.296-10.48 2.428t-10.553 2.098-10.612 1.768-10.663 1.435-10.702 1.1-10.731.766-10.75.43-10.758.093-10.756-.244-10.743-.58-10.72-.914-10.686-1.25-10.641-1.584-10.587-1.915-10.522-2.246-10.446-2.574-10.36-2.898-10.266-3.222-10.159-3.541-10.043-3.857-9.918-4.169-9.783-4.477-9.638-4.781-9.484-5.08-9.32-5.374-9.148-5.663q-7.11-4.557-13.987-9.457-6.878-4.9-13.507-10.132t-12.993-10.782-12.449-11.407-11.873-12.004-11.27-12.572q-5.482-6.424-10.641-13.11-5.16-6.685-9.984-13.616-4.825-6.93-9.304-14.09-4.479-7.159-8.601-14.529t-7.878-14.934-7.136-15.302q-3.38-7.74-6.376-15.634-2.996-7.896-5.602-15.928-2.605-8.033-4.813-16.184t-4.013-16.4-3.204-16.578q-1.398-8.329-2.386-16.715-.988-8.387-1.564-16.812-.575-8.425-.736-16.868-.162-8.444.092-16.885.253-8.44.92-16.859.667-8.418 1.747-16.794 1.079-8.375 2.568-16.687t3.384-16.542q1.895-8.23 4.192-16.356 2.296-8.126 4.989-16.13t5.775-15.867 6.546-15.563 7.302-15.224 8.04-14.847 8.76-14.435q2.902-4.53 5.945-8.966t6.224-8.776 6.495-8.576 6.76-8.37q3.446-4.132 7.019-8.154t7.27-7.93 7.514-7.7q3.818-3.79 7.752-7.46t7.981-7.215q4.047-3.545 8.203-6.962t8.417-6.701 8.621-6.435 8.82-6.162 9.007-5.884 9.187-5.599 9.357-5.309 9.52-5.014 9.67-4.713 9.814-4.409 9.947-4.1 10.07-3.786 10.184-3.47 10.287-3.15 10.38-2.827 10.465-2.5 10.537-2.173 10.6-1.841 10.652-1.51q5.338-.67 10.694-1.175 5.356-.504 10.726-.84 5.37-.337 10.747-.505T400 1v344l312.556-143.682Z"/></svg>