<svg xmlns="http://www.w3.org/2000/svg" width="800" height="800"><path fill="none" d="M0 0h800v800H0z"/><clipPath id="a"><path d="M0 740h800v60H0z"/></clipPath><g clip-path="url(#a)"><path fill="#4caf50" d="M164.745 770h40v20h-40z"/><path fill="none" stroke="#fff" stroke-miterlimit="10" stroke-width="2" d="M164.745 770h40v20h-40z"/><text x="214.745, 226.2196, 232.87976, 244.00281, 254.00281, 259.55945, 270.6825," y="786.5," fill="#666" font-family="Liberation Sans" font-size="20">Trusted</text><path fill="#ff9800" d="M311.805 770h40v20h-40z"/><path fill="none" stroke="#fff" stroke-miterlimit="10" stroke-width="2" d="M311.805 770h40v20h-40z"/><text x="361.80499, 375.14484, 381.80499, 392.92804, 402.92804, 414.05109, 425.17413, 436.29718, 447.42023, 457.42023," y="786.5," fill="#666" font-family="Liberation Sans" font-size="20">Provenance</text><path fill="#f44336" d="M498.545 770h40v20h-40z"/><path fill="none" stroke="#fff" stroke-miterlimit="10" stroke-width="2" d="M498.545 770h40v20h-40z"/><text x="548.54498, 562.98834, 574.11139, 579.66803, 586.32819, 597.45123, 607.45123, 613.00787, 624.13092," y="786.5," fill="#666" font-family="Liberation Sans" font-size="20">Untrusted</text></g><path fill="#4caf50" d="M400 1q5.573 0 11.144.168 5.571.169 11.134.505 5.563.337 11.114.841 5.55.504 11.083 1.176t11.043 1.51 10.992 1.843 10.931 2.175q5.45 1.17 10.86 2.503 5.412 1.334 10.78 2.83 5.37 1.497 10.69 3.155 5.321 1.658 10.59 3.476t10.48 3.794 10.36 4.109 10.232 4.42 10.093 4.727 9.946 5.03 9.79 5.327 9.624 5.62 9.45 5.91 9.268 6.192q4.586 3.165 9.076 6.468 4.489 3.303 8.876 6.74 4.388 3.437 8.67 7.005 4.281 3.568 8.453 7.264 4.172 3.695 8.23 7.515t8 7.76q3.94 3.942 7.761 8 3.82 4.058 7.517 8.23 3.696 4.17 7.264 8.452 3.568 4.281 7.006 8.668 3.437 4.387 6.74 8.876t6.47 9.076L400 370z"/><path fill="none" stroke="#fff" stroke-linejoin="bevel" stroke-width="2" d="M400 1q5.573 0 11.144.168 5.571.169 11.134.505 5.563.337 11.114.841 5.55.504 11.083 1.176t11.043 1.51 10.992 1.843 10.931 2.175q5.45 1.17 10.86 2.503 5.412 1.334 10.78 2.83 5.37 1.497 10.69 3.155 5.321 1.658 10.59 3.476t10.48 3.794 10.36 4.109 10.232 4.42 10.093 4.727 9.946 5.03 9.79 5.327 9.624 5.62 9.45 5.91 9.268 6.192q4.586 3.165 9.076 6.468 4.489 3.303 8.876 6.74 4.388 3.437 8.67 7.005 4.281 3.568 8.453 7.264 4.172 3.695 8.23 7.515t8 7.76q3.94 3.942 7.761 8 3.82 4.058 7.517 8.23 3.696 4.17 7.264 8.452 3.568 4.281 7.006 8.668 3.437 4.387 6.74 8.876t6.47 9.076L400 370z"/><path fill="#ff9800" d="M703.668 160.365q11.349 16.44 20.857 34.009t17.064 36.062L400 370z"/><path fill="none" stroke="#fff" stroke-linejoin="bevel" stroke-width="2" d="M703.668 160.365q11.349 16.44 20.857 34.009t17.064 36.062L400 370l303.667-209.636Z"/><path fill="#f44336" d="M741.589 230.436q3.426 8.385 6.436 16.929t5.599 17.225 4.746 17.478 3.883 17.69 3.01 17.86q1.286 8.966 2.13 17.985.845 9.02 1.246 18.069.4 9.05.357 18.108t-.532 18.104-1.42 18.055-2.303 17.965q-1.373 8.953-3.183 17.83-1.81 8.875-4.053 17.651-2.244 8.776-4.915 17.432t-5.764 17.17-6.6 16.866-7.419 16.522q-3.912 8.17-8.22 16.138-4.31 7.968-9.004 15.715-4.694 7.748-9.763 15.255t-10.5 14.757-11.212 14.224q-5.78 6.975-11.896 13.657-6.115 6.683-12.551 13.057t-13.177 12.425q-6.742 6.05-13.771 11.764-7.03 5.712-14.332 11.073t-14.858 10.358-15.348 9.615-15.801 8.851q-8.01 4.232-16.217 8.065-8.207 3.834-16.593 7.26-5.227 2.135-10.518 4.11-5.29 1.975-10.638 3.787-5.349 1.812-10.75 3.46t-10.85 3.129-10.941 2.795-11.022 2.46-11.091 2.12-11.152 1.781-11.2 1.439-11.24 1.095q-5.627.462-11.267.75-5.64.29-11.285.407t-11.293.06q-5.646-.057-11.288-.286t-11.275-.63-11.25-.976-11.216-1.32q-5.597-.745-11.17-1.661-5.571-.917-11.113-2.003t-11.047-2.342q-5.506-1.256-10.97-2.679t-10.883-3.013-10.786-3.345-10.678-3.674-10.561-3.998-10.434-4.32-10.296-4.637-10.15-4.95-9.994-5.258-9.828-5.561-9.653-5.86-9.47-6.152q-7.52-5.05-14.782-10.464t-14.251-11.178-13.686-11.862-13.087-12.52-12.457-13.148q-6.067-6.726-11.797-13.743-5.73-7.016-11.108-14.304-5.378-7.29-10.393-14.833-5.014-7.544-9.652-15.325-4.639-7.78-8.89-15.78-4.25-8-8.104-16.197-3.853-8.198-7.3-16.575-3.445-8.378-6.477-16.914-3.03-8.536-5.64-17.21-2.608-8.676-4.788-17.468t-3.925-17.68-3.054-17.853q-1.307-8.963-2.173-17.98t-1.29-18.066-.4-18.107.488-18.105 1.376-18.059q.91-9.012 2.26-17.97 1.351-8.957 3.14-17.837t4.01-17.662 4.873-17.443 5.723-17.184 6.559-16.882 7.38-16.54 8.181-16.158 8.966-15.737 9.726-15.278q3.149-4.687 6.44-9.276 3.29-4.59 6.72-9.076 3.428-4.486 6.994-8.865t7.262-8.648q3.698-4.268 7.524-8.42 3.826-4.154 7.778-8.188t8.025-7.945q4.073-3.911 8.264-7.696t8.495-7.439 8.72-7.176 8.935-6.906 9.142-6.629 9.34-6.346q4.72-3.102 9.53-6.057 4.812-2.956 9.712-5.763t9.883-5.463 10.046-5.159 10.199-4.848 10.342-4.534 10.476-4.215 10.6-3.893 10.715-3.567q5.384-1.701 10.818-3.237 5.435-1.536 10.913-2.905t10.996-2.569 11.07-2.231q5.552-1.032 11.133-1.892 5.581-.861 11.186-1.55t11.228-1.208 11.26-.863q5.635-.345 11.28-.518T400 1v369z"/><path fill="none" stroke="#fff" stroke-linejoin="bevel" stroke-width="2" d="M741.589 230.436q3.426 8.385 6.436 16.929t5.599 17.225 4.746 17.478 3.883 17.69 3.01 17.86q1.286 8.966 2.13 17.985.845 9.02 1.246 18.069.4 9.05.357 18.108t-.532 18.104-1.42 18.055-2.303 17.965q-1.373 8.953-3.183 17.83-1.81 8.875-4.053 17.651-2.244 8.776-4.915 17.432t-5.764 17.17-6.6 16.866-7.419 16.522q-3.912 8.17-8.22 16.138-4.31 7.968-9.004 15.715-4.694 7.748-9.763 15.255t-10.5 14.757-11.212 14.224q-5.78 6.975-11.896 13.657-6.115 6.683-12.551 13.057t-13.177 12.425q-6.742 6.05-13.771 11.764-7.03 5.712-14.332 11.073t-14.858 10.358-15.348 9.615-15.801 8.851q-8.01 4.232-16.217 8.065-8.207 3.834-16.593 7.26-5.227 2.135-10.518 4.11-5.29 1.975-10.638 3.787-5.349 1.812-10.75 3.46t-10.85 3.129-10.941 2.795-11.022 2.46-11.091 2.12-11.152 1.781-11.2 1.439-11.24 1.095q-5.627.462-11.267.75-5.64.29-11.285.407t-11.293.06q-5.646-.057-11.288-.286t-11.275-.63-11.25-.976-11.216-1.32q-5.597-.745-11.17-1.661-5.571-.917-11.113-2.003t-11.047-2.342q-5.506-1.256-10.97-2.679t-10.883-3.013-10.786-3.345-10.678-3.674-10.561-3.998-10.434-4.32-10.296-4.637-10.15-4.95-9.994-5.258-9.828-5.561-9.653-5.86-9.47-6.152q-7.52-5.05-14.782-10.464t-14.251-11.178-13.686-11.862-13.087-12.52-12.457-13.148q-6.067-6.726-11.797-13.743-5.73-7.016-11.108-14.304-5.378-7.29-10.393-14.833-5.014-7.544-9.652-15.325-4.639-7.78-8.89-15.78-4.25-8-8.104-16.197-3.853-8.198-7.3-16.575-3.445-8.378-6.477-16.914-3.03-8.536-5.64-17.21-2.608-8.676-4.788-17.468t-3.925-17.68-3.054-17.853q-1.307-8.963-2.173-17.98t-1.29-18.066-.4-18.107.488-18.105 1.376-18.059q.91-9.012 2.26-17.97 1.351-8.957 3.14-17.837t4.01-17.662 4.873-17.443 5.723-17.184 6.559-16.882 7.38-16.54 8.181-16.158 8.966-15.737 9.726-15.278q3.149-4.687 6.44-9.276 3.29-4.59 6.72-9.076 3.428-4.486 6.994-8.865t7.262-8.648q3.698-4.268 7.524-8.42 3.826-4.154 7.778-8.188t8.025-7.945q4.073-3.911 8.264-7.696t8.495-7.439 8.72-7.176 8.935-6.906 9.142-6.629 9.34-6.346q4.72-3.102 9.53-6.057 4.812-2.956 9.712-5.763t9.883-5.463 10.046-5.159 10.199-4.848 10.342-4.534 10.476-4.215 10.6-3.893 10.715-3.567q5.384-1.701 10.818-3.237 5.435-1.536 10.913-2.905t10.996-2.569 11.07-2.231q5.552-1.032 11.133-1.892 5.581-.861 11.186-1.55t11.228-1.208 11.26-.863q5.635-.345 11.28-.518T400 1v369l341.589-139.564Z"/></svg>