<svg xmlns="http://www.w3.org/2000/svg" width="800" height="800"><path fill="none" d="M0 0h800v800H0z"/><clipPath id="a"><path d="M0 740h800v60H0z"/></clipPath><g clip-path="url(#a)"><path fill="#4caf50" d="M164.745 770h40v20h-40z"/><path fill="none" stroke="#fff" stroke-miterlimit="10" stroke-width="2" d="M164.745 770h40v20h-40z"/><text x="214.745, 226.2196, 232.87976, 244.00281, 254.00281, 259.55945, 270.6825," y="786.5," fill="#666" font-family="Liberation Sans" font-size="20">Trusted</text><path fill="#ff9800" d="M311.805 770h40v20h-40z"/><path fill="none" stroke="#fff" stroke-miterlimit="10" stroke-width="2" d="M311.805 770h40v20h-40z"/><text x="361.80499, 375.14484, 381.80499, 392.92804, 402.92804, 414.05109, 425.17413, 436.29718, 447.42023, 457.42023," y="786.5," fill="#666" font-family="Liberation Sans" font-size="20">Provenance</text><path fill="#f44336" d="M498.545 770h40v20h-40z"/><path fill="none" stroke="#fff" stroke-miterlimit="10" stroke-width="2" d="M498.545 770h40v20h-40z"/><text x="548.54498, 562.98834, 574.11139, 579.66803, 586.32819, 597.45123, 607.45123, 613.00787, 624.13092," y="786.5," fill="#666" font-family="Liberation Sans" font-size="20">Untrusted</text></g><path fill="#4caf50" d="M400 1q5.727 0 11.45.178 5.724.177 11.44.533 5.715.355 11.417.887 5.702.533 11.384 1.242t11.34 1.594 11.286 1.945 11.22 2.295 11.143 2.641q5.55 1.408 11.055 2.987 5.505 1.578 10.958 3.327 5.453 1.75 10.849 3.666 5.396 1.918 10.73 4.002t10.6 4.332q5.267 2.248 10.462 4.659t10.311 4.98q5.118 2.572 10.153 5.3 5.034 2.728 9.982 5.611t9.804 5.919 9.616 6.22 9.417 6.515q4.659 3.33 9.211 6.804t8.996 7.087 8.771 7.362q4.329 3.75 8.539 7.632t8.297 7.892q4.088 4.01 8.05 8.146 3.96 4.136 7.791 8.392 3.831 4.257 7.528 8.63t7.257 8.86q3.56 4.485 6.978 9.08t6.693 9.292 6.401 9.495L400 370z"/><path fill="none" stroke="#fff" stroke-linejoin="bevel" stroke-width="2" d="M400 1q5.727 0 11.45.178 5.724.177 11.44.533 5.715.355 11.417.887 5.702.533 11.384 1.242t11.34 1.594 11.286 1.945 11.22 2.295 11.143 2.641q5.55 1.408 11.055 2.987 5.505 1.578 10.958 3.327 5.453 1.75 10.849 3.666 5.396 1.918 10.73 4.002t10.6 4.332q5.267 2.248 10.462 4.659t10.311 4.98q5.118 2.572 10.153 5.3 5.034 2.728 9.982 5.611t9.804 5.919 9.616 6.22 9.417 6.515q4.659 3.33 9.211 6.804t8.996 7.087 8.771 7.362q4.329 3.75 8.539 7.632t8.297 7.892q4.088 4.01 8.05 8.146 3.96 4.136 7.791 8.392 3.831 4.257 7.528 8.63t7.257 8.86q3.56 4.485 6.978 9.08t6.693 9.292 6.401 9.495L400 370z"/><path fill="#ff9800" d="M709.13 168.505q10.567 16.213 19.38 33.442 8.815 17.23 15.778 35.286L400 370z"/><path fill="none" stroke="#fff" stroke-linejoin="bevel" stroke-width="2" d="M709.13 168.505q10.567 16.213 19.38 33.442 8.815 17.23 15.778 35.286L400 370l309.13-201.495Z"/><path fill="#f44336" d="M744.288 237.233q3.259 8.452 6.1 17.054t5.255 17.332 4.4 17.569 3.53 17.763 2.656 17.916 1.774 18.025.887 18.09-.002 18.11-.89 18.09-1.778 18.024-2.659 17.915-3.535 17.763-4.403 17.569-5.259 17.33-6.103 17.053-6.933 16.732q-3.671 8.28-7.745 16.372-4.073 8.09-8.54 15.972-4.465 7.88-9.312 15.533t-10.064 15.058q-5.216 7.406-10.79 14.547-5.574 7.14-11.491 13.999-5.917 6.858-12.164 13.418t-12.808 12.806q-6.562 6.245-13.421 12.161-6.86 5.916-14.002 11.489-7.141 5.572-14.548 10.787t-15.06 10.06q-7.654 4.846-15.536 9.31t-15.973 8.536-16.374 7.742-16.733 6.93q-5.216 2.01-10.49 3.863-5.274 1.852-10.601 3.544t-10.704 3.221-10.797 2.896-10.88 2.567-10.952 2.237-11.015 1.904-11.067 1.569q-5.546.7-11.11 1.233-5.565.532-11.142.896-5.578.364-11.165.558t-11.176.22-11.178-.119-11.168-.457-11.15-.795q-5.57-.482-11.121-1.133-5.552-.65-11.081-1.47-5.53-.818-11.032-1.803-5.502-.986-10.972-2.138t-10.902-2.468-10.823-2.798-10.733-3.125-10.633-3.448-10.524-3.768-10.404-4.086-10.277-4.399-10.138-4.708-9.991-5.013-9.835-5.313-9.67-5.609q-4.792-2.877-9.494-5.899-4.703-3.021-9.312-6.184-7.47-5.125-14.678-10.61-7.209-5.486-14.14-11.318-6.93-5.833-13.567-11.998-6.637-6.166-12.963-12.65-6.325-6.483-12.326-13.27-6-6.786-11.66-13.858t-10.966-14.415-10.245-14.935-9.5-15.42-8.733-15.867q-4.17-8.04-7.943-16.276-3.771-8.236-7.135-16.647t-6.31-16.977-5.468-17.266-4.615-17.514q-2.093-8.813-3.75-17.719-1.658-8.905-2.877-17.881T32.36 401.64t-1.11-18.078-.221-18.11.668-18.099q.555-9.041 1.554-18.044 1-9.004 2.439-17.947t3.316-17.805q1.876-8.862 4.185-17.621 2.31-8.76 5.046-17.395t5.892-17.126q3.157-8.49 6.726-16.816t7.543-16.466 8.342-16.076 9.12-15.647 9.878-15.181q3.163-4.61 6.463-9.12 3.301-4.512 6.737-8.921 3.436-4.41 7.003-8.712 3.568-4.303 7.265-8.496t7.518-8.272 7.766-8.041 8.005-7.802 8.238-7.555 8.463-7.303 8.68-7.043 8.89-6.777q4.497-3.32 9.091-6.504 4.595-3.184 9.284-6.226 4.69-3.043 9.468-5.942 4.78-2.9 9.644-5.653 4.865-2.753 9.81-5.357 4.947-2.605 9.97-5.059 5.022-2.453 10.116-4.754 5.095-2.3 10.257-4.445 5.161-2.145 10.386-4.132 5.224-1.988 10.507-3.816 5.282-1.829 10.617-3.496t10.719-3.173 10.81-2.847q5.426-1.342 10.89-2.518 5.465-1.177 10.963-2.187t11.023-1.854 11.075-1.52 11.115-1.182 11.146-.846 11.167-.508T400 1v369z"/><path fill="none" stroke="#fff" stroke-linejoin="bevel" stroke-width="2" d="M744.288 237.233q3.259 8.452 6.1 17.054t5.255 17.332 4.4 17.569 3.53 17.763 2.656 17.916 1.774 18.025.887 18.09-.002 18.11-.89 18.09-1.778 18.024-2.659 17.915-3.535 17.763-4.403 17.569-5.259 17.33-6.103 17.053-6.933 16.732q-3.671 8.28-7.745 16.372-4.073 8.09-8.54 15.972-4.465 7.88-9.312 15.533t-10.064 15.058q-5.216 7.406-10.79 14.547-5.574 7.14-11.491 13.999-5.917 6.858-12.164 13.418t-12.808 12.806q-6.562 6.245-13.421 12.161-6.86 5.916-14.002 11.489-7.141 5.572-14.548 10.787t-15.06 10.06q-7.654 4.846-15.536 9.31t-15.973 8.536-16.374 7.742-16.733 6.93q-5.216 2.01-10.49 3.863-5.274 1.852-10.601 3.544t-10.704 3.221-10.797 2.896-10.88 2.567-10.952 2.237-11.015 1.904-11.067 1.569q-5.546.7-11.11 1.233-5.565.532-11.142.896-5.578.364-11.165.558t-11.176.22-11.178-.119-11.168-.457-11.15-.795q-5.57-.482-11.121-1.133-5.552-.65-11.081-1.47-5.53-.818-11.032-1.803-5.502-.986-10.972-2.138t-10.902-2.468-10.823-2.798-10.733-3.125-10.633-3.448-10.524-3.768-10.404-4.086-10.277-4.399-10.138-4.708-9.991-5.013-9.835-5.313-9.67-5.609q-4.792-2.877-9.494-5.899-4.703-3.021-9.312-6.184-7.47-5.125-14.678-10.61-7.209-5.486-14.14-11.318-6.93-5.833-13.567-11.998-6.637-6.166-12.963-12.65-6.325-6.483-12.326-13.27-6-6.786-11.66-13.858t-10.966-14.415-10.245-14.935-9.5-15.42-8.733-15.867q-4.17-8.04-7.943-16.276-3.771-8.236-7.135-16.647t-6.31-16.977-5.468-17.266-4.615-17.514q-2.093-8.813-3.75-17.719-1.658-8.905-2.877-17.881T32.36 401.64t-1.11-18.078-.221-18.11.668-18.099q.555-9.041 1.554-18.044 1-9.004 2.439-17.947t3.316-17.805q1.876-8.862 4.185-17.621 2.31-8.76 5.046-17.395t5.892-17.126q3.157-8.49 6.726-16.816t7.543-16.466 8.342-16.076 9.12-15.647 9.878-15.181q3.163-4.61 6.463-9.12 3.301-4.512 6.737-8.921 3.436-4.41 7.003-8.712 3.568-4.303 7.265-8.496t7.518-8.272 7.766-8.041 8.005-7.802 8.238-7.555 8.463-7.303 8.68-7.043 8.89-6.777q4.497-3.32 9.091-6.504 4.595-3.184 9.284-6.226 4.69-3.043 9.468-5.942 4.78-2.9 9.644-5.653 4.865-2.753 9.81-5.357 4.947-2.605 9.97-5.059 5.022-2.453 10.116-4.754 5.095-2.3 10.257-4.445 5.161-2.145 10.386-4.132 5.224-1.988 10.507-3.816 5.282-1.829 10.617-3.496t10.719-3.173 10.81-2.847q5.426-1.342 10.89-2.518 5.465-1.177 10.963-2.187t11.023-1.854 11.075-1.52 11.115-1.182 11.146-.846 11.167-.508T400 1v369l344.288-132.767Z"/></svg>