<?xml version="1.0" encoding="utf-8" ?>
<svg xmlns="http://www.w3.org/2000/svg" xmlns:xlink="http://www.w3.org/1999/xlink" width="800" height="800">
	<clipPath id="cl_3">
		<rect y="740" width="800" height="60"/>
	</clipPath>
	<g clip-path="url(#cl_3)">
		<path fill="#4CAF50" d="M164.60001 770L204.60001 770L204.60001 790L164.60001 790L164.60001 770Z"/>
		<path fill="none" stroke="white" stroke-width="2" stroke-miterlimit="10" d="M164.60001 770L204.60001 770L204.60001 790L164.60001 790L164.60001 770Z"/>
	</g>
	<clipPath id="cl_4">
		<rect y="740" width="800" height="60"/>
	</clipPath>
	<g clip-path="url(#cl_4)">
		<text fill="#666" font-size="20" font-family="Helvetica Neue" x="214.60001, 224.24001, 230.90001, 242.02, 252.02, 258.32001, 269.06, " y="787.07007, ">
				Trusted
		</text>
	</g>
	<clipPath id="cl_5">
		<rect y="740" width="800" height="60"/>
	</clipPath>
	<g clip-path="url(#cl_5)">
		<path fill="#FF9800" d="M310.91998 770L350.91998 770L350.91998 790L310.91998 790L310.91998 770Z"/>
		<path fill="none" stroke="white" stroke-width="2" stroke-miterlimit="10" d="M310.91998 770L350.91998 770L350.91998 790L310.91998 790L310.91998 770Z"/>
	</g>
	<clipPath id="cl_6">
		<rect y="740" width="800" height="60"/>
	</clipPath>
	<g clip-path="url(#cl_6)">
		<text fill="#666" font-size="20" font-family="Helvetica Neue" x="360.91998, 373.88, 380.17999, 391.65997, 401.65997, 412.39999, 423.51999, 434.26001, 445.38, 456.12, " y="787.07007, ">
				Provenance
		</text>
	</g>
	<clipPath id="cl_7">
		<rect y="740" width="800" height="60"/>
	</clipPath>
	<g clip-path="url(#cl_7)">
		<path fill="#F44336" d="M496.85999 770L536.85999 770L536.85999 790L496.85999 790L496.85999 770Z"/>
		<path fill="none" stroke="white" stroke-width="2" stroke-miterlimit="10" d="M496.85999 770L536.85999 770L536.85999 790L496.85999 790L496.85999 770Z"/>
	</g>
	<clipPath id="cl_8">
		<rect y="740" width="800" height="60"/>
	</clipPath>
	<g clip-path="url(#cl_8)">
		<text fill="#666" font-size="20" font-family="Helvetica Neue" x="546.85999, 561.29999, 572.41998, 578.71997, 585.38, 596.5, 606.5, 612.79999, 623.53998, " y="787.07007, ">
				Untrusted
		</text>
	</g>
	<path fill="#4CAF50" d="M400 1Q417.61731 1 435.15451 2.6784005Q452.69168 4.356801 469.98923 7.6983337Q487.28674 11.039865 504.18726 16.01413Q521.08777 20.988394 537.4375 27.55014L400 370L400 1Z"/>
	<path fill="none" stroke="white" stroke-width="2" stroke-linejoin="bevel" d="M400 1Q417.61731 1 435.15451 2.6784005Q452.69168 4.356801 469.98923 7.6983337Q487.28674 11.039865 504.18726 16.01413Q521.08777 20.988394 537.4375 27.55014L400 370L400 1Z"/>
	<path fill="#FF9800" d="M537.43713 27.549988Q546.22162 31.075516 554.81384 35.046787Q563.40601 39.018059 571.78333 43.424622Q580.16064 47.831188 588.30096 52.661457Q596.44128 57.49173 604.32324 62.733002Q612.20526 67.974297 619.80817 73.612801Q627.41113 79.251312 634.7149 85.272202Q642.01868 91.293098 649.00421 97.680542Q655.98975 104.06799 662.63855 110.80518L400 370L537.43689 27.549849L537.43713 27.549988Z"/>
	<path fill="none" stroke="white" stroke-width="2" stroke-linejoin="bevel" d="M537.43713 27.549988Q546.22162 31.075516 554.81384 35.046787Q563.40601 39.018059 571.78333 43.424622Q580.16064 47.831188 588.30096 52.661457Q596.44128 57.49173 604.32324 62.733002Q612.20526 67.974297 619.80817 73.612801Q627.41113 79.251312 634.7149 85.272202Q642.01868 91.293098 649.00421 97.680542Q655.98975 104.06799 662.63855 110.80518L400 370L537.43689 27.549849L537.43713 27.549988Z"/>
	<path fill="#F44336" d="M662.63898 110.80554Q669.00183 117.25297 675.04065 124.00484Q681.07953 130.75671 686.77979 137.79675Q692.48004 144.83679 697.828 152.14807Q703.1759 159.45932 708.15869 167.0242Q713.14148 174.58908 717.74707 182.38933Q722.35266 190.18958 726.56995 198.20642Q730.78723 206.22327 734.60608 214.43738Q738.42493 222.65149 741.83612 231.04309Q745.24731 239.43469 748.24268 247.98355Q751.23804 256.53244 753.8103 265.21802Q756.38251 273.90356 758.52551 282.7049Q760.66846 291.50616 762.37695 300.40204Q764.08551 309.29791 765.35547 318.26691Q766.62549 327.23587 767.45392 336.25635Q768.28223 345.27686 768.66699 354.32712Q769.05176 363.37738 768.99194 372.43561Q768.93213 381.49384 768.42798 390.53827Q767.92377 399.58264 766.97644 408.59143Q766.02905 417.60016 764.64081 426.55157Q763.2525 435.50302 761.42664 444.37555Q759.60083 453.24811 757.34186 462.02032Q755.08289 470.7926 752.39618 479.44345Q749.70947 488.09427 746.60156 496.60284Q743.49359 505.11142 739.97192 513.45728Q736.45026 521.8031 732.52338 529.96613Q728.59644 538.12915 724.27368 546.0896Q719.95093 554.05005 715.24274 561.78882Q710.53455 569.52759 705.45239 577.02606Q700.37024 584.52448 694.92621 591.76453Q689.48218 599.00458 683.68951 605.96881Q677.89685 612.93298 671.76941 619.60455Q665.64191 626.27612 659.19446 632.63898Q654.3728 637.39734 649.37982 641.97552Q644.38678 646.55371 639.22913 650.94556Q634.07141 655.3374 628.7561 659.53693Q623.44067 663.73651 617.97479 667.73816Q612.50879 671.73975 606.8996 675.53809Q601.29041 679.33643 595.54565 682.92627Q589.8009 686.51611 583.92822 689.8927Q578.05554 693.26929 572.06293 696.4281Q566.07031 699.58679 559.9657 702.52356Q553.86121 705.46021 547.65295 708.1709Q541.4447 710.88147 535.14117 713.36243Q528.83765 715.84338 522.44733 718.09137Q516.05695 720.33929 509.58841 722.3512Q503.11981 724.36304 496.58179 726.13611Q490.04373 727.90912 483.44501 729.44104Q476.84631 730.9729 470.19583 732.26166Q463.54532 733.55029 456.85202 734.59399Q450.15869 735.6377 443.43161 736.43506Q436.70447 737.23236 429.95264 737.78223Q423.20081 738.33215 416.43335 738.63385Q409.66583 738.93555 402.89185 738.98865Q396.11786 739.04169 389.34647 738.84607Q382.57507 738.65051 375.81543 738.20654Q369.05582 737.76257 362.31705 737.0708Q355.57825 736.37897 348.86942 735.44031Q342.16058 734.50159 335.49069 733.31732Q328.8208 732.13306 322.19891 730.70477Q315.577 729.27649 309.01199 727.6062Q302.44696 725.93579 295.94763 724.02551Q289.44836 722.11536 283.02356 719.9679Q276.59875 717.82037 270.25711 715.43854Q263.91547 713.05664 257.66553 710.44366L257.66547 710.4436Q249.30804 706.94946 241.13214 703.0495Q232.95624 699.14948 224.98154 694.85303Q217.00684 690.55652 209.25256 685.8739Q201.49828 681.19135 193.98311 676.13391Q186.46794 671.07648 179.20998 665.65637Q171.95203 660.23633 164.96877 654.46661Q157.98549 648.6969 151.29373 642.59155Q144.60199 636.48615 138.21786 630.05975Q131.83376 623.63336 125.77267 616.90149Q119.71158 610.16956 113.98811 603.14838Q108.26463 596.1272 102.89257 588.83356Q97.5205 581.53998 92.512787 573.99158Q87.505066 566.44324 82.873772 558.6582Q78.24247 550.87323 73.998741 542.87036Q69.755013 534.86749 65.909081 526.66602Q62.063141 518.46454 58.624268 510.08426Q55.185394 501.70392 52.161861 493.16498Q49.138329 484.62604 46.53743 475.94904Q43.936523 467.272 41.764511 458.47781Q39.592499 449.68362 37.854618 440.79346Q36.116737 431.90332 34.817165 422.9386Q33.517597 413.97388 32.659473 404.95618Q31.801346 395.93845 31.386732 386.8895Q30.972118 377.84055 31.002014 368.78217Q31.03191 359.72375 31.506245 350.67773Q31.980579 341.63177 32.898212 332.61993Q33.815842 323.60809 35.174557 314.6521Q36.533272 305.69614 38.329796 296.81763Q40.126324 287.93912 42.356335 279.15948Q44.586346 270.37982 47.244469 261.72015Q49.902588 253.06049 52.982418 244.54169Q56.062248 236.02287 59.556366 227.66545Q62.16938 221.41548 65.010033 215.26564Q67.850685 209.11581 70.915154 203.0744Q73.979614 197.03296 77.263763 191.10809Q80.547913 185.18321 84.04731 179.38287Q87.546707 173.58252 91.256645 167.91454Q94.966583 162.24654 98.882057 156.71854Q102.79753 151.19052 106.91328 145.80997Q111.02901 140.42941 115.33948 135.20355Q119.64993 129.97768 124.14928 124.91354Q128.64865 119.8494 133.33086 114.95382Q138.01306 110.05824 142.8718 105.33781Q147.73055 100.61739 152.75928 96.078491Q157.78799 91.539574 162.97992 87.188293Q168.17186 82.837021 173.52002 78.679245Q178.86816 74.521461 184.36531 70.56279Q189.86246 66.604111 195.50119 62.849869Q201.13992 59.095619 206.91266 55.550873Q212.68539 52.006126 218.58437 48.675652Q224.48331 45.345173 230.50053 42.233456Q236.51776 39.121742 242.64514 36.232983Q248.77251 33.344219 255.00179 30.682304Q261.23108 28.02039 267.55386 25.588911Q273.87665 23.157431 280.28442 20.959661Q286.6922 18.76189 293.17633 16.800795Q299.66046 14.839697 306.21219 13.117915Q312.76392 11.396134 319.37445 9.9159899Q325.98495 8.4358444 332.64536 7.1993303Q339.30573 5.9628153 346.00705 4.9715981Q352.70831 3.9803805 359.44147 3.2357962Q366.17462 2.4912117 372.93057 1.9942635Q379.68652 1.4973154 386.45615 1.2486733Q393.22577 1.0000314 400 1.0000305L400 370L662.63879 110.80535L662.63898 110.80554Z"/>
	<path fill="none" stroke="white" stroke-width="2" stroke-linejoin="bevel" d="M662.63898 110.80554Q669.00183 117.25297 675.04065 124.00484Q681.07953 130.75671 686.77979 137.79675Q692.48004 144.83679 697.828 152.14807Q703.1759 159.45932 708.15869 167.0242Q713.14148 174.58908 717.74707 182.38933Q722.35266 190.18958 726.56995 198.20642Q730.78723 206.22327 734.60608 214.43738Q738.42493 222.65149 741.83612 231.04309Q745.24731 239.43469 748.24268 247.98355Q751.23804 256.53244 753.8103 265.21802Q756.38251 273.90356 758.52551 282.7049Q760.66846 291.50616 762.37695 300.40204Q764.08551 309.29791 765.35547 318.26691Q766.62549 327.23587 767.45392 336.25635Q768.28223 345.27686 768.66699 354.32712Q769.05176 363.37738 768.99194 372.43561Q768.93213 381.49384 768.42798 390.53827Q767.92377 399.58264 766.97644 408.59143Q766.02905 417.60016 764.64081 426.55157Q763.2525 435.50302 761.42664 444.37555Q759.60083 453.24811 757.34186 462.02032Q755.08289 470.7926 752.39618 479.44345Q749.70947 488.09427 746.60156 496.60284Q743.49359 505.11142 739.97192 513.45728Q736.45026 521.8031 732.52338 529.96613Q728.59644 538.12915 724.27368 546.0896Q719.95093 554.05005 715.24274 561.78882Q710.53455 569.52759 705.45239 577.02606Q700.37024 584.52448 694.92621 591.76453Q689.48218 599.00458 683.68951 605.96881Q677.89685 612.93298 671.76941 619.60455Q665.64191 626.27612 659.19446 632.63898Q654.3728 637.39734 649.37982 641.97552Q644.38678 646.55371 639.22913 650.94556Q634.07141 655.3374 628.7561 659.53693Q623.44067 663.73651 617.97479 667.73816Q612.50879 671.73975 606.8996 675.53809Q601.29041 679.33643 595.54565 682.92627Q589.8009 686.51611 583.92822 689.8927Q578.05554 693.26929 572.06293 696.4281Q566.07031 699.58679 559.9657 702.52356Q553.86121 705.46021 547.65295 708.1709Q541.4447 710.88147 535.14117 713.36243Q528.83765 715.84338 522.44733 718.09137Q516.05695 720.33929 509.58841 722.3512Q503.11981 724.36304 496.58179 726.13611Q490.04373 727.90912 483.44501 729.44104Q476.84631 730.9729 470.19583 732.26166Q463.54532 733.55029 456.85202 734.59399Q450.15869 735.6377 443.43161 736.43506Q436.70447 737.23236 429.95264 737.78223Q423.20081 738.33215 416.43335 738.63385Q409.66583 738.93555 402.89185 738.98865Q396.11786 739.04169 389.34647 738.84607Q382.57507 738.65051 375.81543 738.20654Q369.05582 737.76257 362.31705 737.0708Q355.57825 736.37897 348.86942 735.44031Q342.16058 734.50159 335.49069 733.31732Q328.8208 732.13306 322.19891 730.70477Q315.577 729.27649 309.01199 727.6062Q302.44696 725.93579 295.94763 724.02551Q289.44836 722.11536 283.02356 719.9679Q276.59875 717.82037 270.25711 715.43854Q263.91547 713.05664 257.66553 710.44366L257.66547 710.4436Q249.30804 706.94946 241.13214 703.0495Q232.95624 699.14948 224.98154 694.85303Q217.00684 690.55652 209.25256 685.8739Q201.49828 681.19135 193.98311 676.13391Q186.46794 671.07648 179.20998 665.65637Q171.95203 660.23633 164.96877 654.46661Q157.98549 648.6969 151.29373 642.59155Q144.60199 636.48615 138.21786 630.05975Q131.83376 623.63336 125.77267 616.90149Q119.71158 610.16956 113.98811 603.14838Q108.26463 596.1272 102.89257 588.83356Q97.5205 581.53998 92.512787 573.99158Q87.505066 566.44324 82.873772 558.6582Q78.24247 550.87323 73.998741 542.87036Q69.755013 534.86749 65.909081 526.66602Q62.063141 518.46454 58.624268 510.08426Q55.185394 501.70392 52.161861 493.16498Q49.138329 484.62604 46.53743 475.94904Q43.936523 467.272 41.764511 458.47781Q39.592499 449.68362 37.854618 440.79346Q36.116737 431.90332 34.817165 422.9386Q33.517597 413.97388 32.659473 404.95618Q31.801346 395.93845 31.386732 386.8895Q30.972118 377.84055 31.002014 368.78217Q31.03191 359.72375 31.506245 350.67773Q31.980579 341.63177 32.898212 332.61993Q33.815842 323.60809 35.174557 314.6521Q36.533272 305.69614 38.329796 296.81763Q40.126324 287.93912 42.356335 279.15948Q44.586346 270.37982 47.244469 261.72015Q49.902588 253.06049 52.982418 244.54169Q56.062248 236.02287 59.556366 227.66545Q62.16938 221.41548 65.010033 215.26564Q67.850685 209.11581 70.915154 203.0744Q73.979614 197.03296 77.263763 191.10809Q80.547913 185.18321 84.04731 179.38287Q87.546707 173.58252 91.256645 167.91454Q94.966583 162.24654 98.882057 156.71854Q102.79753 151.19052 106.91328 145.80997Q111.02901 140.42941 115.33948 135.20355Q119.64993 129.97768 124.14928 124.91354Q128.64865 119.8494 133.33086 114.95382Q138.01306 110.05824 142.8718 105.33781Q147.73055 100.61739 152.75928 96.078491Q157.78799 91.539574 162.97992 87.188293Q168.17186 82.837021 173.52002 78.679245Q178.86816 74.521461 184.36531 70.56279Q189.86246 66.604111 195.50119 62.849869Q201.13992 59.095619 206.91266 55.550873Q212.68539 52.006126 218.58437 48.675652Q224.48331 45.345173 230.50053 42.233456Q236.51776 39.121742 242.64514 36.232983Q248.77251 33.344219 255.00179 30.682304Q261.23108 28.02039 267.55386 25.588911Q273.87665 23.157431 280.28442 20.959661Q286.6922 18.76189 293.17633 16.800795Q299.66046 14.839697 306.21219 13.117915Q312.76392 11.396134 319.37445 9.9159899Q325.98495 8.4358444 332.64536 7.1993303Q339.30573 5.9628153 346.00705 4.9715981Q352.70831 3.9803805 359.44147 3.2357962Q366.17462 2.4912117 372.93057 1.9942635Q379.68652 1.4973154 386.45615 1.2486733Q393.22577 1.0000314 400 1.0000305L400 370L662.63879 110.80535L662.63898 110.80554Z"/>
</svg>
