<svg xmlns="http://www.w3.org/2000/svg" width="800" height="800"><path fill="none" d="M0 0h800v800H0z"/><clipPath id="a"><path d="M0 690h800v110H0z"/></clipPath><g clip-path="url(#a)"><path fill="#4caf50" d="M123.3 720h40v20h-40z"/><path fill="none" stroke="#fff" stroke-miterlimit="10" stroke-width="2" d="M123.3 720h40v20h-40z"/><path fill="#ff9800" d="M377.64 720h40v20h-40z"/><path fill="none" stroke="#fff" stroke-miterlimit="10" stroke-width="2" d="M377.64 720h40v20h-40z"/><path fill="#f44336" d="M262.92 770h40v20h-40z"/><path fill="none" stroke="#fff" stroke-miterlimit="10" stroke-width="2" d="M262.92 770h40v20h-40z"/></g><path fill="#4caf50" d="M400 1q4.658 0 9.315.126t9.308.378 9.295.63 9.274.882 9.247 1.133 9.213 1.383 9.172 1.631 9.125 1.88q4.55 1 9.07 2.125t9.01 2.37q4.488 1.247 8.941 2.614t8.868 2.855q4.415 1.487 8.787 3.094t8.7 3.33 8.607 3.565q4.28 1.841 8.508 3.797t8.4 4.026 8.29 4.252 8.171 4.474 8.047 4.695 7.917 4.91 7.78 5.123 7.64 5.332q3.783 2.718 7.492 5.537t7.34 5.737 7.18 5.935 7.019 6.126 6.85 6.315 6.676 6.497 6.497 6.676 6.315 6.85 6.127 7.017L400 345z"/><path fill="none" stroke="#fff" stroke-linejoin="bevel" stroke-width="2" d="M400 1q4.658 0 9.315.126t9.308.378 9.295.63 9.274.882 9.247 1.133 9.213 1.383 9.172 1.631 9.125 1.88q4.55 1 9.07 2.125t9.01 2.37q4.488 1.247 8.941 2.614t8.868 2.855q4.415 1.487 8.787 3.094t8.7 3.33 8.607 3.565q4.28 1.841 8.508 3.797t8.4 4.026 8.29 4.252 8.171 4.474 8.047 4.695 7.917 4.91 7.78 5.123 7.64 5.332q3.783 2.718 7.492 5.537t7.34 5.737 7.18 5.935 7.019 6.126 6.85 6.315 6.676 6.497 6.497 6.676 6.315 6.85 6.127 7.017L400 345z"/><path fill="#ff9800" d="M662.18 122.295q13.871 16.33 25.609 34.254 11.737 17.925 21.16 37.168L400 345z"/><path fill="none" stroke="#fff" stroke-linejoin="bevel" stroke-width="2" d="M662.18 122.295q13.871 16.33 25.609 34.254 11.737 17.925 21.16 37.168L400 345l262.18-222.705Z"/><path fill="#f44336" d="M708.949 193.717q3.713 7.584 7.05 15.341 3.338 7.758 6.29 15.67 2.953 7.911 5.514 15.958 2.56 8.047 4.723 16.21t3.923 16.423q1.76 8.26 3.112 16.595 1.352 8.336 2.294 16.728.941 8.392 1.47 16.82t.643 16.872q.115 8.444-.185 16.883-.3 8.44-1.014 16.854-.713 8.415-1.84 16.784-1.125 8.37-2.66 16.674t-3.475 16.522-4.282 16.333-5.079 16.102-5.862 15.834-6.632 15.527q-3.507 7.683-7.387 15.184t-8.122 14.802q-4.243 7.301-8.839 14.386t-9.534 13.935-10.206 13.45-10.854 12.934-11.475 12.385-12.07 11.807-12.634 11.201-13.169 10.567-13.67 9.909q-6.958 4.786-14.142 9.226-7.184 4.439-14.577 8.52-7.392 4.082-14.977 7.796-4.89 2.395-9.855 4.634-4.964 2.238-9.996 4.319-5.033 2.08-10.129 4.001-5.096 1.92-10.25 3.678t-10.361 3.353-10.463 3.022-10.552 2.69q-5.298 1.26-10.633 2.354-5.335 1.093-10.702 2.017-5.366.923-10.76 1.676-5.393.754-10.808 1.336-5.414.582-10.844.992t-10.871.65-10.886.304-10.89-.04-10.883-.385-10.866-.73-10.837-1.073-10.798-1.415-10.747-1.756-10.687-2.096-10.615-2.433q-5.288-1.3-10.532-2.767-5.244-1.468-10.44-3.1t-10.336-3.429-10.223-3.754-10.098-4.076q-5.017-2.117-9.965-4.393t-9.82-4.706q-4.873-2.432-9.667-5.016t-9.503-5.318-9.33-5.617q-7.165-4.47-14.102-9.285t-13.63-9.966-13.124-10.622q-6.431-5.473-12.587-11.254t-12.02-11.858q-5.864-6.076-11.423-12.433t-10.8-12.979-10.15-13.493-9.475-13.975-8.778-14.423-8.06-14.836-7.322-15.214-6.567-15.555-5.796-15.859-5.011-16.123-4.214-16.35-3.406-16.538-2.59-16.684-1.77-16.792-.942-16.858-.115-16.884.714-16.869 1.541-16.814 2.364-16.718q1.388-8.33 3.182-16.582t3.991-16.406 4.792-16.19 5.58-15.935 6.356-15.643q3.37-7.743 7.115-15.312t7.858-14.944 8.582-14.54q2.882-4.621 5.91-9.148 3.026-4.527 6.195-8.956t6.476-8.755 6.75-8.546 7.017-8.328q3.575-4.108 7.277-8.102 3.703-3.993 7.53-7.867t7.776-7.625 8.012-7.375 8.242-7.117 8.464-6.854 8.676-6.581 8.88-6.304 9.075-6.02 9.261-5.73q4.676-2.79 9.438-5.433t9.605-5.132q4.843-2.49 9.763-4.825t9.91-4.514 10.049-4.198 10.176-3.878 10.294-3.554 10.401-3.226 10.498-2.895 10.585-2.561 10.66-2.226 10.725-1.886 10.78-1.546 10.824-1.205q5.42-.516 10.855-.86 5.435-.345 10.878-.518Q394.554 1 400 1v344z"/><path fill="none" stroke="#fff" stroke-linejoin="bevel" stroke-width="2" d="M708.949 193.717q3.713 7.584 7.05 15.341 3.338 7.758 6.29 15.67 2.953 7.911 5.514 15.958 2.56 8.047 4.723 16.21t3.923 16.423q1.76 8.26 3.112 16.595 1.352 8.336 2.294 16.728.941 8.392 1.47 16.82t.643 16.872q.115 8.444-.185 16.883-.3 8.44-1.014 16.854-.713 8.415-1.84 16.784-1.125 8.37-2.66 16.674t-3.475 16.522-4.282 16.333-5.079 16.102-5.862 15.834-6.632 15.527q-3.507 7.683-7.387 15.184t-8.122 14.802q-4.243 7.301-8.839 14.386t-9.534 13.935-10.206 13.45-10.854 12.934-11.475 12.385-12.07 11.807-12.634 11.201-13.169 10.567-13.67 9.909q-6.958 4.786-14.142 9.226-7.184 4.439-14.577 8.52-7.392 4.082-14.977 7.796-4.89 2.395-9.855 4.634-4.964 2.238-9.996 4.319-5.033 2.08-10.129 4.001-5.096 1.92-10.25 3.678t-10.361 3.353-10.463 3.022-10.552 2.69q-5.298 1.26-10.633 2.354-5.335 1.093-10.702 2.017-5.366.923-10.76 1.676-5.393.754-10.808 1.336-5.414.582-10.844.992t-10.871.65-10.886.304-10.89-.04-10.883-.385-10.866-.73-10.837-1.073-10.798-1.415-10.747-1.756-10.687-2.096-10.615-2.433q-5.288-1.3-10.532-2.767-5.244-1.468-10.44-3.1t-10.336-3.429-10.223-3.754-10.098-4.076q-5.017-2.117-9.965-4.393t-9.82-4.706q-4.873-2.432-9.667-5.016t-9.503-5.318-9.33-5.617q-7.165-4.47-14.102-9.285t-13.63-9.966-13.124-10.622q-6.431-5.473-12.587-11.254t-12.02-11.858q-5.864-6.076-11.423-12.433t-10.8-12.979-10.15-13.493-9.475-13.975-8.778-14.423-8.06-14.836-7.322-15.214-6.567-15.555-5.796-15.859-5.011-16.123-4.214-16.35-3.406-16.538-2.59-16.684-1.77-16.792-.942-16.858-.115-16.884.714-16.869 1.541-16.814 2.364-16.718q1.388-8.33 3.182-16.582t3.991-16.406 4.792-16.19 5.58-15.935 6.356-15.643q3.37-7.743 7.115-15.312t7.858-14.944 8.582-14.54q2.882-4.621 5.91-9.148 3.026-4.527 6.195-8.956t6.476-8.755 6.75-8.546 7.017-8.328q3.575-4.108 7.277-8.102 3.703-3.993 7.53-7.867t7.776-7.625 8.012-7.375 8.242-7.117 8.464-6.854 8.676-6.581 8.88-6.304 9.075-6.02 9.261-5.73q4.676-2.79 9.438-5.433t9.605-5.132q4.843-2.49 9.763-4.825t9.91-4.514 10.049-4.198 10.176-3.878 10.294-3.554 10.401-3.226 10.498-2.895 10.585-2.561 10.66-2.226 10.725-1.886 10.78-1.546 10.824-1.205q5.42-.516 10.855-.86 5.435-.345 10.878-.518Q394.554 1 400 1v344l308.949-151.283Z"/></svg>