<svg xmlns="http://www.w3.org/2000/svg" width="800" height="800"><path fill="none" d="M0 0h800v800H0z"/><clipPath id="a"><path d="M0 740h800v60H0z"/></clipPath><g clip-path="url(#a)"><path fill="#4caf50" d="M144.605 770h40v20h-40z"/><path fill="none" stroke="#fff" stroke-miterlimit="10" stroke-width="2" d="M144.605 770h40v20h-40z"/><text x="194.605, 207.94484, 217.50539, 230.38625, 240.64992, 248.68703, 260.52295," y="787.5," fill="#666" font-family="DejaVu Serif" font-size="20">Trusted</text><path fill="#ff9800" d="M303.325 770h40v20h-40z"/><path fill="none" stroke="#fff" stroke-miterlimit="10" stroke-width="2" d="M303.325 770h40v20h-40z"/><text x="353.32501, 366.78204, 376.34259, 388.38361, 399.68243, 411.51837, 424.39923, 436.32306, 449.20392, 460.40509," y="787.5," fill="#666" font-family="DejaVu Serif" font-size="20">Provenance</text><path fill="#f44336" d="M502.245 770h40v20h-40z"/><path fill="none" stroke="#fff" stroke-miterlimit="10" stroke-width="2" d="M502.245 770h40v20h-40z"/><text x="552.245, 569.10046, 581.98132, 590.01843, 599.57898, 612.45984, 622.72351, 630.76062, 642.59656," y="787.5," fill="#666" font-family="DejaVu Serif" font-size="20">Untrusted</text></g><path fill="#4caf50" d="M400 1q7.495 0 14.983.304 7.49.305 14.96.913t14.909 1.519q7.439.911 14.835 2.123t14.737 2.724 14.614 3.32 14.467 3.911 14.297 4.495 14.102 5.072 13.885 5.64 13.644 6.2q6.76 3.238 13.381 6.748t13.096 7.286 12.79 7.812 12.462 8.325q6.146 4.289 12.113 8.824L400 370z"/><path fill="none" stroke="#fff" stroke-linejoin="bevel" stroke-width="2" d="M400 1q7.495 0 14.983.304 7.49.305 14.96.913t14.909 1.519q7.439.911 14.835 2.123t14.737 2.724 14.614 3.32 14.467 3.911 14.297 4.495 14.102 5.072 13.885 5.64 13.644 6.2q6.76 3.238 13.381 6.748t13.096 7.286 12.79 7.812 12.462 8.325q6.146 4.289 12.113 8.824L400 370z"/><path fill="#ff9800" d="M623.275 76.216q10.396 7.9 20.208 16.517t18.99 17.904 17.675 19.2 16.275 20.404L400 370z"/><path fill="none" stroke="#fff" stroke-linejoin="bevel" stroke-width="2" d="M623.275 76.216q10.396 7.9 20.208 16.517t18.99 17.904 17.675 19.2 16.275 20.404L400 370 623.275 76.216Z"/><path fill="#f44336" d="M696.423 150.24q5.395 7.277 10.426 14.81t9.687 15.303 8.924 15.76 8.14 16.18 7.337 16.559 6.515 16.899 5.678 17.198 4.828 17.456 3.965 17.672 3.093 17.846 2.214 17.975 1.329 18.063.44 18.106q0 9.058-.447 18.106-.446 9.047-1.335 18.062-.89 9.014-2.22 17.975-1.331 8.96-3.1 17.844t-3.972 17.67-4.833 17.455q-2.632 8.668-5.685 17.196t-6.521 16.897-7.343 16.556-8.146 16.176q-4.271 7.988-8.93 15.757t-9.692 15.3-10.431 14.806-11.146 14.276q-5.747 7-11.832 13.712-6.084 6.71-12.49 13.115-6.407 6.404-13.12 12.486t-13.717 11.827-14.28 11.14q-5.115 3.793-10.358 7.407t-10.609 7.044q-5.365 3.43-10.845 6.674t-11.069 6.296q-5.589 3.053-11.28 5.91t-11.476 5.518-11.66 5.118q-5.875 2.459-11.83 4.713-5.956 2.255-11.986 4.302-6.03 2.048-12.127 3.886t-12.253 3.465-12.366 3.04q-6.21 1.414-12.464 2.612t-12.546 2.18-12.614 1.746-12.667 1.31q-6.344.545-12.704.871-6.36.327-12.727.433-6.367.107-12.734-.006t-12.726-.446-12.704-.885-12.665-1.322-12.612-1.76q-6.291-.987-12.544-2.192t-12.461-2.625q-6.208-1.42-12.363-3.052-6.155-1.634-12.25-3.478t-12.123-3.898-11.981-4.315-11.825-4.725q-5.872-2.464-11.655-5.13-5.784-2.666-11.471-5.53-8.091-4.073-15.972-8.538-7.882-4.466-15.534-9.313t-15.059-10.063q-7.405-5.217-14.546-10.79-7.14-5.574-14-11.492-6.858-5.917-13.418-12.164t-12.805-12.808q-6.246-6.561-12.162-13.42-5.916-6.86-11.488-14.002-5.573-7.142-10.788-14.548-5.215-7.407-10.06-15.06t-9.31-15.536q-4.465-7.882-8.537-15.973t-7.742-16.374-6.93-16.733-6.1-17.053q-2.84-8.602-5.255-17.332t-4.4-17.57q-1.983-8.838-3.531-17.763t-2.656-17.916-1.774-18.024q-.665-9.034-.887-18.09t.002-18.111.89-18.09 1.777-18.024 2.66-17.915 3.534-17.763 4.403-17.568 5.259-17.331 6.103-17.052 6.932-16.733q3.672-8.28 7.745-16.371 2.864-5.688 5.922-11.274t6.308-11.062 6.685-10.839 7.055-10.6 7.417-10.352 7.77-10.09q3.971-4.977 8.113-9.814 4.141-4.838 8.447-9.53t8.77-9.232 9.084-8.924 9.387-8.605 9.678-8.277 9.958-7.937 10.225-7.59 10.482-7.231 10.725-6.866 10.955-6.492q5.534-3.15 11.173-6.11 5.639-2.958 11.377-5.72 5.737-2.762 11.567-5.325 5.83-2.562 11.744-4.922 5.915-2.36 11.908-4.514t12.056-4.1 12.19-3.683 12.31-3.26 12.415-2.832T336.64 6.48t12.581-1.97 12.642-1.534 12.687-1.097 12.717-.66T400 1v369z"/><path fill="none" stroke="#fff" stroke-linejoin="bevel" stroke-width="2" d="M696.423 150.24q5.395 7.277 10.426 14.81t9.687 15.303 8.924 15.76 8.14 16.18 7.337 16.559 6.515 16.899 5.678 17.198 4.828 17.456 3.965 17.672 3.093 17.846 2.214 17.975 1.329 18.063.44 18.106q0 9.058-.447 18.106-.446 9.047-1.335 18.062-.89 9.014-2.22 17.975-1.331 8.96-3.1 17.844t-3.972 17.67-4.833 17.455q-2.632 8.668-5.685 17.196t-6.521 16.897-7.343 16.556-8.146 16.176q-4.271 7.988-8.93 15.757t-9.692 15.3-10.431 14.806-11.146 14.276q-5.747 7-11.832 13.712-6.084 6.71-12.49 13.115-6.407 6.404-13.12 12.486t-13.717 11.827-14.28 11.14q-5.115 3.793-10.358 7.407t-10.609 7.044q-5.365 3.43-10.845 6.674t-11.069 6.296q-5.589 3.053-11.28 5.91t-11.476 5.518-11.66 5.118q-5.875 2.459-11.83 4.713-5.956 2.255-11.986 4.302-6.03 2.048-12.127 3.886t-12.253 3.465-12.366 3.04q-6.21 1.414-12.464 2.612t-12.546 2.18-12.614 1.746-12.667 1.31q-6.344.545-12.704.871-6.36.327-12.727.433-6.367.107-12.734-.006t-12.726-.446-12.704-.885-12.665-1.322-12.612-1.76q-6.291-.987-12.544-2.192t-12.461-2.625q-6.208-1.42-12.363-3.052-6.155-1.634-12.25-3.478t-12.123-3.898-11.981-4.315-11.825-4.725q-5.872-2.464-11.655-5.13-5.784-2.666-11.471-5.53-8.091-4.073-15.972-8.538-7.882-4.466-15.534-9.313t-15.059-10.063q-7.405-5.217-14.546-10.79-7.14-5.574-14-11.492-6.858-5.917-13.418-12.164t-12.805-12.808q-6.246-6.561-12.162-13.42-5.916-6.86-11.488-14.002-5.573-7.142-10.788-14.548-5.215-7.407-10.06-15.06t-9.31-15.536q-4.465-7.882-8.537-15.973t-7.742-16.374-6.93-16.733-6.1-17.053q-2.84-8.602-5.255-17.332t-4.4-17.57q-1.983-8.838-3.531-17.763t-2.656-17.916-1.774-18.024q-.665-9.034-.887-18.09t.002-18.111.89-18.09 1.777-18.024 2.66-17.915 3.534-17.763 4.403-17.568 5.259-17.331 6.103-17.052 6.932-16.733q3.672-8.28 7.745-16.371 2.864-5.688 5.922-11.274t6.308-11.062 6.685-10.839 7.055-10.6 7.417-10.352 7.77-10.09q3.971-4.977 8.113-9.814 4.141-4.838 8.447-9.53t8.77-9.232 9.084-8.924 9.387-8.605 9.678-8.277 9.958-7.937 10.225-7.59 10.482-7.231 10.725-6.866 10.955-6.492q5.534-3.15 11.173-6.11 5.639-2.958 11.377-5.72 5.737-2.762 11.567-5.325 5.83-2.562 11.744-4.922 5.915-2.36 11.908-4.514t12.056-4.1 12.19-3.683 12.31-3.26 12.415-2.832T336.64 6.48t12.581-1.97 12.642-1.534 12.687-1.097 12.717-.66T400 1v369l296.423-219.76Z"/></svg>