<svg xmlns="http://www.w3.org/2000/svg" width="800" height="800"><path fill="none" d="M0 0h800v800H0z"/><clipPath id="a"><path d="M0 690h800v110H0z"/></clipPath><g clip-path="url(#a)"><path fill="#4caf50" d="M123.3 720h40v20h-40z"/><path fill="none" stroke="#fff" stroke-miterlimit="10" stroke-width="2" d="M123.3 720h40v20h-40z"/><path fill="#ff9800" d="M377.64 720h40v20h-40z"/><path fill="none" stroke="#fff" stroke-miterlimit="10" stroke-width="2" d="M377.64 720h40v20h-40z"/><path fill="#f44336" d="M262.92 770h40v20h-40z"/><path fill="none" stroke="#fff" stroke-miterlimit="10" stroke-width="2" d="M262.92 770h40v20h-40z"/></g><path fill="#4caf50" d="M400 1q4.559 0 9.116.12 4.557.122 9.11.363 4.551.242 9.096.604 4.544.362 9.077.844t9.052 1.085 9.02 1.324q4.5.722 8.981 1.563 4.48.84 8.937 1.8t8.886 2.036 8.83 2.271 8.765 2.505q4.367 1.31 8.697 2.735 4.33 1.426 8.62 2.965 4.292 1.54 8.54 3.193t8.452 3.418q4.203 1.765 8.358 3.64t8.258 3.861 8.154 4.078 8.043 4.293 7.926 4.505 7.803 4.713 7.677 4.918 7.543 5.12 7.405 5.317 7.261 5.512 7.113 5.703 6.959 5.89 6.8 6.07q3.36 3.082 6.638 6.25 3.277 3.17 6.47 6.424 3.191 3.254 6.296 6.592t6.12 6.757L400 345z"/><path fill="none" stroke="#fff" stroke-linejoin="bevel" stroke-width="2" d="M400 1q4.559 0 9.116.12 4.557.122 9.11.363 4.551.242 9.096.604 4.544.362 9.077.844t9.052 1.085 9.02 1.324q4.5.722 8.981 1.563 4.48.84 8.937 1.8t8.886 2.036 8.83 2.271 8.765 2.505q4.367 1.31 8.697 2.735 4.33 1.426 8.62 2.965 4.292 1.54 8.54 3.193t8.452 3.418q4.203 1.765 8.358 3.64t8.258 3.861 8.154 4.078 8.043 4.293 7.926 4.505 7.803 4.713 7.677 4.918 7.543 5.12 7.405 5.317 7.261 5.512 7.113 5.703 6.959 5.89 6.8 6.07q3.36 3.082 6.638 6.25 3.277 3.17 6.47 6.424 3.191 3.254 6.296 6.592t6.12 6.757L400 345z"/><path fill="#ff9800" d="M658.003 117.47q14.22 16.123 26.321 33.892t21.897 36.906L400 345l258.003-227.531"/><path fill="none" stroke="#fff" stroke-linejoin="bevel" stroke-width="2" d="M658.003 117.47q14.22 16.123 26.321 33.892t21.897 36.906L400 345l258.003-227.531Z"/><path fill="#f44336" d="M706.22 188.268q3.848 7.518 7.322 15.215t6.567 15.555 5.795 15.859 5.01 16.124q2.307 8.123 4.212 16.35 1.906 8.227 3.406 16.537t2.59 16.685 1.768 16.791.942 16.858.113 16.885-.714 16.869-1.542 16.814-2.365 16.717-3.183 16.582q-1.794 8.252-3.992 16.406t-4.792 16.19-5.581 15.935q-2.986 7.9-6.356 15.642-3.37 7.744-7.116 15.312t-7.86 14.944q-4.112 7.375-8.582 14.54t-9.286 14.102-9.966 13.629q-5.15 6.692-10.623 13.124-5.473 6.43-11.255 12.586-5.781 6.155-11.858 12.02-6.077 5.863-12.434 11.422t-12.98 10.799q-6.621 5.24-13.493 10.15-6.871 4.908-13.975 9.474t-14.424 8.778-14.836 8.059q-4.89 2.503-9.858 4.848-4.967 2.346-10.007 4.531-5.04 2.186-10.147 4.21t-10.276 3.883-10.395 3.552-10.503 3.22q-5.277 1.525-10.6 2.882-5.323 1.356-10.687 2.542t-10.763 2.2-10.828 1.855-10.88 1.509-10.925 1.16q-5.47.493-10.955.81-5.484.318-10.976.461-5.491.143-10.984.11t-10.983-.241q-5.49-.208-10.97-.592-5.48-.383-10.944-.941t-10.91-1.29q-5.444-.733-10.862-1.638-5.418-.906-10.804-1.985-5.387-1.078-10.736-2.328t-10.656-2.67-10.565-3.008-10.464-3.344-10.352-3.677-10.229-4.005q-5.082-2.085-10.096-4.33-5.013-2.246-9.952-4.65-4.94-2.405-9.8-4.966-4.859-2.561-9.635-5.276t-9.462-5.58q-7.204-4.407-14.184-9.16-6.98-4.755-13.717-9.845-6.738-5.091-13.218-10.506-6.48-5.416-12.686-11.142-6.206-5.727-12.124-11.751t-11.533-12.332q-5.616-6.307-10.914-12.882-5.3-6.576-10.27-13.403t-9.598-13.89-8.906-14.345q-4.277-7.282-8.191-14.765-3.914-7.482-7.457-15.148t-6.704-15.496T75.09 458t-5.154-16.079-4.358-16.312-3.552-16.506-2.739-16.661q-1.164-8.364-1.917-16.775t-1.092-16.85q-.34-8.437-.264-16.881.075-8.445.564-16.875.49-8.43 1.392-16.827.903-8.397 2.216-16.739t3.035-16.609q1.721-8.267 3.846-16.44t4.648-16.233 5.439-15.984 6.216-15.698 6.98-15.374 7.725-15.014 8.453-14.616q2.866-4.686 5.88-9.279 3.014-4.592 6.174-9.086 3.159-4.494 6.46-8.885t6.74-8.674 7.015-8.455q3.575-4.17 7.28-8.226 3.707-4.054 7.54-7.989t7.791-7.744 8.035-7.492q4.077-3.682 8.269-7.232t8.496-6.964 8.714-6.689 8.923-6.407 9.123-6.119 9.314-5.825 9.495-5.524 9.667-5.218 9.829-4.907 9.98-4.591 10.121-4.27 10.253-3.944T292 18.393t10.484-3.282 10.583-2.945 10.672-2.606 10.75-2.264 10.815-1.92 10.872-1.573 10.917-1.225 10.95-.877 10.973-.526T400 1v344z"/><path fill="none" stroke="#fff" stroke-linejoin="bevel" stroke-width="2" d="M706.22 188.268q3.848 7.518 7.322 15.215t6.567 15.555 5.795 15.859 5.01 16.124q2.307 8.123 4.212 16.35 1.906 8.227 3.406 16.537t2.59 16.685 1.768 16.791.942 16.858.113 16.885-.714 16.869-1.542 16.814-2.365 16.717-3.183 16.582q-1.794 8.252-3.992 16.406t-4.792 16.19-5.581 15.935q-2.986 7.9-6.356 15.642-3.37 7.744-7.116 15.312t-7.86 14.944q-4.112 7.375-8.582 14.54t-9.286 14.102-9.966 13.629q-5.15 6.692-10.623 13.124-5.473 6.43-11.255 12.586-5.781 6.155-11.858 12.02-6.077 5.863-12.434 11.422t-12.98 10.799q-6.621 5.24-13.493 10.15-6.871 4.908-13.975 9.474t-14.424 8.778-14.836 8.059q-4.89 2.503-9.858 4.848-4.967 2.346-10.007 4.531-5.04 2.186-10.147 4.21t-10.276 3.883-10.395 3.552-10.503 3.22q-5.277 1.525-10.6 2.882-5.323 1.356-10.687 2.542t-10.763 2.2-10.828 1.855-10.88 1.509-10.925 1.16q-5.47.493-10.955.81-5.484.318-10.976.461-5.491.143-10.984.11t-10.983-.241q-5.49-.208-10.97-.592-5.48-.383-10.944-.941t-10.91-1.29q-5.444-.733-10.862-1.638-5.418-.906-10.804-1.985-5.387-1.078-10.736-2.328t-10.656-2.67-10.565-3.008-10.464-3.344-10.352-3.677-10.229-4.005q-5.082-2.085-10.096-4.33-5.013-2.246-9.952-4.65-4.94-2.405-9.8-4.966-4.859-2.561-9.635-5.276t-9.462-5.58q-7.204-4.407-14.184-9.16-6.98-4.755-13.717-9.845-6.738-5.091-13.218-10.506-6.48-5.416-12.686-11.142-6.206-5.727-12.124-11.751t-11.533-12.332q-5.616-6.307-10.914-12.882-5.3-6.576-10.27-13.403t-9.598-13.89-8.906-14.345q-4.277-7.282-8.191-14.765-3.914-7.482-7.457-15.148t-6.704-15.496T75.09 458t-5.154-16.079-4.358-16.312-3.552-16.506-2.739-16.661q-1.164-8.364-1.917-16.775t-1.092-16.85q-.34-8.437-.264-16.881.075-8.445.564-16.875.49-8.43 1.392-16.827.903-8.397 2.216-16.739t3.035-16.609q1.721-8.267 3.846-16.44t4.648-16.233 5.439-15.984 6.216-15.698 6.98-15.374 7.725-15.014 8.453-14.616q2.866-4.686 5.88-9.279 3.014-4.592 6.174-9.086 3.159-4.494 6.46-8.885t6.74-8.674 7.015-8.455q3.575-4.17 7.28-8.226 3.707-4.054 7.54-7.989t7.791-7.744 8.035-7.492q4.077-3.682 8.269-7.232t8.496-6.964 8.714-6.689 8.923-6.407 9.123-6.119 9.314-5.825 9.495-5.524 9.667-5.218 9.829-4.907 9.98-4.591 10.121-4.27 10.253-3.944T292 18.393t10.484-3.282 10.583-2.945 10.672-2.606 10.75-2.264 10.815-1.92 10.872-1.573 10.917-1.225 10.95-.877 10.973-.526T400 1v344l306.22-156.732Z"/></svg>