<svg xmlns="http://www.w3.org/2000/svg" width="800" height="800"><path fill="none" d="M0 0h800v800H0z"/><clipPath id="a"><path d="M0 740h800v60H0z"/></clipPath><g clip-path="url(#a)"><path fill="#4caf50" d="M144.605 770h40v20h-40z"/><path fill="none" stroke="#fff" stroke-miterlimit="10" stroke-width="2" d="M144.605 770h40v20h-40z"/><text x="194.605, 207.94484, 217.50539, 230.38625, 240.64992, 248.68703, 260.52295," y="787.5," fill="#666" font-family="DejaVu Serif" font-size="20">Trusted</text><path fill="#ff9800" d="M303.325 770h40v20h-40z"/><path fill="none" stroke="#fff" stroke-miterlimit="10" stroke-width="2" d="M303.325 770h40v20h-40z"/><text x="353.32501, 366.78204, 376.34259, 388.38361, 399.68243, 411.51837, 424.39923, 436.32306, 449.20392, 460.40509," y="787.5," fill="#666" font-family="DejaVu Serif" font-size="20">Provenance</text><path fill="#f44336" d="M502.245 770h40v20h-40z"/><path fill="none" stroke="#fff" stroke-miterlimit="10" stroke-width="2" d="M502.245 770h40v20h-40z"/><text x="552.245, 569.10046, 581.98132, 590.01843, 599.57898, 612.45984, 622.72351, 630.76062, 642.59656," y="787.5," fill="#666" font-family="DejaVu Serif" font-size="20">Untrusted</text></g><path fill="#4caf50" d="M400 1q6.62 0 13.234.237 6.615.238 13.217.712 6.602.475 13.183 1.186 6.581.71 13.132 1.657T465.83 6.92t12.98 2.594 12.878 3.059 12.76 3.518 12.626 3.974 12.475 4.424q6.197 2.323 12.308 4.868t12.126 5.307 11.927 5.738 11.715 6.163 11.485 6.578q5.684 3.392 11.243 6.986L400 370z"/><path fill="none" stroke="#fff" stroke-linejoin="bevel" stroke-width="2" d="M400 1q6.62 0 13.234.237 6.615.238 13.217.712 6.602.475 13.183 1.186 6.581.71 13.132 1.657T465.83 6.92t12.98 2.594 12.878 3.059 12.76 3.518 12.626 3.974 12.475 4.424q6.197 2.323 12.308 4.868t12.126 5.307 11.927 5.738 11.715 6.163 11.485 6.578q5.684 3.392 11.243 6.986L400 370z"/><path fill="#ff9800" d="M600.353 60.13q11.26 7.28 21.96 15.358 10.702 8.078 20.79 16.911 10.086 8.834 19.506 18.376t18.121 19.743L400 370z"/><path fill="none" stroke="#fff" stroke-linejoin="bevel" stroke-width="2" d="M600.353 60.13q11.26 7.28 21.96 15.358 10.702 8.078 20.79 16.911 10.086 8.834 19.506 18.376t18.121 19.743L400 370 600.353 60.13Z"/><path fill="#f44336" d="M680.73 130.518q5.879 6.892 11.413 14.063 5.533 7.172 10.709 14.607t9.979 15.114 9.225 15.585 8.45 16.02 7.654 16.415 6.839 16.77 6.007 17.086 5.163 17.36 4.304 17.593 3.436 17.782q1.5 8.934 2.559 17.93t1.676 18.034q.616 9.037.789 18.094t-.1 18.111q-.272 9.055-.988 18.085t-1.874 18.014-2.756 17.9q-1.597 8.917-3.63 17.744t-4.498 17.544-5.352 17.303-6.196 17.019-7.022 16.694-7.834 16.33-8.625 15.926-9.396 15.483q-4.889 7.626-10.145 15.004-5.257 7.377-10.869 14.487t-11.566 13.937-12.237 13.353-12.877 12.736q-6.594 6.21-13.486 12.089-4.995 4.26-10.138 8.341t-10.428 7.975q-5.284 3.895-10.704 7.6t-10.969 7.213-11.218 6.82-11.454 6.415-11.674 6.004-11.881 5.585-12.072 5.158-12.248 4.727q-6.166 2.254-12.408 4.287-6.243 2.033-12.553 3.843t-12.682 3.395q-6.37 1.584-12.794 2.94-6.423 1.358-12.89 2.485-6.468 1.128-12.972 2.024t-13.035 1.562q-6.531.664-13.082 1.096-6.55.432-13.113.63-6.562.2-13.127.165t-13.124-.303q-6.56-.269-13.106-.77-6.546-.502-13.07-1.236t-13.017-1.7-12.949-2.161-12.864-2.621-12.762-3.077-12.645-3.53q-6.291-1.876-12.511-3.976t-12.362-4.419q-6.142-2.32-12.197-4.856t-12.017-5.286q-8.225-3.795-16.254-7.989t-15.843-8.777-15.393-9.543-14.906-10.287-14.384-11.006-13.826-11.7q-6.77-6.018-13.235-12.362-6.466-6.344-12.613-12.998t-11.96-13.6-11.279-14.172-10.569-14.708-9.835-15.208-9.076-15.673-8.297-16.1q-3.951-8.15-7.497-16.486t-6.679-16.835q-3.133-8.5-5.845-17.143-2.712-8.642-4.996-17.408t-4.137-17.633-3.266-17.814-2.388-17.954q-.974-9.006-1.504-18.048-.531-9.043-.617-18.101-.087-9.058.272-18.11.358-9.051 1.16-18.074t2.046-17.996 2.926-17.873q1.682-8.9 3.8-17.708t4.664-17.5q2.547-8.694 5.517-17.252t6.357-16.959q3.387-8.401 7.181-16.626 2.75-5.962 5.711-11.821 2.96-5.86 6.128-11.61 3.167-5.751 6.537-11.385 3.37-5.635 6.937-11.145 3.568-5.511 7.33-10.892t7.713-10.623 8.085-10.343 8.449-10.048 8.8-9.742 9.141-9.422 9.471-9.092q4.816-4.46 9.788-8.748t10.093-8.395q5.122-4.108 10.386-8.03 5.264-3.923 10.664-7.656 5.4-3.734 10.93-7.272t11.182-6.879 11.42-6.476 11.642-6.066 11.851-5.648 12.045-5.223q6.068-2.504 12.222-4.79 6.154-2.288 12.385-4.354 6.232-2.067 12.533-3.91 6.3-1.844 12.663-3.462t12.779-3.009q6.416-1.39 12.877-2.553 6.461-1.161 12.96-2.092 6.499-.932 13.027-1.631 6.527-.7 13.076-1.166 6.548-.467 13.109-.7Q393.434 1 400 1v369z"/><path fill="none" stroke="#fff" stroke-linejoin="bevel" stroke-width="2" d="M680.73 130.518q5.879 6.892 11.413 14.063 5.533 7.172 10.709 14.607t9.979 15.114 9.225 15.585 8.45 16.02 7.654 16.415 6.839 16.77 6.007 17.086 5.163 17.36 4.304 17.593 3.436 17.782q1.5 8.934 2.559 17.93t1.676 18.034q.616 9.037.789 18.094t-.1 18.111q-.272 9.055-.988 18.085t-1.874 18.014-2.756 17.9q-1.597 8.917-3.63 17.744t-4.498 17.544-5.352 17.303-6.196 17.019-7.022 16.694-7.834 16.33-8.625 15.926-9.396 15.483q-4.889 7.626-10.145 15.004-5.257 7.377-10.869 14.487t-11.566 13.937-12.237 13.353-12.877 12.736q-6.594 6.21-13.486 12.089-4.995 4.26-10.138 8.341t-10.428 7.975q-5.284 3.895-10.704 7.6t-10.969 7.213-11.218 6.82-11.454 6.415-11.674 6.004-11.881 5.585-12.072 5.158-12.248 4.727q-6.166 2.254-12.408 4.287-6.243 2.033-12.553 3.843t-12.682 3.395q-6.37 1.584-12.794 2.94-6.423 1.358-12.89 2.485-6.468 1.128-12.972 2.024t-13.035 1.562q-6.531.664-13.082 1.096-6.55.432-13.113.63-6.562.2-13.127.165t-13.124-.303q-6.56-.269-13.106-.77-6.546-.502-13.07-1.236t-13.017-1.7-12.949-2.161-12.864-2.621-12.762-3.077-12.645-3.53q-6.291-1.876-12.511-3.976t-12.362-4.419q-6.142-2.32-12.197-4.856t-12.017-5.286q-8.225-3.795-16.254-7.989t-15.843-8.777-15.393-9.543-14.906-10.287-14.384-11.006-13.826-11.7q-6.77-6.018-13.235-12.362-6.466-6.344-12.613-12.998t-11.96-13.6-11.279-14.172-10.569-14.708-9.835-15.208-9.076-15.673-8.297-16.1q-3.951-8.15-7.497-16.486t-6.679-16.835q-3.133-8.5-5.845-17.143-2.712-8.642-4.996-17.408t-4.137-17.633-3.266-17.814-2.388-17.954q-.974-9.006-1.504-18.048-.531-9.043-.617-18.101-.087-9.058.272-18.11.358-9.051 1.16-18.074t2.046-17.996 2.926-17.873q1.682-8.9 3.8-17.708t4.664-17.5q2.547-8.694 5.517-17.252t6.357-16.959q3.387-8.401 7.181-16.626 2.75-5.962 5.711-11.821 2.96-5.86 6.128-11.61 3.167-5.751 6.537-11.385 3.37-5.635 6.937-11.145 3.568-5.511 7.33-10.892t7.713-10.623 8.085-10.343 8.449-10.048 8.8-9.742 9.141-9.422 9.471-9.092q4.816-4.46 9.788-8.748t10.093-8.395q5.122-4.108 10.386-8.03 5.264-3.923 10.664-7.656 5.4-3.734 10.93-7.272t11.182-6.879 11.42-6.476 11.642-6.066 11.851-5.648 12.045-5.223q6.068-2.504 12.222-4.79 6.154-2.288 12.385-4.354 6.232-2.067 12.533-3.91 6.3-1.844 12.663-3.462t12.779-3.009q6.416-1.39 12.877-2.553 6.461-1.161 12.96-2.092 6.499-.932 13.027-1.631 6.527-.7 13.076-1.166 6.548-.467 13.109-.7Q393.434 1 400 1v369l280.73-239.482Z"/></svg>