<svg xmlns="http://www.w3.org/2000/svg" width="800" height="800"><path fill="none" d="M0 0h800v800H0z"/><clipPath id="a"><path d="M0 740h800v60H0z"/></clipPath><g clip-path="url(#a)"><path fill="#4caf50" d="M144.605 770h40v20h-40z"/><path fill="none" stroke="#fff" stroke-miterlimit="10" stroke-width="2" d="M144.605 770h40v20h-40z"/><text x="194.605, 207.94484, 217.50539, 230.38625, 240.64992, 248.68703, 260.52295," y="787.5," fill="#666" font-family="DejaVu Serif" font-size="20">Trusted</text><path fill="#ff9800" d="M303.325 770h40v20h-40z"/><path fill="none" stroke="#fff" stroke-miterlimit="10" stroke-width="2" d="M303.325 770h40v20h-40z"/><text x="353.32501, 366.78204, 376.34259, 388.38361, 399.68243, 411.51837, 424.39923, 436.32306, 449.20392, 460.40509," y="787.5," fill="#666" font-family="DejaVu Serif" font-size="20">Provenance</text><path fill="#f44336" d="M502.245 770h40v20h-40z"/><path fill="none" stroke="#fff" stroke-miterlimit="10" stroke-width="2" d="M502.245 770h40v20h-40z"/><text x="552.245, 569.10046, 581.98132, 590.01843, 599.57898, 612.45984, 622.72351, 630.76062, 642.59656," y="787.5," fill="#666" font-family="DejaVu Serif" font-size="20">Untrusted</text></g><path fill="#4caf50" d="M400 1q8.458 0 16.907.388 8.45.387 16.872 1.161 8.423.775 16.801 1.934 8.379 1.16 16.695 2.702t16.553 3.463 16.378 4.218 16.166 4.965q8.027 2.667 15.923 5.7 7.896 3.032 15.644 6.423t15.334 7.134 14.99 7.828 14.617 8.508 14.211 9.168q7 4.746 13.776 9.81 6.776 5.062 13.312 10.43 6.537 5.367 12.82 11.03L400 370z"/><path fill="none" stroke="#fff" stroke-linejoin="bevel" stroke-width="2" d="M400 1q8.458 0 16.907.388 8.45.387 16.872 1.161 8.423.775 16.801 1.934 8.379 1.16 16.695 2.702t16.553 3.463 16.378 4.218 16.166 4.965q8.027 2.667 15.923 5.7 7.896 3.032 15.644 6.423t15.334 7.134 14.99 7.828 14.617 8.508 14.211 9.168q7 4.746 13.776 9.81 6.776 5.062 13.312 10.43 6.537 5.367 12.82 11.03L400 370z"/><path fill="#ff9800" d="M647 95.861q9.44 8.506 18.273 17.64 8.833 9.136 17.016 18.857 8.184 9.721 15.68 19.982 7.495 10.261 14.267 21.013L400 370z"/><path fill="none" stroke="#fff" stroke-linejoin="bevel" stroke-width="2" d="M647 95.861q9.44 8.506 18.273 17.64 8.833 9.136 17.016 18.857 8.184 9.721 15.68 19.982 7.495 10.261 14.267 21.013L400 370 647 95.861Z"/><path fill="#f44336" d="M712.235 173.353q4.828 7.665 9.273 15.558 4.446 7.892 8.499 15.993 4.053 8.102 7.703 16.392t6.89 16.75 6.06 17.067q2.82 8.609 5.214 17.345t4.358 17.58q1.963 8.842 3.49 17.771 1.526 8.93 2.613 17.922t1.73 18.029q.645 9.035.845 18.091t-.045 18.112-.933 18.087q-.688 9.032-1.82 18.02-1.13 8.988-2.7 17.909t-3.578 17.754-4.444 17.558q-2.437 8.725-5.3 17.319t-6.143 17.037-6.972 16.716-7.784 16.353-8.577 15.952-9.35 15.512-10.099 15.034q-5.234 7.394-10.824 14.521t-11.524 13.972-12.196 13.39-12.839 12.775-13.45 12.13-14.028 11.455-14.573 10.753q-7.42 5.198-15.084 10.025-5.203 3.277-10.513 6.38-5.31 3.101-10.72 6.024t-10.913 5.665-11.097 5.297-11.268 4.925q-5.674 2.369-11.425 4.547-5.75 2.178-11.57 4.164t-11.702 3.776-11.822 3.383-11.928 2.988q-5.99 1.395-12.021 2.59t-12.1 2.186-12.167 1.783q-6.099.79-12.22 1.376t-12.258.968-12.284.56q-6.147.177-12.296.15-6.149-.028-12.294-.26-6.144-.233-12.278-.67t-12.25-1.079q-6.115-.64-12.206-1.485t-12.15-1.892q-6.06-1.047-12.08-2.296t-11.998-2.697-11.9-3.095q-5.925-1.646-11.791-3.49-5.867-1.842-11.668-3.88-5.802-2.038-11.533-4.267t-11.384-4.65-11.222-5.026-11.05-5.397-10.862-5.762q-7.93-4.378-15.637-9.14-7.706-4.76-15.169-9.894t-14.665-10.628q-7.203-5.494-14.127-11.335-6.924-5.84-13.553-12.014t-12.947-12.664-12.31-13.285q-5.993-6.793-11.644-13.872-5.652-7.08-10.95-14.428t-10.227-14.947-9.482-15.43-8.714-15.878-7.924-16.286-7.115-16.655-6.29-16.985q-2.936-8.57-5.448-17.272-2.512-8.703-4.594-17.52-2.083-8.815-3.73-17.722t-2.855-17.885q-1.208-8.978-1.974-18.004t-1.088-18.079q-.323-9.052-.2-18.11.122-9.058.689-18.098.566-9.041 1.576-18.043t2.46-17.944 3.336-17.801 4.207-17.616q2.32-8.757 5.065-17.389 2.747-8.632 5.913-17.119t6.746-16.808 7.562-16.457q3.984-8.136 8.361-16.066 2.972-5.384 6.121-10.665t6.473-10.455 6.818-10.234 7.155-10q3.66-4.941 7.484-9.757t7.805-9.502q3.982-4.686 8.117-9.237 4.136-4.55 8.421-8.96t8.715-8.676 8.998-8.38q4.57-4.115 9.273-8.076 4.704-3.96 9.537-7.762t9.79-7.44q4.957-3.64 10.033-7.11 5.076-3.472 10.264-6.772 5.189-3.3 10.484-6.426 5.296-3.126 10.692-6.073 5.397-2.948 10.889-5.714t11.073-5.347 11.245-4.976 11.405-4.598 11.55-4.215q5.812-2.012 11.686-3.829 5.875-1.817 11.807-3.437t11.914-3.041 12.01-2.643 12.09-2.241 12.159-1.837 12.213-1.431 12.254-1.024 12.281-.614T400 1v369z"/><path fill="none" stroke="#fff" stroke-linejoin="bevel" stroke-width="2" d="M712.235 173.353q4.828 7.665 9.273 15.558 4.446 7.892 8.499 15.993 4.053 8.102 7.703 16.392t6.89 16.75 6.06 17.067q2.82 8.609 5.214 17.345t4.358 17.58q1.963 8.842 3.49 17.771 1.526 8.93 2.613 17.922t1.73 18.029q.645 9.035.845 18.091t-.045 18.112-.933 18.087q-.688 9.032-1.82 18.02-1.13 8.988-2.7 17.909t-3.578 17.754-4.444 17.558q-2.437 8.725-5.3 17.319t-6.143 17.037-6.972 16.716-7.784 16.353-8.577 15.952-9.35 15.512-10.099 15.034q-5.234 7.394-10.824 14.521t-11.524 13.972-12.196 13.39-12.839 12.775-13.45 12.13-14.028 11.455-14.573 10.753q-7.42 5.198-15.084 10.025-5.203 3.277-10.513 6.38-5.31 3.101-10.72 6.024t-10.913 5.665-11.097 5.297-11.268 4.925q-5.674 2.369-11.425 4.547-5.75 2.178-11.57 4.164t-11.702 3.776-11.822 3.383-11.928 2.988q-5.99 1.395-12.021 2.59t-12.1 2.186-12.167 1.783q-6.099.79-12.22 1.376t-12.258.968-12.284.56q-6.147.177-12.296.15-6.149-.028-12.294-.26-6.144-.233-12.278-.67t-12.25-1.079q-6.115-.64-12.206-1.485t-12.15-1.892q-6.06-1.047-12.08-2.296t-11.998-2.697-11.9-3.095q-5.925-1.646-11.791-3.49-5.867-1.842-11.668-3.88-5.802-2.038-11.533-4.267t-11.384-4.65-11.222-5.026-11.05-5.397-10.862-5.762q-7.93-4.378-15.637-9.14-7.706-4.76-15.169-9.894t-14.665-10.628q-7.203-5.494-14.127-11.335-6.924-5.84-13.553-12.014t-12.947-12.664-12.31-13.285q-5.993-6.793-11.644-13.872-5.652-7.08-10.95-14.428t-10.227-14.947-9.482-15.43-8.714-15.878-7.924-16.286-7.115-16.655-6.29-16.985q-2.936-8.57-5.448-17.272-2.512-8.703-4.594-17.52-2.083-8.815-3.73-17.722t-2.855-17.885q-1.208-8.978-1.974-18.004t-1.088-18.079q-.323-9.052-.2-18.11.122-9.058.689-18.098.566-9.041 1.576-18.043t2.46-17.944 3.336-17.801 4.207-17.616q2.32-8.757 5.065-17.389 2.747-8.632 5.913-17.119t6.746-16.808 7.562-16.457q3.984-8.136 8.361-16.066 2.972-5.384 6.121-10.665t6.473-10.455 6.818-10.234 7.155-10q3.66-4.941 7.484-9.757t7.805-9.502q3.982-4.686 8.117-9.237 4.136-4.55 8.421-8.96t8.715-8.676 8.998-8.38q4.57-4.115 9.273-8.076 4.704-3.96 9.537-7.762t9.79-7.44q4.957-3.64 10.033-7.11 5.076-3.472 10.264-6.772 5.189-3.3 10.484-6.426 5.296-3.126 10.692-6.073 5.397-2.948 10.889-5.714t11.073-5.347 11.245-4.976 11.405-4.598 11.55-4.215q5.812-2.012 11.686-3.829 5.875-1.817 11.807-3.437t11.914-3.041 12.01-2.643 12.09-2.241 12.159-1.837 12.213-1.431 12.254-1.024 12.281-.614T400 1v369l312.236-196.647Z"/></svg>