<svg xmlns="http://www.w3.org/2000/svg" width="800" height="800"><path fill="none" d="M0 0h800v800H0z"/><clipPath id="a"><path d="M0 740h800v60H0z"/></clipPath><g clip-path="url(#a)"><path fill="#4caf50" d="M164.745 770h40v20h-40z"/><path fill="none" stroke="#fff" stroke-miterlimit="10" stroke-width="2" d="M164.745 770h40v20h-40z"/><text x="214.745, 226.2196, 232.87976, 244.00281, 254.00281, 259.55945, 270.6825," y="786.5," fill="#666" font-family="Liberation Sans" font-size="20">Trusted</text><path fill="#ff9800" d="M311.805 770h40v20h-40z"/><path fill="none" stroke="#fff" stroke-miterlimit="10" stroke-width="2" d="M311.805 770h40v20h-40z"/><text x="361.80499, 375.14484, 381.80499, 392.92804, 402.92804, 414.05109, 425.17413, 436.29718, 447.42023, 457.42023," y="786.5," fill="#666" font-family="Liberation Sans" font-size="20">Provenance</text><path fill="#f44336" d="M498.545 770h40v20h-40z"/><path fill="none" stroke="#fff" stroke-miterlimit="10" stroke-width="2" d="M498.545 770h40v20h-40z"/><text x="548.54498, 562.98834, 574.11139, 579.66803, 586.32819, 597.45123, 607.45123, 613.00787, 624.13092," y="786.5," fill="#666" font-family="Liberation Sans" font-size="20">Untrusted</text></g><path fill="#4caf50" d="M400 1q5.318 0 10.634.153 5.316.154 10.625.46t10.607.766 10.58 1.07q5.284.612 10.546 1.376 5.263.764 10.502 1.679t10.449 1.98 10.387 2.282 10.317 2.579 10.24 2.876 10.15 3.17q5.054 1.657 10.057 3.46t9.952 3.749 9.84 4.034 9.72 4.317q4.828 2.228 9.59 4.594 4.763 2.366 9.455 4.87 4.693 2.502 9.311 5.139 4.618 2.636 9.159 5.405 4.54 2.77 8.999 5.668 4.458 2.898 8.832 5.924 4.373 3.026 8.657 6.176t8.476 6.424 8.287 6.665 8.092 6.9q3.996 3.51 7.89 7.132t7.68 7.355 7.466 7.574q3.679 3.841 7.245 7.786 3.566 3.946 7.017 7.992 3.45 4.046 6.783 8.19t6.545 8.383L400 370z"/><path fill="none" stroke="#fff" stroke-linejoin="bevel" stroke-width="2" d="M400 1q5.318 0 10.634.153 5.316.154 10.625.46t10.607.766 10.58 1.07q5.284.612 10.546 1.376 5.263.764 10.502 1.679t10.449 1.98 10.387 2.282 10.317 2.579 10.24 2.876 10.15 3.17q5.054 1.657 10.057 3.46t9.952 3.749 9.84 4.034 9.72 4.317q4.828 2.228 9.59 4.594 4.763 2.366 9.455 4.87 4.693 2.502 9.311 5.139 4.618 2.636 9.159 5.405 4.54 2.77 8.999 5.668 4.458 2.898 8.832 5.924 4.373 3.026 8.657 6.176t8.476 6.424 8.287 6.665 8.092 6.9q3.996 3.51 7.89 7.132t7.68 7.355 7.466 7.574q3.679 3.841 7.245 7.786 3.566 3.946 7.017 7.992 3.45 4.046 6.783 8.19t6.545 8.383L400 370z"/><path fill="#ff9800" d="M694.09 147.128q13.221 17.446 24.287 36.332t19.82 38.949L400 370z"/><path fill="none" stroke="#fff" stroke-linejoin="bevel" stroke-width="2" d="M694.09 147.128q13.221 17.446 24.287 36.332t19.82 38.949L400 370l294.09-222.872Z"/><path fill="#f44336" d="M738.198 222.408q3.623 8.303 6.834 16.773 3.212 8.47 6.004 17.087 2.792 8.618 5.157 17.362t4.3 17.593 3.431 17.784 2.555 17.93 1.671 18.034.785 18.095-.104 18.11q-.275 9.055-.993 18.085t-1.879 18.014q-1.16 8.984-2.76 17.9t-3.636 17.742-4.502 17.543-5.357 17.302-6.2 17.017q-3.308 8.432-7.026 16.692T728.64 537.8t-8.63 15.924-9.4 15.48q-4.89 7.626-10.148 15.002-5.259 7.375-10.872 14.485-5.615 7.109-11.57 13.934-5.957 6.824-12.24 13.349t-12.88 12.733-13.49 12.085-14.066 11.41q-7.173 5.531-14.61 10.705-7.435 5.173-15.116 9.975-7.68 4.802-15.588 9.222t-16.022 8.445q-8.114 4.027-16.416 7.65-5.238 2.286-10.545 4.408t-10.675 4.08-10.797 3.747-10.908 3.411-11.008 3.072-11.098 2.73q-5.57 1.278-11.177 2.384t-11.246 2.036q-5.639.932-11.303 1.688-5.665.757-11.35 1.337-5.686.58-11.387.985-5.7.404-11.41.632-5.711.227-11.426.278-5.715.05-11.429-.076-5.713-.127-11.42-.43-5.707-.304-11.402-.784t-11.372-1.136-11.332-1.487q-5.654-.832-11.28-1.838t-11.217-2.186-11.145-2.533-11.06-2.877-10.967-3.217-10.861-3.556-10.746-3.89-10.62-4.222-10.485-4.548-10.34-4.87q-5.13-2.516-10.182-5.19-5.051-2.673-10.018-5.5-4.966-2.83-9.842-5.81t-9.657-6.111q-7.58-4.962-14.905-10.29-7.327-5.327-14.383-11.007t-13.824-11.7-13.234-12.366q-6.465-6.344-12.611-12.999-6.147-6.654-11.959-13.602t-11.276-14.173q-5.464-7.225-10.567-14.709-5.104-7.484-9.833-15.21-4.73-7.725-9.075-15.673t-8.295-16.1q-3.95-8.153-7.495-16.489t-6.676-16.836-5.843-17.143-4.994-17.409-4.134-17.633q-1.851-8.868-3.264-17.815-1.414-8.948-2.386-17.954t-1.502-18.049-.615-18.1q-.085-9.059.275-18.11t1.162-18.074 2.048-17.995q1.245-8.973 2.929-17.874t3.802-17.707 4.666-17.5 5.52-17.25q2.97-8.558 6.359-16.959 3.387-8.4 7.183-16.626 3.796-8.224 7.991-16.253t8.779-15.842 9.545-15.391q3.13-4.782 6.407-9.464t6.697-9.261 6.981-9.049 7.258-8.828 7.527-8.6 7.79-8.362q3.96-4.12 8.046-8.117 4.086-3.996 8.293-7.864 4.208-3.868 8.533-7.603 4.325-3.736 8.764-7.336t8.987-7.06q4.548-3.46 9.2-6.779 4.654-3.318 9.407-6.49t9.604-6.197 9.79-5.895 9.969-5.59q5.027-2.718 10.136-5.278 5.11-2.561 10.296-4.962 5.186-2.402 10.444-4.641 5.258-2.24 10.582-4.315t10.712-3.986 10.83-3.651q5.442-1.742 10.937-3.315T309.5 12.27 320.62 9.64t11.198-2.285q5.617-1.056 11.264-1.938T354.4 3.828t11.362-1.236 11.394-.884 11.417-.531T400 1v369z"/><path fill="none" stroke="#fff" stroke-linejoin="bevel" stroke-width="2" d="M738.198 222.408q3.623 8.303 6.834 16.773 3.212 8.47 6.004 17.087 2.792 8.618 5.157 17.362t4.3 17.593 3.431 17.784 2.555 17.93 1.671 18.034.785 18.095-.104 18.11q-.275 9.055-.993 18.085t-1.879 18.014q-1.16 8.984-2.76 17.9t-3.636 17.742-4.502 17.543-5.357 17.302-6.2 17.017q-3.308 8.432-7.026 16.692T728.64 537.8t-8.63 15.924-9.4 15.48q-4.89 7.626-10.148 15.002-5.259 7.375-10.872 14.485-5.615 7.109-11.57 13.934-5.957 6.824-12.24 13.349t-12.88 12.733-13.49 12.085-14.066 11.41q-7.173 5.531-14.61 10.705-7.435 5.173-15.116 9.975-7.68 4.802-15.588 9.222t-16.022 8.445q-8.114 4.027-16.416 7.65-5.238 2.286-10.545 4.408t-10.675 4.08-10.797 3.747-10.908 3.411-11.008 3.072-11.098 2.73q-5.57 1.278-11.177 2.384t-11.246 2.036q-5.639.932-11.303 1.688-5.665.757-11.35 1.337-5.686.58-11.387.985-5.7.404-11.41.632-5.711.227-11.426.278-5.715.05-11.429-.076-5.713-.127-11.42-.43-5.707-.304-11.402-.784t-11.372-1.136-11.332-1.487q-5.654-.832-11.28-1.838t-11.217-2.186-11.145-2.533-11.06-2.877-10.967-3.217-10.861-3.556-10.746-3.89-10.62-4.222-10.485-4.548-10.34-4.87q-5.13-2.516-10.182-5.19-5.051-2.673-10.018-5.5-4.966-2.83-9.842-5.81t-9.657-6.111q-7.58-4.962-14.905-10.29-7.327-5.327-14.383-11.007t-13.824-11.7-13.234-12.366q-6.465-6.344-12.611-12.999-6.147-6.654-11.959-13.602t-11.276-14.173q-5.464-7.225-10.567-14.709-5.104-7.484-9.833-15.21-4.73-7.725-9.075-15.673t-8.295-16.1q-3.95-8.153-7.495-16.489t-6.676-16.836-5.843-17.143-4.994-17.409-4.134-17.633q-1.851-8.868-3.264-17.815-1.414-8.948-2.386-17.954t-1.502-18.049-.615-18.1q-.085-9.059.275-18.11t1.162-18.074 2.048-17.995q1.245-8.973 2.929-17.874t3.802-17.707 4.666-17.5 5.52-17.25q2.97-8.558 6.359-16.959 3.387-8.4 7.183-16.626 3.796-8.224 7.991-16.253t8.779-15.842 9.545-15.391q3.13-4.782 6.407-9.464t6.697-9.261 6.981-9.049 7.258-8.828 7.527-8.6 7.79-8.362q3.96-4.12 8.046-8.117 4.086-3.996 8.293-7.864 4.208-3.868 8.533-7.603 4.325-3.736 8.764-7.336t8.987-7.06q4.548-3.46 9.2-6.779 4.654-3.318 9.407-6.49t9.604-6.197 9.79-5.895 9.969-5.59q5.027-2.718 10.136-5.278 5.11-2.561 10.296-4.962 5.186-2.402 10.444-4.641 5.258-2.24 10.582-4.315t10.712-3.986 10.83-3.651q5.442-1.742 10.937-3.315T309.5 12.27 320.62 9.64t11.198-2.285q5.617-1.056 11.264-1.938T354.4 3.828t11.362-1.236 11.394-.884 11.417-.531T400 1v369l338.198-147.592Z"/></svg>