<svg xmlns="http://www.w3.org/2000/svg" width="800" height="800"><path fill="none" d="M0 0h800v800H0z"/><clipPath id="a"><path d="M0 740h800v60H0z"/></clipPath><g clip-path="url(#a)"><path fill="#4caf50" d="M144.605 770h40v20h-40z"/><path fill="none" stroke="#fff" stroke-miterlimit="10" stroke-width="2" d="M144.605 770h40v20h-40z"/><text x="194.605, 207.94484, 217.50539, 230.38625, 240.64992, 248.68703, 260.52295," y="787.5," fill="#666" font-family="DejaVu Serif" font-size="20">Trusted</text><path fill="#ff9800" d="M303.325 770h40v20h-40z"/><path fill="none" stroke="#fff" stroke-miterlimit="10" stroke-width="2" d="M303.325 770h40v20h-40z"/><text x="353.32501, 366.78204, 376.34259, 388.38361, 399.68243, 411.51837, 424.39923, 436.32306, 449.20392, 460.40509," y="787.5," fill="#666" font-family="DejaVu Serif" font-size="20">Provenance</text><path fill="#f44336" d="M502.245 770h40v20h-40z"/><path fill="none" stroke="#fff" stroke-miterlimit="10" stroke-width="2" d="M502.245 770h40v20h-40z"/><text x="552.245, 569.10046, 581.98132, 590.01843, 599.57898, 612.45984, 622.72351, 630.76062, 642.59656," y="787.5," fill="#666" font-family="DejaVu Serif" font-size="20">Untrusted</text></g><path fill="#4caf50" d="M400 1q6.794 0 13.584.25T427.15 2t13.528 1.249 13.474 1.746 13.4 2.241 13.309 2.733 13.199 3.22 13.071 3.705 12.927 4.183 12.763 4.656 12.583 5.123 12.387 5.583 12.172 6.035 11.942 6.479 11.696 6.914 11.433 7.34L400 370z"/><path fill="none" stroke="#fff" stroke-linejoin="bevel" stroke-width="2" d="M400 1q6.794 0 13.584.25T427.15 2t13.528 1.249 13.474 1.746 13.4 2.241 13.309 2.733 13.199 3.22 13.071 3.705 12.927 4.183 12.763 4.656 12.583 5.123 12.387 5.583 12.172 6.035 11.942 6.479 11.696 6.914 11.433 7.34L400 370z"/><path fill="#ff9800" d="M605.034 63.207q11.083 7.407 21.602 15.594t20.422 17.112 19.133 18.541 17.745 19.874L400 370z"/><path fill="none" stroke="#fff" stroke-linejoin="bevel" stroke-width="2" d="M605.034 63.207q11.083 7.407 21.602 15.594t20.422 17.112 19.133 18.541 17.745 19.874L400 370 605.034 63.207Z"/><path fill="#f44336" d="M683.936 134.328q5.785 6.97 11.222 14.216t10.51 14.75 9.775 15.247 9.015 15.709 8.232 16.132 7.432 16.516 6.612 16.862q3.099 8.511 5.776 17.165 2.678 8.654 4.928 17.428t4.066 17.65 3.196 17.827 2.317 17.962q.937 9.01 1.432 18.055t.545 18.103-.344 18.108-1.232 18.07q-.837 9.02-2.117 17.987-1.28 8.968-2.997 17.862-1.718 8.894-3.87 17.693t-4.733 17.482-5.586 17.228-6.424 16.934-7.248 16.598-8.053 16.223-8.84 15.808-9.604 15.355-10.346 14.865-11.063 14.34-11.754 13.78-12.415 13.186-13.048 12.561-13.648 11.906q-5.022 4.168-10.188 8.156t-10.47 7.79q-5.303 3.804-10.738 7.416t-10.994 7.032q-5.56 3.418-11.236 6.638t-11.463 6.236-11.677 5.828-11.876 5.41-12.06 4.988q-6.074 2.387-12.228 4.558-6.155 2.17-12.382 4.122t-12.52 3.683-12.642 3.237-12.75 2.788q-6.398 1.281-12.839 2.336-6.44 1.054-12.914 1.88t-12.972 1.422q-6.5.596-13.015.963-6.516.366-13.04.501-6.525.136-13.05.04-6.526-.094-13.044-.42t-13.02-.882-12.982-1.342-12.925-1.8q-6.447-1.015-12.854-2.256-6.407-1.242-12.766-2.71t-12.662-3.158-12.543-3.605-12.407-4.046-12.256-4.482-12.09-4.913-11.91-5.337q-8.2-3.85-16.2-8.098t-15.783-8.884-15.328-9.647-14.837-10.387q-7.29-5.376-14.309-11.103t-13.747-11.792q-6.729-6.065-13.152-12.452t-12.525-13.082-11.868-13.682-11.182-14.247q-5.416-7.26-10.47-14.778-5.053-7.518-9.732-15.275t-8.97-15.733q-4.293-7.977-8.189-16.155t-7.385-16.538-6.565-16.88q-3.076-8.52-5.73-17.18-2.653-8.662-4.878-17.443-2.226-8.78-4.017-17.66t-3.146-17.836q-1.354-8.957-2.267-17.969t-1.383-18.058-.495-18.105.395-18.107 1.282-18.066q.863-9.018 2.167-17.982t3.047-17.853 3.919-17.682 4.782-17.469 5.633-17.213 6.472-16.916q3.443-8.378 7.293-16.578 2.774-5.907 5.755-11.713t6.165-11.502 6.569-11.276 6.963-11.038 7.349-10.784 7.726-10.518 8.092-10.238 8.45-9.945 8.796-9.64 9.132-9.324 9.455-8.994 9.768-8.655 10.068-8.304q5.107-4.062 10.354-7.942 5.248-3.88 10.63-7.572 5.381-3.691 10.89-7.19t11.138-6.802q5.63-3.302 11.371-6.403 5.743-3.101 11.591-5.997t11.796-5.583 11.985-5.163q6.039-2.476 12.16-4.736 6.123-2.26 12.321-4.303 6.199-2.042 12.465-3.864 6.267-1.822 12.594-3.422 6.327-1.599 12.707-2.974 6.38-1.374 12.804-2.522t12.885-2.068 12.95-1.612 13-1.152 13.032-.692T400 1v369z"/><path fill="none" stroke="#fff" stroke-linejoin="bevel" stroke-width="2" d="M683.936 134.328q5.785 6.97 11.222 14.216t10.51 14.75 9.775 15.247 9.015 15.709 8.232 16.132 7.432 16.516 6.612 16.862q3.099 8.511 5.776 17.165 2.678 8.654 4.928 17.428t4.066 17.65 3.196 17.827 2.317 17.962q.937 9.01 1.432 18.055t.545 18.103-.344 18.108-1.232 18.07q-.837 9.02-2.117 17.987-1.28 8.968-2.997 17.862-1.718 8.894-3.87 17.693t-4.733 17.482-5.586 17.228-6.424 16.934-7.248 16.598-8.053 16.223-8.84 15.808-9.604 15.355-10.346 14.865-11.063 14.34-11.754 13.78-12.415 13.186-13.048 12.561-13.648 11.906q-5.022 4.168-10.188 8.156t-10.47 7.79q-5.303 3.804-10.738 7.416t-10.994 7.032q-5.56 3.418-11.236 6.638t-11.463 6.236-11.677 5.828-11.876 5.41-12.06 4.988q-6.074 2.387-12.228 4.558-6.155 2.17-12.382 4.122t-12.52 3.683-12.642 3.237-12.75 2.788q-6.398 1.281-12.839 2.336-6.44 1.054-12.914 1.88t-12.972 1.422q-6.5.596-13.015.963-6.516.366-13.04.501-6.525.136-13.05.04-6.526-.094-13.044-.42t-13.02-.882-12.982-1.342-12.925-1.8q-6.447-1.015-12.854-2.256-6.407-1.242-12.766-2.71t-12.662-3.158-12.543-3.605-12.407-4.046-12.256-4.482-12.09-4.913-11.91-5.337q-8.2-3.85-16.2-8.098t-15.783-8.884-15.328-9.647-14.837-10.387q-7.29-5.376-14.309-11.103t-13.747-11.792q-6.729-6.065-13.152-12.452t-12.525-13.082-11.868-13.682-11.182-14.247q-5.416-7.26-10.47-14.778-5.053-7.518-9.732-15.275t-8.97-15.733q-4.293-7.977-8.189-16.155t-7.385-16.538-6.565-16.88q-3.076-8.52-5.73-17.18-2.653-8.662-4.878-17.443-2.226-8.78-4.017-17.66t-3.146-17.836q-1.354-8.957-2.267-17.969t-1.383-18.058-.495-18.105.395-18.107 1.282-18.066q.863-9.018 2.167-17.982t3.047-17.853 3.919-17.682 4.782-17.469 5.633-17.213 6.472-16.916q3.443-8.378 7.293-16.578 2.774-5.907 5.755-11.713t6.165-11.502 6.569-11.276 6.963-11.038 7.349-10.784 7.726-10.518 8.092-10.238 8.45-9.945 8.796-9.64 9.132-9.324 9.455-8.994 9.768-8.655 10.068-8.304q5.107-4.062 10.354-7.942 5.248-3.88 10.63-7.572 5.381-3.691 10.89-7.19t11.138-6.802q5.63-3.302 11.371-6.403 5.743-3.101 11.591-5.997t11.796-5.583 11.985-5.163q6.039-2.476 12.16-4.736 6.123-2.26 12.321-4.303 6.199-2.042 12.465-3.864 6.267-1.822 12.594-3.422 6.327-1.599 12.707-2.974 6.38-1.374 12.804-2.522t12.885-2.068 12.95-1.612 13-1.152 13.032-.692T400 1v369l283.936-235.672Z"/></svg>