<svg xmlns="http://www.w3.org/2000/svg" width="800" height="800"><path fill="none" d="M0 0h800v800H0z"/><clipPath id="a"><path d="M0 690h800v110H0z"/></clipPath><g clip-path="url(#a)"><path fill="#4caf50" d="M123.3 720h40v20h-40z"/><path fill="none" stroke="#fff" stroke-miterlimit="10" stroke-width="2" d="M123.3 720h40v20h-40z"/><path fill="#ff9800" d="M377.64 720h40v20h-40z"/><path fill="none" stroke="#fff" stroke-miterlimit="10" stroke-width="2" d="M377.64 720h40v20h-40z"/><path fill="#f44336" d="M262.92 770h40v20h-40z"/><path fill="none" stroke="#fff" stroke-miterlimit="10" stroke-width="2" d="M262.92 770h40v20h-40z"/></g><path fill="#4caf50" d="M400 1q4.695 0 9.388.128t9.38.384 9.367.64 9.346.896q4.666.511 9.318 1.15 4.65.639 9.283 1.404 4.631.766 9.24 1.657 4.61.892 9.193 1.908t9.137 2.16q4.554 1.14 9.075 2.406t9.006 2.654q4.484 1.388 8.93 2.899 4.445 1.51 8.847 3.141t8.758 3.381 8.663 3.62 8.561 3.854 8.453 4.087q4.198 2.1 8.337 4.315 4.14 2.215 8.217 4.542t8.09 4.764 7.957 4.983q3.945 2.546 7.818 5.199 3.874 2.652 7.673 5.41t7.523 5.617 7.367 5.82q3.643 2.96 7.205 6.02 3.561 3.058 7.038 6.213 3.476 3.155 6.866 6.404t6.688 6.588q3.3 3.34 6.507 6.768 3.207 3.43 6.319 6.944 3.112 3.515 6.127 7.113L400 345z"/><path fill="none" stroke="#fff" stroke-linejoin="bevel" stroke-width="2" d="M400 1q4.695 0 9.388.128t9.38.384 9.367.64 9.346.896q4.666.511 9.318 1.15 4.65.639 9.283 1.404 4.631.766 9.24 1.657 4.61.892 9.193 1.908t9.137 2.16q4.554 1.14 9.075 2.406t9.006 2.654q4.484 1.388 8.93 2.899 4.445 1.51 8.847 3.141t8.758 3.381 8.663 3.62 8.561 3.854 8.453 4.087q4.198 2.1 8.337 4.315 4.14 2.215 8.217 4.542t8.09 4.764 7.957 4.983q3.945 2.546 7.818 5.199 3.874 2.652 7.673 5.41t7.523 5.617 7.367 5.82q3.643 2.96 7.205 6.02 3.561 3.058 7.038 6.213 3.476 3.155 6.866 6.404t6.688 6.588q3.3 3.34 6.507 6.768 3.207 3.43 6.319 6.944 3.112 3.515 6.127 7.113L400 345z"/><path fill="#ff9800" d="M663.677 124.07q13.737 16.394 25.338 34.365 11.6 17.97 20.885 37.24L400 345z"/><path fill="none" stroke="#fff" stroke-linejoin="bevel" stroke-width="2" d="M663.677 124.07q13.737 16.394 25.338 34.365 11.6 17.97 20.885 37.24L400 345z"/><path fill="#f44336" d="M709.9 195.674q3.665 7.608 6.953 15.386t6.19 15.709q2.903 7.93 5.413 15.993t4.621 16.24 3.819 16.447 3.006 16.614 2.188 16.742q.889 8.398 1.364 16.83.476 8.43.537 16.875t-.292 16.882q-.353 8.437-1.12 16.847t-1.946 16.772-2.766 16.656-3.58 16.5-4.385 16.306-5.18 16.07q-2.788 7.971-5.963 15.796t-6.73 15.485-7.482 15.136-8.216 14.751-8.93 14.33-9.622 13.874q-4.98 6.82-10.29 13.386t-10.936 12.864q-5.626 6.298-11.554 12.313-5.928 6.014-12.144 11.73T620.15 609.33t-13.235 10.484-13.734 9.822-14.199 9.136-14.63 8.428-15.026 7.7q-4.89 2.357-9.853 4.558t-9.992 4.245q-5.03 2.043-10.121 3.927t-10.24 3.605-10.348 3.28q-5.2 1.56-10.447 2.954-5.247 1.393-10.535 2.621t-10.612 2.288-10.68 1.952q-5.355.891-10.735 1.613-5.38.723-10.781 1.275-5.4.552-10.816.933-5.415.381-10.84.592t-10.853.249-10.856-.093q-5.427-.133-10.847-.436t-10.828-.778q-5.408-.474-10.799-1.119t-10.757-1.46-10.706-1.797q-5.34-.984-10.644-2.135-5.306-1.152-10.572-2.47t-10.488-2.802-10.395-3.132-10.29-3.458-10.177-3.78q-5.058-1.972-10.051-4.101t-9.918-4.416q-4.924-2.286-9.773-4.726-4.85-2.44-9.62-5.032t-9.455-5.333-9.283-5.63q-7.151-4.491-14.073-9.329-6.922-4.837-13.598-10.009-6.676-5.171-13.09-10.664-6.415-5.492-12.552-11.293t-11.982-11.896-11.384-12.47q-5.539-6.374-10.758-13.012-5.22-6.639-10.107-13.525-4.888-6.887-9.432-14.005-4.543-7.118-8.732-14.45-4.19-7.333-8.013-14.863-3.825-7.529-7.275-15.237t-6.517-15.575-5.746-15.877-4.96-16.14-4.162-16.363-3.353-16.548-2.538-16.692-1.716-16.797-.89-16.861-.06-16.884.767-16.867q.59-8.424 1.594-16.81 1.003-8.384 2.417-16.71 1.413-8.325 3.234-16.572t4.043-16.393 4.843-16.175 5.63-15.917 6.405-15.623q3.395-7.732 7.164-15.29 3.77-7.556 7.905-14.919 4.136-7.362 8.628-14.513 2.888-4.597 5.92-9.1 3.03-4.504 6.203-8.91 3.172-4.405 6.48-8.709 3.31-4.303 6.754-8.5t7.018-8.283 7.275-8.057q3.702-3.971 7.526-7.824 3.825-3.852 7.77-7.582t8.005-7.333 8.232-7.078q4.172-3.473 8.451-6.813t8.662-6.544q4.383-3.204 8.865-6.267 4.481-3.064 9.058-5.985 4.576-2.92 9.242-5.695t9.417-5.401q4.75-2.627 9.583-5.102 4.831-2.475 9.739-4.796 4.907-2.321 9.885-4.487t10.022-4.172q5.045-2.007 10.15-3.854 5.104-1.847 10.265-3.532 5.16-1.685 10.372-3.207 5.21-1.52 10.467-2.877t10.554-2.546q5.297-1.19 10.628-2.211 5.332-1.022 10.693-1.875 5.362-.853 10.747-1.537 5.386-.683 10.79-1.196 5.404-.514 10.822-.856t10.844-.514Q394.571 1 400 1v344z"/><path fill="none" stroke="#fff" stroke-linejoin="bevel" stroke-width="2" d="M709.9 195.674q3.665 7.608 6.953 15.386t6.19 15.709q2.903 7.93 5.413 15.993t4.621 16.24 3.819 16.447 3.006 16.614 2.188 16.742q.889 8.398 1.364 16.83.476 8.43.537 16.875t-.292 16.882q-.353 8.437-1.12 16.847t-1.946 16.772-2.766 16.656-3.58 16.5-4.385 16.306-5.18 16.07q-2.788 7.971-5.963 15.796t-6.73 15.485-7.482 15.136-8.216 14.751-8.93 14.33-9.622 13.874q-4.98 6.82-10.29 13.386t-10.936 12.864q-5.626 6.298-11.554 12.313-5.928 6.014-12.144 11.73T620.15 609.33t-13.235 10.484-13.734 9.822-14.199 9.136-14.63 8.428-15.026 7.7q-4.89 2.357-9.853 4.558t-9.992 4.245q-5.03 2.043-10.121 3.927t-10.24 3.605-10.348 3.28q-5.2 1.56-10.447 2.954-5.247 1.393-10.535 2.621t-10.612 2.288-10.68 1.952q-5.355.891-10.735 1.613-5.38.723-10.781 1.275-5.4.552-10.816.933-5.415.381-10.84.592t-10.853.249-10.856-.093q-5.427-.133-10.847-.436t-10.828-.778q-5.408-.474-10.799-1.119t-10.757-1.46-10.706-1.797q-5.34-.984-10.644-2.135-5.306-1.152-10.572-2.47t-10.488-2.802-10.395-3.132-10.29-3.458-10.177-3.78q-5.058-1.972-10.051-4.101t-9.918-4.416q-4.924-2.286-9.773-4.726-4.85-2.44-9.62-5.032t-9.455-5.333-9.283-5.63q-7.151-4.491-14.073-9.329-6.922-4.837-13.598-10.009-6.676-5.171-13.09-10.664-6.415-5.492-12.552-11.293t-11.982-11.896-11.384-12.47q-5.539-6.374-10.758-13.012-5.22-6.639-10.107-13.525-4.888-6.887-9.432-14.005-4.543-7.118-8.732-14.45-4.19-7.333-8.013-14.863-3.825-7.529-7.275-15.237t-6.517-15.575-5.746-15.877-4.96-16.14-4.162-16.363-3.353-16.548-2.538-16.692-1.716-16.797-.89-16.861-.06-16.884.767-16.867q.59-8.424 1.594-16.81 1.003-8.384 2.417-16.71 1.413-8.325 3.234-16.572t4.043-16.393 4.843-16.175 5.63-15.917 6.405-15.623q3.395-7.732 7.164-15.29 3.77-7.556 7.905-14.919 4.136-7.362 8.628-14.513 2.888-4.597 5.92-9.1 3.03-4.504 6.203-8.91 3.172-4.405 6.48-8.709 3.31-4.303 6.754-8.5t7.018-8.283 7.275-8.057q3.702-3.971 7.526-7.824 3.825-3.852 7.77-7.582t8.005-7.333 8.232-7.078q4.172-3.473 8.451-6.813t8.662-6.544q4.383-3.204 8.865-6.267 4.481-3.064 9.058-5.985 4.576-2.92 9.242-5.695t9.417-5.401q4.75-2.627 9.583-5.102 4.831-2.475 9.739-4.796 4.907-2.321 9.885-4.487t10.022-4.172q5.045-2.007 10.15-3.854 5.104-1.847 10.265-3.532 5.16-1.685 10.372-3.207 5.21-1.52 10.467-2.877t10.554-2.546q5.297-1.19 10.628-2.211 5.332-1.022 10.693-1.875 5.362-.853 10.747-1.537 5.386-.683 10.79-1.196 5.404-.514 10.822-.856t10.844-.514Q394.571 1 400 1v344l309.9-149.326Z"/></svg>