<svg xmlns="http://www.w3.org/2000/svg" width="800" height="800"><path fill="none" d="M0 0h800v800H0z"/><clipPath id="a"><path d="M0 740h800v60H0z"/></clipPath><g clip-path="url(#a)"><path fill="#4caf50" d="M144.605 770h40v20h-40z"/><path fill="none" stroke="#fff" stroke-miterlimit="10" stroke-width="2" d="M144.605 770h40v20h-40z"/><text x="194.605, 207.94484, 217.50539, 230.38625, 240.64992, 248.68703, 260.52295," y="787.5," fill="#666" font-family="DejaVu Serif" font-size="20">Trusted</text><path fill="#ff9800" d="M303.325 770h40v20h-40z"/><path fill="none" stroke="#fff" stroke-miterlimit="10" stroke-width="2" d="M303.325 770h40v20h-40z"/><text x="353.32501, 366.78204, 376.34259, 388.38361, 399.68243, 411.51837, 424.39923, 436.32306, 449.20392, 460.40509," y="787.5," fill="#666" font-family="DejaVu Serif" font-size="20">Provenance</text><path fill="#f44336" d="M502.245 770h40v20h-40z"/><path fill="none" stroke="#fff" stroke-miterlimit="10" stroke-width="2" d="M502.245 770h40v20h-40z"/><text x="552.245, 569.10046, 581.98132, 590.01843, 599.57898, 612.45984, 622.72351, 630.76062, 642.59656," y="787.5," fill="#666" font-family="DejaVu Serif" font-size="20">Untrusted</text></g><path fill="#4caf50" d="M400 1q7.602 0 15.197.313 7.596.313 15.172.939t15.12 1.563 15.042 2.184q7.5 1.247 14.94 2.802 7.442 1.554 14.812 3.414 7.371 1.86 14.66 4.022 7.287 2.162 14.48 4.622t14.278 5.215 14.051 5.798 13.8 6.372q6.835 3.329 13.527 6.935 6.692 3.607 13.229 7.487t12.91 8.024 12.568 8.55 12.205 9.06L400 370z"/><path fill="none" stroke="#fff" stroke-linejoin="bevel" stroke-width="2" d="M400 1q7.602 0 15.197.313 7.596.313 15.172.939t15.12 1.563 15.042 2.184q7.5 1.247 14.94 2.802 7.442 1.554 14.812 3.414 7.371 1.86 14.66 4.022 7.287 2.162 14.48 4.622t14.278 5.215 14.051 5.798 13.8 6.372q6.835 3.329 13.527 6.935 6.692 3.607 13.229 7.487t12.91 8.024 12.568 8.55 12.205 9.06L400 370z"/><path fill="#ff9800" d="M625.991 78.3q10.23 7.925 19.88 16.548t18.67 17.9 17.372 19.164 15.986 20.334L400 370z"/><path fill="none" stroke="#fff" stroke-linejoin="bevel" stroke-width="2" d="M625.991 78.3q10.23 7.925 19.88 16.548t18.67 17.9 17.372 19.164 15.986 20.334L400 370 625.991 78.3Z"/><path fill="#f44336" d="M697.9 152.246q5.345 7.313 10.325 14.88 4.98 7.566 9.584 15.367t8.817 15.82q4.215 8.019 8.031 16.234t7.225 16.608 6.4 16.943 5.562 17.236q2.57 8.686 4.71 17.488t3.846 17.699q1.705 8.896 2.972 17.866t2.093 17.99 1.207 18.07.319 18.11-.57 18.102-1.457 18.053q-.95 9.008-2.342 17.959-1.391 8.951-3.22 17.823-1.828 8.872-4.09 17.643t-4.952 17.422q-2.69 8.65-5.8 17.157t-6.635 16.853-7.454 16.506-8.255 16.12-9.036 15.697-9.796 15.234q-5.084 7.497-10.53 14.735-5.447 7.238-11.242 14.2-5.795 6.963-11.924 13.632-6.13 6.67-12.58 13.03-6.45 6.362-13.203 12.398-6.754 6.037-13.796 11.735t-14.355 11.043q-5.125 3.747-10.376 7.315t-10.622 6.953-10.855 6.583q-5.484 3.199-11.075 6.207t-11.282 5.821-11.475 5.43q-5.784 2.617-11.655 5.032t-11.822 4.629q-5.95 2.212-11.974 4.218-6.023 2.007-12.112 3.805-6.088 1.798-12.235 3.385-6.147 1.588-12.345 2.963t-12.44 2.536-12.519 2.107-12.584 1.675-12.635 1.24q-6.328.513-12.67.806t-12.69.37q-6.347.075-12.694-.068-6.347-.142-12.686-.504-6.338-.36-12.66-.94-6.322-.579-12.62-1.375-6.3-.796-12.567-1.808t-12.496-2.24q-6.229-1.227-12.411-2.668-6.183-1.44-12.313-3.094-6.13-1.652-12.2-3.515-6.068-1.862-12.07-3.933-6.001-2.07-11.928-4.345t-11.772-4.754-11.601-5.155-11.417-5.552q-8.077-4.1-15.944-8.593-7.866-4.492-15.502-9.365t-15.024-10.114-14.51-10.84-13.96-11.538-13.378-12.209-12.762-12.85-12.116-13.463-11.442-14.04-10.738-14.584-10.01-15.094-9.257-15.567-8.483-16.002-7.686-16.4-6.873-16.756-6.043-17.074-5.197-17.35-4.34-17.583-3.472-17.776-2.595-17.924-1.713-18.03q-.635-9.037-.826-18.093-.191-9.057.063-18.112.253-9.054.951-18.086t1.838-18.018 2.72-17.906q1.579-8.92 3.594-17.751t4.462-17.553 5.317-17.314 6.16-17.031q3.29-8.44 6.99-16.709t7.8-16.345q2.874-5.661 5.941-11.22 3.067-5.558 6.324-11.008t6.698-10.784q3.442-5.335 7.065-10.548t7.425-10.298 7.774-10.037 8.114-9.763 8.446-9.479 8.767-9.182 9.077-8.875 9.377-8.558 9.666-8.23 9.944-7.893 10.21-7.546 10.462-7.19 10.704-6.827 10.932-6.454 11.148-6.074 11.35-5.687 11.54-5.293q5.815-2.548 11.714-4.893 5.9-2.346 11.876-4.488 5.976-2.141 12.023-4.076t12.156-3.66 12.275-3.24 12.38-2.815 12.468-2.388 12.543-1.958 12.604-1.525 12.648-1.09 12.679-.656Q393.65 1 400 1v369z"/><path fill="none" stroke="#fff" stroke-linejoin="bevel" stroke-width="2" d="M697.9 152.246q5.345 7.313 10.325 14.88 4.98 7.566 9.584 15.367t8.817 15.82q4.215 8.019 8.031 16.234t7.225 16.608 6.4 16.943 5.562 17.236q2.57 8.686 4.71 17.488t3.846 17.699q1.705 8.896 2.972 17.866t2.093 17.99 1.207 18.07.319 18.11-.57 18.102-1.457 18.053q-.95 9.008-2.342 17.959-1.391 8.951-3.22 17.823-1.828 8.872-4.09 17.643t-4.952 17.422q-2.69 8.65-5.8 17.157t-6.635 16.853-7.454 16.506-8.255 16.12-9.036 15.697-9.796 15.234q-5.084 7.497-10.53 14.735-5.447 7.238-11.242 14.2-5.795 6.963-11.924 13.632-6.13 6.67-12.58 13.03-6.45 6.362-13.203 12.398-6.754 6.037-13.796 11.735t-14.355 11.043q-5.125 3.747-10.376 7.315t-10.622 6.953-10.855 6.583q-5.484 3.199-11.075 6.207t-11.282 5.821-11.475 5.43q-5.784 2.617-11.655 5.032t-11.822 4.629q-5.95 2.212-11.974 4.218-6.023 2.007-12.112 3.805-6.088 1.798-12.235 3.385-6.147 1.588-12.345 2.963t-12.44 2.536-12.519 2.107-12.584 1.675-12.635 1.24q-6.328.513-12.67.806t-12.69.37q-6.347.075-12.694-.068-6.347-.142-12.686-.504-6.338-.36-12.66-.94-6.322-.579-12.62-1.375-6.3-.796-12.567-1.808t-12.496-2.24q-6.229-1.227-12.411-2.668-6.183-1.44-12.313-3.094-6.13-1.652-12.2-3.515-6.068-1.862-12.07-3.933-6.001-2.07-11.928-4.345t-11.772-4.754-11.601-5.155-11.417-5.552q-8.077-4.1-15.944-8.593-7.866-4.492-15.502-9.365t-15.024-10.114-14.51-10.84-13.96-11.538-13.378-12.209-12.762-12.85-12.116-13.463-11.442-14.04-10.738-14.584-10.01-15.094-9.257-15.567-8.483-16.002-7.686-16.4-6.873-16.756-6.043-17.074-5.197-17.35-4.34-17.583-3.472-17.776-2.595-17.924-1.713-18.03q-.635-9.037-.826-18.093-.191-9.057.063-18.112.253-9.054.951-18.086t1.838-18.018 2.72-17.906q1.579-8.92 3.594-17.751t4.462-17.553 5.317-17.314 6.16-17.031q3.29-8.44 6.99-16.709t7.8-16.345q2.874-5.661 5.941-11.22 3.067-5.558 6.324-11.008t6.698-10.784q3.442-5.335 7.065-10.548t7.425-10.298 7.774-10.037 8.114-9.763 8.446-9.479 8.767-9.182 9.077-8.875 9.377-8.558 9.666-8.23 9.944-7.893 10.21-7.546 10.462-7.19 10.704-6.827 10.932-6.454 11.148-6.074 11.35-5.687 11.54-5.293q5.815-2.548 11.714-4.893 5.9-2.346 11.876-4.488 5.976-2.141 12.023-4.076t12.156-3.66 12.275-3.24 12.38-2.815 12.468-2.388 12.543-1.958 12.604-1.525 12.648-1.09 12.679-.656Q393.65 1 400 1v369l297.9-217.754Z"/></svg>