<svg xmlns="http://www.w3.org/2000/svg" width="800" height="800"><path fill="none" d="M0 0h800v800H0z"/><clipPath id="a"><path d="M0 740h800v60H0z"/></clipPath><g clip-path="url(#a)"><path fill="#4caf50" d="M164.745 770h40v20h-40z"/><path fill="none" stroke="#fff" stroke-miterlimit="10" stroke-width="2" d="M164.745 770h40v20h-40z"/><text x="214.745, 226.2196, 232.87976, 244.00281, 254.00281, 259.55945, 270.6825," y="786.5," fill="#666" font-family="Liberation Sans" font-size="20">Trusted</text><path fill="#ff9800" d="M311.805 770h40v20h-40z"/><path fill="none" stroke="#fff" stroke-miterlimit="10" stroke-width="2" d="M311.805 770h40v20h-40z"/><text x="361.80499, 375.14484, 381.80499, 392.92804, 402.92804, 414.05109, 425.17413, 436.29718, 447.42023, 457.42023," y="786.5," fill="#666" font-family="Liberation Sans" font-size="20">Provenance</text><path fill="#f44336" d="M498.545 770h40v20h-40z"/><path fill="none" stroke="#fff" stroke-miterlimit="10" stroke-width="2" d="M498.545 770h40v20h-40z"/><text x="548.54498, 562.98834, 574.11139, 579.66803, 586.32819, 597.45123, 607.45123, 613.00787, 624.13092," y="786.5," fill="#666" font-family="Liberation Sans" font-size="20">Untrusted</text></g><path fill="#4caf50" d="M400 1q5.86 0 11.718.186t11.706.558 11.682.93 11.647 1.3 11.6 1.669q5.786.927 11.54 2.037 5.755 1.11 11.47 2.402 5.717 1.292 11.389 2.765t11.295 3.126q5.622 1.652 11.19 3.482t11.073 3.837 10.946 4.185 10.808 4.532 10.658 4.872q5.29 2.52 10.499 5.208 5.207 2.688 10.327 5.54 5.12 2.85 10.147 5.864 5.026 3.012 9.955 6.183 4.928 3.17 9.754 6.496t9.542 6.803q4.717 3.478 9.322 7.103t9.091 7.395 8.852 7.68 8.604 7.957 8.347 8.226q4.108 4.18 8.08 8.487 3.974 4.308 7.809 8.74t7.526 8.983q3.691 4.551 7.237 9.218 3.545 4.666 6.94 9.442 3.396 4.777 6.638 9.659t6.327 9.864L400 370z"/><path fill="none" stroke="#fff" stroke-linejoin="bevel" stroke-width="2" d="M400 1q5.86 0 11.718.186t11.706.558 11.682.93 11.647 1.3 11.6 1.669q5.786.927 11.54 2.037 5.755 1.11 11.47 2.402 5.717 1.292 11.389 2.765t11.295 3.126q5.622 1.652 11.19 3.482t11.073 3.837 10.946 4.185 10.808 4.532 10.658 4.872q5.29 2.52 10.499 5.208 5.207 2.688 10.327 5.54 5.12 2.85 10.147 5.864 5.026 3.012 9.955 6.183 4.928 3.17 9.754 6.496t9.542 6.803q4.717 3.478 9.322 7.103t9.091 7.395 8.852 7.68 8.604 7.957 8.347 8.226q4.108 4.18 8.08 8.487 3.974 4.308 7.809 8.74t7.526 8.983q3.691 4.551 7.237 9.218 3.545 4.666 6.94 9.442 3.396 4.777 6.638 9.659t6.327 9.864L400 370z"/><path fill="#ff9800" d="M713.72 175.73q9.736 15.723 17.852 32.342 8.116 16.618 14.53 33.965L400 370z"/><path fill="none" stroke="#fff" stroke-linejoin="bevel" stroke-width="2" d="M713.72 175.73q9.736 15.723 17.852 32.342 8.116 16.618 14.53 33.965L400 370l313.72-194.271Z"/><path fill="#f44336" d="M746.102 242.037q3.141 8.497 5.862 17.137t5.014 17.403 4.154 17.63 3.284 17.81 2.406 17.951 1.522 18.047.635 18.1q.096 9.059-.253 18.11-.35 9.052-1.143 18.076-.793 9.023-2.027 17.997-1.235 8.974-2.909 17.877t-3.782 17.712-4.646 17.505-5.5 17.256-6.34 16.966-7.165 16.634-7.972 16.262-8.76 15.852-9.529 15.402-10.272 14.917-10.992 14.394-11.685 13.838-12.35 13.248q-6.337 6.473-12.985 12.626-6.647 6.154-13.588 11.974-6.942 5.82-14.16 11.292-7.219 5.473-14.697 10.584-7.479 5.112-15.199 9.85-7.72 4.739-15.664 9.093-7.943 4.354-16.09 8.313t-16.48 7.513-16.828 6.696q-5.206 1.924-10.466 3.692-5.261 1.767-10.573 3.375-5.311 1.608-10.669 3.056-5.357 1.447-10.756 2.733t-10.833 2.409-10.901 2.082-10.96 1.753-11.005 1.423q-5.514.628-11.045 1.091t-11.072.759-11.09.425-11.097.092-11.096-.243-11.083-.575-11.06-.91-11.03-1.24-10.985-1.572-10.934-1.902-10.872-2.23-10.8-2.555-10.718-2.88-10.626-3.2-10.526-3.518-10.415-3.834-10.295-4.145-10.165-4.452-10.028-4.757q-4.977-2.453-9.88-5.055-4.901-2.602-9.722-5.35-4.822-2.749-9.558-5.641-4.737-2.892-9.384-5.925t-9.201-6.205q-7.434-5.177-14.604-10.712t-14.06-11.416-13.484-12.092q-6.594-6.212-12.874-12.74-6.28-6.527-12.234-13.355-5.952-6.828-11.563-13.94-5.61-7.111-10.865-14.49-5.255-7.378-10.142-15.006-4.886-7.627-9.392-15.485-4.507-7.858-8.622-15.928t-7.83-16.332q-3.714-8.261-7.019-16.696-3.304-8.434-6.19-17.02-2.888-8.586-5.35-17.304t-4.493-17.545q-2.03-8.828-3.626-17.744t-2.752-17.902q-1.156-8.984-1.87-18.014t-.984-18.085-.095-18.111.793-18.094 1.68-18.033 2.564-17.93 3.44-17.781 4.308-17.592 5.166-17.359 6.011-17.084 6.843-16.77 7.658-16.413 8.453-16.017 9.23-15.584q4.805-7.678 9.982-15.111 3.172-4.554 6.479-9.011t6.747-8.812 7.008-8.605q3.57-4.25 7.265-8.39t7.513-8.168q3.818-4.027 7.756-7.938 3.937-3.911 7.99-7.702t8.22-7.458 8.438-7.207 8.653-6.95 8.857-6.687 9.055-6.417 9.243-6.142 9.424-5.862 9.596-5.575 9.759-5.285q4.92-2.568 9.914-4.988t10.059-4.688q5.065-2.269 10.195-4.384 5.131-2.115 10.323-4.075t10.441-3.762 10.55-3.447 10.647-3.128 10.738-2.807 10.816-2.482 10.887-2.156 10.947-1.827 10.996-1.498 11.037-1.166 11.067-.834 11.086-.5T400 1v369z"/><path fill="none" stroke="#fff" stroke-linejoin="bevel" stroke-width="2" d="M746.102 242.037q3.141 8.497 5.862 17.137t5.014 17.403 4.154 17.63 3.284 17.81 2.406 17.951 1.522 18.047.635 18.1q.096 9.059-.253 18.11-.35 9.052-1.143 18.076-.793 9.023-2.027 17.997-1.235 8.974-2.909 17.877t-3.782 17.712-4.646 17.505-5.5 17.256-6.34 16.966-7.165 16.634-7.972 16.262-8.76 15.852-9.529 15.402-10.272 14.917-10.992 14.394-11.685 13.838-12.35 13.248q-6.337 6.473-12.985 12.626-6.647 6.154-13.588 11.974-6.942 5.82-14.16 11.292-7.219 5.473-14.697 10.584-7.479 5.112-15.199 9.85-7.72 4.739-15.664 9.093-7.943 4.354-16.09 8.313t-16.48 7.513-16.828 6.696q-5.206 1.924-10.466 3.692-5.261 1.767-10.573 3.375-5.311 1.608-10.669 3.056-5.357 1.447-10.756 2.733t-10.833 2.409-10.901 2.082-10.96 1.753-11.005 1.423q-5.514.628-11.045 1.091t-11.072.759-11.09.425-11.097.092-11.096-.243-11.083-.575-11.06-.91-11.03-1.24-10.985-1.572-10.934-1.902-10.872-2.23-10.8-2.555-10.718-2.88-10.626-3.2-10.526-3.518-10.415-3.834-10.295-4.145-10.165-4.452-10.028-4.757q-4.977-2.453-9.88-5.055-4.901-2.602-9.722-5.35-4.822-2.749-9.558-5.641-4.737-2.892-9.384-5.925t-9.201-6.205q-7.434-5.177-14.604-10.712t-14.06-11.416-13.484-12.092q-6.594-6.212-12.874-12.74-6.28-6.527-12.234-13.355-5.952-6.828-11.563-13.94-5.61-7.111-10.865-14.49-5.255-7.378-10.142-15.006-4.886-7.627-9.392-15.485-4.507-7.858-8.622-15.928t-7.83-16.332q-3.714-8.261-7.019-16.696-3.304-8.434-6.19-17.02-2.888-8.586-5.35-17.304t-4.493-17.545q-2.03-8.828-3.626-17.744t-2.752-17.902q-1.156-8.984-1.87-18.014t-.984-18.085-.095-18.111.793-18.094 1.68-18.033 2.564-17.93 3.44-17.781 4.308-17.592 5.166-17.359 6.011-17.084 6.843-16.77 7.658-16.413 8.453-16.017 9.23-15.584q4.805-7.678 9.982-15.111 3.172-4.554 6.479-9.011t6.747-8.812 7.008-8.605q3.57-4.25 7.265-8.39t7.513-8.168q3.818-4.027 7.756-7.938 3.937-3.911 7.99-7.702t8.22-7.458 8.438-7.207 8.653-6.95 8.857-6.687 9.055-6.417 9.243-6.142 9.424-5.862 9.596-5.575 9.759-5.285q4.92-2.568 9.914-4.988t10.059-4.688q5.065-2.269 10.195-4.384 5.131-2.115 10.323-4.075t10.441-3.762 10.55-3.447 10.647-3.128 10.738-2.807 10.816-2.482 10.887-2.156 10.947-1.827 10.996-1.498 11.037-1.166 11.067-.834 11.086-.5T400 1v369l346.102-127.963Z"/></svg>