<svg xmlns="http://www.w3.org/2000/svg" width="800" height="800"><path fill="none" d="M0 0h800v800H0z"/><clipPath id="a"><path d="M0 740h800v60H0z"/></clipPath><g clip-path="url(#a)"><path fill="#4caf50" d="M144.605 770h40v20h-40z"/><path fill="none" stroke="#fff" stroke-miterlimit="10" stroke-width="2" d="M144.605 770h40v20h-40z"/><text x="194.605, 207.94484, 217.50539, 230.38625, 240.64992, 248.68703, 260.52295," y="787.5," fill="#666" font-family="DejaVu Serif" font-size="20">Trusted</text><path fill="#ff9800" d="M303.325 770h40v20h-40z"/><path fill="none" stroke="#fff" stroke-miterlimit="10" stroke-width="2" d="M303.325 770h40v20h-40z"/><text x="353.32501, 366.78204, 376.34259, 388.38361, 399.68243, 411.51837, 424.39923, 436.32306, 449.20392, 460.40509," y="787.5," fill="#666" font-family="DejaVu Serif" font-size="20">Provenance</text><path fill="#f44336" d="M502.245 770h40v20h-40z"/><path fill="none" stroke="#fff" stroke-miterlimit="10" stroke-width="2" d="M502.245 770h40v20h-40z"/><text x="552.245, 569.10046, 581.98132, 590.01843, 599.57898, 612.45984, 622.72351, 630.76062, 642.59656," y="787.5," fill="#666" font-family="DejaVu Serif" font-size="20">Untrusted</text></g><path fill="#4caf50" d="M400 1q6.678 0 13.35.242 6.674.241 13.334.724t13.298 1.206q6.638.724 13.246 1.687t13.176 2.165 13.09 2.64 12.985 3.112 12.864 3.58q6.4 1.907 12.726 4.043t12.572 4.5 12.4 4.954 12.213 5.398 12.01 5.836 11.79 6.267 11.557 6.69q5.718 3.45 11.307 7.103L400 370z"/><path fill="none" stroke="#fff" stroke-linejoin="bevel" stroke-width="2" d="M400 1q6.678 0 13.35.242 6.674.241 13.334.724t13.298 1.206q6.638.724 13.246 1.687t13.176 2.165 13.09 2.64 12.985 3.112 12.864 3.58q6.4 1.907 12.726 4.043t12.572 4.5 12.4 4.954 12.213 5.398 12.01 5.836 11.79 6.267 11.557 6.69q5.718 3.45 11.307 7.103L400 370z"/><path fill="#ff9800" d="M601.918 61.147q11.157 7.294 21.76 15.375 10.601 8.08 20.593 16.905 9.991 8.824 19.32 18.346 9.328 9.523 17.945 19.693L400 370z"/><path fill="none" stroke="#fff" stroke-linejoin="bevel" stroke-width="2" d="M601.918 61.147q11.157 7.294 21.76 15.375 10.601 8.08 20.593 16.905 9.991 8.824 19.32 18.346 9.328 9.523 17.945 19.693L400 370 601.918 61.147Z"/><path fill="#f44336" d="M681.536 131.466q5.856 6.912 11.366 14.102t10.66 14.642 9.927 15.148q4.779 7.696 9.173 15.617 4.395 7.92 8.396 16.048 4 8.127 7.598 16.44t6.782 16.794 5.95 17.106 5.104 17.377q2.339 8.752 4.245 17.607 1.906 8.856 3.375 17.795 1.47 8.938 2.499 17.938t1.615 18.039q.587 9.04.729 18.097t-.161 18.11q-.303 9.054-1.05 18.082-.746 9.027-1.934 18.007-1.189 8.98-2.816 17.891-1.628 8.911-3.691 17.732t-4.556 17.529-5.411 17.284-6.253 16.998-7.079 16.67-7.888 16.304-8.68 15.896-9.448 15.452-10.195 14.97-10.918 14.45-11.613 13.898T664.98 626.8t-12.92 12.693-13.526 12.043q-5.002 4.238-10.15 8.295-5.15 4.057-10.44 7.93-5.29 3.871-10.713 7.553-5.424 3.681-10.975 7.168-5.552 3.486-11.223 6.773t-11.457 6.37q-5.784 3.084-11.675 5.96-5.89 2.877-11.88 5.542-5.989 2.665-12.069 5.116t-12.243 4.684-12.402 4.246-12.545 3.803-12.672 3.355-12.783 2.903-12.878 2.447q-6.46 1.109-12.957 1.988-6.496.878-13.02 1.526t-13.065 1.063-13.095.598-13.108.133-13.104-.333-13.084-.798-13.048-1.262-12.995-1.725-12.925-2.186-12.84-2.643q-6.395-1.435-12.737-3.097-6.34-1.662-12.619-3.548-6.278-1.886-12.485-3.994t-12.336-4.435-12.17-4.87-11.99-5.3q-8.218-3.808-16.24-8.016-8.023-4.207-15.828-8.803-7.806-4.596-15.377-9.57-7.572-4.973-14.89-10.312-7.317-5.339-14.364-11.03-7.047-5.692-13.807-11.722t-13.214-12.386q-6.456-6.354-12.591-13.018-6.136-6.664-11.937-13.621-5.802-6.957-11.255-14.19-5.453-7.234-10.544-14.726t-9.81-15.225-9.05-15.688-8.27-16.113q-3.936-8.159-7.468-16.5-3.532-8.342-6.65-16.846-3.12-8.505-5.817-17.153t-4.967-17.417q-2.27-8.769-4.106-17.64-1.837-8.87-3.237-17.82-1.399-8.949-2.357-17.957-.959-9.007-1.474-18.05-.516-9.045-.587-18.103t.303-18.109q.373-9.05 1.19-18.072.818-9.021 2.077-17.992t2.956-17.869 3.83-17.701 4.693-17.493 5.547-17.241 6.385-16.949q3.4-8.396 7.21-16.614 2.756-5.948 5.722-11.794 2.965-5.846 6.137-11.583t6.545-11.358 6.944-11.118q3.57-5.498 7.334-10.865t7.716-10.597 8.088-10.317q4.135-5.086 8.449-10.022 4.313-4.936 8.799-9.716t9.139-9.398 9.467-9.067 9.783-8.725q4.97-4.276 10.087-8.372 5.118-4.096 10.378-8.009 5.26-3.912 10.655-7.634 5.396-3.723 10.92-7.252 5.525-3.529 11.171-6.859 5.647-3.33 11.408-6.458t11.63-6.049q5.868-2.92 11.837-5.631t12.03-5.208 12.206-4.778q6.146-2.28 12.37-4.34t12.515-3.899 12.646-3.451 12.76-3q6.408-1.387 12.86-2.546t12.941-2.086 13.008-1.626 13.056-1.163 13.09-.698Q393.445 1 400 1v369z"/><path fill="none" stroke="#fff" stroke-linejoin="bevel" stroke-width="2" d="M681.536 131.466q5.856 6.912 11.366 14.102t10.66 14.642 9.927 15.148q4.779 7.696 9.173 15.617 4.395 7.92 8.396 16.048 4 8.127 7.598 16.44t6.782 16.794 5.95 17.106 5.104 17.377q2.339 8.752 4.245 17.607 1.906 8.856 3.375 17.795 1.47 8.938 2.499 17.938t1.615 18.039q.587 9.04.729 18.097t-.161 18.11q-.303 9.054-1.05 18.082-.746 9.027-1.934 18.007-1.189 8.98-2.816 17.891-1.628 8.911-3.691 17.732t-4.556 17.529-5.411 17.284-6.253 16.998-7.079 16.67-7.888 16.304-8.68 15.896-9.448 15.452-10.195 14.97-10.918 14.45-11.613 13.898T664.98 626.8t-12.92 12.693-13.526 12.043q-5.002 4.238-10.15 8.295-5.15 4.057-10.44 7.93-5.29 3.871-10.713 7.553-5.424 3.681-10.975 7.168-5.552 3.486-11.223 6.773t-11.457 6.37q-5.784 3.084-11.675 5.96-5.89 2.877-11.88 5.542-5.989 2.665-12.069 5.116t-12.243 4.684-12.402 4.246-12.545 3.803-12.672 3.355-12.783 2.903-12.878 2.447q-6.46 1.109-12.957 1.988-6.496.878-13.02 1.526t-13.065 1.063-13.095.598-13.108.133-13.104-.333-13.084-.798-13.048-1.262-12.995-1.725-12.925-2.186-12.84-2.643q-6.395-1.435-12.737-3.097-6.34-1.662-12.619-3.548-6.278-1.886-12.485-3.994t-12.336-4.435-12.17-4.87-11.99-5.3q-8.218-3.808-16.24-8.016-8.023-4.207-15.828-8.803-7.806-4.596-15.377-9.57-7.572-4.973-14.89-10.312-7.317-5.339-14.364-11.03-7.047-5.692-13.807-11.722t-13.214-12.386q-6.456-6.354-12.591-13.018-6.136-6.664-11.937-13.621-5.802-6.957-11.255-14.19-5.453-7.234-10.544-14.726t-9.81-15.225-9.05-15.688-8.27-16.113q-3.936-8.159-7.468-16.5-3.532-8.342-6.65-16.846-3.12-8.505-5.817-17.153t-4.967-17.417q-2.27-8.769-4.106-17.64-1.837-8.87-3.237-17.82-1.399-8.949-2.357-17.957-.959-9.007-1.474-18.05-.516-9.045-.587-18.103t.303-18.109q.373-9.05 1.19-18.072.818-9.021 2.077-17.992t2.956-17.869 3.83-17.701 4.693-17.493 5.547-17.241 6.385-16.949q3.4-8.396 7.21-16.614 2.756-5.948 5.722-11.794 2.965-5.846 6.137-11.583t6.545-11.358 6.944-11.118q3.57-5.498 7.334-10.865t7.716-10.597 8.088-10.317q4.135-5.086 8.449-10.022 4.313-4.936 8.799-9.716t9.139-9.398 9.467-9.067 9.783-8.725q4.97-4.276 10.087-8.372 5.118-4.096 10.378-8.009 5.26-3.912 10.655-7.634 5.396-3.723 10.92-7.252 5.525-3.529 11.171-6.859 5.647-3.33 11.408-6.458t11.63-6.049q5.868-2.92 11.837-5.631t12.03-5.208 12.206-4.778q6.146-2.28 12.37-4.34t12.515-3.899 12.646-3.451 12.76-3q6.408-1.387 12.86-2.546t12.941-2.086 13.008-1.626 13.056-1.163 13.09-.698Q393.445 1 400 1v369l281.536-238.534Z"/></svg>