<svg xmlns="http://www.w3.org/2000/svg" width="800" height="800"><path fill="none" d="M0 0h800v800H0z"/><clipPath id="a"><path d="M0 740h800v60H0z"/></clipPath><g clip-path="url(#a)"><path fill="#4caf50" d="M144.605 770h40v20h-40z"/><path fill="none" stroke="#fff" stroke-miterlimit="10" stroke-width="2" d="M144.605 770h40v20h-40z"/><text x="194.605, 207.94484, 217.50539, 230.38625, 240.64992, 248.68703, 260.52295," y="787.5," fill="#666" font-family="DejaVu Serif" font-size="20">Trusted</text><path fill="#ff9800" d="M303.325 770h40v20h-40z"/><path fill="none" stroke="#fff" stroke-miterlimit="10" stroke-width="2" d="M303.325 770h40v20h-40z"/><text x="353.32501, 366.78204, 376.34259, 388.38361, 399.68243, 411.51837, 424.39923, 436.32306, 449.20392, 460.40509," y="787.5," fill="#666" font-family="DejaVu Serif" font-size="20">Provenance</text><path fill="#f44336" d="M502.245 770h40v20h-40z"/><path fill="none" stroke="#fff" stroke-miterlimit="10" stroke-width="2" d="M502.245 770h40v20h-40z"/><text x="552.245, 569.10046, 581.98132, 590.01843, 599.57898, 612.45984, 622.72351, 630.76062, 642.59656," y="787.5," fill="#666" font-family="DejaVu Serif" font-size="20">Untrusted</text></g><path fill="#4caf50" d="M400 1q10.77 0 21.52.628 10.752.628 21.449 1.882 10.696 1.254 21.3 3.13 10.606 1.876 21.083 4.367 10.478 2.491 20.792 5.589t20.431 6.792 20 7.972 19.5 9.125L400 370z"/><path fill="none" stroke="#fff" stroke-linejoin="bevel" stroke-width="2" d="M400 1q10.77 0 21.52.628 10.752.628 21.449 1.882 10.696 1.254 21.3 3.13 10.606 1.876 21.083 4.367 10.478 2.491 20.792 5.589t20.431 6.792 20 7.972 19.5 9.125L400 370z"/><path fill="#ff9800" d="M566.075 40.485q14.096 7.105 27.534 15.387t26.119 17.681 24.514 19.848 22.729 21.868L400 370z"/><path fill="none" stroke="#fff" stroke-linejoin="bevel" stroke-width="2" d="M566.075 40.485q14.096 7.105 27.534 15.387t26.119 17.681 24.514 19.848 22.729 21.868L400 370 566.075 40.485Z"/><path fill="#f44336" d="M666.97 115.27q6.254 6.553 12.178 13.406t11.505 13.988 10.805 14.535q5.224 7.4 10.078 15.049 4.855 7.647 9.328 15.524 4.474 7.877 8.555 15.964 4.082 8.087 7.762 16.364t6.949 16.725 6.12 17.046 5.276 17.326 4.42 17.564 3.553 17.76 2.677 17.912q1.118 8.99 1.794 18.022.677 9.033.909 18.089t.02 18.111q-.213 9.056-.87 18.09-.656 9.035-1.755 18.027-1.1 8.991-2.638 17.918-1.54 8.927-3.515 17.767t-4.381 17.574-5.239 17.337-6.083 17.06q-3.25 8.454-6.913 16.74-3.661 8.285-7.726 16.38-4.063 8.096-8.52 15.983-4.456 7.886-9.294 15.545t-10.046 15.07-10.773 14.559-11.474 14.012q-5.91 6.866-12.149 13.433t-12.793 12.82q-4.866 4.644-9.897 9.106-5.032 4.463-10.224 8.739-5.19 4.276-10.534 8.36t-10.833 7.97q-5.489 3.887-11.115 7.571t-11.385 7.16q-5.757 3.478-11.637 6.742t-11.876 6.312-12.097 5.876q-6.103 2.828-12.304 5.43-6.201 2.604-12.493 4.98-6.292 2.375-12.667 4.52-6.374 2.145-12.823 4.056-6.448 1.91-12.962 3.585t-13.084 3.111-13.189 2.632-13.276 2.15-13.345 1.664-13.398 1.177q-6.71.467-13.431.689-6.722.221-13.448.198-6.725-.024-13.445-.292-6.72-.269-13.426-.782t-13.39-1.27-13.333-1.758-13.26-2.242-13.17-2.725-13.063-3.202-12.937-3.676-12.794-4.145-12.634-4.608q-6.276-2.42-12.459-5.066-8.328-3.565-16.47-7.533-8.143-3.969-16.081-8.333-7.938-4.363-15.653-9.11-7.714-4.749-15.187-9.87t-14.684-10.601q-7.212-5.481-14.146-11.31-6.935-5.828-13.575-11.99-6.64-6.16-12.97-12.64t-12.334-13.264-11.668-13.852q-5.664-7.069-10.974-14.407-5.31-7.339-10.255-14.93-4.944-7.59-9.51-15.413t-8.74-15.862-7.954-16.272-7.144-16.643-6.32-16.973-5.479-17.263-4.626-17.51-3.76-17.717-2.887-17.88-2.006-18-1.12-18.077-.233-18.11.657-18.1q.55-9.041 1.544-18.045t2.428-17.948 3.305-17.807 4.176-17.624 5.035-17.397q2.73-8.637 5.882-17.13t6.716-16.82q2.647-6.183 5.517-12.265t5.96-12.057 6.395-11.83 6.822-11.591q3.516-5.733 7.24-11.334 3.723-5.601 7.648-11.063 3.925-5.461 8.046-10.776t8.433-10.476 8.81-10.162q4.498-5 9.174-9.834 4.677-4.834 9.527-9.493t9.866-9.14 10.192-8.774q5.176-4.295 10.506-8.397 5.329-4.103 10.804-8.009t11.09-7.61 11.358-7.2 11.614-6.781q5.87-3.285 11.854-6.354t12.077-5.918q6.092-2.849 12.285-5.473 6.192-2.625 12.475-5.023 6.284-2.397 12.651-4.564t12.809-4.1q6.441-1.934 12.95-3.631 6.507-1.698 13.073-3.157 6.565-1.46 13.18-2.678 6.613-1.22 13.268-2.196 6.654-.977 13.34-1.711 6.685-.734 13.392-1.224 6.708-.49 13.43-.735Q393.273 1 400 1v369z"/><path fill="none" stroke="#fff" stroke-linejoin="bevel" stroke-width="2" d="M666.97 115.27q6.254 6.553 12.178 13.406t11.505 13.988 10.805 14.535q5.224 7.4 10.078 15.049 4.855 7.647 9.328 15.524 4.474 7.877 8.555 15.964 4.082 8.087 7.762 16.364t6.949 16.725 6.12 17.046 5.276 17.326 4.42 17.564 3.553 17.76 2.677 17.912q1.118 8.99 1.794 18.022.677 9.033.909 18.089t.02 18.111q-.213 9.056-.87 18.09-.656 9.035-1.755 18.027-1.1 8.991-2.638 17.918-1.54 8.927-3.515 17.767t-4.381 17.574-5.239 17.337-6.083 17.06q-3.25 8.454-6.913 16.74-3.661 8.285-7.726 16.38-4.063 8.096-8.52 15.983-4.456 7.886-9.294 15.545t-10.046 15.07-10.773 14.559-11.474 14.012q-5.91 6.866-12.149 13.433t-12.793 12.82q-4.866 4.644-9.897 9.106-5.032 4.463-10.224 8.739-5.19 4.276-10.534 8.36t-10.833 7.97q-5.489 3.887-11.115 7.571t-11.385 7.16q-5.757 3.478-11.637 6.742t-11.876 6.312-12.097 5.876q-6.103 2.828-12.304 5.43-6.201 2.604-12.493 4.98-6.292 2.375-12.667 4.52-6.374 2.145-12.823 4.056-6.448 1.91-12.962 3.585t-13.084 3.111-13.189 2.632-13.276 2.15-13.345 1.664-13.398 1.177q-6.71.467-13.431.689-6.722.221-13.448.198-6.725-.024-13.445-.292-6.72-.269-13.426-.782t-13.39-1.27-13.333-1.758-13.26-2.242-13.17-2.725-13.063-3.202-12.937-3.676-12.794-4.145-12.634-4.608q-6.276-2.42-12.459-5.066-8.328-3.565-16.47-7.533-8.143-3.969-16.081-8.333-7.938-4.363-15.653-9.11-7.714-4.749-15.187-9.87t-14.684-10.601q-7.212-5.481-14.146-11.31-6.935-5.828-13.575-11.99-6.64-6.16-12.97-12.64t-12.334-13.264-11.668-13.852q-5.664-7.069-10.974-14.407-5.31-7.339-10.255-14.93-4.944-7.59-9.51-15.413t-8.74-15.862-7.954-16.272-7.144-16.643-6.32-16.973-5.479-17.263-4.626-17.51-3.76-17.717-2.887-17.88-2.006-18-1.12-18.077-.233-18.11.657-18.1q.55-9.041 1.544-18.045t2.428-17.948 3.305-17.807 4.176-17.624 5.035-17.397q2.73-8.637 5.882-17.13t6.716-16.82q2.647-6.183 5.517-12.265t5.96-12.057 6.395-11.83 6.822-11.591q3.516-5.733 7.24-11.334 3.723-5.601 7.648-11.063 3.925-5.461 8.046-10.776t8.433-10.476 8.81-10.162q4.498-5 9.174-9.834 4.677-4.834 9.527-9.493t9.866-9.14 10.192-8.774q5.176-4.295 10.506-8.397 5.329-4.103 10.804-8.009t11.09-7.61 11.358-7.2 11.614-6.781q5.87-3.285 11.854-6.354t12.077-5.918q6.092-2.849 12.285-5.473 6.192-2.625 12.475-5.023 6.284-2.397 12.651-4.564t12.809-4.1q6.441-1.934 12.95-3.631 6.507-1.698 13.073-3.157 6.565-1.46 13.18-2.678 6.613-1.22 13.268-2.196 6.654-.977 13.34-1.711 6.685-.734 13.392-1.224 6.708-.49 13.43-.735Q393.273 1 400 1v369l266.97-254.73Z"/></svg>