<svg xmlns="http://www.w3.org/2000/svg" width="800" height="800"><path fill="none" d="M0 0h800v800H0z"/><clipPath id="a"><path d="M0 690h800v110H0z"/></clipPath><g clip-path="url(#a)"><path fill="#4caf50" d="M123.3 720h40v20h-40z"/><path fill="none" stroke="#fff" stroke-miterlimit="10" stroke-width="2" d="M123.3 720h40v20h-40z"/><path fill="#ff9800" d="M377.64 720h40v20h-40z"/><path fill="none" stroke="#fff" stroke-miterlimit="10" stroke-width="2" d="M377.64 720h40v20h-40z"/><path fill="#f44336" d="M262.92 770h40v20h-40z"/><path fill="none" stroke="#fff" stroke-miterlimit="10" stroke-width="2" d="M262.92 770h40v20h-40z"/></g><path fill="#4caf50" d="M400 1q8.23 0 16.45.394 8.22.393 16.413 1.18T449.2 4.536t16.225 2.742 16.075 3.515 15.889 4.28 15.666 5.034 15.407 5.778 15.113 6.508 14.785 7.224q7.306 3.788 14.422 7.922t14.027 8.603q6.91 4.47 13.6 9.264 6.688 4.794 13.14 9.903t12.653 10.52 12.135 11.114L400 345z"/><path fill="none" stroke="#fff" stroke-linejoin="bevel" stroke-width="2" d="M400 1q8.23 0 16.45.394 8.22.393 16.413 1.18T449.2 4.536t16.225 2.742 16.075 3.515 15.889 4.28 15.666 5.034 15.407 5.778 15.113 6.508 14.785 7.224q7.306 3.788 14.422 7.922t14.027 8.603q6.91 4.47 13.6 9.264 6.688 4.794 13.14 9.903t12.653 10.52 12.135 11.114L400 345z"/><path fill="#ff9800" d="M638.337 96.944q16.684 16.03 31.071 34.151 14.387 18.12 26.218 38.004L400 345z"/><path fill="none" stroke="#fff" stroke-linejoin="bevel" stroke-width="2" d="M638.337 96.944q16.684 16.03 31.071 34.151 14.387 18.12 26.218 38.004L400 345 638.337 96.944Z"/><path fill="#f44336" d="M695.626 169.1q4.318 7.256 8.275 14.717 3.957 7.46 7.543 15.106 3.586 7.645 6.793 15.457 3.206 7.813 6.025 15.773t5.245 16.05q2.426 8.088 4.451 16.286 2.026 8.198 3.646 16.486t2.833 16.645 2.013 16.764 1.188 16.843.36 16.88-.468 16.878q-.442 8.433-1.297 16.835-.855 8.401-2.12 16.75t-2.94 16.627-3.753 16.462-4.556 16.258-5.348 16.015-6.127 15.733-6.892 15.414-7.64 15.057q-4.004 7.435-8.37 14.664-4.364 7.23-9.078 14.236t-9.767 13.773-10.43 13.277-11.07 12.75q-5.691 6.238-11.681 12.19-5.991 5.952-12.266 11.603t-12.82 10.988-13.345 10.345-13.835 9.677q-7.037 4.67-14.294 8.987-4.868 2.897-9.829 5.632-4.96 2.734-10.009 5.304-5.048 2.57-10.178 4.972t-10.336 4.634-10.483 4.292-10.619 3.944q-5.341 1.884-10.742 3.592t-10.856 3.237-10.956 2.877q-5.501 1.348-11.044 2.515t-11.122 2.15-11.186 1.783-11.24 1.414-11.279 1.042q-5.648.429-11.307.671t-11.324.298-11.327-.074-11.319-.448-11.298-.82-11.264-1.192-11.22-1.562-11.161-1.93-11.092-2.297-11.011-2.661-10.917-3.022-10.812-3.38q-5.377-1.779-10.694-3.734-5.316-1.955-10.566-4.084-5.249-2.129-10.425-4.43t-10.274-4.77-10.111-5.106-9.938-5.436q-7.341-4.174-14.468-8.704-7.128-4.53-14.024-9.403-6.897-4.874-13.546-10.08t-13.034-10.732-12.492-11.36-11.92-11.957-11.319-12.529-10.69-13.07-10.037-13.577-9.357-14.054-8.657-14.496-7.936-14.903q-3.784-7.55-7.194-15.275t-6.436-15.61q-3.027-7.884-5.663-15.906t-4.875-16.166-4.076-16.384-3.268-16.566-2.45-16.705-1.628-16.806-.802-16.865.028-16.885.855-16.862 1.682-16.8 2.505-16.698 3.32-16.555 4.13-16.372 4.926-16.15q2.662-8.013 5.714-15.887t6.487-15.589q3.434-7.715 7.243-15.252t7.983-14.878q2.8-4.924 5.76-9.753 2.961-4.83 6.08-9.558 3.117-4.73 6.39-9.353 3.271-4.624 6.694-9.138t6.991-8.912q3.57-4.4 7.282-8.678t7.563-8.433q3.85-4.154 7.836-8.179t8.102-7.917 8.358-7.645 8.605-7.367 8.843-7.08 9.071-6.783q4.592-3.318 9.29-6.482t9.498-6.173 9.696-5.856 9.884-5.534q4.987-2.686 10.06-5.206t10.227-4.871 10.381-4.532 10.525-4.188 10.657-3.84 10.778-3.485 10.887-3.13 10.983-2.77q5.515-1.293 11.07-2.405 5.554-1.112 11.142-2.04 5.587-.93 11.203-1.673 5.615-.744 11.252-1.303t11.29-.931 11.313-.56T400 1v344z"/><path fill="none" stroke="#fff" stroke-linejoin="bevel" stroke-width="2" d="M695.626 169.1q4.318 7.256 8.275 14.717 3.957 7.46 7.543 15.106 3.586 7.645 6.793 15.457 3.206 7.813 6.025 15.773t5.245 16.05q2.426 8.088 4.451 16.286 2.026 8.198 3.646 16.486t2.833 16.645 2.013 16.764 1.188 16.843.36 16.88-.468 16.878q-.442 8.433-1.297 16.835-.855 8.401-2.12 16.75t-2.94 16.627-3.753 16.462-4.556 16.258-5.348 16.015-6.127 15.733-6.892 15.414-7.64 15.057q-4.004 7.435-8.37 14.664-4.364 7.23-9.078 14.236t-9.767 13.773-10.43 13.277-11.07 12.75q-5.691 6.238-11.681 12.19-5.991 5.952-12.266 11.603t-12.82 10.988-13.345 10.345-13.835 9.677q-7.037 4.67-14.294 8.987-4.868 2.897-9.829 5.632-4.96 2.734-10.009 5.304-5.048 2.57-10.178 4.972t-10.336 4.634-10.483 4.292-10.619 3.944q-5.341 1.884-10.742 3.592t-10.856 3.237-10.956 2.877q-5.501 1.348-11.044 2.515t-11.122 2.15-11.186 1.783-11.24 1.414-11.279 1.042q-5.648.429-11.307.671t-11.324.298-11.327-.074-11.319-.448-11.298-.82-11.264-1.192-11.22-1.562-11.161-1.93-11.092-2.297-11.011-2.661-10.917-3.022-10.812-3.38q-5.377-1.779-10.694-3.734-5.316-1.955-10.566-4.084-5.249-2.129-10.425-4.43t-10.274-4.77-10.111-5.106-9.938-5.436q-7.341-4.174-14.468-8.704-7.128-4.53-14.024-9.403-6.897-4.874-13.546-10.08t-13.034-10.732-12.492-11.36-11.92-11.957-11.319-12.529-10.69-13.07-10.037-13.577-9.357-14.054-8.657-14.496-7.936-14.903q-3.784-7.55-7.194-15.275t-6.436-15.61q-3.027-7.884-5.663-15.906t-4.875-16.166-4.076-16.384-3.268-16.566-2.45-16.705-1.628-16.806-.802-16.865.028-16.885.855-16.862 1.682-16.8 2.505-16.698 3.32-16.555 4.13-16.372 4.926-16.15q2.662-8.013 5.714-15.887t6.487-15.589q3.434-7.715 7.243-15.252t7.983-14.878q2.8-4.924 5.76-9.753 2.961-4.83 6.08-9.558 3.117-4.73 6.39-9.353 3.271-4.624 6.694-9.138t6.991-8.912q3.57-4.4 7.282-8.678t7.563-8.433q3.85-4.154 7.836-8.179t8.102-7.917 8.358-7.645 8.605-7.367 8.843-7.08 9.071-6.783q4.592-3.318 9.29-6.482t9.498-6.173 9.696-5.856 9.884-5.534q4.987-2.686 10.06-5.206t10.227-4.871 10.381-4.532 10.525-4.188 10.657-3.84 10.778-3.485 10.887-3.13 10.983-2.77q5.515-1.293 11.07-2.405 5.554-1.112 11.142-2.04 5.587-.93 11.203-1.673 5.615-.744 11.252-1.303t11.29-.931 11.313-.56T400 1v344l295.626-175.9Z"/></svg>