<svg xmlns="http://www.w3.org/2000/svg" width="800" height="800"><path fill="none" d="M0 0h800v800H0z"/><clipPath id="a"><path d="M0 740h800v60H0z"/></clipPath><g clip-path="url(#a)"><path fill="#4caf50" d="M144.605 770h40v20h-40z"/><path fill="none" stroke="#fff" stroke-miterlimit="10" stroke-width="2" d="M144.605 770h40v20h-40z"/><text x="194.605, 207.94484, 217.50539, 230.38625, 240.64992, 248.68703, 260.52295," y="787.5," fill="#666" font-family="DejaVu Serif" font-size="20">Trusted</text><path fill="#ff9800" d="M303.325 770h40v20h-40z"/><path fill="none" stroke="#fff" stroke-miterlimit="10" stroke-width="2" d="M303.325 770h40v20h-40z"/><text x="353.32501, 366.78204, 376.34259, 388.38361, 399.68243, 411.51837, 424.39923, 436.32306, 449.20392, 460.40509," y="787.5," fill="#666" font-family="DejaVu Serif" font-size="20">Provenance</text><path fill="#f44336" d="M502.245 770h40v20h-40z"/><path fill="none" stroke="#fff" stroke-miterlimit="10" stroke-width="2" d="M502.245 770h40v20h-40z"/><text x="552.245, 569.10046, 581.98132, 590.01843, 599.57898, 612.45984, 622.72351, 630.76062, 642.59656," y="787.5," fill="#666" font-family="DejaVu Serif" font-size="20">Untrusted</text></g><path fill="#4caf50" d="M400 1q8.643 0 17.277.405 8.633.404 17.238 1.213 8.605.808 17.163 2.019 8.558 1.21 17.05 2.82t16.899 3.615 16.71 4.403q8.305 2.397 16.488 5.18t16.226 5.947q8.043 3.163 15.93 6.7 7.886 3.536 15.598 7.438t15.233 8.16 14.835 8.864 14.403 9.55 13.94 10.213 13.447 10.855 12.924 11.472L400 370z"/><path fill="none" stroke="#fff" stroke-linejoin="bevel" stroke-width="2" d="M400 1q8.643 0 17.277.405 8.633.404 17.238 1.213 8.605.808 17.163 2.019 8.558 1.21 17.05 2.82t16.899 3.615 16.71 4.403q8.305 2.397 16.488 5.18t16.226 5.947q8.043 3.163 15.93 6.7 7.886 3.536 15.598 7.438t15.233 8.16 14.835 8.864 14.403 9.55 13.94 10.213 13.447 10.855 12.924 11.472L400 370z"/><path fill="#ff9800" d="M651.361 99.854q9.232 8.59 17.855 17.79t16.6 18.967 15.265 20.056 13.861 21.05L400 370z"/><path fill="none" stroke="#fff" stroke-linejoin="bevel" stroke-width="2" d="M651.361 99.854q9.232 8.59 17.855 17.79t16.6 18.967 15.265 20.056 13.861 21.05L400 370 651.361 99.854Z"/><path fill="#f44336" d="M714.942 177.718q4.72 7.73 9.055 15.685 4.336 7.953 8.275 16.11t7.475 16.497 6.656 16.844 5.821 17.15q2.7 8.647 4.973 17.416t4.113 17.638 3.242 17.82 2.363 17.956 1.48 18.05.593 18.102-.297 18.11-1.185 18.072-2.07 17.993-2.95 17.87-3.824 17.702q-2.13 8.805-4.688 17.495-2.559 8.69-5.54 17.243-2.983 8.553-6.38 16.95-3.399 8.397-7.205 16.617t-8.01 16.244-8.798 15.83q-4.594 7.808-9.565 15.38t-10.307 14.893-11.026 14.369q-5.69 7.049-11.717 13.81-6.029 6.761-12.381 13.219t-13.015 12.595-13.617 11.942-14.187 11.258q-7.231 5.456-14.722 10.55t-15.222 9.814q-5.214 3.183-10.53 6.192-5.317 3.01-10.73 5.84-5.413 2.832-10.917 5.483t-11.093 5.117-11.256 4.748-11.407 4.372-11.546 3.993-11.671 3.608-11.784 3.22q-5.92 1.512-11.885 2.827-5.966 1.316-11.972 2.433-6.006 1.118-12.045 2.036-6.04.918-12.107 1.635-6.066.718-12.154 1.234-6.087.516-12.188.83-6.1.315-12.209.428-6.108.112-12.216.022t-12.21-.382-12.191-.786q-6.09-.493-12.159-1.188-6.069-.696-12.112-1.591-6.043-.896-12.053-1.991t-11.98-2.389-11.896-2.784-11.796-3.176-11.684-3.565-11.56-3.95-11.424-4.33-11.273-4.706-11.112-5.077q-5.513-2.63-10.937-5.442-5.424-2.811-10.751-5.8-7.9-4.433-15.573-9.248t-15.1-10.001-14.592-10.73-14.047-11.432-13.469-12.108-12.859-12.754-12.217-13.37-11.547-13.953-10.849-14.503-10.123-15.018-9.375-15.497-8.602-15.938-7.81-16.34q-3.706-8.267-7-16.705T50.1 487.178t-5.328-17.31q-2.452-8.72-4.473-17.55t-3.606-17.749-2.73-17.904-1.85-18.017-.962-18.086q-.26-9.055-.074-18.111t.815-18.093q.63-9.037 1.702-18.032t2.584-17.926 3.46-17.777q1.95-8.847 4.33-17.587t5.186-17.353q2.807-8.612 6.032-17.077t6.863-16.761 7.676-16.404 8.473-16.008q2.99-5.327 6.153-10.553 3.164-5.226 6.5-10.344t6.838-10.123 7.17-9.891 7.493-9.649 7.808-9.395 8.116-9.131 8.412-8.858 8.702-8.575 8.98-8.281q4.56-4.067 9.25-7.98 4.692-3.914 9.51-7.67t9.757-7.35 9.996-7.024q5.056-3.429 10.222-6.688 5.167-3.26 10.439-6.347 5.271-3.087 10.643-5.997 5.37-2.911 10.835-5.642 5.464-2.732 11.016-5.28 5.552-2.55 11.185-4.913t11.342-4.54q5.708-2.176 11.485-4.162 5.778-1.986 11.618-3.78t11.735-3.392 11.842-3.002q5.946-1.404 11.935-2.61t12.014-2.211 12.081-1.814q6.056-.807 12.134-1.412 6.08-.606 12.175-1.01 6.096-.405 12.201-.607T400 1v369z"/><path fill="none" stroke="#fff" stroke-linejoin="bevel" stroke-width="2" d="M714.942 177.718q4.72 7.73 9.055 15.685 4.336 7.953 8.275 16.11t7.475 16.497 6.656 16.844 5.821 17.15q2.7 8.647 4.973 17.416t4.113 17.638 3.242 17.82 2.363 17.956 1.48 18.05.593 18.102-.297 18.11-1.185 18.072-2.07 17.993-2.95 17.87-3.824 17.702q-2.13 8.805-4.688 17.495-2.559 8.69-5.54 17.243-2.983 8.553-6.38 16.95-3.399 8.397-7.205 16.617t-8.01 16.244-8.798 15.83q-4.594 7.808-9.565 15.38t-10.307 14.893-11.026 14.369q-5.69 7.049-11.717 13.81-6.029 6.761-12.381 13.219t-13.015 12.595-13.617 11.942-14.187 11.258q-7.231 5.456-14.722 10.55t-15.222 9.814q-5.214 3.183-10.53 6.192-5.317 3.01-10.73 5.84-5.413 2.832-10.917 5.483t-11.093 5.117-11.256 4.748-11.407 4.372-11.546 3.993-11.671 3.608-11.784 3.22q-5.92 1.512-11.885 2.827-5.966 1.316-11.972 2.433-6.006 1.118-12.045 2.036-6.04.918-12.107 1.635-6.066.718-12.154 1.234-6.087.516-12.188.83-6.1.315-12.209.428-6.108.112-12.216.022t-12.21-.382-12.191-.786q-6.09-.493-12.159-1.188-6.069-.696-12.112-1.591-6.043-.896-12.053-1.991t-11.98-2.389-11.896-2.784-11.796-3.176-11.684-3.565-11.56-3.95-11.424-4.33-11.273-4.706-11.112-5.077q-5.513-2.63-10.937-5.442-5.424-2.811-10.751-5.8-7.9-4.433-15.573-9.248t-15.1-10.001-14.592-10.73-14.047-11.432-13.469-12.108-12.859-12.754-12.217-13.37-11.547-13.953-10.849-14.503-10.123-15.018-9.375-15.497-8.602-15.938-7.81-16.34q-3.706-8.267-7-16.705T50.1 487.178t-5.328-17.31q-2.452-8.72-4.473-17.55t-3.606-17.749-2.73-17.904-1.85-18.017-.962-18.086q-.26-9.055-.074-18.111t.815-18.093q.63-9.037 1.702-18.032t2.584-17.926 3.46-17.777q1.95-8.847 4.33-17.587t5.186-17.353q2.807-8.612 6.032-17.077t6.863-16.761 7.676-16.404 8.473-16.008q2.99-5.327 6.153-10.553 3.164-5.226 6.5-10.344t6.838-10.123 7.17-9.891 7.493-9.649 7.808-9.395 8.116-9.131 8.412-8.858 8.702-8.575 8.98-8.281q4.56-4.067 9.25-7.98 4.692-3.914 9.51-7.67t9.757-7.35 9.996-7.024q5.056-3.429 10.222-6.688 5.167-3.26 10.439-6.347 5.271-3.087 10.643-5.997 5.37-2.911 10.835-5.642 5.464-2.732 11.016-5.28 5.552-2.55 11.185-4.913t11.342-4.54q5.708-2.176 11.485-4.162 5.778-1.986 11.618-3.78t11.735-3.392 11.842-3.002q5.946-1.404 11.935-2.61t12.014-2.211 12.081-1.814q6.056-.807 12.134-1.412 6.08-.606 12.175-1.01 6.096-.405 12.201-.607T400 1v369l314.942-192.283Z"/></svg>