<svg xmlns="http://www.w3.org/2000/svg" width="800" height="800"><path fill="none" d="M0 0h800v800H0z"/><clipPath id="a"><path d="M0 690h800v110H0z"/></clipPath><g clip-path="url(#a)"><path fill="#4caf50" d="M123.3 720h40v20h-40z"/><path fill="none" stroke="#fff" stroke-miterlimit="10" stroke-width="2" d="M123.3 720h40v20h-40z"/><path fill="#ff9800" d="M377.64 720h40v20h-40z"/><path fill="none" stroke="#fff" stroke-miterlimit="10" stroke-width="2" d="M377.64 720h40v20h-40z"/><path fill="#f44336" d="M262.92 770h40v20h-40z"/><path fill="none" stroke="#fff" stroke-miterlimit="10" stroke-width="2" d="M262.92 770h40v20h-40z"/></g><path fill="#4caf50" d="M400 1q4.903 0 9.805.14 4.9.14 9.796.419 4.896.28 9.78.698 4.886.419 9.758.977t9.725 1.254q4.853.697 9.685 1.531 4.832.835 9.638 1.807t9.582 2.08 9.52 2.353 9.447 2.623 9.37 2.891 9.284 3.157 9.19 3.42 9.088 3.682 8.98 3.938 8.863 4.193 8.741 4.444 8.61 4.69 8.474 4.935q4.202 2.528 8.33 5.175 4.127 2.646 8.178 5.409 4.05 2.763 8.021 5.64 3.97 2.878 7.857 5.867 3.887 2.99 7.687 6.088 3.8 3.1 7.51 6.305 3.71 3.206 7.327 6.516t7.138 6.723 6.944 6.923 6.744 7.118q3.32 3.608 6.538 7.308 3.217 3.7 6.327 7.491t6.111 7.668L400 345z"/><path fill="none" stroke="#fff" stroke-linejoin="bevel" stroke-width="2" d="M400 1q4.903 0 9.805.14 4.9.14 9.796.419 4.896.28 9.78.698 4.886.419 9.758.977t9.725 1.254q4.853.697 9.685 1.531 4.832.835 9.638 1.807t9.582 2.08 9.52 2.353 9.447 2.623 9.37 2.891 9.284 3.157 9.19 3.42 9.088 3.682 8.98 3.938 8.863 4.193 8.741 4.444 8.61 4.69 8.474 4.935q4.202 2.528 8.33 5.175 4.127 2.646 8.178 5.409 4.05 2.763 8.021 5.64 3.97 2.878 7.857 5.867 3.887 2.99 7.687 6.088 3.8 3.1 7.51 6.305 3.71 3.206 7.327 6.516t7.138 6.723 6.944 6.923 6.744 7.118q3.32 3.608 6.538 7.308 3.217 3.7 6.327 7.491t6.111 7.668L400 345z"/><path fill="#ff9800" d="M672.048 134.463q12.69 16.398 23.318 34.2t19.042 36.753L400 345z"/><path fill="none" stroke="#fff" stroke-linejoin="bevel" stroke-width="2" d="M672.048 134.463q12.69 16.398 23.318 34.2t19.042 36.753L400 345l272.048-210.537Z"/><path fill="#f44336" d="M714.408 205.416q3.427 7.719 6.47 15.596 3.044 7.877 5.698 15.894 2.653 8.017 4.91 16.154t4.112 16.376 3.304 16.558q1.448 8.32 2.487 16.7 1.038 8.381 1.664 16.803.626 8.421.838 16.863.213 8.442.01 16.885-.202 8.442-.819 16.864-.616 8.422-1.645 16.804t-2.468 16.703-3.284 16.562-4.093 16.38-4.892 16.16-5.68 15.901-6.452 15.603q-3.417 7.722-7.21 15.268-3.793 7.545-7.95 14.895-4.159 7.35-8.673 14.487-4.513 7.137-9.372 14.044t-10.05 13.568q-5.192 6.66-10.704 13.058t-11.332 12.517q-5.82 6.12-11.932 11.946-6.113 5.826-12.504 11.346t-13.046 10.718q-6.654 5.2-13.555 10.066-6.902 4.867-14.034 9.389t-14.477 8.688-14.886 7.968-15.26 7.228q-4.884 2.169-9.834 4.185t-9.96 3.877q-5.011 1.86-10.077 3.566-5.066 1.704-10.182 3.25t-10.278 2.934-10.364 2.612-10.44 2.29-10.507 1.963-10.562 1.637-10.608 1.307-10.644.977-10.669.646-10.683.315-10.689-.018-10.682-.35q-5.339-.257-10.667-.681t-10.64-1.013-10.604-1.342-10.557-1.672-10.5-1.998-10.433-2.324-10.355-2.647-10.268-2.967-10.171-3.285q-5.06-1.721-10.065-3.599-5.004-1.878-9.947-3.91t-9.821-4.217-9.686-4.52-9.54-4.82-9.386-5.113-9.223-5.402-9.05-5.686q-7.08-4.603-13.925-9.548t-13.44-10.22-12.923-10.867-12.374-11.488-11.795-12.08-11.188-12.646-10.554-13.18-9.895-13.68-9.211-14.151-8.506-14.585-7.78-14.985-7.036-15.349-6.274-15.675-5.497-15.965-4.708-16.215-3.906-16.426-3.095-16.598-2.277-16.73-1.454-16.822-.626-16.873.202-16.883 1.031-16.853 1.856-16.782 2.678-16.67 3.492-16.52 4.298-16.328 5.095-16.097 5.878-15.828 6.648-15.52q3.514-7.68 7.401-15.177t8.138-14.794q4.25-7.297 8.853-14.377 2.913-4.48 5.964-8.87 3.052-4.388 6.238-8.679t6.503-8.482 6.765-8.275 7.018-8.062q3.571-3.976 7.265-7.84t7.505-7.61 7.738-7.373 7.963-7.13 8.181-6.878 8.391-6.62 8.592-6.358 8.786-6.087 8.97-5.811 9.147-5.53q4.617-2.694 9.315-5.243t9.472-4.95 9.622-4.655 9.762-4.353q4.914-2.1 9.892-4.048t10.013-3.738q5.036-1.792 10.125-3.426t10.226-3.11 10.317-2.79 10.4-2.468 10.471-2.144 10.533-1.818 10.584-1.49 10.625-1.16q5.322-.497 10.656-.829t10.677-.498T400 1v344z"/><path fill="none" stroke="#fff" stroke-linejoin="bevel" stroke-width="2" d="M714.408 205.416q3.427 7.719 6.47 15.596 3.044 7.877 5.698 15.894 2.653 8.017 4.91 16.154t4.112 16.376 3.304 16.558q1.448 8.32 2.487 16.7 1.038 8.381 1.664 16.803.626 8.421.838 16.863.213 8.442.01 16.885-.202 8.442-.819 16.864-.616 8.422-1.645 16.804t-2.468 16.703-3.284 16.562-4.093 16.38-4.892 16.16-5.68 15.901-6.452 15.603q-3.417 7.722-7.21 15.268-3.793 7.545-7.95 14.895-4.159 7.35-8.673 14.487-4.513 7.137-9.372 14.044t-10.05 13.568q-5.192 6.66-10.704 13.058t-11.332 12.517q-5.82 6.12-11.932 11.946-6.113 5.826-12.504 11.346t-13.046 10.718q-6.654 5.2-13.555 10.066-6.902 4.867-14.034 9.389t-14.477 8.688-14.886 7.968-15.26 7.228q-4.884 2.169-9.834 4.185t-9.96 3.877q-5.011 1.86-10.077 3.566-5.066 1.704-10.182 3.25t-10.278 2.934-10.364 2.612-10.44 2.29-10.507 1.963-10.562 1.637-10.608 1.307-10.644.977-10.669.646-10.683.315-10.689-.018-10.682-.35q-5.339-.257-10.667-.681t-10.64-1.013-10.604-1.342-10.557-1.672-10.5-1.998-10.433-2.324-10.355-2.647-10.268-2.967-10.171-3.285q-5.06-1.721-10.065-3.599-5.004-1.878-9.947-3.91t-9.821-4.217-9.686-4.52-9.54-4.82-9.386-5.113-9.223-5.402-9.05-5.686q-7.08-4.603-13.925-9.548t-13.44-10.22-12.923-10.867-12.374-11.488-11.795-12.08-11.188-12.646-10.554-13.18-9.895-13.68-9.211-14.151-8.506-14.585-7.78-14.985-7.036-15.349-6.274-15.675-5.497-15.965-4.708-16.215-3.906-16.426-3.095-16.598-2.277-16.73-1.454-16.822-.626-16.873.202-16.883 1.031-16.853 1.856-16.782 2.678-16.67 3.492-16.52 4.298-16.328 5.095-16.097 5.878-15.828 6.648-15.52q3.514-7.68 7.401-15.177t8.138-14.794q4.25-7.297 8.853-14.377 2.913-4.48 5.964-8.87 3.052-4.388 6.238-8.679t6.503-8.482 6.765-8.275 7.018-8.062q3.571-3.976 7.265-7.84t7.505-7.61 7.738-7.373 7.963-7.13 8.181-6.878 8.391-6.62 8.592-6.358 8.786-6.087 8.97-5.811 9.147-5.53q4.617-2.694 9.315-5.243t9.472-4.95 9.622-4.655 9.762-4.353q4.914-2.1 9.892-4.048t10.013-3.738q5.036-1.792 10.125-3.426t10.226-3.11 10.317-2.79 10.4-2.468 10.471-2.144 10.533-1.818 10.584-1.49 10.625-1.16q5.322-.497 10.656-.829t10.677-.498T400 1v344l314.408-139.584Z"/></svg>