<svg xmlns="http://www.w3.org/2000/svg" width="800" height="800"><path fill="none" d="M0 0h800v800H0z"/><clipPath id="a"><path d="M0 690h800v110H0z"/></clipPath><g clip-path="url(#a)"><path fill="#4caf50" d="M123.3 720h40v20h-40z"/><path fill="none" stroke="#fff" stroke-miterlimit="10" stroke-width="2" d="M123.3 720h40v20h-40z"/><path fill="#ff9800" d="M377.64 720h40v20h-40z"/><path fill="none" stroke="#fff" stroke-miterlimit="10" stroke-width="2" d="M377.64 720h40v20h-40z"/><path fill="#f44336" d="M262.92 770h40v20h-40z"/><path fill="none" stroke="#fff" stroke-miterlimit="10" stroke-width="2" d="M262.92 770h40v20h-40z"/></g><path fill="#4caf50" d="M400 1q8.289 0 16.568.4 8.28.398 16.53 1.196t16.452 1.991q8.203 1.194 16.338 2.782 8.135 1.587 16.185 3.565t15.994 4.34q7.945 2.364 15.767 5.106t15.502 5.86q7.68 3.116 15.202 6.599t14.867 7.323 14.497 8.032 14.093 8.72q6.942 4.53 13.657 9.388 6.715 4.86 13.189 10.036 6.473 5.176 12.69 10.659 6.217 5.482 12.162 11.258L400 345z"/><path fill="none" stroke="#fff" stroke-linejoin="bevel" stroke-width="2" d="M400 1q8.289 0 16.568.4 8.28.398 16.53 1.196t16.452 1.991q8.203 1.194 16.338 2.782 8.135 1.587 16.185 3.565t15.994 4.34q7.945 2.364 15.767 5.106t15.502 5.86q7.68 3.116 15.202 6.599t14.867 7.323 14.497 8.032 14.093 8.72q6.942 4.53 13.657 9.388 6.715 4.86 13.189 10.036 6.473 5.176 12.69 10.659 6.217 5.482 12.162 11.258L400 345z"/><path fill="#ff9800" d="M639.693 98.255q16.544 16.07 30.794 34.206t25.952 38.011L400 345z"/><path fill="none" stroke="#fff" stroke-linejoin="bevel" stroke-width="2" d="M639.693 98.255q16.544 16.07 30.794 34.206t25.952 38.011L400 345 639.693 98.255Z"/><path fill="#f44336" d="M696.44 170.472q4.284 7.278 8.206 14.756t7.472 15.141 6.721 15.49 5.953 15.8q2.782 7.973 5.17 16.073t4.375 16.307 3.57 16.503 2.756 16.658 1.935 16.773 1.11 16.848.281 16.882-.547 16.875-1.374 16.829-2.198 16.74-3.018 16.613-3.828 16.445-4.631 16.236-5.422 15.99-6.2 15.705q-3.294 7.776-6.964 15.382t-7.71 15.021q-4.039 7.416-8.437 14.625-4.398 7.21-9.145 14.194t-9.83 13.727q-5.084 6.743-10.492 13.229t-11.129 12.698-11.738 12.136-12.32 11.546-12.87 10.928-13.393 10.283-13.88 9.613-14.335 8.921q-4.871 2.868-9.833 5.574t-10.01 5.247q-5.05 2.542-10.178 4.916-5.13 2.374-10.334 4.579t-10.478 4.237-10.612 3.89-10.734 3.54-10.845 3.185-10.943 2.827-11.03 2.466q-5.536 1.142-11.106 2.102t-11.168 1.737-11.22 1.368-11.258 1q-5.637.406-11.285.628t-11.3.258q-5.652.036-11.302-.114t-11.292-.484-11.27-.856-11.236-1.225-11.19-1.594-11.131-1.96-11.06-2.326-10.98-2.687q-5.466-1.434-10.884-3.046-5.417-1.613-10.778-3.403t-10.66-3.755q-5.3-1.964-10.532-4.102t-10.391-4.447q-5.16-2.309-10.24-4.786t-10.077-5.119q-4.996-2.642-9.903-5.448-7.33-4.19-14.448-8.737-7.116-4.546-14.001-9.435-6.886-4.89-13.523-10.111t-13.01-10.763q-6.372-5.54-12.465-11.388t-11.892-11.986q-5.799-6.139-11.29-12.555t-10.66-13.093-10.004-13.602-9.325-14.075-8.624-14.516-7.9-14.922-7.16-15.292-6.4-15.624-5.625-15.92-4.838-16.176-4.038-16.394-3.229-16.573-2.412-16.711-1.589-16.81-.762-16.867.066-16.884.895-16.86 1.721-16.797 2.543-16.692 3.36-16.547 4.166-16.362 4.965-16.138 5.75-15.875 6.523-15.574 7.279-15.234 8.018-14.86q2.805-4.906 5.77-9.718t6.086-9.524 6.396-9.32q3.274-4.606 6.698-9.103t6.994-8.879 7.282-8.644q3.712-4.262 7.562-8.4t7.834-8.148 8.097-7.885 8.352-7.616 8.597-7.337q4.36-3.597 8.834-7.05 4.475-3.453 9.061-6.756t9.278-6.456q4.692-3.15 9.485-6.146t9.682-5.832q4.889-2.837 9.868-5.511 4.98-2.674 10.044-5.184 5.065-2.509 10.209-4.85 5.144-2.342 10.362-4.513 5.219-2.172 10.506-4.17 5.286-1.999 10.636-3.823t10.756-3.47q5.407-1.648 10.865-3.117 5.458-1.468 10.961-2.757 5.503-1.288 11.046-2.396t11.118-2.031 11.18-1.665q5.603-.74 11.228-1.297 5.624-.556 11.264-.927 5.64-.372 11.289-.557T400 1v344z"/><path fill="none" stroke="#fff" stroke-linejoin="bevel" stroke-width="2" d="M696.44 170.472q4.284 7.278 8.206 14.756t7.472 15.141 6.721 15.49 5.953 15.8q2.782 7.973 5.17 16.073t4.375 16.307 3.57 16.503 2.756 16.658 1.935 16.773 1.11 16.848.281 16.882-.547 16.875-1.374 16.829-2.198 16.74-3.018 16.613-3.828 16.445-4.631 16.236-5.422 15.99-6.2 15.705q-3.294 7.776-6.964 15.382t-7.71 15.021q-4.039 7.416-8.437 14.625-4.398 7.21-9.145 14.194t-9.83 13.727q-5.084 6.743-10.492 13.229t-11.129 12.698-11.738 12.136-12.32 11.546-12.87 10.928-13.393 10.283-13.88 9.613-14.335 8.921q-4.871 2.868-9.833 5.574t-10.01 5.247q-5.05 2.542-10.178 4.916-5.13 2.374-10.334 4.579t-10.478 4.237-10.612 3.89-10.734 3.54-10.845 3.185-10.943 2.827-11.03 2.466q-5.536 1.142-11.106 2.102t-11.168 1.737-11.22 1.368-11.258 1q-5.637.406-11.285.628t-11.3.258q-5.652.036-11.302-.114t-11.292-.484-11.27-.856-11.236-1.225-11.19-1.594-11.131-1.96-11.06-2.326-10.98-2.687q-5.466-1.434-10.884-3.046-5.417-1.613-10.778-3.403t-10.66-3.755q-5.3-1.964-10.532-4.102t-10.391-4.447q-5.16-2.309-10.24-4.786t-10.077-5.119q-4.996-2.642-9.903-5.448-7.33-4.19-14.448-8.737-7.116-4.546-14.001-9.435-6.886-4.89-13.523-10.111t-13.01-10.763q-6.372-5.54-12.465-11.388t-11.892-11.986q-5.799-6.139-11.29-12.555t-10.66-13.093-10.004-13.602-9.325-14.075-8.624-14.516-7.9-14.922-7.16-15.292-6.4-15.624-5.625-15.92-4.838-16.176-4.038-16.394-3.229-16.573-2.412-16.711-1.589-16.81-.762-16.867.066-16.884.895-16.86 1.721-16.797 2.543-16.692 3.36-16.547 4.166-16.362 4.965-16.138 5.75-15.875 6.523-15.574 7.279-15.234 8.018-14.86q2.805-4.906 5.77-9.718t6.086-9.524 6.396-9.32q3.274-4.606 6.698-9.103t6.994-8.879 7.282-8.644q3.712-4.262 7.562-8.4t7.834-8.148 8.097-7.885 8.352-7.616 8.597-7.337q4.36-3.597 8.834-7.05 4.475-3.453 9.061-6.756t9.278-6.456q4.692-3.15 9.485-6.146t9.682-5.832q4.889-2.837 9.868-5.511 4.98-2.674 10.044-5.184 5.065-2.509 10.209-4.85 5.144-2.342 10.362-4.513 5.219-2.172 10.506-4.17 5.286-1.999 10.636-3.823t10.756-3.47q5.407-1.648 10.865-3.117 5.458-1.468 10.961-2.757 5.503-1.288 11.046-2.396t11.118-2.031 11.18-1.665q5.603-.74 11.228-1.297 5.624-.556 11.264-.927 5.64-.372 11.289-.557T400 1v344l296.44-174.527Z"/></svg>