<svg xmlns="http://www.w3.org/2000/svg" width="800" height="800"><path fill="none" d="M0 0h800v800H0z"/><clipPath id="a"><path d="M0 690h800v110H0z"/></clipPath><g clip-path="url(#a)"><path fill="#4caf50" d="M123.3 720h40v20h-40z"/><path fill="none" stroke="#fff" stroke-miterlimit="10" stroke-width="2" d="M123.3 720h40v20h-40z"/><path fill="#ff9800" d="M377.64 720h40v20h-40z"/><path fill="none" stroke="#fff" stroke-miterlimit="10" stroke-width="2" d="M377.64 720h40v20h-40z"/><path fill="#f44336" d="M262.92 770h40v20h-40z"/><path fill="none" stroke="#fff" stroke-miterlimit="10" stroke-width="2" d="M262.92 770h40v20h-40z"/></g><path fill="#4caf50" d="M400 1q4.339 0 8.676.11 4.337.109 8.67.328 4.334.218 8.66.546t8.643.765q4.317.438 8.621.983 4.305.546 8.594 1.2t8.56 1.416 8.522 1.632 8.479 1.846 8.428 2.06q4.202 1.083 8.375 2.271t8.314 2.482 8.25 2.69 8.178 2.898q4.07 1.5 8.103 3.104 4.032 1.602 8.022 3.306t7.936 3.508 7.845 3.707 7.75 3.904 7.647 4.098 7.543 4.29 7.432 4.477 7.316 4.665q3.63 2.378 7.197 4.847t7.072 5.027q3.504 2.559 6.943 5.205t6.81 5.377 6.671 5.548q3.3 2.816 6.53 5.714 3.228 2.898 6.383 5.877t6.233 6.036q3.079 3.057 6.08 6.191L400 345z"/><path fill="none" stroke="#fff" stroke-linejoin="bevel" stroke-width="2" d="M400 1q4.339 0 8.676.11 4.337.109 8.67.328 4.334.218 8.66.546t8.643.765q4.317.438 8.621.983 4.305.546 8.594 1.2t8.56 1.416 8.522 1.632 8.479 1.846 8.428 2.06q4.202 1.083 8.375 2.271t8.314 2.482 8.25 2.69 8.178 2.898q4.07 1.5 8.103 3.104 4.032 1.602 8.022 3.306t7.936 3.508 7.845 3.707 7.75 3.904 7.647 4.098 7.543 4.29 7.432 4.477 7.316 4.665q3.63 2.378 7.197 4.847t7.072 5.027q3.504 2.559 6.943 5.205t6.81 5.377 6.671 5.548q3.3 2.816 6.53 5.714 3.228 2.898 6.383 5.877t6.233 6.036q3.079 3.057 6.08 6.191L400 345z"/><path fill="#ff9800" d="M648.482 107.108q15.371 16.055 28.548 33.955t23.941 37.346L400 345z"/><path fill="none" stroke="#fff" stroke-linejoin="bevel" stroke-width="2" d="M648.482 107.108q15.371 16.055 28.548 33.955t23.941 37.346L400 345l248.482-237.892Z"/><path fill="#f44336" d="M700.97 178.41q4.09 7.388 7.813 14.968t7.067 15.334 6.307 15.662q2.962 7.908 5.531 15.953 2.57 8.044 4.741 16.205 2.172 8.16 3.941 16.418t3.13 16.591q1.362 8.335 2.312 16.726.951 8.39 1.49 16.818.537 8.428.661 16.872t-.167 16.883q-.29 8.44-.995 16.855-.704 8.416-1.82 16.786t-2.643 16.677q-1.526 8.305-3.458 16.526-1.931 8.22-4.264 16.337t-5.06 16.108q-2.729 7.992-5.846 15.84-3.116 7.85-6.615 15.535t-7.37 15.191q-3.87 7.505-8.105 14.812t-8.823 14.395q-4.589 7.09-9.52 13.946t-10.19 13.461-10.84 12.946q-5.58 6.34-11.462 12.397-5.883 6.059-12.057 11.82-6.173 5.763-12.622 11.216t-13.157 10.581-13.66 9.924-14.13 9.241q-7.18 4.447-14.568 8.537-4.883 2.703-9.85 5.245-4.968 2.543-10.016 4.923-5.047 2.38-10.17 4.596-5.121 2.215-10.313 4.263-5.19 2.048-10.446 3.927-5.255 1.878-10.568 3.585t-10.679 3.241-10.778 2.893-10.866 2.542-10.944 2.188-11.008 1.832q-5.52.826-11.062 1.473-5.543.647-11.104 1.114t-11.135.754-11.152.392-11.16.03-11.155-.333-11.138-.694-11.11-1.054-11.07-1.415-11.018-1.773-10.955-2.13q-5.46-1.153-10.88-2.483t-10.793-2.835-10.696-3.184q-5.322-1.678-10.587-3.529t-10.467-3.87q-5.203-2.02-10.336-4.208-5.134-2.188-10.194-4.542t-10.042-4.869-9.878-5.193-9.705-5.51q-7.274-4.288-14.33-8.928t-13.876-9.62q-6.82-4.981-13.386-10.29-6.567-5.31-12.866-10.935t-12.313-11.553q-6.015-5.927-11.732-12.142-5.717-6.216-11.122-12.704t-10.485-13.235q-5.08-6.745-9.823-13.732t-9.137-14.198q-4.395-7.212-8.43-14.63t-7.702-15.025q-3.666-7.608-6.955-15.386t-6.192-15.708-5.414-15.993-4.622-16.239q-2.112-8.176-3.82-16.447t-3.009-16.614-2.19-16.741q-.888-8.398-1.365-16.83-.476-8.43-.538-16.875t.29-16.882q.353-8.438 1.12-16.847.766-8.41 1.943-16.773t2.765-16.656 3.578-16.5 4.384-16.306 5.179-16.07 5.961-15.798 6.729-15.485 7.48-15.137q3.927-7.477 8.215-14.752 2.834-4.807 5.822-9.52t6.128-9.327 6.427-9.123 6.72-8.91 7.005-8.687 7.283-8.456 7.554-8.214 7.817-7.966q3.972-3.92 8.07-7.707 4.098-3.789 8.316-7.442t8.554-7.168q4.334-3.515 8.781-6.887 4.446-3.373 9-6.599t9.21-6.303 9.408-6q4.754-2.925 9.6-5.693 4.845-2.769 9.777-5.379 4.933-2.61 9.948-5.058t10.106-4.733 10.255-4.403 10.392-4.067 10.519-3.729 10.634-3.385 10.738-3.039 10.83-2.688 10.913-2.336q5.476-1.08 10.983-1.981t11.041-1.624 11.088-1.264 11.123-.904 11.147-.543T400 1v344z"/><path fill="none" stroke="#fff" stroke-linejoin="bevel" stroke-width="2" d="M700.97 178.41q4.09 7.388 7.813 14.968t7.067 15.334 6.307 15.662q2.962 7.908 5.531 15.953 2.57 8.044 4.741 16.205 2.172 8.16 3.941 16.418t3.13 16.591q1.362 8.335 2.312 16.726.951 8.39 1.49 16.818.537 8.428.661 16.872t-.167 16.883q-.29 8.44-.995 16.855-.704 8.416-1.82 16.786t-2.643 16.677q-1.526 8.305-3.458 16.526-1.931 8.22-4.264 16.337t-5.06 16.108q-2.729 7.992-5.846 15.84-3.116 7.85-6.615 15.535t-7.37 15.191q-3.87 7.505-8.105 14.812t-8.823 14.395q-4.589 7.09-9.52 13.946t-10.19 13.461-10.84 12.946q-5.58 6.34-11.462 12.397-5.883 6.059-12.057 11.82-6.173 5.763-12.622 11.216t-13.157 10.581-13.66 9.924-14.13 9.241q-7.18 4.447-14.568 8.537-4.883 2.703-9.85 5.245-4.968 2.543-10.016 4.923-5.047 2.38-10.17 4.596-5.121 2.215-10.313 4.263-5.19 2.048-10.446 3.927-5.255 1.878-10.568 3.585t-10.679 3.241-10.778 2.893-10.866 2.542-10.944 2.188-11.008 1.832q-5.52.826-11.062 1.473-5.543.647-11.104 1.114t-11.135.754-11.152.392-11.16.03-11.155-.333-11.138-.694-11.11-1.054-11.07-1.415-11.018-1.773-10.955-2.13q-5.46-1.153-10.88-2.483t-10.793-2.835-10.696-3.184q-5.322-1.678-10.587-3.529t-10.467-3.87q-5.203-2.02-10.336-4.208-5.134-2.188-10.194-4.542t-10.042-4.869-9.878-5.193-9.705-5.51q-7.274-4.288-14.33-8.928t-13.876-9.62q-6.82-4.981-13.386-10.29-6.567-5.31-12.866-10.935t-12.313-11.553q-6.015-5.927-11.732-12.142-5.717-6.216-11.122-12.704t-10.485-13.235q-5.08-6.745-9.823-13.732t-9.137-14.198q-4.395-7.212-8.43-14.63t-7.702-15.025q-3.666-7.608-6.955-15.386t-6.192-15.708-5.414-15.993-4.622-16.239q-2.112-8.176-3.82-16.447t-3.009-16.614-2.19-16.741q-.888-8.398-1.365-16.83-.476-8.43-.538-16.875t.29-16.882q.353-8.438 1.12-16.847.766-8.41 1.943-16.773t2.765-16.656 3.578-16.5 4.384-16.306 5.179-16.07 5.961-15.798 6.729-15.485 7.48-15.137q3.927-7.477 8.215-14.752 2.834-4.807 5.822-9.52t6.128-9.327 6.427-9.123 6.72-8.91 7.005-8.687 7.283-8.456 7.554-8.214 7.817-7.966q3.972-3.92 8.07-7.707 4.098-3.789 8.316-7.442t8.554-7.168q4.334-3.515 8.781-6.887 4.446-3.373 9-6.599t9.21-6.303 9.408-6q4.754-2.925 9.6-5.693 4.845-2.769 9.777-5.379 4.933-2.61 9.948-5.058t10.106-4.733 10.255-4.403 10.392-4.067 10.519-3.729 10.634-3.385 10.738-3.039 10.83-2.688 10.913-2.336q5.476-1.08 10.983-1.981t11.041-1.624 11.088-1.264 11.123-.904 11.147-.543T400 1v344l300.97-166.59Z"/></svg>