<svg xmlns="http://www.w3.org/2000/svg" width="800" height="800"><path fill="none" d="M0 0h800v800H0z"/><clipPath id="a"><path d="M0 740h800v60H0z"/></clipPath><g clip-path="url(#a)"><path fill="#4caf50" d="M144.605 770h40v20h-40z"/><path fill="none" stroke="#fff" stroke-miterlimit="10" stroke-width="2" d="M144.605 770h40v20h-40z"/><text x="194.605, 207.94484, 217.50539, 230.38625, 240.64992, 248.68703, 260.52295," y="787.5," fill="#666" font-family="DejaVu Serif" font-size="20">Trusted</text><path fill="#ff9800" d="M303.325 770h40v20h-40z"/><path fill="none" stroke="#fff" stroke-miterlimit="10" stroke-width="2" d="M303.325 770h40v20h-40z"/><text x="353.32501, 366.78204, 376.34259, 388.38361, 399.68243, 411.51837, 424.39923, 436.32306, 449.20392, 460.40509," y="787.5," fill="#666" font-family="DejaVu Serif" font-size="20">Provenance</text><path fill="#f44336" d="M502.245 770h40v20h-40z"/><path fill="none" stroke="#fff" stroke-miterlimit="10" stroke-width="2" d="M502.245 770h40v20h-40z"/><text x="552.245, 569.10046, 581.98132, 590.01843, 599.57898, 612.45984, 622.72351, 630.76062, 642.59656," y="787.5," fill="#666" font-family="DejaVu Serif" font-size="20">Untrusted</text></g><path fill="#4caf50" d="M400 1q6.882 0 13.759.257 6.877.256 13.74.77 6.863.512 13.701 1.28 6.84.769 13.645 1.792 6.805 1.022 13.568 2.298 6.762 1.276 13.472 2.803 6.71 1.528 13.36 3.304 6.648 1.776 13.226 3.8 6.578 2.022 13.076 4.289 6.497 2.267 12.906 4.774t12.72 5.253 12.514 5.723 12.293 6.185 12.054 6.64 11.798 7.084 11.525 7.52L400 370z"/><path fill="none" stroke="#fff" stroke-linejoin="bevel" stroke-width="2" d="M400 1q6.882 0 13.759.257 6.877.256 13.74.77 6.863.512 13.701 1.28 6.84.769 13.645 1.792 6.805 1.022 13.568 2.298 6.762 1.276 13.472 2.803 6.71 1.528 13.36 3.304 6.648 1.776 13.226 3.8 6.578 2.022 13.076 4.289 6.497 2.267 12.906 4.774t12.72 5.253 12.514 5.723 12.293 6.185 12.054 6.64 11.798 7.084 11.525 7.52L400 370z"/><path fill="#ff9800" d="M607.357 64.772q10.945 7.436 21.33 15.637 10.386 8.201 20.157 17.125 9.77 8.924 18.878 18.525 9.106 9.6 17.502 19.83L400 370z"/><path fill="none" stroke="#fff" stroke-linejoin="bevel" stroke-width="2" d="M607.357 64.772q10.945 7.436 21.33 15.637 10.386 8.201 20.157 17.125 9.77 8.924 18.878 18.525 9.106 9.6 17.502 19.83L400 370 607.357 64.772Z"/><path fill="#f44336" d="M685.224 135.888q5.747 7.002 11.144 14.278 5.396 7.275 10.43 14.806 5.033 7.532 9.69 15.301 4.658 7.77 8.928 15.758 4.271 7.989 8.145 16.177t7.34 16.557 6.52 16.897q3.052 8.53 5.682 17.197 2.63 8.669 4.832 17.455 2.202 8.787 3.97 17.671 1.767 8.885 3.097 17.845t2.218 17.975q.889 9.015 1.334 18.062t.446 18.106q0 9.059-.443 18.106-.444 9.048-1.331 18.063-.888 9.015-2.216 17.975t-3.095 17.845-3.967 17.672-4.83 17.455q-2.628 8.669-5.68 17.198-3.05 8.53-6.516 16.898-3.466 8.37-7.339 16.559-3.872 8.189-8.141 16.178t-8.926 15.759-9.689 15.302-10.428 14.809-11.141 14.278-11.83 13.715-12.487 13.119q-6.404 6.405-13.116 12.489t-13.713 11.83q-5.033 4.131-10.207 8.082-5.175 3.95-10.486 7.716t-10.752 7.34-11.003 6.958q-5.564 3.381-11.243 6.565-5.679 3.183-11.466 6.164-5.788 2.98-11.678 5.756-5.89 2.774-11.873 5.34t-12.054 4.918q-6.07 2.353-12.22 4.49-6.149 2.137-12.37 4.056t-12.506 3.617-12.626 3.174q-6.34 1.475-12.73 2.726-6.389 1.25-12.818 2.276-6.43 1.024-12.89 1.822-6.462.797-12.947 1.366-6.486.568-12.987.908t-13.011.45-13.019-.01q-6.51-.119-13.01-.468-6.501-.349-12.986-.927-6.484-.578-12.944-1.385-6.46-.806-12.888-1.84t-12.815-2.294-12.726-2.745q-6.34-1.484-12.622-3.192-6.282-1.707-12.5-3.635-6.219-1.927-12.365-4.073-6.147-2.146-12.214-4.508t-12.047-4.935-11.865-5.357q-8.189-3.873-16.178-8.143t-15.759-8.926-15.301-9.69-14.808-10.428-14.279-11.142-13.714-11.83q-6.713-6.082-13.118-12.487t-12.49-13.117q-6.083-6.712-11.83-13.714t-11.143-14.277-10.429-14.808-9.69-15.3-8.928-15.759-8.143-16.177q-3.874-8.189-7.34-16.557-3.467-8.37-6.52-16.898-3.051-8.529-5.681-17.197t-4.831-17.455q-2.202-8.787-3.97-17.672-1.767-8.884-3.096-17.844t-2.218-17.975-1.333-18.063T31 370.013t.444-18.106 1.331-18.062 2.217-17.975 3.096-17.845q1.766-8.885 3.967-17.672t4.83-17.455q2.63-8.669 5.68-17.198 3.052-8.529 6.518-16.898 3.467-8.369 7.34-16.558 2.783-5.885 5.772-11.669 2.989-5.783 6.18-11.458 3.192-5.674 6.581-11.232 3.39-5.559 6.973-10.994 3.584-5.436 7.357-10.741 3.773-5.306 7.73-10.475t8.096-10.195 8.45-9.904 8.794-9.6q4.482-4.721 9.128-9.282 4.645-4.561 9.449-8.956 4.803-4.394 9.759-8.616 4.955-4.222 10.057-8.267 5.101-4.045 10.342-7.907t10.615-7.537 10.874-7.158q5.5-3.484 11.12-6.77 5.62-3.287 11.352-6.374t11.57-5.97 11.772-5.556 11.962-5.139 12.135-4.713q6.11-2.25 12.294-4.283t12.438-3.846 12.566-3.405 12.677-2.96q6.365-1.367 12.775-2.51 6.409-1.143 12.854-2.058 6.446-.916 12.92-1.604t12.968-1.147 13-.688Q393.49 1 400 1v369z"/><path fill="none" stroke="#fff" stroke-linejoin="bevel" stroke-width="2" d="M685.224 135.888q5.747 7.002 11.144 14.278 5.396 7.275 10.43 14.806 5.033 7.532 9.69 15.301 4.658 7.77 8.928 15.758 4.271 7.989 8.145 16.177t7.34 16.557 6.52 16.897q3.052 8.53 5.682 17.197 2.63 8.669 4.832 17.455 2.202 8.787 3.97 17.671 1.767 8.885 3.097 17.845t2.218 17.975q.889 9.015 1.334 18.062t.446 18.106q0 9.059-.443 18.106-.444 9.048-1.331 18.063-.888 9.015-2.216 17.975t-3.095 17.845-3.967 17.672-4.83 17.455q-2.628 8.669-5.68 17.198-3.05 8.53-6.516 16.898-3.466 8.37-7.339 16.559-3.872 8.189-8.141 16.178t-8.926 15.759-9.689 15.302-10.428 14.809-11.141 14.278-11.83 13.715-12.487 13.119q-6.404 6.405-13.116 12.489t-13.713 11.83q-5.033 4.131-10.207 8.082-5.175 3.95-10.486 7.716t-10.752 7.34-11.003 6.958q-5.564 3.381-11.243 6.565-5.679 3.183-11.466 6.164-5.788 2.98-11.678 5.756-5.89 2.774-11.873 5.34t-12.054 4.918q-6.07 2.353-12.22 4.49-6.149 2.137-12.37 4.056t-12.506 3.617-12.626 3.174q-6.34 1.475-12.73 2.726-6.389 1.25-12.818 2.276-6.43 1.024-12.89 1.822-6.462.797-12.947 1.366-6.486.568-12.987.908t-13.011.45-13.019-.01q-6.51-.119-13.01-.468-6.501-.349-12.986-.927-6.484-.578-12.944-1.385-6.46-.806-12.888-1.84t-12.815-2.294-12.726-2.745q-6.34-1.484-12.622-3.192-6.282-1.707-12.5-3.635-6.219-1.927-12.365-4.073-6.147-2.146-12.214-4.508t-12.047-4.935-11.865-5.357q-8.189-3.873-16.178-8.143t-15.759-8.926-15.301-9.69-14.808-10.428-14.279-11.142-13.714-11.83q-6.713-6.082-13.118-12.487t-12.49-13.117q-6.083-6.712-11.83-13.714t-11.143-14.277-10.429-14.808-9.69-15.3-8.928-15.759-8.143-16.177q-3.874-8.189-7.34-16.557-3.467-8.37-6.52-16.898-3.051-8.529-5.681-17.197t-4.831-17.455q-2.202-8.787-3.97-17.672-1.767-8.884-3.096-17.844t-2.218-17.975-1.333-18.063T31 370.013t.444-18.106 1.331-18.062 2.217-17.975 3.096-17.845q1.766-8.885 3.967-17.672t4.83-17.455q2.63-8.669 5.68-17.198 3.052-8.529 6.518-16.898 3.467-8.369 7.34-16.558 2.783-5.885 5.772-11.669 2.989-5.783 6.18-11.458 3.192-5.674 6.581-11.232 3.39-5.559 6.973-10.994 3.584-5.436 7.357-10.741 3.773-5.306 7.73-10.475t8.096-10.195 8.45-9.904 8.794-9.6q4.482-4.721 9.128-9.282 4.645-4.561 9.449-8.956 4.803-4.394 9.759-8.616 4.955-4.222 10.057-8.267 5.101-4.045 10.342-7.907t10.615-7.537 10.874-7.158q5.5-3.484 11.12-6.77 5.62-3.287 11.352-6.374t11.57-5.97 11.772-5.556 11.962-5.139 12.135-4.713q6.11-2.25 12.294-4.283t12.438-3.846 12.566-3.405 12.677-2.96q6.365-1.367 12.775-2.51 6.409-1.143 12.854-2.058 6.446-.916 12.92-1.604t12.968-1.147 13-.688Q393.49 1 400 1v369l285.224-234.112Z"/></svg>