<svg xmlns="http://www.w3.org/2000/svg" width="800" height="800"><path fill="none" d="M0 0h800v800H0z"/><clipPath id="a"><path d="M0 690h800v110H0z"/></clipPath><g clip-path="url(#a)"><path fill="#4caf50" d="M123.3 720h40v20h-40z"/><path fill="none" stroke="#fff" stroke-miterlimit="10" stroke-width="2" d="M123.3 720h40v20h-40z"/><path fill="#ff9800" d="M377.64 720h40v20h-40z"/><path fill="none" stroke="#fff" stroke-miterlimit="10" stroke-width="2" d="M377.64 720h40v20h-40z"/><path fill="#f44336" d="M262.92 770h40v20h-40z"/><path fill="none" stroke="#fff" stroke-miterlimit="10" stroke-width="2" d="M262.92 770h40v20h-40z"/></g><path fill="#4caf50" d="M400 1q4.706 0 9.41.129 4.705.128 9.404.386 4.699.257 9.389.643t9.368.9 9.34 1.156q4.662.641 9.305 1.41 4.643.77 9.263 1.665 4.62.896 9.213 1.918 4.594 1.022 9.158 2.169t9.095 2.418 9.026 2.667 8.949 2.912 8.866 3.156q4.412 1.64 8.777 3.398t8.68 3.636 8.578 3.873q4.262 1.995 8.468 4.105t8.353 4.336 8.231 4.563 8.104 4.786 7.969 5.006 7.83 5.222 7.683 5.434 7.532 5.642 7.375 5.847 7.212 6.046 7.045 6.24q3.479 3.17 6.87 6.432t6.693 6.617q3.3 3.354 6.509 6.797 3.208 3.444 6.32 6.973t6.127 7.144L400 345z"/><path fill="none" stroke="#fff" stroke-linejoin="bevel" stroke-width="2" d="M400 1q4.706 0 9.41.129 4.705.128 9.404.386 4.699.257 9.389.643t9.368.9 9.34 1.156q4.662.641 9.305 1.41 4.643.77 9.263 1.665 4.62.896 9.213 1.918 4.594 1.022 9.158 2.169t9.095 2.418 9.026 2.667 8.949 2.912 8.866 3.156q4.412 1.64 8.777 3.398t8.68 3.636 8.578 3.873q4.262 1.995 8.468 4.105t8.353 4.336 8.231 4.563 8.104 4.786 7.969 5.006 7.83 5.222 7.683 5.434 7.532 5.642 7.375 5.847 7.212 6.046 7.045 6.24q3.479 3.17 6.87 6.432t6.693 6.617q3.3 3.354 6.509 6.797 3.208 3.444 6.32 6.973t6.127 7.144L400 345z"/><path fill="#ff9800" d="M664.142 124.626q13.703 16.424 25.265 34.418 11.563 17.995 20.807 37.284L400 345z"/><path fill="none" stroke="#fff" stroke-linejoin="bevel" stroke-width="2" d="M664.142 124.626q13.703 16.424 25.265 34.418 11.563 17.995 20.807 37.284L400 345l264.143-220.374Z"/><path fill="#f44336" d="M710.214 196.328q3.65 7.615 6.921 15.4t6.157 15.722 5.379 16.005 4.587 16.25q2.093 8.18 3.783 16.454t2.972 16.62q1.282 8.348 2.153 16.747.87 8.4 1.328 16.832t.501 16.877q.044 8.445-.327 16.881t-1.156 16.845-1.98 16.768-2.802 16.65-3.615 16.493-4.42 16.296-5.214 16.06-5.995 15.783-6.763 15.47-7.514 15.121-8.247 14.733-8.96 14.311-9.651 13.854q-4.996 6.81-10.32 13.364-5.323 6.556-10.962 12.842-5.64 6.286-11.58 12.288t-12.168 11.705-12.729 11.094-13.257 10.456-13.754 9.792q-6.998 4.728-14.218 9.107-7.221 4.378-14.648 8.397t-15.043 7.669q-4.89 2.343-9.852 4.532t-9.99 4.22q-5.029 2.03-10.119 3.902-5.09 1.871-10.236 3.581t-10.344 3.257-10.442 2.93-10.528 2.599-10.606 2.265-10.671 1.93q-5.351.882-10.728 1.593-5.376.712-10.771 1.254t-10.807.914-10.83.573-10.842.23-10.844-.11-10.835-.453-10.816-.794-10.785-1.134-10.744-1.474-10.692-1.812-10.63-2.148-10.557-2.482q-5.26-1.324-10.474-2.813t-10.38-3.142q-5.164-1.653-10.275-3.468-5.11-1.815-10.16-3.79-5.051-1.975-10.037-4.109t-9.902-4.422-9.757-4.733-9.604-5.038-9.44-5.338-9.267-5.633q-7.146-4.5-14.063-9.345-6.917-4.844-13.587-10.023t-13.08-10.678q-6.408-5.5-12.539-11.306-6.131-5.808-11.97-11.909-5.838-6.101-11.37-12.481-5.533-6.38-10.745-13.025-5.213-6.644-10.093-13.535-4.88-6.892-9.417-14.015-4.536-7.123-8.717-14.46t-7.997-14.87-7.259-15.245q-3.441-7.711-6.5-15.582t-5.73-15.883q-2.67-8.012-4.942-16.145-2.274-8.133-4.145-16.368t-3.337-16.551-2.52-16.695-1.698-16.799-.872-16.862-.043-16.884q.186-8.443.785-16.866.6-8.424 1.612-16.807 1.012-8.384 2.435-16.708 1.422-8.324 3.251-16.569 1.83-8.244 4.06-16.389 2.232-8.144 4.86-16.17 2.629-8.025 5.648-15.911 3.019-7.887 6.421-15.616t7.18-15.282q3.778-7.552 7.921-14.91 4.144-7.36 8.643-14.505 2.89-4.59 5.923-9.085t6.205-8.894 6.483-8.693q3.31-4.296 6.754-8.485 3.444-4.19 7.018-8.268t7.275-8.043 7.525-7.809 7.768-7.568 8.002-7.32 8.229-7.063 8.447-6.8q4.277-3.335 8.658-6.532t8.859-6.255 9.052-5.972q4.573-2.915 9.235-5.685 4.663-2.77 9.41-5.39 4.748-2.621 9.576-5.091t9.731-4.787 9.877-4.477 10.014-4.164 10.14-3.847 10.256-3.524q5.155-1.682 10.362-3.2t10.457-2.872q5.252-1.353 10.543-2.54 5.292-1.187 10.618-2.207t10.682-1.87 10.736-1.534 10.779-1.195 10.81-.853q5.413-.342 10.834-.513T400 1v344z"/><path fill="none" stroke="#fff" stroke-linejoin="bevel" stroke-width="2" d="M710.214 196.328q3.65 7.615 6.921 15.4t6.157 15.722 5.379 16.005 4.587 16.25q2.093 8.18 3.783 16.454t2.972 16.62q1.282 8.348 2.153 16.747.87 8.4 1.328 16.832t.501 16.877q.044 8.445-.327 16.881t-1.156 16.845-1.98 16.768-2.802 16.65-3.615 16.493-4.42 16.296-5.214 16.06-5.995 15.783-6.763 15.47-7.514 15.121-8.247 14.733-8.96 14.311-9.651 13.854q-4.996 6.81-10.32 13.364-5.323 6.556-10.962 12.842-5.64 6.286-11.58 12.288t-12.168 11.705-12.729 11.094-13.257 10.456-13.754 9.792q-6.998 4.728-14.218 9.107-7.221 4.378-14.648 8.397t-15.043 7.669q-4.89 2.343-9.852 4.532t-9.99 4.22q-5.029 2.03-10.119 3.902-5.09 1.871-10.236 3.581t-10.344 3.257-10.442 2.93-10.528 2.599-10.606 2.265-10.671 1.93q-5.351.882-10.728 1.593-5.376.712-10.771 1.254t-10.807.914-10.83.573-10.842.23-10.844-.11-10.835-.453-10.816-.794-10.785-1.134-10.744-1.474-10.692-1.812-10.63-2.148-10.557-2.482q-5.26-1.324-10.474-2.813t-10.38-3.142q-5.164-1.653-10.275-3.468-5.11-1.815-10.16-3.79-5.051-1.975-10.037-4.109t-9.902-4.422-9.757-4.733-9.604-5.038-9.44-5.338-9.267-5.633q-7.146-4.5-14.063-9.345-6.917-4.844-13.587-10.023t-13.08-10.678q-6.408-5.5-12.539-11.306-6.131-5.808-11.97-11.909-5.838-6.101-11.37-12.481-5.533-6.38-10.745-13.025-5.213-6.644-10.093-13.535-4.88-6.892-9.417-14.015-4.536-7.123-8.717-14.46t-7.997-14.87-7.259-15.245q-3.441-7.711-6.5-15.582t-5.73-15.883q-2.67-8.012-4.942-16.145-2.274-8.133-4.145-16.368t-3.337-16.551-2.52-16.695-1.698-16.799-.872-16.862-.043-16.884q.186-8.443.785-16.866.6-8.424 1.612-16.807 1.012-8.384 2.435-16.708 1.422-8.324 3.251-16.569 1.83-8.244 4.06-16.389 2.232-8.144 4.86-16.17 2.629-8.025 5.648-15.911 3.019-7.887 6.421-15.616t7.18-15.282q3.778-7.552 7.921-14.91 4.144-7.36 8.643-14.505 2.89-4.59 5.923-9.085t6.205-8.894 6.483-8.693q3.31-4.296 6.754-8.485 3.444-4.19 7.018-8.268t7.275-8.043 7.525-7.809 7.768-7.568 8.002-7.32 8.229-7.063 8.447-6.8q4.277-3.335 8.658-6.532t8.859-6.255 9.052-5.972q4.573-2.915 9.235-5.685 4.663-2.77 9.41-5.39 4.748-2.621 9.576-5.091t9.731-4.787 9.877-4.477 10.014-4.164 10.14-3.847 10.256-3.524q5.155-1.682 10.362-3.2t10.457-2.872q5.252-1.353 10.543-2.54 5.292-1.187 10.618-2.207t10.682-1.87 10.736-1.534 10.779-1.195 10.81-.853q5.413-.342 10.834-.513T400 1v344l310.214-148.672Z"/></svg>