<svg xmlns="http://www.w3.org/2000/svg" width="800" height="800"><path fill="none" d="M0 0h800v800H0z"/><clipPath id="a"><path d="M0 740h800v60H0z"/></clipPath><g clip-path="url(#a)"><path fill="#4caf50" d="M164.745 770h40v20h-40z"/><path fill="none" stroke="#fff" stroke-miterlimit="10" stroke-width="2" d="M164.745 770h40v20h-40z"/><text x="214.745, 226.2196, 232.87976, 244.00281, 254.00281, 259.55945, 270.6825," y="786.5," fill="#666" font-family="Liberation Sans" font-size="20">Trusted</text><path fill="#ff9800" d="M311.805 770h40v20h-40z"/><path fill="none" stroke="#fff" stroke-miterlimit="10" stroke-width="2" d="M311.805 770h40v20h-40z"/><text x="361.80499, 375.14484, 381.80499, 392.92804, 402.92804, 414.05109, 425.17413, 436.29718, 447.42023, 457.42023," y="786.5," fill="#666" font-family="Liberation Sans" font-size="20">Provenance</text><path fill="#f44336" d="M498.545 770h40v20h-40z"/><path fill="none" stroke="#fff" stroke-miterlimit="10" stroke-width="2" d="M498.545 770h40v20h-40z"/><text x="548.54498, 562.98834, 574.11139, 579.66803, 586.32819, 597.45123, 607.45123, 613.00787, 624.13092," y="786.5," fill="#666" font-family="Liberation Sans" font-size="20">Untrusted</text></g><path fill="#4caf50" d="M400 1q5.797 0 11.591.182 5.795.182 11.58.546t11.557.91 11.523 1.272q5.752.727 11.477 1.634t11.42 1.993 11.352 2.35q5.658 1.266 11.273 2.707 5.615 1.442 11.182 3.06 5.566 1.617 11.08 3.409 5.513 1.791 10.967 3.755t10.845 4.098 10.71 4.437 10.566 4.77q5.245 2.469 10.41 5.1 5.165 2.633 10.245 5.426t10.07 5.744q4.99 2.951 9.884 6.058t9.69 6.365 9.483 6.666 9.27 6.96 9.048 7.25 8.815 7.529 8.574 7.802 8.324 8.068 8.067 8.326q3.969 4.226 7.802 8.575t7.528 8.815 7.248 9.048 6.96 9.271 6.665 9.485 6.364 9.69L400 370z"/><path fill="none" stroke="#fff" stroke-linejoin="bevel" stroke-width="2" d="M400 1q5.797 0 11.591.182 5.795.182 11.58.546t11.557.91 11.523 1.272q5.752.727 11.477 1.634t11.42 1.993 11.352 2.35q5.658 1.266 11.273 2.707 5.615 1.442 11.182 3.06 5.566 1.617 11.08 3.409 5.513 1.791 10.967 3.755t10.845 4.098 10.71 4.437 10.566 4.77q5.245 2.469 10.41 5.1 5.165 2.633 10.245 5.426t10.07 5.744q4.99 2.951 9.884 6.058t9.69 6.365 9.483 6.666 9.27 6.96 9.048 7.25 8.815 7.529 8.574 7.802 8.324 8.068 8.067 8.326q3.969 4.226 7.802 8.575t7.528 8.815 7.248 9.048 6.96 9.271 6.665 9.485 6.364 9.69L400 370z"/><path fill="#ff9800" d="M711.57 172.301q10.014 15.78 18.381 32.493 8.368 16.712 15.004 34.183L400 370z"/><path fill="none" stroke="#fff" stroke-linejoin="bevel" stroke-width="2" d="M711.57 172.301q10.014 15.78 18.381 32.493 8.368 16.712 15.004 34.183L400 370l311.57-197.7z"/><path fill="#f44336" d="M744.955 238.977q3.217 8.469 6.014 17.084t5.168 17.359q2.37 8.743 4.31 17.591t3.441 17.781q1.503 8.933 2.565 17.93 1.063 8.995 1.682 18.032.62 9.038.796 18.094.175 9.057-.094 18.112t-.982 18.084-1.868 18.015-2.75 17.902-3.625 17.745-4.491 17.545-5.347 17.304q-2.886 8.587-6.19 17.021-3.303 8.435-7.017 16.697-3.713 8.263-7.828 16.333-4.114 8.07-8.62 15.928t-9.391 15.487-10.14 15.006-10.864 14.492-11.562 13.94q-5.952 6.83-12.232 13.357-6.28 6.529-12.872 12.74-6.593 6.213-13.483 12.094-6.89 5.882-14.06 11.418-7.169 5.536-14.602 10.713-7.433 5.178-15.11 9.985-7.679 4.806-15.583 9.23-7.905 4.425-16.017 8.456t-16.412 7.659-16.768 6.844q-5.212 1.98-10.482 3.801t-10.59 3.483q-5.323 1.66-10.692 3.16-5.37 1.5-10.783 2.837t-10.863 2.51-10.934 2.18-10.994 1.848-11.046 1.516-11.086 1.181-11.117.846q-5.565.34-11.138.51t-11.147.173q-5.576.002-11.148-.164-5.573-.166-11.138-.5-5.565-.335-11.118-.837-5.552-.503-11.087-1.173t-11.047-1.506-10.996-1.84-10.936-2.171-10.865-2.5q-5.413-1.333-10.784-2.829-5.371-1.495-10.694-3.152-5.324-1.656-10.595-3.473-5.27-1.817-10.484-3.793-5.213-1.975-10.365-4.107-5.151-2.132-10.236-4.419t-10.098-4.725-9.95-5.03-9.795-5.326-9.628-5.62q-4.772-2.884-9.455-5.91-4.683-3.025-9.272-6.191-7.456-5.144-14.65-10.648-7.196-5.503-14.112-11.353T148.161 639.7q-6.62-6.182-12.93-12.682t-12.292-13.3-11.625-13.89q-5.642-7.086-10.93-14.441t-10.207-14.961q-4.92-7.606-9.461-15.444t-8.693-15.889-7.901-16.297-7.093-16.665-6.267-16.992-5.425-17.28-4.57-17.525q-2.071-8.82-3.706-17.729-1.635-8.91-2.831-17.889t-1.95-18.006-1.064-18.08-.175-18.11.713-18.098 1.6-18.04 2.484-17.94 3.361-17.797 4.23-17.61 5.09-17.383 5.936-17.11 6.768-16.8 7.585-16.447 8.382-16.054 9.16-15.625 9.916-15.156q3.166-4.589 6.47-9.08 3.302-4.491 6.74-8.88 3.437-4.39 7.005-8.674t7.265-8.457 7.516-8.235 7.762-8.003 8-7.765q4.06-3.823 8.232-7.52 4.172-3.698 8.454-7.268t8.67-7.01q4.389-3.438 8.879-6.743t9.077-6.473q4.588-3.168 9.27-6.196t9.452-5.912 9.626-5.625 9.792-5.33 9.949-5.033 10.096-4.73q5.083-2.29 10.234-4.423t10.363-4.112q5.213-1.977 10.483-3.796 5.27-1.82 10.593-3.478 5.322-1.66 10.693-3.157t10.783-2.832 10.864-2.505 10.935-2.176q5.484-1.005 10.995-1.844 5.512-.839 11.046-1.511 5.535-.672 11.087-1.177 5.553-.505 11.118-.841 5.565-.337 11.137-.506Q394.425 1 400 1v369z"/><path fill="none" stroke="#fff" stroke-linejoin="bevel" stroke-width="2" d="M744.955 238.977q3.217 8.469 6.014 17.084t5.168 17.359q2.37 8.743 4.31 17.591t3.441 17.781q1.503 8.933 2.565 17.93 1.063 8.995 1.682 18.032.62 9.038.796 18.094.175 9.057-.094 18.112t-.982 18.084-1.868 18.015-2.75 17.902-3.625 17.745-4.491 17.545-5.347 17.304q-2.886 8.587-6.19 17.021-3.303 8.435-7.017 16.697-3.713 8.263-7.828 16.333-4.114 8.07-8.62 15.928t-9.391 15.487-10.14 15.006-10.864 14.492-11.562 13.94q-5.952 6.83-12.232 13.357-6.28 6.529-12.872 12.74-6.593 6.213-13.483 12.094-6.89 5.882-14.06 11.418-7.169 5.536-14.602 10.713-7.433 5.178-15.11 9.985-7.679 4.806-15.583 9.23-7.905 4.425-16.017 8.456t-16.412 7.659-16.768 6.844q-5.212 1.98-10.482 3.801t-10.59 3.483q-5.323 1.66-10.692 3.16-5.37 1.5-10.783 2.837t-10.863 2.51-10.934 2.18-10.994 1.848-11.046 1.516-11.086 1.181-11.117.846q-5.565.34-11.138.51t-11.147.173q-5.576.002-11.148-.164-5.573-.166-11.138-.5-5.565-.335-11.118-.837-5.552-.503-11.087-1.173t-11.047-1.506-10.996-1.84-10.936-2.171-10.865-2.5q-5.413-1.333-10.784-2.829-5.371-1.495-10.694-3.152-5.324-1.656-10.595-3.473-5.27-1.817-10.484-3.793-5.213-1.975-10.365-4.107-5.151-2.132-10.236-4.419t-10.098-4.725-9.95-5.03-9.795-5.326-9.628-5.62q-4.772-2.884-9.455-5.91-4.683-3.025-9.272-6.191-7.456-5.144-14.65-10.648-7.196-5.503-14.112-11.353T148.161 639.7q-6.62-6.182-12.93-12.682t-12.292-13.3-11.625-13.89q-5.642-7.086-10.93-14.441t-10.207-14.961q-4.92-7.606-9.461-15.444t-8.693-15.889-7.901-16.297-7.093-16.665-6.267-16.992-5.425-17.28-4.57-17.525q-2.071-8.82-3.706-17.729-1.635-8.91-2.831-17.889t-1.95-18.006-1.064-18.08-.175-18.11.713-18.098 1.6-18.04 2.484-17.94 3.361-17.797 4.23-17.61 5.09-17.383 5.936-17.11 6.768-16.8 7.585-16.447 8.382-16.054 9.16-15.625 9.916-15.156q3.166-4.589 6.47-9.08 3.302-4.491 6.74-8.88 3.437-4.39 7.005-8.674t7.265-8.457 7.516-8.235 7.762-8.003 8-7.765q4.06-3.823 8.232-7.52 4.172-3.698 8.454-7.268t8.67-7.01q4.389-3.438 8.879-6.743t9.077-6.473q4.588-3.168 9.27-6.196t9.452-5.912 9.626-5.625 9.792-5.33 9.949-5.033 10.096-4.73q5.083-2.29 10.234-4.423t10.363-4.112q5.213-1.977 10.483-3.796 5.27-1.82 10.593-3.478 5.322-1.66 10.693-3.157t10.783-2.832 10.864-2.505 10.935-2.176q5.484-1.005 10.995-1.844 5.512-.839 11.046-1.511 5.535-.672 11.087-1.177 5.553-.505 11.118-.841 5.565-.337 11.137-.506Q394.425 1 400 1v369l344.955-131.023Z"/></svg>