<svg xmlns="http://www.w3.org/2000/svg" width="800" height="800"><path fill="none" d="M0 0h800v800H0z"/><clipPath id="a"><path d="M0 740h800v60H0z"/></clipPath><g clip-path="url(#a)"><path fill="#4caf50" d="M144.605 770h40v20h-40z"/><path fill="none" stroke="#fff" stroke-miterlimit="10" stroke-width="2" d="M144.605 770h40v20h-40z"/><text x="194.605, 207.94484, 217.50539, 230.38625, 240.64992, 248.68703, 260.52295," y="787.5," fill="#666" font-family="DejaVu Serif" font-size="20">Trusted</text><path fill="#ff9800" d="M303.325 770h40v20h-40z"/><path fill="none" stroke="#fff" stroke-miterlimit="10" stroke-width="2" d="M303.325 770h40v20h-40z"/><text x="353.32501, 366.78204, 376.34259, 388.38361, 399.68243, 411.51837, 424.39923, 436.32306, 449.20392, 460.40509," y="787.5," fill="#666" font-family="DejaVu Serif" font-size="20">Provenance</text><path fill="#f44336" d="M502.245 770h40v20h-40z"/><path fill="none" stroke="#fff" stroke-miterlimit="10" stroke-width="2" d="M502.245 770h40v20h-40z"/><text x="552.245, 569.10046, 581.98132, 590.01843, 599.57898, 612.45984, 622.72351, 630.76062, 642.59656," y="787.5," fill="#666" font-family="DejaVu Serif" font-size="20">Untrusted</text></g><path fill="#4caf50" d="M400 1q11.013 0 22.006.657t21.928 1.968 21.772 3.272 21.538 4.565 21.227 5.841 20.84 7.097 20.381 8.327 19.848 9.528L400 370z"/><path fill="none" stroke="#fff" stroke-linejoin="bevel" stroke-width="2" d="M400 1q11.013 0 22.006.657t21.928 1.968 21.772 3.272 21.538 4.565 21.227 5.841 20.84 7.097 20.381 8.327 19.848 9.528L400 370z"/><path fill="#ff9800" d="M569.54 42.254q13.951 7.217 27.238 15.593 13.288 8.377 25.815 17.852t24.204 19.98 22.42 21.965L400 370z"/><path fill="none" stroke="#fff" stroke-linejoin="bevel" stroke-width="2" d="M569.54 42.254q13.951 7.217 27.238 15.593 13.288 8.377 25.815 17.852t24.204 19.98 22.42 21.965L400 370 569.54 42.254Z"/><path fill="#f44336" d="M669.216 117.644q6.195 6.609 12.058 13.513 5.864 6.905 11.381 14.09t10.676 14.63 9.944 15.137q4.787 7.69 9.19 15.607 4.404 7.916 8.414 16.038t7.616 16.433 6.8 16.786q3.195 8.476 5.97 17.1 2.774 8.622 5.122 17.371t4.264 17.602q1.916 8.854 3.396 17.79 1.479 8.938 2.518 17.936 1.039 8.999 1.635 18.038t.748 18.096-.14 18.11-1.03 18.083-1.915 18.01-2.797 17.894-3.671 17.735-4.537 17.534-5.392 17.29q-2.908 8.58-6.234 17.005-3.326 8.426-7.06 16.679-3.736 8.252-7.871 16.311-4.136 8.06-8.662 15.907t-9.431 15.461-10.18 14.98q-5.273 7.366-10.9 14.464-5.63 7.098-11.6 13.91t-12.266 13.325q-6.297 6.512-12.906 12.707-4.888 4.582-9.94 8.984-5.05 4.402-10.259 8.617-5.207 4.215-10.565 8.239-5.357 4.023-10.857 7.85t-11.135 7.45q-5.636 3.624-11.399 7.042t-11.646 6.623q-5.883 3.205-11.88 6.195-5.995 2.99-12.095 5.76-6.1 2.771-12.298 5.318-6.197 2.548-12.482 4.868-6.286 2.32-12.651 4.411t-12.803 3.95-12.937 3.481-13.056 3.01q-6.555 1.387-13.156 2.534-6.6 1.148-13.24 2.055-6.638.907-13.305 1.572-6.666.666-13.353 1.089t-13.384.603q-6.698.18-13.398.117-6.7-.064-13.393-.37-6.693-.307-13.37-.856-6.678-.549-13.33-1.34-6.654-.791-13.274-1.824t-13.198-2.304-13.106-2.782q-6.528-1.51-12.997-3.255-6.468-1.746-12.87-3.726-6.4-1.979-12.725-4.19-6.325-2.21-12.565-4.649t-12.389-5.102q-8.311-3.602-16.436-7.606-8.126-4.005-16.044-8.404-7.92-4.398-15.613-9.18t-15.143-9.936-14.637-10.666-14.096-11.372q-6.908-5.86-13.521-12.05t-12.914-12.7q-6.3-6.507-12.275-13.316-5.974-6.81-11.607-13.904t-10.91-14.456-10.188-14.974-9.441-15.456-8.672-15.901q-4.14-8.057-7.88-16.307t-7.071-16.674-6.245-17.001-5.402-17.287q-2.49-8.71-4.548-17.531-2.06-8.821-3.683-17.733t-2.807-17.893q-1.184-8.98-1.927-18.008-.742-9.028-1.04-18.082t-.152-18.11.737-18.097 1.624-18.039 2.507-17.937 3.385-17.792 4.253-17.605 5.112-17.375 5.958-17.103q3.19-8.479 6.79-16.79 2.664-6.148 5.55-12.195 2.884-6.048 5.987-11.986t6.419-11.76 6.842-11.52q3.525-5.697 7.255-11.263t7.66-10.992 8.053-10.707 8.437-10.408q4.313-5.128 8.809-10.095t9.17-9.768 9.518-9.43 9.854-9.076 10.178-8.714 10.487-8.338 10.782-7.952 11.065-7.555 11.331-7.15 11.584-6.732q5.852-3.26 11.82-6.307 5.967-3.047 12.041-5.875t12.247-5.433 12.436-4.985 12.608-4.531q6.346-2.15 12.765-4.07 6.42-1.919 12.904-3.603 6.485-1.685 13.027-3.133 6.541-1.449 13.131-2.658 6.59-1.21 13.22-2.18t13.29-1.698 13.342-1.214q6.683-.487 13.378-.73T400 1v369z"/><path fill="none" stroke="#fff" stroke-linejoin="bevel" stroke-width="2" d="M669.216 117.644q6.195 6.609 12.058 13.513 5.864 6.905 11.381 14.09t10.676 14.63 9.944 15.137q4.787 7.69 9.19 15.607 4.404 7.916 8.414 16.038t7.616 16.433 6.8 16.786q3.195 8.476 5.97 17.1 2.774 8.622 5.122 17.371t4.264 17.602q1.916 8.854 3.396 17.79 1.479 8.938 2.518 17.936 1.039 8.999 1.635 18.038t.748 18.096-.14 18.11-1.03 18.083-1.915 18.01-2.797 17.894-3.671 17.735-4.537 17.534-5.392 17.29q-2.908 8.58-6.234 17.005-3.326 8.426-7.06 16.679-3.736 8.252-7.871 16.311-4.136 8.06-8.662 15.907t-9.431 15.461-10.18 14.98q-5.273 7.366-10.9 14.464-5.63 7.098-11.6 13.91t-12.266 13.325q-6.297 6.512-12.906 12.707-4.888 4.582-9.94 8.984-5.05 4.402-10.259 8.617-5.207 4.215-10.565 8.239-5.357 4.023-10.857 7.85t-11.135 7.45q-5.636 3.624-11.399 7.042t-11.646 6.623q-5.883 3.205-11.88 6.195-5.995 2.99-12.095 5.76-6.1 2.771-12.298 5.318-6.197 2.548-12.482 4.868-6.286 2.32-12.651 4.411t-12.803 3.95-12.937 3.481-13.056 3.01q-6.555 1.387-13.156 2.534-6.6 1.148-13.24 2.055-6.638.907-13.305 1.572-6.666.666-13.353 1.089t-13.384.603q-6.698.18-13.398.117-6.7-.064-13.393-.37-6.693-.307-13.37-.856-6.678-.549-13.33-1.34-6.654-.791-13.274-1.824t-13.198-2.304-13.106-2.782q-6.528-1.51-12.997-3.255-6.468-1.746-12.87-3.726-6.4-1.979-12.725-4.19-6.325-2.21-12.565-4.649t-12.389-5.102q-8.311-3.602-16.436-7.606-8.126-4.005-16.044-8.404-7.92-4.398-15.613-9.18t-15.143-9.936-14.637-10.666-14.096-11.372q-6.908-5.86-13.521-12.05t-12.914-12.7q-6.3-6.507-12.275-13.316-5.974-6.81-11.607-13.904t-10.91-14.456-10.188-14.974-9.441-15.456-8.672-15.901q-4.14-8.057-7.88-16.307t-7.071-16.674-6.245-17.001-5.402-17.287q-2.49-8.71-4.548-17.531-2.06-8.821-3.683-17.733t-2.807-17.893q-1.184-8.98-1.927-18.008-.742-9.028-1.04-18.082t-.152-18.11.737-18.097 1.624-18.039 2.507-17.937 3.385-17.792 4.253-17.605 5.112-17.375 5.958-17.103q3.19-8.479 6.79-16.79 2.664-6.148 5.55-12.195 2.884-6.048 5.987-11.986t6.419-11.76 6.842-11.52q3.525-5.697 7.255-11.263t7.66-10.992 8.053-10.707 8.437-10.408q4.313-5.128 8.809-10.095t9.17-9.768 9.518-9.43 9.854-9.076 10.178-8.714 10.487-8.338 10.782-7.952 11.065-7.555 11.331-7.15 11.584-6.732q5.852-3.26 11.82-6.307 5.967-3.047 12.041-5.875t12.247-5.433 12.436-4.985 12.608-4.531q6.346-2.15 12.765-4.07 6.42-1.919 12.904-3.603 6.485-1.685 13.027-3.133 6.541-1.449 13.131-2.658 6.59-1.21 13.22-2.18t13.29-1.698 13.342-1.214q6.683-.487 13.378-.73T400 1v369l269.216-252.356Z"/></svg>