<svg xmlns="http://www.w3.org/2000/svg" width="800" height="800"><path fill="none" d="M0 0h800v800H0z"/><clipPath id="a"><path d="M0 740h800v60H0z"/></clipPath><g clip-path="url(#a)"><path fill="#4caf50" d="M144.605 770h40v20h-40z"/><path fill="none" stroke="#fff" stroke-miterlimit="10" stroke-width="2" d="M144.605 770h40v20h-40z"/><text x="194.605, 207.94484, 217.50539, 230.38625, 240.64992, 248.68703, 260.52295," y="787.5," fill="#666" font-family="DejaVu Serif" font-size="20">Trusted</text><path fill="#ff9800" d="M303.325 770h40v20h-40z"/><path fill="none" stroke="#fff" stroke-miterlimit="10" stroke-width="2" d="M303.325 770h40v20h-40z"/><text x="353.32501, 366.78204, 376.34259, 388.38361, 399.68243, 411.51837, 424.39923, 436.32306, 449.20392, 460.40509," y="787.5," fill="#666" font-family="DejaVu Serif" font-size="20">Provenance</text><path fill="#f44336" d="M502.245 770h40v20h-40z"/><path fill="none" stroke="#fff" stroke-miterlimit="10" stroke-width="2" d="M502.245 770h40v20h-40z"/><text x="552.245, 569.10046, 581.98132, 590.01843, 599.57898, 612.45984, 622.72351, 630.76062, 642.59656," y="787.5," fill="#666" font-family="DejaVu Serif" font-size="20">Untrusted</text></g><path fill="#4caf50" d="M400 1q7.733 0 15.46.324 7.726.324 15.432.971 7.706.648 15.378 1.618 7.673.97 15.297 2.26t15.19 2.898q7.563 1.609 15.053 3.533t14.893 4.16q7.403 2.237 14.706 4.781 7.302 2.544 14.492 5.392t14.254 5.995 13.99 6.587 13.701 7.167 13.39 7.735q6.613 4.008 13.053 8.29 6.44 4.28 12.695 8.828t12.314 9.353L400 370z"/><path fill="none" stroke="#fff" stroke-linejoin="bevel" stroke-width="2" d="M400 1q7.733 0 15.46.324 7.726.324 15.432.971 7.706.648 15.378 1.618 7.673.97 15.297 2.26t15.19 2.898q7.563 1.609 15.053 3.533t14.893 4.16q7.403 2.237 14.706 4.781 7.302 2.544 14.492 5.392t14.254 5.995 13.99 6.587 13.701 7.167 13.39 7.735q6.613 4.008 13.053 8.29 6.44 4.28 12.695 8.828t12.314 9.353L400 370z"/><path fill="#ff9800" d="M629.298 80.892q10.062 7.98 19.546 16.642t18.342 17.96q8.858 9.3 17.048 19.194 8.19 9.892 15.673 20.331L400 370z"/><path fill="none" stroke="#fff" stroke-linejoin="bevel" stroke-width="2" d="M629.298 80.892q10.062 7.98 19.546 16.642t18.342 17.96q8.858 9.3 17.048 19.194 8.19 9.892 15.673 20.331L400 370 629.298 80.892Z"/><path fill="#f44336" d="M699.907 155.019q5.277 7.362 10.187 14.975t9.44 15.456q4.531 7.844 8.671 15.901t7.88 16.308 7.07 16.674 6.244 17.001 5.401 17.287q2.49 8.71 4.547 17.532 2.059 8.821 3.682 17.733t2.807 17.893q1.183 8.98 1.925 18.009t1.04 18.081q.297 9.054.15 18.11-.146 9.058-.737 18.097t-1.625 18.039-2.508 17.937-3.385 17.792q-1.911 8.854-4.255 17.605-2.343 8.75-5.112 17.374-2.77 8.625-5.96 17.103t-6.79 16.79-7.608 16.437-8.404 16.043-9.181 15.612-9.936 15.143-10.668 14.636-11.372 14.096-12.05 13.52q-6.192 6.613-12.7 12.914-6.509 6.3-13.318 12.274-6.81 5.974-13.904 11.606t-14.457 10.91q-5.138 3.683-10.4 7.188-5.26 3.505-10.639 6.828-5.378 3.322-10.867 6.459t-11.082 6.083q-5.593 2.947-11.284 5.7-5.69 2.753-11.472 5.31t-11.648 4.914-11.81 4.512q-5.942 2.155-11.956 4.105t-12.09 3.693q-6.077 1.743-12.21 3.277-6.133 1.533-12.315 2.856t-12.405 2.433-12.482 2.007q-6.258.896-12.543 1.578-6.285.681-12.59 1.147t-12.621.715-12.639.283-12.64-.15-12.63-.584q-6.308-.4-12.6-1.016-6.292-.615-12.559-1.446t-12.502-1.876q-6.234-1.045-12.43-2.304t-12.344-2.727q-6.149-1.47-12.243-3.15-6.095-1.678-12.129-3.566t-11.999-3.98-11.855-4.388q-5.89-2.296-11.699-4.792-5.808-2.496-11.527-5.19-5.72-2.693-11.343-5.581-8.058-4.139-15.903-8.667-7.845-4.529-15.459-9.437t-14.977-10.184-14.46-10.906-13.906-11.603-13.32-12.271q-6.51-6.3-12.703-12.91t-12.054-13.518q-5.86-6.907-11.376-14.093T96.6 580.022q-5.156-7.449-9.94-15.14-4.784-7.693-9.185-15.61-4.401-7.918-8.408-16.042t-7.611-16.434-6.795-16.789-5.963-17.101-5.117-17.374-4.258-17.604-3.39-17.791q-1.476-8.938-2.512-17.937t-1.63-18.038-.741-18.096.147-18.11 1.035-18.082q.74-9.029 1.921-18.01 1.182-8.98 2.803-17.893t3.677-17.734 4.543-17.533q2.486-8.71 5.398-17.288 2.91-8.578 6.239-17.003 3.329-8.424 7.066-16.676 3.738-8.251 7.876-16.309 2.888-5.624 5.967-11.145 3.08-5.521 6.346-10.934t6.716-10.71 7.079-10.474 7.433-10.225q3.805-5.05 7.78-9.965 3.975-4.916 8.116-9.692 4.141-4.777 8.444-9.409 4.302-4.632 8.76-9.114 4.46-4.482 9.069-8.808 4.61-4.327 9.364-8.493t9.65-8.167q4.895-4 9.924-7.831 5.029-3.83 10.186-7.487t10.437-7.134 10.675-6.772q5.395-3.294 10.9-6.402t11.114-6.025q5.609-2.918 11.314-5.641 5.705-2.724 11.5-5.25 5.795-2.527 11.673-4.853 5.878-2.327 11.833-4.45 5.954-2.125 11.978-4.043 6.023-1.919 12.11-3.63 6.085-1.711 12.226-3.213 6.14-1.501 12.33-2.792 6.188-1.29 12.418-2.368t12.491-1.941q6.263-.864 12.551-1.513t12.596-1.081 12.625-.65T400 1v369z"/><path fill="none" stroke="#fff" stroke-linejoin="bevel" stroke-width="2" d="M699.907 155.019q5.277 7.362 10.187 14.975t9.44 15.456q4.531 7.844 8.671 15.901t7.88 16.308 7.07 16.674 6.244 17.001 5.401 17.287q2.49 8.71 4.547 17.532 2.059 8.821 3.682 17.733t2.807 17.893q1.183 8.98 1.925 18.009t1.04 18.081q.297 9.054.15 18.11-.146 9.058-.737 18.097t-1.625 18.039-2.508 17.937-3.385 17.792q-1.911 8.854-4.255 17.605-2.343 8.75-5.112 17.374-2.77 8.625-5.96 17.103t-6.79 16.79-7.608 16.437-8.404 16.043-9.181 15.612-9.936 15.143-10.668 14.636-11.372 14.096-12.05 13.52q-6.192 6.613-12.7 12.914-6.509 6.3-13.318 12.274-6.81 5.974-13.904 11.606t-14.457 10.91q-5.138 3.683-10.4 7.188-5.26 3.505-10.639 6.828-5.378 3.322-10.867 6.459t-11.082 6.083q-5.593 2.947-11.284 5.7-5.69 2.753-11.472 5.31t-11.648 4.914-11.81 4.512q-5.942 2.155-11.956 4.105t-12.09 3.693q-6.077 1.743-12.21 3.277-6.133 1.533-12.315 2.856t-12.405 2.433-12.482 2.007q-6.258.896-12.543 1.578-6.285.681-12.59 1.147t-12.621.715-12.639.283-12.64-.15-12.63-.584q-6.308-.4-12.6-1.016-6.292-.615-12.559-1.446t-12.502-1.876q-6.234-1.045-12.43-2.304t-12.344-2.727q-6.149-1.47-12.243-3.15-6.095-1.678-12.129-3.566t-11.999-3.98-11.855-4.388q-5.89-2.296-11.699-4.792-5.808-2.496-11.527-5.19-5.72-2.693-11.343-5.581-8.058-4.139-15.903-8.667-7.845-4.529-15.459-9.437t-14.977-10.184-14.46-10.906-13.906-11.603-13.32-12.271q-6.51-6.3-12.703-12.91t-12.054-13.518q-5.86-6.907-11.376-14.093T96.6 580.022q-5.156-7.449-9.94-15.14-4.784-7.693-9.185-15.61-4.401-7.918-8.408-16.042t-7.611-16.434-6.795-16.789-5.963-17.101-5.117-17.374-4.258-17.604-3.39-17.791q-1.476-8.938-2.512-17.937t-1.63-18.038-.741-18.096.147-18.11 1.035-18.082q.74-9.029 1.921-18.01 1.182-8.98 2.803-17.893t3.677-17.734 4.543-17.533q2.486-8.71 5.398-17.288 2.91-8.578 6.239-17.003 3.329-8.424 7.066-16.676 3.738-8.251 7.876-16.309 2.888-5.624 5.967-11.145 3.08-5.521 6.346-10.934t6.716-10.71 7.079-10.474 7.433-10.225q3.805-5.05 7.78-9.965 3.975-4.916 8.116-9.692 4.141-4.777 8.444-9.409 4.302-4.632 8.76-9.114 4.46-4.482 9.069-8.808 4.61-4.327 9.364-8.493t9.65-8.167q4.895-4 9.924-7.831 5.029-3.83 10.186-7.487t10.437-7.134 10.675-6.772q5.395-3.294 10.9-6.402t11.114-6.025q5.609-2.918 11.314-5.641 5.705-2.724 11.5-5.25 5.795-2.527 11.673-4.853 5.878-2.327 11.833-4.45 5.954-2.125 11.978-4.043 6.023-1.919 12.11-3.63 6.085-1.711 12.226-3.213 6.14-1.501 12.33-2.792 6.188-1.29 12.418-2.368t12.491-1.941q6.263-.864 12.551-1.513t12.596-1.081 12.625-.65T400 1v369l299.907-214.981Z"/></svg>