<svg xmlns="http://www.w3.org/2000/svg" width="800" height="800"><path fill="none" d="M0 0h800v800H0z"/><clipPath id="a"><path d="M0 740h800v60H0z"/></clipPath><g clip-path="url(#a)"><path fill="#4caf50" d="M144.605 770h40v20h-40z"/><path fill="none" stroke="#fff" stroke-miterlimit="10" stroke-width="2" d="M144.605 770h40v20h-40z"/><text x="194.605, 207.94484, 217.50539, 230.38625, 240.64992, 248.68703, 260.52295," y="787.5," fill="#666" font-family="DejaVu Serif" font-size="20">Trusted</text><path fill="#ff9800" d="M303.325 770h40v20h-40z"/><path fill="none" stroke="#fff" stroke-miterlimit="10" stroke-width="2" d="M303.325 770h40v20h-40z"/><text x="353.32501, 366.78204, 376.34259, 388.38361, 399.68243, 411.51837, 424.39923, 436.32306, 449.20392, 460.40509," y="787.5," fill="#666" font-family="DejaVu Serif" font-size="20">Provenance</text><path fill="#f44336" d="M502.245 770h40v20h-40z"/><path fill="none" stroke="#fff" stroke-miterlimit="10" stroke-width="2" d="M502.245 770h40v20h-40z"/><text x="552.245, 569.10046, 581.98132, 590.01843, 599.57898, 612.45984, 622.72351, 630.76062, 642.59656," y="787.5," fill="#666" font-family="DejaVu Serif" font-size="20">Untrusted</text></g><path fill="#4caf50" d="M400 1q8.701 0 17.393.41t17.355 1.23 17.277 2.046 17.161 2.858q8.548 1.632 17.008 3.664 8.461 2.033 16.817 4.462t16.587 5.25q8.231 2.82 16.321 6.025t16.02 6.788 15.68 7.535 15.31 8.266 14.901 8.979 14.463 9.671 13.99 10.342 13.488 10.99 12.954 11.614L400 370z"/><path fill="none" stroke="#fff" stroke-linejoin="bevel" stroke-width="2" d="M400 1q8.701 0 17.393.41t17.355 1.23 17.277 2.046 17.161 2.858q8.548 1.632 17.008 3.664 8.461 2.033 16.817 4.462t16.587 5.25q8.231 2.82 16.321 6.025t16.02 6.788 15.68 7.535 15.31 8.266 14.901 8.979 14.463 9.671 13.99 10.342 13.488 10.99 12.954 11.614L400 370z"/><path fill="#ff9800" d="M652.725 101.13q9.145 8.596 17.685 17.794t16.436 18.954 15.11 20.028 13.713 21.008L400 370z"/><path fill="none" stroke="#fff" stroke-linejoin="bevel" stroke-width="2" d="M652.725 101.13q9.145 8.596 17.685 17.794t16.436 18.954 15.11 20.028 13.713 21.008L400 370l252.725-268.87Z"/><path fill="#f44336" d="M715.67 178.914q4.69 7.75 8.995 15.72t8.214 16.141q3.909 8.172 7.412 16.526t6.592 16.869 5.756 17.172 4.907 17.434 4.045 17.654q1.807 8.876 3.175 17.831t2.295 17.965 1.412 18.057q.484 9.045.523 18.104t-.365 18.107q-.405 9.05-1.253 18.068-.849 9.019-2.139 17.985t-3.018 17.858q-1.728 8.892-3.89 17.689-2.164 8.796-4.755 17.476-2.592 8.68-5.606 17.222t-6.444 16.926-7.267 16.59-8.073 16.213-8.858 15.797-9.622 15.344-10.364 14.853-11.08 14.327-11.77 13.765-12.431 13.172-13.063 12.546-13.662 11.89-14.23 11.205-14.761 10.493-15.259 9.756q-5.217 3.158-10.535 6.142t-10.732 5.79-10.918 5.433-11.09 5.068-11.254 4.7-11.401 4.325-11.539 3.946-11.662 3.562-11.774 3.175-11.872 2.785-11.958 2.39-12.03 1.995q-6.032.897-12.09 1.595t-12.136 1.196-12.169.793-12.188.391-12.194-.012-12.188-.414-12.167-.818-12.133-1.218-12.087-1.62-12.026-2.017-11.953-2.414-11.867-2.808q-5.91-1.501-11.768-3.198-5.857-1.696-11.655-3.585t-11.531-3.968-11.393-4.348-11.244-4.721-11.081-5.09-10.907-5.454-10.72-5.81q-7.892-4.449-15.556-9.278t-15.081-10.03q-7.417-5.199-14.57-10.756t-14.026-11.46-13.446-12.133-12.835-12.779-12.192-13.393-11.52-13.975q-5.59-7.13-10.821-14.524-5.233-7.394-10.096-15.037-4.862-7.642-9.345-15.514-4.482-7.872-8.572-15.954t-7.78-16.356-6.967-16.717-6.139-17.04-5.295-17.32-4.44-17.559-3.572-17.755-2.696-17.91-1.815-18.02-.928-18.088-.04-18.111.85-18.092 1.735-18.028 2.619-17.921 3.494-17.771 4.362-17.578 5.22-17.343 6.064-17.066 6.895-16.748 7.707-16.39 8.503-15.991q2.994-5.313 6.162-10.523t6.507-10.314 6.843-10.093 7.174-9.861 7.495-9.62 7.81-9.365 8.114-9.103 8.41-8.83q4.28-4.345 8.699-8.547 4.42-4.201 8.975-8.255 4.556-4.053 9.244-7.954t9.5-7.644q4.815-3.743 9.75-7.326t9.985-7q5.05-3.417 10.211-6.666 5.16-3.248 10.426-6.325 5.265-3.076 10.63-5.977 5.363-2.9 10.82-5.622t11-5.262q5.545-2.54 11.17-4.896 5.624-2.356 11.324-4.524t11.467-4.147q5.769-1.979 11.599-3.766t11.716-3.38 11.822-2.993q5.936-1.398 11.914-2.6 5.979-1.2 11.994-2.204 6.015-1.003 12.06-1.806t12.113-1.408 12.153-1.006 12.18-.605T400 1v369z"/><path fill="none" stroke="#fff" stroke-linejoin="bevel" stroke-width="2" d="M715.67 178.914q4.69 7.75 8.995 15.72t8.214 16.141q3.909 8.172 7.412 16.526t6.592 16.869 5.756 17.172 4.907 17.434 4.045 17.654q1.807 8.876 3.175 17.831t2.295 17.965 1.412 18.057q.484 9.045.523 18.104t-.365 18.107q-.405 9.05-1.253 18.068-.849 9.019-2.139 17.985t-3.018 17.858q-1.728 8.892-3.89 17.689-2.164 8.796-4.755 17.476-2.592 8.68-5.606 17.222t-6.444 16.926-7.267 16.59-8.073 16.213-8.858 15.797-9.622 15.344-10.364 14.853-11.08 14.327-11.77 13.765-12.431 13.172-13.063 12.546-13.662 11.89-14.23 11.205-14.761 10.493-15.259 9.756q-5.217 3.158-10.535 6.142t-10.732 5.79-10.918 5.433-11.09 5.068-11.254 4.7-11.401 4.325-11.539 3.946-11.662 3.562-11.774 3.175-11.872 2.785-11.958 2.39-12.03 1.995q-6.032.897-12.09 1.595t-12.136 1.196-12.169.793-12.188.391-12.194-.012-12.188-.414-12.167-.818-12.133-1.218-12.087-1.62-12.026-2.017-11.953-2.414-11.867-2.808q-5.91-1.501-11.768-3.198-5.857-1.696-11.655-3.585t-11.531-3.968-11.393-4.348-11.244-4.721-11.081-5.09-10.907-5.454-10.72-5.81q-7.892-4.449-15.556-9.278t-15.081-10.03q-7.417-5.199-14.57-10.756t-14.026-11.46-13.446-12.133-12.835-12.779-12.192-13.393-11.52-13.975q-5.59-7.13-10.821-14.524-5.233-7.394-10.096-15.037-4.862-7.642-9.345-15.514-4.482-7.872-8.572-15.954t-7.78-16.356-6.967-16.717-6.139-17.04-5.295-17.32-4.44-17.559-3.572-17.755-2.696-17.91-1.815-18.02-.928-18.088-.04-18.111.85-18.092 1.735-18.028 2.619-17.921 3.494-17.771 4.362-17.578 5.22-17.343 6.064-17.066 6.895-16.748 7.707-16.39 8.503-15.991q2.994-5.313 6.162-10.523t6.507-10.314 6.843-10.093 7.174-9.861 7.495-9.62 7.81-9.365 8.114-9.103 8.41-8.83q4.28-4.345 8.699-8.547 4.42-4.201 8.975-8.255 4.556-4.053 9.244-7.954t9.5-7.644q4.815-3.743 9.75-7.326t9.985-7q5.05-3.417 10.211-6.666 5.16-3.248 10.426-6.325 5.265-3.076 10.63-5.977 5.363-2.9 10.82-5.622t11-5.262q5.545-2.54 11.17-4.896 5.624-2.356 11.324-4.524t11.467-4.147q5.769-1.979 11.599-3.766t11.716-3.38 11.822-2.993q5.936-1.398 11.914-2.6 5.979-1.2 11.994-2.204 6.015-1.003 12.06-1.806t12.113-1.408 12.153-1.006 12.18-.605T400 1v369l315.67-191.086Z"/></svg>