<svg xmlns="http://www.w3.org/2000/svg" width="800" height="800"><path fill="none" d="M0 0h800v800H0z"/><clipPath id="a"><path d="M0 740h800v60H0z"/></clipPath><g clip-path="url(#a)"><path fill="#4caf50" d="M138.975 770h40v20h-40z"/><path fill="none" stroke="#fff" stroke-miterlimit="10" stroke-width="2" d="M138.975 770h40v20h-40z"/><text x="188.97501, 200.97696, 212.97891, 224.98087, 236.98282, 248.98477, 260.98672," y="785.5," fill="#666" font-family="Liberation Mono" font-size="20">Trusted</text><path fill="#ff9800" d="M302.985 770h40v20h-40z"/><path fill="none" stroke="#fff" stroke-miterlimit="10" stroke-width="2" d="M302.985 770h40v20h-40z"/><text x="352.98502, 364.98697, 376.98892, 388.99088, 400.99283, 412.99478, 424.99673, 436.99869, 449.00064, 461.00259," y="785.5," fill="#666" font-family="Liberation Mono" font-size="20">Provenance</text><path fill="#f44336" d="M503.005 770h40v20h-40z"/><path fill="none" stroke="#fff" stroke-miterlimit="10" stroke-width="2" d="M503.005 770h40v20h-40z"/><text x="553.005, 565.00696, 577.00891, 589.01086, 601.01282, 613.01477, 625.01672, 637.01868, 649.02063," y="785.5," fill="#666" font-family="Liberation Mono" font-size="20">Untrusted</text></g><path fill="#4caf50" d="M400 1q6.04 0 12.077.198 6.037.197 12.065.593t12.038.987 12 1.381 11.948 1.773 11.884 2.163 11.807 2.55q5.882 1.373 11.717 2.937 5.834 1.564 11.614 3.318t11.5 3.696 11.372 4.07 11.233 4.441 11.082 4.806 10.918 5.166T574 44.6t10.557 5.87 10.36 6.212q5.128 3.19 10.15 6.547t9.93 6.876q4.91 3.52 9.701 7.198t9.46 7.511q4.668 3.833 9.209 7.817t8.948 8.114 8.677 8.402 8.398 8.682 8.11 8.953q3.98 4.542 7.811 9.213t7.506 9.463q3.676 4.793 7.193 9.704t6.87 9.935 6.543 10.154 6.206 10.362L400 370z"/><path fill="none" stroke="#fff" stroke-linejoin="bevel" stroke-width="2" d="M400 1q6.04 0 12.077.198 6.037.197 12.065.593t12.038.987 12 1.381 11.948 1.773 11.884 2.163 11.807 2.55q5.882 1.373 11.717 2.937 5.834 1.564 11.614 3.318t11.5 3.696 11.372 4.07 11.233 4.441 11.082 4.806 10.918 5.166T574 44.6t10.557 5.87 10.36 6.212q5.128 3.19 10.15 6.547t9.93 6.876q4.91 3.52 9.701 7.198t9.46 7.511q4.668 3.833 9.209 7.817t8.948 8.114 8.677 8.402 8.398 8.682 8.11 8.953q3.98 4.542 7.811 9.213t7.506 9.463q3.676 4.793 7.193 9.704t6.87 9.935 6.543 10.154 6.206 10.362L400 370z"/><path fill="#ff9800" d="M719.628 185.612q9.105 15.784 16.611 32.388t13.34 33.866L400 370z"/><path fill="none" stroke="#fff" stroke-linejoin="bevel" stroke-width="2" d="M719.628 185.612q9.105 15.784 16.611 32.388t13.34 33.866L400 370l319.628-184.388Z"/><path fill="#f44336" d="M749.579 251.866q2.9 8.582 5.375 17.296t4.52 17.538q2.046 8.824 3.655 17.739 1.61 8.914 2.78 17.897t1.898 18.011q.728 9.03 1.012 18.083.284 9.054.123 18.111t-.765 18.096-1.653 18.036-2.535 17.933-3.412 17.787-4.281 17.598-5.14 17.367-5.985 17.094-6.816 16.78-7.632 16.424q-4.018 8.12-8.429 16.031-4.41 7.912-9.205 15.598-4.794 7.686-9.96 15.127-5.165 7.442-10.689 14.62-5.524 7.18-11.394 14.079t-12.071 13.502-12.72 12.894q-6.517 6.29-13.336 12.254-6.818 5.963-13.921 11.585-7.103 5.621-14.474 10.888-7.37 5.266-14.99 10.164-7.62 4.899-15.47 9.417-7.852 4.519-15.915 8.646t-16.32 7.855q-8.256 3.728-16.685 7.045-8.429 3.318-17.01 6.218-5.18 1.75-10.41 3.347t-10.506 3.037-10.59 2.724-10.666 2.41-10.733 2.092-10.79 1.773q-5.41.807-10.839 1.453t-10.876 1.131q-5.447.485-10.906.808-5.458.324-10.924.485t-10.934.16-10.934-.162-10.924-.487-10.905-.811-10.877-1.133q-5.43-.648-10.837-1.456-5.409-.808-10.79-1.775-5.382-.968-10.733-2.095-5.35-1.127-10.666-2.412-5.315-1.284-10.59-2.726t-10.504-3.04-10.41-3.349-10.305-3.656-10.193-3.96q-5.067-2.055-10.071-4.26t-9.94-4.557-9.802-4.85-9.653-5.137-9.497-5.421-9.331-5.7q-4.624-2.92-9.16-5.975-4.534-3.055-8.977-6.243-7.36-5.282-14.45-10.918-7.092-5.636-13.899-11.613t-13.311-12.282-12.693-12.92-12.043-13.526-11.366-14.102q-5.51-7.19-10.66-14.642t-9.927-15.148-9.174-15.617q-4.394-7.92-8.395-16.047t-7.599-16.441q-3.597-8.314-6.782-16.794t-5.95-17.106-5.104-17.377q-2.338-8.752-4.245-17.607-1.906-8.856-3.375-17.794t-2.499-17.939-1.615-18.039-.729-18.097.161-18.11 1.049-18.081 1.935-18.008 2.816-17.891 3.69-17.732q2.064-8.82 4.557-17.529t5.41-17.284 6.253-16.998q3.335-8.422 7.08-16.67 3.743-8.249 7.888-16.304t8.679-15.896 9.448-15.452 10.195-14.97q3.189-4.442 6.507-8.788t6.764-8.592 7.016-8.388 7.26-8.176q3.692-4.035 7.501-7.958t7.733-7.732q3.923-3.809 7.958-7.5t8.177-7.26q4.143-3.57 8.39-7.014 4.245-3.446 8.592-6.763 4.347-3.318 8.79-6.506t8.978-6.242 9.16-5.974 9.332-5.699 9.497-5.42 9.654-5.137q4.864-2.497 9.801-4.848t9.941-4.556 10.072-4.26q5.067-2.054 10.193-3.958t10.306-3.655 10.41-3.348 10.505-3.038q5.275-1.442 10.59-2.726t10.666-2.41q5.35-1.127 10.733-2.094 5.382-.967 10.79-1.774 5.408-.808 10.838-1.454 5.43-.647 10.877-1.133 5.446-.485 10.905-.809t10.924-.486T400 1v369z"/><path fill="none" stroke="#fff" stroke-linejoin="bevel" stroke-width="2" d="M749.579 251.866q2.9 8.582 5.375 17.296t4.52 17.538q2.046 8.824 3.655 17.739 1.61 8.914 2.78 17.897t1.898 18.011q.728 9.03 1.012 18.083.284 9.054.123 18.111t-.765 18.096-1.653 18.036-2.535 17.933-3.412 17.787-4.281 17.598-5.14 17.367-5.985 17.094-6.816 16.78-7.632 16.424q-4.018 8.12-8.429 16.031-4.41 7.912-9.205 15.598-4.794 7.686-9.96 15.127-5.165 7.442-10.689 14.62-5.524 7.18-11.394 14.079t-12.071 13.502-12.72 12.894q-6.517 6.29-13.336 12.254-6.818 5.963-13.921 11.585-7.103 5.621-14.474 10.888-7.37 5.266-14.99 10.164-7.62 4.899-15.47 9.417-7.852 4.519-15.915 8.646t-16.32 7.855q-8.256 3.728-16.685 7.045-8.429 3.318-17.01 6.218-5.18 1.75-10.41 3.347t-10.506 3.037-10.59 2.724-10.666 2.41-10.733 2.092-10.79 1.773q-5.41.807-10.839 1.453t-10.876 1.131q-5.447.485-10.906.808-5.458.324-10.924.485t-10.934.16-10.934-.162-10.924-.487-10.905-.811-10.877-1.133q-5.43-.648-10.837-1.456-5.409-.808-10.79-1.775-5.382-.968-10.733-2.095-5.35-1.127-10.666-2.412-5.315-1.284-10.59-2.726t-10.504-3.04-10.41-3.349-10.305-3.656-10.193-3.96q-5.067-2.055-10.071-4.26t-9.94-4.557-9.802-4.85-9.653-5.137-9.497-5.421-9.331-5.7q-4.624-2.92-9.16-5.975-4.534-3.055-8.977-6.243-7.36-5.282-14.45-10.918-7.092-5.636-13.899-11.613t-13.311-12.282-12.693-12.92-12.043-13.526-11.366-14.102q-5.51-7.19-10.66-14.642t-9.927-15.148-9.174-15.617q-4.394-7.92-8.395-16.047t-7.599-16.441q-3.597-8.314-6.782-16.794t-5.95-17.106-5.104-17.377q-2.338-8.752-4.245-17.607-1.906-8.856-3.375-17.794t-2.499-17.939-1.615-18.039-.729-18.097.161-18.11 1.049-18.081 1.935-18.008 2.816-17.891 3.69-17.732q2.064-8.82 4.557-17.529t5.41-17.284 6.253-16.998q3.335-8.422 7.08-16.67 3.743-8.249 7.888-16.304t8.679-15.896 9.448-15.452 10.195-14.97q3.189-4.442 6.507-8.788t6.764-8.592 7.016-8.388 7.26-8.176q3.692-4.035 7.501-7.958t7.733-7.732q3.923-3.809 7.958-7.5t8.177-7.26q4.143-3.57 8.39-7.014 4.245-3.446 8.592-6.763 4.347-3.318 8.79-6.506t8.978-6.242 9.16-5.974 9.332-5.699 9.497-5.42 9.654-5.137q4.864-2.497 9.801-4.848t9.941-4.556 10.072-4.26q5.067-2.054 10.193-3.958t10.306-3.655 10.41-3.348 10.505-3.038q5.275-1.442 10.59-2.726t10.666-2.41q5.35-1.127 10.733-2.094 5.382-.967 10.79-1.774 5.408-.808 10.838-1.454 5.43-.647 10.877-1.133 5.446-.485 10.905-.809t10.924-.486T400 1v369l349.579-118.134Z"/></svg>