<svg xmlns="http://www.w3.org/2000/svg" width="800" height="800"><path fill="none" d="M0 0h800v800H0z"/><clipPath id="a"><path d="M0 690h800v110H0z"/></clipPath><g clip-path="url(#a)"><path fill="#4caf50" d="M123.3 720h40v20h-40z"/><path fill="none" stroke="#fff" stroke-miterlimit="10" stroke-width="2" d="M123.3 720h40v20h-40z"/><path fill="#ff9800" d="M377.64 720h40v20h-40z"/><path fill="none" stroke="#fff" stroke-miterlimit="10" stroke-width="2" d="M377.64 720h40v20h-40z"/><path fill="#f44336" d="M262.92 770h40v20h-40z"/><path fill="none" stroke="#fff" stroke-miterlimit="10" stroke-width="2" d="M262.92 770h40v20h-40z"/></g><path fill="#4caf50" d="M400 1q4.459 0 8.916.116 4.458.115 8.91.346 4.454.231 8.9.578 4.445.346 8.88.808 4.434.461 8.856 1.037 4.422.577 8.827 1.268 4.405.69 8.79 1.495 4.386.805 8.75 1.723t8.701 1.949q4.338 1.03 8.648 2.173t8.589 2.398 8.524 2.619 8.453 2.839 8.376 3.057 8.295 3.274 8.207 3.487q4.08 1.797 8.114 3.699 4.033 1.902 8.015 3.907t7.911 4.115q3.93 2.108 7.802 4.318 3.873 2.21 7.687 4.518 3.815 2.31 7.568 4.717t7.443 4.911 7.313 5.102q3.624 2.599 7.178 5.29 3.555 2.692 7.04 5.475 3.483 2.783 6.894 5.655t6.746 5.832 6.592 6.005q3.257 3.045 6.434 6.173t6.272 6.338 6.106 6.5L400 345z"/><path fill="none" stroke="#fff" stroke-linejoin="bevel" stroke-width="2" d="M400 1q4.459 0 8.916.116 4.458.115 8.91.346 4.454.231 8.9.578 4.445.346 8.88.808 4.434.461 8.856 1.037 4.422.577 8.827 1.268 4.405.69 8.79 1.495 4.386.805 8.75 1.723t8.701 1.949q4.338 1.03 8.648 2.173t8.589 2.398 8.524 2.619 8.453 2.839 8.376 3.057 8.295 3.274 8.207 3.487q4.08 1.797 8.114 3.699 4.033 1.902 8.015 3.907t7.911 4.115q3.93 2.108 7.802 4.318 3.873 2.21 7.687 4.518 3.815 2.31 7.568 4.717t7.443 4.911 7.313 5.102q3.624 2.599 7.178 5.29 3.555 2.692 7.04 5.475 3.483 2.783 6.894 5.655t6.746 5.832 6.592 6.005q3.257 3.045 6.434 6.173t6.272 6.338 6.106 6.5L400 345z"/><path fill="#ff9800" d="M653.737 112.721q14.59 15.938 27.071 33.576 12.481 17.639 22.657 36.7L400 345z"/><path fill="none" stroke="#fff" stroke-linejoin="bevel" stroke-width="2" d="M653.737 112.721q14.59 15.938 27.071 33.576 12.481 17.639 22.657 36.7L400 345l253.737-232.279Z"/><path fill="#f44336" d="M703.465 182.998q3.977 7.45 7.584 15.085t6.834 15.44 6.068 15.756 5.288 16.035 4.495 16.275 3.691 16.476 2.878 16.637 2.058 16.758 1.233 16.84.406 16.88q-.005 8.444-.423 16.878-.419 8.435-1.251 16.838t-2.076 16.756-2.895 16.635-3.708 16.472q-2.056 8.19-4.512 16.27t-5.304 16.03q-2.85 7.95-6.085 15.75-3.236 7.8-6.85 15.432-3.615 7.632-7.6 15.077t-8.33 14.687-9.04 14.26-9.73 13.8q-5.033 6.78-10.394 13.305t-11.035 12.779q-5.675 6.254-11.649 12.222-5.974 5.969-12.235 11.636-6.26 5.668-12.79 11.022-6.531 5.354-13.316 10.381t-13.81 9.715-14.27 9.026-14.695 8.314q-4.887 2.61-9.855 5.06t-10.013 4.739-10.161 4.414-10.298 4.085-10.424 3.75q-5.242 1.792-10.539 3.414T490.07 677t-10.738 2.728-10.819 2.38-10.89 2.032-10.95 1.68q-5.489.75-10.999 1.325t-11.035.972-11.062.615q-5.535.219-11.075.259t-11.077-.098q-5.539-.138-11.07-.454-5.53-.317-11.048-.811t-11.016-1.166q-5.5-.672-10.974-1.52-5.474-.849-10.919-1.873-5.444-1.024-10.852-2.223-5.409-1.2-10.776-2.572t-10.687-2.917-10.588-3.26-10.477-3.6q-5.21-1.883-10.356-3.934-5.146-2.05-10.224-4.266-5.078-2.215-10.081-4.593-5.004-2.377-9.928-4.915-4.925-2.537-9.765-5.232t-9.591-5.544q-7.242-4.344-14.263-9.037-7.02-4.694-13.801-9.726T181.7 610.859t-12.783-11.032-12.225-11.646-11.64-12.231q-5.669-6.259-11.024-12.788-5.356-6.53-10.385-13.313-5.028-6.785-9.718-13.807t-9.03-14.268q-4.34-7.244-8.318-14.693-3.979-7.448-7.588-15.083t-6.838-15.438-6.072-15.754-5.292-16.034-4.5-16.274-3.695-16.475-2.882-16.636-2.062-16.758q-.826-8.405-1.238-16.84-.412-8.434-.41-16.879.002-8.444.419-16.879.416-8.434 1.246-16.838t2.071-16.757q1.242-8.353 2.891-16.635t3.704-16.473 4.508-16.272 5.3-16.03 6.08-15.752q3.234-7.8 6.847-15.434t7.595-15.08 8.326-14.688q2.85-4.751 5.85-9.408 3.001-4.656 6.15-9.214t6.444-9.012 6.73-8.8q3.436-4.345 7.01-8.577t7.283-8.348q3.709-4.116 7.548-8.11t7.805-7.861q3.965-3.868 8.054-7.607 4.088-3.738 8.295-7.343t8.526-7.072 8.75-6.794 8.965-6.51 9.17-6.216 9.364-5.918 9.551-5.614 9.726-5.303q4.906-2.574 9.892-4.988 4.987-2.414 10.048-4.666t10.193-4.34q5.13-2.088 10.327-4.01 5.195-1.922 10.45-3.675t10.564-3.337q5.309-1.583 10.666-2.995 5.357-1.411 10.756-2.65 5.4-1.238 10.837-2.302 5.437-1.063 10.905-1.952 5.468-.888 10.962-1.6 5.494-.711 11.008-1.246 5.514-.534 11.042-.89 5.528-.357 11.065-.536Q394.46 1 400 1v344z"/><path fill="none" stroke="#fff" stroke-linejoin="bevel" stroke-width="2" d="M703.465 182.998q3.977 7.45 7.584 15.085t6.834 15.44 6.068 15.756 5.288 16.035 4.495 16.275 3.691 16.476 2.878 16.637 2.058 16.758 1.233 16.84.406 16.88q-.005 8.444-.423 16.878-.419 8.435-1.251 16.838t-2.076 16.756-2.895 16.635-3.708 16.472q-2.056 8.19-4.512 16.27t-5.304 16.03q-2.85 7.95-6.085 15.75-3.236 7.8-6.85 15.432-3.615 7.632-7.6 15.077t-8.33 14.687-9.04 14.26-9.73 13.8q-5.033 6.78-10.394 13.305t-11.035 12.779q-5.675 6.254-11.649 12.222-5.974 5.969-12.235 11.636-6.26 5.668-12.79 11.022-6.531 5.354-13.316 10.381t-13.81 9.715-14.27 9.026-14.695 8.314q-4.887 2.61-9.855 5.06t-10.013 4.739-10.161 4.414-10.298 4.085-10.424 3.75q-5.242 1.792-10.539 3.414T490.07 677t-10.738 2.728-10.819 2.38-10.89 2.032-10.95 1.68q-5.489.75-10.999 1.325t-11.035.972-11.062.615q-5.535.219-11.075.259t-11.077-.098q-5.539-.138-11.07-.454-5.53-.317-11.048-.811t-11.016-1.166q-5.5-.672-10.974-1.52-5.474-.849-10.919-1.873-5.444-1.024-10.852-2.223-5.409-1.2-10.776-2.572t-10.687-2.917-10.588-3.26-10.477-3.6q-5.21-1.883-10.356-3.934-5.146-2.05-10.224-4.266-5.078-2.215-10.081-4.593-5.004-2.377-9.928-4.915-4.925-2.537-9.765-5.232t-9.591-5.544q-7.242-4.344-14.263-9.037-7.02-4.694-13.801-9.726T181.7 610.859t-12.783-11.032-12.225-11.646-11.64-12.231q-5.669-6.259-11.024-12.788-5.356-6.53-10.385-13.313-5.028-6.785-9.718-13.807t-9.03-14.268q-4.34-7.244-8.318-14.693-3.979-7.448-7.588-15.083t-6.838-15.438-6.072-15.754-5.292-16.034-4.5-16.274-3.695-16.475-2.882-16.636-2.062-16.758q-.826-8.405-1.238-16.84-.412-8.434-.41-16.879.002-8.444.419-16.879.416-8.434 1.246-16.838t2.071-16.757q1.242-8.353 2.891-16.635t3.704-16.473 4.508-16.272 5.3-16.03 6.08-15.752q3.234-7.8 6.847-15.434t7.595-15.08 8.326-14.688q2.85-4.751 5.85-9.408 3.001-4.656 6.15-9.214t6.444-9.012 6.73-8.8q3.436-4.345 7.01-8.577t7.283-8.348q3.709-4.116 7.548-8.11t7.805-7.861q3.965-3.868 8.054-7.607 4.088-3.738 8.295-7.343t8.526-7.072 8.75-6.794 8.965-6.51 9.17-6.216 9.364-5.918 9.551-5.614 9.726-5.303q4.906-2.574 9.892-4.988 4.987-2.414 10.048-4.666t10.193-4.34q5.13-2.088 10.327-4.01 5.195-1.922 10.45-3.675t10.564-3.337q5.309-1.583 10.666-2.995 5.357-1.411 10.756-2.65 5.4-1.238 10.837-2.302 5.437-1.063 10.905-1.952 5.468-.888 10.962-1.6 5.494-.711 11.008-1.246 5.514-.534 11.042-.89 5.528-.357 11.065-.536Q394.46 1 400 1v344l303.465-162.003Z"/></svg>