<svg xmlns="http://www.w3.org/2000/svg" width="800" height="800"><path fill="none" d="M0 0h800v800H0z"/><clipPath id="a"><path d="M0 690h800v110H0z"/></clipPath><g clip-path="url(#a)"><path fill="#4caf50" d="M123.3 720h40v20h-40z"/><path fill="none" stroke="#fff" stroke-miterlimit="10" stroke-width="2" d="M123.3 720h40v20h-40z"/><path fill="#ff9800" d="M377.64 720h40v20h-40z"/><path fill="none" stroke="#fff" stroke-miterlimit="10" stroke-width="2" d="M377.64 720h40v20h-40z"/><path fill="#f44336" d="M262.92 770h40v20h-40z"/><path fill="none" stroke="#fff" stroke-miterlimit="10" stroke-width="2" d="M262.92 770h40v20h-40z"/></g><path fill="#4caf50" d="M400 1q4.318 0 8.635.108 4.317.109 8.63.326 4.313.216 8.62.541 4.305.325 8.602.758t8.581.974 8.554 1.188 8.521 1.403q4.252.755 8.484 1.617 4.231.861 8.44 1.829 4.208.967 8.391 2.04t8.338 2.25 8.279 2.46q4.124 1.28 8.214 2.665t8.145 2.871q4.054 1.487 8.07 3.075t7.99 3.276 7.906 3.476q3.93 1.788 7.816 3.674t7.72 3.868q3.837 1.983 7.623 4.061t7.517 4.251 7.408 4.438 7.295 4.623 7.176 4.805 7.053 4.983 6.926 5.159 6.794 5.33 6.659 5.5 6.518 5.666 6.374 5.827 6.225 5.985 6.074 6.14L400 345z"/><path fill="none" stroke="#fff" stroke-linejoin="bevel" stroke-width="2" d="M400 1q4.318 0 8.635.108 4.317.109 8.63.326 4.313.216 8.62.541 4.305.325 8.602.758t8.581.974 8.554 1.188 8.521 1.403q4.252.755 8.484 1.617 4.231.861 8.44 1.829 4.208.967 8.391 2.04t8.338 2.25 8.279 2.46q4.124 1.28 8.214 2.665t8.145 2.871q4.054 1.487 8.07 3.075t7.99 3.276 7.906 3.476q3.93 1.788 7.816 3.674t7.72 3.868q3.837 1.983 7.623 4.061t7.517 4.251 7.408 4.438 7.295 4.623 7.176 4.805 7.053 4.983 6.926 5.159 6.794 5.33 6.659 5.5 6.518 5.666 6.374 5.827 6.225 5.985 6.074 6.14L400 345z"/><path fill="#ff9800" d="M647.578 106.167q15.558 16.128 28.892 34.137 13.334 18.01 24.22 37.598L400 345z"/><path fill="none" stroke="#fff" stroke-linejoin="bevel" stroke-width="2" d="M647.578 106.167q15.558 16.128 28.892 34.137 13.334 18.01 24.22 37.598L400 345l247.578-238.833Z"/><path fill="#f44336" d="M700.69 177.902q4.101 7.381 7.836 14.955t7.094 15.322q3.359 7.748 6.333 15.651 2.975 7.904 5.558 15.944t4.769 16.197 3.968 16.411q1.783 8.255 3.158 16.587t2.34 16.721 1.518 16.816.69 16.87-.138 16.884-.967 16.857q-.69 8.416-1.793 16.789-1.102 8.372-2.614 16.68t-3.43 16.533-4.236 16.344-5.034 16.117-5.818 15.85-6.589 15.545-7.344 15.204-8.08 14.825-8.8 14.41-9.495 13.962-10.168 13.479q-5.25 6.614-10.818 12.963-5.568 6.35-11.441 12.418t-12.037 11.84-12.603 11.236q-6.44 5.464-13.139 10.604-6.7 5.141-13.643 9.947t-14.116 9.265-14.553 8.561q-4.881 2.713-9.849 5.267-4.967 2.553-10.015 4.943t-10.17 4.616-10.316 4.283-10.448 3.946-10.571 3.605-10.683 3.26-10.783 2.911-10.871 2.56q-5.457 1.191-10.95 2.205-5.491 1.014-11.014 1.849t-11.069 1.49-11.111 1.13q-5.565.475-11.143.77-5.577.293-11.161.406t-11.169.044q-5.585-.068-11.164-.318-5.58-.25-11.148-.681-5.569-.431-11.12-1.042-5.552-.612-11.081-1.403t-11.029-1.762-10.966-2.119-10.892-2.473-10.805-2.826-10.708-3.175-10.6-3.522-10.479-3.863-10.348-4.202-10.207-4.535-10.054-4.864-9.89-5.188-9.718-5.507q-7.278-4.282-14.338-8.916t-13.883-9.609-13.395-10.278-12.875-10.924-12.323-11.542-11.742-12.133-11.133-12.694q-5.41-6.484-10.496-13.226-5.086-6.741-9.835-13.724t-9.15-14.19-8.441-14.623-7.715-15.02-6.968-15.378-6.205-15.703-5.427-15.989q-2.518-8.06-4.636-16.235-2.12-8.175-3.834-16.443-1.715-8.269-3.023-16.612-1.307-8.343-2.204-16.74-.896-8.397-1.38-16.828t-.552-16.875.277-16.882 1.104-16.848 1.93-16.774 2.75-16.659 3.565-16.504 4.37-16.309 5.165-16.075 5.948-15.802 6.716-15.491 7.468-15.143 8.202-14.759q2.832-4.813 5.819-9.533t6.125-9.34 6.425-9.135q3.287-4.515 6.719-8.922 3.432-4.406 7.005-8.7 3.572-4.292 7.283-8.467 3.71-4.174 7.554-8.226t7.818-7.977 8.072-7.719 8.319-7.453 8.556-7.178 8.784-6.898q4.449-3.377 9.004-6.608 4.556-3.231 9.214-6.313t9.414-6.01 9.604-5.701 9.784-5.387 9.954-5.066 10.113-4.74q5.095-2.289 10.261-4.41 5.167-2.122 10.4-4.074 5.232-1.953 10.526-3.735t10.641-3.39q5.349-1.61 10.747-3.044 5.397-1.435 10.839-2.693t10.921-2.34q5.48-1.081 10.991-1.984 5.512-.902 11.05-1.626t11.097-1.266q5.559-.544 11.132-.906t11.156-.544Q394.415 1 400 1v344z"/><path fill="none" stroke="#fff" stroke-linejoin="bevel" stroke-width="2" d="M700.69 177.902q4.101 7.381 7.836 14.955t7.094 15.322q3.359 7.748 6.333 15.651 2.975 7.904 5.558 15.944t4.769 16.197 3.968 16.411q1.783 8.255 3.158 16.587t2.34 16.721 1.518 16.816.69 16.87-.138 16.884-.967 16.857q-.69 8.416-1.793 16.789-1.102 8.372-2.614 16.68t-3.43 16.533-4.236 16.344-5.034 16.117-5.818 15.85-6.589 15.545-7.344 15.204-8.08 14.825-8.8 14.41-9.495 13.962-10.168 13.479q-5.25 6.614-10.818 12.963-5.568 6.35-11.441 12.418t-12.037 11.84-12.603 11.236q-6.44 5.464-13.139 10.604-6.7 5.141-13.643 9.947t-14.116 9.265-14.553 8.561q-4.881 2.713-9.849 5.267-4.967 2.553-10.015 4.943t-10.17 4.616-10.316 4.283-10.448 3.946-10.571 3.605-10.683 3.26-10.783 2.911-10.871 2.56q-5.457 1.191-10.95 2.205-5.491 1.014-11.014 1.849t-11.069 1.49-11.111 1.13q-5.565.475-11.143.77-5.577.293-11.161.406t-11.169.044q-5.585-.068-11.164-.318-5.58-.25-11.148-.681-5.569-.431-11.12-1.042-5.552-.612-11.081-1.403t-11.029-1.762-10.966-2.119-10.892-2.473-10.805-2.826-10.708-3.175-10.6-3.522-10.479-3.863-10.348-4.202-10.207-4.535-10.054-4.864-9.89-5.188-9.718-5.507q-7.278-4.282-14.338-8.916t-13.883-9.609-13.395-10.278-12.875-10.924-12.323-11.542-11.742-12.133-11.133-12.694q-5.41-6.484-10.496-13.226-5.086-6.741-9.835-13.724t-9.15-14.19-8.441-14.623-7.715-15.02-6.968-15.378-6.205-15.703-5.427-15.989q-2.518-8.06-4.636-16.235-2.12-8.175-3.834-16.443-1.715-8.269-3.023-16.612-1.307-8.343-2.204-16.74-.896-8.397-1.38-16.828t-.552-16.875.277-16.882 1.104-16.848 1.93-16.774 2.75-16.659 3.565-16.504 4.37-16.309 5.165-16.075 5.948-15.802 6.716-15.491 7.468-15.143 8.202-14.759q2.832-4.813 5.819-9.533t6.125-9.34 6.425-9.135q3.287-4.515 6.719-8.922 3.432-4.406 7.005-8.7 3.572-4.292 7.283-8.467 3.71-4.174 7.554-8.226t7.818-7.977 8.072-7.719 8.319-7.453 8.556-7.178 8.784-6.898q4.449-3.377 9.004-6.608 4.556-3.231 9.214-6.313t9.414-6.01 9.604-5.701 9.784-5.387 9.954-5.066 10.113-4.74q5.095-2.289 10.261-4.41 5.167-2.122 10.4-4.074 5.232-1.953 10.526-3.735t10.641-3.39q5.349-1.61 10.747-3.044 5.397-1.435 10.839-2.693t10.921-2.34q5.48-1.081 10.991-1.984 5.512-.902 11.05-1.626t11.097-1.266q5.559-.544 11.132-.906t11.156-.544Q394.415 1 400 1v344l300.69-167.098Z"/></svg>