<svg xmlns="http://www.w3.org/2000/svg" width="800" height="800"><path fill="none" d="M0 0h800v800H0z"/><clipPath id="a"><path d="M0 740h800v60H0z"/></clipPath><g clip-path="url(#a)"><path fill="#4caf50" d="M164.745 770h40v20h-40z"/><path fill="none" stroke="#fff" stroke-miterlimit="10" stroke-width="2" d="M164.745 770h40v20h-40z"/><text x="214.745, 226.2196, 232.87976, 244.00281, 254.00281, 259.55945, 270.6825," y="786.5," fill="#666" font-family="Liberation Sans" font-size="20">Trusted</text><path fill="#ff9800" d="M311.805 770h40v20h-40z"/><path fill="none" stroke="#fff" stroke-miterlimit="10" stroke-width="2" d="M311.805 770h40v20h-40z"/><text x="361.80499, 375.14484, 381.80499, 392.92804, 402.92804, 414.05109, 425.17413, 436.29718, 447.42023, 457.42023," y="786.5," fill="#666" font-family="Liberation Sans" font-size="20">Provenance</text><path fill="#f44336" d="M498.545 770h40v20h-40z"/><path fill="none" stroke="#fff" stroke-miterlimit="10" stroke-width="2" d="M498.545 770h40v20h-40z"/><text x="548.54498, 562.98834, 574.11139, 579.66803, 586.32819, 597.45123, 607.45123, 613.00787, 624.13092," y="786.5," fill="#666" font-family="Liberation Sans" font-size="20">Untrusted</text></g><path fill="#4caf50" d="M400 1q5.9 0 11.796.189 5.896.188 11.783.565t11.76.942 11.722 1.317 11.676 1.692 11.615 2.064q5.79 1.124 11.543 2.434 5.752 1.309 11.46 2.801 5.707 1.493 11.363 3.167 5.657 1.674 11.257 3.528t11.139 3.886 11.008 4.24 10.868 4.59q5.397 2.383 10.715 4.936t10.552 5.275 10.378 5.61q5.144 2.888 10.193 5.939 5.049 3.05 9.998 6.261 4.95 3.21 9.793 6.578 4.844 3.367 9.578 6.887t9.352 7.19 9.118 7.486q4.5 3.815 8.874 7.773t8.621 8.053 8.36 8.324 8.088 8.587 7.81 8.841q3.835 4.484 7.524 9.087t7.23 9.322 6.927 9.549q3.387 4.83 6.619 9.765t6.303 9.972L400 370z"/><path fill="none" stroke="#fff" stroke-linejoin="bevel" stroke-width="2" d="M400 1q5.9 0 11.796.189 5.896.188 11.783.565t11.76.942 11.722 1.317 11.676 1.692 11.615 2.064q5.79 1.124 11.543 2.434 5.752 1.309 11.46 2.801 5.707 1.493 11.363 3.167 5.657 1.674 11.257 3.528t11.139 3.886 11.008 4.24 10.868 4.59q5.397 2.383 10.715 4.936t10.552 5.275 10.378 5.61q5.144 2.888 10.193 5.939 5.049 3.05 9.998 6.261 4.95 3.21 9.793 6.578 4.844 3.367 9.578 6.887t9.352 7.19 9.118 7.486q4.5 3.815 8.874 7.773t8.621 8.053 8.36 8.324 8.088 8.587 7.81 8.841q3.835 4.484 7.524 9.087t7.23 9.322 6.927 9.549q3.387 4.83 6.619 9.765t6.303 9.972L400 370z"/><path fill="#ff9800" d="M715.023 177.85q9.61 15.756 17.6 32.392t14.282 33.987L400 370z"/><path fill="none" stroke="#fff" stroke-linejoin="bevel" stroke-width="2" d="M715.023 177.85q9.61 15.756 17.6 32.392t14.282 33.987L400 370l315.023-192.15Z"/><path fill="#f44336" d="M746.905 244.23q3.087 8.515 5.753 17.173t4.904 17.435 4.042 17.654 3.171 17.832q1.367 8.955 2.293 17.966.926 9.01 1.408 18.056.483 9.046.52 18.104.039 9.058-.368 18.108t-1.256 18.068q-.85 9.018-2.142 17.984t-3.021 17.858-3.894 17.687-4.757 17.476q-2.593 8.68-5.61 17.221-3.015 8.542-6.446 16.925-3.432 8.383-7.27 16.588-3.839 8.205-8.075 16.212-4.237 8.007-8.861 15.796t-9.625 15.342-10.367 14.851-11.082 14.325-11.773 13.764-12.433 13.17q-6.378 6.431-13.065 12.543t-13.664 11.887q-6.978 5.776-14.231 11.203t-14.764 10.49-15.26 9.754-15.721 8.993-16.143 8.211-16.527 7.41-16.87 6.589q-5.2 1.885-10.455 3.613-5.254 1.73-10.558 3.3t-10.652 2.98q-5.349 1.411-10.737 2.66-5.389 1.25-10.812 2.338-5.424 1.088-10.877 2.012-5.454.925-10.933 1.686-5.478.76-10.978 1.357-5.499.596-11.013 1.027t-11.04.697-11.056.365-11.061.034-11.058-.298-11.043-.629-11.02-.96-10.986-1.29q-5.484-.726-10.943-1.618-5.459-.89-10.889-1.945t-10.826-2.271q-5.396-1.217-10.753-2.595t-10.67-2.916-10.578-3.234-10.477-3.55-10.365-3.862-10.245-4.171-10.115-4.477-9.977-4.777-9.829-5.075-9.672-5.367-9.508-5.654q-4.71-2.899-9.333-5.937-4.622-3.038-9.151-6.214-7.417-5.2-14.57-10.758t-14.025-11.46q-6.871-5.903-13.445-12.135T133.288 625q-6.26-6.547-12.191-13.394t-11.52-13.976q-5.587-7.13-10.819-14.525-5.231-7.395-10.094-15.038-4.862-7.642-9.343-15.515-4.482-7.872-8.572-15.955t-7.778-16.356-6.966-16.718-6.137-17.04-5.294-17.32-4.438-17.56-3.57-17.756q-1.568-8.921-2.695-17.91-1.128-8.987-1.813-18.02-.686-9.032-.927-18.087t-.038-18.112.85-18.091 1.738-18.028 2.62-17.921 3.496-17.771 4.364-17.578q2.397-8.735 5.22-17.342 2.824-8.608 6.066-17.066t6.896-16.747 7.71-16.389q4.055-8.1 8.504-15.99 4.448-7.892 9.278-15.555t10.03-15.08q3.176-4.53 6.486-8.961 3.31-4.432 6.751-8.762 3.441-4.331 7.01-8.557 3.57-4.225 7.265-8.342t7.51-8.12q3.817-4.005 7.751-7.893t7.984-7.656q4.05-3.768 8.21-7.413t8.428-7.164 8.64-6.908 8.842-6.646q4.47-3.257 9.037-6.378t9.225-6.105 9.404-5.825q4.745-2.842 9.574-5.54t9.735-5.251q4.908-2.553 9.889-4.957 4.982-2.405 10.033-4.659t10.168-4.355T270.1 24.62t10.41-3.738 10.519-3.425 10.616-3.108q5.33-1.474 10.704-2.788 5.373-1.314 10.783-2.466t10.852-2.142 10.912-1.816 10.961-1.487 11-1.159 11.031-.828 11.05-.497T400 1v369z"/><path fill="none" stroke="#fff" stroke-linejoin="bevel" stroke-width="2" d="M746.905 244.23q3.087 8.515 5.753 17.173t4.904 17.435 4.042 17.654 3.171 17.832q1.367 8.955 2.293 17.966.926 9.01 1.408 18.056.483 9.046.52 18.104.039 9.058-.368 18.108t-1.256 18.068q-.85 9.018-2.142 17.984t-3.021 17.858-3.894 17.687-4.757 17.476q-2.593 8.68-5.61 17.221-3.015 8.542-6.446 16.925-3.432 8.383-7.27 16.588-3.839 8.205-8.075 16.212-4.237 8.007-8.861 15.796t-9.625 15.342-10.367 14.851-11.082 14.325-11.773 13.764-12.433 13.17q-6.378 6.431-13.065 12.543t-13.664 11.887q-6.978 5.776-14.231 11.203t-14.764 10.49-15.26 9.754-15.721 8.993-16.143 8.211-16.527 7.41-16.87 6.589q-5.2 1.885-10.455 3.613-5.254 1.73-10.558 3.3t-10.652 2.98q-5.349 1.411-10.737 2.66-5.389 1.25-10.812 2.338-5.424 1.088-10.877 2.012-5.454.925-10.933 1.686-5.478.76-10.978 1.357-5.499.596-11.013 1.027t-11.04.697-11.056.365-11.061.034-11.058-.298-11.043-.629-11.02-.96-10.986-1.29q-5.484-.726-10.943-1.618-5.459-.89-10.889-1.945t-10.826-2.271q-5.396-1.217-10.753-2.595t-10.67-2.916-10.578-3.234-10.477-3.55-10.365-3.862-10.245-4.171-10.115-4.477-9.977-4.777-9.829-5.075-9.672-5.367-9.508-5.654q-4.71-2.899-9.333-5.937-4.622-3.038-9.151-6.214-7.417-5.2-14.57-10.758t-14.025-11.46q-6.871-5.903-13.445-12.135T133.288 625q-6.26-6.547-12.191-13.394t-11.52-13.976q-5.587-7.13-10.819-14.525-5.231-7.395-10.094-15.038-4.862-7.642-9.343-15.515-4.482-7.872-8.572-15.955t-7.778-16.356-6.966-16.718-6.137-17.04-5.294-17.32-4.438-17.56-3.57-17.756q-1.568-8.921-2.695-17.91-1.128-8.987-1.813-18.02-.686-9.032-.927-18.087t-.038-18.112.85-18.091 1.738-18.028 2.62-17.921 3.496-17.771 4.364-17.578q2.397-8.735 5.22-17.342 2.824-8.608 6.066-17.066t6.896-16.747 7.71-16.389q4.055-8.1 8.504-15.99 4.448-7.892 9.278-15.555t10.03-15.08q3.176-4.53 6.486-8.961 3.31-4.432 6.751-8.762 3.441-4.331 7.01-8.557 3.57-4.225 7.265-8.342t7.51-8.12q3.817-4.005 7.751-7.893t7.984-7.656q4.05-3.768 8.21-7.413t8.428-7.164 8.64-6.908 8.842-6.646q4.47-3.257 9.037-6.378t9.225-6.105 9.404-5.825q4.745-2.842 9.574-5.54t9.735-5.251q4.908-2.553 9.889-4.957 4.982-2.405 10.033-4.659t10.168-4.355T270.1 24.62t10.41-3.738 10.519-3.425 10.616-3.108q5.33-1.474 10.704-2.788 5.373-1.314 10.783-2.466t10.852-2.142 10.912-1.816 10.961-1.487 11-1.159 11.031-.828 11.05-.497T400 1v369l346.904-125.77Z"/></svg>