<svg xmlns="http://www.w3.org/2000/svg" width="800" height="800"><path fill="none" d="M0 0h800v800H0z"/><clipPath id="a"><path d="M0 740h800v60H0z"/></clipPath><g clip-path="url(#a)"><path fill="#4caf50" d="M164.745 770h40v20h-40z"/><path fill="none" stroke="#fff" stroke-miterlimit="10" stroke-width="2" d="M164.745 770h40v20h-40z"/><text x="214.745, 226.2196, 232.87976, 244.00281, 254.00281, 259.55945, 270.6825," y="786.5," fill="#666" font-family="Liberation Sans" font-size="20">Trusted</text><path fill="#ff9800" d="M311.805 770h40v20h-40z"/><path fill="none" stroke="#fff" stroke-miterlimit="10" stroke-width="2" d="M311.805 770h40v20h-40z"/><text x="361.80499, 375.14484, 381.80499, 392.92804, 402.92804, 414.05109, 425.17413, 436.29718, 447.42023, 457.42023," y="786.5," fill="#666" font-family="Liberation Sans" font-size="20">Provenance</text><path fill="#f44336" d="M498.545 770h40v20h-40z"/><path fill="none" stroke="#fff" stroke-miterlimit="10" stroke-width="2" d="M498.545 770h40v20h-40z"/><text x="548.54498, 562.98834, 574.11139, 579.66803, 586.32819, 597.45123, 607.45123, 613.00787, 624.13092," y="786.5," fill="#666" font-family="Liberation Sans" font-size="20">Untrusted</text></g><path fill="#4caf50" d="M400 1q5.527 0 11.052.166 5.524.165 11.042.496t11.022.827 10.992 1.157q5.488.66 10.953 1.485t10.903 1.813 10.845 2.139q5.406 1.15 10.775 2.462t10.697 2.784 10.608 3.103 10.51 3.42 10.404 3.732 10.288 4.043 10.161 4.349q5.049 2.25 10.027 4.651 4.979 2.401 9.883 4.95t9.73 5.243 9.569 5.533 9.399 5.816q4.655 2.979 9.22 6.096t9.034 6.369 8.839 6.636 8.636 6.898 8.426 7.154q4.159 3.64 8.207 7.403t7.982 7.646 7.75 7.881 7.51 8.11q3.694 4.11 7.264 8.33t7.011 8.546q3.442 4.325 6.752 8.75 3.31 4.427 6.487 8.95L400 370z"/><path fill="none" stroke="#fff" stroke-linejoin="bevel" stroke-width="2" d="M400 1q5.527 0 11.052.166 5.524.165 11.042.496t11.022.827 10.992 1.157q5.488.66 10.953 1.485t10.903 1.813 10.845 2.139q5.406 1.15 10.775 2.462t10.697 2.784 10.608 3.103 10.51 3.42 10.404 3.732 10.288 4.043 10.161 4.349q5.049 2.25 10.027 4.651 4.979 2.401 9.883 4.95t9.73 5.243 9.569 5.533 9.399 5.816q4.655 2.979 9.22 6.096t9.034 6.369 8.839 6.636 8.636 6.898 8.426 7.154q4.159 3.64 8.207 7.403t7.982 7.646 7.75 7.881 7.51 8.11q3.694 4.11 7.264 8.33t7.011 8.546q3.442 4.325 6.752 8.75 3.31 4.427 6.487 8.95L400 370z"/><path fill="#ff9800" d="M701.978 157.938q11.503 16.38 21.167 33.909 9.663 17.528 17.374 36L400 370z"/><path fill="none" stroke="#fff" stroke-linejoin="bevel" stroke-width="2" d="M701.978 157.938q11.503 16.38 21.167 33.909 9.663 17.528 17.374 36L400 370l301.978-212.062Z"/><path fill="#f44336" d="M740.52 227.847q3.489 8.36 6.564 16.88t5.73 17.181 4.878 17.442 4.017 17.66 3.146 17.837 2.267 17.968 1.382 18.06.495 18.104q.025 9.058-.395 18.107t-1.282 18.066-2.167 17.981-3.047 17.853q-1.743 8.89-3.92 17.683t-4.782 17.468-5.634 17.213q-3.028 8.538-6.471 16.916t-7.294 16.578-8.098 16.2-8.883 15.783-9.648 15.328-10.387 14.837q-5.376 7.29-11.103 14.309-5.728 7.018-11.792 13.747-6.065 6.728-12.453 13.151t-13.082 12.525-13.681 11.868-14.248 11.182q-7.26 5.416-14.778 10.47-7.518 5.053-15.275 9.732t-15.734 8.97-16.155 8.188-16.537 7.385q-5.231 2.184-10.527 4.206t-10.651 3.881-10.766 3.552-10.87 3.219-10.963 2.884-11.047 2.545-11.12 2.205q-5.576 1.018-11.182 1.863-5.605.845-11.234 1.518t-11.275 1.173-11.307.825-11.326.478-11.335.13-11.335-.22-11.322-.566q-5.656-.37-11.299-.915-5.643-.544-11.266-1.26-5.623-.718-11.222-1.607-5.598-.89-11.167-1.95t-11.102-2.293q-5.534-1.231-11.027-2.632t-10.94-2.97-10.844-3.305q-5.397-1.735-10.737-3.636-5.341-1.9-10.62-3.964-5.28-2.064-10.495-4.289t-10.357-4.608-10.21-4.925-10.055-5.237-9.889-5.542q-4.902-2.848-9.714-5.844t-9.53-6.14q-7.538-5.022-14.822-10.408t-14.293-11.123-13.73-11.81-13.135-12.47-12.507-13.1q-6.092-6.704-11.849-13.698-5.756-6.995-11.162-14.263T93.47 575.43t-9.71-15.288q-4.668-7.764-8.949-15.746t-8.165-16.167q-3.885-8.183-7.363-16.547t-6.541-16.889-5.705-17.19q-2.642-8.664-4.855-17.448t-3.993-17.666-3.12-17.84-2.243-17.972q-.9-9.014-1.357-18.061T31 370.511t.42-18.107 1.307-18.064 2.192-17.978q1.317-8.963 3.072-17.85 1.755-8.886 3.944-17.676t4.806-17.462 5.658-17.205 6.494-16.907q3.455-8.374 7.317-16.568t8.12-16.189 8.906-15.77q4.646-7.777 9.668-15.316 3.143-4.717 6.43-9.336t6.713-9.135 6.99-8.925q3.564-4.408 7.261-8.705t7.526-8.479 7.782-8.243q3.954-4.061 8.031-8 4.078-3.938 8.274-7.75 4.196-3.81 8.508-7.491t8.734-7.227q4.422-3.547 8.952-6.956 4.529-3.409 9.16-6.677 4.633-3.268 9.363-6.392T206.182 56t9.737-5.806q4.913-2.828 9.91-5.503 4.998-2.676 10.075-5.197 5.078-2.521 10.23-4.885t10.375-4.568 10.511-4.247 10.636-3.923 10.752-3.594 10.857-3.262 10.951-2.926q5.499-1.38 11.037-2.59t11.111-2.248 11.175-1.907 11.228-1.562 11.27-1.217q5.646-.522 11.304-.87t11.324-.522Q394.331 1 400 1v369z"/><path fill="none" stroke="#fff" stroke-linejoin="bevel" stroke-width="2" d="M740.52 227.847q3.489 8.36 6.564 16.88t5.73 17.181 4.878 17.442 4.017 17.66 3.146 17.837 2.267 17.968 1.382 18.06.495 18.104q.025 9.058-.395 18.107t-1.282 18.066-2.167 17.981-3.047 17.853q-1.743 8.89-3.92 17.683t-4.782 17.468-5.634 17.213q-3.028 8.538-6.471 16.916t-7.294 16.578-8.098 16.2-8.883 15.783-9.648 15.328-10.387 14.837q-5.376 7.29-11.103 14.309-5.728 7.018-11.792 13.747-6.065 6.728-12.453 13.151t-13.082 12.525-13.681 11.868-14.248 11.182q-7.26 5.416-14.778 10.47-7.518 5.053-15.275 9.732t-15.734 8.97-16.155 8.188-16.537 7.385q-5.231 2.184-10.527 4.206t-10.651 3.881-10.766 3.552-10.87 3.219-10.963 2.884-11.047 2.545-11.12 2.205q-5.576 1.018-11.182 1.863-5.605.845-11.234 1.518t-11.275 1.173-11.307.825-11.326.478-11.335.13-11.335-.22-11.322-.566q-5.656-.37-11.299-.915-5.643-.544-11.266-1.26-5.623-.718-11.222-1.607-5.598-.89-11.167-1.95t-11.102-2.293q-5.534-1.231-11.027-2.632t-10.94-2.97-10.844-3.305q-5.397-1.735-10.737-3.636-5.341-1.9-10.62-3.964-5.28-2.064-10.495-4.289t-10.357-4.608-10.21-4.925-10.055-5.237-9.889-5.542q-4.902-2.848-9.714-5.844t-9.53-6.14q-7.538-5.022-14.822-10.408t-14.293-11.123-13.73-11.81-13.135-12.47-12.507-13.1q-6.092-6.704-11.849-13.698-5.756-6.995-11.162-14.263T93.47 575.43t-9.71-15.288q-4.668-7.764-8.949-15.746t-8.165-16.167q-3.885-8.183-7.363-16.547t-6.541-16.889-5.705-17.19q-2.642-8.664-4.855-17.448t-3.993-17.666-3.12-17.84-2.243-17.972q-.9-9.014-1.357-18.061T31 370.511t.42-18.107 1.307-18.064 2.192-17.978q1.317-8.963 3.072-17.85 1.755-8.886 3.944-17.676t4.806-17.462 5.658-17.205 6.494-16.907q3.455-8.374 7.317-16.568t8.12-16.189 8.906-15.77q4.646-7.777 9.668-15.316 3.143-4.717 6.43-9.336t6.713-9.135 6.99-8.925q3.564-4.408 7.261-8.705t7.526-8.479 7.782-8.243q3.954-4.061 8.031-8 4.078-3.938 8.274-7.75 4.196-3.81 8.508-7.491t8.734-7.227q4.422-3.547 8.952-6.956 4.529-3.409 9.16-6.677 4.633-3.268 9.363-6.392T206.182 56t9.737-5.806q4.913-2.828 9.91-5.503 4.998-2.676 10.075-5.197 5.078-2.521 10.23-4.885t10.375-4.568 10.511-4.247 10.636-3.923 10.752-3.594 10.857-3.262 10.951-2.926q5.499-1.38 11.037-2.59t11.111-2.248 11.175-1.907 11.228-1.562 11.27-1.217q5.646-.522 11.304-.87t11.324-.522Q394.331 1 400 1v369l340.52-142.153Z"/></svg>