<svg xmlns="http://www.w3.org/2000/svg" width="800" height="800"><path fill="none" d="M0 0h800v800H0z"/><clipPath id="a"><path d="M0 690h800v110H0z"/></clipPath><g clip-path="url(#a)"><path fill="#4caf50" d="M123.3 720h40v20h-40z"/><path fill="none" stroke="#fff" stroke-miterlimit="10" stroke-width="2" d="M123.3 720h40v20h-40z"/><path fill="#ff9800" d="M377.64 720h40v20h-40z"/><path fill="none" stroke="#fff" stroke-miterlimit="10" stroke-width="2" d="M377.64 720h40v20h-40z"/><path fill="#f44336" d="M262.92 770h40v20h-40z"/><path fill="none" stroke="#fff" stroke-miterlimit="10" stroke-width="2" d="M262.92 770h40v20h-40z"/></g><path fill="#4caf50" d="M400 1q4.892 0 9.782.14 4.89.138 9.774.416t9.758.695q4.874.417 9.735.972 4.86.556 9.702 1.25 4.843.692 9.664 1.523 4.82.83 9.616 1.798t9.561 2.071q4.766 1.104 9.499 2.342 4.732 1.239 9.428 2.611 4.695 1.373 9.35 2.878t9.264 3.143 9.171 3.405 9.071 3.664q4.51 1.897 8.963 3.921t8.848 4.174 8.725 4.424 8.596 4.67 8.46 4.914 8.317 5.151q4.121 2.635 8.166 5.386t8.01 5.616q3.966 2.865 7.848 5.841t7.678 6.063 7.503 6.278q3.707 3.192 7.321 6.489 3.615 3.296 7.134 6.694t6.94 6.895 6.742 7.089 6.537 7.278 6.328 7.461 6.113 7.638L400 345z"/><path fill="none" stroke="#fff" stroke-linejoin="bevel" stroke-width="2" d="M400 1q4.892 0 9.782.14 4.89.138 9.774.416t9.758.695q4.874.417 9.735.972 4.86.556 9.702 1.25 4.843.692 9.664 1.523 4.82.83 9.616 1.798t9.561 2.071q4.766 1.104 9.499 2.342 4.732 1.239 9.428 2.611 4.695 1.373 9.35 2.878t9.264 3.143 9.171 3.405 9.071 3.664q4.51 1.897 8.963 3.921t8.848 4.174 8.725 4.424 8.596 4.67 8.46 4.914 8.317 5.151q4.121 2.635 8.166 5.386t8.01 5.616q3.966 2.865 7.848 5.841t7.678 6.063 7.503 6.278q3.707 3.192 7.321 6.489 3.615 3.296 7.134 6.694t6.94 6.895 6.742 7.089 6.537 7.278 6.328 7.461 6.113 7.638L400 345z"/><path fill="#ff9800" d="M671.604 133.89q12.746 16.4 23.427 34.213t19.141 36.783L400 345z"/><path fill="none" stroke="#fff" stroke-linejoin="bevel" stroke-width="2" d="M671.604 133.89q12.746 16.4 23.427 34.213t19.141 36.783L400 345l271.604-211.11Z"/><path fill="#f44336" d="M714.172 204.886q3.44 7.712 6.497 15.584t5.724 15.885 4.938 16.146 4.14 16.37q1.868 8.234 3.33 16.551 1.463 8.318 2.516 16.696 1.052 8.38 1.693 16.8.64 8.42.866 16.862.227 8.442.038 16.884-.188 8.443-.79 16.866t-1.617 16.807-2.44 16.707-3.256 16.567T731.746 436t-4.865 16.168-5.652 15.91-6.426 15.614-7.185 15.28-7.925 14.908-8.648 14.502-9.349 14.06-10.027 13.585-10.682 13.076q-5.501 6.406-11.31 12.536-5.81 6.129-11.912 11.966T625.28 604.97t-13.027 10.74q-6.646 5.211-13.54 10.09-6.893 4.877-14.017 9.412-7.124 4.534-14.462 8.713-7.339 4.179-14.873 7.992-7.534 3.814-15.247 7.254-4.885 2.179-9.836 4.205t-9.963 3.897q-5.011 1.87-10.079 3.585-5.067 1.714-10.185 3.27t-10.282 2.952-10.369 2.63-10.446 2.307T458.442 684t-10.57 1.653q-5.296.745-10.614 1.324t-10.651.993q-5.334.414-10.677.662-5.344.248-10.693.33-5.349.08-10.697-.004-5.349-.085-10.692-.337-5.344-.25-10.677-.668-5.333-.417-10.65-1t-10.615-1.33q-5.297-.749-10.568-1.66-5.27-.913-10.51-1.989-5.241-1.075-10.445-2.313t-10.367-2.638q-5.163-1.4-10.28-2.958-5.118-1.56-10.184-3.277t-10.076-3.592q-5.01-1.874-9.96-3.903t-9.834-4.211-9.698-4.515-9.553-4.814-9.398-5.109-9.236-5.399q-4.575-2.77-9.063-5.683-7.083-4.597-13.933-9.536-6.85-4.94-13.449-10.208-6.599-5.27-12.931-10.857-6.333-5.586-12.384-11.477-6.05-5.89-11.805-12.071-5.755-6.18-11.199-12.636t-10.565-13.17q-5.121-6.716-9.906-13.674t-9.224-14.142-8.518-14.578q-4.08-7.394-7.793-14.979t-7.049-15.342-6.287-15.67q-2.951-7.913-5.51-15.96-2.56-8.048-4.722-16.211-2.161-8.163-3.92-16.423T60.43 400.03t-2.29-16.728-1.469-16.82q-.527-8.429-.64-16.873t.188-16.883 1.016-16.854 1.842-16.783 2.664-16.673 3.478-16.522 4.285-16.332 5.08-16.102q2.739-7.988 5.866-15.833t6.634-15.526 7.389-15.182 8.125-14.8q4.244-7.302 8.84-14.386 2.913-4.487 5.963-8.881t6.235-8.692 6.503-8.495q3.318-4.196 6.764-8.287t7.018-8.074 7.266-7.851 7.506-7.622 7.74-7.384q3.928-3.632 7.966-7.14 4.038-3.509 8.184-6.89t8.394-6.63 8.596-6.368q4.348-3.117 8.79-6.097t8.975-5.82 9.152-5.539q4.62-2.698 9.32-5.251t9.479-4.96q4.777-2.405 9.628-4.661 4.85-2.257 9.768-4.36 4.918-2.105 9.9-4.055 4.98-1.95 10.02-3.745 5.04-1.794 10.132-3.431 5.093-1.637 10.234-3.115t10.326-2.795 10.408-2.472 10.48-2.148 10.541-1.82q5.285-.83 10.593-1.493t10.634-1.162q5.326-.498 10.665-.83 5.34-.333 10.686-.5Q394.65 1 400 1v344z"/><path fill="none" stroke="#fff" stroke-linejoin="bevel" stroke-width="2" d="M714.172 204.886q3.44 7.712 6.497 15.584t5.724 15.885 4.938 16.146 4.14 16.37q1.868 8.234 3.33 16.551 1.463 8.318 2.516 16.696 1.052 8.38 1.693 16.8.64 8.42.866 16.862.227 8.442.038 16.884-.188 8.443-.79 16.866t-1.617 16.807-2.44 16.707-3.256 16.567T731.746 436t-4.865 16.168-5.652 15.91-6.426 15.614-7.185 15.28-7.925 14.908-8.648 14.502-9.349 14.06-10.027 13.585-10.682 13.076q-5.501 6.406-11.31 12.536-5.81 6.129-11.912 11.966T625.28 604.97t-13.027 10.74q-6.646 5.211-13.54 10.09-6.893 4.877-14.017 9.412-7.124 4.534-14.462 8.713-7.339 4.179-14.873 7.992-7.534 3.814-15.247 7.254-4.885 2.179-9.836 4.205t-9.963 3.897q-5.011 1.87-10.079 3.585-5.067 1.714-10.185 3.27t-10.282 2.952-10.369 2.63-10.446 2.307T458.442 684t-10.57 1.653q-5.296.745-10.614 1.324t-10.651.993q-5.334.414-10.677.662-5.344.248-10.693.33-5.349.08-10.697-.004-5.349-.085-10.692-.337-5.344-.25-10.677-.668-5.333-.417-10.65-1t-10.615-1.33q-5.297-.749-10.568-1.66-5.27-.913-10.51-1.989-5.241-1.075-10.445-2.313t-10.367-2.638q-5.163-1.4-10.28-2.958-5.118-1.56-10.184-3.277t-10.076-3.592q-5.01-1.874-9.96-3.903t-9.834-4.211-9.698-4.515-9.553-4.814-9.398-5.109-9.236-5.399q-4.575-2.77-9.063-5.683-7.083-4.597-13.933-9.536-6.85-4.94-13.449-10.208-6.599-5.27-12.931-10.857-6.333-5.586-12.384-11.477-6.05-5.89-11.805-12.071-5.755-6.18-11.199-12.636t-10.565-13.17q-5.121-6.716-9.906-13.674t-9.224-14.142-8.518-14.578q-4.08-7.394-7.793-14.979t-7.049-15.342-6.287-15.67q-2.951-7.913-5.51-15.96-2.56-8.048-4.722-16.211-2.161-8.163-3.92-16.423T60.43 400.03t-2.29-16.728-1.469-16.82q-.527-8.429-.64-16.873t.188-16.883 1.016-16.854 1.842-16.783 2.664-16.673 3.478-16.522 4.285-16.332 5.08-16.102q2.739-7.988 5.866-15.833t6.634-15.526 7.389-15.182 8.125-14.8q4.244-7.302 8.84-14.386 2.913-4.487 5.963-8.881t6.235-8.692 6.503-8.495q3.318-4.196 6.764-8.287t7.018-8.074 7.266-7.851 7.506-7.622 7.74-7.384q3.928-3.632 7.966-7.14 4.038-3.509 8.184-6.89t8.394-6.63 8.596-6.368q4.348-3.117 8.79-6.097t8.975-5.82 9.152-5.539q4.62-2.698 9.32-5.251t9.479-4.96q4.777-2.405 9.628-4.661 4.85-2.257 9.768-4.36 4.918-2.105 9.9-4.055 4.98-1.95 10.02-3.745 5.04-1.794 10.132-3.431 5.093-1.637 10.234-3.115t10.326-2.795 10.408-2.472 10.48-2.148 10.541-1.82q5.285-.83 10.593-1.493t10.634-1.162q5.326-.498 10.665-.83 5.34-.333 10.686-.5Q394.65 1 400 1v344l314.172-140.114Z"/></svg>