<svg xmlns="http://www.w3.org/2000/svg" width="800" height="800"><path fill="none" d="M0 0h800v800H0z"/><clipPath id="a"><path d="M0 740h800v60H0z"/></clipPath><g clip-path="url(#a)"><path fill="#4caf50" d="M144.605 770h40v20h-40z"/><path fill="none" stroke="#fff" stroke-miterlimit="10" stroke-width="2" d="M144.605 770h40v20h-40z"/><text x="194.605, 207.94484, 217.50539, 230.38625, 240.64992, 248.68703, 260.52295," y="787.5," fill="#666" font-family="DejaVu Serif" font-size="20">Trusted</text><path fill="#ff9800" d="M303.325 770h40v20h-40z"/><path fill="none" stroke="#fff" stroke-miterlimit="10" stroke-width="2" d="M303.325 770h40v20h-40z"/><text x="353.32501, 366.78204, 376.34259, 388.38361, 399.68243, 411.51837, 424.39923, 436.32306, 449.20392, 460.40509," y="787.5," fill="#666" font-family="DejaVu Serif" font-size="20">Provenance</text><path fill="#f44336" d="M502.245 770h40v20h-40z"/><path fill="none" stroke="#fff" stroke-miterlimit="10" stroke-width="2" d="M502.245 770h40v20h-40z"/><text x="552.245, 569.10046, 581.98132, 590.01843, 599.57898, 612.45984, 622.72351, 630.76062, 642.59656," y="787.5," fill="#666" font-family="DejaVu Serif" font-size="20">Untrusted</text></g><path fill="#4caf50" d="M400 1q8.726 0 17.442.412 8.716.413 17.402 1.237t17.325 2.057 17.209 2.875 17.053 3.684 16.86 4.486q8.377 2.443 16.629 5.279t16.36 6.058q8.11 3.223 16.057 6.825t15.716 7.576q7.768 3.974 15.34 8.31 7.571 4.338 14.93 9.027 7.358 4.69 14.487 9.722 7.128 5.033 14.01 10.396 6.883 5.364 13.505 11.047 6.621 5.683 12.966 11.672L400 370z"/><path fill="none" stroke="#fff" stroke-linejoin="bevel" stroke-width="2" d="M400 1q8.726 0 17.442.412 8.716.413 17.402 1.237t17.325 2.057 17.209 2.875 17.053 3.684 16.86 4.486q8.377 2.443 16.629 5.279t16.36 6.058q8.11 3.223 16.057 6.825t15.716 7.576q7.768 3.974 15.34 8.31 7.571 4.338 14.93 9.027 7.358 4.69 14.487 9.722 7.128 5.033 14.01 10.396 6.883 5.364 13.505 11.047 6.621 5.683 12.966 11.672L400 370z"/><path fill="#ff9800" d="M653.291 101.663q9.113 8.603 17.622 17.803 8.508 9.2 16.373 18.957t15.05 20.025 13.655 20.999L400 370z"/><path fill="none" stroke="#fff" stroke-linejoin="bevel" stroke-width="2" d="M653.291 101.663q9.113 8.603 17.622 17.803 8.508 9.2 16.373 18.957t15.05 20.025 13.655 20.999L400 370l253.291-268.337Z"/><path fill="#f44336" d="M715.991 179.447q4.678 7.757 8.97 15.734 4.291 7.978 8.186 16.156t7.384 16.538q3.49 8.36 6.564 16.88t5.727 17.182 4.877 17.443q2.225 8.78 4.016 17.66t3.144 17.837 2.266 17.969q.912 9.012 1.38 18.058.47 9.047.494 18.105t-.396 18.107q-.42 9.049-1.284 18.066t-2.169 17.981-3.048 17.853q-1.744 8.89-3.921 17.682-2.177 8.793-4.784 17.469-2.606 8.675-5.635 17.212t-6.473 16.915-7.295 16.578q-3.85 8.199-8.1 16.199-4.248 8-8.884 15.782-4.636 7.783-9.648 15.328-5.013 7.545-10.39 14.835-5.376 7.29-11.104 14.308t-11.793 13.746-12.453 13.15-13.084 12.525-13.682 11.866-14.248 11.181-14.78 10.469q-7.518 5.052-15.275 9.73-5.218 3.147-10.537 6.12-5.319 2.972-10.733 5.767t-10.918 5.41q-5.503 2.616-11.09 5.048t-11.25 4.678q-5.665 2.246-11.4 4.304t-11.535 3.925-11.659 3.542-11.769 3.156q-5.91 1.48-11.867 2.765-5.956 1.285-11.952 2.372t-12.023 1.976-12.082 1.578q-6.054.69-12.128 1.178-6.074.49-12.16.777t-12.179.375q-6.092.087-12.185-.027-6.092-.114-12.177-.43-6.085-.314-12.156-.83t-12.123-1.232q-6.05-.717-12.075-1.632-6.024-.916-12.014-2.03t-11.941-2.425q-5.95-1.31-11.855-2.818-5.904-1.507-11.754-3.207-5.851-1.701-11.643-3.595-5.792-1.893-11.518-3.976t-11.38-4.355-11.23-4.728-11.068-5.096q-5.491-2.64-10.893-5.46t-10.707-5.815q-7.888-4.454-15.548-9.29t-15.072-10.042-14.562-10.77-14.016-11.47-13.436-12.146-12.823-12.79-12.181-13.402-11.509-13.985-10.808-14.533-10.083-15.046-9.332-15.522q-4.475-7.875-8.559-15.961t-7.765-16.362q-3.682-8.277-6.954-16.724T49.78 486.22t-5.281-17.325-4.424-17.562-3.557-17.759-2.682-17.912-1.8-18.022-.912-18.088q-.235-9.055-.025-18.111t.865-18.091 1.75-18.027 2.634-17.919 3.51-17.768q1.973-8.84 4.377-17.574t5.234-17.34 6.079-17.06 6.908-16.742 7.722-16.383 8.516-15.984q2.996-5.306 6.166-10.51t6.51-10.3 6.846-10.08 7.175-9.848q3.669-4.864 7.496-9.605t7.81-9.354 8.114-9.09 8.41-8.817q4.277-4.34 8.696-8.535t8.973-8.243q4.555-4.047 9.24-7.942 4.687-3.895 9.499-7.633 4.811-3.738 9.744-7.315t9.98-6.99q5.049-3.412 10.207-6.656t10.42-6.315 10.624-5.968 10.814-5.614 10.994-5.254 11.161-4.888 11.317-4.517q5.696-2.165 11.46-4.14 5.764-1.976 11.59-3.76 5.826-1.785 11.707-3.376t11.813-2.987 11.906-2.596 11.984-2.2 12.05-1.805 12.104-1.405q6.063-.602 12.143-1.005t12.17-.603T400 1v369z"/><path fill="none" stroke="#fff" stroke-linejoin="bevel" stroke-width="2" d="M715.991 179.447q4.678 7.757 8.97 15.734 4.291 7.978 8.186 16.156t7.384 16.538q3.49 8.36 6.564 16.88t5.727 17.182 4.877 17.443q2.225 8.78 4.016 17.66t3.144 17.837 2.266 17.969q.912 9.012 1.38 18.058.47 9.047.494 18.105t-.396 18.107q-.42 9.049-1.284 18.066t-2.169 17.981-3.048 17.853q-1.744 8.89-3.921 17.682-2.177 8.793-4.784 17.469-2.606 8.675-5.635 17.212t-6.473 16.915-7.295 16.578q-3.85 8.199-8.1 16.199-4.248 8-8.884 15.782-4.636 7.783-9.648 15.328-5.013 7.545-10.39 14.835-5.376 7.29-11.104 14.308t-11.793 13.746-12.453 13.15-13.084 12.525-13.682 11.866-14.248 11.181-14.78 10.469q-7.518 5.052-15.275 9.73-5.218 3.147-10.537 6.12-5.319 2.972-10.733 5.767t-10.918 5.41q-5.503 2.616-11.09 5.048t-11.25 4.678q-5.665 2.246-11.4 4.304t-11.535 3.925-11.659 3.542-11.769 3.156q-5.91 1.48-11.867 2.765-5.956 1.285-11.952 2.372t-12.023 1.976-12.082 1.578q-6.054.69-12.128 1.178-6.074.49-12.16.777t-12.179.375q-6.092.087-12.185-.027-6.092-.114-12.177-.43-6.085-.314-12.156-.83t-12.123-1.232q-6.05-.717-12.075-1.632-6.024-.916-12.014-2.03t-11.941-2.425q-5.95-1.31-11.855-2.818-5.904-1.507-11.754-3.207-5.851-1.701-11.643-3.595-5.792-1.893-11.518-3.976t-11.38-4.355-11.23-4.728-11.068-5.096q-5.491-2.64-10.893-5.46t-10.707-5.815q-7.888-4.454-15.548-9.29t-15.072-10.042-14.562-10.77-14.016-11.47-13.436-12.146-12.823-12.79-12.181-13.402-11.509-13.985-10.808-14.533-10.083-15.046-9.332-15.522q-4.475-7.875-8.559-15.961t-7.765-16.362q-3.682-8.277-6.954-16.724T49.78 486.22t-5.281-17.325-4.424-17.562-3.557-17.759-2.682-17.912-1.8-18.022-.912-18.088q-.235-9.055-.025-18.111t.865-18.091 1.75-18.027 2.634-17.919 3.51-17.768q1.973-8.84 4.377-17.574t5.234-17.34 6.079-17.06 6.908-16.742 7.722-16.383 8.516-15.984q2.996-5.306 6.166-10.51t6.51-10.3 6.846-10.08 7.175-9.848q3.669-4.864 7.496-9.605t7.81-9.354 8.114-9.09 8.41-8.817q4.277-4.34 8.696-8.535t8.973-8.243q4.555-4.047 9.24-7.942 4.687-3.895 9.499-7.633 4.811-3.738 9.744-7.315t9.98-6.99q5.049-3.412 10.207-6.656t10.42-6.315 10.624-5.968 10.814-5.614 10.994-5.254 11.161-4.888 11.317-4.517q5.696-2.165 11.46-4.14 5.764-1.976 11.59-3.76 5.826-1.785 11.707-3.376t11.813-2.987 11.906-2.596 11.984-2.2 12.05-1.805 12.104-1.405q6.063-.602 12.143-1.005t12.17-.603T400 1v369l315.991-190.553Z"/></svg>