<svg xmlns="http://www.w3.org/2000/svg" width="800" height="800"><path fill="none" d="M0 0h800v800H0z"/><clipPath id="a"><path d="M0 740h800v60H0z"/></clipPath><g clip-path="url(#a)"><path fill="#4caf50" d="M144.605 770h40v20h-40z"/><path fill="none" stroke="#fff" stroke-miterlimit="10" stroke-width="2" d="M144.605 770h40v20h-40z"/><text x="194.605, 207.94484, 217.50539, 230.38625, 240.64992, 248.68703, 260.52295," y="787.5," fill="#666" font-family="DejaVu Serif" font-size="20">Trusted</text><path fill="#ff9800" d="M303.325 770h40v20h-40z"/><path fill="none" stroke="#fff" stroke-miterlimit="10" stroke-width="2" d="M303.325 770h40v20h-40z"/><text x="353.32501, 366.78204, 376.34259, 388.38361, 399.68243, 411.51837, 424.39923, 436.32306, 449.20392, 460.40509," y="787.5," fill="#666" font-family="DejaVu Serif" font-size="20">Provenance</text><path fill="#f44336" d="M502.245 770h40v20h-40z"/><path fill="none" stroke="#fff" stroke-miterlimit="10" stroke-width="2" d="M502.245 770h40v20h-40z"/><text x="552.245, 569.10046, 581.98132, 590.01843, 599.57898, 612.45984, 622.72351, 630.76062, 642.59656," y="787.5," fill="#666" font-family="DejaVu Serif" font-size="20">Untrusted</text></g><path fill="#4caf50" d="M400 1q6.43 0 12.855.224t12.84.672q6.413.447 12.808 1.118t12.761 1.564q6.367.894 12.7 2.008 6.332 1.115 12.621 2.449t12.529 2.887 12.42 3.322q6.181 1.77 12.297 3.753t12.16 4.178q6.042 2.195 12.005 4.6t11.839 5.015 11.656 5.425q5.781 2.813 11.46 5.827t11.251 6.223q5.572 3.21 11.027 6.611L400 370z"/><path fill="none" stroke="#fff" stroke-linejoin="bevel" stroke-width="2" d="M400 1q6.43 0 12.855.224t12.84.672q6.413.447 12.808 1.118t12.761 1.564q6.367.894 12.7 2.008 6.332 1.115 12.621 2.449t12.529 2.887 12.42 3.322q6.181 1.77 12.297 3.753t12.16 4.178q6.042 2.195 12.005 4.6t11.839 5.015 11.656 5.425q5.781 2.813 11.46 5.827t11.251 6.223q5.572 3.21 11.027 6.611L400 370z"/><path fill="#ff9800" d="M595.23 56.876q11.873 7.403 23.152 15.684t21.898 17.393q10.62 9.111 20.519 19 9.899 9.89 19.02 20.501L400 370z"/><path fill="none" stroke="#fff" stroke-linejoin="bevel" stroke-width="2" d="M595.23 56.876q11.873 7.403 23.152 15.684t21.898 17.393q10.62 9.111 20.519 19 9.899 9.89 19.02 20.501L400 370 595.23 56.876Z"/><path fill="#f44336" d="M679.82 129.454q5.904 6.87 11.465 14.02t10.764 14.566q5.204 7.414 10.037 15.076 4.833 7.66 9.285 15.55 4.451 7.89 8.51 15.988t7.716 16.385 6.902 16.745 6.073 17.063 5.228 17.34q2.401 8.735 4.37 17.576t3.504 17.77q1.534 8.927 2.627 17.92 1.094 8.992 1.745 18.027.65 9.035.858 18.09.207 9.057-.031 18.112-.238 9.056-.92 18.088-.681 9.033-1.805 18.022t-2.688 17.91-3.564 17.758-4.43 17.56-5.287 17.324-6.13 17.042q-3.275 8.446-6.96 16.72-3.685 8.276-7.772 16.36t-8.564 15.958-9.338 15.52-10.088 15.041-10.813 14.53T679 611.494t-12.185 13.4-12.829 12.784-13.44 12.14q-4.987 4.287-10.123 8.393t-10.416 8.028-10.695 7.65-10.96 7.266q-5.546 3.534-11.213 6.87-5.668 3.334-11.45 6.465-5.783 3.131-11.674 6.054t-11.882 5.634-12.075 5.208-12.253 4.773-12.415 4.334-12.562 3.889-12.692 3.439-12.807 2.984-12.905 2.527-12.987 2.064q-6.511.917-13.052 1.601t-13.1 1.135q-6.561.45-13.134.667-6.572.216-13.148.199-6.576-.018-13.147-.27t-13.13-.738q-6.557-.486-13.094-1.206t-13.043-1.67q-6.507-.953-12.976-2.136-6.468-1.183-12.89-2.596t-12.791-3.053-12.674-3.508q-6.305-1.866-12.54-3.957t-12.392-4.4-12.227-4.84-12.046-5.273q-8.233-3.779-16.27-7.957-8.037-4.18-15.86-8.747t-15.41-9.514q-7.59-4.946-14.926-10.259t-14.405-10.979q-7.067-5.666-13.848-11.672t-13.26-12.338-12.637-12.974-11.985-13.578q-5.827-6.936-11.305-14.15-5.48-7.214-10.598-14.687-5.118-7.474-9.863-15.19-4.746-7.716-9.107-15.656t-8.327-16.083-7.528-16.473-6.711-16.822-5.877-17.132q-2.729-8.637-5.03-17.399-2.301-8.76-4.17-17.625-1.868-8.863-3.3-17.808t-2.422-17.949-1.539-18.045q-.547-9.042-.65-18.1-.104-9.058.237-18.11t1.126-18.076 2.011-18 2.893-17.879 3.766-17.715q2.1-8.812 4.63-17.51t5.485-17.26 6.325-16.972q3.37-8.408 7.15-16.64 2.743-5.977 5.698-11.852 2.955-5.874 6.117-11.64t6.528-11.415q3.365-5.65 6.93-11.176t7.324-10.921q3.76-5.396 7.709-10.654t8.083-10.372 8.448-10.077q4.314-4.964 8.801-9.77 4.488-4.807 9.144-9.45 4.657-4.644 9.475-9.119 4.819-4.475 9.794-8.775t10.1-8.42 10.394-8.056 10.674-7.68 10.942-7.294 11.194-6.9 11.433-6.497 11.657-6.086q5.882-2.939 11.866-5.666t12.061-5.24 12.24-4.807 12.403-4.367q6.241-2.073 12.552-3.923 6.31-1.85 12.683-3.473 6.372-1.624 12.798-3.019t12.898-2.561 12.982-2.1 13.047-1.636 13.098-1.17 13.131-.703T400 1v369z"/><path fill="none" stroke="#fff" stroke-linejoin="bevel" stroke-width="2" d="M679.82 129.454q5.904 6.87 11.465 14.02t10.764 14.566q5.204 7.414 10.037 15.076 4.833 7.66 9.285 15.55 4.451 7.89 8.51 15.988t7.716 16.385 6.902 16.745 6.073 17.063 5.228 17.34q2.401 8.735 4.37 17.576t3.504 17.77q1.534 8.927 2.627 17.92 1.094 8.992 1.745 18.027.65 9.035.858 18.09.207 9.057-.031 18.112-.238 9.056-.92 18.088-.681 9.033-1.805 18.022t-2.688 17.91-3.564 17.758-4.43 17.56-5.287 17.324-6.13 17.042q-3.275 8.446-6.96 16.72-3.685 8.276-7.772 16.36t-8.564 15.958-9.338 15.52-10.088 15.041-10.813 14.53T679 611.494t-12.185 13.4-12.829 12.784-13.44 12.14q-4.987 4.287-10.123 8.393t-10.416 8.028-10.695 7.65-10.96 7.266q-5.546 3.534-11.213 6.87-5.668 3.334-11.45 6.465-5.783 3.131-11.674 6.054t-11.882 5.634-12.075 5.208-12.253 4.773-12.415 4.334-12.562 3.889-12.692 3.439-12.807 2.984-12.905 2.527-12.987 2.064q-6.511.917-13.052 1.601t-13.1 1.135q-6.561.45-13.134.667-6.572.216-13.148.199-6.576-.018-13.147-.27t-13.13-.738q-6.557-.486-13.094-1.206t-13.043-1.67q-6.507-.953-12.976-2.136-6.468-1.183-12.89-2.596t-12.791-3.053-12.674-3.508q-6.305-1.866-12.54-3.957t-12.392-4.4-12.227-4.84-12.046-5.273q-8.233-3.779-16.27-7.957-8.037-4.18-15.86-8.747t-15.41-9.514q-7.59-4.946-14.926-10.259t-14.405-10.979q-7.067-5.666-13.848-11.672t-13.26-12.338-12.637-12.974-11.985-13.578q-5.827-6.936-11.305-14.15-5.48-7.214-10.598-14.687-5.118-7.474-9.863-15.19-4.746-7.716-9.107-15.656t-8.327-16.083-7.528-16.473-6.711-16.822-5.877-17.132q-2.729-8.637-5.03-17.399-2.301-8.76-4.17-17.625-1.868-8.863-3.3-17.808t-2.422-17.949-1.539-18.045q-.547-9.042-.65-18.1-.104-9.058.237-18.11t1.126-18.076 2.011-18 2.893-17.879 3.766-17.715q2.1-8.812 4.63-17.51t5.485-17.26 6.325-16.972q3.37-8.408 7.15-16.64 2.743-5.977 5.698-11.852 2.955-5.874 6.117-11.64t6.528-11.415q3.365-5.65 6.93-11.176t7.324-10.921q3.76-5.396 7.709-10.654t8.083-10.372 8.448-10.077q4.314-4.964 8.801-9.77 4.488-4.807 9.144-9.45 4.657-4.644 9.475-9.119 4.819-4.475 9.794-8.775t10.1-8.42 10.394-8.056 10.674-7.68 10.942-7.294 11.194-6.9 11.433-6.497 11.657-6.086q5.882-2.939 11.866-5.666t12.061-5.24 12.24-4.807 12.403-4.367q6.241-2.073 12.552-3.923 6.31-1.85 12.683-3.473 6.372-1.624 12.798-3.019t12.898-2.561 12.982-2.1 13.047-1.636 13.098-1.17 13.131-.703T400 1v369l279.819-240.546Z"/></svg>