<svg xmlns="http://www.w3.org/2000/svg" width="1000" height="500"><path fill="none" d="M0 0h1000v500H0z"/><path fill="none" stroke="#000" stroke-miterlimit="10" stroke-opacity=".098" d="M53.5 41.6V382M53.5 383v7.899M133.5 41.6V382M133.5 383v7.899M212.5 41.6V382M212.5 383v7.899M291.5 41.6V382M291.5 383v7.899M370.5 41.6V382M370.5 383v7.899M449.5 41.6V382M449.5 383v7.899M528.5 41.6V382M528.5 383v7.899M607.5 41.6V382M607.5 383v7.899M687.5 41.6V382M687.5 383v7.899M766.5 41.6V382M766.5 383v7.899M845.5 41.6V382M845.5 383v7.899M924.5 41.6V382M924.5 383v7.899M54 382.5h946M45.919 382.5H53M54 348.5h946M45.919 348.5H53M54 314.5h946M45.919 314.5H53M54 280.5h946M45.919 280.5H53M54 246.5h946M45.919 246.5H53M54 212.5h946M45.919 212.5H53M54 178.5h946M45.919 178.5H53M54 143.5h946M45.919 143.5H53M54 109.5h946M45.919 109.5H53M54 75.5h946M45.919 75.5H53M54 41.5h946M45.919 41.5H53"/><clipPath id="a"><path d="M0 458h1000v42H0z"/></clipPath><g clip-path="url(#a)"><path fill="#59a14f" d="M226.375 474h40v16h-40z"/><path fill="none" stroke="#59a14f" stroke-miterlimit="10" stroke-width="2" d="M226.375 474h40v16h-40z"/><text x="274.375, 283.97656, 293.57812, 303.17969, 312.78125, 322.38281, 331.98438," y="486," fill="#666" font-family="Liberation Mono" font-size="16">Trusted</text><path fill="#f28e2c" d="M357.585 474h40v16h-40z"/><path fill="none" stroke="#f28e2c" stroke-miterlimit="10" stroke-width="2" d="M357.585 474h40v16h-40z"/><text x="405.58499, 415.18655, 424.78812, 434.38968, 443.99124, 453.5928, 463.19437, 472.79593, 482.39749, 491.99905," y="486," fill="#666" font-family="Liberation Mono" font-size="16">Provenance</text><path fill="#e15759" d="M517.605 474h40v16h-40z"/><path fill="none" stroke="#e15759" stroke-miterlimit="10" stroke-width="2" d="M517.605 474h40v16h-40z"/><text x="565.60498, 575.20654, 584.80811, 594.40967, 604.01123, 613.61279, 623.21436, 632.81592, 642.41748," y="486," fill="#666" font-family="Liberation Mono" font-size="16">Untrusted</text><path fill="#4e79a7" d="M668.015 474h40v16h-40z"/><path fill="none" stroke="#4e79a7" stroke-miterlimit="10" stroke-width="2" d="M668.015 474h40v16h-40z"/><text x="716.01501, 725.61658, 735.21814, 744.8197, 754.42126, 764.02283," y="486," fill="#666" font-family="Liberation Mono" font-size="16">Staged</text></g><text x="-270.04501, -259.24326, -248.4415, -237.63974, -226.83798, -216.03622, -205.23447, -194.43271, -183.63095, -172.82919, -162.02744, -151.22568, -140.42392, -129.62216, -118.8204, -108.01865, -97.216888, -86.415131, -75.613373, -64.811615, -54.009857, -43.208099, -32.406342, -21.604584, -10.802826, -0.0010681152, 10.80069, 21.602448, 32.404205, 43.205963, 54.007721, 64.809479, 75.611237, 86.412994, 97.214752, 108.01651, 118.81827, 129.62003, 140.42178, 151.22354, 162.0253, 172.82706, 183.62881, 194.43057, 205.23233, 216.03409, 226.83585, 237.6376, 248.43936, 259.24112," y="5," fill="#666" font-family="Liberation Mono" font-size="18" font-weight="600" transform="translate(500 18.8)">npm Top Packages — Provenance Status Over Time (%)</text><path fill="none" stroke="#000" stroke-miterlimit="10" stroke-opacity=".098" d="M53 382.5h948"/><clipPath id="b"><path d="M0 382.899h1000V458H0z"/></clipPath><g fill="#666" clip-path="url(#b)" font-family="Liberation Mono" font-size="12"><text x="-72.010002, -64.80883, -57.607658, -50.406487, -43.205315, -36.004143, -28.802971, -21.601799, -14.400627, -7.1994553," y="10.2," transform="rotate(-45 499.892 138.01)">2025-08-30</text><text x="-72.010002, -64.80883, -57.607658, -50.406487, -43.205315, -36.004143, -28.802971, -21.601799, -14.400627, -7.1994553," y="10.2," transform="rotate(-45 539.462 42.48)">2025-09-24</text><text x="-72.010002, -64.80883, -57.607658, -50.406487, -43.205315, -36.004143, -28.802971, -21.601799, -14.400627, -7.1994553," y="10.2," transform="rotate(-45 579.032 -53.05)">2025-10-16</text><text x="-72.010002, -64.80883, -57.607658, -50.406487, -43.205315, -36.004143, -28.802971, -21.601799, -14.400627, -7.1994553," y="10.2," transform="rotate(-45 618.602 -148.581)">2025-11-07</text><text x="-72.010002, -64.80883, -57.607658, -50.406487, -43.205315, -36.004143, -28.802971, -21.601799, -14.400627, -7.1994553," y="10.2," transform="rotate(-45 658.172 -244.112)">2025-11-29</text><text x="-72.010002, -64.80883, -57.607658, -50.406487, -43.205315, -36.004143, -28.802971, -21.601799, -14.400627, -7.1994553," y="10.2," transform="rotate(-45 697.742 -339.642)">2025-12-21</text><text x="-72.010002, -64.80883, -57.607658, -50.406487, -43.205315, -36.004143, -28.802971, -21.601799, -14.400627, -7.1994553," y="10.2," transform="rotate(-45 737.312 -435.172)">2026-01-12</text><text x="-72.010002, -64.80883, -57.607658, -50.406487, -43.205315, -36.004143, -28.802971, -21.601799, -14.400627, -7.1994553," y="10.2," transform="rotate(-45 776.882 -530.703)">2026-02-03</text><text x="-72.010002, -64.80883, -57.607658, -50.406487, -43.205315, -36.004143, -28.802971, -21.601799, -14.400627, -7.1994553," y="10.2," transform="rotate(-45 816.452 -626.233)">2026-02-25</text><text x="-72.010002, -64.80883, -57.607658, -50.406487, -43.205315, -36.004143, -28.802971, -21.601799, -14.400627, -7.1994553," y="10.2," transform="rotate(-45 856.021 -721.763)">2026-03-19</text><text x="-72.010002, -64.80883, -57.607658, -50.406487, -43.205315, -36.004143, -28.802971, -21.601799, -14.400627, -7.1994553," y="10.2," transform="rotate(-45 895.591 -817.293)">2026-04-10</text><text x="-72.010002, -64.80883, -57.607658, -50.406487, -43.205315, -36.004143, -28.802971, -21.601799, -14.400627, -7.1994553," y="10.2," transform="rotate(-45 935.161 -912.823)">2026-05-02</text></g><path fill="none" stroke="#000" stroke-miterlimit="10" stroke-opacity=".098" d="M53.5 41v342"/><clipPath id="c"><path d="M8.709 0h45.21v500H8.709z"/></clipPath><g fill="#666" clip-path="url(#c)" font-family="Liberation Mono" font-size="13"><text x="-15.6, -7.7987309," y="3.5," transform="translate(42.919 382.899)">0%</text><text x="-23.4, -15.59873, -7.7974606," y="3.5," transform="translate(42.919 348.769)">10%</text><text x="-23.4, -15.59873, -7.7974606," y="3.5," transform="translate(42.919 314.639)">20%</text><text x="-23.4, -15.59873, -7.7974606," y="3.5," transform="translate(42.919 280.509)">30%</text><text x="-23.4, -15.59873, -7.7974606," y="3.5," transform="translate(42.919 246.379)">40%</text><text x="-23.4, -15.59873, -7.7974606," y="3.5," transform="translate(42.919 212.249)">50%</text><text x="-23.4, -15.59873, -7.7974606," y="3.5," transform="translate(42.919 178.12)">60%</text><text x="-23.4, -15.59873, -7.7974606," y="3.5," transform="translate(42.919 143.99)">70%</text><text x="-23.4, -15.59873, -7.7974606," y="3.5," transform="translate(42.919 109.86)">80%</text><text x="-23.4, -15.59873, -7.7974606," y="3.5," transform="translate(42.919 75.73)">90%</text><text x="-31.209999, -23.40873, -15.60746, -7.8061905," y="3.5," transform="translate(42.919 41.6)">100%</text></g><clipPath id="d"><path d="M52.919 41.6H1001v342.299H52.919z"/></clipPath><clipPath id="e"><path d="M52.919 41.6H1001v342.299H52.919z"/></clipPath><g clip-path="url(#e)"><path fill="none" stroke="#e15759" stroke-miterlimit="10" stroke-width="2" d="M53.919 67.232h3.597c.72 0 2.88-.045 3.597 0 .722.044 2.876.388 3.598.443.716.055 2.877.092 3.597.103s2.878 0 3.597 0h3.597c.72 0 2.878-.004 3.598 0 .72.003 2.877.027 3.597.034s2.878.03 3.597.034c.72.003 2.884-.064 3.597 0 .726.065 2.873.58 3.598.648.713.068 2.878.024 3.597.034.72.01 2.879.035 3.597.069.72.034 2.877.235 3.597.273.72.037 2.881.044 3.598.102.722.058 2.875.42 3.597.478.716.058 2.878.078 3.597.102.72.024 2.878.116 3.598.137.719.02 2.877.061 3.597.068s2.878-.003 3.597 0c.72.004 2.878.017 3.597.034.72.017 2.878.116 3.598.137.719.02 2.877.061 3.597.068s2.878 0 3.597 0c.72 0 2.878-.007 3.597 0 .72.007 2.878.065 3.598.068s2.878-.034 3.597-.034c.72 0 2.878.03 3.597.034.72.004 2.88-.044 3.597 0 .723.045 2.876.393 3.598.444.717.051 2.887-.023 3.597.068.73.094 2.868.764 3.597.854.71.087 2.878.027 3.598.034.719.006 2.878.007 3.597.034.72.027 2.877.205 3.597.239.719.034 2.878.092 3.597.102.72.01 2.878-.007 3.598 0s2.877.062 3.597.068 2.878-.006 3.597 0c.72.007 2.878.062 3.597.069.72.006 2.878-.01 3.598 0s2.877.088 3.597.102 2.878.017 3.597.034c.72.017 2.893.02 3.598.137.734.122 2.862.946 3.597 1.058.704.107 2.878.03 3.597.034.72.003 2.878 0 3.597 0 .72 0 2.878-.014 3.598 0 .72.013 2.878.099 3.597.136.72.038 2.877.202 3.597.24.719.037 2.892.022 3.597.136.734.118 2.864.905 3.598 1.024.705.113 2.877.126 3.597.136s2.878-.034 3.597-.034c.72 0 2.878.027 3.597.034.72.007 2.878.024 3.598.034s2.881.01 3.597.069c.723.058 2.874.453 3.597.512.716.057 2.878.054 3.598.068.719.013 2.877.061 3.597.068s2.878 0 3.597 0c.72 0 2.878-.01 3.597 0 .72.01 2.878.099 3.598.102.719.004 2.877-.068 3.597-.068s2.878.051 3.597.068c.72.017 2.878.09 3.597.103.72.013 2.878.027 3.598.034s2.891-.07 3.597.034c.733.108 2.864.913 3.597 1.024.706.107 2.878.055 3.597.068.72.014 2.878.058 3.598.068s2.878.018 3.597.035c.72.017 2.878.122 3.597.136.72.014 2.878-.007 3.598 0s2.877.065 3.597.068 2.878-.03 3.597-.034c.72-.003 2.878-.017 3.597 0 .72.017 2.878.154 3.598.17.719.018 2.877 0 3.597 0h3.597c.72 0 2.878-.01 3.597 0 .72.011 2.878.093 3.598.103s2.877-.003 3.597 0c.72.004 2.878.02 3.597.034.72.014 2.878.086 3.597.103.72.017 2.88.034 3.598.068.72.034 2.877.242 3.597.273.718.03 2.878.014 3.597.034.72.02 2.878.15 3.598.17s2.877.021 3.597.035 2.877.092 3.597.102 2.879-.023 3.597 0c.72.024 3.128-.202 3.598.24.97.91 2.627 5.634 3.597 6.518.469.427 2.878.014 3.597.034.72.02 2.878.154 3.597.17.72.018 2.878-.006 3.598 0 .72.008 2.88.015 3.597.07.722.054 2.875.408 3.597.477.717.068 2.878.177 3.597.205.72.027 2.884-.003 3.598.068.725.072 2.872.576 3.597.648.714.072 2.878.059 3.597.069.72.01 2.88 0 3.598.034.72.034 2.877.256 3.597.307.719.051 2.882.127 3.597.205.724.079 2.873.522 3.597.58.715.058 2.878-.003 3.598 0s2.878.02 3.597.034c.72.014 2.878.085 3.597.103.72.017 2.878.058 3.597.068.72.01 2.878.02 3.598.034s2.877.089 3.597.102c.72.014 2.878.031 3.597.034.72.004 2.878-.003 3.597 0 .72.004 2.878.031 3.598.035.72.003 2.878-.004 3.597 0 .72.003 2.878.023 3.597.034.72.01 2.878.054 3.598.068s2.877.061 3.597.068 2.878-.003 3.597 0c.72.004 2.882-.023 3.597.034.724.059 2.875.471 3.598.546.716.075 2.877.178 3.597.205.719.028 2.878.058 3.597.068.72.01 2.88 0 3.597.035.721.034 2.878.252 3.598.307s2.877.208 3.597.239c.719.03 2.878.047 3.597.068.72.02 2.878.116 3.597.136.72.021 2.878.062 3.598.069s2.902-.132 3.597 0c.744.14 2.854 1.2 3.597 1.365.696.155 2.878.188 3.598.239s2.876.239 3.597.273c.718.034 2.878.054 3.597.068.72.014 2.878.048 3.597.068.72.02 2.878.116 3.598.137.719.02 2.877.061 3.597.068s2.879-.03 3.597 0c.72.031 2.877.266 3.597.307.719.041 2.878.086 3.598.103s2.877.058 3.597.068 2.878.024 3.597.034c.72.01 2.878.062 3.597.068.72.007 2.879-.017 3.598 0 .72.017 2.878.137 3.597.171.72.034 2.956-.082 3.597.17.798.315 2.8 2.356 3.598 2.663.64.246 2.877.085 3.597.102s2.878.038 3.597.068c.72.031 2.877.212 3.597.24s2.878.027 3.598.034c.72.006 2.878.017 3.597.034.72.017 2.879.088 3.597.136.72.048 2.876.3 3.597.341.718.041 2.878.052 3.598.069s2.877.088 3.597.102 2.878.024 3.597.034c.72.01 2.879.041 3.598.069.72.027 2.877.177 3.597.204.719.028 2.878.055 3.597.069.72.013 2.878.05 3.597.068.72.017 2.878.078 3.598.102s2.877.12 3.597.137c.719.017 2.878.017 3.597.034.72.017 2.878.12 3.597.136.72.017 2.878.028 3.598.034l3.597.035c.72.006 2.878.02 3.597.034.72.013 2.88.051 3.597.102.722.051 2.876.365 3.598.41.717.044 2.877.027 3.597.034s2.878.02 3.597.034c.72.014 2.878.082 3.597.102.72.02 2.878.09 3.598.103s2.879.003 3.597.034c.72.03 2.877.239 3.597.273.719.034 2.878.058 3.598.068s2.877.03 3.597.034 2.878-.01 3.597 0c.72.01 2.878.086 3.597.103.72.017 2.878.054 3.598.068s2.878.051 3.597.068c.72.017 2.878.079 3.597.103.72.023 2.878.119 3.597.136.72.017 2.88 0 3.598.034.72.034 2.876.27 3.597.307.718.038 2.878.045 3.597.069.72.024 2.878.13 3.597.17.72.041 2.878.208 3.598.24.719.03 2.878.047 3.597.067.72.021 2.878.12 3.597.137.72.017 2.879.014 3.598.034.72.02 2.877.15 3.597.17.719.021 2.88-.006 3.597.035.721.041 2.876.32 3.597.375.718.055 2.879.13 3.598.171.72.041 2.877.205 3.597.239.719.034 2.878.092 3.597.102.72.01 2.878-.007 3.597 0 .72.007 2.878.055 3.598.069l3.597.068c.72.013 2.878.04 3.597.068.72.027 2.878.178 3.598.205.718.027 2.877.054 3.597.068s2.877.062 3.597.068 2.878-.006 3.597 0c.72.007 2.878.055 3.598.069.719.013 2.877.05 3.597.068.72.017 2.878.089 3.597.102.72.014 2.879.01 3.597.034.72.024 2.878.181 3.598.205s2.878.01 3.597.034c.72.024 2.877.185 3.597.205s2.878-.014 3.597 0c.72.014 2.883.062 3.598.137.724.075 2.873.542 3.597.614.714.071 2.878.082 3.597.102.72.02 2.878.079 3.597.103.72.024 2.878.12 3.598.136s2.878.031 3.597.034c.72.004 2.878-.006 3.597 0 .72.007 2.878.055 3.598.069.719.013 2.877.058 3.597.068s2.878.024 3.597.034c.72.01 2.878.051 3.597.068.72.017 2.878.089 3.598.103s2.878.024 3.597.034c.72.01 2.88.014 3.597.068.723.055 2.875.426 3.597.478.717.05 2.878.03 3.598.034.72.003 2.88-.04 3.597 0 .722.041 2.876.362 3.597.41.717.047 2.878.061 3.598.068s2.877-.004 3.597 0c.72.003 2.878.024 3.597.034.72.01 2.878.058 3.597.068.72.01 2.882-.023 3.598.034.723.059 2.873.481 3.597.546.715.065 2.878.072 3.597.103.72.03 2.877.184 3.597.205s2.878-.004 3.598 0c.72.003 2.878.02 3.597.034.72.013 2.878.088 3.597.102.72.014 2.878.024 3.597.034.72.01 2.878.058 3.598.069.72.01 2.878.017 3.597.034.72.017 2.878.116 3.597.136.72.02 2.878.058 3.598.068s2.878.014 3.597.035c.72.02 2.877.146 3.597.17s2.878.055 3.597.068c.72.014 2.88.035 3.598.069.72.034 2.877.232 3.597.273.719.04 2.877.12 3.597.136s2.878.028 3.597.034c.72.007 2.882-.02 3.598.035.723.054 2.874.457 3.597.512.716.054 2.878.02 3.597.034.72.013 2.88.058 3.597.102.721.044 2.877.3 3.598.341.718.041 2.878.055 3.597.069"/><path d="m392.062 79.252 5.196 9h-10.392z"/><path fill="none" stroke="#000" stroke-miterlimit="10" stroke-width="2" d="m392.062 79.252 5.196 9h-10.392z"/></g><clipPath id="f"><path d="M52.919 41.6H1001v342.299H52.919z"/></clipPath><g clip-path="url(#f)"><path fill="none" stroke="#f28e2c" stroke-miterlimit="10" stroke-width="2" d="M53.919 359.145h3.597c.72 0 2.884-.065 3.597 0 .726.065 2.872.583 3.598.648.713.064 2.877 0 3.597 0s2.878-.003 3.597 0c.72.003 2.88-.01 3.597.034.722.045 2.876.358 3.598.41.717.05 2.877.088 3.597.102s2.878.02 3.597.034c.72.014 2.878.092 3.597.103.72.01 2.878-.004 3.598 0 .72.003 2.878.006 3.597.034.72.027 2.877.215 3.597.239.719.023 2.878.003 3.597 0 .72-.004 2.879-.048 3.598-.035.72.014 2.877.147 3.597.171s2.878.058 3.597.068c.72.01 2.878.028 3.598.035.719.006 2.877.03 3.597.034.72.003 2.878-.017 3.597 0 .72.017 2.878.15 3.597.17.72.02 2.878.031 3.598.034s2.88-.037 3.597 0c.721.038 2.876.338 3.597.376.718.037 2.878-.004 3.597 0 .72.003 2.878.03 3.598.034.72.003 2.911-.156 3.597 0 .753.172 2.844 1.463 3.597 1.638.686.16 2.878.028 3.597.034.72.007 2.878.024 3.598.034s2.878.058 3.597.069c.72.01 2.878.027 3.597.034.72.007 2.878.03 3.598.034.719.003 2.888-.087 3.597 0 .73.09 2.867.794 3.597.887.709.091 2.878.028 3.597.035l3.598.034c.72.006 2.878.024 3.597.034.72.01 2.878.068 3.597.068.72 0 2.878-.061 3.597-.068a317 317 0 0 1 3.598 0c.72.007 2.877.065 3.597.068s2.878-.04 3.597-.034c.72.007 2.878.092 3.598.102s2.878-.017 3.597 0c.72.017 2.877.154 3.597.17.72.018 2.878 0 3.597 0h3.598c.719 0 2.88-.037 3.597 0 .721.039 2.898.214 3.597.376.74.172 2.858 1.125 3.597 1.297.7.163 2.876.335 3.598.376.717.04 2.877.027 3.597.034s2.878.03 3.597.034c.72.003 2.878-.007 3.597 0 .72.007 2.878.055 3.598.068s2.878.051 3.597.069c.72.017 2.878.095 3.597.102.72.007 2.878-.03 3.598-.034s2.877 0 3.597 0h3.597c.72 0 2.878-.01 3.597 0 .72.01 2.878.075 3.598.102s2.877.15 3.597.17c.719.021 2.878.018 3.597.035.72.017 2.878.12 3.597.136.72.017 2.878.031 3.598.035.72.003 2.878-.007 3.597 0 .72.006 2.878.044 3.597.068.72.024 2.878.147 3.597.17.72.024 2.878.055 3.598.069.72.013 2.878.048 3.597.068.72.02 2.878.12 3.597.137.72.017 2.878.034 3.598.034s2.877-.034 3.597-.034 2.878.017 3.597.034c.72.017 2.878.123 3.597.136.72.014 2.88-.04 3.598 0 .721.041 2.875.365 3.597.41.717.044 2.878.03 3.597.034.72.003 2.878.003 3.597 0 .72-.004 2.878-.03 3.598-.034s2.877 0 3.597 0 2.878-.007 3.597 0c.72.007 2.878.061 3.597.068.72.007 2.878.01 3.598 0s2.877-.099 3.597-.102c.72-.004 2.878.075 3.597.068.72-.007 2.878-.123 3.598-.137.719-.013 2.877 0 3.597 0s2.878-.003 3.597 0c.72.004 2.878.028 3.597.034.72.007 3.19.506 3.598.035 1.03-1.194 2.567-7.214 3.597-8.362.409-.456 3.005.007 3.597.341.847.478 2.749 3.281 3.597 3.72.59.305 2.878 0 3.598 0s2.878-.007 3.597 0c.72.007 2.878.048 3.597.069.72.02 2.878.116 3.597.136.72.02 2.88.034 3.598.068.72.034 2.877.246 3.597.273.718.028 2.878 0 3.597 0 .72 0 2.878-.01 3.598 0s2.877.092 3.597.103 2.878 0 3.597 0c.72 0 2.878-.004 3.597 0 .72.003 2.897-.086 3.598.034.738.126 2.859 1.072 3.597 1.194.7.117 2.878-.013 3.597 0 .72.014 2.878.116 3.597.137.72.02 2.879.044 3.598.068.72.024 2.878.123 3.597.17.72.049 2.876.274 3.597.308.718.034 2.878.03 3.597.034.72.004 2.878 0 3.598 0s2.878-.02 3.597 0c.72.02 2.877.184 3.597.205s2.878-.004 3.598 0c.719.003 2.877.027 3.597.034s2.878.03 3.597.034c.72.004 2.878 0 3.597 0h3.598c.72 0 2.877-.007 3.597 0s2.878.055 3.597.068c.72.014 2.878.062 3.597.069.72.006 2.878-.01 3.598 0s2.877.088 3.597.102 2.878.03 3.597.034c.72.004 2.878.007 3.597 0 .72-.007 2.878-.065 3.598-.068s2.878.03 3.597.034c.72.003 2.878-.003 3.597 0 .72.003 2.878.024 3.598.034s2.877.062 3.597.068 2.878-.006 3.597 0c.72.007 2.878.058 3.597.069.72.01 2.878.03 3.598.034.719.003 2.877-.004 3.597 0 .72.003 2.878.024 3.597.034.72.01 2.878.061 3.597.068.72.007 2.878 0 3.598 0s2.878-.003 3.597 0c.72.004 2.878.03 3.597.034.72.004 2.878-.003 3.597 0 .72.004 2.878.031 3.598.034s2.878 0 3.597 0c.72 0 2.878-.006 3.597 0 .72.007 2.878.059 3.598.069s2.877.027 3.597.034 2.878.034 3.597.034c.72 0 2.878-.034 3.597-.034.72 0 2.878.03 3.598.034.72.003 2.878-.007 3.597 0 .72.007 2.878.058 3.597.068.72.01 2.878.028 3.597.034.72.007 2.878.031 3.598.035.72.003 2.877-.004 3.597 0 .72.003 2.878.027 3.597.034.72.006 2.878.024 3.598.034s2.877.061 3.597.068 2.878-.007 3.597 0c.72.007 2.878.055 3.597.068.72.014 2.878.062 3.598.069.719.006 2.877-.004 3.597 0 .72.003 2.878.027 3.597.034l3.597.034c.72.007 2.878.024 3.598.034s2.878.051 3.597.068c.72.017 2.878.089 3.597.103.72.013 2.878.03 3.597.034.72.003 2.878 0 3.598 0h3.597c.72 0 2.878-.007 3.597 0 .72.007 2.878.061 3.597.068.72.007 2.878.007 3.598 0s2.878-.072 3.597-.068c.72.003 2.878.082 3.597.102.72.02 2.878.089 3.598.103s2.877.027 3.597.034c.72.006 2.878.024 3.597.034.72.01 2.878.048 3.597.068.72.02 2.878.116 3.598.137.719.02 2.877.054 3.597.068.72.013 2.878.061 3.597.068.72.007 2.878 0 3.597 0h3.598c.72 0 2.878-.007 3.597 0 .72.007 2.878.061 3.597.068.72.007 2.878 0 3.597 0 .72 0 2.878-.003 3.598 0 .72.004 2.878.028 3.597.034.72.007 2.878.035 3.597.035.72 0 2.878-.017 3.598-.035.72-.017 2.877-.133 3.597-.136s2.877.092 3.597.102 2.878 0 3.597 0h3.598c.72 0 2.877-.003 3.597 0 .72.004 2.878.031 3.597.034.72.004 2.878 0 3.597 0h3.598c.72 0 2.878-.003 3.597 0 .72.004 2.878.031 3.597.035.72.003 2.878.003 3.598 0 .719-.004 2.877-.035 3.597-.035s2.878.031 3.597.035c.72.003 2.878 0 3.597 0h7.195c.72 0 2.878-.007 3.597 0 .72.006 2.878.075 3.597.068.72-.007 2.879-.144 3.598-.137.72.007 2.877.185 3.597.205.719.02 2.878 0 3.597 0 .72 0 2.878-.014 3.597 0 .72.014 2.878.113 3.598.137s2.877.088 3.597.102 2.879.007 3.597.034c.72.027 2.878.232 3.597.24.72.006 2.878-.158 3.598-.172s2.878.024 3.597.035c.72.01 2.878.058 3.597.068.72.01 2.878.027 3.598.034s2.878.02 3.597.034c.72.014 2.878.092 3.597.102.72.01 2.878-.003 3.597 0 .72.004 2.878.028 3.598.035.72.006 2.877.03 3.597.034.72.003 2.884-.068 3.597 0 .726.069 2.872.593 3.597.682.714.088 2.878.185 3.598.205s2.878-.003 3.597 0c.72.003 2.878.03 3.597.034.72.004 2.878 0 3.598 0h3.597c.72 0 2.878-.003 3.597 0 .72.004 2.878.028 3.597.034.72.007 2.878.024 3.598.034s2.878.045 3.597.069c.72.024 2.877.15 3.597.17s2.878.031 3.597.035c.72.003 2.878 0 3.598 0h3.597c.72 0 2.878-.004 3.597 0 .72.003 2.88 0 3.597.034.721.034 2.877.27 3.598.307.718.037 2.878.051 3.597.068.72.017 2.878.092 3.597.102.72.01 2.878 0 3.598 0s2.877-.003 3.597 0c.72.004 2.878.035 3.597.035.72 0 2.878-.035 3.597-.035.72 0 2.878.031 3.598.035.72.003 2.878-.007 3.597 0 .72.006 2.878.061 3.597.068.72.007 2.878 0 3.597 0 .72 0 2.878-.004 3.598 0 .72.003 2.877.03 3.597.034.72.003 2.878 0 3.597 0 .72 0 2.878-.003 3.597 0 .72.003 2.878.03 3.598.034s2.878 0 3.597 0"/><path d="m392.062 354.27 5.196 9h-10.392z"/><path fill="none" stroke="#000" stroke-miterlimit="10" stroke-width="2" d="m392.062 354.27 5.196 9h-10.392z"/></g><clipPath id="g"><path d="M52.919 41.6H1001v342.299H52.919z"/></clipPath><g clip-path="url(#g)"><path fill="none" stroke="#59a14f" stroke-miterlimit="10" stroke-width="2" d="M53.919 381.022h3.597c.72 0 2.894.107 3.597 0 .736-.112 2.862-.97 3.598-1.092.703-.117 2.877-.093 3.597-.103s2.878.007 3.597 0c.72-.007 2.88-.024 3.597-.068.722-.045 2.876-.324 3.598-.375.717-.052 2.877-.113 3.597-.137s2.878-.082 3.597-.102c.72-.02 2.883-.032 3.597-.103.725-.072 2.873-.545 3.598-.614.714-.068 2.879-.03 3.597-.068.72-.038 2.878-.25 3.597-.308.72-.058 2.877-.238 3.597-.273.719-.034 2.884.003 3.598-.068.725-.072 2.872-.562 3.597-.648.714-.085 2.878-.17 3.597-.205.72-.034 2.878-.113 3.598-.137.719-.023 2.877-.092 3.597-.102s2.878.017 3.597 0c.72-.017 2.878-.133 3.597-.17.72-.038 2.878-.178 3.598-.205.719-.028 2.88-.021 3.597-.069.722-.048 2.875-.368 3.597-.41.717-.04 2.878.011 3.597 0 .72-.01 2.878-.095 3.598-.102s2.913.19 3.597.035c.755-.172 2.843-1.494 3.597-1.673.685-.162 2.881.017 3.597-.034.723-.051 2.875-.42 3.598-.478.716-.058 2.887-.008 3.597-.102.73-.097 2.868-.76 3.597-.853.71-.091 2.878-.058 3.598-.069.719-.01 2.896.086 3.597-.034.738-.126 2.86-1.058 3.597-1.194.701-.13 2.878-.12 3.597-.137.72-.017 2.878-.024 3.598-.034s2.877-.058 3.597-.068 2.878-.028 3.597-.034c.72-.007 2.878-.031 3.597-.035.72-.003 2.879.014 3.598 0 .72-.013 2.877-.119 3.597-.136s2.879-.007 3.597-.034c.72-.028 2.892-.112 3.598-.24.733-.131 2.863-.928 3.597-1.057.705-.124 2.877-.184 3.597-.205.719-.02 2.878 0 3.597 0 .72 0 2.878.014 3.598 0s2.882-.065 3.597-.136c.724-.073 2.9-.382 3.597-.58.743-.212 2.874-1.184 3.597-1.468.716-.282 2.855-1.203 3.598-1.365.695-.152 2.877-.185 3.597-.205.719-.02 2.878.003 3.597 0 .72-.004 2.878-.02 3.597-.034.72-.014 2.878-.079 3.598-.103s2.882-.062 3.597-.136c.724-.076 2.873-.55 3.597-.615.715-.064 2.878-.023 3.598-.034.719-.01 2.877-.061 3.597-.068s2.878 0 3.597 0c.72 0 2.878.02 3.597 0 .72-.02 2.878-.174 3.598-.205.719-.03 2.877-.085 3.597-.102s2.879-.034 3.597-.068c.72-.035 2.877-.24 3.597-.273.719-.035 2.878-.058 3.598-.069.72-.01 2.893.076 3.597-.034.735-.115 2.863-.956 3.597-1.092.705-.13 2.877-.201 3.597-.239s2.878-.113 3.598-.136 2.878-.065 3.597-.103c.72-.037 2.877-.242 3.597-.273.719-.03 2.878-.027 3.598-.034s2.877-.03 3.597-.034 2.878.014 3.597 0c.72-.014 2.878-.106 3.597-.137.72-.03 2.88-.116 3.598-.17.72-.055 2.875-.335 3.597-.376.717-.04 2.878-.03 3.597-.034.72-.003 2.878.01 3.597 0 .72-.01 2.878-.092 3.598-.102s2.877.003 3.597 0c.72-.004 2.878-.014 3.597-.034.72-.02 2.878-.147 3.597-.171.72-.024 2.878-.048 3.598-.068s2.878-.11 3.597-.137c.72-.027 2.878-.12 3.597-.136.72-.017 2.878-.028 3.598-.034s2.877-.02 3.597-.035c.72-.013 2.877-.088 3.597-.102s2.879-.007 3.597-.034c.72-.027 2.918-.387 3.598-.239.759.166 2.839 1.658 3.597 1.809.68.136 3.013-.03 3.597-.376.855-.507 2.74-3.423 3.597-3.89.582-.318 2.878-.028 3.598-.034s2.882.026 3.597-.035c.724-.061 2.874-.49 3.597-.58.716-.088 2.877-.263 3.597-.307.719-.044 2.89-.032 3.598-.136.73-.108 2.866-.821 3.597-.922.708-.097 2.878-.058 3.597-.068.72-.01 2.88.01 3.598-.034.721-.045 2.876-.345 3.597-.41.718-.065 2.88-.16 3.597-.239.723-.079 2.874-.488 3.597-.546.716-.058 2.898.089 3.598-.034.739-.13 2.858-1.092 3.597-1.229.7-.13 2.878-.071 3.597-.102.72-.03 2.878-.174 3.597-.205.72-.03 2.88-.065 3.598-.102.72-.038 2.878-.212 3.597-.273.72-.062 2.876-.304 3.597-.342.718-.037 2.878-.03 3.597-.034.72-.003 2.878.004 3.598 0 .72-.003 2.878-.01 3.597-.034.72-.024 2.877-.174 3.597-.205.72-.03 2.878-.082 3.598-.102s2.877-.089 3.597-.102c.72-.014 2.878-.024 3.597-.035.72-.01 2.882-.007 3.597-.068.724-.062 2.875-.47 3.598-.546.716-.075 2.877-.177 3.597-.205.719-.027 2.878-.047 3.597-.068.72-.02 2.879-.092 3.597-.137.72-.044 2.879-.242 3.598-.307.72-.065 2.876-.293 3.597-.341.718-.048 2.878-.113 3.597-.136.72-.024 2.878-.09 3.597-.103.72-.014 2.878-.03 3.598-.034.72-.003 2.902.132 3.597 0 .744-.141 2.854-1.2 3.597-1.365.696-.155 2.879-.181 3.598-.24.72-.057 2.876-.293 3.597-.34.718-.048 2.877-.113 3.597-.137s2.878-.075 3.597-.102c.72-.028 2.878-.147 3.598-.171s2.877-.058 3.597-.068 2.88.006 3.597-.034c.722-.041 2.876-.328 3.597-.376.718-.047 2.878-.085 3.598-.102s2.878-.055 3.597-.068l3.597-.069c.72-.013 2.878-.058 3.597-.068.72-.01 2.879-.014 3.598-.034.72-.02 2.878-.133 3.597-.17.72-.038 2.957.053 3.597-.206.799-.322 2.798-2.381 3.598-2.696.64-.252 2.877-.112 3.597-.136s2.878-.072 3.597-.103c.72-.03 2.877-.177 3.597-.204.72-.028 2.878-.055 3.598-.069.72-.013 2.878-.048 3.597-.068.72-.02 2.88-.082 3.597-.137.722-.054 2.876-.361 3.597-.41.718-.047 2.878-.047 3.598-.067s2.877-.116 3.597-.137c.72-.02 2.878-.051 3.597-.068.72-.017 2.879-.065 3.598-.102.72-.038 2.876-.236 3.597-.274.718-.037 2.878-.081 3.597-.102.72-.02 2.878-.072 3.597-.102.72-.031 2.878-.174 3.598-.205.719-.03 2.877-.082 3.597-.102.72-.021 2.878-.079 3.597-.103.72-.024 2.878-.116 3.597-.136.72-.02 2.878-.052 3.598-.069s2.878-.078 3.597-.102c.72-.024 2.878-.113 3.597-.137.72-.023 2.88-.048 3.597-.102.722-.055 2.876-.396 3.598-.444.716-.047 2.877-.027 3.597-.034s2.878-.013 3.597-.034c.72-.02 2.878-.143 3.597-.17.72-.028 2.878-.093 3.598-.103s2.88.034 3.597 0c.721-.034 2.877-.287 3.597-.341.719-.055 2.878-.181 3.598-.205.718-.024 2.877-.027 3.597-.034s2.878-.017 3.597-.034c.72-.017 2.879-.096 3.597-.137.72-.04 2.877-.235 3.598-.273.718-.037 2.878-.075 3.597-.102.72-.028 2.878-.14 3.597-.17.72-.032 2.878-.124 3.597-.137.72-.014 2.88.03 3.598 0 .72-.031 2.877-.26 3.597-.308.719-.047 2.878-.136 3.597-.17.72-.034 2.878-.13 3.597-.17.72-.042 2.878-.206 3.598-.24s2.878-.078 3.597-.102c.72-.024 2.878-.12 3.597-.137.72-.017 2.878-.027 3.598-.034s2.878-.017 3.597-.034c.72-.017 2.88-.085 3.597-.136.721-.052 2.876-.321 3.597-.376.718-.054 2.879-.13 3.598-.17.72-.042 2.877-.202 3.597-.24.719-.037 2.877-.122 3.597-.136s2.878.007 3.597 0c.72-.007 2.878-.055 3.598-.068s2.878-.051 3.597-.068c.72-.018 2.878-.072 3.597-.103.72-.03 2.877-.18 3.598-.205.718-.024 2.877-.024 3.597-.034s2.878-.058 3.597-.068c.72-.01 2.878-.024 3.597-.034.72-.01 2.878-.055 3.598-.068s2.877-.052 3.597-.069 2.878-.082 3.597-.102l3.597-.102c.72-.02 2.879-.069 3.598-.103.72-.034 2.877-.198 3.597-.239.719-.04 2.877-.153 3.597-.17s2.88.03 3.597 0c.721-.031 2.883-.21 3.598-.308.724-.1 2.871-.6 3.597-.682.713-.081 2.88-.086 3.597-.137.721-.051 2.876-.344 3.597-.375.718-.03 2.878.068 3.598.068s2.878-.054 3.597-.068c.72-.014 2.878-.051 3.597-.068.72-.017 2.878-.082 3.598-.103s2.878-.078 3.597-.102c.72-.024 2.878-.113 3.597-.137.72-.024 2.878-.082 3.597-.102.72-.02 2.878-.085 3.598-.102.719-.018 2.877-.055 3.597-.069.72-.013 2.895.052 3.597-.068.737-.126 2.861-1.017 3.597-1.16.703-.137 2.877-.215 3.598-.24.718-.023 2.88.042 3.597 0 .722-.04 2.876-.354 3.597-.409.718-.054 2.878-.123 3.598-.136s2.877 0 3.597 0 2.878.01 3.597 0c.72-.01 2.878-.086 3.597-.103.72-.017 2.883 0 3.598-.068.724-.069 2.873-.525 3.597-.614.715-.089 2.877-.222 3.597-.273s2.877-.212 3.597-.24 2.878-.03 3.598-.033 2.878.013 3.597 0c.72-.014 2.877-.12 3.597-.137s2.88.007 3.597-.034c.722-.041 2.876-.328 3.598-.376.717-.047 2.878-.071 3.597-.102.72-.03 2.877-.174 3.597-.205.72-.03 2.878-.088 3.598-.102s2.878-.01 3.597-.034c.72-.024 2.877-.178 3.597-.205.719-.027 2.878-.055 3.597-.068.72-.014 2.88-.034 3.598-.069.72-.034 2.877-.225 3.597-.273.719-.047 2.877-.18 3.597-.204.719-.024 2.878-.028 3.597-.034.72-.007 2.882.02 3.598-.035.723-.054 2.874-.457 3.597-.512.716-.054 2.878-.017 3.597-.034.72-.017 2.88-.085 3.597-.136.722-.052 2.876-.331 3.598-.376.717-.044 2.878-.054 3.597-.068"/><path d="m392.062 355.875 5.196 9h-10.392z"/><path fill="none" stroke="#000" stroke-miterlimit="10" stroke-width="2" d="m392.062 355.875 5.196 9h-10.392z"/></g><path fill-opacity=".349" d="M392.562 41.6v4h-1v-4m1 8v4h-1v-4m1 8v4h-1v-4m1 8v4h-1v-4m1 8v4h-1v-4m1 8v4h-1v-4m1 8v4h-1v-4m1 8v4h-1v-4m1 8v4h-1v-4m1 8v4h-1v-4m1 8v4h-1v-4m1 8v4h-1v-4m1 8v4h-1v-4m1 8v4h-1v-4m1 8v4h-1v-4m1 8v4h-1v-4m1 8v4h-1v-4m1 8v4h-1v-4m1 8v4h-1v-4m1 8v4h-1v-4m1 8v4h-1v-4m1 8v4h-1v-4m1 8v4h-1v-4m1 8v4h-1v-4m1 8v4h-1v-4m1 8v4h-1v-4m1 8v4h-1v-4m1 8v4h-1v-4m1 8v4h-1v-4m1 8v4h-1v-4m1 8v4h-1v-4m1 8v4h-1v-4m1 8v4h-1v-4m1 8v4h-1v-4m1 8v4h-1v-4m1 8v4h-1v-4m1 8v4h-1v-4m1 8v4h-1v-4m1 8v4h-1v-4m1 8v4h-1v-4m1 8v4h-1v-4m1 8v4h-1v-4m1 8v4h-1v-4"/></svg>