<svg xmlns="http://www.w3.org/2000/svg" width="800" height="800"><path fill="none" d="M0 0h800v800H0z"/><clipPath id="a"><path d="M0 740h800v60H0z"/></clipPath><g clip-path="url(#a)"><path fill="#4caf50" d="M138.975 770h40v20h-40z"/><path fill="none" stroke="#fff" stroke-miterlimit="10" stroke-width="2" d="M138.975 770h40v20h-40z"/><text x="188.97501, 200.97696, 212.97891, 224.98087, 236.98282, 248.98477, 260.98672," y="785.5," fill="#666" font-family="Liberation Mono" font-size="20">Trusted</text><path fill="#ff9800" d="M302.985 770h40v20h-40z"/><path fill="none" stroke="#fff" stroke-miterlimit="10" stroke-width="2" d="M302.985 770h40v20h-40z"/><text x="352.98502, 364.98697, 376.98892, 388.99088, 400.99283, 412.99478, 424.99673, 436.99869, 449.00064, 461.00259," y="785.5," fill="#666" font-family="Liberation Mono" font-size="20">Provenance</text><path fill="#f44336" d="M503.005 770h40v20h-40z"/><path fill="none" stroke="#fff" stroke-miterlimit="10" stroke-width="2" d="M503.005 770h40v20h-40z"/><text x="553.005, 565.00696, 577.00891, 589.01086, 601.01282, 613.01477, 625.01672, 637.01868, 649.02063," y="785.5," fill="#666" font-family="Liberation Mono" font-size="20">Untrusted</text></g><path fill="#4caf50" d="M400 1q5.987 0 11.97.194t11.958.583 11.933.97 11.895 1.356T459.6 5.845t11.781 2.125 11.707 2.506 11.62 2.885 11.52 3.26q5.732 1.724 11.407 3.632t11.284 4q5.61 2.092 11.148 4.365 5.539 2.272 11.001 4.723t10.842 5.078 10.671 5.427 10.49 5.77 10.297 6.108 10.093 6.438 9.88 6.763q4.884 3.46 9.654 7.079t9.42 7.389 9.175 7.69q4.526 3.92 8.921 7.984 4.396 4.065 8.658 8.27t8.384 8.545 8.103 8.814 7.812 9.071 7.515 9.32 7.208 9.56q3.526 4.837 6.894 9.787 3.367 4.95 6.573 10.006 3.205 5.057 6.245 10.215L400 370z"/><path fill="none" stroke="#fff" stroke-linejoin="bevel" stroke-width="2" d="M400 1q5.987 0 11.97.194t11.958.583 11.933.97 11.895 1.356T459.6 5.845t11.781 2.125 11.707 2.506 11.62 2.885 11.52 3.26q5.732 1.724 11.407 3.632t11.284 4q5.61 2.092 11.148 4.365 5.539 2.272 11.001 4.723t10.842 5.078 10.671 5.427 10.49 5.77 10.297 6.108 10.093 6.438 9.88 6.763q4.884 3.46 9.654 7.079t9.42 7.389 9.175 7.69q4.526 3.92 8.921 7.984 4.396 4.065 8.658 8.27t8.384 8.545 8.103 8.814 7.812 9.071 7.515 9.32 7.208 9.56q3.526 4.837 6.894 9.787 3.367 4.95 6.573 10.006 3.205 5.057 6.245 10.215L400 370z"/><path fill="#ff9800" d="M717.904 182.655q9.29 15.765 16.976 32.373t13.69 33.894L400 370z"/><path fill="none" stroke="#fff" stroke-linejoin="bevel" stroke-width="2" d="M717.904 182.655q9.29 15.765 16.976 32.373t13.69 33.894L400 370l317.904-187.345Z"/><path fill="#f44336" d="M748.57 248.922q2.972 8.557 5.521 17.25t4.668 17.499 3.804 17.707 2.93 17.873 2.05 17.995 1.165 18.074.276 18.11-.613 18.1-1.5 18.05-2.384 17.954-3.262 17.815-4.132 17.634-4.993 17.41-5.84 17.143-6.676 16.836-7.493 16.49-8.293 16.1q-4.344 7.95-9.073 15.675t-9.831 15.211-10.566 14.71-11.275 14.174-11.957 13.604q-6.145 6.655-12.61 13-6.464 6.346-13.233 12.366-6.768 6.02-13.823 11.702t-14.381 11.01-14.904 10.29-15.39 9.547q-7.813 4.585-15.842 8.78-8.028 4.196-16.252 7.993-8.225 3.797-16.625 7.185-8.401 3.389-16.958 6.361-5.188 1.802-10.428 3.45-5.24 1.646-10.526 3.137-5.287 1.49-10.615 2.822t-10.694 2.506-10.764 2.186q-5.399 1.013-10.825 1.865-5.426.851-10.875 1.541t-10.916 1.218-10.947.892q-5.48.364-10.97.565-5.488.201-10.98.24-5.493.037-10.984-.089-5.491-.125-10.976-.415-5.485-.289-10.959-.74-5.474-.453-10.932-1.068t-10.895-1.392-10.849-1.716-10.793-2.037-10.728-2.359-10.652-2.676-10.569-2.992-10.474-3.306q-5.213-1.73-10.372-3.616-5.159-1.885-10.26-3.922-5.1-2.038-10.137-4.227t-10.008-4.526-9.868-4.823-9.721-5.113q-4.823-2.63-9.564-5.401-4.742-2.772-9.4-5.683-4.657-2.912-9.226-5.96-4.568-3.05-9.044-6.233-7.382-5.25-14.497-10.856-7.115-5.607-13.947-11.555-6.831-5.949-13.363-12.225-6.531-6.277-12.747-12.866-6.215-6.59-12.1-13.476t-11.425-14.054-10.721-14.597q-5.181-7.43-9.992-15.106-4.81-7.675-9.239-15.578-4.428-7.902-8.463-16.012t-7.668-16.408-6.853-16.765-6.022-17.081-5.177-17.356-4.319-17.589-3.45-17.78-2.575-17.927-1.691-18.032-.805-18.094.084-18.111.973-18.085 1.859-18.016 2.74-17.903 3.617-17.747 4.482-17.548 5.338-17.307 6.18-17.024 7.01-16.7q3.708-8.264 7.819-16.337 4.11-8.072 8.612-15.933 4.501-7.86 9.383-15.49 4.882-7.631 10.132-15.013 3.183-4.476 6.499-8.855t6.759-8.657 7.014-8.453 7.263-8.24 7.504-8.02 7.74-7.794 7.969-7.56 8.19-7.318 8.404-7.072q4.254-3.474 8.61-6.819 4.357-3.345 8.81-6.56t9.002-6.294q4.547-3.08 9.185-6.023 4.637-2.944 9.36-5.748t9.526-5.466q4.805-2.663 9.686-5.181 4.88-2.518 9.835-4.89 4.954-2.372 9.976-4.595t10.11-4.296q5.085-2.073 10.231-3.993t10.347-3.687 10.451-3.378q5.251-1.61 10.548-3.065t10.634-2.75 10.711-2.431q5.374-1.136 10.779-2.112t10.837-1.79q5.431-.815 10.885-1.467t10.924-1.143 10.954-.816q5.482-.327 10.972-.49Q394.507 1 400 1v369z"/><path fill="none" stroke="#fff" stroke-linejoin="bevel" stroke-width="2" d="M748.57 248.922q2.972 8.557 5.521 17.25t4.668 17.499 3.804 17.707 2.93 17.873 2.05 17.995 1.165 18.074.276 18.11-.613 18.1-1.5 18.05-2.384 17.954-3.262 17.815-4.132 17.634-4.993 17.41-5.84 17.143-6.676 16.836-7.493 16.49-8.293 16.1q-4.344 7.95-9.073 15.675t-9.831 15.211-10.566 14.71-11.275 14.174-11.957 13.604q-6.145 6.655-12.61 13-6.464 6.346-13.233 12.366-6.768 6.02-13.823 11.702t-14.381 11.01-14.904 10.29-15.39 9.547q-7.813 4.585-15.842 8.78-8.028 4.196-16.252 7.993-8.225 3.797-16.625 7.185-8.401 3.389-16.958 6.361-5.188 1.802-10.428 3.45-5.24 1.646-10.526 3.137-5.287 1.49-10.615 2.822t-10.694 2.506-10.764 2.186q-5.399 1.013-10.825 1.865-5.426.851-10.875 1.541t-10.916 1.218-10.947.892q-5.48.364-10.97.565-5.488.201-10.98.24-5.493.037-10.984-.089-5.491-.125-10.976-.415-5.485-.289-10.959-.74-5.474-.453-10.932-1.068t-10.895-1.392-10.849-1.716-10.793-2.037-10.728-2.359-10.652-2.676-10.569-2.992-10.474-3.306q-5.213-1.73-10.372-3.616-5.159-1.885-10.26-3.922-5.1-2.038-10.137-4.227t-10.008-4.526-9.868-4.823-9.721-5.113q-4.823-2.63-9.564-5.401-4.742-2.772-9.4-5.683-4.657-2.912-9.226-5.96-4.568-3.05-9.044-6.233-7.382-5.25-14.497-10.856-7.115-5.607-13.947-11.555-6.831-5.949-13.363-12.225-6.531-6.277-12.747-12.866-6.215-6.59-12.1-13.476t-11.425-14.054-10.721-14.597q-5.181-7.43-9.992-15.106-4.81-7.675-9.239-15.578-4.428-7.902-8.463-16.012t-7.668-16.408-6.853-16.765-6.022-17.081-5.177-17.356-4.319-17.589-3.45-17.78-2.575-17.927-1.691-18.032-.805-18.094.084-18.111.973-18.085 1.859-18.016 2.74-17.903 3.617-17.747 4.482-17.548 5.338-17.307 6.18-17.024 7.01-16.7q3.708-8.264 7.819-16.337 4.11-8.072 8.612-15.933 4.501-7.86 9.383-15.49 4.882-7.631 10.132-15.013 3.183-4.476 6.499-8.855t6.759-8.657 7.014-8.453 7.263-8.24 7.504-8.02 7.74-7.794 7.969-7.56 8.19-7.318 8.404-7.072q4.254-3.474 8.61-6.819 4.357-3.345 8.81-6.56t9.002-6.294q4.547-3.08 9.185-6.023 4.637-2.944 9.36-5.748t9.526-5.466q4.805-2.663 9.686-5.181 4.88-2.518 9.835-4.89 4.954-2.372 9.976-4.595t10.11-4.296q5.085-2.073 10.231-3.993t10.347-3.687 10.451-3.378q5.251-1.61 10.548-3.065t10.634-2.75 10.711-2.431q5.374-1.136 10.779-2.112t10.837-1.79q5.431-.815 10.885-1.467t10.924-1.143 10.954-.816q5.482-.327 10.972-.49Q394.507 1 400 1v369l348.57-121.078Z"/></svg>