<svg xmlns="http://www.w3.org/2000/svg" width="800" height="800"><path fill="none" d="M0 0h800v800H0z"/><clipPath id="a"><path d="M0 740h800v60H0z"/></clipPath><g clip-path="url(#a)"><path fill="#4caf50" d="M144.605 770h40v20h-40z"/><path fill="none" stroke="#fff" stroke-miterlimit="10" stroke-width="2" d="M144.605 770h40v20h-40z"/><text x="194.605, 207.94484, 217.50539, 230.38625, 240.64992, 248.68703, 260.52295," y="787.5," fill="#666" font-family="DejaVu Serif" font-size="20">Trusted</text><path fill="#ff9800" d="M303.325 770h40v20h-40z"/><path fill="none" stroke="#fff" stroke-miterlimit="10" stroke-width="2" d="M303.325 770h40v20h-40z"/><text x="353.32501, 366.78204, 376.34259, 388.38361, 399.68243, 411.51837, 424.39923, 436.32306, 449.20392, 460.40509," y="787.5," fill="#666" font-family="DejaVu Serif" font-size="20">Provenance</text><path fill="#f44336" d="M502.245 770h40v20h-40z"/><path fill="none" stroke="#fff" stroke-miterlimit="10" stroke-width="2" d="M502.245 770h40v20h-40z"/><text x="552.245, 569.10046, 581.98132, 590.01843, 599.57898, 612.45984, 622.72351, 630.76062, 642.59656," y="787.5," fill="#666" font-family="DejaVu Serif" font-size="20">Untrusted</text></g><path fill="#4caf50" d="M400 1q8.56 0 17.111.397t17.075 1.19 17.001 1.98 16.891 2.767 16.744 3.547 16.562 4.32 16.344 5.083 16.09 5.836 15.803 6.575 15.48 7.301q7.657 3.83 15.126 8.012 7.47 4.18 14.738 8.704 7.268 4.522 14.318 9.378t13.868 10.032 13.388 10.664q6.57 5.487 12.879 11.273L400 370z"/><path fill="none" stroke="#fff" stroke-linejoin="bevel" stroke-width="2" d="M400 1q8.56 0 17.111.397t17.075 1.19 17.001 1.98 16.891 2.767 16.744 3.547 16.562 4.32 16.344 5.083 16.09 5.836 15.803 6.575 15.48 7.301q7.657 3.83 15.126 8.012 7.47 4.18 14.738 8.704 7.268 4.522 14.318 9.378t13.868 10.032 13.388 10.664q6.57 5.487 12.879 11.273L400 370z"/><path fill="#ff9800" d="M649.418 98.06q9.322 8.549 18.036 17.717t16.78 18.91 15.446 20.016q7.38 10.272 14.04 21.026L400 370z"/><path fill="none" stroke="#fff" stroke-linejoin="bevel" stroke-width="2" d="M649.418 98.06q9.322 8.549 18.036 17.717t16.78 18.91 15.446 20.016q7.38 10.272 14.04 21.026L400 370 649.418 98.06Z"/><path fill="#f44336" d="M713.72 175.73q4.768 7.7 9.154 15.627 4.385 7.926 8.377 16.057 3.99 8.132 7.578 16.45t6.763 16.802q3.175 8.483 5.93 17.113t5.082 17.383 4.224 17.612 3.355 17.798 2.477 17.942q1.019 9 1.594 18.04t.707 18.098q.131 9.058-.182 18.11-.313 9.054-1.07 18.08-.757 9.027-1.957 18.006-1.199 8.979-2.837 17.888t-3.712 17.727-4.577 17.523-5.431 17.278-6.273 16.99-7.099 16.663-7.907 16.294-8.698 15.886-9.467 15.44-10.213 14.958-10.935 14.438-11.63 13.884-12.297 13.297q-6.311 6.497-12.934 12.677T638.2 651.818t-14.115 11.349q-7.197 5.5-14.655 10.642t-15.16 9.91q-5.208 3.226-10.522 6.277t-10.726 5.925-10.916 5.564q-5.504 2.692-11.095 5.2-5.59 2.507-11.261 4.828-5.671 2.32-11.416 4.451t-11.557 4.07q-5.812 1.94-11.686 3.685t-11.802 3.294-11.904 2.9q-5.977 1.352-11.994 2.504-6.018 1.152-12.071 2.104t-12.134 1.702-12.184 1.298-12.22.893-12.244.487-12.252.08q-6.127-.061-12.249-.326-6.121-.266-12.23-.734-6.11-.468-12.2-1.139-6.09-.67-12.156-1.543-6.064-.872-12.097-1.946t-12.026-2.346q-5.993-1.274-11.941-2.745t-11.844-3.14q-5.896-1.668-11.733-3.53-5.837-1.863-11.61-3.92-5.772-2.055-11.472-4.301-5.701-2.246-11.324-4.68-5.623-2.435-11.162-5.054t-10.988-5.422-10.802-5.783q-7.914-4.408-15.602-9.199t-15.132-9.952-14.625-10.684-14.083-11.388-13.507-12.065-12.9-12.714-12.26-13.33q-5.966-6.817-11.59-13.918-5.625-7.1-10.894-14.468t-10.171-14.986-9.424-15.467-8.653-15.91q-4.131-8.062-7.862-16.316-3.73-8.255-7.052-16.682-3.321-8.428-6.225-17.008t-5.383-17.294q-2.48-8.712-4.528-17.536-2.049-8.824-3.662-17.737-1.613-8.914-2.787-17.896t-1.906-18.01-1.02-18.083-.13-18.111.757-18.096 1.644-18.037 2.528-17.934 3.404-17.788 4.274-17.6 5.132-17.37q2.779-8.621 5.977-17.096 3.2-8.475 6.81-16.783 3.61-8.307 7.625-16.428 4.014-8.12 8.421-16.034 2.982-5.353 6.14-10.604t6.487-10.395 6.829-10.173 7.163-9.94q3.664-4.912 7.49-9.698 3.824-4.787 7.806-9.444t8.116-9.18q4.135-4.521 8.417-8.904 4.282-4.382 8.708-8.62 4.425-4.238 8.989-8.327 4.563-4.088 9.26-8.023t9.522-7.712 9.772-7.391 10.013-7.063 10.241-6.726 10.46-6.383 10.665-6.032q5.382-2.927 10.86-5.674 5.476-2.747 11.041-5.31 5.566-2.564 11.213-4.942 5.647-2.377 11.37-4.566t11.516-4.186q5.792-1.998 11.648-3.802t11.768-3.413q5.912-1.608 11.875-3.02 5.962-1.411 11.968-2.624t12.05-2.225T351.13 4.25t12.17-1.42q6.097-.61 12.211-1.017t12.238-.61Q393.873 1 400 1v369z"/><path fill="none" stroke="#fff" stroke-linejoin="bevel" stroke-width="2" d="M713.72 175.73q4.768 7.7 9.154 15.627 4.385 7.926 8.377 16.057 3.99 8.132 7.578 16.45t6.763 16.802q3.175 8.483 5.93 17.113t5.082 17.383 4.224 17.612 3.355 17.798 2.477 17.942q1.019 9 1.594 18.04t.707 18.098q.131 9.058-.182 18.11-.313 9.054-1.07 18.08-.757 9.027-1.957 18.006-1.199 8.979-2.837 17.888t-3.712 17.727-4.577 17.523-5.431 17.278-6.273 16.99-7.099 16.663-7.907 16.294-8.698 15.886-9.467 15.44-10.213 14.958-10.935 14.438-11.63 13.884-12.297 13.297q-6.311 6.497-12.934 12.677T638.2 651.818t-14.115 11.349q-7.197 5.5-14.655 10.642t-15.16 9.91q-5.208 3.226-10.522 6.277t-10.726 5.925-10.916 5.564q-5.504 2.692-11.095 5.2-5.59 2.507-11.261 4.828-5.671 2.32-11.416 4.451t-11.557 4.07q-5.812 1.94-11.686 3.685t-11.802 3.294-11.904 2.9q-5.977 1.352-11.994 2.504-6.018 1.152-12.071 2.104t-12.134 1.702-12.184 1.298-12.22.893-12.244.487-12.252.08q-6.127-.061-12.249-.326-6.121-.266-12.23-.734-6.11-.468-12.2-1.139-6.09-.67-12.156-1.543-6.064-.872-12.097-1.946t-12.026-2.346q-5.993-1.274-11.941-2.745t-11.844-3.14q-5.896-1.668-11.733-3.53-5.837-1.863-11.61-3.92-5.772-2.055-11.472-4.301-5.701-2.246-11.324-4.68-5.623-2.435-11.162-5.054t-10.988-5.422-10.802-5.783q-7.914-4.408-15.602-9.199t-15.132-9.952-14.625-10.684-14.083-11.388-13.507-12.065-12.9-12.714-12.26-13.33q-5.966-6.817-11.59-13.918-5.625-7.1-10.894-14.468t-10.171-14.986-9.424-15.467-8.653-15.91q-4.131-8.062-7.862-16.316-3.73-8.255-7.052-16.682-3.321-8.428-6.225-17.008t-5.383-17.294q-2.48-8.712-4.528-17.536-2.049-8.824-3.662-17.737-1.613-8.914-2.787-17.896t-1.906-18.01-1.02-18.083-.13-18.111.757-18.096 1.644-18.037 2.528-17.934 3.404-17.788 4.274-17.6 5.132-17.37q2.779-8.621 5.977-17.096 3.2-8.475 6.81-16.783 3.61-8.307 7.625-16.428 4.014-8.12 8.421-16.034 2.982-5.353 6.14-10.604t6.487-10.395 6.829-10.173 7.163-9.94q3.664-4.912 7.49-9.698 3.824-4.787 7.806-9.444t8.116-9.18q4.135-4.521 8.417-8.904 4.282-4.382 8.708-8.62 4.425-4.238 8.989-8.327 4.563-4.088 9.26-8.023t9.522-7.712 9.772-7.391 10.013-7.063 10.241-6.726 10.46-6.383 10.665-6.032q5.382-2.927 10.86-5.674 5.476-2.747 11.041-5.31 5.566-2.564 11.213-4.942 5.647-2.377 11.37-4.566t11.516-4.186q5.792-1.998 11.648-3.802t11.768-3.413q5.912-1.608 11.875-3.02 5.962-1.411 11.968-2.624t12.05-2.225T351.13 4.25t12.17-1.42q6.097-.61 12.211-1.017t12.238-.61Q393.873 1 400 1v369l313.72-194.271Z"/></svg>