<?xml version="1.0" encoding="utf-8" ?><svg xmlns="http://www.w3.org/2000/svg" xmlns:xlink="http://www.w3.org/1999/xlink" width="800" height="800"><rect fill-opacity="0" width="800" height="800"/><clipPath id="cl_3"><rect y="740" width="800" height="60"/></clipPath><g clip-path="url(#cl_3)"><path fill="#4CAF50" d="M144.605 770L184.605 770L184.605 790L144.605 790L144.605 770Z"/><path fill="none" stroke="white" stroke-width="2" stroke-miterlimit="10" d="M144.605 770L184.605 770L184.605 790L144.605 790L144.605 770Z"/><text fill="#666" font-size="20" font-family="DejaVu Serif" x="194.605, 207.94484, 217.50539, 230.38625, 240.64992, 248.68703, 260.52295, " y="787.5, ">Trusted</text><path fill="#FF9800" d="M303.32501 770L343.32501 770L343.32501 790L303.32501 790L303.32501 770Z"/><path fill="none" stroke="white" stroke-width="2" stroke-miterlimit="10" d="M303.32501 770L343.32501 770L343.32501 790L303.32501 790L303.32501 770Z"/><text fill="#666" font-size="20" font-family="DejaVu Serif" x="353.32501, 366.78204, 376.34259, 388.38361, 399.68243, 411.51837, 424.39923, 436.32306, 449.20392, 460.40509, " y="787.5, ">Provenance</text><path fill="#F44336" d="M502.245 770L542.245 770L542.245 790L502.245 790L502.245 770Z"/><path fill="none" stroke="white" stroke-width="2" stroke-miterlimit="10" d="M502.245 770L542.245 770L542.245 790L502.245 790L502.245 770Z"/><text fill="#666" font-size="20" font-family="DejaVu Serif" x="552.245, 569.10046, 581.98132, 590.01843, 599.57898, 612.45984, 622.72351, 630.76062, 642.59656, " y="787.5, ">Untrusted</text></g><path fill="#4CAF50" d="M400 1Q409.92615 1 419.83795 1.5336444Q429.74976 2.0672889 439.61856 3.1330342Q449.48734 4.1987796 459.28455 5.7935438Q469.08173 7.3883076 478.77905 9.5074768Q488.47632 11.626646 498.04565 14.26408Q507.61493 16.901514 517.02863 20.049587Q526.44226 23.197659 535.6731 26.847265Q544.90393 30.496868 553.92523 34.637451L400 370L400 370L400 370L400 1Z"/><path fill="none" stroke="white" stroke-width="2" stroke-linejoin="bevel" d="M400 1Q409.92615 1 419.83795 1.5336444Q429.74976 2.0672889 439.61856 3.1330342Q449.48734 4.1987796 459.28455 5.7935438Q469.08173 7.3883076 478.77905 9.5074768Q488.47632 11.626646 498.04565 14.26408Q507.61493 16.901514 517.02863 20.049587Q526.44226 23.197659 535.6731 26.847265Q544.90393 30.496868 553.92523 34.637451L400 370L400 370L400 370L400 1Z"/><path fill="#FF9800" d="M553.92523 34.637482Q569.18549 41.64167 583.74658 50.002857Q598.30774 58.364044 612.04932 68.013123Q625.79077 77.662117 638.59912 88.519241Q651.40759 99.376358 663.177 111.35187L400 370L400 370L400 370L553.92535 34.637524L553.92523 34.637482Z"/><path fill="none" stroke="white" stroke-width="2" stroke-linejoin="bevel" d="M553.92523 34.637482Q569.18549 41.64167 583.74658 50.002857Q598.30774 58.364044 612.04932 68.013123Q625.79077 77.662117 638.59912 88.519241Q651.40759 99.376358 663.177 111.35187L400 370L400 370L400 370L553.92535 34.637524L553.92523 34.637482Z"/><path fill="#F44336" d="M663.177 111.35187Q669.52649 117.8125 675.55127 124.5769Q681.57605 131.34131 687.26172 138.39319Q692.94727 145.44507 698.28003 152.76744Q703.61279 160.0898 708.57983 167.66501Q713.54688 175.2402 718.13623 183.05002Q722.72559 190.85983 726.92627 198.88544Q731.12683 206.91101 734.92859 215.13306Q738.73035 223.35507 742.12415 231.75375Q745.51788 240.15244 748.49548 248.70752Q751.47308 257.2626 754.02734 265.95349Q756.58154 274.64435 758.70618 283.45007Q760.83081 292.2558 762.52087 301.15521Q764.21094 310.0546 765.46228 319.02621Q766.71362 327.9978 767.52325 337.02002Q768.33282 346.04218 768.69873 355.09323Q769.0647 364.14429 768.98608 373.20239Q768.90747 382.2605 768.38452 391.3038Q767.86157 400.34717 766.89545 409.35394Q765.92932 418.36069 764.52246 427.3092Q763.1156 436.25772 761.2713 445.12643Q759.42706 453.99515 757.1499 462.7627Q754.87268 471.53024 752.16809 480.17551Q749.46338 488.82074 746.33783 497.32285Q743.21216 505.82495 739.67316 514.16345Q736.13416 522.50195 732.19025 530.6568Q728.24634 538.81165 723.9071 546.76312Q719.56775 554.7146 714.84351 562.44348Q710.11932 570.17249 705.02155 577.66034Q699.92377 585.14819 694.46472 592.37695Q689.00568 599.60571 683.19855 606.55786Q677.39136 613.50995 671.25006 620.16876Q665.10876 626.82751 658.64813 633.177Q653.82086 637.92114 648.82294 642.48499Q643.82495 647.04895 638.66309 651.42651Q633.5011 655.80408 628.18213 659.98938Q622.86316 664.17474 617.39429 668.16223Q611.92535 672.14966 606.31384 675.93384Q600.70239 679.71802 594.95599 683.29395Q589.20953 686.86981 583.33582 690.2326Q577.46216 693.59534 571.46906 696.74048Q565.47595 699.8855 559.37152 702.80872Q553.26715 705.73187 547.05969 708.42926Q540.85217 711.12659 534.54999 713.59454Q528.2478 716.0625 521.85931 718.29767Q515.47076 720.53278 509.00464 722.5321Q502.53845 724.53149 496.00336 726.29236Q489.46823 728.05322 482.87292 729.5733Q476.27765 731.09338 469.63104 732.37061Q462.98441 733.64777 456.29541 734.6803Q449.60645 735.71289 442.88409 736.49945Q436.16174 737.28601 429.41504 737.82556Q422.6684 738.36511 415.90652 738.65692Q409.14459 738.94861 402.37653 738.99225Q395.60846 739.03589 388.84335 738.8313Q382.07825 738.62659 375.3252 738.17407Q368.57214 737.72144 361.84024 737.02161Q355.10831 736.32166 348.40656 735.37531Q341.70483 734.42896 335.04236 733.23755Q328.37982 732.04602 321.7655 730.61108Q315.15115 729.17603 308.5939 727.49951Q302.03662 725.82288 295.54523 723.90698Q289.05383 721.99103 282.63712 719.83838Q276.22037 717.68567 269.8869 715.29913Q263.55341 712.91266 257.31171 710.29553Q248.95792 706.79272 240.78607 702.88428Q232.61423 698.97583 224.64401 694.67102Q216.67377 690.36627 208.92436 685.6756Q201.17496 680.98492 193.66504 675.91968Q186.15514 670.85443 178.90282 665.42682Q171.65051 659.99921 164.67325 654.22229Q157.69598 648.44531 151.01057 642.33301Q144.32518 636.22058 137.94775 629.7876Q131.57033 623.35461 125.51624 616.61639Q119.46214 609.87817 113.74597 602.85107Q108.0298 595.82391 102.66531 588.52478Q97.300827 581.22559 92.300957 573.67206Q87.301086 566.11853 82.677887 558.32874Q78.054672 550.53888 73.819267 542.53162Q69.583847 534.52429 65.746437 526.31885Q61.909023 518.1134 58.478859 509.72952Q55.048695 501.34564 52.034039 492.80359Q49.019379 484.26151 46.427494 475.58179Q43.835606 466.90207 41.672733 458.10562Q39.509861 449.30917 37.781216 440.41718Q36.052574 431.52521 34.762321 422.55914Q33.472065 413.59308 32.62331 404.57449Q31.774553 395.55591 31.369341 386.50653Q30.96413 377.45715 31.003437 368.3988Q31.042744 359.34045 31.526478 350.29492Q32.010212 341.24945 32.937206 332.23859Q33.864197 323.22766 35.232216 314.27313Q36.600235 305.3186 38.405983 296.44196Q40.211731 287.56531 42.450863 278.78799Q44.689995 270.01065 47.357109 261.35376Q50.024223 252.69687 53.1129 244.18126Q56.201576 235.66565 59.704376 227.31186Q62.321564 221.07013 65.165886 214.92859Q68.010208 208.78705 71.077843 202.75397Q74.145477 196.72086 77.432289 190.80432Q80.719101 184.88777 84.22068 179.09575Q87.722252 173.30371 91.433868 167.64398Q95.145493 161.98425 99.062164 156.46445Q102.97884 150.94464 107.09531 145.57217Q111.21177 140.19972 115.52248 134.98184Q119.83318 129.76393 124.33234 124.70763Q128.8315 119.65132 133.51306 114.76341Q138.19461 109.8755 143.05226 105.16255Q147.90991 100.44962 152.93715 95.917984Q157.96436 91.386353 163.15437 87.042122Q168.34439 82.697891 173.69025 78.546913Q179.03607 74.395927 184.53055 70.443779Q190.02502 66.491638 195.66074 62.743645Q201.29642 58.995644 207.06577 55.456837Q212.83513 51.91803 218.73039 48.593182Q224.62564 45.268326 230.63887 42.1619Q236.6521 39.055477 242.77521 36.171658Q248.89827 33.287834 255.12299 30.630497Q261.34772 27.97316 267.66571 25.545879Q273.9837 23.118599 280.38647 20.924643Q286.78922 18.730686 293.26813 16.773008Q299.74701 14.815327 306.29333 13.096556Q312.83966 11.377784 319.44461 9.9002342Q326.04956 8.4226837 332.70428 7.1883426Q339.35898 5.9540014 346.05447 4.9645305Q352.74994 3.9750586 359.4772 3.2317877Q366.20447 2.4885166 372.95447 1.9924461Q379.70444 1.4963756 386.46808 1.248173Q393.23175 0.99997032 400 0.99996948L400 370L400 370L400 370L663.177 111.35187Z"/><path fill="none" stroke="white" stroke-width="2" stroke-linejoin="bevel" d="M663.177 111.35187Q669.52649 117.8125 675.55127 124.5769Q681.57605 131.34131 687.26172 138.39319Q692.94727 145.44507 698.28003 152.76744Q703.61279 160.0898 708.57983 167.66501Q713.54688 175.2402 718.13623 183.05002Q722.72559 190.85983 726.92627 198.88544Q731.12683 206.91101 734.92859 215.13306Q738.73035 223.35507 742.12415 231.75375Q745.51788 240.15244 748.49548 248.70752Q751.47308 257.2626 754.02734 265.95349Q756.58154 274.64435 758.70618 283.45007Q760.83081 292.2558 762.52087 301.15521Q764.21094 310.0546 765.46228 319.02621Q766.71362 327.9978 767.52325 337.02002Q768.33282 346.04218 768.69873 355.09323Q769.0647 364.14429 768.98608 373.20239Q768.90747 382.2605 768.38452 391.3038Q767.86157 400.34717 766.89545 409.35394Q765.92932 418.36069 764.52246 427.3092Q763.1156 436.25772 761.2713 445.12643Q759.42706 453.99515 757.1499 462.7627Q754.87268 471.53024 752.16809 480.17551Q749.46338 488.82074 746.33783 497.32285Q743.21216 505.82495 739.67316 514.16345Q736.13416 522.50195 732.19025 530.6568Q728.24634 538.81165 723.9071 546.76312Q719.56775 554.7146 714.84351 562.44348Q710.11932 570.17249 705.02155 577.66034Q699.92377 585.14819 694.46472 592.37695Q689.00568 599.60571 683.19855 606.55786Q677.39136 613.50995 671.25006 620.16876Q665.10876 626.82751 658.64813 633.177Q653.82086 637.92114 648.82294 642.48499Q643.82495 647.04895 638.66309 651.42651Q633.5011 655.80408 628.18213 659.98938Q622.86316 664.17474 617.39429 668.16223Q611.92535 672.14966 606.31384 675.93384Q600.70239 679.71802 594.95599 683.29395Q589.20953 686.86981 583.33582 690.2326Q577.46216 693.59534 571.46906 696.74048Q565.47595 699.8855 559.37152 702.80872Q553.26715 705.73187 547.05969 708.42926Q540.85217 711.12659 534.54999 713.59454Q528.2478 716.0625 521.85931 718.29767Q515.47076 720.53278 509.00464 722.5321Q502.53845 724.53149 496.00336 726.29236Q489.46823 728.05322 482.87292 729.5733Q476.27765 731.09338 469.63104 732.37061Q462.98441 733.64777 456.29541 734.6803Q449.60645 735.71289 442.88409 736.49945Q436.16174 737.28601 429.41504 737.82556Q422.6684 738.36511 415.90652 738.65692Q409.14459 738.94861 402.37653 738.99225Q395.60846 739.03589 388.84335 738.8313Q382.07825 738.62659 375.3252 738.17407Q368.57214 737.72144 361.84024 737.02161Q355.10831 736.32166 348.40656 735.37531Q341.70483 734.42896 335.04236 733.23755Q328.37982 732.04602 321.7655 730.61108Q315.15115 729.17603 308.5939 727.49951Q302.03662 725.82288 295.54523 723.90698Q289.05383 721.99103 282.63712 719.83838Q276.22037 717.68567 269.8869 715.29913Q263.55341 712.91266 257.31171 710.29553Q248.95792 706.79272 240.78607 702.88428Q232.61423 698.97583 224.64401 694.67102Q216.67377 690.36627 208.92436 685.6756Q201.17496 680.98492 193.66504 675.91968Q186.15514 670.85443 178.90282 665.42682Q171.65051 659.99921 164.67325 654.22229Q157.69598 648.44531 151.01057 642.33301Q144.32518 636.22058 137.94775 629.7876Q131.57033 623.35461 125.51624 616.61639Q119.46214 609.87817 113.74597 602.85107Q108.0298 595.82391 102.66531 588.52478Q97.300827 581.22559 92.300957 573.67206Q87.301086 566.11853 82.677887 558.32874Q78.054672 550.53888 73.819267 542.53162Q69.583847 534.52429 65.746437 526.31885Q61.909023 518.1134 58.478859 509.72952Q55.048695 501.34564 52.034039 492.80359Q49.019379 484.26151 46.427494 475.58179Q43.835606 466.90207 41.672733 458.10562Q39.509861 449.30917 37.781216 440.41718Q36.052574 431.52521 34.762321 422.55914Q33.472065 413.59308 32.62331 404.57449Q31.774553 395.55591 31.369341 386.50653Q30.96413 377.45715 31.003437 368.3988Q31.042744 359.34045 31.526478 350.29492Q32.010212 341.24945 32.937206 332.23859Q33.864197 323.22766 35.232216 314.27313Q36.600235 305.3186 38.405983 296.44196Q40.211731 287.56531 42.450863 278.78799Q44.689995 270.01065 47.357109 261.35376Q50.024223 252.69687 53.1129 244.18126Q56.201576 235.66565 59.704376 227.31186Q62.321564 221.07013 65.165886 214.92859Q68.010208 208.78705 71.077843 202.75397Q74.145477 196.72086 77.432289 190.80432Q80.719101 184.88777 84.22068 179.09575Q87.722252 173.30371 91.433868 167.64398Q95.145493 161.98425 99.062164 156.46445Q102.97884 150.94464 107.09531 145.57217Q111.21177 140.19972 115.52248 134.98184Q119.83318 129.76393 124.33234 124.70763Q128.8315 119.65132 133.51306 114.76341Q138.19461 109.8755 143.05226 105.16255Q147.90991 100.44962 152.93715 95.917984Q157.96436 91.386353 163.15437 87.042122Q168.34439 82.697891 173.69025 78.546913Q179.03607 74.395927 184.53055 70.443779Q190.02502 66.491638 195.66074 62.743645Q201.29642 58.995644 207.06577 55.456837Q212.83513 51.91803 218.73039 48.593182Q224.62564 45.268326 230.63887 42.1619Q236.6521 39.055477 242.77521 36.171658Q248.89827 33.287834 255.12299 30.630497Q261.34772 27.97316 267.66571 25.545879Q273.9837 23.118599 280.38647 20.924643Q286.78922 18.730686 293.26813 16.773008Q299.74701 14.815327 306.29333 13.096556Q312.83966 11.377784 319.44461 9.9002342Q326.04956 8.4226837 332.70428 7.1883426Q339.35898 5.9540014 346.05447 4.9645305Q352.74994 3.9750586 359.4772 3.2317877Q366.20447 2.4885166 372.95447 1.9924461Q379.70444 1.4963756 386.46808 1.248173Q393.23175 0.99997032 400 0.99996948L400 370L400 370L400 370L663.177 111.35187Z"/></svg>