<svg xmlns="http://www.w3.org/2000/svg" width="800" height="800"><path fill="none" d="M0 0h800v800H0z"/><clipPath id="a"><path d="M0 740h800v60H0z"/></clipPath><g clip-path="url(#a)"><path fill="#4caf50" d="M164.745 770h40v20h-40z"/><path fill="none" stroke="#fff" stroke-miterlimit="10" stroke-width="2" d="M164.745 770h40v20h-40z"/><text x="214.745, 226.2196, 232.87976, 244.00281, 254.00281, 259.55945, 270.6825," y="786.5," fill="#666" font-family="Liberation Sans" font-size="20">Trusted</text><path fill="#ff9800" d="M311.805 770h40v20h-40z"/><path fill="none" stroke="#fff" stroke-miterlimit="10" stroke-width="2" d="M311.805 770h40v20h-40z"/><text x="361.80499, 375.14484, 381.80499, 392.92804, 402.92804, 414.05109, 425.17413, 436.29718, 447.42023, 457.42023," y="786.5," fill="#666" font-family="Liberation Sans" font-size="20">Provenance</text><path fill="#f44336" d="M498.545 770h40v20h-40z"/><path fill="none" stroke="#fff" stroke-miterlimit="10" stroke-width="2" d="M498.545 770h40v20h-40z"/><text x="548.54498, 562.98834, 574.11139, 579.66803, 586.32819, 597.45123, 607.45123, 613.00787, 624.13092," y="786.5," fill="#666" font-family="Liberation Sans" font-size="20">Untrusted</text></g><path fill="#4caf50" d="M400 1q5.741 0 11.48.179 5.738.178 11.468.535t11.446.892q5.716.536 11.413 1.248 5.697.713 11.369 1.603t11.313 1.955 11.247 2.306 11.17 2.655 11.081 3.001 10.983 3.345 10.874 3.684 10.754 4.021q5.345 2.094 10.623 4.354t10.483 4.682 10.332 5.006 10.172 5.324 10 5.64q4.957 2.896 9.821 5.946t9.63 6.25q4.768 3.2 9.433 6.546t9.223 6.837 9.007 7.12 8.78 7.397 8.546 7.667q4.214 3.9 8.304 7.929t8.052 8.183 7.795 8.43 7.528 8.668 7.255 8.898 6.975 9.12q3.416 4.614 6.687 9.332t6.394 9.535L400 370z"/><path fill="none" stroke="#fff" stroke-linejoin="bevel" stroke-width="2" d="M400 1q5.741 0 11.48.179 5.738.178 11.468.535t11.446.892q5.716.536 11.413 1.248 5.697.713 11.369 1.603t11.313 1.955 11.247 2.306 11.17 2.655 11.081 3.001 10.983 3.345 10.874 3.684 10.754 4.021q5.345 2.094 10.623 4.354t10.483 4.682 10.332 5.006 10.172 5.324 10 5.64q4.957 2.896 9.821 5.946t9.63 6.25q4.768 3.2 9.433 6.546t9.223 6.837 9.007 7.12 8.78 7.397 8.546 7.667q4.214 3.9 8.304 7.929t8.052 8.183 7.795 8.43 7.528 8.668 7.255 8.898 6.975 9.12q3.416 4.614 6.687 9.332t6.394 9.535L400 370z"/><path fill="#ff9800" d="M709.638 169.288q10.527 16.24 19.297 33.491t15.688 35.326L400 370z"/><path fill="none" stroke="#fff" stroke-linejoin="bevel" stroke-width="2" d="M709.638 169.288q10.527 16.24 19.297 33.491t15.688 35.326L400 370l309.638-200.712Z"/><path fill="#f44336" d="M744.623 238.105q3.237 8.46 6.056 17.069t5.212 17.345 4.355 17.58q1.96 8.844 3.486 17.773 1.525 8.929 2.61 17.922 1.086 8.993 1.728 18.029.643 9.036.841 18.092.199 9.056-.047 18.111t-.937 18.087-1.822 18.02-2.705 17.908-3.58 17.754-4.447 17.557-5.303 17.318-6.146 17.036q-3.283 8.443-6.975 16.715-3.693 8.272-7.787 16.352t-8.58 15.95-9.352 15.51-10.101 15.033-10.827 14.519-11.527 13.97-12.198 13.388-12.84 12.773q-6.578 6.228-13.452 12.127-6.875 5.899-14.03 11.453-7.156 5.554-14.576 10.75-7.42 5.197-15.086 10.023t-15.559 9.27-15.995 8.496q-8.102 4.052-16.393 7.7-8.29 3.65-16.75 6.888-5.215 1.995-10.486 3.832t-10.597 3.513q-5.325 1.676-10.698 3.191t-10.79 2.866-10.87 2.538-10.943 2.209-11.005 1.876-11.057 1.542-11.098 1.208-11.13.87q-5.571.352-11.15.535-5.58.182-11.163.196-5.582.014-11.162-.141-5.58-.156-11.154-.48t-11.134-.816q-5.56-.492-11.104-1.152t-11.064-1.488-11.014-1.822q-5.493-.994-10.954-2.154-5.46-1.16-10.883-2.485t-10.804-2.813-10.713-3.138-10.614-3.461-10.504-3.78q-5.223-1.97-10.385-4.097-5.161-2.127-10.256-4.409t-10.118-4.717q-5.024-2.435-9.971-5.02-4.948-2.586-9.815-5.32t-9.649-5.615-9.474-5.904-9.292-6.188q-7.463-5.135-14.665-10.63-7.201-5.494-14.125-11.335t-13.552-12.015q-6.629-6.174-12.946-12.666t-12.31-13.285-11.642-13.874-10.948-14.428-10.226-14.948-9.481-15.432-8.712-15.878-7.923-16.287-7.114-16.656-6.288-16.985-5.447-17.272-4.593-17.52-3.727-17.724q-1.647-8.907-2.854-17.885-1.207-8.977-1.973-18.003-.765-9.026-1.087-18.08-.321-9.052-.198-18.11t.69-18.098 1.578-18.042 2.461-17.944q1.45-8.941 3.339-17.8 1.887-8.86 4.208-17.617 2.32-8.756 5.067-17.388t5.914-17.118 6.747-16.808 7.564-16.456 8.362-16.066 9.14-15.636q4.763-7.705 9.897-15.168 3.165-4.6 6.467-9.1 3.301-4.502 6.738-8.901 3.437-4.4 7.005-8.693t7.264-8.477q3.696-4.183 7.518-8.253 3.82-4.07 7.763-8.022t8.003-7.783 8.235-7.538q4.174-3.707 8.459-7.285t8.675-7.026 8.884-6.76q4.493-3.314 9.084-6.49 4.592-3.175 9.277-6.21t9.46-5.927 9.635-5.639 9.801-5.344 9.959-5.046 10.106-4.741q5.09-2.295 10.246-4.434t10.375-4.123q5.218-1.982 10.494-3.806 5.277-1.824 10.605-3.487 5.33-1.663 10.706-3.165 5.377-1.501 10.797-2.839t10.877-2.512 10.949-2.18 11.01-1.85 11.06-1.515 11.1-1.18 11.132-.844 11.153-.506T400 1v369z"/><path fill="none" stroke="#fff" stroke-linejoin="bevel" stroke-width="2" d="M744.623 238.105q3.237 8.46 6.056 17.069t5.212 17.345 4.355 17.58q1.96 8.844 3.486 17.773 1.525 8.929 2.61 17.922 1.086 8.993 1.728 18.029.643 9.036.841 18.092.199 9.056-.047 18.111t-.937 18.087-1.822 18.02-2.705 17.908-3.58 17.754-4.447 17.557-5.303 17.318-6.146 17.036q-3.283 8.443-6.975 16.715-3.693 8.272-7.787 16.352t-8.58 15.95-9.352 15.51-10.101 15.033-10.827 14.519-11.527 13.97-12.198 13.388-12.84 12.773q-6.578 6.228-13.452 12.127-6.875 5.899-14.03 11.453-7.156 5.554-14.576 10.75-7.42 5.197-15.086 10.023t-15.559 9.27-15.995 8.496q-8.102 4.052-16.393 7.7-8.29 3.65-16.75 6.888-5.215 1.995-10.486 3.832t-10.597 3.513q-5.325 1.676-10.698 3.191t-10.79 2.866-10.87 2.538-10.943 2.209-11.005 1.876-11.057 1.542-11.098 1.208-11.13.87q-5.571.352-11.15.535-5.58.182-11.163.196-5.582.014-11.162-.141-5.58-.156-11.154-.48t-11.134-.816q-5.56-.492-11.104-1.152t-11.064-1.488-11.014-1.822q-5.493-.994-10.954-2.154-5.46-1.16-10.883-2.485t-10.804-2.813-10.713-3.138-10.614-3.461-10.504-3.78q-5.223-1.97-10.385-4.097-5.161-2.127-10.256-4.409t-10.118-4.717q-5.024-2.435-9.971-5.02-4.948-2.586-9.815-5.32t-9.649-5.615-9.474-5.904-9.292-6.188q-7.463-5.135-14.665-10.63-7.201-5.494-14.125-11.335t-13.552-12.015q-6.629-6.174-12.946-12.666t-12.31-13.285-11.642-13.874-10.948-14.428-10.226-14.948-9.481-15.432-8.712-15.878-7.923-16.287-7.114-16.656-6.288-16.985-5.447-17.272-4.593-17.52-3.727-17.724q-1.647-8.907-2.854-17.885-1.207-8.977-1.973-18.003-.765-9.026-1.087-18.08-.321-9.052-.198-18.11t.69-18.098 1.578-18.042 2.461-17.944q1.45-8.941 3.339-17.8 1.887-8.86 4.208-17.617 2.32-8.756 5.067-17.388t5.914-17.118 6.747-16.808 7.564-16.456 8.362-16.066 9.14-15.636q4.763-7.705 9.897-15.168 3.165-4.6 6.467-9.1 3.301-4.502 6.738-8.901 3.437-4.4 7.005-8.693t7.264-8.477q3.696-4.183 7.518-8.253 3.82-4.07 7.763-8.022t8.003-7.783 8.235-7.538q4.174-3.707 8.459-7.285t8.675-7.026 8.884-6.76q4.493-3.314 9.084-6.49 4.592-3.175 9.277-6.21t9.46-5.927 9.635-5.639 9.801-5.344 9.959-5.046 10.106-4.741q5.09-2.295 10.246-4.434t10.375-4.123q5.218-1.982 10.494-3.806 5.277-1.824 10.605-3.487 5.33-1.663 10.706-3.165 5.377-1.501 10.797-2.839t10.877-2.512 10.949-2.18 11.01-1.85 11.06-1.515 11.1-1.18 11.132-.844 11.153-.506T400 1v369l344.622-131.895Z"/></svg>