<svg xmlns="http://www.w3.org/2000/svg" width="800" height="800"><path fill="none" d="M0 0h800v800H0z"/><clipPath id="a"><path d="M0 740h800v60H0z"/></clipPath><g clip-path="url(#a)"><path fill="#4caf50" d="M164.745 770h40v20h-40z"/><path fill="none" stroke="#fff" stroke-miterlimit="10" stroke-width="2" d="M164.745 770h40v20h-40z"/><text x="214.745, 226.2196, 232.87976, 244.00281, 254.00281, 259.55945, 270.6825," y="786.5," fill="#666" font-family="Liberation Sans" font-size="20">Trusted</text><path fill="#ff9800" d="M311.805 770h40v20h-40z"/><path fill="none" stroke="#fff" stroke-miterlimit="10" stroke-width="2" d="M311.805 770h40v20h-40z"/><text x="361.80499, 375.14484, 381.80499, 392.92804, 402.92804, 414.05109, 425.17413, 436.29718, 447.42023, 457.42023," y="786.5," fill="#666" font-family="Liberation Sans" font-size="20">Provenance</text><path fill="#f44336" d="M498.545 770h40v20h-40z"/><path fill="none" stroke="#fff" stroke-miterlimit="10" stroke-width="2" d="M498.545 770h40v20h-40z"/><text x="548.54498, 562.98834, 574.11139, 579.66803, 586.32819, 597.45123, 607.45123, 613.00787, 624.13092," y="786.5," fill="#666" font-family="Liberation Sans" font-size="20">Untrusted</text></g><path fill="#4caf50" d="M400 1q5.342 0 10.682.155 5.34.154 10.674.464 5.333.309 10.655.772 5.322.464 10.629 1.08 5.307.618 10.593 1.389 5.286.77 10.548 1.694t10.495 1.999 10.433 2.302q5.2 1.226 10.361 2.602 5.162 1.377 10.282 2.902t10.194 3.198 10.097 3.492q5.023 1.82 9.991 3.783 4.968 1.964 9.878 4.07t9.756 4.355 9.625 4.635 9.487 4.912q4.709 2.525 9.342 5.185t9.187 5.452 9.025 5.717q4.472 2.923 8.857 5.975t8.68 6.23q4.294 3.177 8.495 6.477t8.304 6.721q4.104 3.421 8.107 6.96 4.002 3.537 7.901 7.19 3.899 3.652 7.69 7.416t7.472 7.636 7.248 7.848 7.018 8.056 6.782 8.255 6.54 8.448L400 370z"/><path fill="none" stroke="#fff" stroke-linejoin="bevel" stroke-width="2" d="M400 1q5.342 0 10.682.155 5.34.154 10.674.464 5.333.309 10.655.772 5.322.464 10.629 1.08 5.307.618 10.593 1.389 5.286.77 10.548 1.694t10.495 1.999 10.433 2.302q5.2 1.226 10.361 2.602 5.162 1.377 10.282 2.902t10.194 3.198 10.097 3.492q5.023 1.82 9.991 3.783 4.968 1.964 9.878 4.07t9.756 4.355 9.625 4.635 9.487 4.912q4.709 2.525 9.342 5.185t9.187 5.452 9.025 5.717q4.472 2.923 8.857 5.975t8.68 6.23q4.294 3.177 8.495 6.477t8.304 6.721q4.104 3.421 8.107 6.96 4.002 3.537 7.901 7.19 3.899 3.652 7.69 7.416t7.472 7.636 7.248 7.848 7.018 8.056 6.782 8.255 6.54 8.448L400 370z"/><path fill="#ff9800" d="M695.027 148.37q13.007 17.314 23.899 36.03t19.52 38.58L400 370z"/><path fill="none" stroke="#fff" stroke-linejoin="bevel" stroke-width="2" d="M695.027 148.37q13.007 17.314 23.899 36.03t19.52 38.58L400 370l295.027-221.63Z"/><path fill="#f44336" d="M738.446 222.98q3.61 8.308 6.807 16.783t5.974 17.098 5.128 17.37 4.27 17.6q1.92 8.854 3.402 17.79t2.524 17.935q1.042 8.998 1.64 18.037.6 9.038.755 18.095t-.135 18.111q-.29 9.054-1.023 18.083-.734 9.028-1.91 18.01t-2.79 17.895q-1.615 8.914-3.665 17.737t-4.532 17.536-5.386 17.291-6.228 17.007-7.055 16.681-7.865 16.315q-4.133 8.06-8.657 15.908-4.523 7.849-9.426 15.465-4.903 7.617-10.174 14.984-5.27 7.367-10.897 14.467-5.626 7.1-11.593 13.914-5.968 6.815-12.263 13.33-6.295 6.513-12.901 12.71-6.607 6.197-13.51 12.063T624.85 662.58t-14.627 10.68q-7.444 5.162-15.133 9.95-7.69 4.79-15.604 9.196t-16.036 8.419q-8.12 4.012-16.43 7.621-5.237 2.275-10.542 4.387t-10.673 4.06-10.794 3.726-10.904 3.39-11.003 3.052-11.093 2.71q-5.568 1.269-11.171 2.365-5.604 1.096-11.24 2.019-5.635.922-11.296 1.67t-11.342 1.32-11.378.967-11.402.615-11.416.263-11.419-.091-11.41-.445-11.391-.797q-5.69-.487-11.361-1.15t-11.32-1.5-11.268-1.85-11.206-2.197-11.132-2.543-11.048-2.887-10.954-3.227-10.848-3.564-10.733-3.899-10.607-4.228-10.471-4.555-10.326-4.876q-5.125-2.519-10.17-5.194-5.044-2.676-10.003-5.506t-9.829-5.813q-4.87-2.982-9.644-6.114-7.575-4.968-14.896-10.301t-14.373-11.02-13.815-11.713-13.223-12.376-12.6-13.01-11.947-13.612-11.265-14.182-10.555-14.718-9.82-15.218-9.061-15.682-8.282-16.107-7.48-16.494q-3.538-8.34-6.663-16.842-3.124-8.502-5.828-17.148t-4.98-17.413-4.119-17.637-3.249-17.818-2.37-17.955-1.487-18.05-.6-18.102q-.077-9.058.29-18.11.367-9.05 1.178-18.072t2.063-17.994 2.944-17.87q1.69-8.9 3.817-17.705 2.125-8.805 4.68-17.496 2.556-8.69 5.535-17.245t6.373-16.953 7.198-16.62 8.004-16.247 8.792-15.834 9.559-15.384q3.131-4.775 6.41-9.45 3.277-4.676 6.698-9.248t6.982-9.035 7.258-8.816q3.697-4.352 7.527-8.587t7.79-8.35 8.044-8.104 8.291-7.852 8.53-7.591 8.76-7.324q4.438-3.594 8.984-7.05t9.197-6.768 9.402-6.48 9.598-6.186 9.785-5.886q4.938-2.868 9.963-5.581t10.13-5.27q5.106-2.556 10.288-4.954t10.437-4.633 10.575-4.308 10.704-3.978 10.821-3.646 10.929-3.309 11.026-2.969 11.113-2.627 11.189-2.281 11.254-1.934 11.308-1.585 11.352-1.235q5.685-.53 11.385-.882 5.699-.354 11.406-.53T400 1v369z"/><path fill="none" stroke="#fff" stroke-linejoin="bevel" stroke-width="2" d="M738.446 222.98q3.61 8.308 6.807 16.783t5.974 17.098 5.128 17.37 4.27 17.6q1.92 8.854 3.402 17.79t2.524 17.935q1.042 8.998 1.64 18.037.6 9.038.755 18.095t-.135 18.111q-.29 9.054-1.023 18.083-.734 9.028-1.91 18.01t-2.79 17.895q-1.615 8.914-3.665 17.737t-4.532 17.536-5.386 17.291-6.228 17.007-7.055 16.681-7.865 16.315q-4.133 8.06-8.657 15.908-4.523 7.849-9.426 15.465-4.903 7.617-10.174 14.984-5.27 7.367-10.897 14.467-5.626 7.1-11.593 13.914-5.968 6.815-12.263 13.33-6.295 6.513-12.901 12.71-6.607 6.197-13.51 12.063T624.85 662.58t-14.627 10.68q-7.444 5.162-15.133 9.95-7.69 4.79-15.604 9.196t-16.036 8.419q-8.12 4.012-16.43 7.621-5.237 2.275-10.542 4.387t-10.673 4.06-10.794 3.726-10.904 3.39-11.003 3.052-11.093 2.71q-5.568 1.269-11.171 2.365-5.604 1.096-11.24 2.019-5.635.922-11.296 1.67t-11.342 1.32-11.378.967-11.402.615-11.416.263-11.419-.091-11.41-.445-11.391-.797q-5.69-.487-11.361-1.15t-11.32-1.5-11.268-1.85-11.206-2.197-11.132-2.543-11.048-2.887-10.954-3.227-10.848-3.564-10.733-3.899-10.607-4.228-10.471-4.555-10.326-4.876q-5.125-2.519-10.17-5.194-5.044-2.676-10.003-5.506t-9.829-5.813q-4.87-2.982-9.644-6.114-7.575-4.968-14.896-10.301t-14.373-11.02-13.815-11.713-13.223-12.376-12.6-13.01-11.947-13.612-11.265-14.182-10.555-14.718-9.82-15.218-9.061-15.682-8.282-16.107-7.48-16.494q-3.538-8.34-6.663-16.842-3.124-8.502-5.828-17.148t-4.98-17.413-4.119-17.637-3.249-17.818-2.37-17.955-1.487-18.05-.6-18.102q-.077-9.058.29-18.11.367-9.05 1.178-18.072t2.063-17.994 2.944-17.87q1.69-8.9 3.817-17.705 2.125-8.805 4.68-17.496 2.556-8.69 5.535-17.245t6.373-16.953 7.198-16.62 8.004-16.247 8.792-15.834 9.559-15.384q3.131-4.775 6.41-9.45 3.277-4.676 6.698-9.248t6.982-9.035 7.258-8.816q3.697-4.352 7.527-8.587t7.79-8.35 8.044-8.104 8.291-7.852 8.53-7.591 8.76-7.324q4.438-3.594 8.984-7.05t9.197-6.768 9.402-6.48 9.598-6.186 9.785-5.886q4.938-2.868 9.963-5.581t10.13-5.27q5.106-2.556 10.288-4.954t10.437-4.633 10.575-4.308 10.704-3.978 10.821-3.646 10.929-3.309 11.026-2.969 11.113-2.627 11.189-2.281 11.254-1.934 11.308-1.585 11.352-1.235q5.685-.53 11.385-.882 5.699-.354 11.406-.53T400 1v369l338.446-147.02Z"/></svg>