<svg xmlns="http://www.w3.org/2000/svg" width="800" height="800"><path fill="none" d="M0 0h800v800H0z"/><clipPath id="a"><path d="M0 690h800v110H0z"/></clipPath><g clip-path="url(#a)"><path fill="#4caf50" d="M123.3 720h40v20h-40z"/><path fill="none" stroke="#fff" stroke-miterlimit="10" stroke-width="2" d="M123.3 720h40v20h-40z"/><path fill="#ff9800" d="M377.64 720h40v20h-40z"/><path fill="none" stroke="#fff" stroke-miterlimit="10" stroke-width="2" d="M377.64 720h40v20h-40z"/><path fill="#f44336" d="M262.92 770h40v20h-40z"/><path fill="none" stroke="#fff" stroke-miterlimit="10" stroke-width="2" d="M262.92 770h40v20h-40z"/></g><path fill="#4caf50" d="M400 1q8.37 0 16.731.407 8.36.407 16.691 1.22 8.331.814 16.613 2.031t16.494 2.836 16.336 3.636 16.14 4.425 15.906 5.205 15.634 5.973q7.744 3.176 15.325 6.726t14.98 7.463 14.599 8.183 14.183 8.884 13.735 9.562 13.254 10.22 12.74 10.852q6.239 5.58 12.198 11.458L400 345z"/><path fill="none" stroke="#fff" stroke-linejoin="bevel" stroke-width="2" d="M400 1q8.37 0 16.731.407 8.36.407 16.691 1.22 8.331.814 16.613 2.031t16.494 2.836 16.336 3.636 16.14 4.425 15.906 5.205 15.634 5.973q7.744 3.176 15.325 6.726t14.98 7.463 14.599 8.183 14.183 8.884 13.735 9.562 13.254 10.22 12.74 10.852q6.239 5.58 12.198 11.458L400 345z"/><path fill="#ff9800" d="M641.56 100.081q16.213 15.992 30.177 33.98 13.964 17.99 25.435 37.663L400 345z"/><path fill="none" stroke="#fff" stroke-linejoin="bevel" stroke-width="2" d="M641.56 100.081q16.213 15.992 30.177 33.98 13.964 17.99 25.435 37.663L400 345l241.56-244.919Z"/><path fill="#f44336" d="M697.172 171.724q4.254 7.295 8.145 14.79 3.89 7.496 7.408 15.173t6.656 15.517q3.137 7.84 5.886 15.825t5.102 16.095 4.307 16.326q1.952 8.216 3.5 16.518 1.547 8.301 2.685 16.669t1.865 16.781q.726 8.414 1.038 16.852.313 8.44.21 16.884-.101 8.444-.617 16.873t-1.446 16.822-2.269 16.731-3.087 16.6-3.898 16.428q-2.15 8.166-4.7 16.217-2.548 8.051-5.489 15.967t-6.266 15.679q-3.326 7.762-7.028 15.352-3.703 7.59-7.773 14.989t-8.5 14.59q-4.428 7.19-9.204 14.154t-9.888 13.686-10.548 13.184q-5.435 6.463-11.182 12.651-5.746 6.188-11.789 12.087t-12.368 11.494-12.917 10.873-13.435 10.227q-6.844 4.948-13.921 9.554-7.078 4.607-14.373 8.86-4.873 2.842-9.836 5.522-4.964 2.68-10.012 5.196-5.049 2.516-10.177 4.864-5.129 2.35-10.331 4.529-5.203 2.18-10.474 4.187-5.272 2.008-10.606 3.842t-10.726 3.492q-5.391 1.658-10.834 3.138t-10.932 2.782q-5.488 1.3-11.017 2.421t-11.09 2.06-11.152 1.693-11.202 1.328-11.239.96q-5.627.388-11.264.591t-11.278.221-11.279-.148-11.268-.519-11.245-.887-11.21-1.256-11.162-1.623-11.103-1.987-11.033-2.351-10.949-2.711-10.855-3.069-10.748-3.423q-5.346-1.799-10.63-3.773t-10.5-4.12-10.36-4.462-10.208-4.799-10.045-5.131-9.872-5.458q-7.322-4.207-14.43-8.768-7.107-4.56-13.981-9.465-6.875-4.904-13.501-10.14-6.626-5.235-12.987-10.79t-12.442-11.414-11.867-12.01-11.263-12.58-10.632-13.116q-5.155-6.688-9.976-13.622-4.82-6.933-9.295-14.095t-8.593-14.534-7.87-14.939q-3.75-7.566-7.126-15.306-3.376-7.741-6.367-15.638t-5.592-15.931q-2.6-8.035-4.804-16.187-2.203-8.152-4.003-16.403t-3.194-16.58-2.377-16.716-1.553-16.813-.727-16.868.102-16.884.93-16.859 1.756-16.793 2.579-16.686 3.394-16.54 4.201-16.353 4.999-16.128 5.784-15.862 6.555-15.56 7.311-15.22 8.05-14.842q2.81-4.891 5.778-9.687 2.969-4.797 6.093-9.493t6.401-9.288q3.277-4.591 6.702-9.073 3.426-4.481 6.996-8.848t7.282-8.614q3.712-4.248 7.561-8.37 3.85-4.124 7.831-8.12 3.983-3.994 8.094-7.857t8.346-7.587q4.236-3.726 8.59-7.31 4.356-3.585 8.827-7.025 4.47-3.44 9.05-6.731 4.582-3.291 9.268-6.43 4.686-3.14 9.473-6.124 4.787-2.985 9.669-5.81 4.882-2.826 9.854-5.49t10.028-5.163 10.193-4.832 10.345-4.496q5.21-2.162 10.488-4.153t10.618-3.808q5.34-1.817 10.737-3.457t10.844-3.104 10.94-2.746 11.025-2.386 11.097-2.024 11.158-1.658 11.205-1.292 11.242-.923 11.267-.555Q394.359 1 400 1v344z"/><path fill="none" stroke="#fff" stroke-linejoin="bevel" stroke-width="2" d="M697.172 171.724q4.254 7.295 8.145 14.79 3.89 7.496 7.408 15.173t6.656 15.517q3.137 7.84 5.886 15.825t5.102 16.095 4.307 16.326q1.952 8.216 3.5 16.518 1.547 8.301 2.685 16.669t1.865 16.781q.726 8.414 1.038 16.852.313 8.44.21 16.884-.101 8.444-.617 16.873t-1.446 16.822-2.269 16.731-3.087 16.6-3.898 16.428q-2.15 8.166-4.7 16.217-2.548 8.051-5.489 15.967t-6.266 15.679q-3.326 7.762-7.028 15.352-3.703 7.59-7.773 14.989t-8.5 14.59q-4.428 7.19-9.204 14.154t-9.888 13.686-10.548 13.184q-5.435 6.463-11.182 12.651-5.746 6.188-11.789 12.087t-12.368 11.494-12.917 10.873-13.435 10.227q-6.844 4.948-13.921 9.554-7.078 4.607-14.373 8.86-4.873 2.842-9.836 5.522-4.964 2.68-10.012 5.196-5.049 2.516-10.177 4.864-5.129 2.35-10.331 4.529-5.203 2.18-10.474 4.187-5.272 2.008-10.606 3.842t-10.726 3.492q-5.391 1.658-10.834 3.138t-10.932 2.782q-5.488 1.3-11.017 2.421t-11.09 2.06-11.152 1.693-11.202 1.328-11.239.96q-5.627.388-11.264.591t-11.278.221-11.279-.148-11.268-.519-11.245-.887-11.21-1.256-11.162-1.623-11.103-1.987-11.033-2.351-10.949-2.711-10.855-3.069-10.748-3.423q-5.346-1.799-10.63-3.773t-10.5-4.12-10.36-4.462-10.208-4.799-10.045-5.131-9.872-5.458q-7.322-4.207-14.43-8.768-7.107-4.56-13.981-9.465-6.875-4.904-13.501-10.14-6.626-5.235-12.987-10.79t-12.442-11.414-11.867-12.01-11.263-12.58-10.632-13.116q-5.155-6.688-9.976-13.622-4.82-6.933-9.295-14.095t-8.593-14.534-7.87-14.939q-3.75-7.566-7.126-15.306-3.376-7.741-6.367-15.638t-5.592-15.931q-2.6-8.035-4.804-16.187-2.203-8.152-4.003-16.403t-3.194-16.58-2.377-16.716-1.553-16.813-.727-16.868.102-16.884.93-16.859 1.756-16.793 2.579-16.686 3.394-16.54 4.201-16.353 4.999-16.128 5.784-15.862 6.555-15.56 7.311-15.22 8.05-14.842q2.81-4.891 5.778-9.687 2.969-4.797 6.093-9.493t6.401-9.288q3.277-4.591 6.702-9.073 3.426-4.481 6.996-8.848t7.282-8.614q3.712-4.248 7.561-8.37 3.85-4.124 7.831-8.12 3.983-3.994 8.094-7.857t8.346-7.587q4.236-3.726 8.59-7.31 4.356-3.585 8.827-7.025 4.47-3.44 9.05-6.731 4.582-3.291 9.268-6.43 4.686-3.14 9.473-6.124 4.787-2.985 9.669-5.81 4.882-2.826 9.854-5.49t10.028-5.163 10.193-4.832 10.345-4.496q5.21-2.162 10.488-4.153t10.618-3.808q5.34-1.817 10.737-3.457t10.844-3.104 10.94-2.746 11.025-2.386 11.097-2.024 11.158-1.658 11.205-1.292 11.242-.923 11.267-.555Q394.359 1 400 1v344l297.173-173.276Z"/></svg>