<svg xmlns="http://www.w3.org/2000/svg" width="800" height="800"><path fill="none" d="M0 0h800v800H0z"/><clipPath id="a"><path d="M0 740h800v60H0z"/></clipPath><g clip-path="url(#a)"><path fill="#4caf50" d="M164.745 770h40v20h-40z"/><path fill="none" stroke="#fff" stroke-miterlimit="10" stroke-width="2" d="M164.745 770h40v20h-40z"/><text x="214.745, 226.2196, 232.87976, 244.00281, 254.00281, 259.55945, 270.6825," y="786.5," fill="#666" font-family="Liberation Sans" font-size="20">Trusted</text><path fill="#ff9800" d="M311.805 770h40v20h-40z"/><path fill="none" stroke="#fff" stroke-miterlimit="10" stroke-width="2" d="M311.805 770h40v20h-40z"/><text x="361.80499, 375.14484, 381.80499, 392.92804, 402.92804, 414.05109, 425.17413, 436.29718, 447.42023, 457.42023," y="786.5," fill="#666" font-family="Liberation Sans" font-size="20">Provenance</text><path fill="#f44336" d="M498.545 770h40v20h-40z"/><path fill="none" stroke="#fff" stroke-miterlimit="10" stroke-width="2" d="M498.545 770h40v20h-40z"/><text x="548.54498, 562.98834, 574.11139, 579.66803, 586.32819, 597.45123, 607.45123, 613.00787, 624.13092," y="786.5," fill="#666" font-family="Liberation Sans" font-size="20">Untrusted</text></g><path fill="#4caf50" d="M400 1q5.668 0 11.334.174t11.323.522 11.301.87 11.27 1.216 11.227 1.562 11.174 1.906q5.572 1.04 11.11 2.249t11.035 2.588 10.95 2.926q5.454 1.548 10.857 3.262t10.75 3.593 10.635 3.921q5.288 2.043 10.51 4.247t10.374 4.567 10.229 4.884 10.074 5.195 9.91 5.503q4.913 2.827 9.736 5.804t9.554 6.1q4.73 3.125 9.361 6.392t9.16 6.676q4.53 3.408 8.952 6.954t8.734 7.225q4.311 3.68 8.507 7.49t8.274 7.749 8.031 7.999 7.782 8.241 7.525 8.477 7.262 8.704 6.99 8.923 6.714 9.133 6.43 9.335L400 370z"/><path fill="none" stroke="#fff" stroke-linejoin="bevel" stroke-width="2" d="M400 1q5.668 0 11.334.174t11.323.522 11.301.87 11.27 1.216 11.227 1.562 11.174 1.906q5.572 1.04 11.11 2.249t11.035 2.588 10.95 2.926q5.454 1.548 10.857 3.262t10.75 3.593 10.635 3.921q5.288 2.043 10.51 4.247t10.374 4.567 10.229 4.884 10.074 5.195 9.91 5.503q4.913 2.827 9.736 5.804t9.554 6.1q4.73 3.125 9.361 6.392t9.16 6.676q4.53 3.408 8.952 6.954t8.734 7.225q4.311 3.68 8.507 7.49t8.274 7.749 8.031 7.999 7.782 8.241 7.525 8.477 7.262 8.704 6.99 8.923 6.714 9.133 6.43 9.335L400 370z"/><path fill="#ff9800" d="M707.074 165.387q10.948 16.43 20.08 33.933 9.132 17.505 16.344 35.883L400 370z"/><path fill="none" stroke="#fff" stroke-linejoin="bevel" stroke-width="2" d="M707.074 165.387q10.948 16.43 20.08 33.933 9.132 17.505 16.344 35.883L400 370l307.074-204.613Z"/><path fill="#f44336" d="M743.498 235.203q3.309 8.432 6.2 17.017t5.358 17.3q2.467 8.717 4.503 17.544t3.636 17.742 2.762 17.9q1.16 8.984 1.88 18.013.718 9.03.993 18.085.275 9.054.105 18.11-.17 9.058-.784 18.095-.614 9.038-1.67 18.034-1.057 8.997-2.554 17.93-1.496 8.935-3.43 17.785-1.933 8.85-4.299 17.593-2.365 8.745-5.156 17.362-2.792 8.618-6.003 17.088-3.21 8.47-6.834 16.773-3.622 8.302-7.648 16.417t-8.445 16.022-9.22 15.588-9.975 15.118-10.705 14.61q-5.531 7.173-11.408 14.066t-12.085 13.49-12.732 12.88-13.349 12.241-13.933 11.571-14.485 10.874-15 10.149q-7.625 4.89-15.48 9.401-7.856 4.51-15.923 8.63t-16.328 7.839-16.692 7.028q-5.22 2.048-10.498 3.937-5.28 1.888-10.614 3.616-5.334 1.727-10.718 3.292t-10.813 2.965-10.898 2.634-10.974 2.303-11.038 1.968-11.093 1.632-11.137 1.294-11.172.955-11.195.615-11.209.275-11.212-.066-11.205-.406q-5.6-.289-11.187-.747-5.588-.459-11.16-1.086-5.571-.628-11.121-1.425t-11.073-1.762-11.015-2.098q-5.49-1.133-10.945-2.431-5.454-1.3-10.867-2.763-5.412-1.464-10.777-3.092-5.366-1.628-10.679-3.417-5.313-1.79-10.57-3.741-5.257-1.95-10.451-4.06t-10.324-4.375q-5.128-2.267-10.185-4.688t-10.039-4.994-9.882-5.297q-4.9-2.724-9.716-5.595-4.816-2.872-9.542-5.888-4.727-3.016-9.36-6.175-7.484-5.103-14.708-10.567t-14.174-11.276-13.602-11.958-13-12.61Q130.3 622 124.28 615.232q-6.02-6.769-11.7-13.825-5.681-7.056-11.01-14.382-5.327-7.326-10.289-14.904t-9.545-15.392-8.78-15.841-7.99-16.254q-3.797-8.224-7.185-16.625t-6.36-16.958q-2.97-8.558-5.52-17.25-2.547-8.693-4.666-17.5t-3.802-17.708q-1.684-8.9-2.93-17.873-1.245-8.972-2.048-17.995t-1.163-18.074-.275-18.11.614-18.1 1.502-18.05 2.385-17.953 3.264-17.815 4.133-17.634 4.994-17.409 5.842-17.143 6.677-16.836 7.494-16.488q3.95-8.153 8.294-16.101t9.075-15.674 9.832-15.21q3.159-4.633 6.456-9.167t6.732-8.967 7.001-8.757q3.568-4.326 7.264-8.541t7.52-8.317 7.77-8.084 8.011-7.844 8.246-7.598q4.181-3.736 8.473-7.343t8.693-7.082 8.903-6.815 9.106-6.542 9.301-6.262 9.487-5.976 9.664-5.685 9.832-5.39 9.992-5.087 10.141-4.782 10.282-4.472 10.413-4.157 10.535-3.839 10.646-3.517 10.749-3.192 10.84-2.864 10.922-2.533 10.995-2.2 11.056-1.865 11.107-1.529 11.15-1.19 11.18-.85q5.596-.341 11.2-.512T400 1v369z"/><path fill="none" stroke="#fff" stroke-linejoin="bevel" stroke-width="2" d="M743.498 235.203q3.309 8.432 6.2 17.017t5.358 17.3q2.467 8.717 4.503 17.544t3.636 17.742 2.762 17.9q1.16 8.984 1.88 18.013.718 9.03.993 18.085.275 9.054.105 18.11-.17 9.058-.784 18.095-.614 9.038-1.67 18.034-1.057 8.997-2.554 17.93-1.496 8.935-3.43 17.785-1.933 8.85-4.299 17.593-2.365 8.745-5.156 17.362-2.792 8.618-6.003 17.088-3.21 8.47-6.834 16.773-3.622 8.302-7.648 16.417t-8.445 16.022-9.22 15.588-9.975 15.118-10.705 14.61q-5.531 7.173-11.408 14.066t-12.085 13.49-12.732 12.88-13.349 12.241-13.933 11.571-14.485 10.874-15 10.149q-7.625 4.89-15.48 9.401-7.856 4.51-15.923 8.63t-16.328 7.839-16.692 7.028q-5.22 2.048-10.498 3.937-5.28 1.888-10.614 3.616-5.334 1.727-10.718 3.292t-10.813 2.965-10.898 2.634-10.974 2.303-11.038 1.968-11.093 1.632-11.137 1.294-11.172.955-11.195.615-11.209.275-11.212-.066-11.205-.406q-5.6-.289-11.187-.747-5.588-.459-11.16-1.086-5.571-.628-11.121-1.425t-11.073-1.762-11.015-2.098q-5.49-1.133-10.945-2.431-5.454-1.3-10.867-2.763-5.412-1.464-10.777-3.092-5.366-1.628-10.679-3.417-5.313-1.79-10.57-3.741-5.257-1.95-10.451-4.06t-10.324-4.375q-5.128-2.267-10.185-4.688t-10.039-4.994-9.882-5.297q-4.9-2.724-9.716-5.595-4.816-2.872-9.542-5.888-4.727-3.016-9.36-6.175-7.484-5.103-14.708-10.567t-14.174-11.276-13.602-11.958-13-12.61Q130.3 622 124.28 615.232q-6.02-6.769-11.7-13.825-5.681-7.056-11.01-14.382-5.327-7.326-10.289-14.904t-9.545-15.392-8.78-15.841-7.99-16.254q-3.797-8.224-7.185-16.625t-6.36-16.958q-2.97-8.558-5.52-17.25-2.547-8.693-4.666-17.5t-3.802-17.708q-1.684-8.9-2.93-17.873-1.245-8.972-2.048-17.995t-1.163-18.074-.275-18.11.614-18.1 1.502-18.05 2.385-17.953 3.264-17.815 4.133-17.634 4.994-17.409 5.842-17.143 6.677-16.836 7.494-16.488q3.95-8.153 8.294-16.101t9.075-15.674 9.832-15.21q3.159-4.633 6.456-9.167t6.732-8.967 7.001-8.757q3.568-4.326 7.264-8.541t7.52-8.317 7.77-8.084 8.011-7.844 8.246-7.598q4.181-3.736 8.473-7.343t8.693-7.082 8.903-6.815 9.106-6.542 9.301-6.262 9.487-5.976 9.664-5.685 9.832-5.39 9.992-5.087 10.141-4.782 10.282-4.472 10.413-4.157 10.535-3.839 10.646-3.517 10.749-3.192 10.84-2.864 10.922-2.533 10.995-2.2 11.056-1.865 11.107-1.529 11.15-1.19 11.18-.85q5.596-.341 11.2-.512T400 1v369l343.498-134.797Z"/></svg>