<svg xmlns="http://www.w3.org/2000/svg" width="800" height="800"><path fill="none" d="M0 0h800v800H0z"/><clipPath id="a"><path d="M0 740h800v60H0z"/></clipPath><g clip-path="url(#a)"><path fill="#4caf50" d="M138.975 770h40v20h-40z"/><path fill="none" stroke="#fff" stroke-miterlimit="10" stroke-width="2" d="M138.975 770h40v20h-40z"/><text x="188.97501, 200.97696, 212.97891, 224.98087, 236.98282, 248.98477, 260.98672," y="785.5," fill="#666" font-family="Liberation Mono" font-size="20">Trusted</text><path fill="#ff9800" d="M302.985 770h40v20h-40z"/><path fill="none" stroke="#fff" stroke-miterlimit="10" stroke-width="2" d="M302.985 770h40v20h-40z"/><text x="352.98502, 364.98697, 376.98892, 388.99088, 400.99283, 412.99478, 424.99673, 436.99869, 449.00064, 461.00259," y="785.5," fill="#666" font-family="Liberation Mono" font-size="20">Provenance</text><path fill="#f44336" d="M503.005 770h40v20h-40z"/><path fill="none" stroke="#fff" stroke-miterlimit="10" stroke-width="2" d="M503.005 770h40v20h-40z"/><text x="553.005, 565.00696, 577.00891, 589.01086, 601.01282, 613.01477, 625.01672, 637.01868, 649.02063," y="785.5," fill="#666" font-family="Liberation Mono" font-size="20">Untrusted</text></g><path fill="#4caf50" d="M400 1q5.999 0 11.995.195t11.982.585 11.957.974 11.918 1.362 11.869 1.749 11.805 2.134 11.73 2.516q5.843 1.353 11.64 2.896t11.542 3.273q5.744 1.73 11.428 3.647t11.305 4.016 11.167 4.382 11.02 4.742q5.47 2.46 10.859 5.098 5.388 2.637 10.688 5.448 5.3 2.81 10.505 5.793 5.205 2.981 10.311 6.13t10.106 6.464q5.001 3.314 9.891 6.788t9.666 7.106q4.774 3.632 9.429 7.417 4.654 3.785 9.183 7.719t8.927 8.013 8.662 8.3 8.388 8.577 8.104 8.845 7.813 9.103 7.512 9.353 7.205 9.592 6.889 9.821 6.566 10.04 6.236 10.248L400 370z"/><path fill="none" stroke="#fff" stroke-linejoin="bevel" stroke-width="2" d="M400 1q5.999 0 11.995.195t11.982.585 11.957.974 11.918 1.362 11.869 1.749 11.805 2.134 11.73 2.516q5.843 1.353 11.64 2.896t11.542 3.273q5.744 1.73 11.428 3.647t11.305 4.016 11.167 4.382 11.02 4.742q5.47 2.46 10.859 5.098 5.388 2.637 10.688 5.448 5.3 2.81 10.505 5.793 5.205 2.981 10.311 6.13t10.106 6.464q5.001 3.314 9.891 6.788t9.666 7.106q4.774 3.632 9.429 7.417 4.654 3.785 9.183 7.719t8.927 8.013 8.662 8.3 8.388 8.577 8.104 8.845 7.813 9.103 7.512 9.353 7.205 9.592 6.889 9.821 6.566 10.04 6.236 10.248L400 370z"/><path fill="#ff9800" d="M718.298 183.326q9.238 15.751 16.876 32.338 7.637 16.586 13.6 33.846L400 370z"/><path fill="none" stroke="#fff" stroke-linejoin="bevel" stroke-width="2" d="M718.298 183.326q9.238 15.751 16.876 32.338 7.637 16.586 13.6 33.846L400 370l318.298-186.674Z"/><path fill="#f44336" d="M748.774 249.51q2.958 8.562 5.492 17.259t4.638 17.507 3.774 17.714 2.9 17.878 2.02 17.998 1.134 18.076.246 18.11-.644 18.1-1.53 18.046-2.414 17.95-3.293 17.81-4.162 17.627-5.022 17.4q-2.724 8.64-5.87 17.135-3.144 8.495-6.703 16.825-3.558 8.33-7.52 16.476-3.963 8.146-8.32 16.087-4.358 7.942-9.1 15.66t-9.857 15.194-10.591 14.692-11.299 14.155-11.98 13.583-12.631 12.98q-6.476 6.334-13.254 12.343t-13.843 11.68-14.4 10.984-14.921 10.266q-7.587 4.95-15.407 9.52-7.82 4.572-15.856 8.754t-16.265 7.965-16.638 7.158-16.968 6.332q-5.187 1.792-10.425 3.429t-10.522 3.117-10.61 2.803-10.689 2.486-10.757 2.167-10.818 1.847q-5.422.842-10.868 1.523-5.445.682-10.908 1.2-5.463.52-10.939.876t-10.96.55q-5.484.192-10.972.222t-10.974-.103q-5.486-.133-10.965-.429-5.48-.296-10.948-.755-5.469-.46-10.92-1.08-5.453-.622-10.885-1.405-5.431-.784-10.837-1.728-5.406-.945-10.78-2.05-5.376-1.104-10.716-2.368t-10.64-2.687-10.556-3.001-10.461-3.315-10.359-3.623-10.246-3.93q-5.094-2.042-10.125-4.234t-9.994-4.533q-4.963-2.34-9.855-4.827t-9.707-5.119-9.55-5.405q-4.736-2.773-9.387-5.686-4.65-2.914-9.212-5.964t-9.031-6.234q-7.378-5.257-14.488-10.869t-13.937-11.566-13.353-12.237-12.736-12.877q-6.21-6.594-12.09-13.486-5.878-6.892-11.412-14.063T97.15 580.814t-9.98-15.115q-4.803-7.68-9.225-15.585t-8.45-16.02-7.653-16.415T55 500.91t-6.007-17.086q-2.794-8.617-5.162-17.36-2.368-8.744-4.305-17.593t-3.435-17.782-2.56-17.93-1.676-18.034q-.616-9.037-.789-18.094t.1-18.111q.271-9.054.987-18.084t1.875-18.015 2.755-17.9 3.631-17.744 4.497-17.544 5.353-17.303q2.889-8.585 6.195-17.019t7.023-16.694 7.833-16.33q4.117-8.068 8.625-15.925t9.397-15.484 10.144-15.003q3.185-4.47 6.5-8.842 3.317-4.373 6.761-8.645t7.014-8.44q3.57-4.167 7.263-8.227t7.503-8.007 7.739-7.781 7.966-7.548 8.188-7.307 8.401-7.06 8.607-6.808 8.806-6.549 8.997-6.284 9.18-6.013q4.634-2.939 9.354-5.738t9.521-5.458q4.801-2.657 9.68-5.171 4.877-2.514 9.828-4.882t9.969-4.587q5.019-2.22 10.101-4.289t10.225-3.986q5.141-1.917 10.338-3.68t10.443-3.372q5.247-1.608 10.54-3.06 5.291-1.451 10.624-2.745 5.333-1.293 10.703-2.427t10.77-2.109 10.827-1.787 10.876-1.464 10.914-1.14 10.944-.815q5.478-.327 10.963-.49T400 1v369z"/><path fill="none" stroke="#fff" stroke-linejoin="bevel" stroke-width="2" d="M748.774 249.51q2.958 8.562 5.492 17.259t4.638 17.507 3.774 17.714 2.9 17.878 2.02 17.998 1.134 18.076.246 18.11-.644 18.1-1.53 18.046-2.414 17.95-3.293 17.81-4.162 17.627-5.022 17.4q-2.724 8.64-5.87 17.135-3.144 8.495-6.703 16.825-3.558 8.33-7.52 16.476-3.963 8.146-8.32 16.087-4.358 7.942-9.1 15.66t-9.857 15.194-10.591 14.692-11.299 14.155-11.98 13.583-12.631 12.98q-6.476 6.334-13.254 12.343t-13.843 11.68-14.4 10.984-14.921 10.266q-7.587 4.95-15.407 9.52-7.82 4.572-15.856 8.754t-16.265 7.965-16.638 7.158-16.968 6.332q-5.187 1.792-10.425 3.429t-10.522 3.117-10.61 2.803-10.689 2.486-10.757 2.167-10.818 1.847q-5.422.842-10.868 1.523-5.445.682-10.908 1.2-5.463.52-10.939.876t-10.96.55q-5.484.192-10.972.222t-10.974-.103q-5.486-.133-10.965-.429-5.48-.296-10.948-.755-5.469-.46-10.92-1.08-5.453-.622-10.885-1.405-5.431-.784-10.837-1.728-5.406-.945-10.78-2.05-5.376-1.104-10.716-2.368t-10.64-2.687-10.556-3.001-10.461-3.315-10.359-3.623-10.246-3.93q-5.094-2.042-10.125-4.234t-9.994-4.533q-4.963-2.34-9.855-4.827t-9.707-5.119-9.55-5.405q-4.736-2.773-9.387-5.686-4.65-2.914-9.212-5.964t-9.031-6.234q-7.378-5.257-14.488-10.869t-13.937-11.566-13.353-12.237-12.736-12.877q-6.21-6.594-12.09-13.486-5.878-6.892-11.412-14.063T97.15 580.814t-9.98-15.115q-4.803-7.68-9.225-15.585t-8.45-16.02-7.653-16.415T55 500.91t-6.007-17.086q-2.794-8.617-5.162-17.36-2.368-8.744-4.305-17.593t-3.435-17.782-2.56-17.93-1.676-18.034q-.616-9.037-.789-18.094t.1-18.111q.271-9.054.987-18.084t1.875-18.015 2.755-17.9 3.631-17.744 4.497-17.544 5.353-17.303q2.889-8.585 6.195-17.019t7.023-16.694 7.833-16.33q4.117-8.068 8.625-15.925t9.397-15.484 10.144-15.003q3.185-4.47 6.5-8.842 3.317-4.373 6.761-8.645t7.014-8.44q3.57-4.167 7.263-8.227t7.503-8.007 7.739-7.781 7.966-7.548 8.188-7.307 8.401-7.06 8.607-6.808 8.806-6.549 8.997-6.284 9.18-6.013q4.634-2.939 9.354-5.738t9.521-5.458q4.801-2.657 9.68-5.171 4.877-2.514 9.828-4.882t9.969-4.587q5.019-2.22 10.101-4.289t10.225-3.986q5.141-1.917 10.338-3.68t10.443-3.372q5.247-1.608 10.54-3.06 5.291-1.451 10.624-2.745 5.333-1.293 10.703-2.427t10.77-2.109 10.827-1.787 10.876-1.464 10.914-1.14 10.944-.815q5.478-.327 10.963-.49T400 1v369l348.774-120.49Z"/></svg>