<svg xmlns="http://www.w3.org/2000/svg" width="800" height="800"><path fill="none" d="M0 0h800v800H0z"/><clipPath id="a"><path d="M0 740h800v60H0z"/></clipPath><g clip-path="url(#a)"><path fill="#4caf50" d="M144.605 770h40v20h-40z"/><path fill="none" stroke="#fff" stroke-miterlimit="10" stroke-width="2" d="M144.605 770h40v20h-40z"/><text x="194.605, 207.94484, 217.50539, 230.38625, 240.64992, 248.68703, 260.52295," y="787.5," fill="#666" font-family="DejaVu Serif" font-size="20">Trusted</text><path fill="#ff9800" d="M303.325 770h40v20h-40z"/><path fill="none" stroke="#fff" stroke-miterlimit="10" stroke-width="2" d="M303.325 770h40v20h-40z"/><text x="353.32501, 366.78204, 376.34259, 388.38361, 399.68243, 411.51837, 424.39923, 436.32306, 449.20392, 460.40509," y="787.5," fill="#666" font-family="DejaVu Serif" font-size="20">Provenance</text><path fill="#f44336" d="M502.245 770h40v20h-40z"/><path fill="none" stroke="#fff" stroke-miterlimit="10" stroke-width="2" d="M502.245 770h40v20h-40z"/><text x="552.245, 569.10046, 581.98132, 590.01843, 599.57898, 612.45984, 622.72351, 630.76062, 642.59656," y="787.5," fill="#666" font-family="DejaVu Serif" font-size="20">Untrusted</text></g><path fill="#4caf50" d="M400 1q8.663 0 17.315.406t17.278 1.22q8.624.811 17.2 2.027 8.578 1.216 17.088 2.833t16.935 3.632q8.425 2.014 16.746 4.422t16.52 5.203q8.2 2.796 16.258 5.973t15.96 6.729q7.9 3.552 15.626 7.47 7.726 3.92 15.259 8.196 7.533 4.277 14.857 8.903 7.324 4.625 14.423 9.59t13.957 10.256 13.46 10.9q6.603 5.607 12.934 11.519L400 370z"/><path fill="none" stroke="#fff" stroke-linejoin="bevel" stroke-width="2" d="M400 1q8.663 0 17.315.406t17.278 1.22q8.624.811 17.2 2.027 8.578 1.216 17.088 2.833t16.935 3.632q8.425 2.014 16.746 4.422t16.52 5.203q8.2 2.796 16.258 5.973t15.96 6.729q7.9 3.552 15.626 7.47 7.726 3.92 15.259 8.196 7.533 4.277 14.857 8.903 7.324 4.625 14.423 9.59t13.957 10.256 13.46 10.9q6.603 5.607 12.934 11.519L400 370z"/><path fill="#ff9800" d="M651.816 100.279q9.203 8.592 17.799 17.791t16.545 18.963 15.213 20.046 13.812 21.037L400 370z"/><path fill="none" stroke="#fff" stroke-linejoin="bevel" stroke-width="2" d="M651.816 100.279q9.203 8.592 17.799 17.791t16.545 18.963 15.213 20.046 13.812 21.037L400 370l251.816-269.721Z"/><path fill="#f44336" d="M715.185 178.116q4.71 7.737 9.036 15.696 4.325 7.96 8.254 16.121 3.93 8.162 7.454 16.507t6.634 16.852q3.11 8.508 5.8 17.158t4.951 17.422 4.09 17.643 3.22 17.823 2.34 17.96 1.458 18.052.57 18.103q.062 9.058-.32 18.109-.382 9.05-1.208 18.07-.826 9.021-2.093 17.99-1.267 8.97-2.973 17.867t-3.846 17.698-4.71 17.488-5.562 17.236-6.402 16.943-7.225 16.608-8.031 16.233-8.818 15.82q-4.604 7.801-9.584 15.368-4.98 7.566-10.326 14.879t-11.044 14.355-11.735 13.795-12.398 13.203q-6.36 6.45-13.03 12.579t-13.633 11.924-14.2 11.241-14.736 10.53q-7.497 5.085-15.234 9.796-5.215 3.175-10.532 6.175t-10.73 5.824-10.918 5.466-11.092 5.1q-5.589 2.46-11.255 4.732t-11.406 4.357q-5.738 2.084-11.543 3.977t-11.668 3.593-11.781 3.205-11.88 2.813q-5.964 1.308-11.968 2.419t-12.04 2.021q-6.037.912-12.101 1.623-6.064.71-12.148 1.22t-12.182.819-12.202.415q-6.104.106-12.209.011-6.104-.096-12.203-.393t-12.183-.796-12.15-1.2-12.103-1.6q-6.039-.9-12.045-2-6.005-1.099-11.971-2.396-5.966-1.298-11.886-2.792-5.92-1.495-11.786-3.184-5.867-1.69-11.675-3.572t-11.55-3.956q-5.743-2.073-11.414-4.336-5.67-2.262-11.263-4.71-5.593-2.45-11.102-5.082-5.508-2.633-10.927-5.446t-10.741-5.804q-7.897-4.438-15.567-9.258t-15.094-10.01-14.584-10.738-14.04-11.442-13.462-12.116-12.85-12.763q-6.27-6.539-12.21-13.377t-11.538-13.96q-5.597-7.123-10.839-14.51-5.241-7.389-10.114-15.025-4.872-7.636-9.364-15.503-4.493-7.866-8.593-15.943t-7.8-16.346-6.989-16.708q-3.29-8.44-6.16-17.032-2.871-8.591-5.318-17.313t-4.46-17.554-3.596-17.75-2.719-17.907-1.837-18.018-.951-18.086-.063-18.112.826-18.092 1.713-18.03 2.596-17.925 3.472-17.775 4.34-17.584 5.198-17.35q2.811-8.61 6.042-17.073t6.874-16.757q3.642-8.294 7.687-16.399 4.044-8.105 8.482-16.002 2.991-5.323 6.156-10.543 3.166-5.221 6.502-10.334 3.337-5.113 6.84-10.113 3.504-5 7.171-9.882 3.668-4.88 7.494-9.638 3.827-4.758 7.809-9.386t8.115-9.122q4.133-4.493 8.412-8.848t8.7-8.565q4.422-4.211 8.98-8.273 4.557-4.062 9.247-7.972 4.69-3.909 9.507-7.66t9.754-7.343 9.992-7.015q5.055-3.425 10.22-6.681 5.164-3.256 10.433-6.34t10.639-5.99 10.83-5.636 11.011-5.274q5.55-2.546 11.18-4.907t11.336-4.535q5.705-2.173 11.48-4.157 5.774-1.983 11.61-3.775 5.837-1.791 11.73-3.388 5.892-1.598 11.835-3 5.942-1.4 11.927-2.605 5.986-1.204 12.008-2.21 6.022-1.005 12.074-1.81t12.127-1.412T375.6 1.808t12.194-.606T400 1v369z"/><path fill="none" stroke="#fff" stroke-linejoin="bevel" stroke-width="2" d="M715.185 178.116q4.71 7.737 9.036 15.696 4.325 7.96 8.254 16.121 3.93 8.162 7.454 16.507t6.634 16.852q3.11 8.508 5.8 17.158t4.951 17.422 4.09 17.643 3.22 17.823 2.34 17.96 1.458 18.052.57 18.103q.062 9.058-.32 18.109-.382 9.05-1.208 18.07-.826 9.021-2.093 17.99-1.267 8.97-2.973 17.867t-3.846 17.698-4.71 17.488-5.562 17.236-6.402 16.943-7.225 16.608-8.031 16.233-8.818 15.82q-4.604 7.801-9.584 15.368-4.98 7.566-10.326 14.879t-11.044 14.355-11.735 13.795-12.398 13.203q-6.36 6.45-13.03 12.579t-13.633 11.924-14.2 11.241-14.736 10.53q-7.497 5.085-15.234 9.796-5.215 3.175-10.532 6.175t-10.73 5.824-10.918 5.466-11.092 5.1q-5.589 2.46-11.255 4.732t-11.406 4.357q-5.738 2.084-11.543 3.977t-11.668 3.593-11.781 3.205-11.88 2.813q-5.964 1.308-11.968 2.419t-12.04 2.021q-6.037.912-12.101 1.623-6.064.71-12.148 1.22t-12.182.819-12.202.415q-6.104.106-12.209.011-6.104-.096-12.203-.393t-12.183-.796-12.15-1.2-12.103-1.6q-6.039-.9-12.045-2-6.005-1.099-11.971-2.396-5.966-1.298-11.886-2.792-5.92-1.495-11.786-3.184-5.867-1.69-11.675-3.572t-11.55-3.956q-5.743-2.073-11.414-4.336-5.67-2.262-11.263-4.71-5.593-2.45-11.102-5.082-5.508-2.633-10.927-5.446t-10.741-5.804q-7.897-4.438-15.567-9.258t-15.094-10.01-14.584-10.738-14.04-11.442-13.462-12.116-12.85-12.763q-6.27-6.539-12.21-13.377t-11.538-13.96q-5.597-7.123-10.839-14.51-5.241-7.389-10.114-15.025-4.872-7.636-9.364-15.503-4.493-7.866-8.593-15.943t-7.8-16.346-6.989-16.708q-3.29-8.44-6.16-17.032-2.871-8.591-5.318-17.313t-4.46-17.554-3.596-17.75-2.719-17.907-1.837-18.018-.951-18.086-.063-18.112.826-18.092 1.713-18.03 2.596-17.925 3.472-17.775 4.34-17.584 5.198-17.35q2.811-8.61 6.042-17.073t6.874-16.757q3.642-8.294 7.687-16.399 4.044-8.105 8.482-16.002 2.991-5.323 6.156-10.543 3.166-5.221 6.502-10.334 3.337-5.113 6.84-10.113 3.504-5 7.171-9.882 3.668-4.88 7.494-9.638 3.827-4.758 7.809-9.386t8.115-9.122q4.133-4.493 8.412-8.848t8.7-8.565q4.422-4.211 8.98-8.273 4.557-4.062 9.247-7.972 4.69-3.909 9.507-7.66t9.754-7.343 9.992-7.015q5.055-3.425 10.22-6.681 5.164-3.256 10.433-6.34t10.639-5.99 10.83-5.636 11.011-5.274q5.55-2.546 11.18-4.907t11.336-4.535q5.705-2.173 11.48-4.157 5.774-1.983 11.61-3.775 5.837-1.791 11.73-3.388 5.892-1.598 11.835-3 5.942-1.4 11.927-2.605 5.986-1.204 12.008-2.21 6.022-1.005 12.074-1.81t12.127-1.412T375.6 1.808t12.194-.606T400 1v369l315.185-191.884Z"/></svg>