<svg xmlns="http://www.w3.org/2000/svg" width="800" height="800"><path fill="none" d="M0 0h800v800H0z"/><clipPath id="a"><path d="M0 740h800v60H0z"/></clipPath><g clip-path="url(#a)"><path fill="#4caf50" d="M144.605 770h40v20h-40z"/><path fill="none" stroke="#fff" stroke-miterlimit="10" stroke-width="2" d="M144.605 770h40v20h-40z"/><text x="194.605, 207.94484, 217.50539, 230.38625, 240.64992, 248.68703, 260.52295," y="787.5," fill="#666" font-family="DejaVu Serif" font-size="20">Trusted</text><path fill="#ff9800" d="M303.325 770h40v20h-40z"/><path fill="none" stroke="#fff" stroke-miterlimit="10" stroke-width="2" d="M303.325 770h40v20h-40z"/><text x="353.32501, 366.78204, 376.34259, 388.38361, 399.68243, 411.51837, 424.39923, 436.32306, 449.20392, 460.40509," y="787.5," fill="#666" font-family="DejaVu Serif" font-size="20">Provenance</text><path fill="#f44336" d="M502.245 770h40v20h-40z"/><path fill="none" stroke="#fff" stroke-miterlimit="10" stroke-width="2" d="M502.245 770h40v20h-40z"/><text x="552.245, 569.10046, 581.98132, 590.01843, 599.57898, 612.45984, 622.72351, 630.76062, 642.59656," y="787.5," fill="#666" font-family="DejaVu Serif" font-size="20">Untrusted</text></g><path fill="#4caf50" d="M400 1q6.405 0 12.806.222 6.402.223 12.791.667t12.76 1.11 12.714 1.552q6.344.887 12.653 1.993t12.575 2.43 12.484 2.866 12.377 3.297 12.255 3.725 12.118 4.147 11.967 4.566 11.801 4.978 11.621 5.385q5.764 2.794 11.428 5.785t11.22 6.178 10.999 6.564L400 370z"/><path fill="none" stroke="#fff" stroke-linejoin="bevel" stroke-width="2" d="M400 1q6.405 0 12.806.222 6.402.223 12.791.667t12.76 1.11 12.714 1.552q6.344.887 12.653 1.993t12.575 2.43 12.484 2.866 12.377 3.297 12.255 3.725 12.118 4.147 11.967 4.566 11.801 4.978 11.621 5.385q5.764 2.794 11.428 5.785t11.22 6.178 10.999 6.564L400 370z"/><path fill="#ff9800" d="M594.569 56.465q11.955 7.42 23.31 15.727 11.357 8.308 22.047 17.457t20.652 19.085 19.14 20.602L400 370z"/><path fill="none" stroke="#fff" stroke-linejoin="bevel" stroke-width="2" d="M594.569 56.465q11.955 7.42 23.31 15.727 11.357 8.308 22.047 17.457t20.652 19.085 19.14 20.602L400 370 594.569 56.465Z"/><path fill="#f44336" d="M679.718 129.336q5.907 6.867 11.471 14.015t10.77 14.561q5.207 7.413 10.044 15.072 4.836 7.66 9.29 15.547 4.456 7.887 8.518 15.983t7.723 16.383q3.66 8.286 6.91 16.741t6.08 17.06q2.83 8.606 5.235 17.339t4.378 17.574 3.51 17.768q1.538 8.927 2.635 17.919 1.098 8.992 1.752 18.026.655 9.035.866 18.091t-.023 18.112-.912 18.088-1.798 18.022-2.68 17.912-3.556 17.759-4.424 17.563-5.28 17.325-6.123 17.045-6.952 16.724-7.764 16.362-8.558 15.962-9.331 15.523-10.082 15.046-10.807 14.534-11.508 13.985-12.18 13.404-12.823 12.79-13.435 12.147q-4.986 4.29-10.121 8.399t-10.415 8.033q-5.278 3.923-10.693 7.656-5.416 3.733-10.96 7.271t-11.212 6.876-11.45 6.471q-5.783 3.134-11.674 6.06t-11.882 5.64q-5.99 2.713-12.075 5.212t-12.253 4.779q-6.17 2.28-12.416 4.339t-12.563 3.894-12.693 3.444q-6.378 1.608-12.809 2.989t-12.906 2.53q-6.476 1.151-12.989 2.07-6.512.919-13.054 1.605-6.541.686-13.103 1.14-6.561.452-13.135.67t-13.15.203q-6.578-.016-13.15-.266-6.573-.25-13.132-.735-6.56-.484-13.097-1.202-6.538-.718-13.047-1.668-6.508-.95-12.978-2.132-6.47-1.181-12.894-2.593t-12.794-3.05q-6.37-1.64-12.677-3.506t-12.543-3.954-12.395-4.4-12.23-4.837-12.05-5.271q-8.234-3.778-16.272-7.955t-15.861-8.743q-7.823-4.566-15.413-9.51-7.59-4.945-14.928-10.256-7.338-5.312-14.407-10.976t-13.85-11.67-13.262-12.335-12.64-12.97q-6.162-6.642-11.99-13.577-5.827-6.934-11.307-14.147t-10.6-14.685q-5.12-7.473-9.868-15.188-4.747-7.715-9.11-15.654-4.362-7.938-8.33-16.081t-7.532-16.471q-3.563-8.329-6.714-16.821-3.15-8.493-5.881-17.13-2.73-8.638-5.033-17.398t-4.174-17.624-3.304-17.808-2.426-17.948-1.542-18.046q-.55-9.042-.655-18.1-.105-9.057.234-18.11.339-9.051 1.122-18.076t2.008-18 2.888-17.88q1.664-8.904 3.763-17.716 2.098-8.812 4.627-17.51t5.48-17.262q2.953-8.564 6.322-16.973t7.146-16.642q2.743-5.978 5.697-11.854 2.954-5.877 6.116-11.644t6.526-11.419 6.93-11.179 7.324-10.924 7.708-10.657 8.083-10.376q4.134-5.115 8.448-10.08 4.313-4.965 8.801-9.773 4.488-4.809 9.144-9.454 4.657-4.645 9.476-9.121t9.794-8.778 10.101-8.424 10.395-8.058 10.675-7.682q5.407-3.746 10.943-7.297T211.97 52.5t11.435-6.5 11.658-6.087 11.869-5.668 12.062-5.242 12.242-4.808q6.164-2.295 12.406-4.37 6.241-2.073 12.553-3.923t12.685-3.475q6.374-1.624 12.801-3.02t12.9-2.562 12.984-2.1 13.05-1.637 13.1-1.17q6.56-.47 13.134-.704Q393.423 1 400 1v369z"/><path fill="none" stroke="#fff" stroke-linejoin="bevel" stroke-width="2" d="M679.718 129.336q5.907 6.867 11.471 14.015t10.77 14.561q5.207 7.413 10.044 15.072 4.836 7.66 9.29 15.547 4.456 7.887 8.518 15.983t7.723 16.383q3.66 8.286 6.91 16.741t6.08 17.06q2.83 8.606 5.235 17.339t4.378 17.574 3.51 17.768q1.538 8.927 2.635 17.919 1.098 8.992 1.752 18.026.655 9.035.866 18.091t-.023 18.112-.912 18.088-1.798 18.022-2.68 17.912-3.556 17.759-4.424 17.563-5.28 17.325-6.123 17.045-6.952 16.724-7.764 16.362-8.558 15.962-9.331 15.523-10.082 15.046-10.807 14.534-11.508 13.985-12.18 13.404-12.823 12.79-13.435 12.147q-4.986 4.29-10.121 8.399t-10.415 8.033q-5.278 3.923-10.693 7.656-5.416 3.733-10.96 7.271t-11.212 6.876-11.45 6.471q-5.783 3.134-11.674 6.06t-11.882 5.64q-5.99 2.713-12.075 5.212t-12.253 4.779q-6.17 2.28-12.416 4.339t-12.563 3.894-12.693 3.444q-6.378 1.608-12.809 2.989t-12.906 2.53q-6.476 1.151-12.989 2.07-6.512.919-13.054 1.605-6.541.686-13.103 1.14-6.561.452-13.135.67t-13.15.203q-6.578-.016-13.15-.266-6.573-.25-13.132-.735-6.56-.484-13.097-1.202-6.538-.718-13.047-1.668-6.508-.95-12.978-2.132-6.47-1.181-12.894-2.593t-12.794-3.05q-6.37-1.64-12.677-3.506t-12.543-3.954-12.395-4.4-12.23-4.837-12.05-5.271q-8.234-3.778-16.272-7.955t-15.861-8.743q-7.823-4.566-15.413-9.51-7.59-4.945-14.928-10.256-7.338-5.312-14.407-10.976t-13.85-11.67-13.262-12.335-12.64-12.97q-6.162-6.642-11.99-13.577-5.827-6.934-11.307-14.147t-10.6-14.685q-5.12-7.473-9.868-15.188-4.747-7.715-9.11-15.654-4.362-7.938-8.33-16.081t-7.532-16.471q-3.563-8.329-6.714-16.821-3.15-8.493-5.881-17.13-2.73-8.638-5.033-17.398t-4.174-17.624-3.304-17.808-2.426-17.948-1.542-18.046q-.55-9.042-.655-18.1-.105-9.057.234-18.11.339-9.051 1.122-18.076t2.008-18 2.888-17.88q1.664-8.904 3.763-17.716 2.098-8.812 4.627-17.51t5.48-17.262q2.953-8.564 6.322-16.973t7.146-16.642q2.743-5.978 5.697-11.854 2.954-5.877 6.116-11.644t6.526-11.419 6.93-11.179 7.324-10.924 7.708-10.657 8.083-10.376q4.134-5.115 8.448-10.08 4.313-4.965 8.801-9.773 4.488-4.809 9.144-9.454 4.657-4.645 9.476-9.121t9.794-8.778 10.101-8.424 10.395-8.058 10.675-7.682q5.407-3.746 10.943-7.297T211.97 52.5t11.435-6.5 11.658-6.087 11.869-5.668 12.062-5.242 12.242-4.808q6.164-2.295 12.406-4.37 6.241-2.073 12.553-3.923t12.685-3.475q6.374-1.624 12.801-3.02t12.9-2.562 12.984-2.1 13.05-1.637 13.1-1.17q6.56-.47 13.134-.704Q393.423 1 400 1v369l279.718-240.664Z"/></svg>