<svg xmlns="http://www.w3.org/2000/svg" width="800" height="800"><path fill="none" d="M0 0h800v800H0z"/><clipPath id="a"><path d="M0 690h800v110H0z"/></clipPath><g clip-path="url(#a)"><path fill="#4caf50" d="M123.3 720h40v20h-40z"/><path fill="none" stroke="#fff" stroke-miterlimit="10" stroke-width="2" d="M123.3 720h40v20h-40z"/><path fill="#ff9800" d="M377.64 720h40v20h-40z"/><path fill="none" stroke="#fff" stroke-miterlimit="10" stroke-width="2" d="M377.64 720h40v20h-40z"/><path fill="#f44336" d="M262.92 770h40v20h-40z"/><path fill="none" stroke="#fff" stroke-miterlimit="10" stroke-width="2" d="M262.92 770h40v20h-40z"/></g><path fill="#4caf50" d="M400 1q4.516 0 9.03.119 4.514.118 9.023.355 4.51.237 9.011.592 4.502.356 8.992.829t8.968 1.064 8.936 1.3 8.9 1.533 8.856 1.767 8.806 1.998 8.751 2.229 8.69 2.458 8.622 2.685 8.548 2.91q4.255 1.511 8.47 3.134 4.214 1.622 8.384 3.355t8.293 3.574 8.196 3.79 8.094 4.005 7.986 4.215 7.873 4.423q3.907 2.264 7.754 4.63 3.847 2.364 7.63 4.83 3.783 2.465 7.5 5.029t7.366 5.224 7.226 5.416 7.082 5.604 6.931 5.787 6.778 5.968 6.619 6.143 6.455 6.316 6.287 6.482 6.115 6.645L400 345z"/><path fill="none" stroke="#fff" stroke-linejoin="bevel" stroke-width="2" d="M400 1q4.516 0 9.03.119 4.514.118 9.023.355 4.51.237 9.011.592 4.502.356 8.992.829t8.968 1.064 8.936 1.3 8.9 1.533 8.856 1.767 8.806 1.998 8.751 2.229 8.69 2.458 8.622 2.685 8.548 2.91q4.255 1.511 8.47 3.134 4.214 1.622 8.384 3.355t8.293 3.574 8.196 3.79 8.094 4.005 7.986 4.215 7.873 4.423q3.907 2.264 7.754 4.63 3.847 2.364 7.63 4.83 3.783 2.465 7.5 5.029t7.366 5.224 7.226 5.416 7.082 5.604 6.931 5.787 6.778 5.968 6.619 6.143 6.455 6.316 6.287 6.482 6.115 6.645L400 345z"/><path fill="#ff9800" d="M656.172 115.409q14.348 16.01 26.592 33.681 12.243 17.672 22.191 36.73L400 345z"/><path fill="none" stroke="#fff" stroke-linejoin="bevel" stroke-width="2" d="M656.172 115.409q14.348 16.01 26.592 33.681 12.243 17.672 22.191 36.73L400 345l256.172-229.591Z"/><path fill="#f44336" d="M704.955 185.82q3.908 7.486 7.444 15.155 3.535 7.67 6.69 15.502 3.155 7.834 5.922 15.812 2.767 7.979 5.14 16.083 2.371 8.105 4.343 16.317 1.971 8.21 3.537 16.51 1.567 8.297 2.724 16.662t1.902 16.777q.746 8.412 1.077 16.85.332 8.438.25 16.883t-.58 16.874-1.407 16.826-2.231 16.736-3.05 16.607-3.86 16.437-4.663 16.228-5.453 15.98-6.23 15.692-6.994 15.368-7.739 15.006-8.465 14.609q-4.413 7.2-9.173 14.176-4.76 6.975-9.857 13.708t-10.518 13.208-11.153 12.677-11.761 12.114-12.342 11.522-12.893 10.902-13.412 10.257-13.899 9.587-14.352 8.892-14.772 8.178q-4.889 2.552-9.857 4.946t-10.01 4.627-10.155 4.304-10.286 3.977-10.409 3.644-10.52 3.31-10.621 2.97-10.71 2.627-10.79 2.284-10.857 1.936-10.913 1.588-10.96 1.236q-5.488.53-10.992.885-5.503.355-11.015.532t-11.027.179q-5.515 0-11.027-.175-5.512-.176-11.016-.528-5.503-.353-10.993-.881-5.49-.53-10.96-1.234-5.469-.704-10.913-1.583-5.444-.88-10.858-1.933-5.413-1.053-10.79-2.28t-10.711-2.624-10.622-2.967-10.522-3.305-10.41-3.641q-5.175-1.904-10.287-3.973t-10.156-4.3q-5.043-2.233-10.012-4.625t-9.859-4.942q-4.89-2.55-9.695-5.256t-9.522-5.564q-7.222-4.377-14.22-9.103t-13.757-9.79-13.26-10.453q-6.5-5.389-12.73-11.09-6.23-5.702-12.171-11.703-5.942-6-11.583-12.285-5.64-6.285-10.966-12.84-5.325-6.553-10.322-13.36-4.997-6.808-9.654-13.852-4.658-7.045-8.963-14.31-4.306-7.264-8.25-14.73-3.945-7.468-7.518-15.12-3.573-7.65-6.767-15.469-3.193-7.817-5.999-15.782t-5.218-16.058-4.423-16.295q-2.012-8.201-3.619-16.492-1.607-8.29-2.805-16.65t-1.985-16.767-1.16-16.844-.33-16.881q.04-8.445.496-16.877.456-8.433 1.325-16.833t2.149-16.747 2.968-16.621 3.78-16.456q2.092-8.181 4.583-16.25t5.375-16.007 6.153-15.723 6.918-15.402 7.665-15.044 8.394-14.65q2.859-4.716 5.867-9.338 3.008-4.623 6.163-9.146 3.154-4.524 6.452-8.944t6.736-8.732 7.013-8.511q3.574-4.2 7.282-8.283 3.707-4.083 7.543-8.045t7.798-7.798 8.043-7.545 8.282-7.284 8.51-7.014 8.731-6.737 8.942-6.454 9.145-6.165 9.338-5.868 9.52-5.565q4.806-2.707 9.695-5.258t9.858-4.944 10.011-4.626q5.043-2.232 10.155-4.302t10.287-3.975 10.41-3.642 10.52-3.308 10.622-2.968 10.71-2.626q5.377-1.228 10.79-2.282 5.414-1.054 10.858-1.935 5.444-.88 10.914-1.585t10.959-1.235 10.992-.883 11.016-.53T400 1v344z"/><path fill="none" stroke="#fff" stroke-linejoin="bevel" stroke-width="2" d="M704.955 185.82q3.908 7.486 7.444 15.155 3.535 7.67 6.69 15.502 3.155 7.834 5.922 15.812 2.767 7.979 5.14 16.083 2.371 8.105 4.343 16.317 1.971 8.21 3.537 16.51 1.567 8.297 2.724 16.662t1.902 16.777q.746 8.412 1.077 16.85.332 8.438.25 16.883t-.58 16.874-1.407 16.826-2.231 16.736-3.05 16.607-3.86 16.437-4.663 16.228-5.453 15.98-6.23 15.692-6.994 15.368-7.739 15.006-8.465 14.609q-4.413 7.2-9.173 14.176-4.76 6.975-9.857 13.708t-10.518 13.208-11.153 12.677-11.761 12.114-12.342 11.522-12.893 10.902-13.412 10.257-13.899 9.587-14.352 8.892-14.772 8.178q-4.889 2.552-9.857 4.946t-10.01 4.627-10.155 4.304-10.286 3.977-10.409 3.644-10.52 3.31-10.621 2.97-10.71 2.627-10.79 2.284-10.857 1.936-10.913 1.588-10.96 1.236q-5.488.53-10.992.885-5.503.355-11.015.532t-11.027.179q-5.515 0-11.027-.175-5.512-.176-11.016-.528-5.503-.353-10.993-.881-5.49-.53-10.96-1.234-5.469-.704-10.913-1.583-5.444-.88-10.858-1.933-5.413-1.053-10.79-2.28t-10.711-2.624-10.622-2.967-10.522-3.305-10.41-3.641q-5.175-1.904-10.287-3.973t-10.156-4.3q-5.043-2.233-10.012-4.625t-9.859-4.942q-4.89-2.55-9.695-5.256t-9.522-5.564q-7.222-4.377-14.22-9.103t-13.757-9.79-13.26-10.453q-6.5-5.389-12.73-11.09-6.23-5.702-12.171-11.703-5.942-6-11.583-12.285-5.64-6.285-10.966-12.84-5.325-6.553-10.322-13.36-4.997-6.808-9.654-13.852-4.658-7.045-8.963-14.31-4.306-7.264-8.25-14.73-3.945-7.468-7.518-15.12-3.573-7.65-6.767-15.469-3.193-7.817-5.999-15.782t-5.218-16.058-4.423-16.295q-2.012-8.201-3.619-16.492-1.607-8.29-2.805-16.65t-1.985-16.767-1.16-16.844-.33-16.881q.04-8.445.496-16.877.456-8.433 1.325-16.833t2.149-16.747 2.968-16.621 3.78-16.456q2.092-8.181 4.583-16.25t5.375-16.007 6.153-15.723 6.918-15.402 7.665-15.044 8.394-14.65q2.859-4.716 5.867-9.338 3.008-4.623 6.163-9.146 3.154-4.524 6.452-8.944t6.736-8.732 7.013-8.511q3.574-4.2 7.282-8.283 3.707-4.083 7.543-8.045t7.798-7.798 8.043-7.545 8.282-7.284 8.51-7.014 8.731-6.737 8.942-6.454 9.145-6.165 9.338-5.868 9.52-5.565q4.806-2.707 9.695-5.258t9.858-4.944 10.011-4.626q5.043-2.232 10.155-4.302t10.287-3.975 10.41-3.642 10.52-3.308 10.622-2.968 10.71-2.626q5.377-1.228 10.79-2.282 5.414-1.054 10.858-1.935 5.444-.88 10.914-1.585t10.959-1.235 10.992-.883 11.016-.53T400 1v344l304.955-159.18Z"/></svg>