<svg xmlns="http://www.w3.org/2000/svg" width="800" height="800"><path fill="none" d="M0 0h800v800H0z"/><clipPath id="a"><path d="M0 740h800v60H0z"/></clipPath><g clip-path="url(#a)"><path fill="#4caf50" d="M144.605 770h40v20h-40z"/><path fill="none" stroke="#fff" stroke-miterlimit="10" stroke-width="2" d="M144.605 770h40v20h-40z"/><text x="194.605, 207.94484, 217.50539, 230.38625, 240.64992, 248.68703, 260.52295," y="787.5," fill="#666" font-family="DejaVu Serif" font-size="20">Trusted</text><path fill="#ff9800" d="M303.325 770h40v20h-40z"/><path fill="none" stroke="#fff" stroke-miterlimit="10" stroke-width="2" d="M303.325 770h40v20h-40z"/><text x="353.32501, 366.78204, 376.34259, 388.38361, 399.68243, 411.51837, 424.39923, 436.32306, 449.20392, 460.40509," y="787.5," fill="#666" font-family="DejaVu Serif" font-size="20">Provenance</text><path fill="#f44336" d="M502.245 770h40v20h-40z"/><path fill="none" stroke="#fff" stroke-miterlimit="10" stroke-width="2" d="M502.245 770h40v20h-40z"/><text x="552.245, 569.10046, 581.98132, 590.01843, 599.57898, 612.45984, 622.72351, 630.76062, 642.59656," y="787.5," fill="#666" font-family="DejaVu Serif" font-size="20">Untrusted</text></g><path fill="#4caf50" d="M400 1q7.52 0 15.032.306 7.513.307 15.007.919t14.957 1.529T459.88 5.89t14.783 2.741 14.66 3.342 14.51 3.936 14.339 4.524 14.142 5.104 13.922 5.676 13.68 6.238 13.415 6.79q6.638 3.533 13.126 7.332 6.489 3.8 12.817 7.86t12.487 8.376q6.157 4.315 12.134 8.877L400 370z"/><path fill="none" stroke="#fff" stroke-linejoin="bevel" stroke-width="2" d="M400 1q7.52 0 15.032.306 7.513.307 15.007.919t14.957 1.529T459.88 5.89t14.783 2.741 14.66 3.342 14.51 3.936 14.339 4.524 14.142 5.104 13.922 5.676 13.68 6.238 13.415 6.79q6.638 3.533 13.126 7.332 6.489 3.8 12.817 7.86t12.487 8.376q6.157 4.315 12.134 8.877L400 370z"/><path fill="#ff9800" d="M623.894 76.687q10.364 7.911 20.144 16.534t18.926 17.914 17.614 19.205q8.469 9.914 16.216 20.401L400 370z"/><path fill="none" stroke="#fff" stroke-linejoin="bevel" stroke-width="2" d="M623.894 76.687q10.364 7.911 20.144 16.534t18.926 17.914 17.614 19.205q8.469 9.914 16.216 20.401L400 370 623.894 76.687Z"/><path fill="#f44336" d="M696.794 150.741q5.382 7.286 10.4 14.827 5.02 7.541 9.662 15.32 4.642 7.778 8.897 15.775t8.113 16.193 7.309 16.57q3.45 8.376 6.486 16.91t5.65 17.209 4.797 17.464 3.936 17.679q1.75 8.887 3.063 17.85 1.312 8.963 2.183 17.98.871 9.016 1.299 18.065.427 9.048.41 18.106t-.478 18.105-1.366 18.06-2.25 17.971-3.13 17.84q-1.784 8.88-4.002 17.663t-4.863 17.446q-2.646 8.664-5.713 17.187t-6.55 16.886-7.37 16.544q-3.889 8.181-8.174 16.162t-8.956 15.742-9.718 15.283q-5.047 7.523-10.457 14.788t-11.169 14.258q-5.76 6.991-11.855 13.692-6.096 6.7-12.513 13.093-6.418 6.394-13.14 12.464-6.724 6.071-13.737 11.805-7.013 5.733-14.299 11.116-5.118 3.78-10.363 7.383-5.246 3.602-10.612 7.022-5.367 3.419-10.848 6.651-5.48 3.232-11.07 6.274-5.59 3.04-11.28 5.888-5.691 2.847-11.477 5.495-5.785 2.65-11.659 5.097-5.873 2.448-11.828 4.692t-11.982 4.281q-6.029 2.037-12.124 3.865t-12.249 3.446-12.36 3.02q-6.207 1.404-12.458 2.593t-12.54 2.162q-6.288.973-12.606 1.728t-12.659 1.292-12.695.856-12.718.417-12.724-.022-12.717-.46-12.692-.9-12.655-1.335-12.6-1.771-12.532-2.205-12.449-2.635-12.35-3.063-12.237-3.487q-6.089-1.85-12.11-3.907t-11.968-4.322-11.812-4.733-11.642-5.136-11.457-5.535q-8.088-4.08-15.965-8.553-7.877-4.472-15.526-9.325-7.649-4.854-15.05-10.077-7.4-5.223-14.537-10.802-7.136-5.58-13.99-11.503-6.853-5.923-13.408-12.176-6.555-6.252-12.795-12.818-6.24-6.567-12.15-13.431-5.91-6.865-11.477-14.011-5.566-7.147-10.775-14.558t-10.048-15.068q-4.84-7.658-9.297-15.544-4.457-7.885-8.522-15.98t-7.729-16.38q-3.663-8.285-6.915-16.74t-6.086-17.058-5.241-17.336-4.384-17.573-3.517-17.767-2.64-17.918q-1.101-8.99-1.76-18.025-.657-9.035-.871-18.09-.214-9.057.017-18.112.23-9.056.905-18.089t1.792-18.023q1.118-8.989 2.675-17.912 1.557-8.924 3.55-17.76t4.417-17.565 5.273-17.327 6.118-17.047 6.946-16.726 7.76-16.365q2.866-5.681 5.926-11.26 3.06-5.58 6.311-11.05t6.69-10.824 7.057-10.588q3.62-5.233 7.419-10.338t7.77-10.076q3.973-4.97 8.114-9.802t8.447-9.517q4.305-4.685 8.77-9.22 4.464-4.534 9.082-8.911 4.618-4.378 9.384-8.594t9.675-8.264 9.954-7.927 10.222-7.578 10.477-7.221 10.72-6.856 10.949-6.483 11.166-6.1 11.37-5.713 11.56-5.317q5.827-2.558 11.738-4.915 5.91-2.356 11.9-4.507 5.988-2.151 12.047-4.095t12.182-3.676 12.3-3.255q6.18-1.52 12.407-2.828t12.496-2.4 12.572-1.966q6.303-.875 12.632-1.532t12.677-1.096 12.707-.658T400 1v369z"/><path fill="none" stroke="#fff" stroke-linejoin="bevel" stroke-width="2" d="M696.794 150.741q5.382 7.286 10.4 14.827 5.02 7.541 9.662 15.32 4.642 7.778 8.897 15.775t8.113 16.193 7.309 16.57q3.45 8.376 6.486 16.91t5.65 17.209 4.797 17.464 3.936 17.679q1.75 8.887 3.063 17.85 1.312 8.963 2.183 17.98.871 9.016 1.299 18.065.427 9.048.41 18.106t-.478 18.105-1.366 18.06-2.25 17.971-3.13 17.84q-1.784 8.88-4.002 17.663t-4.863 17.446q-2.646 8.664-5.713 17.187t-6.55 16.886-7.37 16.544q-3.889 8.181-8.174 16.162t-8.956 15.742-9.718 15.283q-5.047 7.523-10.457 14.788t-11.169 14.258q-5.76 6.991-11.855 13.692-6.096 6.7-12.513 13.093-6.418 6.394-13.14 12.464-6.724 6.071-13.737 11.805-7.013 5.733-14.299 11.116-5.118 3.78-10.363 7.383-5.246 3.602-10.612 7.022-5.367 3.419-10.848 6.651-5.48 3.232-11.07 6.274-5.59 3.04-11.28 5.888-5.691 2.847-11.477 5.495-5.785 2.65-11.659 5.097-5.873 2.448-11.828 4.692t-11.982 4.281q-6.029 2.037-12.124 3.865t-12.249 3.446-12.36 3.02q-6.207 1.404-12.458 2.593t-12.54 2.162q-6.288.973-12.606 1.728t-12.659 1.292-12.695.856-12.718.417-12.724-.022-12.717-.46-12.692-.9-12.655-1.335-12.6-1.771-12.532-2.205-12.449-2.635-12.35-3.063-12.237-3.487q-6.089-1.85-12.11-3.907t-11.968-4.322-11.812-4.733-11.642-5.136-11.457-5.535q-8.088-4.08-15.965-8.553-7.877-4.472-15.526-9.325-7.649-4.854-15.05-10.077-7.4-5.223-14.537-10.802-7.136-5.58-13.99-11.503-6.853-5.923-13.408-12.176-6.555-6.252-12.795-12.818-6.24-6.567-12.15-13.431-5.91-6.865-11.477-14.011-5.566-7.147-10.775-14.558t-10.048-15.068q-4.84-7.658-9.297-15.544-4.457-7.885-8.522-15.98t-7.729-16.38q-3.663-8.285-6.915-16.74t-6.086-17.058-5.241-17.336-4.384-17.573-3.517-17.767-2.64-17.918q-1.101-8.99-1.76-18.025-.657-9.035-.871-18.09-.214-9.057.017-18.112.23-9.056.905-18.089t1.792-18.023q1.118-8.989 2.675-17.912 1.557-8.924 3.55-17.76t4.417-17.565 5.273-17.327 6.118-17.047 6.946-16.726 7.76-16.365q2.866-5.681 5.926-11.26 3.06-5.58 6.311-11.05t6.69-10.824 7.057-10.588q3.62-5.233 7.419-10.338t7.77-10.076q3.973-4.97 8.114-9.802t8.447-9.517q4.305-4.685 8.77-9.22 4.464-4.534 9.082-8.911 4.618-4.378 9.384-8.594t9.675-8.264 9.954-7.927 10.222-7.578 10.477-7.221 10.72-6.856 10.949-6.483 11.166-6.1 11.37-5.713 11.56-5.317q5.827-2.558 11.738-4.915 5.91-2.356 11.9-4.507 5.988-2.151 12.047-4.095t12.182-3.676 12.3-3.255q6.18-1.52 12.407-2.828t12.496-2.4 12.572-1.966q6.303-.875 12.632-1.532t12.677-1.096 12.707-.658T400 1v369z"/></svg>