<svg xmlns="http://www.w3.org/2000/svg" width="800" height="800"><path fill="none" d="M0 0h800v800H0z"/><clipPath id="a"><path d="M0 690h800v110H0z"/></clipPath><g clip-path="url(#a)"><path fill="#4caf50" d="M123.3 720h40v20h-40z"/><path fill="none" stroke="#fff" stroke-miterlimit="10" stroke-width="2" d="M123.3 720h40v20h-40z"/><path fill="#ff9800" d="M377.64 720h40v20h-40z"/><path fill="none" stroke="#fff" stroke-miterlimit="10" stroke-width="2" d="M377.64 720h40v20h-40z"/><path fill="#f44336" d="M262.92 770h40v20h-40z"/><path fill="none" stroke="#fff" stroke-miterlimit="10" stroke-width="2" d="M262.92 770h40v20h-40z"/></g><path fill="#4caf50" d="M400 1q4.722 0 9.442.13t9.435.388 9.42.648q4.707.388 9.4.906 4.693.517 9.371 1.163 4.677.646 9.336 1.42 4.657.775 9.292 1.677 4.635.901 9.244 1.93 4.608 1.029 9.187 2.183 4.579 1.155 9.124 2.435t9.053 2.684 8.976 2.932 8.893 3.177 8.802 3.42 8.704 3.66 8.601 3.898 8.49 4.133 8.375 4.363 8.251 4.592 8.122 4.817 7.987 5.038 7.845 5.255 7.699 5.47q3.811 2.786 7.545 5.677t7.386 5.883q3.653 2.992 7.223 6.083t7.052 6.28 6.878 6.47 6.697 6.657 6.513 6.838 6.322 7.014 6.127 7.186L400 345z"/><path fill="none" stroke="#fff" stroke-linejoin="bevel" stroke-width="2" d="M400 1q4.722 0 9.442.13t9.435.388 9.42.648q4.707.388 9.4.906 4.693.517 9.371 1.163 4.677.646 9.336 1.42 4.657.775 9.292 1.677 4.635.901 9.244 1.93 4.608 1.029 9.187 2.183 4.579 1.155 9.124 2.435t9.053 2.684 8.976 2.932 8.893 3.177 8.802 3.42 8.704 3.66 8.601 3.898 8.49 4.133 8.375 4.363 8.251 4.592 8.122 4.817 7.987 5.038 7.845 5.255 7.699 5.47q3.811 2.786 7.545 5.677t7.386 5.883q3.653 2.992 7.223 6.083t7.052 6.28 6.878 6.47 6.697 6.657 6.513 6.838 6.322 7.014 6.127 7.186L400 345z"/><path fill="#ff9800" d="M664.792 125.407q13.63 16.436 25.124 34.432 11.493 17.995 20.673 37.274L400 345z"/><path fill="none" stroke="#fff" stroke-linejoin="bevel" stroke-width="2" d="M664.792 125.407q13.63 16.436 25.124 34.432 11.493 17.995 20.673 37.274L400 345l264.792-219.593Z"/><path fill="#f44336" d="M710.589 197.113q3.63 7.625 6.882 15.418 3.252 7.794 6.118 15.737 2.865 7.944 5.338 16.019t4.545 16.26q2.074 8.187 3.742 16.465 1.67 8.278 2.93 16.628t2.11 16.752 1.287 16.836.458 16.878-.37 16.88-1.199 16.842q-.806 8.406-2.023 16.763-1.218 8.356-2.844 16.643t-3.656 16.484q-2.03 8.196-4.461 16.284-2.43 8.087-5.255 16.046t-6.035 15.769q-3.212 7.81-6.802 15.453-3.591 7.643-7.553 15.101t-8.284 14.713-8.996 14.288-9.686 13.83-10.353 13.337-10.995 12.814-11.61 12.259q-5.957 5.987-12.199 11.674t-12.756 11.061q-6.514 5.375-13.284 10.423t-13.779 9.758-14.241 9.07-14.67 8.36-15.061 7.631q-4.89 2.328-9.851 4.502t-9.989 4.19-10.115 3.872-10.232 3.553-10.338 3.228-10.436 2.902q-5.24 1.369-10.521 2.572t-10.597 2.239-10.663 1.904-10.717 1.568-10.76 1.23-10.795.89q-5.405.36-10.818.55t-10.829.209q-5.416.02-10.83-.132-5.414-.151-10.82-.473-5.408-.321-10.801-.813-5.394-.492-10.77-1.153t-10.728-1.491-10.676-1.829-10.613-2.163-10.54-2.497-10.455-2.827-10.361-3.155-10.257-3.48-10.143-3.8-10.018-4.118-9.883-4.432-9.738-4.74-9.585-5.045-9.421-5.344-9.248-5.637q-7.14-4.509-14.051-9.363-6.91-4.853-13.575-10.04t-13.066-10.694q-6.401-5.508-12.525-11.323t-11.954-11.923-11.356-12.496-10.728-13.038q-5.204-6.65-10.075-13.549-4.872-6.898-9.4-14.026-4.526-7.129-8.698-14.471t-7.979-14.88q-3.807-7.538-7.239-15.254t-6.481-15.591-5.71-15.89-4.921-16.15q-2.263-8.137-4.124-16.374t-3.316-16.556q-1.454-8.318-2.499-16.698t-1.677-16.8q-.632-8.422-.85-16.864t-.022-16.884.806-16.865q.61-8.423 1.634-16.805 1.022-8.383 2.455-16.705t3.273-16.564q1.84-8.242 4.081-16.384t4.88-16.164 5.668-15.905 6.44-15.607 7.2-15.273 7.94-14.9 8.661-14.494q2.892-4.58 5.927-9.066t6.208-8.875 6.485-8.675 6.755-8.467 7.018-8.25 7.275-8.025 7.523-7.792 7.765-7.55 7.999-7.304 8.225-7.047 8.442-6.785 8.652-6.516 8.853-6.24 9.045-5.959 9.228-5.67q4.659-2.764 9.402-5.378t9.567-5.079q4.823-2.464 9.721-4.775 4.899-2.311 9.868-4.467 4.968-2.155 10.003-4.154 5.034-1.998 10.128-3.836 5.095-1.84 10.245-3.517t10.35-3.191 10.446-2.865q5.245-1.35 10.53-2.534t10.605-2.201 10.67-1.867 10.722-1.53 10.766-1.19 10.797-.852 10.82-.511Q394.583 1 400 1v344z"/><path fill="none" stroke="#fff" stroke-linejoin="bevel" stroke-width="2" d="M710.589 197.113q3.63 7.625 6.882 15.418 3.252 7.794 6.118 15.737 2.865 7.944 5.338 16.019t4.545 16.26q2.074 8.187 3.742 16.465 1.67 8.278 2.93 16.628t2.11 16.752 1.287 16.836.458 16.878-.37 16.88-1.199 16.842q-.806 8.406-2.023 16.763-1.218 8.356-2.844 16.643t-3.656 16.484q-2.03 8.196-4.461 16.284-2.43 8.087-5.255 16.046t-6.035 15.769q-3.212 7.81-6.802 15.453-3.591 7.643-7.553 15.101t-8.284 14.713-8.996 14.288-9.686 13.83-10.353 13.337-10.995 12.814-11.61 12.259q-5.957 5.987-12.199 11.674t-12.756 11.061q-6.514 5.375-13.284 10.423t-13.779 9.758-14.241 9.07-14.67 8.36-15.061 7.631q-4.89 2.328-9.851 4.502t-9.989 4.19-10.115 3.872-10.232 3.553-10.338 3.228-10.436 2.902q-5.24 1.369-10.521 2.572t-10.597 2.239-10.663 1.904-10.717 1.568-10.76 1.23-10.795.89q-5.405.36-10.818.55t-10.829.209q-5.416.02-10.83-.132-5.414-.151-10.82-.473-5.408-.321-10.801-.813-5.394-.492-10.77-1.153t-10.728-1.491-10.676-1.829-10.613-2.163-10.54-2.497-10.455-2.827-10.361-3.155-10.257-3.48-10.143-3.8-10.018-4.118-9.883-4.432-9.738-4.74-9.585-5.045-9.421-5.344-9.248-5.637q-7.14-4.509-14.051-9.363-6.91-4.853-13.575-10.04t-13.066-10.694q-6.401-5.508-12.525-11.323t-11.954-11.923-11.356-12.496-10.728-13.038q-5.204-6.65-10.075-13.549-4.872-6.898-9.4-14.026-4.526-7.129-8.698-14.471t-7.979-14.88q-3.807-7.538-7.239-15.254t-6.481-15.591-5.71-15.89-4.921-16.15q-2.263-8.137-4.124-16.374t-3.316-16.556q-1.454-8.318-2.499-16.698t-1.677-16.8q-.632-8.422-.85-16.864t-.022-16.884.806-16.865q.61-8.423 1.634-16.805 1.022-8.383 2.455-16.705t3.273-16.564q1.84-8.242 4.081-16.384t4.88-16.164 5.668-15.905 6.44-15.607 7.2-15.273 7.94-14.9 8.661-14.494q2.892-4.58 5.927-9.066t6.208-8.875 6.485-8.675 6.755-8.467 7.018-8.25 7.275-8.025 7.523-7.792 7.765-7.55 7.999-7.304 8.225-7.047 8.442-6.785 8.652-6.516 8.853-6.24 9.045-5.959 9.228-5.67q4.659-2.764 9.402-5.378t9.567-5.079q4.823-2.464 9.721-4.775 4.899-2.311 9.868-4.467 4.968-2.155 10.003-4.154 5.034-1.998 10.128-3.836 5.095-1.84 10.245-3.517t10.35-3.191 10.446-2.865q5.245-1.35 10.53-2.534t10.605-2.201 10.67-1.867 10.722-1.53 10.766-1.19 10.797-.852 10.82-.511Q394.583 1 400 1v344l310.589-147.887Z"/></svg>