<svg xmlns="http://www.w3.org/2000/svg" width="800" height="800"><path fill="none" d="M0 0h800v800H0z"/><clipPath id="a"><path d="M0 740h800v60H0z"/></clipPath><g clip-path="url(#a)"><path fill="#4caf50" d="M144.605 770h40v20h-40z"/><path fill="none" stroke="#fff" stroke-miterlimit="10" stroke-width="2" d="M144.605 770h40v20h-40z"/><text x="194.605, 207.94484, 217.50539, 230.38625, 240.64992, 248.68703, 260.52295," y="787.5," fill="#666" font-family="DejaVu Serif" font-size="20">Trusted</text><path fill="#ff9800" d="M303.325 770h40v20h-40z"/><path fill="none" stroke="#fff" stroke-miterlimit="10" stroke-width="2" d="M303.325 770h40v20h-40z"/><text x="353.32501, 366.78204, 376.34259, 388.38361, 399.68243, 411.51837, 424.39923, 436.32306, 449.20392, 460.40509," y="787.5," fill="#666" font-family="DejaVu Serif" font-size="20">Provenance</text><path fill="#f44336" d="M502.245 770h40v20h-40z"/><path fill="none" stroke="#fff" stroke-miterlimit="10" stroke-width="2" d="M502.245 770h40v20h-40z"/><text x="552.245, 569.10046, 581.98132, 590.01843, 599.57898, 612.45984, 622.72351, 630.76062, 642.59656," y="787.5," fill="#666" font-family="DejaVu Serif" font-size="20">Untrusted</text></g><path fill="#4caf50" d="M400 1q11.14 0 22.259.672t22.177 2.013 22.016 3.348q10.958 2.006 21.774 4.67 10.817 2.663 21.453 5.974 10.636 3.31 21.053 7.257t20.576 8.515q10.16 4.568 20.026 9.74L400 370z"/><path fill="none" stroke="#fff" stroke-linejoin="bevel" stroke-width="2" d="M400 1q11.14 0 22.259.672t22.177 2.013 22.016 3.348q10.958 2.006 21.774 4.67 10.817 2.663 21.453 5.974 10.636 3.31 21.053 7.257t20.576 8.515q10.16 4.568 20.026 9.74L400 370z"/><path fill="#ff9800" d="M571.334 43.189q13.825 7.248 26.989 15.637 13.163 8.39 25.571 17.861t23.972 19.957 22.2 21.91L400 370z"/><path fill="none" stroke="#fff" stroke-linejoin="bevel" stroke-width="2" d="M571.334 43.189q13.825 7.248 26.989 15.637 13.163 8.39 25.571 17.861t23.972 19.957 22.2 21.91L400 370 571.334 43.189Z"/><path fill="#f44336" d="M670.066 118.554q6.173 6.63 12.013 13.554t11.333 14.128q5.493 7.202 10.626 14.666t9.894 15.17q4.76 7.707 9.137 15.638 4.377 7.93 8.36 16.067 3.982 8.136 7.56 16.458t6.744 16.809 5.911 17.12 5.064 17.388 4.205 17.617 3.335 17.802 2.458 17.944q1.008 9.002 1.574 18.042.565 9.041.687 18.099.121 9.057-.202 18.11t-1.09 18.079-1.976 18.003q-1.21 8.977-2.857 17.885-1.648 8.907-3.731 17.723t-4.597 17.518-5.45 17.272-6.291 16.984-7.117 16.654-7.926 16.285-8.715 15.877-9.484 15.43q-4.93 7.599-10.229 14.946-5.298 7.348-10.95 14.426-5.653 7.079-11.645 13.872-5.993 6.792-12.312 13.283t-12.949 12.663q-4.896 4.56-9.955 8.938-5.058 4.378-10.272 8.57t-10.577 8.193-10.866 7.804-11.143 7.405-11.403 6.996q-5.765 3.394-11.65 6.578-5.884 3.183-11.88 6.151t-12.095 5.717-12.295 5.275q-6.195 2.525-12.478 4.825t-12.645 4.37-12.794 3.909q-6.433 1.838-12.928 3.442t-13.045 2.971-13.143 2.497-13.225 2.018-13.29 1.538-13.337 1.055-13.366.57-13.378.087-13.373-.4-13.349-.883-13.308-1.367-13.25-1.848-13.175-2.328-13.081-2.803-12.972-3.276-12.843-3.744-12.7-4.207q-6.312-2.22-12.539-4.665-6.227-2.446-12.361-5.116-8.306-3.616-16.425-7.634-8.118-4.019-16.03-8.43-7.91-4.413-15.596-9.207-7.685-4.795-15.126-9.962t-14.62-10.69-14.076-11.396-13.501-12.073-12.892-12.72q-6.29-6.52-12.253-13.339t-11.583-13.923q-5.621-7.103-10.886-14.474-5.266-7.371-10.163-14.992-4.898-7.62-9.415-15.472-4.518-7.851-8.645-15.915t-7.853-16.32-7.043-16.686-6.216-17.012-5.373-17.296-4.518-17.538-3.653-17.74-2.777-17.897-1.896-18.012-1.01-18.083-.121-18.111q.161-9.057.767-18.095t1.655-18.036 2.537-17.933 3.414-17.786q1.926-8.852 4.283-17.598t5.142-17.367q2.783-8.62 5.987-17.093 3.203-8.473 6.818-16.779 2.67-6.134 5.561-12.168t5.999-11.958 6.428-11.733 6.849-11.492 7.26-11.237 7.664-10.966 8.056-10.68 8.438-10.382q4.314-5.115 8.81-10.07 4.495-4.954 9.167-9.743 4.673-4.788 9.515-9.404t9.85-9.054 10.172-8.69 10.48-8.316 10.774-7.93q5.46-3.868 11.055-7.535 5.596-3.667 11.32-7.13 5.726-3.461 11.573-6.713 5.846-3.252 11.807-6.29 5.96-3.038 12.028-5.858 6.067-2.82 12.232-5.418t12.42-4.971 12.593-4.518 12.748-4.058 12.887-3.594 13.009-3.124 13.113-2.65 13.2-2.173 13.272-1.693 13.323-1.211 13.359-.727T400 1v369z"/><path fill="none" stroke="#fff" stroke-linejoin="bevel" stroke-width="2" d="M670.066 118.554q6.173 6.63 12.013 13.554t11.333 14.128q5.493 7.202 10.626 14.666t9.894 15.17q4.76 7.707 9.137 15.638 4.377 7.93 8.36 16.067 3.982 8.136 7.56 16.458t6.744 16.809 5.911 17.12 5.064 17.388 4.205 17.617 3.335 17.802 2.458 17.944q1.008 9.002 1.574 18.042.565 9.041.687 18.099.121 9.057-.202 18.11t-1.09 18.079-1.976 18.003q-1.21 8.977-2.857 17.885-1.648 8.907-3.731 17.723t-4.597 17.518-5.45 17.272-6.291 16.984-7.117 16.654-7.926 16.285-8.715 15.877-9.484 15.43q-4.93 7.599-10.229 14.946-5.298 7.348-10.95 14.426-5.653 7.079-11.645 13.872-5.993 6.792-12.312 13.283t-12.949 12.663q-4.896 4.56-9.955 8.938-5.058 4.378-10.272 8.57t-10.577 8.193-10.866 7.804-11.143 7.405-11.403 6.996q-5.765 3.394-11.65 6.578-5.884 3.183-11.88 6.151t-12.095 5.717-12.295 5.275q-6.195 2.525-12.478 4.825t-12.645 4.37-12.794 3.909q-6.433 1.838-12.928 3.442t-13.045 2.971-13.143 2.497-13.225 2.018-13.29 1.538-13.337 1.055-13.366.57-13.378.087-13.373-.4-13.349-.883-13.308-1.367-13.25-1.848-13.175-2.328-13.081-2.803-12.972-3.276-12.843-3.744-12.7-4.207q-6.312-2.22-12.539-4.665-6.227-2.446-12.361-5.116-8.306-3.616-16.425-7.634-8.118-4.019-16.03-8.43-7.91-4.413-15.596-9.207-7.685-4.795-15.126-9.962t-14.62-10.69-14.076-11.396-13.501-12.073-12.892-12.72q-6.29-6.52-12.253-13.339t-11.583-13.923q-5.621-7.103-10.886-14.474-5.266-7.371-10.163-14.992-4.898-7.62-9.415-15.472-4.518-7.851-8.645-15.915t-7.853-16.32-7.043-16.686-6.216-17.012-5.373-17.296-4.518-17.538-3.653-17.74-2.777-17.897-1.896-18.012-1.01-18.083-.121-18.111q.161-9.057.767-18.095t1.655-18.036 2.537-17.933 3.414-17.786q1.926-8.852 4.283-17.598t5.142-17.367q2.783-8.62 5.987-17.093 3.203-8.473 6.818-16.779 2.67-6.134 5.561-12.168t5.999-11.958 6.428-11.733 6.849-11.492 7.26-11.237 7.664-10.966 8.056-10.68 8.438-10.382q4.314-5.115 8.81-10.07 4.495-4.954 9.167-9.743 4.673-4.788 9.515-9.404t9.85-9.054 10.172-8.69 10.48-8.316 10.774-7.93q5.46-3.868 11.055-7.535 5.596-3.667 11.32-7.13 5.726-3.461 11.573-6.713 5.846-3.252 11.807-6.29 5.96-3.038 12.028-5.858 6.067-2.82 12.232-5.418t12.42-4.971 12.593-4.518 12.748-4.058 12.887-3.594 13.009-3.124 13.113-2.65 13.2-2.173 13.272-1.693 13.323-1.211 13.359-.727T400 1v369l270.066-251.446Z"/></svg>