<svg xmlns="http://www.w3.org/2000/svg" width="800" height="800"><path fill="none" d="M0 0h800v800H0z"/><clipPath id="a"><path d="M0 740h800v60H0z"/></clipPath><g clip-path="url(#a)"><path fill="#4caf50" d="M144.605 770h40v20h-40z"/><path fill="none" stroke="#fff" stroke-miterlimit="10" stroke-width="2" d="M144.605 770h40v20h-40z"/><text x="194.605, 207.94484, 217.50539, 230.38625, 240.64992, 248.68703, 260.52295," y="787.5," fill="#666" font-family="DejaVu Serif" font-size="20">Trusted</text><path fill="#ff9800" d="M303.325 770h40v20h-40z"/><path fill="none" stroke="#fff" stroke-miterlimit="10" stroke-width="2" d="M303.325 770h40v20h-40z"/><text x="353.32501, 366.78204, 376.34259, 388.38361, 399.68243, 411.51837, 424.39923, 436.32306, 449.20392, 460.40509," y="787.5," fill="#666" font-family="DejaVu Serif" font-size="20">Provenance</text><path fill="#f44336" d="M502.245 770h40v20h-40z"/><path fill="none" stroke="#fff" stroke-miterlimit="10" stroke-width="2" d="M502.245 770h40v20h-40z"/><text x="552.245, 569.10046, 581.98132, 590.01843, 599.57898, 612.45984, 622.72351, 630.76062, 642.59656," y="787.5," fill="#666" font-family="DejaVu Serif" font-size="20">Untrusted</text></g><path fill="#4caf50" d="M400 1q6.639 0 13.273.239t13.256.716 13.221 1.192 13.17 1.668 13.102 2.14 13.016 2.61q6.484 1.421 12.914 3.075t12.794 3.54 12.66 3.996q6.293 2.112 12.507 4.45t12.339 4.896 12.155 5.337 11.955 5.77q5.926 2.994 11.74 6.198t11.51 6.616q5.694 3.41 11.263 7.025L400 370z"/><path fill="none" stroke="#fff" stroke-linejoin="bevel" stroke-width="2" d="M400 1q6.639 0 13.273.239t13.256.716 13.221 1.192 13.17 1.668 13.102 2.14 13.016 2.61q6.484 1.421 12.914 3.075t12.794 3.54 12.66 3.996q6.293 2.112 12.507 4.45t12.339 4.896 12.155 5.337 11.955 5.77q5.926 2.994 11.74 6.198t11.51 6.616q5.694 3.41 11.263 7.025L400 370z"/><path fill="#ff9800" d="M600.875 60.468q11.231 7.288 21.904 15.372t20.733 16.918 19.452 18.377 18.069 19.738L400 370z"/><path fill="none" stroke="#fff" stroke-linejoin="bevel" stroke-width="2" d="M600.875 60.468q11.231 7.288 21.904 15.372t20.733 16.918 19.452 18.377 18.069 19.738L400 370 600.875 60.468Z"/><path fill="#f44336" d="M681.033 130.873q5.87 6.9 11.395 14.078 5.524 7.179 10.69 14.62t9.96 15.127q4.795 7.685 9.206 15.597 4.412 7.911 8.43 16.03t7.632 16.425 6.818 16.779 5.986 17.093 5.14 17.367q2.357 8.746 4.282 17.598t3.413 17.787 2.537 17.933q1.048 8.997 1.653 18.036.606 9.038.767 18.095.16 9.057-.123 18.11-.283 9.055-1.01 18.084t-1.898 18.012q-1.17 8.982-2.778 17.897-1.61 8.914-3.654 17.739t-4.519 17.538q-2.475 8.714-5.375 17.296t-6.216 17.011-7.044 16.686-7.854 16.32-8.646 15.914-9.416 15.472-10.163 14.99-10.887 14.474-11.584 13.923-12.254 13.337-12.893 12.72-13.501 12.072q-4.997 4.252-10.143 8.324-5.145 4.071-10.432 7.957-5.286 3.887-10.708 7.582-5.422 3.696-10.971 7.197t-11.22 6.802-11.455 6.399-11.675 5.987q-5.89 2.89-11.88 5.569t-12.07 5.142q-6.082 2.464-12.247 4.71t-12.406 4.272q-6.24 2.026-12.55 3.829-6.309 1.802-12.678 3.38-6.369 1.576-12.79 2.926t-12.886 2.47-12.966 2.01q-6.5.89-13.029 1.55-6.528.657-13.076 1.083-6.547.426-13.106.619-6.558.192-13.12.152-6.56-.04-13.116-.314t-13.098-.781q-6.542-.507-13.061-1.246t-13.01-1.709-12.94-2.17-12.854-2.63-12.753-3.084-12.635-3.536-12.502-3.983-12.352-4.425-12.187-4.862-12.006-5.291q-8.223-3.8-16.25-8-8.026-4.198-15.837-8.786-7.81-4.587-15.387-9.553-7.576-4.965-14.9-10.297-7.323-5.33-14.376-11.015-7.054-5.684-13.82-11.707-6.765-6.024-13.227-12.372t-12.605-13.005-11.951-13.609-11.27-14.178-10.56-14.714q-5.099-7.487-9.824-15.215-4.726-7.728-9.067-15.679-4.341-7.95-8.287-16.104t-7.486-16.492-6.669-16.84q-3.127-8.5-5.834-17.145t-4.985-17.412q-2.28-8.767-4.125-17.635t-3.255-17.817-2.377-17.955-1.493-18.05-.605-18.1q-.081-9.059.283-18.11t1.172-18.073 2.057-17.995q1.25-8.972 2.937-17.871 1.689-8.9 3.811-17.706 2.123-8.806 4.675-17.498 2.553-8.691 5.529-17.247t6.367-16.955q3.392-8.4 7.192-16.622 2.753-5.957 5.715-11.811 2.963-5.855 6.132-11.6 3.168-5.746 6.54-11.375 3.37-5.63 6.94-11.135 3.569-5.506 7.331-10.881 3.763-5.376 7.714-10.614t8.086-10.333q4.135-5.094 8.449-10.038 4.313-4.945 8.8-9.732 4.486-4.788 9.14-9.414t9.47-9.082 9.786-8.74q4.97-4.282 10.09-8.386t10.383-8.022q5.263-3.919 10.661-7.648 5.399-3.73 10.927-7.264t11.177-6.871 11.415-6.47 11.638-6.06q5.873-2.925 11.846-5.641t12.039-5.217q6.066-2.502 12.216-4.786 6.151-2.285 12.38-4.349 6.228-2.064 12.526-3.905 6.297-1.842 12.656-3.458t12.772-3.006q6.413-1.39 12.87-2.55 6.459-1.16 12.954-2.09t13.02-1.63q6.523-.698 13.068-1.164t13.102-.7Q393.44 1 400 1v369z"/><path fill="none" stroke="#fff" stroke-linejoin="bevel" stroke-width="2" d="M681.033 130.873q5.87 6.9 11.395 14.078 5.524 7.179 10.69 14.62t9.96 15.127q4.795 7.685 9.206 15.597 4.412 7.911 8.43 16.03t7.632 16.425 6.818 16.779 5.986 17.093 5.14 17.367q2.357 8.746 4.282 17.598t3.413 17.787 2.537 17.933q1.048 8.997 1.653 18.036.606 9.038.767 18.095.16 9.057-.123 18.11-.283 9.055-1.01 18.084t-1.898 18.012q-1.17 8.982-2.778 17.897-1.61 8.914-3.654 17.739t-4.519 17.538q-2.475 8.714-5.375 17.296t-6.216 17.011-7.044 16.686-7.854 16.32-8.646 15.914-9.416 15.472-10.163 14.99-10.887 14.474-11.584 13.923-12.254 13.337-12.893 12.72-13.501 12.072q-4.997 4.252-10.143 8.324-5.145 4.071-10.432 7.957-5.286 3.887-10.708 7.582-5.422 3.696-10.971 7.197t-11.22 6.802-11.455 6.399-11.675 5.987q-5.89 2.89-11.88 5.569t-12.07 5.142q-6.082 2.464-12.247 4.71t-12.406 4.272q-6.24 2.026-12.55 3.829-6.309 1.802-12.678 3.38-6.369 1.576-12.79 2.926t-12.886 2.47-12.966 2.01q-6.5.89-13.029 1.55-6.528.657-13.076 1.083-6.547.426-13.106.619-6.558.192-13.12.152-6.56-.04-13.116-.314t-13.098-.781q-6.542-.507-13.061-1.246t-13.01-1.709-12.94-2.17-12.854-2.63-12.753-3.084-12.635-3.536-12.502-3.983-12.352-4.425-12.187-4.862-12.006-5.291q-8.223-3.8-16.25-8-8.026-4.198-15.837-8.786-7.81-4.587-15.387-9.553-7.576-4.965-14.9-10.297-7.323-5.33-14.376-11.015-7.054-5.684-13.82-11.707-6.765-6.024-13.227-12.372t-12.605-13.005-11.951-13.609-11.27-14.178-10.56-14.714q-5.099-7.487-9.824-15.215-4.726-7.728-9.067-15.679-4.341-7.95-8.287-16.104t-7.486-16.492-6.669-16.84q-3.127-8.5-5.834-17.145t-4.985-17.412q-2.28-8.767-4.125-17.635t-3.255-17.817-2.377-17.955-1.493-18.05-.605-18.1q-.081-9.059.283-18.11t1.172-18.073 2.057-17.995q1.25-8.972 2.937-17.871 1.689-8.9 3.811-17.706 2.123-8.806 4.675-17.498 2.553-8.691 5.529-17.247t6.367-16.955q3.392-8.4 7.192-16.622 2.753-5.957 5.715-11.811 2.963-5.855 6.132-11.6 3.168-5.746 6.54-11.375 3.37-5.63 6.94-11.135 3.569-5.506 7.331-10.881 3.763-5.376 7.714-10.614t8.086-10.333q4.135-5.094 8.449-10.038 4.313-4.945 8.8-9.732 4.486-4.788 9.14-9.414t9.47-9.082 9.786-8.74q4.97-4.282 10.09-8.386t10.383-8.022q5.263-3.919 10.661-7.648 5.399-3.73 10.927-7.264t11.177-6.871 11.415-6.47 11.638-6.06q5.873-2.925 11.846-5.641t12.039-5.217q6.066-2.502 12.216-4.786 6.151-2.285 12.38-4.349 6.228-2.064 12.526-3.905 6.297-1.842 12.656-3.458t12.772-3.006q6.413-1.39 12.87-2.55 6.459-1.16 12.954-2.09t13.02-1.63q6.523-.698 13.068-1.164t13.102-.7Q393.44 1 400 1v369l281.033-239.127Z"/></svg>