<svg xmlns="http://www.w3.org/2000/svg" width="800" height="800"><path fill="none" d="M0 0h800v800H0z"/><clipPath id="a"><path d="M0 740h800v60H0z"/></clipPath><g clip-path="url(#a)"><path fill="#4caf50" d="M144.605 770h40v20h-40z"/><path fill="none" stroke="#fff" stroke-miterlimit="10" stroke-width="2" d="M144.605 770h40v20h-40z"/><text x="194.605, 207.94484, 217.50539, 230.38625, 240.64992, 248.68703, 260.52295," y="787.5," fill="#666" font-family="DejaVu Serif" font-size="20">Trusted</text><path fill="#ff9800" d="M303.325 770h40v20h-40z"/><path fill="none" stroke="#fff" stroke-miterlimit="10" stroke-width="2" d="M303.325 770h40v20h-40z"/><text x="353.32501, 366.78204, 376.34259, 388.38361, 399.68243, 411.51837, 424.39923, 436.32306, 449.20392, 460.40509," y="787.5," fill="#666" font-family="DejaVu Serif" font-size="20">Provenance</text><path fill="#f44336" d="M502.245 770h40v20h-40z"/><path fill="none" stroke="#fff" stroke-miterlimit="10" stroke-width="2" d="M502.245 770h40v20h-40z"/><text x="552.245, 569.10046, 581.98132, 590.01843, 599.57898, 612.45984, 622.72351, 630.76062, 642.59656," y="787.5," fill="#666" font-family="DejaVu Serif" font-size="20">Untrusted</text></g><path fill="#4caf50" d="M400 1q8.692 0 17.374.41 8.682.408 17.335 1.226t17.258 2.042q8.605 1.224 17.143 2.852t16.99 3.656 16.798 4.451 16.57 5.238 16.306 6.012 16.005 6.774 15.667 7.519 15.297 8.248 14.89 8.96 14.453 9.65 13.982 10.321 13.48 10.968 12.95 11.59L400 370z"/><path fill="none" stroke="#fff" stroke-linejoin="bevel" stroke-width="2" d="M400 1q8.692 0 17.374.41 8.682.408 17.335 1.226t17.258 2.042q8.605 1.224 17.143 2.852t16.99 3.656 16.798 4.451 16.57 5.238 16.306 6.012 16.005 6.774 15.667 7.519 15.297 8.248 14.89 8.96 14.453 9.65 13.982 10.321 13.48 10.968 12.95 11.59L400 370z"/><path fill="#ff9800" d="M652.498 100.917q9.167 8.602 17.727 17.807 8.56 9.206 16.474 18.973t15.145 20.05 13.745 21.034L400 370z"/><path fill="none" stroke="#fff" stroke-linejoin="bevel" stroke-width="2" d="M652.498 100.917q9.167 8.602 17.727 17.807 8.56 9.206 16.474 18.973t15.145 20.05 13.745 21.034L400 370l252.498-269.083Z"/><path fill="#f44336" d="M715.589 178.781q4.694 7.747 9.002 15.716t8.221 16.138 7.419 16.522 6.599 16.867 5.763 17.17 4.915 17.432 4.052 17.652q1.81 8.875 3.182 17.83 1.372 8.953 2.303 17.964.932 9.01 1.42 18.056.487 9.045.53 18.103t-.357 18.108-1.246 18.069-2.13 17.985-3.011 17.86q-1.725 8.892-3.884 17.69-2.159 8.797-4.747 17.478t-5.598 17.225-6.438 16.928-7.26 16.593-8.065 16.216-8.852 15.802-9.616 15.347-10.357 14.858-11.074 14.331-11.764 13.77q-6.051 6.742-12.426 13.178-6.374 6.436-13.057 12.551t-13.657 11.895-14.225 11.212-14.757 10.5-15.255 9.762q-5.217 3.16-10.535 6.147t-10.732 5.796q-5.413 2.81-10.917 5.438-5.504 2.629-11.092 5.074-5.587 2.445-11.253 4.705-5.665 2.26-11.402 4.33t-11.539 3.951-11.664 3.568q-5.86 1.687-11.775 3.18-5.913 1.493-11.873 2.79t-11.96 2.394q-6 1.1-12.032 2t-12.091 1.6q-6.06.7-12.138 1.199t-12.17.797-12.191.395q-6.099.097-12.197-.008-6.099-.104-12.19-.41-6.092-.307-12.17-.815-6.078-.507-12.136-1.215t-12.09-1.616q-6.03-.908-12.029-2.015t-11.956-2.41q-5.958-1.305-11.87-2.806-5.912-1.5-11.771-3.196-5.859-1.695-11.659-3.582-5.8-1.888-11.534-3.967-5.734-2.078-11.396-4.345t-11.247-4.72-11.085-5.089-10.91-5.452-10.724-5.81q-7.893-4.446-15.557-9.274t-15.084-10.026q-7.418-5.198-14.573-10.754-7.154-5.556-14.027-11.456-6.874-5.9-13.45-12.13t-12.837-12.777q-6.261-6.545-12.195-13.39-5.933-6.845-11.523-13.973t-10.824-14.521-10.098-15.035-9.348-15.513q-4.484-7.87-8.576-15.952-4.092-8.081-7.783-16.354-3.69-8.272-6.971-16.716-3.28-8.444-6.142-17.038t-5.3-17.319-4.442-17.558-3.576-17.755-2.7-17.909-1.82-18.02-.931-18.087-.043-18.112.845-18.091 1.732-18.029 2.614-17.921q1.528-8.93 3.491-17.772 1.964-8.843 4.359-17.58 2.395-8.735 5.216-17.343 2.82-8.608 6.06-17.068 3.24-8.459 6.891-16.749t7.705-16.391 8.499-15.993q2.993-5.314 6.161-10.527t6.506-10.317 6.843-10.096 7.173-9.865 7.495-9.622 7.81-9.37 8.114-9.105q4.132-4.486 8.41-8.833 4.28-4.347 8.7-8.55t8.975-8.258 9.244-7.957q4.688-3.902 9.503-7.647 4.814-3.745 9.75-7.329 4.935-3.583 9.986-7.002 5.05-3.419 10.212-6.669 5.161-3.25 10.427-6.327t10.631-5.98 10.823-5.624q5.457-2.723 11.002-5.264t11.17-4.898q5.626-2.356 11.327-4.525t11.47-4.15 11.6-3.767 11.719-3.382 11.824-2.993q5.936-1.398 11.916-2.6t11.996-2.206 12.062-1.807 12.116-1.408 12.155-1.007 12.182-.604Q393.9 1 400 1v369z"/><path fill="none" stroke="#fff" stroke-linejoin="bevel" stroke-width="2" d="M715.589 178.781q4.694 7.747 9.002 15.716t8.221 16.138 7.419 16.522 6.599 16.867 5.763 17.17 4.915 17.432 4.052 17.652q1.81 8.875 3.182 17.83 1.372 8.953 2.303 17.964.932 9.01 1.42 18.056.487 9.045.53 18.103t-.357 18.108-1.246 18.069-2.13 17.985-3.011 17.86q-1.725 8.892-3.884 17.69-2.159 8.797-4.747 17.478t-5.598 17.225-6.438 16.928-7.26 16.593-8.065 16.216-8.852 15.802-9.616 15.347-10.357 14.858-11.074 14.331-11.764 13.77q-6.051 6.742-12.426 13.178-6.374 6.436-13.057 12.551t-13.657 11.895-14.225 11.212-14.757 10.5-15.255 9.762q-5.217 3.16-10.535 6.147t-10.732 5.796q-5.413 2.81-10.917 5.438-5.504 2.629-11.092 5.074-5.587 2.445-11.253 4.705-5.665 2.26-11.402 4.33t-11.539 3.951-11.664 3.568q-5.86 1.687-11.775 3.18-5.913 1.493-11.873 2.79t-11.96 2.394q-6 1.1-12.032 2t-12.091 1.6q-6.06.7-12.138 1.199t-12.17.797-12.191.395q-6.099.097-12.197-.008-6.099-.104-12.19-.41-6.092-.307-12.17-.815-6.078-.507-12.136-1.215t-12.09-1.616q-6.03-.908-12.029-2.015t-11.956-2.41q-5.958-1.305-11.87-2.806-5.912-1.5-11.771-3.196-5.859-1.695-11.659-3.582-5.8-1.888-11.534-3.967-5.734-2.078-11.396-4.345t-11.247-4.72-11.085-5.089-10.91-5.452-10.724-5.81q-7.893-4.446-15.557-9.274t-15.084-10.026q-7.418-5.198-14.573-10.754-7.154-5.556-14.027-11.456-6.874-5.9-13.45-12.13t-12.837-12.777q-6.261-6.545-12.195-13.39-5.933-6.845-11.523-13.973t-10.824-14.521-10.098-15.035-9.348-15.513q-4.484-7.87-8.576-15.952-4.092-8.081-7.783-16.354-3.69-8.272-6.971-16.716-3.28-8.444-6.142-17.038t-5.3-17.319-4.442-17.558-3.576-17.755-2.7-17.909-1.82-18.02-.931-18.087-.043-18.112.845-18.091 1.732-18.029 2.614-17.921q1.528-8.93 3.491-17.772 1.964-8.843 4.359-17.58 2.395-8.735 5.216-17.343 2.82-8.608 6.06-17.068 3.24-8.459 6.891-16.749t7.705-16.391 8.499-15.993q2.993-5.314 6.161-10.527t6.506-10.317 6.843-10.096 7.173-9.865 7.495-9.622 7.81-9.37 8.114-9.105q4.132-4.486 8.41-8.833 4.28-4.347 8.7-8.55t8.975-8.258 9.244-7.957q4.688-3.902 9.503-7.647 4.814-3.745 9.75-7.329 4.935-3.583 9.986-7.002 5.05-3.419 10.212-6.669 5.161-3.25 10.427-6.327t10.631-5.98 10.823-5.624q5.457-2.723 11.002-5.264t11.17-4.898q5.626-2.356 11.327-4.525t11.47-4.15 11.6-3.767 11.719-3.382 11.824-2.993q5.936-1.398 11.916-2.6t11.996-2.206 12.062-1.807 12.116-1.408 12.155-1.007 12.182-.604Q393.9 1 400 1v369l315.589-191.219Z"/></svg>