<svg xmlns="http://www.w3.org/2000/svg" width="800" height="800"><path fill="none" d="M0 0h800v800H0z"/><clipPath id="a"><path d="M0 690h800v110H0z"/></clipPath><g clip-path="url(#a)"><path fill="#4caf50" d="M123.3 720h40v20h-40z"/><path fill="none" stroke="#fff" stroke-miterlimit="10" stroke-width="2" d="M123.3 720h40v20h-40z"/><path fill="#ff9800" d="M377.64 720h40v20h-40z"/><path fill="none" stroke="#fff" stroke-miterlimit="10" stroke-width="2" d="M377.64 720h40v20h-40z"/><path fill="#f44336" d="M262.92 770h40v20h-40z"/><path fill="none" stroke="#fff" stroke-miterlimit="10" stroke-width="2" d="M262.92 770h40v20h-40z"/></g><path fill="#4caf50" d="M400 1q4.343 0 8.685.11t8.68.329 8.668.548 8.652.766q4.322.438 8.63.985 4.31.547 8.603 1.202 4.293.656 8.569 1.42 4.275.763 8.53 1.635 4.255.871 8.487 1.85 4.232.978 8.437 2.063 4.206 1.085 8.383 2.276t8.322 2.487 8.257 2.696 8.186 2.904 8.11 3.11q4.036 1.606 8.03 3.313t7.942 3.515 7.852 3.715 7.755 3.911 7.654 4.106 7.548 4.298 7.437 4.488 7.322 4.673q3.63 2.383 7.2 4.857t7.077 5.037q3.506 2.563 6.946 5.214t6.813 5.388 6.675 5.558 6.532 5.725 6.386 5.889 6.235 6.047 6.08 6.203L400 345z"/><path fill="none" stroke="#fff" stroke-linejoin="bevel" stroke-width="2" d="M400 1q4.343 0 8.685.11t8.68.329 8.668.548 8.652.766q4.322.438 8.63.985 4.31.547 8.603 1.202 4.293.656 8.569 1.42 4.275.763 8.53 1.635 4.255.871 8.487 1.85 4.232.978 8.437 2.063 4.206 1.085 8.383 2.276t8.322 2.487 8.257 2.696 8.186 2.904 8.11 3.11q4.036 1.606 8.03 3.313t7.942 3.515 7.852 3.715 7.755 3.911 7.654 4.106 7.548 4.298 7.437 4.488 7.322 4.673q3.63 2.383 7.2 4.857t7.077 5.037q3.506 2.563 6.946 5.214t6.813 5.388 6.675 5.558 6.532 5.725 6.386 5.889 6.235 6.047 6.08 6.203L400 345z"/><path fill="#ff9800" d="M648.683 107.318q15.332 16.042 28.476 33.92 13.144 17.879 23.882 37.298L400 345z"/><path fill="none" stroke="#fff" stroke-linejoin="bevel" stroke-width="2" d="M648.683 107.318q15.332 16.042 28.476 33.92 13.144 17.879 23.882 37.298L400 345l248.683-237.682Z"/><path fill="#f44336" d="M701.041 178.536q4.087 7.39 7.805 14.972 3.72 7.582 7.062 15.337t6.3 15.665 5.524 15.955 4.735 16.207q2.168 8.161 3.933 16.42 1.766 8.258 3.123 16.592 1.358 8.335 2.306 16.727.947 8.391 1.481 16.819t.655 16.872-.174 16.883-1.002 16.855-1.828 16.785-2.65 16.675-3.464 16.525-4.271 16.335-5.068 16.106q-2.73 7.991-5.851 15.838t-6.622 15.532-7.376 15.188q-3.874 7.504-8.112 14.808t-8.83 14.392q-4.59 7.087-9.524 13.941t-10.197 13.458q-5.264 6.603-10.845 12.94-5.582 6.338-11.467 12.393t-12.062 11.816q-6.175 5.76-12.626 11.21-6.451 5.449-13.162 10.575-6.71 5.127-13.664 9.918t-14.135 9.235-14.57 8.531q-4.884 2.7-9.851 5.24t-10.015 4.918-10.17 4.59q-5.122 2.214-10.313 4.26-5.19 2.045-10.446 3.92-5.254 1.877-10.567 3.582t-10.678 3.236q-5.365 1.531-10.777 2.888t-10.865 2.537-10.942 2.184-11.007 1.827-11.06 1.47-11.102 1.11-11.133.75-11.15.388-11.158.026-11.152-.336-11.136-.697-11.107-1.058-11.068-1.417-11.015-1.776-10.952-2.132q-5.458-1.155-10.877-2.486-5.418-1.331-10.79-2.837-5.373-1.506-10.693-3.186-5.321-1.68-10.585-3.531-5.263-1.852-10.464-3.873-5.2-2.02-10.332-4.21-5.133-2.188-10.191-4.542t-10.039-4.87-9.875-5.194-9.701-5.512q-7.274-4.29-14.329-8.931-7.055-4.642-13.873-9.624-6.819-4.982-13.384-10.292-6.566-5.311-12.864-10.937-6.297-5.627-12.31-11.556t-11.73-12.145q-5.715-6.216-11.119-12.706t-10.482-13.236-9.82-13.735-9.135-14.2q-4.393-7.213-8.427-14.632t-7.698-15.027-6.952-15.386q-3.287-7.78-6.189-15.71-2.901-7.93-5.41-15.994t-4.62-16.24-3.816-16.447-3.005-16.615q-1.298-8.345-2.186-16.743t-1.362-16.829q-.474-8.431-.534-16.876-.06-8.444.294-16.882.354-8.437 1.122-16.847t1.948-16.771 2.768-16.656 3.582-16.5 4.387-16.305 5.182-16.07 5.964-15.795 6.732-15.484q3.557-7.66 7.484-15.135 3.928-7.476 8.218-14.75 2.834-4.806 5.823-9.518 2.988-4.711 6.128-9.323t6.428-9.12 6.72-8.907 7.005-8.684q3.573-4.286 7.284-8.453t7.553-8.212q3.844-4.044 7.816-7.962t8.07-7.705 8.316-7.439 8.553-7.165q4.334-3.514 8.78-6.885t9-6.596 9.207-6.3 9.408-5.999 9.598-5.69q4.844-2.768 9.776-5.377t9.946-5.056q5.015-2.447 10.105-4.731t10.253-4.4q5.162-2.118 10.39-4.067t10.517-3.727 10.632-3.384 10.736-3.037 10.83-2.688 10.91-2.335 10.98-1.98 11.039-1.623 11.086-1.264 11.12-.903 11.145-.543T400 1v344z"/><path fill="none" stroke="#fff" stroke-linejoin="bevel" stroke-width="2" d="M701.041 178.536q4.087 7.39 7.805 14.972 3.72 7.582 7.062 15.337t6.3 15.665 5.524 15.955 4.735 16.207q2.168 8.161 3.933 16.42 1.766 8.258 3.123 16.592 1.358 8.335 2.306 16.727.947 8.391 1.481 16.819t.655 16.872-.174 16.883-1.002 16.855-1.828 16.785-2.65 16.675-3.464 16.525-4.271 16.335-5.068 16.106q-2.73 7.991-5.851 15.838t-6.622 15.532-7.376 15.188q-3.874 7.504-8.112 14.808t-8.83 14.392q-4.59 7.087-9.524 13.941t-10.197 13.458q-5.264 6.603-10.845 12.94-5.582 6.338-11.467 12.393t-12.062 11.816q-6.175 5.76-12.626 11.21-6.451 5.449-13.162 10.575-6.71 5.127-13.664 9.918t-14.135 9.235-14.57 8.531q-4.884 2.7-9.851 5.24t-10.015 4.918-10.17 4.59q-5.122 2.214-10.313 4.26-5.19 2.045-10.446 3.92-5.254 1.877-10.567 3.582t-10.678 3.236q-5.365 1.531-10.777 2.888t-10.865 2.537-10.942 2.184-11.007 1.827-11.06 1.47-11.102 1.11-11.133.75-11.15.388-11.158.026-11.152-.336-11.136-.697-11.107-1.058-11.068-1.417-11.015-1.776-10.952-2.132q-5.458-1.155-10.877-2.486-5.418-1.331-10.79-2.837-5.373-1.506-10.693-3.186-5.321-1.68-10.585-3.531-5.263-1.852-10.464-3.873-5.2-2.02-10.332-4.21-5.133-2.188-10.191-4.542t-10.039-4.87-9.875-5.194-9.701-5.512q-7.274-4.29-14.329-8.931-7.055-4.642-13.873-9.624-6.819-4.982-13.384-10.292-6.566-5.311-12.864-10.937-6.297-5.627-12.31-11.556t-11.73-12.145q-5.715-6.216-11.119-12.706t-10.482-13.236-9.82-13.735-9.135-14.2q-4.393-7.213-8.427-14.632t-7.698-15.027-6.952-15.386q-3.287-7.78-6.189-15.71-2.901-7.93-5.41-15.994t-4.62-16.24-3.816-16.447-3.005-16.615q-1.298-8.345-2.186-16.743t-1.362-16.829q-.474-8.431-.534-16.876-.06-8.444.294-16.882.354-8.437 1.122-16.847t1.948-16.771 2.768-16.656 3.582-16.5 4.387-16.305 5.182-16.07 5.964-15.795 6.732-15.484q3.557-7.66 7.484-15.135 3.928-7.476 8.218-14.75 2.834-4.806 5.823-9.518 2.988-4.711 6.128-9.323t6.428-9.12 6.72-8.907 7.005-8.684q3.573-4.286 7.284-8.453t7.553-8.212q3.844-4.044 7.816-7.962t8.07-7.705 8.316-7.439 8.553-7.165q4.334-3.514 8.78-6.885t9-6.596 9.207-6.3 9.408-5.999 9.598-5.69q4.844-2.768 9.776-5.377t9.946-5.056q5.015-2.447 10.105-4.731t10.253-4.4q5.162-2.118 10.39-4.067t10.517-3.727 10.632-3.384 10.736-3.037 10.83-2.688 10.91-2.335 10.98-1.98 11.039-1.623 11.086-1.264 11.12-.903 11.145-.543T400 1v344l301.041-166.464Z"/></svg>