<svg xmlns="http://www.w3.org/2000/svg" width="800" height="800"><path fill="none" d="M0 0h800v800H0z"/><clipPath id="a"><path d="M0 690h800v110H0z"/></clipPath><g clip-path="url(#a)"><path fill="#4caf50" d="M123.3 720h40v20h-40z"/><path fill="none" stroke="#fff" stroke-miterlimit="10" stroke-width="2" d="M123.3 720h40v20h-40z"/><path fill="#ff9800" d="M377.64 720h40v20h-40z"/><path fill="none" stroke="#fff" stroke-miterlimit="10" stroke-width="2" d="M377.64 720h40v20h-40z"/><path fill="#f44336" d="M262.92 770h40v20h-40z"/><path fill="none" stroke="#fff" stroke-miterlimit="10" stroke-width="2" d="M262.92 770h40v20h-40z"/></g><path fill="#4caf50" d="M400 1q4.663 0 9.324.126 4.661.127 9.318.38 4.656.252 9.303.631t9.283.883q4.636.505 9.256 1.135t9.222 1.385 9.18 1.635q4.58.88 9.133 1.883 4.554 1.003 9.08 2.13 4.524 1.126 9.017 2.375 4.492 1.248 8.95 2.618t8.875 2.86q4.419 1.49 8.795 3.1t8.707 3.337 8.614 3.572 8.514 3.804 8.408 4.033q4.177 2.074 8.295 4.26t8.177 4.483 8.052 4.703 7.922 4.92 7.786 5.132 7.643 5.342 7.496 5.546q3.71 2.825 7.343 5.748t7.184 5.945 7.021 6.138 6.852 6.325 6.677 6.51 6.5 6.687q3.203 3.387 6.314 6.86t6.127 7.03L400 345z"/><path fill="none" stroke="#fff" stroke-linejoin="bevel" stroke-width="2" d="M400 1q4.663 0 9.324.126 4.661.127 9.318.38 4.656.252 9.303.631t9.283.883q4.636.505 9.256 1.135t9.222 1.385 9.18 1.635q4.58.88 9.133 1.883 4.554 1.003 9.08 2.13 4.524 1.126 9.017 2.375 4.492 1.248 8.95 2.618t8.875 2.86q4.419 1.49 8.795 3.1t8.707 3.337 8.614 3.572 8.514 3.804 8.408 4.033q4.177 2.074 8.295 4.26t8.177 4.483 8.052 4.703 7.922 4.92 7.786 5.132 7.643 5.342 7.496 5.546q3.71 2.825 7.343 5.748t7.184 5.945 7.021 6.138 6.852 6.325 6.677 6.51 6.5 6.687q3.203 3.387 6.314 6.86t6.127 7.03L400 345z"/><path fill="#ff9800" d="M662.368 122.517q13.857 16.341 25.58 34.276 11.722 17.934 21.128 37.184L400 345z"/><path fill="none" stroke="#fff" stroke-linejoin="bevel" stroke-width="2" d="M662.368 122.517q13.857 16.341 25.58 34.276 11.722 17.934 21.128 37.184L400 345l262.368-222.483Z"/><path fill="#f44336" d="M709.076 193.977q3.708 7.588 7.038 15.348t6.277 15.674 5.5 15.964 4.71 16.214q2.155 8.165 3.908 16.426t3.098 16.597 2.28 16.73q.934 8.393 1.456 16.822t.63 16.872-.2 16.883q-.308 8.44-1.028 16.853-.721 8.414-1.854 16.783-1.133 8.368-2.675 16.67-1.542 8.304-3.49 16.52-1.947 8.218-4.295 16.33t-5.092 16.098q-2.744 7.986-5.876 15.829-3.132 7.842-6.645 15.521t-7.399 15.177-8.135 14.796-8.85 14.378q-4.603 7.081-9.546 13.927-4.944 6.847-10.218 13.442-5.274 6.596-10.865 12.924-5.59 6.33-11.486 12.376-5.895 6.047-12.08 11.797-6.184 5.75-12.643 11.19t-13.177 10.556q-6.719 5.117-13.68 9.897t-14.149 9.214q-7.187 4.433-14.584 8.509-7.396 4.075-14.983 7.782-4.891 2.39-9.855 4.624t-9.996 4.31-10.128 3.99-10.249 3.669-10.36 3.343-10.46 3.013q-5.253 1.423-10.55 2.68-5.296 1.257-10.63 2.346-5.333 1.088-10.698 2.008t-10.757 1.668q-5.392.75-10.805 1.327-5.412.578-10.84.985-5.429.407-10.867.641t-10.882.297-10.885-.047q-5.443-.11-10.879-.392t-10.86-.736q-5.425-.453-10.832-1.079t-10.793-1.42q-5.385-.797-10.742-1.763t-10.68-2.1-10.61-2.439-10.526-2.772-10.434-3.104-10.33-3.432-10.217-3.758q-5.078-1.96-10.092-4.079-5.014-2.12-9.958-4.396-4.945-2.277-9.814-4.71-4.87-2.432-9.66-5.017-4.791-2.585-9.497-5.32-4.707-2.736-9.324-5.619-7.163-4.472-14.098-9.29-6.935-4.82-13.626-9.972-6.69-5.153-13.12-10.628t-12.582-11.26-12.014-11.862q-5.862-6.08-11.419-12.438-5.556-6.36-10.794-12.984-5.237-6.624-10.144-13.497-4.906-6.873-9.47-13.98-4.562-7.105-8.771-14.426t-8.054-14.84q-3.845-7.518-7.316-15.217-3.471-7.698-6.56-15.557-3.09-7.86-5.79-15.861t-5.004-16.126q-2.304-8.124-4.206-16.352t-3.4-16.539-2.583-16.685-1.762-16.792-.936-16.859-.107-16.884.721-16.869 1.548-16.813 2.371-16.717 3.189-16.58q1.798-8.252 3.998-16.405t4.799-16.188q2.597-8.035 5.587-15.933t6.362-15.64 7.121-15.309 7.865-14.94q4.115-7.375 8.588-14.538 2.883-4.617 5.91-9.141t6.197-8.95 6.477-8.749 6.75-8.54 7.017-8.321 7.277-8.096 7.53-7.861 7.774-7.62 8.012-7.37q4.064-3.62 8.241-7.111t8.462-6.848q4.285-3.357 8.674-6.577t8.878-6.3q4.489-3.078 9.073-6.014t9.258-5.725q4.675-2.79 9.435-5.43t9.602-5.127 9.76-4.821q4.918-2.334 9.907-4.51 4.99-2.177 10.045-4.195 5.056-2.018 10.173-3.875t10.29-3.55 10.397-3.224 10.494-2.893 10.58-2.56 10.657-2.223 10.72-1.885 10.776-1.545 10.819-1.203 10.851-.86 10.874-.517T400 1v344z"/><path fill="none" stroke="#fff" stroke-linejoin="bevel" stroke-width="2" d="M709.076 193.977q3.708 7.588 7.038 15.348t6.277 15.674 5.5 15.964 4.71 16.214q2.155 8.165 3.908 16.426t3.098 16.597 2.28 16.73q.934 8.393 1.456 16.822t.63 16.872-.2 16.883q-.308 8.44-1.028 16.853-.721 8.414-1.854 16.783-1.133 8.368-2.675 16.67-1.542 8.304-3.49 16.52-1.947 8.218-4.295 16.33t-5.092 16.098q-2.744 7.986-5.876 15.829-3.132 7.842-6.645 15.521t-7.399 15.177-8.135 14.796-8.85 14.378q-4.603 7.081-9.546 13.927-4.944 6.847-10.218 13.442-5.274 6.596-10.865 12.924-5.59 6.33-11.486 12.376-5.895 6.047-12.08 11.797-6.184 5.75-12.643 11.19t-13.177 10.556q-6.719 5.117-13.68 9.897t-14.149 9.214q-7.187 4.433-14.584 8.509-7.396 4.075-14.983 7.782-4.891 2.39-9.855 4.624t-9.996 4.31-10.128 3.99-10.249 3.669-10.36 3.343-10.46 3.013q-5.253 1.423-10.55 2.68-5.296 1.257-10.63 2.346-5.333 1.088-10.698 2.008t-10.757 1.668q-5.392.75-10.805 1.327-5.412.578-10.84.985-5.429.407-10.867.641t-10.882.297-10.885-.047q-5.443-.11-10.879-.392t-10.86-.736q-5.425-.453-10.832-1.079t-10.793-1.42q-5.385-.797-10.742-1.763t-10.68-2.1-10.61-2.439-10.526-2.772-10.434-3.104-10.33-3.432-10.217-3.758q-5.078-1.96-10.092-4.079-5.014-2.12-9.958-4.396-4.945-2.277-9.814-4.71-4.87-2.432-9.66-5.017-4.791-2.585-9.497-5.32-4.707-2.736-9.324-5.619-7.163-4.472-14.098-9.29-6.935-4.82-13.626-9.972-6.69-5.153-13.12-10.628t-12.582-11.26-12.014-11.862q-5.862-6.08-11.419-12.438-5.556-6.36-10.794-12.984-5.237-6.624-10.144-13.497-4.906-6.873-9.47-13.98-4.562-7.105-8.771-14.426t-8.054-14.84q-3.845-7.518-7.316-15.217-3.471-7.698-6.56-15.557-3.09-7.86-5.79-15.861t-5.004-16.126q-2.304-8.124-4.206-16.352t-3.4-16.539-2.583-16.685-1.762-16.792-.936-16.859-.107-16.884.721-16.869 1.548-16.813 2.371-16.717 3.189-16.58q1.798-8.252 3.998-16.405t4.799-16.188q2.597-8.035 5.587-15.933t6.362-15.64 7.121-15.309 7.865-14.94q4.115-7.375 8.588-14.538 2.883-4.617 5.91-9.141t6.197-8.95 6.477-8.749 6.75-8.54 7.017-8.321 7.277-8.096 7.53-7.861 7.774-7.62 8.012-7.37q4.064-3.62 8.241-7.111t8.462-6.848q4.285-3.357 8.674-6.577t8.878-6.3q4.489-3.078 9.073-6.014t9.258-5.725q4.675-2.79 9.435-5.43t9.602-5.127 9.76-4.821q4.918-2.334 9.907-4.51 4.99-2.177 10.045-4.195 5.056-2.018 10.173-3.875t10.29-3.55 10.397-3.224 10.494-2.893 10.58-2.56 10.657-2.223 10.72-1.885 10.776-1.545 10.819-1.203 10.851-.86 10.874-.517T400 1v344l309.076-151.023Z"/></svg>