<svg xmlns="http://www.w3.org/2000/svg" width="800" height="800"><path fill="none" d="M0 0h800v800H0z"/><clipPath id="a"><path d="M0 690h800v110H0z"/></clipPath><g clip-path="url(#a)"><path fill="#4caf50" d="M123.3 720h40v20h-40z"/><path fill="none" stroke="#fff" stroke-miterlimit="10" stroke-width="2" d="M123.3 720h40v20h-40z"/><path fill="#ff9800" d="M377.64 720h40v20h-40z"/><path fill="none" stroke="#fff" stroke-miterlimit="10" stroke-width="2" d="M377.64 720h40v20h-40z"/><path fill="#f44336" d="M262.92 770h40v20h-40z"/><path fill="none" stroke="#fff" stroke-miterlimit="10" stroke-width="2" d="M262.92 770h40v20h-40z"/></g><path fill="#4caf50" d="M400 1q4.715 0 9.428.13 4.714.128 9.422.387 4.708.258 9.407.646 4.7.387 9.386.903 4.687.516 9.358 1.16 4.67.644 9.322 1.416t9.28 1.671q4.629.9 9.23 1.925 4.603 1.026 9.175 2.178t9.112 2.427 9.041 2.677q4.503 1.4 8.965 2.923t8.881 3.169 8.791 3.41 8.694 3.65 8.591 3.887q4.27 2.002 8.482 4.12 4.212 2.12 8.365 4.352 4.152 2.234 8.242 4.58t8.114 4.803 7.98 5.025q3.955 2.566 7.838 5.24t7.692 5.455q3.809 2.78 7.54 5.662t7.381 5.867 7.219 6.068 7.049 6.263 6.874 6.453 6.696 6.64 6.51 6.82q3.209 3.456 6.322 6.997t6.127 7.168L400 345z"/><path fill="none" stroke="#fff" stroke-linejoin="bevel" stroke-width="2" d="M400 1q4.715 0 9.428.13 4.714.128 9.422.387 4.708.258 9.407.646 4.7.387 9.386.903 4.687.516 9.358 1.16 4.67.644 9.322 1.416t9.28 1.671q4.629.9 9.23 1.925 4.603 1.026 9.175 2.178t9.112 2.427 9.041 2.677q4.503 1.4 8.965 2.923t8.881 3.169 8.791 3.41 8.694 3.65 8.591 3.887q4.27 2.002 8.482 4.12 4.212 2.12 8.365 4.352 4.152 2.234 8.242 4.58t8.114 4.803 7.98 5.025q3.955 2.566 7.838 5.24t7.692 5.455q3.809 2.78 7.54 5.662t7.381 5.867 7.219 6.068 7.049 6.263 6.874 6.453 6.696 6.64 6.51 6.82q3.209 3.456 6.322 6.997t6.127 7.168L400 345z"/><path fill="#ff9800" d="M664.514 125.072q13.651 16.419 25.167 34.4t20.72 37.248L400 345z"/><path fill="none" stroke="#fff" stroke-linejoin="bevel" stroke-width="2" d="M664.514 125.072q13.651 16.419 25.167 34.4t20.72 37.248L400 345l264.514-219.928Z"/><path fill="#f44336" d="M710.402 196.72q3.64 7.62 6.901 15.41 3.262 7.789 6.138 15.729t5.358 16.012 4.566 16.255q2.084 8.183 3.763 16.46 1.68 8.275 2.951 16.624t2.132 16.75 1.307 16.833.48 16.877q.032 8.445-.35 16.881t-1.177 16.843-2.002 16.766-2.822 16.647-3.636 16.488-4.44 16.29-5.234 16.052q-2.815 7.962-6.016 15.777t-6.783 15.462q-3.58 7.648-7.533 15.11-3.952 7.464-8.265 14.724t-8.978 14.3q-4.665 7.039-9.669 13.841t-10.336 13.35q-5.332 6.55-10.979 12.828-5.647 6.28-11.595 12.274T632 598.993q-6.236 5.695-12.743 11.077-6.507 5.383-13.27 10.44t-13.767 9.775q-7.003 4.718-14.23 9.088-7.226 4.37-14.658 8.379-7.432 4.01-15.052 7.65-4.89 2.336-9.852 4.517-4.962 2.18-9.99 4.204-5.027 2.024-10.116 3.888t-10.234 3.567-10.341 3.243-10.439 2.915-10.525 2.585-10.601 2.253-10.667 1.917-10.723 1.58-10.766 1.242-10.8.902-10.824.561-10.836.22-10.837-.12q-5.418-.147-10.828-.464-5.41-.316-10.808-.803t-10.778-1.144-10.736-1.482-10.684-1.82q-5.327-.995-10.621-2.156t-10.548-2.49q-5.255-1.327-10.465-2.82t-10.37-3.149q-5.16-1.655-10.267-3.473-5.105-1.818-10.151-3.796t-10.027-4.113q-4.982-2.136-9.893-4.427t-9.748-4.737-9.594-5.04q-4.758-2.597-9.43-5.342-4.674-2.745-9.258-5.635-7.144-4.505-14.057-9.354T188.885 616.6q-6.668-5.182-13.073-10.686T163.28 594.6t-11.962-11.916-11.363-12.489-10.737-13.03-10.084-13.543-9.408-14.02-8.708-14.466q-4.176-7.34-7.988-14.875-3.811-7.536-7.248-15.25-3.437-7.713-6.492-15.586-3.054-7.873-5.719-15.887-2.664-8.013-4.932-16.147-2.268-8.135-4.134-16.37-1.866-8.237-3.326-16.554-1.46-8.318-2.51-16.697-1.05-8.38-1.687-16.8-.638-8.42-.861-16.862-.224-8.442-.033-16.885.19-8.442.796-16.865.605-8.423 1.622-16.807t2.445-16.706 3.262-16.566 4.071-16.386 4.87-16.167 5.658-15.909 6.431-15.611 7.19-15.277 7.93-14.906 8.652-14.5q2.89-4.584 5.925-9.075 3.033-4.49 6.207-8.884 3.173-4.393 6.484-8.684 3.31-4.292 6.754-8.476t7.018-8.26q3.574-4.073 7.275-8.033 3.7-3.96 7.524-7.8 3.824-3.841 7.766-7.56t8-7.311 8.228-7.056 8.445-6.793 8.654-6.523q4.38-3.194 8.856-6.248 4.478-3.054 9.049-5.965t9.232-5.678q4.66-2.766 9.406-5.384 4.745-2.618 9.57-5.085t9.727-4.78 9.872-4.473 10.009-4.159 10.134-3.841q5.097-1.841 10.25-3.52t10.356-3.196q5.204-1.517 10.452-2.868 5.248-1.352 10.537-2.537 5.288-1.186 10.611-2.205 5.323-1.018 10.676-1.868t10.73-1.532 10.771-1.192 10.805-.853q5.408-.342 10.825-.512Q394.58 1 400 1v344z"/><path fill="none" stroke="#fff" stroke-linejoin="bevel" stroke-width="2" d="M710.402 196.72q3.64 7.62 6.901 15.41 3.262 7.789 6.138 15.729t5.358 16.012 4.566 16.255q2.084 8.183 3.763 16.46 1.68 8.275 2.951 16.624t2.132 16.75 1.307 16.833.48 16.877q.032 8.445-.35 16.881t-1.177 16.843-2.002 16.766-2.822 16.647-3.636 16.488-4.44 16.29-5.234 16.052q-2.815 7.962-6.016 15.777t-6.783 15.462q-3.58 7.648-7.533 15.11-3.952 7.464-8.265 14.724t-8.978 14.3q-4.665 7.039-9.669 13.841t-10.336 13.35q-5.332 6.55-10.979 12.828-5.647 6.28-11.595 12.274T632 598.993q-6.236 5.695-12.743 11.077-6.507 5.383-13.27 10.44t-13.767 9.775q-7.003 4.718-14.23 9.088-7.226 4.37-14.658 8.379-7.432 4.01-15.052 7.65-4.89 2.336-9.852 4.517-4.962 2.18-9.99 4.204-5.027 2.024-10.116 3.888t-10.234 3.567-10.341 3.243-10.439 2.915-10.525 2.585-10.601 2.253-10.667 1.917-10.723 1.58-10.766 1.242-10.8.902-10.824.561-10.836.22-10.837-.12q-5.418-.147-10.828-.464-5.41-.316-10.808-.803t-10.778-1.144-10.736-1.482-10.684-1.82q-5.327-.995-10.621-2.156t-10.548-2.49q-5.255-1.327-10.465-2.82t-10.37-3.149q-5.16-1.655-10.267-3.473-5.105-1.818-10.151-3.796t-10.027-4.113q-4.982-2.136-9.893-4.427t-9.748-4.737-9.594-5.04q-4.758-2.597-9.43-5.342-4.674-2.745-9.258-5.635-7.144-4.505-14.057-9.354T188.885 616.6q-6.668-5.182-13.073-10.686T163.28 594.6t-11.962-11.916-11.363-12.489-10.737-13.03-10.084-13.543-9.408-14.02-8.708-14.466q-4.176-7.34-7.988-14.875-3.811-7.536-7.248-15.25-3.437-7.713-6.492-15.586-3.054-7.873-5.719-15.887-2.664-8.013-4.932-16.147-2.268-8.135-4.134-16.37-1.866-8.237-3.326-16.554-1.46-8.318-2.51-16.697-1.05-8.38-1.687-16.8-.638-8.42-.861-16.862-.224-8.442-.033-16.885.19-8.442.796-16.865.605-8.423 1.622-16.807t2.445-16.706 3.262-16.566 4.071-16.386 4.87-16.167 5.658-15.909 6.431-15.611 7.19-15.277 7.93-14.906 8.652-14.5q2.89-4.584 5.925-9.075 3.033-4.49 6.207-8.884 3.173-4.393 6.484-8.684 3.31-4.292 6.754-8.476t7.018-8.26q3.574-4.073 7.275-8.033 3.7-3.96 7.524-7.8 3.824-3.841 7.766-7.56t8-7.311 8.228-7.056 8.445-6.793 8.654-6.523q4.38-3.194 8.856-6.248 4.478-3.054 9.049-5.965t9.232-5.678q4.66-2.766 9.406-5.384 4.745-2.618 9.57-5.085t9.727-4.78 9.872-4.473 10.009-4.159 10.134-3.841q5.097-1.841 10.25-3.52t10.356-3.196q5.204-1.517 10.452-2.868 5.248-1.352 10.537-2.537 5.288-1.186 10.611-2.205 5.323-1.018 10.676-1.868t10.73-1.532 10.771-1.192 10.805-.853q5.408-.342 10.825-.512Q394.58 1 400 1v344l310.402-148.28Z"/></svg>