<svg xmlns="http://www.w3.org/2000/svg" width="800" height="800"><path fill="none" d="M0 0h800v800H0z"/><clipPath id="a"><path d="M0 740h800v60H0z"/></clipPath><g clip-path="url(#a)"><path fill="#4caf50" d="M164.745 770h40v20h-40z"/><path fill="none" stroke="#fff" stroke-miterlimit="10" stroke-width="2" d="M164.745 770h40v20h-40z"/><text x="214.745, 226.2196, 232.87976, 244.00281, 254.00281, 259.55945, 270.6825," y="786.5," fill="#666" font-family="Liberation Sans" font-size="20">Trusted</text><path fill="#ff9800" d="M311.805 770h40v20h-40z"/><path fill="none" stroke="#fff" stroke-miterlimit="10" stroke-width="2" d="M311.805 770h40v20h-40z"/><text x="361.80499, 375.14484, 381.80499, 392.92804, 402.92804, 414.05109, 425.17413, 436.29718, 447.42023, 457.42023," y="786.5," fill="#666" font-family="Liberation Sans" font-size="20">Provenance</text><path fill="#f44336" d="M498.545 770h40v20h-40z"/><path fill="none" stroke="#fff" stroke-miterlimit="10" stroke-width="2" d="M498.545 770h40v20h-40z"/><text x="548.54498, 562.98834, 574.11139, 579.66803, 586.32819, 597.45123, 607.45123, 613.00787, 624.13092," y="786.5," fill="#666" font-family="Liberation Sans" font-size="20">Untrusted</text></g><path fill="#4caf50" d="M400 1q5.367 0 10.731.156t10.722.468 10.704.78 10.676 1.09 10.64 1.401 10.596 1.71 10.54 2.017 10.478 2.322 10.406 2.626q5.184 1.39 10.325 2.928 5.141 1.54 10.236 3.227 5.094 1.688 10.137 3.523t10.03 3.817q4.988 1.98 9.916 4.106t9.792 4.393q4.864 2.268 9.66 4.676t9.52 4.955 9.371 5.23 9.216 5.5 9.052 5.766q4.483 2.949 8.88 6.027 4.396 3.077 8.701 6.282t8.515 6.533 8.321 6.777 8.12 7.017q4.01 3.567 7.914 7.25t7.7 7.476q3.794 3.795 7.477 7.698t7.252 7.912q3.568 4.009 7.018 8.12t6.779 8.32 6.534 8.513L400 370z"/><path fill="none" stroke="#fff" stroke-linejoin="bevel" stroke-width="2" d="M400 1q5.367 0 10.731.156t10.722.468 10.704.78 10.676 1.09 10.64 1.401 10.596 1.71 10.54 2.017 10.478 2.322 10.406 2.626q5.184 1.39 10.325 2.928 5.141 1.54 10.236 3.227 5.094 1.688 10.137 3.523t10.03 3.817q4.988 1.98 9.916 4.106t9.792 4.393q4.864 2.268 9.66 4.676t9.52 4.955 9.371 5.23 9.216 5.5 9.052 5.766q4.483 2.949 8.88 6.027 4.396 3.077 8.701 6.282t8.515 6.533 8.321 6.777 8.12 7.017q4.01 3.567 7.914 7.25t7.7 7.476q3.794 3.795 7.477 7.698t7.252 7.912q3.568 4.009 7.018 8.12t6.779 8.32 6.534 8.513L400 370z"/><path fill="#ff9800" d="M695.96 149.616q12.886 17.306 23.668 35.996t19.312 38.51L400 370z"/><path fill="none" stroke="#fff" stroke-linejoin="bevel" stroke-width="2" d="M695.96 149.616q12.886 17.306 23.668 35.996t19.312 38.51L400 370l295.96-220.384Z"/><path fill="#f44336" d="M738.94 224.122q3.581 8.32 6.75 16.807t5.917 17.117q2.748 8.632 5.07 17.388t4.21 17.615q1.89 8.86 3.341 17.8 1.452 8.942 2.464 17.944 1.011 9.001 1.58 18.042.569 9.04.693 18.098t-.196 18.11-1.084 18.08-1.97 18.003-2.85 17.886-3.726 17.724-4.59 17.52-5.445 17.274-6.286 16.986q-3.35 8.415-7.111 16.656-3.76 8.242-7.92 16.288-4.16 8.047-8.71 15.88t-9.479 15.433-10.224 14.95-10.946 14.43-11.64 13.874-12.307 13.288-12.945 12.667T637.986 652t-14.124 11.338-14.663 10.631-15.167 9.899-15.634 9.143-16.065 8.364-16.455 7.566q-5.236 2.254-10.54 4.345-5.302 2.09-10.668 4.016t-10.787 3.686-10.896 3.35q-5.474 1.59-10.994 3.012t-11.083 2.671-11.159 2.328q-5.598 1.077-11.226 1.981t-11.282 1.634-11.327 1.285-11.36.934q-5.688.38-11.385.583t-11.397.23-11.4-.12-11.389-.474-11.37-.825-11.338-1.176-11.297-1.525-11.245-1.874-11.181-2.22-11.107-2.564-11.023-2.906q-5.49-1.539-10.928-3.246t-10.822-3.581-10.707-3.914q-5.323-2.04-10.58-4.243-5.258-2.203-10.445-4.568t-10.298-4.888-10.142-5.204-9.977-5.514-9.802-5.82-9.617-6.12q-7.566-4.981-14.88-10.327-7.312-5.346-14.353-11.045-7.042-5.698-13.795-11.735t-13.203-12.398q-6.449-6.362-12.578-13.031-6.13-6.67-11.924-13.633-5.795-6.963-11.24-14.201t-10.53-14.736-9.795-15.235-9.035-15.696-8.254-16.122q-3.93-8.162-7.453-16.507-3.524-8.344-6.634-16.852t-5.8-17.158q-2.688-8.65-4.95-17.422-2.26-8.772-4.089-17.644-1.828-8.872-3.219-17.823-1.39-8.95-2.34-17.96-.95-9.008-1.457-18.052-.506-9.044-.568-18.102-.063-9.059.32-18.11.382-9.05 1.208-18.07t2.094-17.99q1.267-8.97 2.973-17.866 1.707-8.896 3.847-17.698t4.71-17.488 5.564-17.236 6.402-16.942 7.226-16.608 8.031-16.233 8.82-15.82q4.603-7.8 9.583-15.367 3.135-4.761 6.415-9.424t6.702-9.22q3.422-4.56 6.984-9.01t7.259-8.79 7.527-8.561 7.788-8.324 8.041-8.08q4.083-3.978 8.287-7.828t8.525-7.568T168.07 83t8.975-7.028 9.19-6.746 9.392-6.46 9.588-6.166q4.841-3.01 9.773-5.867t9.95-5.563q5.019-2.704 10.118-5.252 5.099-2.549 10.274-4.938 5.176-2.39 10.423-4.618t10.56-4.293T277 22.103q5.375-1.9 10.805-3.633t10.912-3.298 11.009-2.96 11.095-2.617q5.567-1.223 11.17-2.274t11.236-1.927 11.29-1.58q5.656-.703 11.332-1.23 5.676-.528 11.366-.88t11.387-.528T400 1v369z"/><path fill="none" stroke="#fff" stroke-linejoin="bevel" stroke-width="2" d="M738.94 224.122q3.581 8.32 6.75 16.807t5.917 17.117q2.748 8.632 5.07 17.388t4.21 17.615q1.89 8.86 3.341 17.8 1.452 8.942 2.464 17.944 1.011 9.001 1.58 18.042.569 9.04.693 18.098t-.196 18.11-1.084 18.08-1.97 18.003-2.85 17.886-3.726 17.724-4.59 17.52-5.445 17.274-6.286 16.986q-3.35 8.415-7.111 16.656-3.76 8.242-7.92 16.288-4.16 8.047-8.71 15.88t-9.479 15.433-10.224 14.95-10.946 14.43-11.64 13.874-12.307 13.288-12.945 12.667T637.986 652t-14.124 11.338-14.663 10.631-15.167 9.899-15.634 9.143-16.065 8.364-16.455 7.566q-5.236 2.254-10.54 4.345-5.302 2.09-10.668 4.016t-10.787 3.686-10.896 3.35q-5.474 1.59-10.994 3.012t-11.083 2.671-11.159 2.328q-5.598 1.077-11.226 1.981t-11.282 1.634-11.327 1.285-11.36.934q-5.688.38-11.385.583t-11.397.23-11.4-.12-11.389-.474-11.37-.825-11.338-1.176-11.297-1.525-11.245-1.874-11.181-2.22-11.107-2.564-11.023-2.906q-5.49-1.539-10.928-3.246t-10.822-3.581-10.707-3.914q-5.323-2.04-10.58-4.243-5.258-2.203-10.445-4.568t-10.298-4.888-10.142-5.204-9.977-5.514-9.802-5.82-9.617-6.12q-7.566-4.981-14.88-10.327-7.312-5.346-14.353-11.045-7.042-5.698-13.795-11.735t-13.203-12.398q-6.449-6.362-12.578-13.031-6.13-6.67-11.924-13.633-5.795-6.963-11.24-14.201t-10.53-14.736-9.795-15.235-9.035-15.696-8.254-16.122q-3.93-8.162-7.453-16.507-3.524-8.344-6.634-16.852t-5.8-17.158q-2.688-8.65-4.95-17.422-2.26-8.772-4.089-17.644-1.828-8.872-3.219-17.823-1.39-8.95-2.34-17.96-.95-9.008-1.457-18.052-.506-9.044-.568-18.102-.063-9.059.32-18.11.382-9.05 1.208-18.07t2.094-17.99q1.267-8.97 2.973-17.866 1.707-8.896 3.847-17.698t4.71-17.488 5.564-17.236 6.402-16.942 7.226-16.608 8.031-16.233 8.82-15.82q4.603-7.8 9.583-15.367 3.135-4.761 6.415-9.424t6.702-9.22q3.422-4.56 6.984-9.01t7.259-8.79 7.527-8.561 7.788-8.324 8.041-8.08q4.083-3.978 8.287-7.828t8.525-7.568T168.07 83t8.975-7.028 9.19-6.746 9.392-6.46 9.588-6.166q4.841-3.01 9.773-5.867t9.95-5.563q5.019-2.704 10.118-5.252 5.099-2.549 10.274-4.938 5.176-2.39 10.423-4.618t10.56-4.293T277 22.103q5.375-1.9 10.805-3.633t10.912-3.298 11.009-2.96 11.095-2.617q5.567-1.223 11.17-2.274t11.236-1.927 11.29-1.58q5.656-.703 11.332-1.23 5.676-.528 11.366-.88t11.387-.528T400 1v369l338.94-145.878Z"/></svg>