<svg xmlns="http://www.w3.org/2000/svg" width="800" height="800"><path fill="none" d="M0 0h800v800H0z"/><clipPath id="a"><path d="M0 740h800v60H0z"/></clipPath><g clip-path="url(#a)"><path fill="#4caf50" d="M144.605 770h40v20h-40z"/><path fill="none" stroke="#fff" stroke-miterlimit="10" stroke-width="2" d="M144.605 770h40v20h-40z"/><text x="194.605, 207.94484, 217.50539, 230.38625, 240.64992, 248.68703, 260.52295," y="787.5," fill="#666" font-family="DejaVu Serif" font-size="20">Trusted</text><path fill="#ff9800" d="M303.325 770h40v20h-40z"/><path fill="none" stroke="#fff" stroke-miterlimit="10" stroke-width="2" d="M303.325 770h40v20h-40z"/><text x="353.32501, 366.78204, 376.34259, 388.38361, 399.68243, 411.51837, 424.39923, 436.32306, 449.20392, 460.40509," y="787.5," fill="#666" font-family="DejaVu Serif" font-size="20">Provenance</text><path fill="#f44336" d="M502.245 770h40v20h-40z"/><path fill="none" stroke="#fff" stroke-miterlimit="10" stroke-width="2" d="M502.245 770h40v20h-40z"/><text x="552.245, 569.10046, 581.98132, 590.01843, 599.57898, 612.45984, 622.72351, 630.76062, 642.59656," y="787.5," fill="#666" font-family="DejaVu Serif" font-size="20">Untrusted</text></g><path fill="#4caf50" d="M400 1q7.578 0 15.149.311t15.123.933 15.072 1.553q7.52.93 14.996 2.17 7.475 1.239 14.893 2.784T490 12.144q7.35 1.848 14.616 3.997t14.439 4.593q7.172 2.444 14.238 5.182 7.066 2.737 14.013 5.762 6.948 3.025 13.765 6.332t13.494 6.893 13.199 7.44 12.882 7.976 12.545 8.499 12.184 9.006L400 370z"/><path fill="none" stroke="#fff" stroke-linejoin="bevel" stroke-width="2" d="M400 1q7.578 0 15.149.311t15.123.933 15.072 1.553q7.52.93 14.996 2.17 7.475 1.239 14.893 2.784T490 12.144q7.35 1.848 14.616 3.997t14.439 4.593q7.172 2.444 14.238 5.182 7.066 2.737 14.013 5.762 6.948 3.025 13.765 6.332t13.494 6.893 13.199 7.44 12.882 7.976 12.545 8.499 12.184 9.006L400 370z"/><path fill="#ff9800" d="M625.375 77.824q10.262 7.916 19.944 16.532t18.734 17.89 17.433 19.161 16.046 20.337L400 370z"/><path fill="none" stroke="#fff" stroke-linejoin="bevel" stroke-width="2" d="M625.375 77.824q10.262 7.916 19.944 16.532t18.734 17.89 17.433 19.161 16.046 20.337L400 370 625.376 77.824Z"/><path fill="#f44336" d="M697.532 151.744q5.358 7.304 10.35 14.862 4.994 7.558 9.61 15.352t8.844 15.805 8.059 16.22 7.252 16.596 6.43 16.932q3.007 8.544 5.59 17.226 2.585 8.682 4.74 17.48 2.155 8.8 3.875 17.693t3.003 17.86 2.123 17.987q.84 9.02 1.237 18.07.397 9.049.35 18.107t-.54 18.104q-.491 9.045-1.427 18.055-.935 9.01-2.31 17.963-1.377 8.953-3.19 17.828-1.814 8.875-4.061 17.65-2.248 8.776-4.923 17.43t-5.77 17.168-6.607 16.863-7.427 16.52q-3.916 8.168-8.227 16.134-4.312 7.966-9.01 15.711-4.698 7.746-9.77 15.25-5.072 7.506-10.506 14.754t-11.217 14.22q-5.783 6.971-11.902 13.651t-12.557 13.052-13.182 12.42q-6.744 6.047-13.776 11.757-7.033 5.71-14.337 11.068-5.123 3.758-10.372 7.337-5.25 3.58-10.618 6.976-5.37 3.397-10.853 6.606t-11.073 6.229q-5.59 3.019-11.282 5.844-5.69 2.824-11.475 5.452-5.785 2.627-11.657 5.053t-11.824 4.65-11.977 4.24-12.115 3.824-12.24 3.405-12.35 2.982-12.446 2.555-12.526 2.125-12.592 1.693-12.642 1.258-12.679.822-12.7.385q-6.352.084-12.704-.052-6.352-.135-12.696-.49-6.343-.354-12.67-.926-6.328-.572-12.633-1.362t-12.577-1.796-12.508-2.228-12.424-2.657-12.325-3.084q-6.137-1.647-12.212-3.506t-12.084-3.924q-6.008-2.066-11.942-4.338-5.933-2.271-11.785-4.746-5.851-2.474-11.614-5.15-5.763-2.674-11.431-5.545-8.08-4.094-15.95-8.58t-15.51-9.352q-7.641-4.866-15.033-10.101-7.393-5.235-14.52-10.827t-13.97-11.527q-6.843-5.934-13.387-12.198-6.544-6.263-12.773-12.84-6.23-6.577-12.128-13.451-5.899-6.875-11.453-14.03-5.554-7.157-10.75-14.576-5.197-7.42-10.023-15.086-4.827-7.665-9.27-15.559-4.445-7.893-8.497-15.995t-7.7-16.393-6.887-16.75-6.057-17.07-5.212-17.344-4.355-17.58q-1.961-8.844-3.487-17.773-1.525-8.93-2.61-17.923t-1.728-18.028-.841-18.092.047-18.112.936-18.087 1.823-18.02q1.132-8.987 2.704-17.908 1.572-8.92 3.58-17.754 2.008-8.833 4.447-17.557t5.303-17.317 6.146-17.037 6.975-16.715 7.786-16.352q2.872-5.667 5.937-11.233 3.064-5.565 6.319-11.022t6.695-10.797q3.44-5.342 7.063-10.561t7.422-10.312 7.773-10.05 8.115-9.776q4.14-4.818 8.446-9.491 4.304-4.673 8.767-9.195t9.08-8.887 9.38-8.57q4.763-4.204 9.668-8.242 4.906-4.037 9.947-7.904 5.042-3.866 10.214-7.557 5.171-3.69 10.467-7.2t10.71-6.836 10.937-6.464q5.525-3.137 11.155-6.083 5.629-2.945 11.356-5.695t11.547-5.301 11.722-4.9 11.883-4.495 12.032-4.082q6.05-1.938 12.164-3.666t12.284-3.244 12.388-2.82 12.478-2.392q6.26-1.088 12.553-1.96 6.293-.873 12.613-1.528t12.658-1.092 12.688-.656T400 1v369z"/><path fill="none" stroke="#fff" stroke-linejoin="bevel" stroke-width="2" d="M697.532 151.744q5.358 7.304 10.35 14.862 4.994 7.558 9.61 15.352t8.844 15.805 8.059 16.22 7.252 16.596 6.43 16.932q3.007 8.544 5.59 17.226 2.585 8.682 4.74 17.48 2.155 8.8 3.875 17.693t3.003 17.86 2.123 17.987q.84 9.02 1.237 18.07.397 9.049.35 18.107t-.54 18.104q-.491 9.045-1.427 18.055-.935 9.01-2.31 17.963-1.377 8.953-3.19 17.828-1.814 8.875-4.061 17.65-2.248 8.776-4.923 17.43t-5.77 17.168-6.607 16.863-7.427 16.52q-3.916 8.168-8.227 16.134-4.312 7.966-9.01 15.711-4.698 7.746-9.77 15.25-5.072 7.506-10.506 14.754t-11.217 14.22q-5.783 6.971-11.902 13.651t-12.557 13.052-13.182 12.42q-6.744 6.047-13.776 11.757-7.033 5.71-14.337 11.068-5.123 3.758-10.372 7.337-5.25 3.58-10.618 6.976-5.37 3.397-10.853 6.606t-11.073 6.229q-5.59 3.019-11.282 5.844-5.69 2.824-11.475 5.452-5.785 2.627-11.657 5.053t-11.824 4.65-11.977 4.24-12.115 3.824-12.24 3.405-12.35 2.982-12.446 2.555-12.526 2.125-12.592 1.693-12.642 1.258-12.679.822-12.7.385q-6.352.084-12.704-.052-6.352-.135-12.696-.49-6.343-.354-12.67-.926-6.328-.572-12.633-1.362t-12.577-1.796-12.508-2.228-12.424-2.657-12.325-3.084q-6.137-1.647-12.212-3.506t-12.084-3.924q-6.008-2.066-11.942-4.338-5.933-2.271-11.785-4.746-5.851-2.474-11.614-5.15-5.763-2.674-11.431-5.545-8.08-4.094-15.95-8.58t-15.51-9.352q-7.641-4.866-15.033-10.101-7.393-5.235-14.52-10.827t-13.97-11.527q-6.843-5.934-13.387-12.198-6.544-6.263-12.773-12.84-6.23-6.577-12.128-13.451-5.899-6.875-11.453-14.03-5.554-7.157-10.75-14.576-5.197-7.42-10.023-15.086-4.827-7.665-9.27-15.559-4.445-7.893-8.497-15.995t-7.7-16.393-6.887-16.75-6.057-17.07-5.212-17.344-4.355-17.58q-1.961-8.844-3.487-17.773-1.525-8.93-2.61-17.923t-1.728-18.028-.841-18.092.047-18.112.936-18.087 1.823-18.02q1.132-8.987 2.704-17.908 1.572-8.92 3.58-17.754 2.008-8.833 4.447-17.557t5.303-17.317 6.146-17.037 6.975-16.715 7.786-16.352q2.872-5.667 5.937-11.233 3.064-5.565 6.319-11.022t6.695-10.797q3.44-5.342 7.063-10.561t7.422-10.312 7.773-10.05 8.115-9.776q4.14-4.818 8.446-9.491 4.304-4.673 8.767-9.195t9.08-8.887 9.38-8.57q4.763-4.204 9.668-8.242 4.906-4.037 9.947-7.904 5.042-3.866 10.214-7.557 5.171-3.69 10.467-7.2t10.71-6.836 10.937-6.464q5.525-3.137 11.155-6.083 5.629-2.945 11.356-5.695t11.547-5.301 11.722-4.9 11.883-4.495 12.032-4.082q6.05-1.938 12.164-3.666t12.284-3.244 12.388-2.82 12.478-2.392q6.26-1.088 12.553-1.96 6.293-.873 12.613-1.528t12.658-1.092 12.688-.656T400 1v369l297.532-218.256Z"/></svg>