<svg xmlns="http://www.w3.org/2000/svg" width="800" height="800"><path fill="none" d="M0 0h800v800H0z"/><clipPath id="a"><path d="M0 740h800v60H0z"/></clipPath><g clip-path="url(#a)"><path fill="#4caf50" d="M144.605 770h40v20h-40z"/><path fill="none" stroke="#fff" stroke-miterlimit="10" stroke-width="2" d="M144.605 770h40v20h-40z"/><text x="194.605, 207.94484, 217.50539, 230.38625, 240.64992, 248.68703, 260.52295," y="787.5," fill="#666" font-family="DejaVu Serif" font-size="20">Trusted</text><path fill="#ff9800" d="M303.325 770h40v20h-40z"/><path fill="none" stroke="#fff" stroke-miterlimit="10" stroke-width="2" d="M303.325 770h40v20h-40z"/><text x="353.32501, 366.78204, 376.34259, 388.38361, 399.68243, 411.51837, 424.39923, 436.32306, 449.20392, 460.40509," y="787.5," fill="#666" font-family="DejaVu Serif" font-size="20">Provenance</text><path fill="#f44336" d="M502.245 770h40v20h-40z"/><path fill="none" stroke="#fff" stroke-miterlimit="10" stroke-width="2" d="M502.245 770h40v20h-40z"/><text x="552.245, 569.10046, 581.98132, 590.01843, 599.57898, 612.45984, 622.72351, 630.76062, 642.59656," y="787.5," fill="#666" font-family="DejaVu Serif" font-size="20">Untrusted</text></g><path fill="#4caf50" d="M400 1q8.434 0 16.859.385 8.425.386 16.823 1.155 8.399.77 16.754 1.923 8.354 1.153 16.648 2.686 8.293 1.533 16.507 3.444 8.215 1.91 16.334 4.194t16.124 4.937 15.882 5.667q7.877 3.016 15.607 6.388t15.299 7.094 14.958 7.785 14.587 8.461 14.186 9.118q6.988 4.722 13.754 9.757 6.765 5.036 13.293 10.375 6.529 5.34 12.806 10.972L400 370z"/><path fill="none" stroke="#fff" stroke-linejoin="bevel" stroke-width="2" d="M400 1q8.434 0 16.859.385 8.425.386 16.823 1.155 8.399.77 16.754 1.923 8.354 1.153 16.648 2.686 8.293 1.533 16.507 3.444 8.215 1.91 16.334 4.194t16.124 4.937 15.882 5.667q7.877 3.016 15.607 6.388t15.299 7.094 14.958 7.785 14.587 8.461 14.186 9.118q6.988 4.722 13.754 9.757 6.765 5.036 13.293 10.375 6.529 5.34 12.806 10.972L400 370z"/><path fill="#ff9800" d="M646.421 95.341q9.473 8.499 18.338 17.63t17.079 18.852 15.74 19.983 14.325 21.02L400 370z"/><path fill="none" stroke="#fff" stroke-linejoin="bevel" stroke-width="2" d="M646.421 95.341q9.473 8.499 18.338 17.63t17.079 18.852 15.74 19.983 14.325 21.02L400 370 646.421 95.34z"/><path fill="#f44336" d="M711.903 172.827q4.84 7.657 9.3 15.542 4.458 7.885 8.525 15.98 4.066 8.094 7.73 16.378t6.919 16.738 6.088 17.057 5.244 17.336q2.41 8.732 4.387 17.572 1.978 8.84 3.52 17.766t2.644 17.918q1.102 8.99 1.761 18.025.66 9.035.875 18.09t-.014 18.112q-.23 9.055-.903 18.089t-1.79 18.023q-1.115 8.989-2.67 17.913-1.556 8.924-3.548 17.76t-4.414 17.566-5.27 17.327q-2.849 8.6-6.115 17.048-3.267 8.45-6.944 16.728t-7.757 16.366q-4.079 8.088-8.55 15.967-4.47 7.878-9.323 15.527-4.852 7.65-10.074 15.051-5.221 7.402-10.8 14.54-5.578 7.136-11.5 13.99-5.922 6.855-12.174 13.41-6.25 6.557-12.816 12.798t-13.43 12.152-14.008 11.48-14.556 10.777q-7.41 5.21-15.067 10.05-5.202 3.289-10.51 6.402-5.309 3.113-10.718 6.047-5.41 2.935-10.914 5.687t-11.097 5.32-11.268 4.946q-5.676 2.38-11.427 4.568-5.752 2.189-11.573 4.184t-11.707 3.797q-5.884 1.8-11.826 3.403-5.941 1.604-11.933 3.008t-12.027 2.608-12.107 2.205-12.174 1.8-12.227 1.394-12.267.985-12.293.576q-6.15.185-12.305.165t-12.304-.245q-6.15-.225-12.288-.656-6.14-.43-12.26-1.064-6.122-.635-12.218-1.473-6.097-.839-12.162-1.88t-12.093-2.284-12.01-2.686-11.913-3.085q-5.93-1.642-11.804-3.48-5.872-1.84-11.68-3.873-5.81-2.034-11.546-4.26-5.738-2.226-11.398-4.642t-11.236-5.02-11.062-5.391-10.876-5.758q-7.935-4.37-15.645-9.126t-15.178-9.882q-7.467-5.128-14.674-10.615-7.207-5.488-14.136-11.323t-13.563-12.003-12.958-12.653-12.322-13.274-11.655-13.863-10.961-14.418-10.24-14.939-9.496-15.423-8.727-15.87-7.937-16.279-7.13-16.65-6.303-16.978-5.464-17.268-4.609-17.515-3.744-17.72-2.87-17.883-1.99-18.002-1.103-18.078-.215-18.11.673-18.099q.56-9.04 1.561-18.044 1.002-9.003 2.444-17.945 1.443-8.943 3.322-17.805 1.88-8.86 4.192-17.62 2.312-8.758 5.051-17.392t5.899-17.124 6.731-16.814 7.549-16.463q3.976-8.14 8.347-16.074 2.97-5.39 6.117-10.678t6.47-10.469 6.815-10.246 7.153-10.014 7.483-9.77 7.804-9.515 8.118-9.25 8.421-8.973 8.716-8.688 9.001-8.392 9.276-8.087 9.54-7.774 9.794-7.451q4.96-3.644 10.038-7.12 5.077-3.477 10.269-6.783 5.19-3.305 10.489-6.435 5.298-3.13 10.698-6.082t10.895-5.722q5.496-2.77 11.08-5.356 5.585-2.586 11.252-4.983 5.668-2.398 11.413-4.605 5.744-2.208 11.559-4.223t11.694-3.834 11.815-3.442 11.923-3.046 12.018-2.647q6.032-1.224 12.1-2.245 6.069-1.022 12.168-1.84 6.1-.819 12.223-1.433t12.263-1.025q6.14-.41 12.291-.616Q393.846 1 400 1v369z"/><path fill="none" stroke="#fff" stroke-linejoin="bevel" stroke-width="2" d="M711.903 172.827q4.84 7.657 9.3 15.542 4.458 7.885 8.525 15.98 4.066 8.094 7.73 16.378t6.919 16.738 6.088 17.057 5.244 17.336q2.41 8.732 4.387 17.572 1.978 8.84 3.52 17.766t2.644 17.918q1.102 8.99 1.761 18.025.66 9.035.875 18.09t-.014 18.112q-.23 9.055-.903 18.089t-1.79 18.023q-1.115 8.989-2.67 17.913-1.556 8.924-3.548 17.76t-4.414 17.566-5.27 17.327q-2.849 8.6-6.115 17.048-3.267 8.45-6.944 16.728t-7.757 16.366q-4.079 8.088-8.55 15.967-4.47 7.878-9.323 15.527-4.852 7.65-10.074 15.051-5.221 7.402-10.8 14.54-5.578 7.136-11.5 13.99-5.922 6.855-12.174 13.41-6.25 6.557-12.816 12.798t-13.43 12.152-14.008 11.48-14.556 10.777q-7.41 5.21-15.067 10.05-5.202 3.289-10.51 6.402-5.309 3.113-10.718 6.047-5.41 2.935-10.914 5.687t-11.097 5.32-11.268 4.946q-5.676 2.38-11.427 4.568-5.752 2.189-11.573 4.184t-11.707 3.797q-5.884 1.8-11.826 3.403-5.941 1.604-11.933 3.008t-12.027 2.608-12.107 2.205-12.174 1.8-12.227 1.394-12.267.985-12.293.576q-6.15.185-12.305.165t-12.304-.245q-6.15-.225-12.288-.656-6.14-.43-12.26-1.064-6.122-.635-12.218-1.473-6.097-.839-12.162-1.88t-12.093-2.284-12.01-2.686-11.913-3.085q-5.93-1.642-11.804-3.48-5.872-1.84-11.68-3.873-5.81-2.034-11.546-4.26-5.738-2.226-11.398-4.642t-11.236-5.02-11.062-5.391-10.876-5.758q-7.935-4.37-15.645-9.126t-15.178-9.882q-7.467-5.128-14.674-10.615-7.207-5.488-14.136-11.323t-13.563-12.003-12.958-12.653-12.322-13.274-11.655-13.863-10.961-14.418-10.24-14.939-9.496-15.423-8.727-15.87-7.937-16.279-7.13-16.65-6.303-16.978-5.464-17.268-4.609-17.515-3.744-17.72-2.87-17.883-1.99-18.002-1.103-18.078-.215-18.11.673-18.099q.56-9.04 1.561-18.044 1.002-9.003 2.444-17.945 1.443-8.943 3.322-17.805 1.88-8.86 4.192-17.62 2.312-8.758 5.051-17.392t5.899-17.124 6.731-16.814 7.549-16.463q3.976-8.14 8.347-16.074 2.97-5.39 6.117-10.678t6.47-10.469 6.815-10.246 7.153-10.014 7.483-9.77 7.804-9.515 8.118-9.25 8.421-8.973 8.716-8.688 9.001-8.392 9.276-8.087 9.54-7.774 9.794-7.451q4.96-3.644 10.038-7.12 5.077-3.477 10.269-6.783 5.19-3.305 10.489-6.435 5.298-3.13 10.698-6.082t10.895-5.722q5.496-2.77 11.08-5.356 5.585-2.586 11.252-4.983 5.668-2.398 11.413-4.605 5.744-2.208 11.559-4.223t11.694-3.834 11.815-3.442 11.923-3.046 12.018-2.647q6.032-1.224 12.1-2.245 6.069-1.022 12.168-1.84 6.1-.819 12.223-1.433t12.263-1.025q6.14-.41 12.291-.616Q393.846 1 400 1v369l311.903-197.173Z"/></svg>