<svg xmlns="http://www.w3.org/2000/svg" width="800" height="800"><path fill="none" d="M0 0h800v800H0z"/><clipPath id="a"><path d="M0 740h800v60H0z"/></clipPath><g clip-path="url(#a)"><path fill="#4caf50" d="M144.605 770h40v20h-40z"/><path fill="none" stroke="#fff" stroke-miterlimit="10" stroke-width="2" d="M144.605 770h40v20h-40z"/><text x="194.605, 207.94484, 217.50539, 230.38625, 240.64992, 248.68703, 260.52295," y="787.5," fill="#666" font-family="DejaVu Serif" font-size="20">Trusted</text><path fill="#ff9800" d="M303.325 770h40v20h-40z"/><path fill="none" stroke="#fff" stroke-miterlimit="10" stroke-width="2" d="M303.325 770h40v20h-40z"/><text x="353.32501, 366.78204, 376.34259, 388.38361, 399.68243, 411.51837, 424.39923, 436.32306, 449.20392, 460.40509," y="787.5," fill="#666" font-family="DejaVu Serif" font-size="20">Provenance</text><path fill="#f44336" d="M502.245 770h40v20h-40z"/><path fill="none" stroke="#fff" stroke-miterlimit="10" stroke-width="2" d="M502.245 770h40v20h-40z"/><text x="552.245, 569.10046, 581.98132, 590.01843, 599.57898, 612.45984, 622.72351, 630.76062, 642.59656," y="787.5," fill="#666" font-family="DejaVu Serif" font-size="20">Untrusted</text></g><path fill="#4caf50" d="M400 1q7.704 0 15.401.322 7.698.321 15.375.964 7.677.642 15.32 1.605 7.644.962 15.241 2.243t15.134 2.877 15 3.506 14.841 4.13 14.656 4.745 14.445 5.352q7.166 2.828 14.208 5.951 7.043 3.124 13.949 6.54 6.905 3.414 13.662 7.114t13.355 7.68 13.021 8.23q6.426 4.25 12.668 8.766t12.29 9.288L400 370z"/><path fill="none" stroke="#fff" stroke-linejoin="bevel" stroke-width="2" d="M400 1q7.704 0 15.401.322 7.698.321 15.375.964 7.677.642 15.32 1.605 7.644.962 15.241 2.243t15.134 2.877 15 3.506 14.841 4.13 14.656 4.745 14.445 5.352q7.166 2.828 14.208 5.951 7.043 3.124 13.949 6.54 6.905 3.414 13.662 7.114t13.355 7.68 13.021 8.23q6.426 4.25 12.668 8.766t12.29 9.288L400 370z"/><path fill="#ff9800" d="M628.566 80.313q10.113 7.98 19.645 16.645t18.438 17.974 17.138 19.217 15.757 20.364L400 370z"/><path fill="none" stroke="#fff" stroke-linejoin="bevel" stroke-width="2" d="M628.566 80.313q10.113 7.98 19.645 16.645t18.438 17.974 17.138 19.217 15.757 20.364L400 370 628.566 80.313Z"/><path fill="#f44336" d="M699.544 154.513q5.29 7.354 10.212 14.958 4.923 7.604 9.467 15.44 4.544 7.837 8.697 15.887 4.154 8.05 7.908 16.294 3.753 8.244 7.098 16.662 3.344 8.419 6.272 16.991t5.431 17.278 4.577 17.524 3.71 17.727q1.639 8.909 2.838 17.888 1.199 8.978 1.955 18.005.757 9.027 1.07 18.08t.182 18.11-.707 18.098-1.595 18.041-2.477 17.941-3.356 17.798-4.224 17.612-5.083 17.384-5.93 17.113-6.764 16.801-7.579 16.45q-3.991 8.13-8.377 16.057-4.385 7.926-9.155 15.627t-9.91 15.16q-5.142 7.457-10.643 14.654t-11.349 14.115-12.028 13.54-12.677 12.935q-6.498 6.312-13.298 12.297t-13.884 11.63-14.438 10.934q-5.136 3.695-10.396 7.21-5.26 3.517-10.636 6.851-5.377 3.334-10.865 6.482t-11.08 6.106q-5.594 2.957-11.284 5.722-5.691 2.764-11.474 5.332-5.782 2.567-11.649 4.935t-11.811 4.533-11.96 4.126-12.095 3.713-12.214 3.296-12.32 2.876-12.412 2.452-12.489 2.025-12.55 1.595-12.598 1.164-12.63.732-12.648.298-12.651-.135-12.639-.57q-6.315-.392-12.612-1.001-6.297-.61-12.57-1.434t-12.513-1.864q-6.241-1.039-12.443-2.291-6.201-1.253-12.356-2.717t-12.256-3.14-12.141-3.556-12.012-3.972q-5.972-2.088-11.87-4.38-5.896-2.292-11.71-4.785-5.816-2.493-11.542-5.184-5.726-2.69-11.356-5.576-8.062-4.132-15.91-8.654-7.85-4.522-15.467-9.423-7.618-4.902-14.986-10.172t-14.468-10.894-13.917-11.591-13.331-12.26-12.713-12.9-12.066-13.507q-5.866-6.902-11.387-14.083-5.521-7.182-10.683-14.626t-9.953-15.131-9.198-15.602-8.422-16.035q-4.013-8.12-7.624-16.428t-6.81-16.783-5.977-17.096-5.131-17.37q-2.353-8.747-4.274-17.6-1.92-8.852-3.404-17.788t-2.527-17.934-1.645-18.037q-.6-9.038-.757-18.096-.156-9.057.132-18.11.288-9.054 1.02-18.083t1.906-18.011 2.787-17.896 3.662-17.737q2.05-8.824 4.528-17.536 2.48-8.713 5.384-17.293 2.903-8.58 6.225-17.008t7.052-16.682 7.862-16.316q2.886-5.63 5.963-11.158 3.076-5.529 6.341-10.948t6.713-10.724q3.448-5.304 7.077-10.487t7.431-10.239 7.779-9.977 8.116-9.706 8.444-9.42q4.303-4.64 8.762-9.127t9.07-8.82q4.61-4.333 9.366-8.505 4.757-4.172 9.653-8.178t9.928-7.843q5.03-3.836 10.19-7.498 5.16-3.661 10.442-7.144t10.68-6.782 10.907-6.411 11.12-6.034q5.611-2.922 11.32-5.65 5.708-2.727 11.507-5.258 5.798-2.53 11.68-4.86 5.883-2.33 11.841-4.457t11.986-4.049 12.118-3.635 12.236-3.217q6.145-1.504 12.338-2.797 6.194-1.292 12.428-2.372t12.5-1.944T362.11 2.95q6.294-.65 12.606-1.083 6.311-.433 12.634-.65T400 1v369z"/><path fill="none" stroke="#fff" stroke-linejoin="bevel" stroke-width="2" d="M699.544 154.513q5.29 7.354 10.212 14.958 4.923 7.604 9.467 15.44 4.544 7.837 8.697 15.887 4.154 8.05 7.908 16.294 3.753 8.244 7.098 16.662 3.344 8.419 6.272 16.991t5.431 17.278 4.577 17.524 3.71 17.727q1.639 8.909 2.838 17.888 1.199 8.978 1.955 18.005.757 9.027 1.07 18.08t.182 18.11-.707 18.098-1.595 18.041-2.477 17.941-3.356 17.798-4.224 17.612-5.083 17.384-5.93 17.113-6.764 16.801-7.579 16.45q-3.991 8.13-8.377 16.057-4.385 7.926-9.155 15.627t-9.91 15.16q-5.142 7.457-10.643 14.654t-11.349 14.115-12.028 13.54-12.677 12.935q-6.498 6.312-13.298 12.297t-13.884 11.63-14.438 10.934q-5.136 3.695-10.396 7.21-5.26 3.517-10.636 6.851-5.377 3.334-10.865 6.482t-11.08 6.106q-5.594 2.957-11.284 5.722-5.691 2.764-11.474 5.332-5.782 2.567-11.649 4.935t-11.811 4.533-11.96 4.126-12.095 3.713-12.214 3.296-12.32 2.876-12.412 2.452-12.489 2.025-12.55 1.595-12.598 1.164-12.63.732-12.648.298-12.651-.135-12.639-.57q-6.315-.392-12.612-1.001-6.297-.61-12.57-1.434t-12.513-1.864q-6.241-1.039-12.443-2.291-6.201-1.253-12.356-2.717t-12.256-3.14-12.141-3.556-12.012-3.972q-5.972-2.088-11.87-4.38-5.896-2.292-11.71-4.785-5.816-2.493-11.542-5.184-5.726-2.69-11.356-5.576-8.062-4.132-15.91-8.654-7.85-4.522-15.467-9.423-7.618-4.902-14.986-10.172t-14.468-10.894-13.917-11.591-13.331-12.26-12.713-12.9-12.066-13.507q-5.866-6.902-11.387-14.083-5.521-7.182-10.683-14.626t-9.953-15.131-9.198-15.602-8.422-16.035q-4.013-8.12-7.624-16.428t-6.81-16.783-5.977-17.096-5.131-17.37q-2.353-8.747-4.274-17.6-1.92-8.852-3.404-17.788t-2.527-17.934-1.645-18.037q-.6-9.038-.757-18.096-.156-9.057.132-18.11.288-9.054 1.02-18.083t1.906-18.011 2.787-17.896 3.662-17.737q2.05-8.824 4.528-17.536 2.48-8.713 5.384-17.293 2.903-8.58 6.225-17.008t7.052-16.682 7.862-16.316q2.886-5.63 5.963-11.158 3.076-5.529 6.341-10.948t6.713-10.724q3.448-5.304 7.077-10.487t7.431-10.239 7.779-9.977 8.116-9.706 8.444-9.42q4.303-4.64 8.762-9.127t9.07-8.82q4.61-4.333 9.366-8.505 4.757-4.172 9.653-8.178t9.928-7.843q5.03-3.836 10.19-7.498 5.16-3.661 10.442-7.144t10.68-6.782 10.907-6.411 11.12-6.034q5.611-2.922 11.32-5.65 5.708-2.727 11.507-5.258 5.798-2.53 11.68-4.86 5.883-2.33 11.841-4.457t11.986-4.049 12.118-3.635 12.236-3.217q6.145-1.504 12.338-2.797 6.194-1.292 12.428-2.372t12.5-1.944T362.11 2.95q6.294-.65 12.606-1.083 6.311-.433 12.634-.65T400 1v369l299.544-215.487Z"/></svg>