<svg xmlns="http://www.w3.org/2000/svg" width="800" height="800"><path fill="none" d="M0 0h800v800H0z"/><clipPath id="a"><path d="M0 740h800v60H0z"/></clipPath><g clip-path="url(#a)"><path fill="#4caf50" d="M164.745 770h40v20h-40z"/><path fill="none" stroke="#fff" stroke-miterlimit="10" stroke-width="2" d="M164.745 770h40v20h-40z"/><text x="214.745, 226.2196, 232.87976, 244.00281, 254.00281, 259.55945, 270.6825," y="786.5," fill="#666" font-family="Liberation Sans" font-size="20">Trusted</text><path fill="#ff9800" d="M311.805 770h40v20h-40z"/><path fill="none" stroke="#fff" stroke-miterlimit="10" stroke-width="2" d="M311.805 770h40v20h-40z"/><text x="361.80499, 375.14484, 381.80499, 392.92804, 402.92804, 414.05109, 425.17413, 436.29718, 447.42023, 457.42023," y="786.5," fill="#666" font-family="Liberation Sans" font-size="20">Provenance</text><path fill="#f44336" d="M498.545 770h40v20h-40z"/><path fill="none" stroke="#fff" stroke-miterlimit="10" stroke-width="2" d="M498.545 770h40v20h-40z"/><text x="548.54498, 562.98834, 574.11139, 579.66803, 586.32819, 597.45123, 607.45123, 613.00787, 624.13092," y="786.5," fill="#666" font-family="Liberation Sans" font-size="20">Untrusted</text></g><path fill="#4caf50" d="M400 1q5.853 0 11.703.186 5.85.185 11.691.556t11.668.928 11.633 1.296 11.585 1.666 11.527 2.031 11.457 2.397 11.375 2.758 11.282 3.118 11.177 3.474q5.56 1.825 11.061 3.827 5.5 2 10.935 4.175 5.434 2.175 10.796 4.52 5.363 2.347 10.648 4.861 5.285 2.515 10.488 5.196t10.318 5.526 10.138 5.85 9.947 6.169 9.746 6.481 9.536 6.787 9.316 7.086 9.086 7.378 8.848 7.663 8.6 7.94q4.238 4.037 8.345 8.207t8.08 8.469q3.972 4.298 7.807 8.72 3.834 4.422 7.526 8.964t7.239 9.198 6.943 9.423 6.64 9.638 6.332 9.844L400 370z"/><path fill="none" stroke="#fff" stroke-linejoin="bevel" stroke-width="2" d="M400 1q5.853 0 11.703.186 5.85.185 11.691.556t11.668.928 11.633 1.296 11.585 1.666 11.527 2.031 11.457 2.397 11.375 2.758 11.282 3.118 11.177 3.474q5.56 1.825 11.061 3.827 5.5 2 10.935 4.175 5.434 2.175 10.796 4.52 5.363 2.347 10.648 4.861 5.285 2.515 10.488 5.196t10.318 5.526 10.138 5.85 9.947 6.169 9.746 6.481 9.536 6.787 9.316 7.086 9.086 7.378 8.848 7.663 8.6 7.94q4.238 4.037 8.345 8.207t8.08 8.469q3.972 4.298 7.807 8.72 3.834 4.422 7.526 8.964t7.239 9.198 6.943 9.423 6.64 9.638 6.332 9.844L400 370z"/><path fill="#ff9800" d="M713.473 175.332q9.737 15.679 17.86 32.25 8.123 16.572 14.553 33.872L400 370z"/><path fill="none" stroke="#fff" stroke-linejoin="bevel" stroke-width="2" d="M713.473 175.332q9.737 15.679 17.86 32.25 8.123 16.572 14.553 33.872L400 370z"/><path fill="#f44336" d="M745.886 241.454q3.155 8.49 5.89 17.126 2.736 8.636 5.044 17.396 2.308 8.759 4.183 17.621t3.315 17.806 2.436 17.947 1.553 18.044.665 18.1q.111 9.057-.223 18.11t-1.112 18.077-1.997 18-2.878 17.882-3.752 17.719-4.617 17.513-5.471 17.265-6.311 16.976-7.137 16.646-7.945 16.276-8.734 15.866-9.502 15.419q-4.94 7.593-10.247 14.934t-10.968 14.413-11.661 13.858q-6 6.785-12.327 13.268t-12.964 12.648-13.569 11.997q-6.931 5.831-14.14 11.316-7.21 5.484-14.68 10.609-7.47 5.124-15.182 9.875t-15.648 9.12-16.077 8.34-16.467 7.54-16.817 6.725q-5.206 1.935-10.469 3.712t-10.576 3.396-10.673 3.075-10.761 2.753q-5.402 1.296-10.84 2.428-5.437 1.133-10.907 2.101t-10.966 1.771-11.013 1.44q-5.518.638-11.053 1.109-5.534.471-11.08.775t-11.1.441-11.107.108-11.105-.228-11.094-.561q-5.542-.365-11.071-.895-5.53-.531-11.04-1.228t-10.998-1.56q-5.487-.863-10.945-1.89-5.46-1.028-10.884-2.219-5.426-1.191-10.813-2.545-5.386-1.354-10.73-2.87-5.344-1.515-10.64-3.19-5.295-1.676-10.538-3.51-5.243-1.835-10.428-3.826t-10.309-4.138q-5.123-2.146-10.179-4.446t-10.04-4.75-9.894-5.051-9.736-5.346-9.572-5.637-9.397-5.922-9.215-6.202q-7.438-5.17-14.613-10.7t-14.07-11.404-13.494-12.081-12.884-12.728q-6.286-6.523-12.245-13.345t-11.575-13.93-10.878-14.481q-5.26-7.374-10.154-14.998-4.892-7.623-9.405-15.477t-8.635-15.92q-4.123-8.067-7.844-16.326-3.721-8.258-7.033-16.69-3.312-8.431-6.205-17.015t-5.364-17.299-4.508-17.541-3.641-17.742-2.767-17.899-1.886-18.013-.999-18.084-.11-18.11q.167-9.058.778-18.096t1.665-18.034 2.548-17.931q1.494-8.935 3.425-17.785t4.293-17.595 5.152-17.364 5.997-17.09q3.208-8.47 6.829-16.774t7.643-16.42q4.024-8.116 8.44-16.024 4.417-7.91 9.216-15.592 4.8-7.682 9.97-15.12 3.17-4.56 6.477-9.024t6.746-8.825 7.008-8.618 7.264-8.403q3.696-4.147 7.514-8.18 3.819-4.034 7.757-7.951t7.993-7.714 8.22-7.47q4.168-3.672 8.443-7.218 4.276-3.546 8.656-6.961t8.861-6.698 9.06-6.428 9.247-6.152 9.43-5.872 9.601-5.584 9.766-5.294 9.92-4.996 10.067-4.697 10.203-4.39q5.134-2.12 10.33-4.082 5.196-1.963 10.449-3.77 5.253-1.805 10.557-3.452t10.657-3.134 10.746-2.811 10.826-2.487 10.896-2.16q5.464-.997 10.956-1.83t11.006-1.5 11.046-1.168 11.076-.835q5.545-.335 11.096-.502Q394.446 1 400 1v369z"/><path fill="none" stroke="#fff" stroke-linejoin="bevel" stroke-width="2" d="M745.886 241.454q3.155 8.49 5.89 17.126 2.736 8.636 5.044 17.396 2.308 8.759 4.183 17.621t3.315 17.806 2.436 17.947 1.553 18.044.665 18.1q.111 9.057-.223 18.11t-1.112 18.077-1.997 18-2.878 17.882-3.752 17.719-4.617 17.513-5.471 17.265-6.311 16.976-7.137 16.646-7.945 16.276-8.734 15.866-9.502 15.419q-4.94 7.593-10.247 14.934t-10.968 14.413-11.661 13.858q-6 6.785-12.327 13.268t-12.964 12.648-13.569 11.997q-6.931 5.831-14.14 11.316-7.21 5.484-14.68 10.609-7.47 5.124-15.182 9.875t-15.648 9.12-16.077 8.34-16.467 7.54-16.817 6.725q-5.206 1.935-10.469 3.712t-10.576 3.396-10.673 3.075-10.761 2.753q-5.402 1.296-10.84 2.428-5.437 1.133-10.907 2.101t-10.966 1.771-11.013 1.44q-5.518.638-11.053 1.109-5.534.471-11.08.775t-11.1.441-11.107.108-11.105-.228-11.094-.561q-5.542-.365-11.071-.895-5.53-.531-11.04-1.228t-10.998-1.56q-5.487-.863-10.945-1.89-5.46-1.028-10.884-2.219-5.426-1.191-10.813-2.545-5.386-1.354-10.73-2.87-5.344-1.515-10.64-3.19-5.295-1.676-10.538-3.51-5.243-1.835-10.428-3.826t-10.309-4.138q-5.123-2.146-10.179-4.446t-10.04-4.75-9.894-5.051-9.736-5.346-9.572-5.637-9.397-5.922-9.215-6.202q-7.438-5.17-14.613-10.7t-14.07-11.404-13.494-12.081-12.884-12.728q-6.286-6.523-12.245-13.345t-11.575-13.93-10.878-14.481q-5.26-7.374-10.154-14.998-4.892-7.623-9.405-15.477t-8.635-15.92q-4.123-8.067-7.844-16.326-3.721-8.258-7.033-16.69-3.312-8.431-6.205-17.015t-5.364-17.299-4.508-17.541-3.641-17.742-2.767-17.899-1.886-18.013-.999-18.084-.11-18.11q.167-9.058.778-18.096t1.665-18.034 2.548-17.931q1.494-8.935 3.425-17.785t4.293-17.595 5.152-17.364 5.997-17.09q3.208-8.47 6.829-16.774t7.643-16.42q4.024-8.116 8.44-16.024 4.417-7.91 9.216-15.592 4.8-7.682 9.97-15.12 3.17-4.56 6.477-9.024t6.746-8.825 7.008-8.618 7.264-8.403q3.696-4.147 7.514-8.18 3.819-4.034 7.757-7.951t7.993-7.714 8.22-7.47q4.168-3.672 8.443-7.218 4.276-3.546 8.656-6.961t8.861-6.698 9.06-6.428 9.247-6.152 9.43-5.872 9.601-5.584 9.766-5.294 9.92-4.996 10.067-4.697 10.203-4.39q5.134-2.12 10.33-4.082 5.196-1.963 10.449-3.77 5.253-1.805 10.557-3.452t10.657-3.134 10.746-2.811 10.826-2.487 10.896-2.16q5.464-.997 10.956-1.83t11.006-1.5 11.046-1.168 11.076-.835q5.545-.335 11.096-.502Q394.446 1 400 1v369l345.886-128.546Z"/></svg>