<svg xmlns="http://www.w3.org/2000/svg" width="800" height="800"><path fill="none" d="M0 0h800v800H0z"/><clipPath id="a"><path d="M0 690h800v110H0z"/></clipPath><g clip-path="url(#a)"><path fill="#4caf50" d="M123.3 720h40v20h-40z"/><path fill="none" stroke="#fff" stroke-miterlimit="10" stroke-width="2" d="M123.3 720h40v20h-40z"/><path fill="#ff9800" d="M377.64 720h40v20h-40z"/><path fill="none" stroke="#fff" stroke-miterlimit="10" stroke-width="2" d="M377.64 720h40v20h-40z"/><path fill="#f44336" d="M262.92 770h40v20h-40z"/><path fill="none" stroke="#fff" stroke-miterlimit="10" stroke-width="2" d="M262.92 770h40v20h-40z"/></g><path fill="#4caf50" d="M400 1q4.275 0 8.55.106 4.273.107 8.543.319t8.534.53 8.517.744q4.254.424 8.497.954 4.242.53 8.47 1.165t8.438 1.375 8.402 1.585 8.36 1.793 8.313 2 8.26 2.206 8.203 2.41 8.14 2.615q4.055 1.357 8.074 2.815t8 3.015 7.924 3.213 7.84 3.41 7.754 3.602q3.855 1.85 7.662 3.794 3.808 1.945 7.566 3.984t7.463 4.17 7.358 4.355 7.248 4.536q3.595 2.313 7.132 4.715t7.013 4.89 6.89 5.064 6.76 5.233q3.35 2.658 6.63 5.399 3.281 2.74 6.493 5.563 3.212 2.821 6.353 5.722 3.14 2.9 6.208 5.878t6.061 6.03L400 345z"/><path fill="none" stroke="#fff" stroke-linejoin="bevel" stroke-width="2" d="M400 1q4.275 0 8.55.106 4.273.107 8.543.319t8.534.53 8.517.744q4.254.424 8.497.954 4.242.53 8.47 1.165t8.438 1.375 8.402 1.585 8.36 1.793 8.313 2 8.26 2.206 8.203 2.41 8.14 2.615q4.055 1.357 8.074 2.815t8 3.015 7.924 3.213 7.84 3.41 7.754 3.602q3.855 1.85 7.662 3.794 3.808 1.945 7.566 3.984t7.463 4.17 7.358 4.355 7.248 4.536q3.595 2.313 7.132 4.715t7.013 4.89 6.89 5.064 6.76 5.233q3.35 2.658 6.63 5.399 3.281 2.74 6.493 5.563 3.212 2.821 6.353 5.722 3.14 2.9 6.208 5.878t6.061 6.03L400 345z"/><path fill="#ff9800" d="M645.656 104.19q15.738 16.055 29.252 34.022 13.515 17.966 24.576 37.538L400 345z"/><path fill="none" stroke="#fff" stroke-linejoin="bevel" stroke-width="2" d="M645.656 104.19q15.738 16.055 29.252 34.022 13.515 17.966 24.576 37.538L400 345l245.656-240.81Z"/><path fill="#f44336" d="M699.484 175.75q4.155 7.352 7.944 14.9 3.789 7.546 7.203 15.27t6.445 15.606 5.672 15.903q2.64 8.02 4.885 16.162t4.086 16.383 3.277 16.563q1.435 8.322 2.46 16.704t1.638 16.805.81 16.865q.2 8.442-.017 16.884-.215 8.442-.845 16.863t-1.672 16.802q-1.043 8.38-2.495 16.699t-3.311 16.556-4.12 16.374-4.917 16.153-5.705 15.891-6.477 15.593-7.235 15.255-7.974 14.883-8.695 14.473q-4.526 7.13-9.395 14.03-4.87 6.899-10.072 13.55-5.203 6.653-10.725 13.042-5.522 6.388-11.352 12.499-5.829 6.11-11.95 11.926-6.123 5.817-12.523 11.326t-13.063 10.698-13.572 10.044-14.048 9.366-14.491 8.666q-4.88 2.757-9.846 5.354t-10.015 5.031q-5.048 2.434-10.173 4.702t-10.321 4.368-10.458 4.03-10.584 3.686-10.698 3.34-10.801 2.99-10.893 2.636-10.973 2.28-11.041 1.922-11.099 1.56-11.143 1.199-11.176.834-11.198.47-11.207.106-11.204-.26-11.19-.625-11.164-.989-11.125-1.352-11.076-1.714-11.014-2.074-10.94-2.43q-5.45-1.306-10.855-2.787-5.405-1.482-10.76-3.139-5.353-1.657-10.65-3.487t-10.532-3.833q-5.235-2.002-10.401-4.173-5.167-2.172-10.26-4.51-5.093-2.34-10.108-4.843-5.014-2.503-9.944-5.168t-9.77-5.49q-7.294-4.256-14.37-8.865-7.077-4.609-13.918-9.56-6.842-4.95-13.432-10.23t-12.914-10.877-12.365-11.498q-6.04-5.9-11.785-12.09-5.744-6.19-11.178-12.655t-10.544-13.188-9.884-13.689q-4.773-6.966-9.2-14.157-4.426-7.192-8.494-14.592t-7.768-14.992q-3.7-7.59-7.024-15.354t-6.261-15.68-5.485-15.97q-2.546-8.05-4.694-16.218t-3.893-16.43q-1.744-8.262-3.082-16.6t-2.263-16.732q-.927-8.394-1.44-16.823-.514-8.429-.613-16.873-.1-8.444.216-16.883.315-8.439 1.044-16.852.728-8.413 1.87-16.78 1.14-8.368 2.69-16.67 1.55-8.3 3.505-16.516 1.956-8.215 4.312-16.324t5.108-16.094q2.75-7.984 5.89-15.823t6.66-15.515q3.521-7.676 7.414-15.17t8.15-14.788q2.824-4.84 5.804-9.586t6.115-9.393 6.417-9.188 6.713-8.975 7.002-8.75 7.283-8.519 7.557-8.276 7.823-8.026q3.976-3.95 8.08-7.767 4.102-3.818 8.328-7.5t8.568-7.224q4.343-3.542 8.8-6.941 4.455-3.399 9.02-6.65 4.564-3.253 9.232-6.355 4.668-3.101 9.435-6.049 4.766-2.948 9.626-5.739t9.809-5.422 9.98-5.1q5.03-2.469 10.14-4.772t10.29-4.44q5.182-2.135 10.43-4.101 5.249-1.966 10.559-3.76t10.674-3.414 10.78-3.064q5.416-1.444 10.875-2.711 5.46-1.267 10.957-2.356t11.028-1.998 11.087-1.637 11.135-1.275 11.17-.912q5.593-.365 11.194-.547T400 1v344z"/><path fill="none" stroke="#fff" stroke-linejoin="bevel" stroke-width="2" d="M699.484 175.75q4.155 7.352 7.944 14.9 3.789 7.546 7.203 15.27t6.445 15.606 5.672 15.903q2.64 8.02 4.885 16.162t4.086 16.383 3.277 16.563q1.435 8.322 2.46 16.704t1.638 16.805.81 16.865q.2 8.442-.017 16.884-.215 8.442-.845 16.863t-1.672 16.802q-1.043 8.38-2.495 16.699t-3.311 16.556-4.12 16.374-4.917 16.153-5.705 15.891-6.477 15.593-7.235 15.255-7.974 14.883-8.695 14.473q-4.526 7.13-9.395 14.03-4.87 6.899-10.072 13.55-5.203 6.653-10.725 13.042-5.522 6.388-11.352 12.499-5.829 6.11-11.95 11.926-6.123 5.817-12.523 11.326t-13.063 10.698-13.572 10.044-14.048 9.366-14.491 8.666q-4.88 2.757-9.846 5.354t-10.015 5.031q-5.048 2.434-10.173 4.702t-10.321 4.368-10.458 4.03-10.584 3.686-10.698 3.34-10.801 2.99-10.893 2.636-10.973 2.28-11.041 1.922-11.099 1.56-11.143 1.199-11.176.834-11.198.47-11.207.106-11.204-.26-11.19-.625-11.164-.989-11.125-1.352-11.076-1.714-11.014-2.074-10.94-2.43q-5.45-1.306-10.855-2.787-5.405-1.482-10.76-3.139-5.353-1.657-10.65-3.487t-10.532-3.833q-5.235-2.002-10.401-4.173-5.167-2.172-10.26-4.51-5.093-2.34-10.108-4.843-5.014-2.503-9.944-5.168t-9.77-5.49q-7.294-4.256-14.37-8.865-7.077-4.609-13.918-9.56-6.842-4.95-13.432-10.23t-12.914-10.877-12.365-11.498q-6.04-5.9-11.785-12.09-5.744-6.19-11.178-12.655t-10.544-13.188-9.884-13.689q-4.773-6.966-9.2-14.157-4.426-7.192-8.494-14.592t-7.768-14.992q-3.7-7.59-7.024-15.354t-6.261-15.68-5.485-15.97q-2.546-8.05-4.694-16.218t-3.893-16.43q-1.744-8.262-3.082-16.6t-2.263-16.732q-.927-8.394-1.44-16.823-.514-8.429-.613-16.873-.1-8.444.216-16.883.315-8.439 1.044-16.852.728-8.413 1.87-16.78 1.14-8.368 2.69-16.67 1.55-8.3 3.505-16.516 1.956-8.215 4.312-16.324t5.108-16.094q2.75-7.984 5.89-15.823t6.66-15.515q3.521-7.676 7.414-15.17t8.15-14.788q2.824-4.84 5.804-9.586t6.115-9.393 6.417-9.188 6.713-8.975 7.002-8.75 7.283-8.519 7.557-8.276 7.823-8.026q3.976-3.95 8.08-7.767 4.102-3.818 8.328-7.5t8.568-7.224q4.343-3.542 8.8-6.941 4.455-3.399 9.02-6.65 4.564-3.253 9.232-6.355 4.668-3.101 9.435-6.049 4.766-2.948 9.626-5.739t9.809-5.422 9.98-5.1q5.03-2.469 10.14-4.772t10.29-4.44q5.182-2.135 10.43-4.101 5.249-1.966 10.559-3.76t10.674-3.414 10.78-3.064q5.416-1.444 10.875-2.711 5.46-1.267 10.957-2.356t11.028-1.998 11.087-1.637 11.135-1.275 11.17-.912q5.593-.365 11.194-.547T400 1v344z"/></svg>