<svg xmlns="http://www.w3.org/2000/svg" width="800" height="800"><path fill="none" d="M0 0h800v800H0z"/><clipPath id="a"><path d="M0 740h800v60H0z"/></clipPath><g clip-path="url(#a)"><path fill="#4caf50" d="M144.605 770h40v20h-40z"/><path fill="none" stroke="#fff" stroke-miterlimit="10" stroke-width="2" d="M144.605 770h40v20h-40z"/><text x="194.605, 207.94484, 217.50539, 230.38625, 240.64992, 248.68703, 260.52295," y="787.5," fill="#666" font-family="DejaVu Serif" font-size="20">Trusted</text><path fill="#ff9800" d="M303.325 770h40v20h-40z"/><path fill="none" stroke="#fff" stroke-miterlimit="10" stroke-width="2" d="M303.325 770h40v20h-40z"/><text x="353.32501, 366.78204, 376.34259, 388.38361, 399.68243, 411.51837, 424.39923, 436.32306, 449.20392, 460.40509," y="787.5," fill="#666" font-family="DejaVu Serif" font-size="20">Provenance</text><path fill="#f44336" d="M502.245 770h40v20h-40z"/><path fill="none" stroke="#fff" stroke-miterlimit="10" stroke-width="2" d="M502.245 770h40v20h-40z"/><text x="552.245, 569.10046, 581.98132, 590.01843, 599.57898, 612.45984, 622.72351, 630.76062, 642.59656," y="787.5," fill="#666" font-family="DejaVu Serif" font-size="20">Untrusted</text></g><path fill="#4caf50" d="M400 1q8.526 0 17.043.394 8.518.394 17.007 1.18 8.49.787 16.935 1.965t16.825 2.745 16.681 3.52 16.5 4.285 16.285 5.044 16.035 5.79 15.75 6.524 15.432 7.245 15.08 7.95q7.45 4.15 14.698 8.639t14.283 9.308q7.034 4.819 13.837 9.957 6.804 5.139 13.363 10.586 6.56 5.448 12.86 11.192L400 370z"/><path fill="none" stroke="#fff" stroke-linejoin="bevel" stroke-width="2" d="M400 1q8.526 0 17.043.394 8.518.394 17.007 1.18 8.49.787 16.935 1.965t16.825 2.745 16.681 3.52 16.5 4.285 16.285 5.044 16.035 5.79 15.75 6.524 15.432 7.245 15.08 7.95q7.45 4.15 14.698 8.639t14.283 9.308q7.034 4.819 13.837 9.957 6.804 5.139 13.363 10.586 6.56 5.448 12.86 11.192L400 370z"/><path fill="#ff9800" d="M648.614 97.324q9.376 8.549 18.142 17.72 8.766 9.173 16.882 18.925 8.115 9.752 15.542 20.04 7.426 10.286 14.129 21.059L400 370z"/><path fill="none" stroke="#fff" stroke-linejoin="bevel" stroke-width="2" d="M648.614 97.324q9.376 8.549 18.142 17.72 8.766 9.173 16.882 18.925 8.115 9.752 15.542 20.04 7.426 10.286 14.129 21.059L400 370 648.614 97.324Z"/><path fill="#f44336" d="M713.309 175.068q4.785 7.691 9.188 15.608 4.402 7.917 8.41 16.04 4.008 8.124 7.613 16.434t6.798 16.787 5.966 17.1q2.773 8.624 5.12 17.374t4.26 17.603q1.915 8.853 3.393 17.79 1.478 8.938 2.515 17.936 1.038 9 1.632 18.038.595 9.04.745 18.096t-.144 18.111-1.032 18.082-1.918 18.01q-1.18 8.98-2.8 17.893t-3.674 17.735q-2.055 8.823-4.54 17.533-2.486 8.711-5.395 17.29-2.91 8.578-6.237 17.003t-7.064 16.677-7.873 16.311-8.665 15.905-9.434 15.46-10.181 14.979-10.904 14.46-11.601 13.91-12.27 13.322q-6.297 6.51-12.907 12.705-6.61 6.193-13.516 12.055t-14.091 11.379-14.632 10.673-15.139 9.942q-5.208 3.24-10.52 6.305-5.313 3.065-10.724 5.952t-10.916 5.593-11.095 5.227q-5.592 2.52-11.264 4.855-5.672 2.333-11.418 4.477t-11.56 4.096-11.691 3.71-11.808 3.32-11.911 2.924q-5.98 1.363-12.002 2.527t-12.079 2.127-12.143 1.725q-6.086.76-12.194 1.32-6.108.558-12.23.913-6.124.356-12.255.507t-12.265.1q-6.133-.053-12.261-.309t-12.244-.715-12.214-1.122q-6.097-.663-12.17-1.528-6.071-.865-12.111-1.93-6.04-1.067-12.041-2.333t-11.957-2.732-11.86-3.127-11.75-3.52q-5.845-1.857-11.625-3.908-5.78-2.05-11.49-4.292-5.708-2.242-11.34-4.672t-11.179-5.046-11.004-5.415-10.82-5.777h.001q-7.918-4.4-15.611-9.182-7.694-4.783-15.143-9.937t-14.636-10.668q-7.187-5.513-14.095-11.373t-13.52-12.05q-6.612-6.192-12.913-12.7-6.3-6.51-12.274-13.32-5.973-6.809-11.605-13.904t-10.91-14.457-10.187-14.975q-4.91-7.612-9.44-15.457-4.53-7.844-8.67-15.901t-7.879-16.308-7.07-16.675-6.242-17.001-5.401-17.287-4.547-17.532-3.68-17.733-2.806-17.893-1.925-18.009-1.039-18.082-.15-18.11.738-18.097 1.626-18.038 2.508-17.937 3.386-17.792 4.255-17.605 5.113-17.374 5.96-17.103 6.792-16.79 7.607-16.436 8.405-16.043q2.979-5.361 6.134-10.621t6.484-10.411 6.826-10.19 7.16-9.958 7.488-9.714 7.807-9.46 8.116-9.195 8.418-8.92 8.71-8.636 8.991-8.341 9.264-8.038q4.7-3.942 9.526-7.726 4.827-3.784 9.778-7.405 4.95-3.62 10.018-7.075t10.248-6.74 10.466-6.394q5.286-3.11 10.673-6.043 5.386-2.933 10.867-5.686 5.481-2.752 11.051-5.32 5.57-2.57 11.221-4.951 5.652-2.382 11.38-4.575t11.526-4.195 11.658-3.809 11.779-3.42q5.918-1.61 11.886-3.025t11.98-2.63q6.011-1.215 12.06-2.23t12.128-1.827q6.08-.813 12.182-1.424 6.103-.61 12.223-1.018 6.12-.407 12.25-.611T400 1v369z"/><path fill="none" stroke="#fff" stroke-linejoin="bevel" stroke-width="2" d="M713.309 175.068q4.785 7.691 9.188 15.608 4.402 7.917 8.41 16.04 4.008 8.124 7.613 16.434t6.798 16.787 5.966 17.1q2.773 8.624 5.12 17.374t4.26 17.603q1.915 8.853 3.393 17.79 1.478 8.938 2.515 17.936 1.038 9 1.632 18.038.595 9.04.745 18.096t-.144 18.111-1.032 18.082-1.918 18.01q-1.18 8.98-2.8 17.893t-3.674 17.735q-2.055 8.823-4.54 17.533-2.486 8.711-5.395 17.29-2.91 8.578-6.237 17.003t-7.064 16.677-7.873 16.311-8.665 15.905-9.434 15.46-10.181 14.979-10.904 14.46-11.601 13.91-12.27 13.322q-6.297 6.51-12.907 12.705-6.61 6.193-13.516 12.055t-14.091 11.379-14.632 10.673-15.139 9.942q-5.208 3.24-10.52 6.305-5.313 3.065-10.724 5.952t-10.916 5.593-11.095 5.227q-5.592 2.52-11.264 4.855-5.672 2.333-11.418 4.477t-11.56 4.096-11.691 3.71-11.808 3.32-11.911 2.924q-5.98 1.363-12.002 2.527t-12.079 2.127-12.143 1.725q-6.086.76-12.194 1.32-6.108.558-12.23.913-6.124.356-12.255.507t-12.265.1q-6.133-.053-12.261-.309t-12.244-.715-12.214-1.122q-6.097-.663-12.17-1.528-6.071-.865-12.111-1.93-6.04-1.067-12.041-2.333t-11.957-2.732-11.86-3.127-11.75-3.52q-5.845-1.857-11.625-3.908-5.78-2.05-11.49-4.292-5.708-2.242-11.34-4.672t-11.179-5.046-11.004-5.415-10.82-5.777h.001q-7.918-4.4-15.611-9.182-7.694-4.783-15.143-9.937t-14.636-10.668q-7.187-5.513-14.095-11.373t-13.52-12.05q-6.612-6.192-12.913-12.7-6.3-6.51-12.274-13.32-5.973-6.809-11.605-13.904t-10.91-14.457-10.187-14.975q-4.91-7.612-9.44-15.457-4.53-7.844-8.67-15.901t-7.879-16.308-7.07-16.675-6.242-17.001-5.401-17.287-4.547-17.532-3.68-17.733-2.806-17.893-1.925-18.009-1.039-18.082-.15-18.11.738-18.097 1.626-18.038 2.508-17.937 3.386-17.792 4.255-17.605 5.113-17.374 5.96-17.103 6.792-16.79 7.607-16.436 8.405-16.043q2.979-5.361 6.134-10.621t6.484-10.411 6.826-10.19 7.16-9.958 7.488-9.714 7.807-9.46 8.116-9.195 8.418-8.92 8.71-8.636 8.991-8.341 9.264-8.038q4.7-3.942 9.526-7.726 4.827-3.784 9.778-7.405 4.95-3.62 10.018-7.075t10.248-6.74 10.466-6.394q5.286-3.11 10.673-6.043 5.386-2.933 10.867-5.686 5.481-2.752 11.051-5.32 5.57-2.57 11.221-4.951 5.652-2.382 11.38-4.575t11.526-4.195 11.658-3.809 11.779-3.42q5.918-1.61 11.886-3.025t11.98-2.63q6.011-1.215 12.06-2.23t12.128-1.827q6.08-.813 12.182-1.424 6.103-.61 12.223-1.018 6.12-.407 12.25-.611T400 1v369l313.309-194.932Z"/></svg>