<svg xmlns="http://www.w3.org/2000/svg" width="800" height="800"><path fill="none" d="M0 0h800v800H0z"/><clipPath id="a"><path d="M0 740h800v60H0z"/></clipPath><g clip-path="url(#a)"><path fill="#4caf50" d="M166.655 770h40v20h-40z"/><path fill="none" stroke="#fff" stroke-miterlimit="10" stroke-width="2" d="M166.655 770h40v20h-40z"/><text x="216.655, 226.26498, 233.54498, 244.69498, 253.35497, 260.47498, 271.03497," y="788," fill="#666" font-family="Lato" font-size="20">Trusted</text><path fill="#ff9800" d="M312.235 770h40v20h-40z"/><path fill="none" stroke="#fff" stroke-miterlimit="10" stroke-width="2" d="M312.235 770h40v20h-40z"/><text x="362.23499, 374.05499, 380.92499, 391.98499, 402.02496, 412.58496, 423.74493, 433.68494, 444.84491, 454.2149," y="788," fill="#666" font-family="Lato" font-size="20">Provenance</text><path fill="#f44336" d="M494.775 770h40v20h-40z"/><path fill="none" stroke="#fff" stroke-miterlimit="10" stroke-width="2" d="M494.775 770h40v20h-40z"/><text x="544.77502, 559.185, 570.20502, 577.375, 584.65503, 595.80499, 604.46497, 611.58496, 622.14496," y="788," fill="#666" font-family="Lato" font-size="20">Untrusted</text></g><path fill="#4caf50" d="M400 1q5.598 0 11.193.17t11.182.509 11.162.848 11.131 1.187 11.09 1.523 11.039 1.86q5.505 1.012 10.977 2.192t10.905 2.525q5.434 1.346 10.824 2.855 5.39 1.51 10.733 3.182 5.342 1.672 10.63 3.506 5.29 1.833 10.52 3.826 5.231 1.993 10.399 4.144t10.268 4.458 10.129 4.767 9.979 5.072q4.95 2.611 9.82 5.372t9.654 5.667q4.783 2.908 9.477 5.958 4.693 3.051 9.291 6.243t9.098 6.522 8.897 6.794 8.685 7.061 8.468 7.322 8.242 7.575 8.008 7.821 7.767 8.061q3.823 4.09 7.52 8.293t7.264 8.517 7.002 8.733 6.735 8.942 6.46 9.142L400 370z"/><path fill="none" stroke="#fff" stroke-linejoin="bevel" stroke-width="2" d="M400 1q5.598 0 11.193.17t11.182.509 11.162.848 11.131 1.187 11.09 1.523 11.039 1.86q5.505 1.012 10.977 2.192t10.905 2.525q5.434 1.346 10.824 2.855 5.39 1.51 10.733 3.182 5.342 1.672 10.63 3.506 5.29 1.833 10.52 3.826 5.231 1.993 10.399 4.144t10.268 4.458 10.129 4.767 9.979 5.072q4.95 2.611 9.82 5.372t9.654 5.667q4.783 2.908 9.477 5.958 4.693 3.051 9.291 6.243t9.098 6.522 8.897 6.794 8.685 7.061 8.468 7.322 8.242 7.575 8.008 7.821 7.767 8.061q3.823 4.09 7.52 8.293t7.264 8.517 7.002 8.733 6.735 8.942 6.46 9.142L400 370z"/><path fill="#ff9800" d="M704.549 161.647q11.236 16.423 20.64 33.96 9.405 17.536 16.869 35.982L400 370z"/><path fill="none" stroke="#fff" stroke-linejoin="bevel" stroke-width="2" d="M704.549 161.647q11.236 16.423 20.64 33.96 9.405 17.536 16.869 35.982L400 370l304.549-208.353Z"/><path fill="#f44336" d="M742.058 231.59q3.397 8.396 6.38 16.95 2.98 8.553 5.54 17.243 2.557 8.69 4.686 17.494t3.824 17.704q1.694 8.898 2.95 17.87 1.255 8.97 2.07 17.992.813 9.022 1.183 18.073t.296 18.109q-.074 9.058-.592 18.101-.519 9.044-1.48 18.051-.962 9.008-2.365 17.957t-3.243 17.819-4.113 17.638-4.973 17.415q-2.7 8.646-5.822 17.15T739.742 514t-7.474 16.497-8.276 16.11-9.056 15.685q-4.72 7.731-9.815 15.221t-10.55 14.722-11.259 14.186-11.942 13.617-12.595 13.014-13.22 12.381-13.81 11.717-14.369 11.025-14.893 10.307q-7.572 4.971-15.38 9.564-7.807 4.593-15.831 8.798-8.024 4.204-16.244 8.01t-16.617 7.204q-5.226 2.114-10.514 4.068t-10.632 3.745-10.742 3.42q-5.398 1.626-10.842 3.088t-10.93 2.757-11.01 2.42q-5.524 1.127-11.08 2.085-5.555.957-11.137 1.744t-11.185 1.403q-5.604.617-11.223 1.061-5.62.445-11.25.718-5.631.273-11.267.374-5.637.1-11.274.03-5.636-.072-11.268-.316-5.632-.243-11.254-.659-5.622-.415-11.228-1.002-5.607-.587-11.193-1.345t-11.146-1.687-11.09-2.026-11.022-2.363-10.945-2.7-10.858-3.032q-5.405-1.6-10.76-3.363-5.354-1.764-10.652-3.69t-10.534-4.013-10.407-4.334-10.27-4.65q-5.1-2.402-10.123-4.96t-9.966-5.268-9.801-5.57-9.627-5.866q-4.768-3.007-9.442-6.158-7.511-5.063-14.765-10.489t-14.232-11.201-13.666-11.886q-6.687-6.11-13.066-12.542t-12.434-13.168q-6.056-6.737-11.774-13.763t-11.084-14.324-10.368-14.85-9.627-15.341-8.862-15.795-8.077-16.21-7.272-16.588-6.448-16.925-5.611-17.22q-2.594-8.68-4.759-17.475t-3.896-17.688q-1.73-8.891-3.023-17.857-1.292-8.966-2.143-17.984t-1.259-18.068-.37-18.107.519-18.104 1.406-18.057 2.29-17.966 3.17-17.832 4.04-17.655 4.903-17.435 5.752-17.174q3.086-8.517 6.587-16.871 3.5-8.355 7.407-16.528t8.21-16.144T84.278 179t9.753-15.261q3.15-4.674 6.443-9.25t6.723-9.05 6.996-8.839 7.263-8.621 7.523-8.396 7.776-8.162 8.022-7.92q4.07-3.9 8.26-7.672 4.188-3.773 8.49-7.416 4.301-3.644 8.713-7.154 4.41-3.51 8.927-6.883t9.133-6.608 9.331-6.326 9.52-6.038 9.7-5.744 9.87-5.445q4.978-2.647 10.033-5.14 5.056-2.495 10.185-4.833t10.328-4.519q5.198-2.18 10.461-4.201t10.584-3.88 10.698-3.554 10.802-3.227 10.895-2.894 10.979-2.56q5.508-1.197 11.051-2.225 5.543-1.027 11.114-1.885t11.167-1.545 11.209-1.203 11.24-.86q5.627-.345 11.261-.517Q394.363 1 400 1v369z"/><path fill="none" stroke="#fff" stroke-linejoin="bevel" stroke-width="2" d="M742.058 231.59q3.397 8.396 6.38 16.95 2.98 8.553 5.54 17.243 2.557 8.69 4.686 17.494t3.824 17.704q1.694 8.898 2.95 17.87 1.255 8.97 2.07 17.992.813 9.022 1.183 18.073t.296 18.109q-.074 9.058-.592 18.101-.519 9.044-1.48 18.051-.962 9.008-2.365 17.957t-3.243 17.819-4.113 17.638-4.973 17.415q-2.7 8.646-5.822 17.15T739.742 514t-7.474 16.497-8.276 16.11-9.056 15.685q-4.72 7.731-9.815 15.221t-10.55 14.722-11.259 14.186-11.942 13.617-12.595 13.014-13.22 12.381-13.81 11.717-14.369 11.025-14.893 10.307q-7.572 4.971-15.38 9.564-7.807 4.593-15.831 8.798-8.024 4.204-16.244 8.01t-16.617 7.204q-5.226 2.114-10.514 4.068t-10.632 3.745-10.742 3.42q-5.398 1.626-10.842 3.088t-10.93 2.757-11.01 2.42q-5.524 1.127-11.08 2.085-5.555.957-11.137 1.744t-11.185 1.403q-5.604.617-11.223 1.061-5.62.445-11.25.718-5.631.273-11.267.374-5.637.1-11.274.03-5.636-.072-11.268-.316-5.632-.243-11.254-.659-5.622-.415-11.228-1.002-5.607-.587-11.193-1.345t-11.146-1.687-11.09-2.026-11.022-2.363-10.945-2.7-10.858-3.032q-5.405-1.6-10.76-3.363-5.354-1.764-10.652-3.69t-10.534-4.013-10.407-4.334-10.27-4.65q-5.1-2.402-10.123-4.96t-9.966-5.268-9.801-5.57-9.627-5.866q-4.768-3.007-9.442-6.158-7.511-5.063-14.765-10.489t-14.232-11.201-13.666-11.886q-6.687-6.11-13.066-12.542t-12.434-13.168q-6.056-6.737-11.774-13.763t-11.084-14.324-10.368-14.85-9.627-15.341-8.862-15.795-8.077-16.21-7.272-16.588-6.448-16.925-5.611-17.22q-2.594-8.68-4.759-17.475t-3.896-17.688q-1.73-8.891-3.023-17.857-1.292-8.966-2.143-17.984t-1.259-18.068-.37-18.107.519-18.104 1.406-18.057 2.29-17.966 3.17-17.832 4.04-17.655 4.903-17.435 5.752-17.174q3.086-8.517 6.587-16.871 3.5-8.355 7.407-16.528t8.21-16.144T84.278 179t9.753-15.261q3.15-4.674 6.443-9.25t6.723-9.05 6.996-8.839 7.263-8.621 7.523-8.396 7.776-8.162 8.022-7.92q4.07-3.9 8.26-7.672 4.188-3.773 8.49-7.416 4.301-3.644 8.713-7.154 4.41-3.51 8.927-6.883t9.133-6.608 9.331-6.326 9.52-6.038 9.7-5.744 9.87-5.445q4.978-2.647 10.033-5.14 5.056-2.495 10.185-4.833t10.328-4.519q5.198-2.18 10.461-4.201t10.584-3.88 10.698-3.554 10.802-3.227 10.895-2.894 10.979-2.56q5.508-1.197 11.051-2.225 5.543-1.027 11.114-1.885t11.167-1.545 11.209-1.203 11.24-.86q5.627-.345 11.261-.517Q394.363 1 400 1v369l342.058-138.411Z"/></svg>