<svg xmlns="http://www.w3.org/2000/svg" width="800" height="800"><path fill="none" d="M0 0h800v800H0z"/><clipPath id="a"><path d="M0 690h800v110H0z"/></clipPath><g clip-path="url(#a)"><path fill="#4caf50" d="M123.3 720h40v20h-40z"/><path fill="none" stroke="#fff" stroke-miterlimit="10" stroke-width="2" d="M123.3 720h40v20h-40z"/><path fill="#ff9800" d="M377.64 720h40v20h-40z"/><path fill="none" stroke="#fff" stroke-miterlimit="10" stroke-width="2" d="M377.64 720h40v20h-40z"/><path fill="#f44336" d="M262.92 770h40v20h-40z"/><path fill="none" stroke="#fff" stroke-miterlimit="10" stroke-width="2" d="M262.92 770h40v20h-40z"/></g><path fill="#4caf50" d="M400 1q4.43 0 8.857.114 4.428.114 8.852.342t8.84.57 8.822.797 8.799 1.024q4.393.57 8.77 1.25 4.376.683 8.734 1.477t8.693 1.7q4.336.906 8.647 1.923 4.31 1.018 8.594 2.146t8.537 2.366q4.253 1.238 8.472 2.585 4.22 1.347 8.403 2.802t8.329 3.018q4.144 1.563 8.248 3.231 4.103 1.67 8.161 3.443 4.06 1.774 8.07 3.652 4.013 1.877 7.975 3.858 3.962 1.98 7.872 4.062t7.764 4.263 7.653 4.462 7.534 4.658 7.413 4.85 7.285 5.04 7.153 5.225q3.543 2.658 7.016 5.407t6.874 5.587 6.729 5.761 6.577 5.933q3.25 3.01 6.423 6.1 3.172 3.092 6.264 6.265t6.1 6.423L400 345z"/><path fill="none" stroke="#fff" stroke-linejoin="bevel" stroke-width="2" d="M400 1q4.43 0 8.857.114 4.428.114 8.852.342t8.84.57 8.822.797 8.799 1.024q4.393.57 8.77 1.25 4.376.683 8.734 1.477t8.693 1.7q4.336.906 8.647 1.923 4.31 1.018 8.594 2.146t8.537 2.366q4.253 1.238 8.472 2.585 4.22 1.347 8.403 2.802t8.329 3.018q4.144 1.563 8.248 3.231 4.103 1.67 8.161 3.443 4.06 1.774 8.07 3.652 4.013 1.877 7.975 3.858 3.962 1.98 7.872 4.062t7.764 4.263 7.653 4.462 7.534 4.658 7.413 4.85 7.285 5.04 7.153 5.225q3.543 2.658 7.016 5.407t6.874 5.587 6.729 5.761 6.577 5.933q3.25 3.01 6.423 6.1 3.172 3.092 6.264 6.265t6.1 6.423L400 345z"/><path fill="#ff9800" d="M652.46 111.334q14.677 15.857 27.255 33.427t22.858 36.575L400 345z"/><path fill="none" stroke="#fff" stroke-linejoin="bevel" stroke-width="2" d="M652.46 111.334q14.677 15.857 27.255 33.427t22.858 36.575L400 345l252.46-233.667Z"/><path fill="#f44336" d="M702.573 181.336q4.017 7.428 7.666 15.044t6.918 15.401 6.155 15.723 5.376 16.006 4.584 16.25q2.092 8.181 3.78 16.456 1.69 8.274 2.97 16.62 1.28 8.348 2.15 16.748t1.326 16.832q.456 8.432.498 16.877t-.33 16.881-1.16 16.845-1.983 16.767q-1.198 8.36-2.804 16.65t-3.618 16.492q-2.01 8.202-4.422 16.295t-5.217 16.058-5.998 15.783q-3.193 7.818-6.766 15.47t-7.516 15.119-8.25 14.732-8.962 14.31-9.653 13.852-10.322 13.362-10.965 12.84-11.581 12.286q-5.942 6-12.17 11.703-6.23 5.702-12.73 11.091-6.502 5.39-13.26 10.454t-13.756 9.79q-6.998 4.727-14.22 9.104-7.221 4.378-14.65 8.396-4.885 2.642-9.853 5.126-4.969 2.483-10.015 4.805-5.045 2.322-10.164 4.48-5.118 2.157-10.303 4.149t-10.433 3.814-10.55 3.476q-5.303 1.652-10.656 3.133-5.354 1.48-10.753 2.787-5.398 1.307-10.836 2.439t-10.91 2.087-10.971 1.735-11.022 1.379-11.06 1.023-11.088.665q-5.55.243-11.104.306-5.554.064-11.107-.052-5.554-.115-11.1-.41-5.547-.295-11.081-.769-5.535-.474-11.05-1.126-5.517-.652-11.01-1.482-5.491-.83-10.954-1.837-5.462-1.007-10.89-2.19-5.427-1.182-10.813-2.54-5.386-1.357-10.726-2.887t-10.626-3.233-10.517-3.574-10.397-3.912-10.264-4.245-10.122-4.574q-5.024-2.37-9.969-4.9t-9.806-5.217-9.632-5.532q-7.254-4.324-14.287-8.998t-13.828-9.688-13.337-10.355q-6.54-5.34-12.812-10.996t-12.257-11.612q-5.987-5.957-11.673-12.2-5.687-6.243-11.06-12.758t-10.421-13.285-9.756-13.78q-4.71-7.01-9.069-14.242t-8.359-14.67q-3.999-7.438-7.628-15.063t-6.88-15.419q-3.252-7.794-6.117-15.738-2.864-7.944-5.336-16.019-2.471-8.075-4.543-16.261t-3.74-16.465q-1.669-8.278-2.928-16.629-1.26-8.35-2.109-16.752-.848-8.402-1.284-16.835-.435-8.434-.456-16.878-.02-8.445.373-16.88.393-8.436 1.2-16.842t2.025-16.763 2.845-16.643 3.659-16.483 4.463-16.284 5.256-16.045 6.038-15.768 6.804-15.453 7.554-15.1 8.285-14.712q2.844-4.771 5.84-9.448t6.143-9.255q3.145-4.578 6.437-9.052t6.727-8.84q3.435-4.365 7.009-8.617 3.573-4.252 7.283-8.386 3.709-4.135 7.55-8.148 3.84-4.012 7.809-7.899 3.968-3.886 8.06-7.643t8.303-7.379 8.536-7.107q4.326-3.484 8.762-6.827t8.977-6.541 9.184-6.248 9.38-5.948q4.74-2.899 9.569-5.642t9.745-5.33q4.916-2.587 9.912-5.014t10.069-4.69 10.215-4.363 10.35-4.03 10.476-3.695 10.589-3.354q5.322-1.591 10.692-3.01 5.37-1.42 10.783-2.664 5.414-1.245 10.864-2.315T344.7 5.474t10.99-1.608q5.51-.716 11.038-1.253t11.071-.896q5.543-.358 11.095-.538Q394.445 1 400 1v344z"/><path fill="none" stroke="#fff" stroke-linejoin="bevel" stroke-width="2" d="M702.573 181.336q4.017 7.428 7.666 15.044t6.918 15.401 6.155 15.723 5.376 16.006 4.584 16.25q2.092 8.181 3.78 16.456 1.69 8.274 2.97 16.62 1.28 8.348 2.15 16.748t1.326 16.832q.456 8.432.498 16.877t-.33 16.881-1.16 16.845-1.983 16.767q-1.198 8.36-2.804 16.65t-3.618 16.492q-2.01 8.202-4.422 16.295t-5.217 16.058-5.998 15.783q-3.193 7.818-6.766 15.47t-7.516 15.119-8.25 14.732-8.962 14.31-9.653 13.852-10.322 13.362-10.965 12.84-11.581 12.286q-5.942 6-12.17 11.703-6.23 5.702-12.73 11.091-6.502 5.39-13.26 10.454t-13.756 9.79q-6.998 4.727-14.22 9.104-7.221 4.378-14.65 8.396-4.885 2.642-9.853 5.126-4.969 2.483-10.015 4.805-5.045 2.322-10.164 4.48-5.118 2.157-10.303 4.149t-10.433 3.814-10.55 3.476q-5.303 1.652-10.656 3.133-5.354 1.48-10.753 2.787-5.398 1.307-10.836 2.439t-10.91 2.087-10.971 1.735-11.022 1.379-11.06 1.023-11.088.665q-5.55.243-11.104.306-5.554.064-11.107-.052-5.554-.115-11.1-.41-5.547-.295-11.081-.769-5.535-.474-11.05-1.126-5.517-.652-11.01-1.482-5.491-.83-10.954-1.837-5.462-1.007-10.89-2.19-5.427-1.182-10.813-2.54-5.386-1.357-10.726-2.887t-10.626-3.233-10.517-3.574-10.397-3.912-10.264-4.245-10.122-4.574q-5.024-2.37-9.969-4.9t-9.806-5.217-9.632-5.532q-7.254-4.324-14.287-8.998t-13.828-9.688-13.337-10.355q-6.54-5.34-12.812-10.996t-12.257-11.612q-5.987-5.957-11.673-12.2-5.687-6.243-11.06-12.758t-10.421-13.285-9.756-13.78q-4.71-7.01-9.069-14.242t-8.359-14.67q-3.999-7.438-7.628-15.063t-6.88-15.419q-3.252-7.794-6.117-15.738-2.864-7.944-5.336-16.019-2.471-8.075-4.543-16.261t-3.74-16.465q-1.669-8.278-2.928-16.629-1.26-8.35-2.109-16.752-.848-8.402-1.284-16.835-.435-8.434-.456-16.878-.02-8.445.373-16.88.393-8.436 1.2-16.842t2.025-16.763 2.845-16.643 3.659-16.483 4.463-16.284 5.256-16.045 6.038-15.768 6.804-15.453 7.554-15.1 8.285-14.712q2.844-4.771 5.84-9.448t6.143-9.255q3.145-4.578 6.437-9.052t6.727-8.84q3.435-4.365 7.009-8.617 3.573-4.252 7.283-8.386 3.709-4.135 7.55-8.148 3.84-4.012 7.809-7.899 3.968-3.886 8.06-7.643t8.303-7.379 8.536-7.107q4.326-3.484 8.762-6.827t8.977-6.541 9.184-6.248 9.38-5.948q4.74-2.899 9.569-5.642t9.745-5.33q4.916-2.587 9.912-5.014t10.069-4.69 10.215-4.363 10.35-4.03 10.476-3.695 10.589-3.354q5.322-1.591 10.692-3.01 5.37-1.42 10.783-2.664 5.414-1.245 10.864-2.315T344.7 5.474t10.99-1.608q5.51-.716 11.038-1.253t11.071-.896q5.543-.358 11.095-.538Q394.445 1 400 1v344l302.573-163.664Z"/></svg>