<svg xmlns="http://www.w3.org/2000/svg" width="800" height="800"><path fill="none" d="M0 0h800v800H0z"/><clipPath id="a"><path d="M0 690h800v110H0z"/></clipPath><g clip-path="url(#a)"><path fill="#4caf50" d="M123.3 720h40v20h-40z"/><path fill="none" stroke="#fff" stroke-miterlimit="10" stroke-width="2" d="M123.3 720h40v20h-40z"/><path fill="#ff9800" d="M377.64 720h40v20h-40z"/><path fill="none" stroke="#fff" stroke-miterlimit="10" stroke-width="2" d="M377.64 720h40v20h-40z"/><path fill="#f44336" d="M262.92 770h40v20h-40z"/><path fill="none" stroke="#fff" stroke-miterlimit="10" stroke-width="2" d="M262.92 770h40v20h-40z"/></g><path fill="#4caf50" d="M400 1q8.348 0 16.686.405t16.646 1.214 16.568 2.02 16.45 2.82 16.295 3.616 16.1 4.402 15.867 5.177 15.597 5.941 15.291 6.69q7.564 3.532 14.949 7.425 7.384 3.894 14.57 8.141 7.187 4.247 14.159 8.838t13.713 9.514 13.236 10.168 12.727 10.799 12.188 11.402L400 345z"/><path fill="none" stroke="#fff" stroke-linejoin="bevel" stroke-width="2" d="M400 1q8.348 0 16.686.405t16.646 1.214 16.568 2.02 16.45 2.82 16.295 3.616 16.1 4.402 15.867 5.177 15.597 5.941 15.291 6.69q7.564 3.532 14.949 7.425 7.384 3.894 14.57 8.141 7.187 4.247 14.159 8.838t13.713 9.514 13.236 10.168 12.727 10.799 12.188 11.402L400 345z"/><path fill="#ff9800" d="M641.042 99.572q16.326 16.034 30.384 34.09 14.058 18.054 25.6 37.812L400 345z"/><path fill="none" stroke="#fff" stroke-linejoin="bevel" stroke-width="2" d="M641.042 99.572q16.326 16.034 30.384 34.09 14.058 18.054 25.6 37.812L400 345 641.042 99.573Z"/><path fill="#f44336" d="M697.026 171.474q4.26 7.291 8.157 14.783t7.422 15.166 6.668 15.512q3.144 7.837 5.9 15.82 2.755 7.982 5.115 16.09t4.32 16.323 3.515 16.514 2.7 16.668 1.878 16.78q.733 8.412 1.052 16.85.32 8.44.225 16.884t-.604 16.873-1.43 16.824q-.923 8.394-2.256 16.733t-3.073 16.602q-1.74 8.264-3.884 16.432t-4.686 16.22-5.476 15.972q-2.934 7.92-6.253 15.684-3.32 7.765-7.015 15.358-3.696 7.593-7.76 14.996-4.065 7.402-8.487 14.596-4.423 7.194-9.193 14.162t-9.877 13.695-10.536 13.193-11.172 12.66q-5.74 6.193-11.779 12.097t-12.358 11.505-12.908 10.884-13.427 10.238q-6.839 4.954-13.912 9.566t-14.366 8.872q-4.872 2.847-9.835 5.532t-10.012 5.206-10.177 4.875-10.332 4.539q-5.203 2.184-10.474 4.197-5.272 2.013-10.607 3.851t-10.728 3.502-10.836 3.147-10.934 2.791-11.02 2.43-11.093 2.068-11.155 1.703-11.206 1.336-11.242.968-11.269.598-11.282.229-11.284-.142-11.272-.512-11.25-.881-11.216-1.25-11.168-1.616-11.108-1.983q-5.539-1.082-11.038-2.345t-10.956-2.707q-5.455-1.443-10.86-3.064t-10.754-3.419q-5.35-1.797-10.636-3.77-5.287-1.971-10.507-4.116t-10.366-4.459-10.215-4.796q-5.067-2.482-10.051-5.129t-9.878-5.456q-7.324-4.203-14.433-8.761-7.11-4.558-13.986-9.46-6.877-4.9-13.505-10.134-6.628-5.232-12.992-10.784-6.363-5.552-12.446-11.409T149.53 580.8t-11.268-12.574-10.638-13.112-9.982-13.617-9.301-14.092-8.6-14.53q-4.12-7.371-7.875-14.936t-7.133-15.303q-3.379-7.74-6.374-15.635-2.995-7.896-5.598-15.93-2.604-8.033-4.81-16.184-2.208-8.151-4.011-16.401-1.804-8.25-3.201-16.578-1.397-8.329-2.384-16.716-.987-8.386-1.56-16.812-.575-8.425-.734-16.868t.094-16.884q.255-8.441.924-16.86.668-8.418 1.749-16.793t2.571-16.687 3.387-16.541q1.896-8.23 4.194-16.355 2.298-8.127 4.992-16.13 2.694-8.004 5.778-15.865t6.549-15.563q3.465-7.7 7.304-15.222t8.043-14.846q2.809-4.894 5.777-9.694t6.092-9.499 6.4-9.294 6.701-9.079 6.996-8.854 7.282-8.62 7.56-8.377 7.833-8.124 8.094-7.863 8.347-7.593 8.592-7.316 8.828-7.03 9.053-6.736 9.27-6.435 9.475-6.129 9.671-5.814 9.857-5.494 10.031-5.167 10.196-4.836 10.35-4.499q5.21-2.164 10.49-4.157t10.622-3.81q5.342-1.818 10.74-3.46 5.4-1.642 10.85-3.106t10.944-2.749q5.495-1.284 11.029-2.388t11.101-2.025 11.162-1.66 11.21-1.292q5.615-.555 11.246-.925t11.271-.555T400 1v344z"/><path fill="none" stroke="#fff" stroke-linejoin="bevel" stroke-width="2" d="M697.026 171.474q4.26 7.291 8.157 14.783t7.422 15.166 6.668 15.512q3.144 7.837 5.9 15.82 2.755 7.982 5.115 16.09t4.32 16.323 3.515 16.514 2.7 16.668 1.878 16.78q.733 8.412 1.052 16.85.32 8.44.225 16.884t-.604 16.873-1.43 16.824q-.923 8.394-2.256 16.733t-3.073 16.602q-1.74 8.264-3.884 16.432t-4.686 16.22-5.476 15.972q-2.934 7.92-6.253 15.684-3.32 7.765-7.015 15.358-3.696 7.593-7.76 14.996-4.065 7.402-8.487 14.596-4.423 7.194-9.193 14.162t-9.877 13.695-10.536 13.193-11.172 12.66q-5.74 6.193-11.779 12.097t-12.358 11.505-12.908 10.884-13.427 10.238q-6.839 4.954-13.912 9.566t-14.366 8.872q-4.872 2.847-9.835 5.532t-10.012 5.206-10.177 4.875-10.332 4.539q-5.203 2.184-10.474 4.197-5.272 2.013-10.607 3.851t-10.728 3.502-10.836 3.147-10.934 2.791-11.02 2.43-11.093 2.068-11.155 1.703-11.206 1.336-11.242.968-11.269.598-11.282.229-11.284-.142-11.272-.512-11.25-.881-11.216-1.25-11.168-1.616-11.108-1.983q-5.539-1.082-11.038-2.345t-10.956-2.707q-5.455-1.443-10.86-3.064t-10.754-3.419q-5.35-1.797-10.636-3.77-5.287-1.971-10.507-4.116t-10.366-4.459-10.215-4.796q-5.067-2.482-10.051-5.129t-9.878-5.456q-7.324-4.203-14.433-8.761-7.11-4.558-13.986-9.46-6.877-4.9-13.505-10.134-6.628-5.232-12.992-10.784-6.363-5.552-12.446-11.409T149.53 580.8t-11.268-12.574-10.638-13.112-9.982-13.617-9.301-14.092-8.6-14.53q-4.12-7.371-7.875-14.936t-7.133-15.303q-3.379-7.74-6.374-15.635-2.995-7.896-5.598-15.93-2.604-8.033-4.81-16.184-2.208-8.151-4.011-16.401-1.804-8.25-3.201-16.578-1.397-8.329-2.384-16.716-.987-8.386-1.56-16.812-.575-8.425-.734-16.868t.094-16.884q.255-8.441.924-16.86.668-8.418 1.749-16.793t2.571-16.687 3.387-16.541q1.896-8.23 4.194-16.355 2.298-8.127 4.992-16.13 2.694-8.004 5.778-15.865t6.549-15.563q3.465-7.7 7.304-15.222t8.043-14.846q2.809-4.894 5.777-9.694t6.092-9.499 6.4-9.294 6.701-9.079 6.996-8.854 7.282-8.62 7.56-8.377 7.833-8.124 8.094-7.863 8.347-7.593 8.592-7.316 8.828-7.03 9.053-6.736 9.27-6.435 9.475-6.129 9.671-5.814 9.857-5.494 10.031-5.167 10.196-4.836 10.35-4.499q5.21-2.164 10.49-4.157t10.622-3.81q5.342-1.818 10.74-3.46 5.4-1.642 10.85-3.106t10.944-2.749q5.495-1.284 11.029-2.388t11.101-2.025 11.162-1.66 11.21-1.292q5.615-.555 11.246-.925t11.271-.555T400 1v344l297.026-173.526Z"/></svg>