<svg xmlns="http://www.w3.org/2000/svg" width="800" height="800"><path fill="none" d="M0 0h800v800H0z"/><clipPath id="a"><path d="M0 740h800v60H0z"/></clipPath><g clip-path="url(#a)"><path fill="#4caf50" d="M144.605 770h40v20h-40z"/><path fill="none" stroke="#fff" stroke-miterlimit="10" stroke-width="2" d="M144.605 770h40v20h-40z"/><text x="194.605, 207.94484, 217.50539, 230.38625, 240.64992, 248.68703, 260.52295," y="787.5," fill="#666" font-family="DejaVu Serif" font-size="20">Trusted</text><path fill="#ff9800" d="M303.325 770h40v20h-40z"/><path fill="none" stroke="#fff" stroke-miterlimit="10" stroke-width="2" d="M303.325 770h40v20h-40z"/><text x="353.32501, 366.78204, 376.34259, 388.38361, 399.68243, 411.51837, 424.39923, 436.32306, 449.20392, 460.40509," y="787.5," fill="#666" font-family="DejaVu Serif" font-size="20">Provenance</text><path fill="#f44336" d="M502.245 770h40v20h-40z"/><path fill="none" stroke="#fff" stroke-miterlimit="10" stroke-width="2" d="M502.245 770h40v20h-40z"/><text x="552.245, 569.10046, 581.98132, 590.01843, 599.57898, 612.45984, 622.72351, 630.76062, 642.59656," y="787.5," fill="#666" font-family="DejaVu Serif" font-size="20">Untrusted</text></g><path fill="#4caf50" d="M400 1q11.597 0 23.171.728t23.08 2.182 22.897 3.627 22.625 5.057 22.262 6.469 21.812 7.853 21.276 9.208 20.655 10.525L400 370z"/><path fill="none" stroke="#fff" stroke-linejoin="bevel" stroke-width="2" d="M400 1q11.597 0 23.171.728t23.08 2.182 22.897 3.627 22.625 5.057 22.262 6.469 21.812 7.853 21.276 9.208 20.655 10.525L400 370z"/><path fill="#ff9800" d="M577.778 46.649q13.422 7.38 26.187 15.846t24.784 17.962 23.21 19.955q11.19 10.458 21.476 21.809L400 370z"/><path fill="none" stroke="#fff" stroke-linejoin="bevel" stroke-width="2" d="M577.778 46.649q13.422 7.38 26.187 15.846t24.784 17.962 23.21 19.955q11.19 10.458 21.476 21.809L400 370 577.778 46.649Z"/><path fill="#f44336" d="M673.435 122.22q6.082 6.713 11.828 13.716t11.142 14.28 10.427 14.808 9.688 15.302 8.925 15.76 8.142 16.178 7.338 16.558q3.466 8.37 6.517 16.899 3.05 8.529 5.68 17.198 2.628 8.668 4.828 17.455 2.2 8.788 3.966 17.672t3.095 17.845q1.328 8.96 2.216 17.976.887 9.015 1.33 18.062t.443 18.106-.446 18.106-1.334 18.062q-.89 9.015-2.22 17.975t-3.097 17.845q-1.768 8.884-3.97 17.67-2.202 8.788-4.832 17.456t-5.683 17.196-6.52 16.898-7.341 16.557q-3.874 8.188-8.145 16.176-4.27 7.989-8.928 15.758-4.658 7.77-9.691 15.3-5.034 7.532-10.43 14.807-5.397 7.276-11.144 14.277-5.748 7.002-11.832 13.713-6.084 6.712-12.49 13.116-6.405 6.405-13.118 12.488-4.929 4.466-10.015 8.752t-10.324 8.385-10.62 8.008-10.902 7.62-11.169 7.222-11.422 6.816-11.66 6.398-11.883 5.975-12.091 5.542-12.283 5.104-12.458 4.657q-6.272 2.216-12.619 4.205t-12.762 3.747q-6.414 1.76-12.888 3.285-6.474 1.527-12.999 2.82-6.524 1.291-13.091 2.347t-13.168 1.875q-6.601.82-13.227 1.4t-13.269.921q-6.642.341-13.293.443t-13.3-.037-13.291-.516-13.264-.994-13.219-1.472-13.157-1.947-13.079-2.42q-6.517-1.329-12.983-2.89-6.465-1.563-12.87-3.357t-12.74-3.817q-6.337-2.024-12.596-4.275-6.259-2.25-12.433-4.725t-12.254-5.17q-8.281-3.672-16.372-7.745t-15.973-8.539q-7.881-4.465-15.534-9.312t-15.059-10.062q-7.406-5.217-14.546-10.79-7.141-5.573-14-11.49-6.86-5.918-13.42-12.164-6.56-6.247-12.805-12.807-6.246-6.561-12.163-13.42-5.916-6.86-11.489-14.001-5.572-7.142-10.788-14.548-5.216-7.407-10.061-15.06-4.846-7.653-9.31-15.535t-8.538-15.973-7.743-16.373-6.93-16.733-6.1-17.053q-2.842-8.602-5.257-17.332-2.416-8.73-4.4-17.569t-3.532-17.764-2.657-17.915-1.774-18.024-.888-18.09 0-18.111.89-18.09 1.776-18.024q1.11-8.99 2.659-17.915t3.534-17.764 4.401-17.568q2.417-8.73 5.259-17.331t6.102-17.053q3.26-8.451 6.932-16.732 2.695-6.08 5.609-12.06 2.913-5.98 6.04-11.85 3.126-5.871 6.462-11.625 3.337-5.755 6.878-11.385t7.284-11.129 7.68-10.86 8.066-10.575q4.128-5.215 8.442-10.278t8.807-9.967 9.16-9.643 9.503-9.307 9.831-8.958 10.148-8.598 10.451-8.227 10.74-7.845q5.442-3.826 11.017-7.453 5.576-3.627 11.278-7.05T221.585 47t11.757-6.22 11.973-5.793 12.174-5.357 12.36-4.915q6.223-2.346 12.528-4.466 6.304-2.12 12.68-4.012 6.378-1.891 12.818-3.552 6.441-1.66 12.938-3.088 6.496-1.427 13.04-2.62 6.543-1.192 13.126-2.148t13.195-1.673 13.246-1.197 13.282-.72T400 1v369z"/><path fill="none" stroke="#fff" stroke-linejoin="bevel" stroke-width="2" d="M673.435 122.22q6.082 6.713 11.828 13.716t11.142 14.28 10.427 14.808 9.688 15.302 8.925 15.76 8.142 16.178 7.338 16.558q3.466 8.37 6.517 16.899 3.05 8.529 5.68 17.198 2.628 8.668 4.828 17.455 2.2 8.788 3.966 17.672t3.095 17.845q1.328 8.96 2.216 17.976.887 9.015 1.33 18.062t.443 18.106-.446 18.106-1.334 18.062q-.89 9.015-2.22 17.975t-3.097 17.845q-1.768 8.884-3.97 17.67-2.202 8.788-4.832 17.456t-5.683 17.196-6.52 16.898-7.341 16.557q-3.874 8.188-8.145 16.176-4.27 7.989-8.928 15.758-4.658 7.77-9.691 15.3-5.034 7.532-10.43 14.807-5.397 7.276-11.144 14.277-5.748 7.002-11.832 13.713-6.084 6.712-12.49 13.116-6.405 6.405-13.118 12.488-4.929 4.466-10.015 8.752t-10.324 8.385-10.62 8.008-10.902 7.62-11.169 7.222-11.422 6.816-11.66 6.398-11.883 5.975-12.091 5.542-12.283 5.104-12.458 4.657q-6.272 2.216-12.619 4.205t-12.762 3.747q-6.414 1.76-12.888 3.285-6.474 1.527-12.999 2.82-6.524 1.291-13.091 2.347t-13.168 1.875q-6.601.82-13.227 1.4t-13.269.921q-6.642.341-13.293.443t-13.3-.037-13.291-.516-13.264-.994-13.219-1.472-13.157-1.947-13.079-2.42q-6.517-1.329-12.983-2.89-6.465-1.563-12.87-3.357t-12.74-3.817q-6.337-2.024-12.596-4.275-6.259-2.25-12.433-4.725t-12.254-5.17q-8.281-3.672-16.372-7.745t-15.973-8.539q-7.881-4.465-15.534-9.312t-15.059-10.062q-7.406-5.217-14.546-10.79-7.141-5.573-14-11.49-6.86-5.918-13.42-12.164-6.56-6.247-12.805-12.807-6.246-6.561-12.163-13.42-5.916-6.86-11.489-14.001-5.572-7.142-10.788-14.548-5.216-7.407-10.061-15.06-4.846-7.653-9.31-15.535t-8.538-15.973-7.743-16.373-6.93-16.733-6.1-17.053q-2.842-8.602-5.257-17.332-2.416-8.73-4.4-17.569t-3.532-17.764-2.657-17.915-1.774-18.024-.888-18.09 0-18.111.89-18.09 1.776-18.024q1.11-8.99 2.659-17.915t3.534-17.764 4.401-17.568q2.417-8.73 5.259-17.331t6.102-17.053q3.26-8.451 6.932-16.732 2.695-6.08 5.609-12.06 2.913-5.98 6.04-11.85 3.126-5.871 6.462-11.625 3.337-5.755 6.878-11.385t7.284-11.129 7.68-10.86 8.066-10.575q4.128-5.215 8.442-10.278t8.807-9.967 9.16-9.643 9.503-9.307 9.831-8.958 10.148-8.598 10.451-8.227 10.74-7.845q5.442-3.826 11.017-7.453 5.576-3.627 11.278-7.05T221.585 47t11.757-6.22 11.973-5.793 12.174-5.357 12.36-4.915q6.223-2.346 12.528-4.466 6.304-2.12 12.68-4.012 6.378-1.891 12.818-3.552 6.441-1.66 12.938-3.088 6.496-1.427 13.04-2.62 6.543-1.192 13.126-2.148t13.195-1.673 13.246-1.197 13.282-.72T400 1v369l273.435-247.78Z"/></svg>