<svg xmlns="http://www.w3.org/2000/svg" width="800" height="800"><path fill="none" d="M0 0h800v800H0z"/><clipPath id="a"><path d="M0 690h800v110H0z"/></clipPath><g clip-path="url(#a)"><path fill="#4caf50" d="M123.3 720h40v20h-40z"/><path fill="none" stroke="#fff" stroke-miterlimit="10" stroke-width="2" d="M123.3 720h40v20h-40z"/><path fill="#ff9800" d="M377.64 720h40v20h-40z"/><path fill="none" stroke="#fff" stroke-miterlimit="10" stroke-width="2" d="M377.64 720h40v20h-40z"/><path fill="#f44336" d="M262.92 770h40v20h-40z"/><path fill="none" stroke="#fff" stroke-miterlimit="10" stroke-width="2" d="M262.92 770h40v20h-40z"/></g><path fill="#4caf50" d="M400 1q4.697 0 9.392.128t9.385.385 9.372.64q4.68.385 9.35.897 4.669.512 9.322 1.151 4.653.64 9.287 1.406t9.246 1.658q4.611.892 9.197 1.91t9.14 2.161q4.557 1.143 9.08 2.41 4.523 1.266 9.01 2.656 4.486 1.39 8.933 2.901 4.447 1.512 8.851 3.144t8.762 3.385 8.667 3.623 8.564 3.858 8.456 4.09 8.34 4.32 8.22 4.546q4.08 2.329 8.093 4.768 4.014 2.44 7.96 4.988t7.82 5.203 7.675 5.415 7.524 5.622 7.369 5.826 7.206 6.024 7.04 6.22 6.866 6.409q3.39 3.25 6.69 6.594 3.3 3.342 6.507 6.774t6.32 6.95q3.111 3.517 6.126 7.119L400 345z"/><path fill="none" stroke="#fff" stroke-linejoin="bevel" stroke-width="2" d="M400 1q4.697 0 9.392.128t9.385.385 9.372.64q4.68.385 9.35.897 4.669.512 9.322 1.151 4.653.64 9.287 1.406t9.246 1.658q4.611.892 9.197 1.91t9.14 2.161q4.557 1.143 9.08 2.41 4.523 1.266 9.01 2.656 4.486 1.39 8.933 2.901 4.447 1.512 8.851 3.144t8.762 3.385 8.667 3.623 8.564 3.858 8.456 4.09 8.34 4.32 8.22 4.546q4.08 2.329 8.093 4.768 4.014 2.44 7.96 4.988t7.82 5.203 7.675 5.415 7.524 5.622 7.369 5.826 7.206 6.024 7.04 6.22 6.866 6.409q3.39 3.25 6.69 6.594 3.3 3.342 6.507 6.774t6.32 6.95q3.111 3.517 6.126 7.119L400 345z"/><path fill="#ff9800" d="M663.77 124.18q13.754 16.43 25.362 34.437 11.61 18.009 20.893 37.318L400 345z"/><path fill="none" stroke="#fff" stroke-linejoin="bevel" stroke-width="2" d="M663.77 124.18q13.754 16.43 25.362 34.437 11.61 18.009 20.893 37.318L400 345l263.77-220.82Z"/><path fill="#f44336" d="M710.025 195.935q3.66 7.611 6.941 15.392 3.282 7.781 6.177 15.714 2.896 7.933 5.399 15.998t4.607 16.243 3.805 16.45 2.993 16.618 2.174 16.743 1.35 16.83.522 16.877-.306 16.882-1.135 16.846-1.96 16.77-2.78 16.654-3.594 16.497-4.399 16.302-5.193 16.065-5.976 15.792-6.743 15.48q-3.562 7.656-7.495 15.129t-8.228 14.744-8.942 14.322q-4.647 7.051-9.634 13.866t-10.302 13.377-10.947 12.855-11.564 12.303-12.153 11.72-12.715 11.11q-6.493 5.4-13.244 10.473t-13.742 9.81-14.206 9.125-14.638 8.416q-7.422 4.028-15.032 7.687-4.89 2.352-9.853 4.548-4.962 2.196-9.991 4.234-5.03 2.039-10.12 3.917-5.091 1.88-10.239 3.596-5.147 1.718-10.346 3.272-5.2 1.554-10.445 2.943-5.246 1.39-10.532 2.613-5.287 1.223-10.61 2.278-5.323 1.056-10.676 1.944-5.354.887-10.732 1.605-5.38.718-10.778 1.266t-10.812.926q-5.413.377-10.836.584-5.422.206-10.849.242-5.426.035-10.85-.1-5.425-.136-10.843-.443t-10.823-.784-10.793-1.125-10.753-1.466-10.7-1.803-10.639-2.14-10.565-2.475-10.483-2.807-10.388-3.136-10.285-3.462-10.17-3.784-10.046-4.104-9.911-4.418q-4.92-2.287-9.767-4.729-4.846-2.441-9.613-5.034t-9.45-5.336-9.276-5.63q-7.149-4.495-14.069-9.336-6.92-4.84-13.593-10.014-6.674-5.175-13.086-10.67t-12.547-11.299q-6.135-5.803-11.977-11.9t-11.379-12.475-10.753-13.017-10.101-13.53-9.426-14.008-8.726-14.455-8.007-14.865q-3.821-7.53-7.268-15.24t-6.511-15.578q-3.064-7.87-5.739-15.88t-4.953-16.141-4.155-16.365q-1.876-8.234-3.347-16.55-1.47-8.315-2.53-16.693-1.061-8.378-1.71-16.798-.647-8.42-.882-16.861t-.054-16.884q.18-8.443.775-16.867.594-8.424 1.601-16.808t2.424-16.71 3.241-16.57 4.05-16.392q2.227-8.146 4.85-16.173t5.637-15.915 6.412-15.62q3.397-7.73 7.17-15.286t7.911-14.916q4.14-7.361 8.634-14.51 2.889-4.594 5.92-9.094 3.033-4.5 6.205-8.903t6.482-8.703 6.753-8.494q3.444-4.194 7.018-8.277t7.276-8.051q3.7-3.969 7.525-7.818 3.825-3.85 7.769-7.577t8.004-7.328q4.06-3.6 8.23-7.071 4.172-3.471 8.45-6.809 4.279-3.338 8.66-6.539t8.863-6.262 9.055-5.98 9.24-5.69q4.664-2.773 9.414-5.398t9.58-5.097 9.736-4.792 9.882-4.483q4.977-2.164 10.02-4.17 5.041-2.005 10.144-3.85t10.262-3.53q5.159-1.683 10.368-3.203t10.464-2.875 10.549-2.544q5.295-1.188 10.624-2.21 5.33-1.02 10.689-1.873 5.359-.852 10.742-1.535t10.786-1.196 10.817-.855 10.84-.513T400 1v344z"/><path fill="none" stroke="#fff" stroke-linejoin="bevel" stroke-width="2" d="M710.025 195.935q3.66 7.611 6.941 15.392 3.282 7.781 6.177 15.714 2.896 7.933 5.399 15.998t4.607 16.243 3.805 16.45 2.993 16.618 2.174 16.743 1.35 16.83.522 16.877-.306 16.882-1.135 16.846-1.96 16.77-2.78 16.654-3.594 16.497-4.399 16.302-5.193 16.065-5.976 15.792-6.743 15.48q-3.562 7.656-7.495 15.129t-8.228 14.744-8.942 14.322q-4.647 7.051-9.634 13.866t-10.302 13.377-10.947 12.855-11.564 12.303-12.153 11.72-12.715 11.11q-6.493 5.4-13.244 10.473t-13.742 9.81-14.206 9.125-14.638 8.416q-7.422 4.028-15.032 7.687-4.89 2.352-9.853 4.548-4.962 2.196-9.991 4.234-5.03 2.039-10.12 3.917-5.091 1.88-10.239 3.596-5.147 1.718-10.346 3.272-5.2 1.554-10.445 2.943-5.246 1.39-10.532 2.613-5.287 1.223-10.61 2.278-5.323 1.056-10.676 1.944-5.354.887-10.732 1.605-5.38.718-10.778 1.266t-10.812.926q-5.413.377-10.836.584-5.422.206-10.849.242-5.426.035-10.85-.1-5.425-.136-10.843-.443t-10.823-.784-10.793-1.125-10.753-1.466-10.7-1.803-10.639-2.14-10.565-2.475-10.483-2.807-10.388-3.136-10.285-3.462-10.17-3.784-10.046-4.104-9.911-4.418q-4.92-2.287-9.767-4.729-4.846-2.441-9.613-5.034t-9.45-5.336-9.276-5.63q-7.149-4.495-14.069-9.336-6.92-4.84-13.593-10.014-6.674-5.175-13.086-10.67t-12.547-11.299q-6.135-5.803-11.977-11.9t-11.379-12.475-10.753-13.017-10.101-13.53-9.426-14.008-8.726-14.455-8.007-14.865q-3.821-7.53-7.268-15.24t-6.511-15.578q-3.064-7.87-5.739-15.88t-4.953-16.141-4.155-16.365q-1.876-8.234-3.347-16.55-1.47-8.315-2.53-16.693-1.061-8.378-1.71-16.798-.647-8.42-.882-16.861t-.054-16.884q.18-8.443.775-16.867.594-8.424 1.601-16.808t2.424-16.71 3.241-16.57 4.05-16.392q2.227-8.146 4.85-16.173t5.637-15.915 6.412-15.62q3.397-7.73 7.17-15.286t7.911-14.916q4.14-7.361 8.634-14.51 2.889-4.594 5.92-9.094 3.033-4.5 6.205-8.903t6.482-8.703 6.753-8.494q3.444-4.194 7.018-8.277t7.276-8.051q3.7-3.969 7.525-7.818 3.825-3.85 7.769-7.577t8.004-7.328q4.06-3.6 8.23-7.071 4.172-3.471 8.45-6.809 4.279-3.338 8.66-6.539t8.863-6.262 9.055-5.98 9.24-5.69q4.664-2.773 9.414-5.398t9.58-5.097 9.736-4.792 9.882-4.483q4.977-2.164 10.02-4.17 5.041-2.005 10.144-3.85t10.262-3.53q5.159-1.683 10.368-3.203t10.464-2.875 10.549-2.544q5.295-1.188 10.624-2.21 5.33-1.02 10.689-1.873 5.359-.852 10.742-1.535t10.786-1.196 10.817-.855 10.84-.513T400 1v344l310.025-149.065Z"/></svg>