<svg xmlns="http://www.w3.org/2000/svg" width="800" height="800"><path fill="none" d="M0 0h800v800H0z"/><clipPath id="a"><path d="M0 690h800v110H0z"/></clipPath><g clip-path="url(#a)"><path fill="#4caf50" d="M123.3 720h40v20h-40z"/><path fill="none" stroke="#fff" stroke-miterlimit="10" stroke-width="2" d="M123.3 720h40v20h-40z"/><path fill="#ff9800" d="M377.64 720h40v20h-40z"/><path fill="none" stroke="#fff" stroke-miterlimit="10" stroke-width="2" d="M377.64 720h40v20h-40z"/><path fill="#f44336" d="M262.92 770h40v20h-40z"/><path fill="none" stroke="#fff" stroke-miterlimit="10" stroke-width="2" d="M262.92 770h40v20h-40z"/></g><path fill="#4caf50" d="M400 1q4.545 0 9.089.12 4.543.12 9.082.36 4.538.24 9.07.6 4.53.36 9.05.84t9.025 1.078 8.994 1.316 8.955 1.554q4.468.835 8.912 1.79 4.443.953 8.86 2.023 4.418 1.071 8.805 2.258t8.742 2.49q4.354 1.302 8.673 2.72 4.318 1.417 8.598 2.947t8.517 3.174 8.43 3.398 8.338 3.62 8.239 3.838 8.135 4.055 8.025 4.268 7.909 4.479 7.788 4.686 7.662 4.89 7.53 5.092q3.73 2.595 7.392 5.288 3.661 2.693 7.25 5.482 3.59 2.788 7.103 5.67 3.514 2.884 6.951 5.858t6.794 6.039q3.356 3.064 6.631 6.216 3.275 3.151 6.465 6.389 3.19 3.237 6.294 6.557t6.119 6.722L400 345z"/><path fill="none" stroke="#fff" stroke-linejoin="bevel" stroke-width="2" d="M400 1q4.545 0 9.089.12 4.543.12 9.082.36 4.538.24 9.07.6 4.53.36 9.05.84t9.025 1.078 8.994 1.316 8.955 1.554q4.468.835 8.912 1.79 4.443.953 8.86 2.023 4.418 1.071 8.805 2.258t8.742 2.49q4.354 1.302 8.673 2.72 4.318 1.417 8.598 2.947t8.517 3.174 8.43 3.398 8.338 3.62 8.239 3.838 8.135 4.055 8.025 4.268 7.909 4.479 7.788 4.686 7.662 4.89 7.53 5.092q3.73 2.595 7.392 5.288 3.661 2.693 7.25 5.482 3.59 2.788 7.103 5.67 3.514 2.884 6.951 5.858t6.794 6.039q3.356 3.064 6.631 6.216 3.275 3.151 6.465 6.389 3.19 3.237 6.294 6.557t6.119 6.722L400 345z"/><path fill="#ff9800" d="M657.427 116.817q14.357 16.197 26.57 34.066t22.092 37.127L400 345z"/><path fill="none" stroke="#fff" stroke-linejoin="bevel" stroke-width="2" d="M657.427 116.817q14.357 16.197 26.57 34.066t22.092 37.127L400 345l257.427-228.183Z"/><path fill="#f44336" d="M706.089 188.01q3.853 7.514 7.334 15.208 3.48 7.695 6.58 15.55 3.098 7.856 5.808 15.854t5.023 16.12 4.227 16.346q1.913 8.226 3.42 16.535 1.506 8.31 2.603 16.682 1.097 8.373 1.782 16.79t.956 16.858q.272 8.44.128 16.884-.143 8.443-.7 16.87-.558 8.426-1.528 16.814-.97 8.39-2.35 16.72-1.381 8.331-3.17 16.585-1.787 8.253-3.978 16.409-2.19 8.155-4.778 16.194t-5.568 15.94q-2.98 7.901-6.343 15.647t-7.103 15.318q-3.74 7.572-7.846 14.95-4.107 7.38-8.57 14.548-4.464 7.169-9.274 14.11t-9.955 13.637-10.612 13.133-11.244 12.596-11.848 12.029-12.425 11.433-12.97 10.81-13.485 10.16-13.967 9.487-14.416 8.79-14.83 8.072q-4.89 2.508-9.858 4.858-4.967 2.35-10.007 4.541t-10.148 4.22q-5.108 2.028-10.277 3.892-5.17 1.865-10.397 3.563-5.226 1.698-10.504 3.229-5.279 1.53-10.603 2.891t-10.69 2.551-10.765 2.21q-5.4 1.017-10.83 1.863-5.431.845-10.885 1.516-5.455.672-10.928 1.168-5.473.497-10.96.819-5.486.322-10.98.468-5.493.146-10.988.117-5.496-.03-10.988-.234t-10.974-.585-10.95-.935-10.914-1.284-10.868-1.633-10.81-1.978-10.742-2.323q-5.352-1.248-10.662-2.665t-10.571-3.005q-5.262-1.586-10.47-3.34t-10.358-3.673q-5.15-1.92-10.235-4.002-5.086-2.083-10.102-4.327-5.017-2.244-9.959-4.647t-9.805-4.963-9.642-5.274-9.468-5.58q-7.206-4.402-14.188-9.153-6.981-4.751-13.721-9.839t-13.222-10.5q-6.483-5.413-12.691-11.137-6.21-5.724-12.13-11.746-5.92-6.021-11.538-12.326t-10.92-12.879-10.274-13.398-9.605-13.886-8.911-14.341-8.198-14.761-7.463-15.146-6.711-15.493-5.943-15.804-5.16-16.076-4.365-16.31-3.56-16.506-2.745-16.66q-1.168-8.363-1.924-16.774-.757-8.41-1.1-16.848-.342-8.438-.27-16.882.071-8.445.557-16.876.486-8.43 1.385-16.827t2.209-16.74 3.027-16.61 3.84-16.442q2.12-8.174 4.64-16.234t5.433-15.987q2.912-7.926 6.21-15.7 3.297-7.775 6.973-15.378t7.719-15.016 8.446-14.62q2.865-4.69 5.879-9.285 3.014-4.596 6.172-9.093 3.16-4.497 6.46-8.891t6.74-8.68 7.014-8.46q3.575-4.175 7.281-8.233 3.706-4.057 7.54-7.995t7.792-7.75 8.035-7.497 8.27-7.237q4.194-3.553 8.498-6.97 4.305-3.416 8.716-6.693 4.412-3.278 8.925-6.413t9.126-6.124 9.316-5.829 9.498-5.528 9.67-5.223 9.831-4.91 9.984-4.595q5.028-2.218 10.125-4.273 5.096-2.056 10.256-3.948t10.377-3.618q5.218-1.726 10.488-3.284 5.27-1.559 10.587-2.948t10.676-2.608T334.46 7.3t10.821-1.921 10.876-1.575T367.08 2.58t10.954-.877 10.978-.526T400 1v344z"/><path fill="none" stroke="#fff" stroke-linejoin="bevel" stroke-width="2" d="M706.089 188.01q3.853 7.514 7.334 15.208 3.48 7.695 6.58 15.55 3.098 7.856 5.808 15.854t5.023 16.12 4.227 16.346q1.913 8.226 3.42 16.535 1.506 8.31 2.603 16.682 1.097 8.373 1.782 16.79t.956 16.858q.272 8.44.128 16.884-.143 8.443-.7 16.87-.558 8.426-1.528 16.814-.97 8.39-2.35 16.72-1.381 8.331-3.17 16.585-1.787 8.253-3.978 16.409-2.19 8.155-4.778 16.194t-5.568 15.94q-2.98 7.901-6.343 15.647t-7.103 15.318q-3.74 7.572-7.846 14.95-4.107 7.38-8.57 14.548-4.464 7.169-9.274 14.11t-9.955 13.637-10.612 13.133-11.244 12.596-11.848 12.029-12.425 11.433-12.97 10.81-13.485 10.16-13.967 9.487-14.416 8.79-14.83 8.072q-4.89 2.508-9.858 4.858-4.967 2.35-10.007 4.541t-10.148 4.22q-5.108 2.028-10.277 3.892-5.17 1.865-10.397 3.563-5.226 1.698-10.504 3.229-5.279 1.53-10.603 2.891t-10.69 2.551-10.765 2.21q-5.4 1.017-10.83 1.863-5.431.845-10.885 1.516-5.455.672-10.928 1.168-5.473.497-10.96.819-5.486.322-10.98.468-5.493.146-10.988.117-5.496-.03-10.988-.234t-10.974-.585-10.95-.935-10.914-1.284-10.868-1.633-10.81-1.978-10.742-2.323q-5.352-1.248-10.662-2.665t-10.571-3.005q-5.262-1.586-10.47-3.34t-10.358-3.673q-5.15-1.92-10.235-4.002-5.086-2.083-10.102-4.327-5.017-2.244-9.959-4.647t-9.805-4.963-9.642-5.274-9.468-5.58q-7.206-4.402-14.188-9.153-6.981-4.751-13.721-9.839t-13.222-10.5q-6.483-5.413-12.691-11.137-6.21-5.724-12.13-11.746-5.92-6.021-11.538-12.326t-10.92-12.879-10.274-13.398-9.605-13.886-8.911-14.341-8.198-14.761-7.463-15.146-6.711-15.493-5.943-15.804-5.16-16.076-4.365-16.31-3.56-16.506-2.745-16.66q-1.168-8.363-1.924-16.774-.757-8.41-1.1-16.848-.342-8.438-.27-16.882.071-8.445.557-16.876.486-8.43 1.385-16.827t2.209-16.74 3.027-16.61 3.84-16.442q2.12-8.174 4.64-16.234t5.433-15.987q2.912-7.926 6.21-15.7 3.297-7.775 6.973-15.378t7.719-15.016 8.446-14.62q2.865-4.69 5.879-9.285 3.014-4.596 6.172-9.093 3.16-4.497 6.46-8.891t6.74-8.68 7.014-8.46q3.575-4.175 7.281-8.233 3.706-4.057 7.54-7.995t7.792-7.75 8.035-7.497 8.27-7.237q4.194-3.553 8.498-6.97 4.305-3.416 8.716-6.693 4.412-3.278 8.925-6.413t9.126-6.124 9.316-5.829 9.498-5.528 9.67-5.223 9.831-4.91 9.984-4.595q5.028-2.218 10.125-4.273 5.096-2.056 10.256-3.948t10.377-3.618q5.218-1.726 10.488-3.284 5.27-1.559 10.587-2.948t10.676-2.608T334.46 7.3t10.821-1.921 10.876-1.575T367.08 2.58t10.954-.877 10.978-.526T400 1v344l306.089-156.99Z"/></svg>