<svg xmlns="http://www.w3.org/2000/svg" width="800" height="800"><path fill="none" d="M0 0h800v800H0z"/><clipPath id="a"><path d="M0 740h800v60H0z"/></clipPath><g clip-path="url(#a)"><path fill="#4caf50" d="M164.6 770h40v20h-40z"/><path fill="none" stroke="#fff" stroke-miterlimit="10" stroke-width="2" d="M164.6 770h40v20h-40z"/><text x="214.60001, 224.24001, 230.89999, 242.01999, 252.01997, 258.31995, 269.05994," y="787," fill="#666" font-family="Helvetica Neue" font-size="20">Trusted</text><path fill="#ff9800" d="M310.92 770h40v20h-40z"/><path fill="none" stroke="#fff" stroke-miterlimit="10" stroke-width="2" d="M310.92 770h40v20h-40z"/><text x="360.91998, 373.87997, 380.17996, 391.65997, 401.65994, 412.39993, 423.51993, 434.25992, 445.37991, 456.1199," y="787," fill="#666" font-family="Helvetica Neue" font-size="20">Provenance</text><path fill="#f44336" d="M496.86 770h40v20h-40z"/><path fill="none" stroke="#fff" stroke-miterlimit="10" stroke-width="2" d="M496.86 770h40v20h-40z"/><text x="546.85999, 561.29999, 572.41998, 578.71997, 585.37994, 596.49994, 606.49994, 612.79993, 623.53992," y="787," fill="#666" font-family="Helvetica Neue" font-size="20">Untrusted</text></g><path fill="#4caf50" d="M400 1q6.045 0 12.087.198t12.074.594q6.033.396 12.049.989t12.009 1.383q5.993.79 11.957 1.776t11.893 2.166q5.93 1.181 11.816 2.555t11.726 2.94q5.838 1.567 11.623 3.324t11.508 3.702 11.38 4.077 11.24 4.448q5.585 2.316 11.09 4.813 5.505 2.498 10.926 5.174 5.42 2.677 10.75 5.53 5.33 2.852 10.563 5.878t10.365 6.221q5.131 3.196 10.156 6.558 5.024 3.361 9.935 6.886t9.705 7.208q4.793 3.684 9.463 7.523t9.211 7.828 8.95 8.126q4.41 4.136 8.68 8.415t8.4 8.694q4.128 4.416 8.109 8.965t7.812 9.226 7.505 9.476 7.191 9.718 6.869 9.948 6.539 10.167 6.203 10.376L400 370z"/><path fill="none" stroke="#fff" stroke-linejoin="bevel" stroke-width="2" d="M400 1q6.045 0 12.087.198t12.074.594q6.033.396 12.049.989t12.009 1.383q5.993.79 11.957 1.776t11.893 2.166q5.93 1.181 11.816 2.555t11.726 2.94q5.838 1.567 11.623 3.324t11.508 3.702 11.38 4.077 11.24 4.448q5.585 2.316 11.09 4.813 5.505 2.498 10.926 5.174 5.42 2.677 10.75 5.53 5.33 2.852 10.563 5.878t10.365 6.221q5.131 3.196 10.156 6.558 5.024 3.361 9.935 6.886t9.705 7.208q4.793 3.684 9.463 7.523t9.211 7.828 8.95 8.126q4.41 4.136 8.68 8.415t8.4 8.694q4.128 4.416 8.109 8.965t7.812 9.226 7.505 9.476 7.191 9.718 6.869 9.948 6.539 10.167 6.203 10.376L400 370z"/><path fill="#ff9800" d="M719.784 185.882q9.092 15.791 16.583 32.402 7.492 16.61 13.311 33.877L400 370z"/><path fill="none" stroke="#fff" stroke-linejoin="bevel" stroke-width="2" d="M719.784 185.882q9.092 15.791 16.583 32.402 7.492 16.61 13.311 33.877L400 370l319.784-184.118Z"/><path fill="#f44336" d="M749.678 252.161q2.893 8.584 5.361 17.3t4.506 17.542 3.64 17.742 2.764 17.9 1.882 18.013.997 18.084.108 18.11q-.168 9.058-.78 18.095-.613 9.038-1.668 18.035t-2.55 17.93-3.428 17.785-4.295 17.595-5.154 17.362-6 17.09q-3.21 8.47-6.83 16.773-3.622 8.303-7.647 16.418-4.024 8.116-8.442 16.024-4.417 7.908-9.218 15.59-4.8 7.682-9.972 15.119t-10.702 14.611-11.406 14.069q-5.875 6.894-12.082 13.492t-12.73 12.883q-6.524 6.285-13.347 12.243-6.824 5.957-13.932 11.573-7.107 5.616-14.482 10.876t-14.999 10.152q-7.624 4.891-15.479 9.403t-15.921 8.633-16.326 7.841q-8.26 3.72-16.691 7.031-8.432 3.31-17.016 6.203-5.18 1.746-10.409 3.337t-10.503 3.027-10.588 2.715q-5.314 1.279-10.663 2.4t-10.73 2.082-10.787 1.765-10.834 1.444-10.873 1.122q-5.445.48-10.901.8t-10.92.477-10.929.153q-5.466-.005-10.929-.17-5.463-.167-10.92-.495-5.455-.328-10.899-.818t-10.87-1.14-10.832-1.461-10.785-1.782-10.726-2.1-10.66-2.417-10.583-2.732T292 722.841q-5.227-1.6-10.403-3.353t-10.3-3.66q-5.122-1.907-10.186-3.964t-10.064-4.264q-5-2.206-9.934-4.56t-9.794-4.852-9.647-5.14-9.49-5.423-9.324-5.702-9.152-5.976-8.972-6.244q-7.357-5.285-14.446-10.924-7.09-5.639-13.893-11.619t-13.306-12.287q-6.502-6.307-12.687-12.925t-12.038-13.532-11.36-14.107-10.653-14.646-9.922-15.152-9.166-15.62q-4.392-7.924-8.39-16.052-3.997-8.129-7.59-16.444T54.507 499.6t-5.943-17.109-5.096-17.38-4.237-17.608-3.369-17.796-2.49-17.94-1.608-18.039-.721-18.097.168-18.11 1.057-18.081 1.942-18.007 2.824-17.89 3.698-17.73 4.564-17.527 5.418-17.282 6.26-16.995 7.086-16.668q3.747-8.247 7.895-16.3t8.686-15.893 9.455-15.447 10.201-14.965q3.189-4.44 6.507-8.783 3.32-4.343 6.765-8.585 3.446-4.243 7.016-8.382t7.26-8.17 7.5-7.951q3.81-3.92 7.732-7.726 3.924-3.806 7.958-7.493t8.176-7.255q4.141-3.566 8.387-7.009 4.245-3.442 8.591-6.757t8.787-6.5 8.977-6.237 9.156-5.969 9.33-5.695 9.494-5.415 9.65-5.133 9.799-4.844 9.937-4.551 10.068-4.256q5.066-2.053 10.19-3.955t10.302-3.652 10.406-3.345 10.5-3.036 10.586-2.723 10.661-2.408 10.729-2.092 10.785-1.773 10.833-1.453 10.872-1.13q5.444-.486 10.9-.81 5.456-.323 10.92-.485T400 1v369z"/><path fill="none" stroke="#fff" stroke-linejoin="bevel" stroke-width="2" d="M749.678 252.161q2.893 8.584 5.361 17.3t4.506 17.542 3.64 17.742 2.764 17.9 1.882 18.013.997 18.084.108 18.11q-.168 9.058-.78 18.095-.613 9.038-1.668 18.035t-2.55 17.93-3.428 17.785-4.295 17.595-5.154 17.362-6 17.09q-3.21 8.47-6.83 16.773-3.622 8.303-7.647 16.418-4.024 8.116-8.442 16.024-4.417 7.908-9.218 15.59-4.8 7.682-9.972 15.119t-10.702 14.611-11.406 14.069q-5.875 6.894-12.082 13.492t-12.73 12.883q-6.524 6.285-13.347 12.243-6.824 5.957-13.932 11.573-7.107 5.616-14.482 10.876t-14.999 10.152q-7.624 4.891-15.479 9.403t-15.921 8.633-16.326 7.841q-8.26 3.72-16.691 7.031-8.432 3.31-17.016 6.203-5.18 1.746-10.409 3.337t-10.503 3.027-10.588 2.715q-5.314 1.279-10.663 2.4t-10.73 2.082-10.787 1.765-10.834 1.444-10.873 1.122q-5.445.48-10.901.8t-10.92.477-10.929.153q-5.466-.005-10.929-.17-5.463-.167-10.92-.495-5.455-.328-10.899-.818t-10.87-1.14-10.832-1.461-10.785-1.782-10.726-2.1-10.66-2.417-10.583-2.732T292 722.841q-5.227-1.6-10.403-3.353t-10.3-3.66q-5.122-1.907-10.186-3.964t-10.064-4.264q-5-2.206-9.934-4.56t-9.794-4.852-9.647-5.14-9.49-5.423-9.324-5.702-9.152-5.976-8.972-6.244q-7.357-5.285-14.446-10.924-7.09-5.639-13.893-11.619t-13.306-12.287q-6.502-6.307-12.687-12.925t-12.038-13.532-11.36-14.107-10.653-14.646-9.922-15.152-9.166-15.62q-4.392-7.924-8.39-16.052-3.997-8.129-7.59-16.444T54.507 499.6t-5.943-17.109-5.096-17.38-4.237-17.608-3.369-17.796-2.49-17.94-1.608-18.039-.721-18.097.168-18.11 1.057-18.081 1.942-18.007 2.824-17.89 3.698-17.73 4.564-17.527 5.418-17.282 6.26-16.995 7.086-16.668q3.747-8.247 7.895-16.3t8.686-15.893 9.455-15.447 10.201-14.965q3.189-4.44 6.507-8.783 3.32-4.343 6.765-8.585 3.446-4.243 7.016-8.382t7.26-8.17 7.5-7.951q3.81-3.92 7.732-7.726 3.924-3.806 7.958-7.493t8.176-7.255q4.141-3.566 8.387-7.009 4.245-3.442 8.591-6.757t8.787-6.5 8.977-6.237 9.156-5.969 9.33-5.695 9.494-5.415 9.65-5.133 9.799-4.844 9.937-4.551 10.068-4.256q5.066-2.053 10.19-3.955t10.302-3.652 10.406-3.345 10.5-3.036 10.586-2.723 10.661-2.408 10.729-2.092 10.785-1.773 10.833-1.453 10.872-1.13q5.444-.486 10.9-.81 5.456-.323 10.92-.485T400 1v369l349.678-117.839Z"/></svg>