<svg xmlns="http://www.w3.org/2000/svg" width="800" height="800"><path fill="none" d="M0 0h800v800H0z"/><clipPath id="a"><path d="M0 740h800v60H0z"/></clipPath><g clip-path="url(#a)"><path fill="#4caf50" d="M138.975 770h40v20h-40z"/><path fill="none" stroke="#fff" stroke-miterlimit="10" stroke-width="2" d="M138.975 770h40v20h-40z"/><text x="188.97501, 200.97696, 212.97891, 224.98087, 236.98282, 248.98477, 260.98672," y="785.5," fill="#666" font-family="Liberation Mono" font-size="20">Trusted</text><path fill="#ff9800" d="M302.985 770h40v20h-40z"/><path fill="none" stroke="#fff" stroke-miterlimit="10" stroke-width="2" d="M302.985 770h40v20h-40z"/><text x="352.98502, 364.98697, 376.98892, 388.99088, 400.99283, 412.99478, 424.99673, 436.99869, 449.00064, 461.00259," y="785.5," fill="#666" font-family="Liberation Mono" font-size="20">Provenance</text><path fill="#f44336" d="M503.005 770h40v20h-40z"/><path fill="none" stroke="#fff" stroke-miterlimit="10" stroke-width="2" d="M503.005 770h40v20h-40z"/><text x="553.005, 565.00696, 577.00891, 589.01086, 601.01282, 613.01477, 625.01672, 637.01868, 649.02063," y="785.5," fill="#666" font-family="Liberation Mono" font-size="20">Untrusted</text></g><path fill="#4caf50" d="M400 1q5.982 0 11.96.194 5.98.194 11.949.581 5.97.388 11.923.969 5.954.58 11.885 1.354 5.932.774 11.836 1.74 5.903.965 11.772 2.121t11.698 2.502 11.61 2.88 11.511 3.255q5.73 1.72 11.4 3.626t11.276 3.994q5.605 2.088 11.14 4.357t10.994 4.716q5.458 2.448 10.834 5.07 5.377 2.623 10.665 5.419 5.289 2.796 10.484 5.761t10.291 6.098 10.088 6.429 9.875 6.752q4.882 3.456 9.65 7.068 4.768 3.613 9.417 7.378 4.648 3.765 9.172 7.68 4.524 3.913 8.918 7.972 4.395 4.058 8.656 8.257 4.26 4.199 8.383 8.533 4.122 4.335 8.102 8.8 3.98 4.467 7.813 9.06 3.832 4.592 7.514 9.307 3.682 4.714 7.21 9.546 3.527 4.83 6.896 9.774t6.575 9.993q3.207 5.05 6.249 10.2L400 370z"/><path fill="none" stroke="#fff" stroke-linejoin="bevel" stroke-width="2" d="M400 1q5.982 0 11.96.194 5.98.194 11.949.581 5.97.388 11.923.969 5.954.58 11.885 1.354 5.932.774 11.836 1.74 5.903.965 11.772 2.121t11.698 2.502 11.61 2.88 11.511 3.255q5.73 1.72 11.4 3.626t11.276 3.994q5.605 2.088 11.14 4.357t10.994 4.716q5.458 2.448 10.834 5.07 5.377 2.623 10.665 5.419 5.289 2.796 10.484 5.761t10.291 6.098 10.088 6.429 9.875 6.752q4.882 3.456 9.65 7.068 4.768 3.613 9.417 7.378 4.648 3.765 9.172 7.68 4.524 3.913 8.918 7.972 4.395 4.058 8.656 8.257 4.26 4.199 8.383 8.533 4.122 4.335 8.102 8.8 3.98 4.467 7.813 9.06 3.832 4.592 7.514 9.307 3.682 4.714 7.21 9.546 3.527 4.83 6.896 9.774t6.575 9.993q3.207 5.05 6.249 10.2L400 370z"/><path fill="#ff9800" d="M717.746 182.387q9.304 15.758 17.003 32.359 7.7 16.6 13.719 33.882L400 370z"/><path fill="none" stroke="#fff" stroke-linejoin="bevel" stroke-width="2" d="M717.746 182.387q9.304 15.758 17.003 32.359 7.7 16.6 13.719 33.882L400 370l317.746-187.613Z"/><path fill="#f44336" d="M748.468 248.628q2.98 8.555 5.536 17.245t4.682 17.495 3.82 17.705 2.945 17.87 2.065 17.993 1.18 18.073q.367 9.051.29 18.11-.076 9.058-.597 18.1-.52 9.044-1.485 18.051-.964 9.007-2.369 17.956-1.404 8.95-3.247 17.818-1.842 8.87-4.117 17.637t-4.978 17.414-5.826 17.149q-3.124 8.503-6.661 16.842-3.537 8.34-7.48 16.495-3.941 8.156-8.279 16.108-4.337 7.953-9.06 15.683-4.722 7.73-9.818 15.219t-10.554 14.719-11.263 14.183q-5.805 6.954-11.945 13.614t-12.6 13.011-13.221 12.377q-6.763 6.027-13.814 11.714-7.05 5.687-14.372 11.022-7.32 5.334-14.895 10.303t-15.383 9.56-15.833 8.793-16.246 8.006q-8.221 3.804-16.619 7.2-8.398 3.395-16.952 6.375-5.19 1.807-10.43 3.46-5.24 1.651-10.528 3.147t-10.618 2.832-10.697 2.515q-5.367 1.178-10.767 2.196-5.4 1.017-10.827 1.874-5.428.856-10.879 1.55t-10.92 1.226-10.952.9q-5.482.37-10.973.575t-10.986.246-10.989-.08q-5.493-.122-10.98-.408-5.488-.285-10.965-.734t-10.937-1.06q-5.46-.612-10.9-1.386t-10.856-1.71q-5.414-.935-10.799-2.032t-10.734-2.353-10.659-2.67-10.574-2.989-10.481-3.3-10.379-3.612-10.265-3.92q-5.104-2.035-10.145-4.222t-10.015-4.524-9.875-4.82q-4.902-2.482-9.728-5.11t-9.57-5.4-9.406-5.68-9.233-5.96q-4.572-3.048-9.051-6.23-7.384-5.248-14.502-10.851-7.117-5.603-13.951-11.549t-13.369-12.22-12.752-12.86-12.106-13.471-11.43-14.049-10.728-14.592-9.998-15.102-9.246-15.574-8.47-16.009q-4.038-8.108-7.674-16.405-3.636-8.296-6.86-16.762-3.225-8.465-6.03-17.078t-5.184-17.354-4.327-17.587-3.458-17.778q-1.51-8.931-2.582-17.926-1.07-8.995-1.699-18.032-.628-9.036-.812-18.093t.077-18.111.965-18.086 1.851-18.017 2.733-17.904q1.587-8.918 3.609-17.748t4.475-17.55q2.452-8.72 5.33-17.309t6.174-17.027q3.296-8.437 7.001-16.703t7.813-16.34 8.605-15.936 9.377-15.496 10.126-15.016q3.183-4.48 6.498-8.862t6.758-8.664q3.444-4.281 7.014-8.459 3.57-4.177 7.263-8.246t7.505-8.027 7.74-7.8q3.929-3.841 7.97-7.565 4.041-3.723 8.191-7.325 4.15-3.601 8.406-7.078 4.255-3.476 8.613-6.824t8.812-6.565 9.003-6.3q4.55-3.082 9.188-6.028t9.362-5.752q4.724-2.807 9.53-5.471t9.689-5.185 9.838-4.894 9.98-4.6 10.113-4.3 10.236-3.996 10.35-3.69 10.456-3.38 10.552-3.068 10.638-2.752 10.716-2.434 10.783-2.114 10.842-1.792 10.89-1.468 10.929-1.143 10.958-.818 10.978-.49T400 1v369z"/><path fill="none" stroke="#fff" stroke-linejoin="bevel" stroke-width="2" d="M748.468 248.628q2.98 8.555 5.536 17.245t4.682 17.495 3.82 17.705 2.945 17.87 2.065 17.993 1.18 18.073q.367 9.051.29 18.11-.076 9.058-.597 18.1-.52 9.044-1.485 18.051-.964 9.007-2.369 17.956-1.404 8.95-3.247 17.818-1.842 8.87-4.117 17.637t-4.978 17.414-5.826 17.149q-3.124 8.503-6.661 16.842-3.537 8.34-7.48 16.495-3.941 8.156-8.279 16.108-4.337 7.953-9.06 15.683-4.722 7.73-9.818 15.219t-10.554 14.719-11.263 14.183q-5.805 6.954-11.945 13.614t-12.6 13.011-13.221 12.377q-6.763 6.027-13.814 11.714-7.05 5.687-14.372 11.022-7.32 5.334-14.895 10.303t-15.383 9.56-15.833 8.793-16.246 8.006q-8.221 3.804-16.619 7.2-8.398 3.395-16.952 6.375-5.19 1.807-10.43 3.46-5.24 1.651-10.528 3.147t-10.618 2.832-10.697 2.515q-5.367 1.178-10.767 2.196-5.4 1.017-10.827 1.874-5.428.856-10.879 1.55t-10.92 1.226-10.952.9q-5.482.37-10.973.575t-10.986.246-10.989-.08q-5.493-.122-10.98-.408-5.488-.285-10.965-.734t-10.937-1.06q-5.46-.612-10.9-1.386t-10.856-1.71q-5.414-.935-10.799-2.032t-10.734-2.353-10.659-2.67-10.574-2.989-10.481-3.3-10.379-3.612-10.265-3.92q-5.104-2.035-10.145-4.222t-10.015-4.524-9.875-4.82q-4.902-2.482-9.728-5.11t-9.57-5.4-9.406-5.68-9.233-5.96q-4.572-3.048-9.051-6.23-7.384-5.248-14.502-10.851-7.117-5.603-13.951-11.549t-13.369-12.22-12.752-12.86-12.106-13.471-11.43-14.049-10.728-14.592-9.998-15.102-9.246-15.574-8.47-16.009q-4.038-8.108-7.674-16.405-3.636-8.296-6.86-16.762-3.225-8.465-6.03-17.078t-5.184-17.354-4.327-17.587-3.458-17.778q-1.51-8.931-2.582-17.926-1.07-8.995-1.699-18.032-.628-9.036-.812-18.093t.077-18.111.965-18.086 1.851-18.017 2.733-17.904q1.587-8.918 3.609-17.748t4.475-17.55q2.452-8.72 5.33-17.309t6.174-17.027q3.296-8.437 7.001-16.703t7.813-16.34 8.605-15.936 9.377-15.496 10.126-15.016q3.183-4.48 6.498-8.862t6.758-8.664q3.444-4.281 7.014-8.459 3.57-4.177 7.263-8.246t7.505-8.027 7.74-7.8q3.929-3.841 7.97-7.565 4.041-3.723 8.191-7.325 4.15-3.601 8.406-7.078 4.255-3.476 8.613-6.824t8.812-6.565 9.003-6.3q4.55-3.082 9.188-6.028t9.362-5.752q4.724-2.807 9.53-5.471t9.689-5.185 9.838-4.894 9.98-4.6 10.113-4.3 10.236-3.996 10.35-3.69 10.456-3.38 10.552-3.068 10.638-2.752 10.716-2.434 10.783-2.114 10.842-1.792 10.89-1.468 10.929-1.143 10.958-.818 10.978-.49T400 1v369l348.468-121.372Z"/></svg>