<svg xmlns="http://www.w3.org/2000/svg" width="800" height="800"><path fill="none" d="M0 0h800v800H0z"/><clipPath id="a"><path d="M0 690h800v110H0z"/></clipPath><g clip-path="url(#a)"><path fill="#4caf50" d="M123.3 720h40v20h-40z"/><path fill="none" stroke="#fff" stroke-miterlimit="10" stroke-width="2" d="M123.3 720h40v20h-40z"/><path fill="#ff9800" d="M377.64 720h40v20h-40z"/><path fill="none" stroke="#fff" stroke-miterlimit="10" stroke-width="2" d="M377.64 720h40v20h-40z"/><path fill="#f44336" d="M262.92 770h40v20h-40z"/><path fill="none" stroke="#fff" stroke-miterlimit="10" stroke-width="2" d="M262.92 770h40v20h-40z"/></g><path fill="#4caf50" d="M400 1q4.253 0 8.504.105t8.499.315 8.488.526 8.473.735 8.452.944 8.426 1.153 8.395 1.36 8.359 1.569 8.317 1.774 8.271 1.979 8.22 2.183 8.163 2.385 8.102 2.587 8.035 2.786 7.964 2.984 7.888 3.18 7.806 3.374 7.721 3.566 7.63 3.755q3.793 1.925 7.536 3.943 3.743 2.019 7.435 4.129 3.693 2.11 7.332 4.31 3.638 2.201 7.222 4.49 3.583 2.29 7.109 4.669t6.992 4.842 6.87 5.013q3.403 2.55 6.743 5.182t6.613 5.347q3.274 2.714 6.48 5.509 3.205 2.794 6.341 5.667t6.2 5.822 6.052 5.974L400 345z"/><path fill="none" stroke="#fff" stroke-linejoin="bevel" stroke-width="2" d="M400 1q4.253 0 8.504.105t8.499.315 8.488.526 8.473.735 8.452.944 8.426 1.153 8.395 1.36 8.359 1.569 8.317 1.774 8.271 1.979 8.22 2.183 8.163 2.385 8.102 2.587 8.035 2.786 7.964 2.984 7.888 3.18 7.806 3.374 7.721 3.566 7.63 3.755q3.793 1.925 7.536 3.943 3.743 2.019 7.435 4.129 3.693 2.11 7.332 4.31 3.638 2.201 7.222 4.49 3.583 2.29 7.109 4.669t6.992 4.842 6.87 5.013q3.403 2.55 6.743 5.182t6.613 5.347q3.274 2.714 6.48 5.509 3.205 2.794 6.341 5.667t6.2 5.822 6.052 5.974L400 345z"/><path fill="#ff9800" d="M644.638 103.157q15.857 16.04 29.483 34.013t24.79 37.57L400 345z"/><path fill="none" stroke="#fff" stroke-linejoin="bevel" stroke-width="2" d="M644.638 103.157q15.857 16.04 29.483 34.013t24.79 37.57L400 345l244.638-241.843Z"/><path fill="#f44336" d="M698.911 174.74q4.18 7.339 7.994 14.873t7.255 15.246q3.44 7.712 6.498 15.584t5.726 15.884 4.939 16.146 4.14 16.369 3.333 16.552 2.517 16.695q1.054 8.38 1.695 16.8.64 8.42.868 16.862t.04 16.884-.79 16.866-1.615 16.807q-1.014 8.383-2.438 16.707t-3.255 16.568-4.065 16.388-4.863 16.169-5.65 15.91-6.426 15.614q-3.404 7.729-7.183 15.28-3.779 7.552-7.924 14.91-4.145 7.357-8.646 14.502t-9.348 14.061-10.026 13.585-10.68 13.077q-5.501 6.408-11.31 12.537t-11.91 11.967-12.485 11.369-13.026 10.742q-6.646 5.21-13.538 10.09-6.893 4.878-14.017 9.413t-14.462 8.714q-4.878 2.779-9.843 5.396-4.966 2.618-10.015 5.072-5.048 2.455-10.174 4.743t-10.324 4.408-10.462 4.069-10.59 3.725-10.705 3.378-10.81 3.027-10.902 2.672q-5.473 1.248-10.984 2.316t-11.054 1.955-11.112 1.594q-5.569.707-11.158 1.23-5.589.525-11.192.867t-11.214.5q-5.612.158-11.225.134-5.614-.025-11.223-.232t-11.21-.599q-5.6-.39-11.184-.964-5.584-.573-11.146-1.328t-11.098-1.69q-5.535-.937-11.036-2.053-5.502-1.116-10.964-2.412t-10.879-2.767q-5.416-1.473-10.782-3.121-5.366-1.649-10.676-3.472t-10.556-3.818-10.426-4.16-10.285-4.498-10.133-4.832-9.97-5.16q-4.942-2.66-9.795-5.481-7.301-4.244-14.385-8.84-7.084-4.597-13.934-9.536-6.85-4.94-13.45-10.208-6.599-5.27-12.931-10.856-6.333-5.586-12.384-11.477-6.051-5.89-11.806-12.07t-11.2-12.636-10.565-13.17-9.907-13.672-9.224-14.143-8.52-14.577q-4.08-7.394-7.793-14.978-3.713-7.585-7.049-15.343-3.336-7.757-6.288-15.67-2.951-7.912-5.511-15.96-2.56-8.046-4.722-16.21-2.162-8.163-3.92-16.423t-3.11-16.595-2.292-16.728-1.469-16.82q-.527-8.429-.64-16.873-.114-8.444.186-16.883.301-8.44 1.016-16.854t1.841-16.784 2.663-16.673 3.478-16.522 4.284-16.332 5.08-16.102q2.738-7.988 5.864-15.833t6.634-15.526 7.388-15.183q3.88-7.5 8.124-14.801 2.821-4.853 5.799-9.612t6.11-9.418q3.13-4.658 6.412-9.213t6.71-8.999q3.43-4.444 7.001-8.775 3.572-4.33 7.283-8.542t7.558-8.3q3.847-4.089 7.825-8.05 3.978-3.96 8.083-7.789t8.333-7.521 8.574-7.246 8.806-6.962 9.028-6.67 9.241-6.374 9.445-6.068 9.637-5.756 9.82-5.44q4.954-2.639 9.992-5.115 5.037-2.476 10.153-4.787t10.305-4.453 10.444-4.115 10.573-3.772 10.69-3.424 10.797-3.074q5.423-1.45 10.89-2.72 5.468-1.272 10.974-2.364T344.12 5.57t11.104-1.642q5.566-.731 11.153-1.28 5.586-.548 11.188-.915 5.601-.366 11.212-.549T400 1v344z"/><path fill="none" stroke="#fff" stroke-linejoin="bevel" stroke-width="2" d="M698.911 174.74q4.18 7.339 7.994 14.873t7.255 15.246q3.44 7.712 6.498 15.584t5.726 15.884 4.939 16.146 4.14 16.369 3.333 16.552 2.517 16.695q1.054 8.38 1.695 16.8.64 8.42.868 16.862t.04 16.884-.79 16.866-1.615 16.807q-1.014 8.383-2.438 16.707t-3.255 16.568-4.065 16.388-4.863 16.169-5.65 15.91-6.426 15.614q-3.404 7.729-7.183 15.28-3.779 7.552-7.924 14.91-4.145 7.357-8.646 14.502t-9.348 14.061-10.026 13.585-10.68 13.077q-5.501 6.408-11.31 12.537t-11.91 11.967-12.485 11.369-13.026 10.742q-6.646 5.21-13.538 10.09-6.893 4.878-14.017 9.413t-14.462 8.714q-4.878 2.779-9.843 5.396-4.966 2.618-10.015 5.072-5.048 2.455-10.174 4.743t-10.324 4.408-10.462 4.069-10.59 3.725-10.705 3.378-10.81 3.027-10.902 2.672q-5.473 1.248-10.984 2.316t-11.054 1.955-11.112 1.594q-5.569.707-11.158 1.23-5.589.525-11.192.867t-11.214.5q-5.612.158-11.225.134-5.614-.025-11.223-.232t-11.21-.599q-5.6-.39-11.184-.964-5.584-.573-11.146-1.328t-11.098-1.69q-5.535-.937-11.036-2.053-5.502-1.116-10.964-2.412t-10.879-2.767q-5.416-1.473-10.782-3.121-5.366-1.649-10.676-3.472t-10.556-3.818-10.426-4.16-10.285-4.498-10.133-4.832-9.97-5.16q-4.942-2.66-9.795-5.481-7.301-4.244-14.385-8.84-7.084-4.597-13.934-9.536-6.85-4.94-13.45-10.208-6.599-5.27-12.931-10.856-6.333-5.586-12.384-11.477-6.051-5.89-11.806-12.07t-11.2-12.636-10.565-13.17-9.907-13.672-9.224-14.143-8.52-14.577q-4.08-7.394-7.793-14.978-3.713-7.585-7.049-15.343-3.336-7.757-6.288-15.67-2.951-7.912-5.511-15.96-2.56-8.046-4.722-16.21-2.162-8.163-3.92-16.423t-3.11-16.595-2.292-16.728-1.469-16.82q-.527-8.429-.64-16.873-.114-8.444.186-16.883.301-8.44 1.016-16.854t1.841-16.784 2.663-16.673 3.478-16.522 4.284-16.332 5.08-16.102q2.738-7.988 5.864-15.833t6.634-15.526 7.388-15.183q3.88-7.5 8.124-14.801 2.821-4.853 5.799-9.612t6.11-9.418q3.13-4.658 6.412-9.213t6.71-8.999q3.43-4.444 7.001-8.775 3.572-4.33 7.283-8.542t7.558-8.3q3.847-4.089 7.825-8.05 3.978-3.96 8.083-7.789t8.333-7.521 8.574-7.246 8.806-6.962 9.028-6.67 9.241-6.374 9.445-6.068 9.637-5.756 9.82-5.44q4.954-2.639 9.992-5.115 5.037-2.476 10.153-4.787t10.305-4.453 10.444-4.115 10.573-3.772 10.69-3.424 10.797-3.074q5.423-1.45 10.89-2.72 5.468-1.272 10.974-2.364T344.12 5.57t11.104-1.642q5.566-.731 11.153-1.28 5.586-.548 11.188-.915 5.601-.366 11.212-.549T400 1v344l298.911-170.26Z"/></svg>