<svg xmlns="http://www.w3.org/2000/svg" width="800" height="800"><path fill="none" d="M0 0h800v800H0z"/><clipPath id="a"><path d="M0 740h800v60H0z"/></clipPath><g clip-path="url(#a)"><path fill="#4caf50" d="M144.605 770h40v20h-40z"/><path fill="none" stroke="#fff" stroke-miterlimit="10" stroke-width="2" d="M144.605 770h40v20h-40z"/><text x="194.605, 207.94484, 217.50539, 230.38625, 240.64992, 248.68703, 260.52295," y="787.5," fill="#666" font-family="DejaVu Serif" font-size="20">Trusted</text><path fill="#ff9800" d="M303.325 770h40v20h-40z"/><path fill="none" stroke="#fff" stroke-miterlimit="10" stroke-width="2" d="M303.325 770h40v20h-40z"/><text x="353.32501, 366.78204, 376.34259, 388.38361, 399.68243, 411.51837, 424.39923, 436.32306, 449.20392, 460.40509," y="787.5," fill="#666" font-family="DejaVu Serif" font-size="20">Provenance</text><path fill="#f44336" d="M502.245 770h40v20h-40z"/><path fill="none" stroke="#fff" stroke-miterlimit="10" stroke-width="2" d="M502.245 770h40v20h-40z"/><text x="552.245, 569.10046, 581.98132, 590.01843, 599.57898, 612.45984, 622.72351, 630.76062, 642.59656," y="787.5," fill="#666" font-family="DejaVu Serif" font-size="20">Untrusted</text></g><path fill="#4caf50" d="M400 1q10.75 0 21.482.626t21.41 1.875 21.263 3.119 21.046 4.351 20.757 5.57 20.398 6.767 19.969 7.944q9.868 4.263 19.472 9.093L400 370z"/><path fill="none" stroke="#fff" stroke-linejoin="bevel" stroke-width="2" d="M400 1q10.75 0 21.482.626t21.41 1.875 21.263 3.119 21.046 4.351 20.757 5.57 20.398 6.767 19.969 7.944q9.868 4.263 19.472 9.093L400 370z"/><path fill="#ff9800" d="M565.797 40.345q14.085 7.084 27.514 15.343t26.104 17.634 24.506 19.796 22.727 21.814L400 370z"/><path fill="none" stroke="#fff" stroke-linejoin="bevel" stroke-width="2" d="M565.797 40.345q14.085 7.084 27.514 15.343t26.104 17.634 24.506 19.796 22.727 21.814L400 370 565.797 40.345Z"/><path fill="#f44336" d="M666.648 114.932q6.262 6.546 12.195 13.391t11.522 13.973 10.824 14.522 10.097 15.036 9.348 15.512q4.483 7.872 8.575 15.953 4.092 8.082 7.782 16.354 3.69 8.273 6.97 16.717t6.142 17.038 5.298 17.32 4.442 17.558 3.575 17.755 2.7 17.909q1.13 8.987 1.817 18.02t.932 18.087.042 18.112q-.2 9.056-.846 18.091t-1.733 18.029q-1.088 8.992-2.615 17.921t-3.492 17.772-4.36 17.579-5.216 17.344-6.061 17.067-6.892 16.749-7.705 16.39-8.5 15.993-9.275 15.557q-4.828 7.664-10.027 15.082t-10.754 14.573q-5.557 7.154-11.457 14.027t-12.132 13.449q-6.23 6.575-12.776 12.836-4.863 4.652-9.892 9.123t-10.218 8.756q-5.188 4.285-10.53 8.378-5.342 4.092-10.829 7.988-5.487 3.895-11.112 7.587-5.626 3.693-11.383 7.178t-11.636 6.758-11.874 6.33q-5.996 3.056-12.098 5.891t-12.305 5.447-12.495 4.995q-6.293 2.383-12.668 4.536-6.376 2.152-12.826 4.07-6.45 1.92-12.966 3.601t-13.088 3.126q-6.572 1.443-13.193 2.646t-13.281 2.163-13.352 1.678q-6.69.717-13.403 1.19-6.713.472-13.438.7t-13.455.21-13.453-.281-13.434-.771-13.397-1.26q-6.687-.753-13.342-1.749t-13.27-2.233-13.18-2.716-13.07-3.195q-6.508-1.716-12.947-3.669-6.44-1.952-12.804-4.138-6.365-2.186-12.645-4.603t-12.468-5.06q-8.33-3.56-16.475-7.523-8.146-3.964-16.087-8.322-7.94-4.359-15.658-9.102t-15.193-9.859q-7.476-5.115-14.691-10.592-7.216-5.476-14.154-11.3t-13.582-11.982-12.978-12.633-12.342-13.255-11.677-13.844-10.983-14.401q-5.315-7.336-10.264-14.923t-9.52-15.408q-4.57-7.82-8.751-15.856t-7.963-16.267-7.155-16.638-6.33-16.97q-2.958-8.562-5.49-17.259-2.534-8.697-4.637-17.508-2.104-8.81-3.772-17.714-1.669-8.903-2.898-17.878t-2.018-17.999-1.132-18.076-.243-18.11.645-18.1q.545-9.041 1.533-18.046t2.416-17.95T38.911 294q1.866-8.864 4.164-17.626 2.299-8.762 5.024-17.4 2.726-8.64 5.872-17.134t6.705-16.824q2.644-6.188 5.512-12.276 2.868-6.087 5.956-12.066t6.392-11.842 6.819-11.6 7.238-11.344 7.646-11.073q3.924-5.466 8.045-10.786t8.433-10.486 8.81-10.171 9.175-9.844 9.527-9.502 9.868-9.149 10.195-8.783q5.177-4.298 10.508-8.405t10.807-8.017 11.093-7.617 11.363-7.208 11.618-6.788 11.858-6.36q5.988-3.073 12.083-5.925t12.29-5.48q6.195-2.627 12.481-5.027 6.287-2.4 12.657-4.569t12.815-4.105 12.956-3.635 13.08-3.16 13.186-2.68 13.276-2.199 13.347-1.713 13.4-1.225 13.436-.736T400 1v369z"/><path fill="none" stroke="#fff" stroke-linejoin="bevel" stroke-width="2" d="M666.648 114.932q6.262 6.546 12.195 13.391t11.522 13.973 10.824 14.522 10.097 15.036 9.348 15.512q4.483 7.872 8.575 15.953 4.092 8.082 7.782 16.354 3.69 8.273 6.97 16.717t6.142 17.038 5.298 17.32 4.442 17.558 3.575 17.755 2.7 17.909q1.13 8.987 1.817 18.02t.932 18.087.042 18.112q-.2 9.056-.846 18.091t-1.733 18.029q-1.088 8.992-2.615 17.921t-3.492 17.772-4.36 17.579-5.216 17.344-6.061 17.067-6.892 16.749-7.705 16.39-8.5 15.993-9.275 15.557q-4.828 7.664-10.027 15.082t-10.754 14.573q-5.557 7.154-11.457 14.027t-12.132 13.449q-6.23 6.575-12.776 12.836-4.863 4.652-9.892 9.123t-10.218 8.756q-5.188 4.285-10.53 8.378-5.342 4.092-10.829 7.988-5.487 3.895-11.112 7.587-5.626 3.693-11.383 7.178t-11.636 6.758-11.874 6.33q-5.996 3.056-12.098 5.891t-12.305 5.447-12.495 4.995q-6.293 2.383-12.668 4.536-6.376 2.152-12.826 4.07-6.45 1.92-12.966 3.601t-13.088 3.126q-6.572 1.443-13.193 2.646t-13.281 2.163-13.352 1.678q-6.69.717-13.403 1.19-6.713.472-13.438.7t-13.455.21-13.453-.281-13.434-.771-13.397-1.26q-6.687-.753-13.342-1.749t-13.27-2.233-13.18-2.716-13.07-3.195q-6.508-1.716-12.947-3.669-6.44-1.952-12.804-4.138-6.365-2.186-12.645-4.603t-12.468-5.06q-8.33-3.56-16.475-7.523-8.146-3.964-16.087-8.322-7.94-4.359-15.658-9.102t-15.193-9.859q-7.476-5.115-14.691-10.592-7.216-5.476-14.154-11.3t-13.582-11.982-12.978-12.633-12.342-13.255-11.677-13.844-10.983-14.401q-5.315-7.336-10.264-14.923t-9.52-15.408q-4.57-7.82-8.751-15.856t-7.963-16.267-7.155-16.638-6.33-16.97q-2.958-8.562-5.49-17.259-2.534-8.697-4.637-17.508-2.104-8.81-3.772-17.714-1.669-8.903-2.898-17.878t-2.018-17.999-1.132-18.076-.243-18.11.645-18.1q.545-9.041 1.533-18.046t2.416-17.95T38.911 294q1.866-8.864 4.164-17.626 2.299-8.762 5.024-17.4 2.726-8.64 5.872-17.134t6.705-16.824q2.644-6.188 5.512-12.276 2.868-6.087 5.956-12.066t6.392-11.842 6.819-11.6 7.238-11.344 7.646-11.073q3.924-5.466 8.045-10.786t8.433-10.486 8.81-10.171 9.175-9.844 9.527-9.502 9.868-9.149 10.195-8.783q5.177-4.298 10.508-8.405t10.807-8.017 11.093-7.617 11.363-7.208 11.618-6.788 11.858-6.36q5.988-3.073 12.083-5.925t12.29-5.48q6.195-2.627 12.481-5.027 6.287-2.4 12.657-4.569t12.815-4.105 12.956-3.635 13.08-3.16 13.186-2.68 13.276-2.199 13.347-1.713 13.4-1.225 13.436-.736T400 1v369l266.648-255.068Z"/></svg>