<svg xmlns="http://www.w3.org/2000/svg" width="800" height="800"><path fill="none" d="M0 0h800v800H0z"/><clipPath id="a"><path d="M0 690h800v110H0z"/></clipPath><g clip-path="url(#a)"><path fill="#4caf50" d="M123.3 720h40v20h-40z"/><path fill="none" stroke="#fff" stroke-miterlimit="10" stroke-width="2" d="M123.3 720h40v20h-40z"/><path fill="#ff9800" d="M377.64 720h40v20h-40z"/><path fill="none" stroke="#fff" stroke-miterlimit="10" stroke-width="2" d="M377.64 720h40v20h-40z"/><path fill="#f44336" d="M262.92 770h40v20h-40z"/><path fill="none" stroke="#fff" stroke-miterlimit="10" stroke-width="2" d="M262.92 770h40v20h-40z"/></g><path fill="#4caf50" d="M400 1q4.427 0 8.853.114t8.847.342 8.835.569 8.818.796 8.794 1.024 8.765 1.249 8.73 1.474 8.69 1.698 8.642 1.922q4.31 1.016 8.59 2.143 4.282 1.127 8.533 2.364t8.468 2.582 8.4 2.8 8.324 3.015q4.143 1.56 8.245 3.228 4.1 1.667 8.158 3.439t8.067 3.648q4.01 1.876 7.97 3.854t7.87 4.058 7.761 4.26 7.65 4.457 7.532 4.653 7.41 4.846 7.283 5.034 7.151 5.22 7.014 5.403 6.873 5.581T627 86.53t6.577 5.927 6.422 6.095q3.171 3.088 6.262 6.258 3.092 3.17 6.1 6.417L400 345z"/><path fill="none" stroke="#fff" stroke-linejoin="bevel" stroke-width="2" d="M400 1q4.427 0 8.853.114t8.847.342 8.835.569 8.818.796 8.794 1.024 8.765 1.249 8.73 1.474 8.69 1.698 8.642 1.922q4.31 1.016 8.59 2.143 4.282 1.127 8.533 2.364t8.468 2.582 8.4 2.8 8.324 3.015q4.143 1.56 8.245 3.228 4.1 1.667 8.158 3.439t8.067 3.648q4.01 1.876 7.97 3.854t7.87 4.058 7.761 4.26 7.65 4.457 7.532 4.653 7.41 4.846 7.283 5.034 7.151 5.22 7.014 5.403 6.873 5.581T627 86.53t6.577 5.927 6.422 6.095q3.171 3.088 6.262 6.258 3.092 3.17 6.1 6.417L400 345z"/><path fill="#ff9800" d="M652.361 111.227q14.684 15.851 27.27 33.416 12.584 17.564 22.872 36.566L400 345z"/><path fill="none" stroke="#fff" stroke-linejoin="bevel" stroke-width="2" d="M652.361 111.227q14.684 15.851 27.27 33.416 12.584 17.564 22.872 36.566L400 345l252.361-233.773Z"/><path fill="#f44336" d="M702.504 181.209q4.02 7.426 7.672 15.04 3.652 7.615 6.925 15.399 3.274 7.784 6.162 15.72t5.382 16.003 4.591 16.249 3.788 16.454 2.976 16.62 2.157 16.746 1.333 16.831.505 16.877-.324 16.881-1.151 16.845-1.977 16.769-2.797 16.65q-1.602 8.292-3.61 16.495-2.008 8.202-4.416 16.296-2.408 8.095-5.21 16.06-2.802 7.967-5.991 15.786-3.19 7.82-6.76 15.473t-7.51 15.122q-3.94 7.469-8.243 14.735-4.302 7.267-8.956 14.314t-9.648 13.856-10.316 13.367-10.959 12.844-11.576 12.29-12.166 11.709-12.725 11.097-13.255 10.46q-6.756 5.066-13.752 9.796t-14.216 9.11-14.646 8.4q-4.885 2.646-9.854 5.132t-10.014 4.81-10.165 4.485q-5.118 2.16-10.304 4.154-5.185 1.994-10.433 3.82-5.247 1.825-10.55 3.48-5.304 1.654-10.658 3.137t-10.753 2.792q-5.4 1.31-10.838 2.443-5.439 1.135-10.912 2.092-5.472.958-10.973 1.739-5.5.78-11.023 1.383t-11.062 1.027q-5.54.424-11.09.669t-11.106.31-11.11-.048-11.102-.407-11.084-.766-11.053-1.123-11.01-1.48-10.958-1.833-10.893-2.187-10.816-2.538-10.729-2.885-10.63-3.23q-5.288-1.702-10.52-3.573-5.23-1.871-10.399-3.91t-10.267-4.244q-5.1-2.204-10.125-4.573-5.026-2.368-9.973-4.897-4.946-2.53-9.808-5.217-4.863-2.688-9.636-5.531-7.255-4.322-14.289-8.995t-13.83-9.685-13.339-10.352-12.814-10.994-12.26-11.61-11.676-12.197-11.062-12.755-10.424-13.283-9.76-13.778-9.07-14.24q-4.362-7.232-8.362-14.669-4.001-7.436-7.632-15.06t-6.884-15.418-6.12-15.737q-2.865-7.943-5.339-16.017-2.473-8.075-4.547-16.261t-3.743-16.464-2.932-16.628-2.112-16.752-1.287-16.835-.46-16.878.37-16.88q.39-8.436 1.196-16.842.805-8.407 2.022-16.763t2.841-16.644 3.655-16.484 4.46-16.284 5.253-16.047q2.824-7.959 6.034-15.77 3.21-7.81 6.8-15.453 3.59-7.644 7.552-15.102 3.96-7.459 8.282-14.713 2.844-4.773 5.84-9.452t6.141-9.258 6.438-9.055 6.726-8.842 7.008-8.62q3.574-4.255 7.283-8.39 3.71-4.137 7.55-8.15 3.841-4.015 7.81-7.903t8.06-7.646q4.093-3.757 8.304-7.381t8.537-7.11q4.326-3.486 8.763-6.83 4.436-3.344 8.978-6.543t9.185-6.25q4.643-3.052 9.382-5.951 4.74-2.9 9.57-5.644t9.746-5.333q4.916-2.587 9.914-5.015t10.07-4.692 10.217-4.364 10.352-4.033 10.477-3.695 10.592-3.356 10.693-3.012 10.786-2.665 10.866-2.315 10.935-1.963q5.483-.894 10.993-1.61 5.51-.715 11.039-1.252 5.53-.538 11.074-.897 5.544-.358 11.097-.538Q394.444 1 400 1v344z"/><path fill="none" stroke="#fff" stroke-linejoin="bevel" stroke-width="2" d="M702.504 181.209q4.02 7.426 7.672 15.04 3.652 7.615 6.925 15.399 3.274 7.784 6.162 15.72t5.382 16.003 4.591 16.249 3.788 16.454 2.976 16.62 2.157 16.746 1.333 16.831.505 16.877-.324 16.881-1.151 16.845-1.977 16.769-2.797 16.65q-1.602 8.292-3.61 16.495-2.008 8.202-4.416 16.296-2.408 8.095-5.21 16.06-2.802 7.967-5.991 15.786-3.19 7.82-6.76 15.473t-7.51 15.122q-3.94 7.469-8.243 14.735-4.302 7.267-8.956 14.314t-9.648 13.856-10.316 13.367-10.959 12.844-11.576 12.29-12.166 11.709-12.725 11.097-13.255 10.46q-6.756 5.066-13.752 9.796t-14.216 9.11-14.646 8.4q-4.885 2.646-9.854 5.132t-10.014 4.81-10.165 4.485q-5.118 2.16-10.304 4.154-5.185 1.994-10.433 3.82-5.247 1.825-10.55 3.48-5.304 1.654-10.658 3.137t-10.753 2.792q-5.4 1.31-10.838 2.443-5.439 1.135-10.912 2.092-5.472.958-10.973 1.739-5.5.78-11.023 1.383t-11.062 1.027q-5.54.424-11.09.669t-11.106.31-11.11-.048-11.102-.407-11.084-.766-11.053-1.123-11.01-1.48-10.958-1.833-10.893-2.187-10.816-2.538-10.729-2.885-10.63-3.23q-5.288-1.702-10.52-3.573-5.23-1.871-10.399-3.91t-10.267-4.244q-5.1-2.204-10.125-4.573-5.026-2.368-9.973-4.897-4.946-2.53-9.808-5.217-4.863-2.688-9.636-5.531-7.255-4.322-14.289-8.995t-13.83-9.685-13.339-10.352-12.814-10.994-12.26-11.61-11.676-12.197-11.062-12.755-10.424-13.283-9.76-13.778-9.07-14.24q-4.362-7.232-8.362-14.669-4.001-7.436-7.632-15.06t-6.884-15.418-6.12-15.737q-2.865-7.943-5.339-16.017-2.473-8.075-4.547-16.261t-3.743-16.464-2.932-16.628-2.112-16.752-1.287-16.835-.46-16.878.37-16.88q.39-8.436 1.196-16.842.805-8.407 2.022-16.763t2.841-16.644 3.655-16.484 4.46-16.284 5.253-16.047q2.824-7.959 6.034-15.77 3.21-7.81 6.8-15.453 3.59-7.644 7.552-15.102 3.96-7.459 8.282-14.713 2.844-4.773 5.84-9.452t6.141-9.258 6.438-9.055 6.726-8.842 7.008-8.62q3.574-4.255 7.283-8.39 3.71-4.137 7.55-8.15 3.841-4.015 7.81-7.903t8.06-7.646q4.093-3.757 8.304-7.381t8.537-7.11q4.326-3.486 8.763-6.83 4.436-3.344 8.978-6.543t9.185-6.25q4.643-3.052 9.382-5.951 4.74-2.9 9.57-5.644t9.746-5.333q4.916-2.587 9.914-5.015t10.07-4.692 10.217-4.364 10.352-4.033 10.477-3.695 10.592-3.356 10.693-3.012 10.786-2.665 10.866-2.315 10.935-1.963q5.483-.894 10.993-1.61 5.51-.715 11.039-1.252 5.53-.538 11.074-.897 5.544-.358 11.097-.538Q394.444 1 400 1v344l302.504-163.791Z"/></svg>