<svg xmlns="http://www.w3.org/2000/svg" width="800" height="800"><path fill="none" d="M0 0h800v800H0z"/><clipPath id="a"><path d="M0 740h800v60H0z"/></clipPath><g clip-path="url(#a)"><path fill="#4caf50" d="M144.605 770h40v20h-40z"/><path fill="none" stroke="#fff" stroke-miterlimit="10" stroke-width="2" d="M144.605 770h40v20h-40z"/><text x="194.605, 207.94484, 217.50539, 230.38625, 240.64992, 248.68703, 260.52295," y="787.5," fill="#666" font-family="DejaVu Serif" font-size="20">Trusted</text><path fill="#ff9800" d="M303.325 770h40v20h-40z"/><path fill="none" stroke="#fff" stroke-miterlimit="10" stroke-width="2" d="M303.325 770h40v20h-40z"/><text x="353.32501, 366.78204, 376.34259, 388.38361, 399.68243, 411.51837, 424.39923, 436.32306, 449.20392, 460.40509," y="787.5," fill="#666" font-family="DejaVu Serif" font-size="20">Provenance</text><path fill="#f44336" d="M502.245 770h40v20h-40z"/><path fill="none" stroke="#fff" stroke-miterlimit="10" stroke-width="2" d="M502.245 770h40v20h-40z"/><text x="552.245, 569.10046, 581.98132, 590.01843, 599.57898, 612.45984, 622.72351, 630.76062, 642.59656," y="787.5," fill="#666" font-family="DejaVu Serif" font-size="20">Untrusted</text></g><path fill="#4caf50" d="M400 1q7.68 0 15.353.32 7.673.319 15.326.958 7.653.638 15.273 1.594t15.193 2.23 15.088 2.858 14.955 3.485 14.798 4.103 14.614 4.716 14.405 5.32 14.172 5.914 13.913 6.5 13.63 7.071 13.325 7.634 12.995 8.18 12.644 8.715 12.27 9.233L400 370z"/><path fill="none" stroke="#fff" stroke-linejoin="bevel" stroke-width="2" d="M400 1q7.68 0 15.353.32 7.673.319 15.326.958 7.653.638 15.273 1.594t15.193 2.23 15.088 2.858 14.955 3.485 14.798 4.103 14.614 4.716 14.405 5.32 14.172 5.914 13.913 6.5 13.63 7.071 13.325 7.634 12.995 8.18 12.644 8.715 12.27 9.233L400 370z"/><path fill="#ff9800" d="M627.954 79.831q10.13 7.958 19.68 16.604 9.551 8.645 18.476 17.935t17.18 19.18q8.254 9.89 15.799 20.332L400 370z"/><path fill="none" stroke="#fff" stroke-linejoin="bevel" stroke-width="2" d="M627.954 79.831q10.13 7.958 19.68 16.604 9.551 8.645 18.476 17.935t17.18 19.18q8.254 9.89 15.799 20.332L400 370 627.954 79.831Z"/><path fill="#f44336" d="M699.089 153.882q5.305 7.343 10.244 14.936 4.939 7.594 9.499 15.42 4.56 7.828 8.73 15.869t7.942 16.277q3.771 8.236 7.134 16.648 3.362 8.411 6.308 16.977t5.467 17.267 4.614 17.514q2.091 8.813 3.748 17.719 1.657 8.905 2.875 17.882 1.218 8.976 1.994 18.001t1.108 18.078.22 18.11-.67 18.099-1.556 18.044-2.44 17.946-3.318 17.805-4.187 17.621q-2.31 8.76-5.047 17.394-2.737 8.635-5.894 17.126-3.157 8.49-6.727 16.815t-7.545 16.466-8.343 16.075-9.122 15.646q-4.753 7.712-9.879 15.18-5.125 7.47-10.611 14.678t-11.32 14.138q-5.833 6.93-11.999 13.566t-12.65 12.962-13.271 12.324-13.86 11.66-14.415 10.964q-5.133 3.709-10.39 7.24-5.258 3.53-10.633 6.879t-10.862 6.51-11.08 6.133-11.283 5.75q-5.69 2.778-11.474 5.359-5.782 2.58-11.65 4.962t-11.815 4.56-11.964 4.151q-6.017 1.973-12.099 3.738-6.082 1.766-12.22 3.322-6.14 1.555-12.328 2.9t-12.42 2.475q-6.23 1.13-12.496 2.047t-12.56 1.618q-6.294.7-12.608 1.185t-12.642.752q-6.327.268-12.66.318-6.332.05-12.662-.116-6.33-.167-12.652-.551t-12.625-.985q-6.305-.6-12.585-1.418-6.28-.816-12.528-1.848t-12.457-2.277q-6.209-1.246-12.372-2.704-6.162-1.458-12.271-3.126-6.11-1.669-12.158-3.546t-12.028-3.96q-5.98-2.084-11.885-4.371-5.906-2.288-11.729-4.777-5.823-2.488-11.557-5.176-5.735-2.687-11.374-5.569-8.065-4.123-15.92-8.637-7.853-4.513-15.476-9.407t-14.996-10.156q-7.374-5.261-14.48-10.879T157.25 647.91q-6.822-5.96-13.344-12.246t-12.727-12.886-12.08-13.495q-5.873-6.896-11.402-14.071-5.529-7.176-10.698-14.614t-9.969-15.121-9.215-15.593-8.438-16.025-7.642-16.42-6.827-16.776-5.995-17.09-5.15-17.364-4.292-17.595-3.423-17.785-2.546-17.932-1.664-18.035-.776-18.095.112-18.11 1.001-18.084 1.887-18.013 2.769-17.899 3.644-17.741 4.51-17.541 5.364-17.299 6.207-17.014 7.035-16.69 7.845-16.324q2.882-5.639 5.957-11.175t6.336-10.965q3.262-5.427 6.709-10.74t7.073-10.504 7.43-10.255 7.778-9.994 8.115-9.722q4.142-4.79 8.445-9.437t8.763-9.142 9.072-8.836q4.612-4.34 9.37-8.519t9.656-8.192 9.932-7.857 10.196-7.511 10.447-7.157 10.687-6.794 10.914-6.424 11.127-6.045 11.329-5.66 11.516-5.267 11.69-4.87 11.85-4.465 11.997-4.056 12.129-3.642 12.246-3.224 12.35-2.802 12.439-2.376 12.513-1.948 12.572-1.518 12.617-1.085 12.647-.652T400 1v369z"/><path fill="none" stroke="#fff" stroke-linejoin="bevel" stroke-width="2" d="M699.089 153.882q5.305 7.343 10.244 14.936 4.939 7.594 9.499 15.42 4.56 7.828 8.73 15.869t7.942 16.277q3.771 8.236 7.134 16.648 3.362 8.411 6.308 16.977t5.467 17.267 4.614 17.514q2.091 8.813 3.748 17.719 1.657 8.905 2.875 17.882 1.218 8.976 1.994 18.001t1.108 18.078.22 18.11-.67 18.099-1.556 18.044-2.44 17.946-3.318 17.805-4.187 17.621q-2.31 8.76-5.047 17.394-2.737 8.635-5.894 17.126-3.157 8.49-6.727 16.815t-7.545 16.466-8.343 16.075-9.122 15.646q-4.753 7.712-9.879 15.18-5.125 7.47-10.611 14.678t-11.32 14.138q-5.833 6.93-11.999 13.566t-12.65 12.962-13.271 12.324-13.86 11.66-14.415 10.964q-5.133 3.709-10.39 7.24-5.258 3.53-10.633 6.879t-10.862 6.51-11.08 6.133-11.283 5.75q-5.69 2.778-11.474 5.359-5.782 2.58-11.65 4.962t-11.815 4.56-11.964 4.151q-6.017 1.973-12.099 3.738-6.082 1.766-12.22 3.322-6.14 1.555-12.328 2.9t-12.42 2.475q-6.23 1.13-12.496 2.047t-12.56 1.618q-6.294.7-12.608 1.185t-12.642.752q-6.327.268-12.66.318-6.332.05-12.662-.116-6.33-.167-12.652-.551t-12.625-.985q-6.305-.6-12.585-1.418-6.28-.816-12.528-1.848t-12.457-2.277q-6.209-1.246-12.372-2.704-6.162-1.458-12.271-3.126-6.11-1.669-12.158-3.546t-12.028-3.96q-5.98-2.084-11.885-4.371-5.906-2.288-11.729-4.777-5.823-2.488-11.557-5.176-5.735-2.687-11.374-5.569-8.065-4.123-15.92-8.637-7.853-4.513-15.476-9.407t-14.996-10.156q-7.374-5.261-14.48-10.879T157.25 647.91q-6.822-5.96-13.344-12.246t-12.727-12.886-12.08-13.495q-5.873-6.896-11.402-14.071-5.529-7.176-10.698-14.614t-9.969-15.121-9.215-15.593-8.438-16.025-7.642-16.42-6.827-16.776-5.995-17.09-5.15-17.364-4.292-17.595-3.423-17.785-2.546-17.932-1.664-18.035-.776-18.095.112-18.11 1.001-18.084 1.887-18.013 2.769-17.899 3.644-17.741 4.51-17.541 5.364-17.299 6.207-17.014 7.035-16.69 7.845-16.324q2.882-5.639 5.957-11.175t6.336-10.965q3.262-5.427 6.709-10.74t7.073-10.504 7.43-10.255 7.778-9.994 8.115-9.722q4.142-4.79 8.445-9.437t8.763-9.142 9.072-8.836q4.612-4.34 9.37-8.519t9.656-8.192 9.932-7.857 10.196-7.511 10.447-7.157 10.687-6.794 10.914-6.424 11.127-6.045 11.329-5.66 11.516-5.267 11.69-4.87 11.85-4.465 11.997-4.056 12.129-3.642 12.246-3.224 12.35-2.802 12.439-2.376 12.513-1.948 12.572-1.518 12.617-1.085 12.647-.652T400 1v369l299.089-216.118Z"/></svg>