<svg xmlns="http://www.w3.org/2000/svg" width="800" height="800"><path fill="none" d="M0 0h800v800H0z"/><clipPath id="a"><path d="M0 690h800v110H0z"/></clipPath><g clip-path="url(#a)"><path fill="#4caf50" d="M123.3 720h40v20h-40z"/><path fill="none" stroke="#fff" stroke-miterlimit="10" stroke-width="2" d="M123.3 720h40v20h-40z"/><path fill="#ff9800" d="M377.64 720h40v20h-40z"/><path fill="none" stroke="#fff" stroke-miterlimit="10" stroke-width="2" d="M377.64 720h40v20h-40z"/><path fill="#f44336" d="M262.92 770h40v20h-40z"/><path fill="none" stroke="#fff" stroke-miterlimit="10" stroke-width="2" d="M262.92 770h40v20h-40z"/></g><path fill="#4caf50" d="M400 1q4.284 0 8.567.107 4.283.106 8.562.32 4.28.213 8.552.533t8.535.746 8.515.958 8.487 1.17 8.456 1.381q4.22.744 8.42 1.592 4.199.848 8.376 1.8t8.33 2.009 8.276 2.215 8.22 2.42q4.094 1.263 8.155 2.626 4.062 1.363 8.088 2.827 4.027 1.464 8.016 3.027t7.937 3.227 7.855 3.423 7.767 3.617q3.86 1.857 7.674 3.81t7.577 4q3.764 2.047 7.475 4.187 3.712 2.14 7.369 4.372t7.257 4.555 7.142 4.733 7.022 4.91 6.897 5.084 6.768 5.253q3.352 2.67 6.636 5.42 3.284 2.752 6.498 5.585 3.214 2.832 6.357 5.744t6.213 5.9q3.069 2.99 6.063 6.055L400 345z"/><path fill="none" stroke="#fff" stroke-linejoin="bevel" stroke-width="2" d="M400 1q4.284 0 8.567.107 4.283.106 8.562.32 4.28.213 8.552.533t8.535.746 8.515.958 8.487 1.17 8.456 1.381q4.22.744 8.42 1.592 4.199.848 8.376 1.8t8.33 2.009 8.276 2.215 8.22 2.42q4.094 1.263 8.155 2.626 4.062 1.363 8.088 2.827 4.027 1.464 8.016 3.027t7.937 3.227 7.855 3.423 7.767 3.617q3.86 1.857 7.674 3.81t7.577 4q3.764 2.047 7.475 4.187 3.712 2.14 7.369 4.372t7.257 4.555 7.142 4.733 7.022 4.91 6.897 5.084 6.768 5.253q3.352 2.67 6.636 5.42 3.284 2.752 6.498 5.585 3.214 2.832 6.357 5.744t6.213 5.9q3.069 2.99 6.063 6.055L400 345z"/><path fill="#ff9800" d="M646.062 104.606q15.71 16.08 29.195 34.07 13.484 17.989 24.512 37.58L400 345z"/><path fill="none" stroke="#fff" stroke-linejoin="bevel" stroke-width="2" d="M646.062 104.606q15.71 16.08 29.195 34.07 13.484 17.989 24.512 37.58L400 345l246.062-240.394Z"/><path fill="#f44336" d="M699.769 176.256q4.142 7.359 7.919 14.912t7.177 15.283 6.42 15.616q3.017 7.887 5.644 15.913t4.858 16.17q2.23 8.146 4.058 16.39t3.249 16.569q1.42 8.324 2.432 16.708 1.01 8.384 1.61 16.808.598 8.423.782 16.866t-.046 16.884-.874 16.862-1.7 16.798q-1.057 8.379-2.523 16.695t-3.34 16.551q-1.872 8.235-4.146 16.367t-4.945 16.144-5.732 15.882q-3.06 7.87-6.503 15.582-3.443 7.71-7.26 15.243-3.818 7.533-8 14.87t-8.72 14.458-9.418 14.013q-4.882 6.891-10.095 13.535-5.214 6.643-10.747 13.022t-11.373 12.48-11.971 11.907-12.541 11.304-13.081 10.676-13.589 10.022-14.064 9.342-14.506 8.64q-4.88 2.748-9.846 5.334-4.967 2.587-10.015 5.01-5.049 2.424-10.173 4.682-5.125 2.258-10.32 4.349-5.195 2.09-10.456 4.01t-10.58 3.667-10.695 3.32-10.797 2.972-10.888 2.618-10.967 2.263-11.035 1.904-11.092 1.544-11.136 1.182-11.168.82-11.189.455-11.198.09-11.195-.273-11.18-.638-11.153-1.002-11.115-1.364q-5.547-.772-11.065-1.725t-11.003-2.084q-5.484-1.132-10.929-2.442-5.444-1.31-10.843-2.795-5.4-1.487-10.747-3.148-5.348-1.66-10.64-3.495-5.29-1.835-10.519-3.84-5.228-2.006-10.388-4.18t-10.248-4.516-10.095-4.848-9.931-5.173-9.758-5.494q-7.29-4.262-14.363-8.876-7.072-4.615-13.91-9.571-6.837-4.957-13.423-10.242t-12.905-10.889q-6.318-5.602-12.354-11.508t-11.776-12.1-11.167-12.664-10.532-13.197q-5.105-6.727-9.873-13.697t-9.188-14.166q-4.42-7.195-8.482-14.599t-7.755-14.998-7.01-15.36-6.249-15.686-5.471-15.973-4.68-16.223q-2.142-8.168-3.88-16.432t-3.068-16.604q-1.33-8.339-2.25-16.733t-1.425-16.824-.599-16.874.23-16.883 1.059-16.851 1.884-16.78q1.147-8.365 2.704-16.665t3.52-16.514 4.325-16.32 5.121-16.09q2.758-7.982 5.904-15.818 3.147-7.837 6.674-15.51t7.426-15.163 8.162-14.781q2.826-4.834 5.808-9.574t6.117-9.38 6.42-9.176 6.714-8.962 7.002-8.74 7.283-8.505 7.557-8.265q3.845-4.07 7.821-8.014t8.078-7.756 8.326-7.488 8.566-7.214 8.795-6.93 9.017-6.642 9.228-6.344 9.43-6.04 9.621-5.73 9.803-5.414 9.973-5.092 10.135-4.765 10.283-4.432q5.178-2.132 10.423-4.095t10.55-3.754 10.667-3.408 10.773-3.06q5.41-1.441 10.866-2.707t10.949-2.352 11.019-1.994q5.526-.907 11.078-1.635 5.553-.727 11.126-1.273t11.161-.91 11.185-.547T400 1v344z"/><path fill="none" stroke="#fff" stroke-linejoin="bevel" stroke-width="2" d="M699.769 176.256q4.142 7.359 7.919 14.912t7.177 15.283 6.42 15.616q3.017 7.887 5.644 15.913t4.858 16.17q2.23 8.146 4.058 16.39t3.249 16.569q1.42 8.324 2.432 16.708 1.01 8.384 1.61 16.808.598 8.423.782 16.866t-.046 16.884-.874 16.862-1.7 16.798q-1.057 8.379-2.523 16.695t-3.34 16.551q-1.872 8.235-4.146 16.367t-4.945 16.144-5.732 15.882q-3.06 7.87-6.503 15.582-3.443 7.71-7.26 15.243-3.818 7.533-8 14.87t-8.72 14.458-9.418 14.013q-4.882 6.891-10.095 13.535-5.214 6.643-10.747 13.022t-11.373 12.48-11.971 11.907-12.541 11.304-13.081 10.676-13.589 10.022-14.064 9.342-14.506 8.64q-4.88 2.748-9.846 5.334-4.967 2.587-10.015 5.01-5.049 2.424-10.173 4.682-5.125 2.258-10.32 4.349-5.195 2.09-10.456 4.01t-10.58 3.667-10.695 3.32-10.797 2.972-10.888 2.618-10.967 2.263-11.035 1.904-11.092 1.544-11.136 1.182-11.168.82-11.189.455-11.198.09-11.195-.273-11.18-.638-11.153-1.002-11.115-1.364q-5.547-.772-11.065-1.725t-11.003-2.084q-5.484-1.132-10.929-2.442-5.444-1.31-10.843-2.795-5.4-1.487-10.747-3.148-5.348-1.66-10.64-3.495-5.29-1.835-10.519-3.84-5.228-2.006-10.388-4.18t-10.248-4.516-10.095-4.848-9.931-5.173-9.758-5.494q-7.29-4.262-14.363-8.876-7.072-4.615-13.91-9.571-6.837-4.957-13.423-10.242t-12.905-10.889q-6.318-5.602-12.354-11.508t-11.776-12.1-11.167-12.664-10.532-13.197q-5.105-6.727-9.873-13.697t-9.188-14.166q-4.42-7.195-8.482-14.599t-7.755-14.998-7.01-15.36-6.249-15.686-5.471-15.973-4.68-16.223q-2.142-8.168-3.88-16.432t-3.068-16.604q-1.33-8.339-2.25-16.733t-1.425-16.824-.599-16.874.23-16.883 1.059-16.851 1.884-16.78q1.147-8.365 2.704-16.665t3.52-16.514 4.325-16.32 5.121-16.09q2.758-7.982 5.904-15.818 3.147-7.837 6.674-15.51t7.426-15.163 8.162-14.781q2.826-4.834 5.808-9.574t6.117-9.38 6.42-9.176 6.714-8.962 7.002-8.74 7.283-8.505 7.557-8.265q3.845-4.07 7.821-8.014t8.078-7.756 8.326-7.488 8.566-7.214 8.795-6.93 9.017-6.642 9.228-6.344 9.43-6.04 9.621-5.73 9.803-5.414 9.973-5.092 10.135-4.765 10.283-4.432q5.178-2.132 10.423-4.095t10.55-3.754 10.667-3.408 10.773-3.06q5.41-1.441 10.866-2.707t10.949-2.352 11.019-1.994q5.526-.907 11.078-1.635 5.553-.727 11.126-1.273t11.161-.91 11.185-.547T400 1v344l299.769-168.744Z"/></svg>