<svg xmlns="http://www.w3.org/2000/svg" width="800" height="800"><path fill="none" d="M0 0h800v800H0z"/><clipPath id="a"><path d="M0 740h800v60H0z"/></clipPath><g clip-path="url(#a)"><path fill="#4caf50" d="M144.605 770h40v20h-40z"/><path fill="none" stroke="#fff" stroke-miterlimit="10" stroke-width="2" d="M144.605 770h40v20h-40z"/><text x="194.605, 207.94484, 217.50539, 230.38625, 240.64992, 248.68703, 260.52295," y="787.5," fill="#666" font-family="DejaVu Serif" font-size="20">Trusted</text><path fill="#ff9800" d="M303.325 770h40v20h-40z"/><path fill="none" stroke="#fff" stroke-miterlimit="10" stroke-width="2" d="M303.325 770h40v20h-40z"/><text x="353.32501, 366.78204, 376.34259, 388.38361, 399.68243, 411.51837, 424.39923, 436.32306, 449.20392, 460.40509," y="787.5," fill="#666" font-family="DejaVu Serif" font-size="20">Provenance</text><path fill="#f44336" d="M502.245 770h40v20h-40z"/><path fill="none" stroke="#fff" stroke-miterlimit="10" stroke-width="2" d="M502.245 770h40v20h-40z"/><text x="552.245, 569.10046, 581.98132, 590.01843, 599.57898, 612.45984, 622.72351, 630.76062, 642.59656," y="787.5," fill="#666" font-family="DejaVu Serif" font-size="20">Untrusted</text></g><path fill="#4caf50" d="M400 1q7.592 0 15.178.312 7.586.313 15.152.937t15.1 1.558 15.025 2.179 14.921 2.795q7.432 1.55 14.794 3.406 7.362 1.855 14.642 4.011t14.464 4.611 14.262 5.202 14.036 5.783 13.786 6.357 13.513 6.918 13.218 7.468 12.898 8.005 12.559 8.529 12.197 9.038L400 370z"/><path fill="none" stroke="#fff" stroke-linejoin="bevel" stroke-width="2" d="M400 1q7.592 0 15.178.312 7.586.313 15.152.937t15.1 1.558 15.025 2.179 14.921 2.795q7.432 1.55 14.794 3.406 7.362 1.855 14.642 4.011t14.464 4.611 14.262 5.202 14.036 5.783 13.786 6.357 13.513 6.918 13.218 7.468 12.898 8.005 12.559 8.529 12.197 9.038L400 370z"/><path fill="#ff9800" d="M625.745 78.11q10.252 7.928 19.922 16.556t18.712 17.915 17.409 19.182 16.02 20.357L400 370z"/><path fill="none" stroke="#fff" stroke-linejoin="bevel" stroke-width="2" d="M625.745 78.11q10.252 7.928 19.922 16.556t18.712 17.915 17.409 19.182 16.02 20.357L400 370 625.745 78.11Z"/><path fill="#f44336" d="M697.808 152.12q5.348 7.311 10.332 14.875 4.983 7.565 9.59 15.365 4.606 7.8 8.824 15.816t8.038 16.23 7.231 16.605 6.408 16.94 5.57 17.234 4.716 17.486 3.853 17.697 2.98 17.865 2.1 17.989 1.215 18.07.327 18.11q-.059 9.057-.562 18.102t-1.45 18.053q-.947 9.009-2.334 17.96t-3.212 17.825-4.084 17.645-4.944 17.423q-2.685 8.652-5.793 17.16-3.107 8.51-6.628 16.856t-7.447 16.51q-3.926 8.162-8.248 16.123t-9.03 15.7q-4.707 7.74-9.788 15.238-5.082 7.5-10.525 14.74t-11.235 14.205-11.92 13.637-12.573 13.036q-6.447 6.363-13.198 12.403t-13.791 11.74-14.35 11.05q-5.125 3.749-10.376 7.32-5.25 3.57-10.62 6.959-5.371 3.387-10.855 6.589-5.484 3.2-11.075 6.212-5.59 3.01-11.281 5.827-5.691 2.816-11.476 5.435-5.784 2.62-11.655 5.038-5.872 2.418-11.823 4.633-5.95 2.215-11.974 4.224t-12.113 3.81q-6.09 1.8-12.237 3.39t-12.346 2.968q-6.198 1.377-12.44 2.54-6.243 1.164-12.522 2.112-6.278.948-12.586 1.68-6.307.73-12.636 1.244-6.33.514-12.672.81t-12.693.374q-6.349.077-12.697-.064t-12.688-.5-12.663-.937q-6.324-.578-12.624-1.372t-12.568-1.805-12.5-2.237-12.414-2.665-12.316-3.091q-6.131-1.652-12.202-3.513-6.071-1.862-12.074-3.931t-11.932-4.344q-5.928-2.274-11.775-4.751t-11.605-5.154-11.42-5.55q-8.078-4.1-15.945-8.59t-15.504-9.362-15.027-10.111-14.512-10.836-13.963-11.536-13.38-12.206-12.765-12.848-12.119-13.46q-5.894-6.878-11.444-14.037T97.621 581.49t-10.013-15.092-9.26-15.565q-4.44-7.896-8.486-16-4.046-8.105-7.69-16.398-3.644-8.294-6.877-16.756t-6.046-17.072q-2.813-8.61-5.2-17.349-2.388-8.738-4.344-17.582t-3.476-17.775-2.599-17.924-1.717-18.03-.83-18.093.06-18.11q.251-9.056.947-18.088.696-9.031 1.834-18.018t2.716-17.907 3.59-17.751 4.459-17.555 5.314-17.314 6.157-17.033 6.985-16.71 7.797-16.347q2.873-5.663 5.94-11.223 3.066-5.56 6.322-11.012 3.256-5.451 6.698-10.787 3.441-5.336 7.065-10.551 3.623-5.215 7.423-10.302t7.774-10.04 8.114-9.766 8.446-9.482 8.767-9.185q4.463-4.518 9.078-8.879t9.378-8.56T165.614 85t9.944-7.895 10.21-7.549 10.464-7.193q5.294-3.506 10.706-6.829 5.411-3.322 10.933-6.456t11.15-6.076 11.352-5.69q5.725-2.746 11.54-5.295 5.817-2.548 11.717-4.894t11.878-4.49q5.977-2.142 12.025-4.077t12.159-3.662 12.277-3.24 12.381-2.817 12.471-2.39q6.256-1.086 12.546-1.958 6.29-.87 12.606-1.525t12.65-1.091q6.335-.437 12.681-.656Q393.65 1 400 1v369z"/><path fill="none" stroke="#fff" stroke-linejoin="bevel" stroke-width="2" d="M697.808 152.12q5.348 7.311 10.332 14.875 4.983 7.565 9.59 15.365 4.606 7.8 8.824 15.816t8.038 16.23 7.231 16.605 6.408 16.94 5.57 17.234 4.716 17.486 3.853 17.697 2.98 17.865 2.1 17.989 1.215 18.07.327 18.11q-.059 9.057-.562 18.102t-1.45 18.053q-.947 9.009-2.334 17.96t-3.212 17.825-4.084 17.645-4.944 17.423q-2.685 8.652-5.793 17.16-3.107 8.51-6.628 16.856t-7.447 16.51q-3.926 8.162-8.248 16.123t-9.03 15.7q-4.707 7.74-9.788 15.238-5.082 7.5-10.525 14.74t-11.235 14.205-11.92 13.637-12.573 13.036q-6.447 6.363-13.198 12.403t-13.791 11.74-14.35 11.05q-5.125 3.749-10.376 7.32-5.25 3.57-10.62 6.959-5.371 3.387-10.855 6.589-5.484 3.2-11.075 6.212-5.59 3.01-11.281 5.827-5.691 2.816-11.476 5.435-5.784 2.62-11.655 5.038-5.872 2.418-11.823 4.633-5.95 2.215-11.974 4.224t-12.113 3.81q-6.09 1.8-12.237 3.39t-12.346 2.968q-6.198 1.377-12.44 2.54-6.243 1.164-12.522 2.112-6.278.948-12.586 1.68-6.307.73-12.636 1.244-6.33.514-12.672.81t-12.693.374q-6.349.077-12.697-.064t-12.688-.5-12.663-.937q-6.324-.578-12.624-1.372t-12.568-1.805-12.5-2.237-12.414-2.665-12.316-3.091q-6.131-1.652-12.202-3.513-6.071-1.862-12.074-3.931t-11.932-4.344q-5.928-2.274-11.775-4.751t-11.605-5.154-11.42-5.55q-8.078-4.1-15.945-8.59t-15.504-9.362-15.027-10.111-14.512-10.836-13.963-11.536-13.38-12.206-12.765-12.848-12.119-13.46q-5.894-6.878-11.444-14.037T97.621 581.49t-10.013-15.092-9.26-15.565q-4.44-7.896-8.486-16-4.046-8.105-7.69-16.398-3.644-8.294-6.877-16.756t-6.046-17.072q-2.813-8.61-5.2-17.349-2.388-8.738-4.344-17.582t-3.476-17.775-2.599-17.924-1.717-18.03-.83-18.093.06-18.11q.251-9.056.947-18.088.696-9.031 1.834-18.018t2.716-17.907 3.59-17.751 4.459-17.555 5.314-17.314 6.157-17.033 6.985-16.71 7.797-16.347q2.873-5.663 5.94-11.223 3.066-5.56 6.322-11.012 3.256-5.451 6.698-10.787 3.441-5.336 7.065-10.551 3.623-5.215 7.423-10.302t7.774-10.04 8.114-9.766 8.446-9.482 8.767-9.185q4.463-4.518 9.078-8.879t9.378-8.56T165.614 85t9.944-7.895 10.21-7.549 10.464-7.193q5.294-3.506 10.706-6.829 5.411-3.322 10.933-6.456t11.15-6.076 11.352-5.69q5.725-2.746 11.54-5.295 5.817-2.548 11.717-4.894t11.878-4.49q5.977-2.142 12.025-4.077t12.159-3.662 12.277-3.24 12.381-2.817 12.471-2.39q6.256-1.086 12.546-1.958 6.29-.87 12.606-1.525t12.65-1.091q6.335-.437 12.681-.656Q393.65 1 400 1v369l297.808-217.88Z"/></svg>