<svg xmlns="http://www.w3.org/2000/svg" width="800" height="800"><path fill="none" d="M0 0h800v800H0z"/><clipPath id="a"><path d="M0 690h800v110H0z"/></clipPath><g clip-path="url(#a)"><path fill="#4caf50" d="M123.3 720h40v20h-40z"/><path fill="none" stroke="#fff" stroke-miterlimit="10" stroke-width="2" d="M123.3 720h40v20h-40z"/><path fill="#ff9800" d="M377.64 720h40v20h-40z"/><path fill="none" stroke="#fff" stroke-miterlimit="10" stroke-width="2" d="M377.64 720h40v20h-40z"/><path fill="#f44336" d="M262.92 770h40v20h-40z"/><path fill="none" stroke="#fff" stroke-miterlimit="10" stroke-width="2" d="M262.92 770h40v20h-40z"/></g><path fill="#4caf50" d="M400 1q4.386 0 8.771.112t8.766.335 8.754.56q4.374.334 8.737.781t8.715 1.004q4.35.558 8.686 1.227 4.335.668 8.651 1.447 4.317.779 8.612 1.668 4.296.888 8.567 1.886 4.272.998 8.516 2.105 4.245 1.106 8.46 2.32 4.214 1.215 8.397 2.536 4.183 1.322 8.33 2.75t8.258 2.96 8.179 3.17 8.095 3.378q4.027 1.74 8.007 3.583 3.981 1.842 7.913 3.786t7.814 3.986 7.71 4.185 7.6 4.38 7.487 4.571 7.367 4.762 7.243 4.948 7.115 5.13 6.982 5.311 6.844 5.487 6.702 5.66q3.315 2.872 6.556 5.828t6.405 5.994 6.25 6.156q3.085 3.117 6.09 6.312L400 345z"/><path fill="none" stroke="#fff" stroke-linejoin="bevel" stroke-width="2" d="M400 1q4.386 0 8.771.112t8.766.335 8.754.56q4.374.334 8.737.781t8.715 1.004q4.35.558 8.686 1.227 4.335.668 8.651 1.447 4.317.779 8.612 1.668 4.296.888 8.567 1.886 4.272.998 8.516 2.105 4.245 1.106 8.46 2.32 4.214 1.215 8.397 2.536 4.183 1.322 8.33 2.75t8.258 2.96 8.179 3.17 8.095 3.378q4.027 1.74 8.007 3.583 3.981 1.842 7.913 3.786t7.814 3.986 7.71 4.185 7.6 4.38 7.487 4.571 7.367 4.762 7.243 4.948 7.115 5.13 6.982 5.311 6.844 5.487 6.702 5.66q3.315 2.872 6.556 5.828t6.405 5.994 6.25 6.156q3.085 3.117 6.09 6.312L400 345z"/><path fill="#ff9800" d="M650.58 109.318q14.928 15.872 27.735 33.502 12.806 17.629 23.286 36.733L400 345z"/><path fill="none" stroke="#fff" stroke-linejoin="bevel" stroke-width="2" d="M650.58 109.318q14.928 15.872 27.735 33.502 12.806 17.629 23.286 36.733L400 345l250.58-235.682Z"/><path fill="#f44336" d="M701.601 179.553q4.061 7.404 7.755 14.998t7.01 15.36 6.247 15.686q2.93 7.92 5.47 15.974t4.68 16.223 3.878 16.433q1.737 8.264 3.067 16.603t2.249 16.734 1.425 16.824.598 16.874-.231 16.883-1.06 16.851-1.884 16.779-2.706 16.666-3.52 16.513-4.326 16.321-5.122 16.089-5.905 15.818-6.674 15.51-7.427 15.162-8.162 14.78-8.878 14.363-9.571 13.91-10.243 13.422-10.889 12.904-11.509 12.354-12.1 11.775-12.665 11.167q-6.47 5.427-13.197 10.531-6.728 5.104-13.698 9.872t-14.166 9.188-14.6 8.481q-4.883 2.68-9.851 5.199-4.969 2.52-10.016 4.877t-10.167 4.55q-5.12 2.193-10.31 4.218-5.189 2.026-10.44 3.883-5.253 1.857-10.562 3.542-5.31 1.686-10.67 3.2-5.361 1.512-10.768 2.85-5.408 1.34-10.855 2.502-5.448 1.163-10.93 2.148-5.483.986-10.995 1.794t-11.046 1.437-11.087 1.078-11.116.719-11.134.358q-5.57.09-11.14-.002-5.569-.092-11.133-.363-5.564-.272-11.116-.723-5.552-.452-11.086-1.083t-11.046-1.441-10.993-1.798-10.93-2.153-10.854-2.506-10.767-2.856-10.669-3.203-10.56-3.546q-5.25-1.86-10.439-3.887-5.188-2.028-10.308-4.223t-10.166-4.554-10.013-4.881-9.85-5.203-9.676-5.519q-7.266-4.302-14.313-8.955t-13.857-9.647-13.367-10.316-12.845-10.959-12.292-11.575q-6.003-5.94-11.708-12.165-5.705-6.227-11.098-12.725-5.393-6.499-10.46-13.254-5.067-6.756-9.797-13.752t-9.11-14.215-8.402-14.646-7.674-15.04-6.926-15.398-6.162-15.72q-2.888-7.935-5.383-16.003t-4.592-16.248-3.789-16.454-2.976-16.62-2.158-16.746-1.334-16.831q-.46-8.433-.506-16.877-.046-8.445.323-16.881.368-8.437 1.15-16.846.782-8.408 1.976-16.768t2.796-16.651 3.61-16.494 4.415-16.297 5.209-16.06 5.991-15.787 6.758-15.472 7.51-15.123 8.242-14.736q2.838-4.793 5.83-9.492 2.99-4.7 6.133-9.299 3.142-4.6 6.431-9.095t6.723-8.882 7.006-8.66 7.283-8.429 7.553-8.188 7.813-7.94 8.067-7.682 8.31-7.417 8.548-7.144q4.33-3.503 8.773-6.864t8.991-6.576q4.55-3.215 9.2-6.281t9.398-5.98q4.747-2.914 9.587-5.673t9.765-5.36 9.934-5.04q5.007-2.44 10.091-4.716 5.085-2.277 10.24-4.387 5.155-2.111 10.375-4.054 5.221-1.942 10.502-3.715t10.616-3.373 10.72-3.028 10.813-2.678 10.894-2.328q5.465-1.075 10.963-1.974 5.497-.898 11.021-1.617 5.524-.72 11.068-1.26t11.103-.9 11.126-.542T400 1v344z"/><path fill="none" stroke="#fff" stroke-linejoin="bevel" stroke-width="2" d="M701.601 179.553q4.061 7.404 7.755 14.998t7.01 15.36 6.247 15.686q2.93 7.92 5.47 15.974t4.68 16.223 3.878 16.433q1.737 8.264 3.067 16.603t2.249 16.734 1.425 16.824.598 16.874-.231 16.883-1.06 16.851-1.884 16.779-2.706 16.666-3.52 16.513-4.326 16.321-5.122 16.089-5.905 15.818-6.674 15.51-7.427 15.162-8.162 14.78-8.878 14.363-9.571 13.91-10.243 13.422-10.889 12.904-11.509 12.354-12.1 11.775-12.665 11.167q-6.47 5.427-13.197 10.531-6.728 5.104-13.698 9.872t-14.166 9.188-14.6 8.481q-4.883 2.68-9.851 5.199-4.969 2.52-10.016 4.877t-10.167 4.55q-5.12 2.193-10.31 4.218-5.189 2.026-10.44 3.883-5.253 1.857-10.562 3.542-5.31 1.686-10.67 3.2-5.361 1.512-10.768 2.85-5.408 1.34-10.855 2.502-5.448 1.163-10.93 2.148-5.483.986-10.995 1.794t-11.046 1.437-11.087 1.078-11.116.719-11.134.358q-5.57.09-11.14-.002-5.569-.092-11.133-.363-5.564-.272-11.116-.723-5.552-.452-11.086-1.083t-11.046-1.441-10.993-1.798-10.93-2.153-10.854-2.506-10.767-2.856-10.669-3.203-10.56-3.546q-5.25-1.86-10.439-3.887-5.188-2.028-10.308-4.223t-10.166-4.554-10.013-4.881-9.85-5.203-9.676-5.519q-7.266-4.302-14.313-8.955t-13.857-9.647-13.367-10.316-12.845-10.959-12.292-11.575q-6.003-5.94-11.708-12.165-5.705-6.227-11.098-12.725-5.393-6.499-10.46-13.254-5.067-6.756-9.797-13.752t-9.11-14.215-8.402-14.646-7.674-15.04-6.926-15.398-6.162-15.72q-2.888-7.935-5.383-16.003t-4.592-16.248-3.789-16.454-2.976-16.62-2.158-16.746-1.334-16.831q-.46-8.433-.506-16.877-.046-8.445.323-16.881.368-8.437 1.15-16.846.782-8.408 1.976-16.768t2.796-16.651 3.61-16.494 4.415-16.297 5.209-16.06 5.991-15.787 6.758-15.472 7.51-15.123 8.242-14.736q2.838-4.793 5.83-9.492 2.99-4.7 6.133-9.299 3.142-4.6 6.431-9.095t6.723-8.882 7.006-8.66 7.283-8.429 7.553-8.188 7.813-7.94 8.067-7.682 8.31-7.417 8.548-7.144q4.33-3.503 8.773-6.864t8.991-6.576q4.55-3.215 9.2-6.281t9.398-5.98q4.747-2.914 9.587-5.673t9.765-5.36 9.934-5.04q5.007-2.44 10.091-4.716 5.085-2.277 10.24-4.387 5.155-2.111 10.375-4.054 5.221-1.942 10.502-3.715t10.616-3.373 10.72-3.028 10.813-2.678 10.894-2.328q5.465-1.075 10.963-1.974 5.497-.898 11.021-1.617 5.524-.72 11.068-1.26t11.103-.9 11.126-.542T400 1v344l301.601-165.447Z"/></svg>