<svg xmlns="http://www.w3.org/2000/svg" width="800" height="800"><path fill="none" d="M0 0h800v800H0z"/><clipPath id="a"><path d="M0 740h800v60H0z"/></clipPath><g clip-path="url(#a)"><path fill="#4caf50" d="M164.745 770h40v20h-40z"/><path fill="none" stroke="#fff" stroke-miterlimit="10" stroke-width="2" d="M164.745 770h40v20h-40z"/><text x="214.745, 226.2196, 232.87976, 244.00281, 254.00281, 259.55945, 270.6825," y="786.5," fill="#666" font-family="Liberation Sans" font-size="20">Trusted</text><path fill="#ff9800" d="M311.805 770h40v20h-40z"/><path fill="none" stroke="#fff" stroke-miterlimit="10" stroke-width="2" d="M311.805 770h40v20h-40z"/><text x="361.80499, 375.14484, 381.80499, 392.92804, 402.92804, 414.05109, 425.17413, 436.29718, 447.42023, 457.42023," y="786.5," fill="#666" font-family="Liberation Sans" font-size="20">Provenance</text><path fill="#f44336" d="M498.545 770h40v20h-40z"/><path fill="none" stroke="#fff" stroke-miterlimit="10" stroke-width="2" d="M498.545 770h40v20h-40z"/><text x="548.54498, 562.98834, 574.11139, 579.66803, 586.32819, 597.45123, 607.45123, 613.00787, 624.13092," y="786.5," fill="#666" font-family="Liberation Sans" font-size="20">Untrusted</text></g><path fill="#4caf50" d="M400 1q5.746 0 11.49.179t11.477.536 11.456.894 11.423 1.25 11.378 1.605 11.322 1.959 11.256 2.31 11.18 2.66 11.09 3.005 10.991 3.35 10.882 3.691 10.761 4.028 10.631 4.36 10.49 4.69q5.21 2.427 10.34 5.014t10.177 5.334 10.007 5.648q4.96 2.901 9.826 5.956t9.636 6.26 9.437 6.557 9.227 6.847q4.56 3.496 9.01 7.132t8.784 7.408 8.548 7.678 8.305 7.941 8.054 8.196 7.796 8.442 7.528 8.68q3.696 4.4 7.254 8.912t6.974 9.133q3.415 4.62 6.686 9.345t6.391 9.55L400 370z"/><path fill="none" stroke="#fff" stroke-linejoin="bevel" stroke-width="2" d="M400 1q5.746 0 11.49.179t11.477.536 11.456.894 11.423 1.25 11.378 1.605 11.322 1.959 11.256 2.31 11.18 2.66 11.09 3.005 10.991 3.35 10.882 3.691 10.761 4.028 10.631 4.36 10.49 4.69q5.21 2.427 10.34 5.014t10.177 5.334 10.007 5.648q4.96 2.901 9.826 5.956t9.636 6.26 9.437 6.557 9.227 6.847q4.56 3.496 9.01 7.132t8.784 7.408 8.548 7.678 8.305 7.941 8.054 8.196 7.796 8.442 7.528 8.68q3.696 4.4 7.254 8.912t6.974 9.133q3.415 4.62 6.686 9.345t6.391 9.55L400 370z"/><path fill="#ff9800" d="M709.807 169.55q10.492 16.215 19.234 33.437 8.741 17.222 15.637 35.263L400 370z"/><path fill="none" stroke="#fff" stroke-linejoin="bevel" stroke-width="2" d="M709.807 169.55q10.492 16.215 19.234 33.437 8.741 17.222 15.637 35.263L400 370l309.807-200.45Z"/><path fill="#f44336" d="M744.678 238.25q3.234 8.462 6.05 17.071t5.204 17.348 4.347 17.582 3.48 17.774q1.52 8.93 2.602 17.923 1.082 8.994 1.72 18.03.64 9.036.834 18.092.194 9.057-.056 18.112t-.943 18.086-1.83 18.02q-1.137 8.986-2.713 17.906t-3.587 17.753-4.455 17.555-5.31 17.315q-2.868 8.593-6.154 17.034-3.286 8.442-6.982 16.712t-7.793 16.349-8.587 15.947-9.358 15.506-10.108 15.028-10.833 14.514-11.533 13.965-12.204 13.383q-6.266 6.541-12.845 12.767-6.58 6.227-13.457 12.122-6.877 5.896-14.036 11.447-7.158 5.552-14.58 10.745t-15.09 10.016-15.562 9.264-16 8.489q-8.103 4.048-16.395 7.693-8.293 3.646-16.754 6.88-5.214 1.993-10.485 3.827t-10.595 3.508-10.697 3.186q-5.373 1.512-10.789 2.861t-10.87 2.534-10.941 2.203-11.003 1.872-11.055 1.538-11.096 1.203-11.128.867-11.148.53-11.16.192-11.16-.145-11.151-.482-11.131-.82-11.101-1.156-11.062-1.491q-5.519-.83-11.01-1.825-5.492-.996-10.951-2.157t-10.881-2.487-10.8-2.816q-5.38-1.489-10.71-3.14-5.332-1.652-10.611-3.463t-10.5-3.783q-5.223-1.97-10.382-4.098-5.16-2.128-10.253-4.41t-10.115-4.719-9.968-5.022-9.81-5.321-9.646-5.616-9.472-5.905q-4.69-3.024-9.288-6.188-7.462-5.137-14.662-10.632-7.201-5.497-14.123-11.34-6.923-5.842-13.55-12.017-6.627-6.176-12.944-12.669-6.316-6.493-12.306-13.288t-11.64-13.876-10.944-14.43-10.224-14.95-9.477-15.434-8.709-15.88-7.92-16.289-7.11-16.657-6.284-16.986-5.443-17.274-4.59-17.52-3.724-17.725-2.85-17.886-1.968-18.004-1.083-18.079-.195-18.11.694-18.099q.57-9.04 1.582-18.042 1.012-9.001 2.465-17.943 1.452-8.94 3.342-17.8t4.212-17.615q2.322-8.756 5.07-17.387 2.75-8.631 5.919-17.117t6.75-16.807 7.568-16.454 8.365-16.064q4.38-7.93 9.144-15.634 4.763-7.705 9.9-15.166 3.164-4.598 6.466-9.097 3.302-4.5 6.739-8.898t7.005-8.689 7.264-8.474 7.518-8.25 7.763-8.018 8.002-7.78 8.234-7.536 8.459-7.282 8.674-7.023 8.883-6.758 9.083-6.486 9.276-6.208 9.459-5.925 9.633-5.636 9.8-5.342 9.957-5.044 10.105-4.74 10.243-4.432q5.155-2.138 10.373-4.12t10.493-3.805 10.603-3.485 10.703-3.164 10.795-2.838q5.418-1.337 10.875-2.51t10.946-2.18q5.49-1.008 11.007-1.849 5.518-.84 11.058-1.514t11.099-1.18q5.558-.506 11.13-.843 5.57-.337 11.149-.506T400 1v369z"/><path fill="none" stroke="#fff" stroke-linejoin="bevel" stroke-width="2" d="M744.678 238.25q3.234 8.462 6.05 17.071t5.204 17.348 4.347 17.582 3.48 17.774q1.52 8.93 2.602 17.923 1.082 8.994 1.72 18.03.64 9.036.834 18.092.194 9.057-.056 18.112t-.943 18.086-1.83 18.02q-1.137 8.986-2.713 17.906t-3.587 17.753-4.455 17.555-5.31 17.315q-2.868 8.593-6.154 17.034-3.286 8.442-6.982 16.712t-7.793 16.349-8.587 15.947-9.358 15.506-10.108 15.028-10.833 14.514-11.533 13.965-12.204 13.383q-6.266 6.541-12.845 12.767-6.58 6.227-13.457 12.122-6.877 5.896-14.036 11.447-7.158 5.552-14.58 10.745t-15.09 10.016-15.562 9.264-16 8.489q-8.103 4.048-16.395 7.693-8.293 3.646-16.754 6.88-5.214 1.993-10.485 3.827t-10.595 3.508-10.697 3.186q-5.373 1.512-10.789 2.861t-10.87 2.534-10.941 2.203-11.003 1.872-11.055 1.538-11.096 1.203-11.128.867-11.148.53-11.16.192-11.16-.145-11.151-.482-11.131-.82-11.101-1.156-11.062-1.491q-5.519-.83-11.01-1.825-5.492-.996-10.951-2.157t-10.881-2.487-10.8-2.816q-5.38-1.489-10.71-3.14-5.332-1.652-10.611-3.463t-10.5-3.783q-5.223-1.97-10.382-4.098-5.16-2.128-10.253-4.41t-10.115-4.719-9.968-5.022-9.81-5.321-9.646-5.616-9.472-5.905q-4.69-3.024-9.288-6.188-7.462-5.137-14.662-10.632-7.201-5.497-14.123-11.34-6.923-5.842-13.55-12.017-6.627-6.176-12.944-12.669-6.316-6.493-12.306-13.288t-11.64-13.876-10.944-14.43-10.224-14.95-9.477-15.434-8.709-15.88-7.92-16.289-7.11-16.657-6.284-16.986-5.443-17.274-4.59-17.52-3.724-17.725-2.85-17.886-1.968-18.004-1.083-18.079-.195-18.11.694-18.099q.57-9.04 1.582-18.042 1.012-9.001 2.465-17.943 1.452-8.94 3.342-17.8t4.212-17.615q2.322-8.756 5.07-17.387 2.75-8.631 5.919-17.117t6.75-16.807 7.568-16.454 8.365-16.064q4.38-7.93 9.144-15.634 4.763-7.705 9.9-15.166 3.164-4.598 6.466-9.097 3.302-4.5 6.739-8.898t7.005-8.689 7.264-8.474 7.518-8.25 7.763-8.018 8.002-7.78 8.234-7.536 8.459-7.282 8.674-7.023 8.883-6.758 9.083-6.486 9.276-6.208 9.459-5.925 9.633-5.636 9.8-5.342 9.957-5.044 10.105-4.74 10.243-4.432q5.155-2.138 10.373-4.12t10.493-3.805 10.603-3.485 10.703-3.164 10.795-2.838q5.418-1.337 10.875-2.51t10.946-2.18q5.49-1.008 11.007-1.849 5.518-.84 11.058-1.514t11.099-1.18q5.558-.506 11.13-.843 5.57-.337 11.149-.506T400 1v369l344.678-131.75Z"/></svg>