<svg xmlns="http://www.w3.org/2000/svg" width="800" height="800"><path fill="none" d="M0 0h800v800H0z"/><clipPath id="a"><path d="M0 690h800v110H0z"/></clipPath><g clip-path="url(#a)"><path fill="#4caf50" d="M123.3 720h40v20h-40z"/><path fill="none" stroke="#fff" stroke-miterlimit="10" stroke-width="2" d="M123.3 720h40v20h-40z"/><path fill="#ff9800" d="M377.64 720h40v20h-40z"/><path fill="none" stroke="#fff" stroke-miterlimit="10" stroke-width="2" d="M377.64 720h40v20h-40z"/><path fill="#f44336" d="M262.92 770h40v20h-40z"/><path fill="none" stroke="#fff" stroke-miterlimit="10" stroke-width="2" d="M262.92 770h40v20h-40z"/></g><path fill="#4caf50" d="M400 1q4.597 0 9.193.123t9.186.368 9.173.614 9.154.859 9.127 1.103 9.094 1.347 9.055 1.589 9.01 1.83 8.957 2.07 8.9 2.31 8.833 2.546 8.763 2.782 8.685 3.014 8.602 3.246 8.512 3.474 8.416 3.7 8.314 3.925 8.206 4.145 8.093 4.363 7.973 4.577 7.848 4.789 7.717 4.997 7.58 5.201 7.44 5.402 7.292 5.599 7.14 5.792q3.53 2.943 6.982 5.98t6.82 6.165q3.37 3.128 6.654 6.345t6.48 6.52 6.305 6.692q3.108 3.388 6.124 6.858L400 345z"/><path fill="none" stroke="#fff" stroke-linejoin="bevel" stroke-width="2" d="M400 1q4.597 0 9.193.123t9.186.368 9.173.614 9.154.859 9.127 1.103 9.094 1.347 9.055 1.589 9.01 1.83 8.957 2.07 8.9 2.31 8.833 2.546 8.763 2.782 8.685 3.014 8.602 3.246 8.512 3.474 8.416 3.7 8.314 3.925 8.206 4.145 8.093 4.363 7.973 4.577 7.848 4.789 7.717 4.997 7.58 5.201 7.44 5.402 7.292 5.599 7.14 5.792q3.53 2.943 6.982 5.98t6.82 6.165q3.37 3.128 6.654 6.345t6.48 6.52 6.305 6.692q3.108 3.388 6.124 6.858L400 345z"/><path fill="#ff9800" d="M659.628 119.325q14.08 16.198 26.037 34.02t21.606 36.993L400 345z"/><path fill="none" stroke="#fff" stroke-linejoin="bevel" stroke-width="2" d="M659.628 119.325q14.08 16.198 26.037 34.02t21.606 36.993L400 345l259.628-225.675Z"/><path fill="#f44336" d="M707.271 190.338q3.797 7.543 7.22 15.264 3.421 7.72 6.46 15.599t5.688 15.897q2.65 8.019 4.901 16.158t4.103 16.378q1.85 8.24 3.293 16.56t2.478 16.702 1.654 16.803.828 16.864 0 16.884-.828 16.864-1.656 16.803q-1.034 8.382-2.477 16.702-1.444 8.32-3.295 16.56t-4.103 16.378-4.901 16.157q-2.65 8.019-5.688 15.898-3.04 7.878-6.462 15.599-3.422 7.72-7.22 15.263-3.796 7.543-7.959 14.89-4.162 7.348-8.68 14.483-4.518 7.134-9.38 14.038-4.864 6.904-10.06 13.562-5.195 6.657-10.71 13.051-5.517 6.395-11.34 12.51-5.823 6.117-11.939 11.94t-12.51 11.338-13.052 10.711q-6.658 5.196-13.562 10.058-6.905 4.863-14.04 9.38t-14.482 8.68q-7.347 4.163-14.89 7.96-4.89 2.461-9.857 4.766t-10.004 4.45q-5.038 2.146-10.14 4.13-5.104 1.984-10.267 3.805-5.164 1.82-10.383 3.476t-10.488 3.144-10.582 2.809-10.667 2.47-10.74 2.13-10.802 1.787-10.854 1.442q-5.438.634-10.894 1.096-5.455.461-10.923.749-5.468.287-10.942.4t-10.949.053q-5.474-.061-10.945-.296-5.47-.236-10.93-.645t-10.904-.991-10.867-1.339q-5.422-.755-10.818-1.683t-10.76-2.027q-5.364-1.1-10.69-2.368-5.326-1.27-10.609-2.708t-10.518-3.043-10.415-3.377-10.302-3.707q-5.122-1.935-10.18-4.032t-10.046-4.355-9.902-4.671-9.748-4.985-9.585-5.292-9.412-5.595q-7.19-4.43-14.153-9.208-6.963-4.777-13.684-9.89t-13.182-10.551-12.649-11.185q-6.187-5.747-12.084-11.791-5.898-6.045-11.492-12.37-5.594-6.327-10.87-12.92-5.277-6.594-10.224-13.438t-9.552-13.922-8.857-14.375-8.141-14.792-7.406-15.174-6.652-15.518-5.883-15.827-5.099-16.096q-2.352-8.11-4.303-16.326t-3.497-16.519-2.682-16.67-1.86-16.781-1.036-16.853-.207-16.883.622-16.873 1.448-16.822 2.273-16.73 3.09-16.6 3.902-16.427 4.702-16.216 5.493-15.966 6.27-15.678 7.031-15.35 7.776-14.987q4.072-7.399 8.502-14.588 2.872-4.661 5.892-9.229 3.019-4.567 6.182-9.037 3.163-4.469 6.466-8.835t6.745-8.625 7.015-8.406 7.28-8.179 7.536-7.942 7.785-7.7 8.026-7.447 8.26-7.188 8.483-6.921 8.7-6.648 8.907-6.368 9.105-6.081 9.293-5.789 9.474-5.49 9.643-5.185 9.804-4.875 9.953-4.562 10.094-4.242 10.224-3.919 10.343-3.592 10.452-3.26 10.55-2.926q5.3-1.38 10.64-2.59t10.715-2.249q5.375-1.039 10.781-1.907 5.406-.867 10.837-1.563 5.431-.695 10.881-1.217t10.915-.87 10.936-.523T400 1v344z"/><path fill="none" stroke="#fff" stroke-linejoin="bevel" stroke-width="2" d="M707.271 190.338q3.797 7.543 7.22 15.264 3.421 7.72 6.46 15.599t5.688 15.897q2.65 8.019 4.901 16.158t4.103 16.378q1.85 8.24 3.293 16.56t2.478 16.702 1.654 16.803.828 16.864 0 16.884-.828 16.864-1.656 16.803q-1.034 8.382-2.477 16.702-1.444 8.32-3.295 16.56t-4.103 16.378-4.901 16.157q-2.65 8.019-5.688 15.898-3.04 7.878-6.462 15.599-3.422 7.72-7.22 15.263-3.796 7.543-7.959 14.89-4.162 7.348-8.68 14.483-4.518 7.134-9.38 14.038-4.864 6.904-10.06 13.562-5.195 6.657-10.71 13.051-5.517 6.395-11.34 12.51-5.823 6.117-11.939 11.94t-12.51 11.338-13.052 10.711q-6.658 5.196-13.562 10.058-6.905 4.863-14.04 9.38t-14.482 8.68q-7.347 4.163-14.89 7.96-4.89 2.461-9.857 4.766t-10.004 4.45q-5.038 2.146-10.14 4.13-5.104 1.984-10.267 3.805-5.164 1.82-10.383 3.476t-10.488 3.144-10.582 2.809-10.667 2.47-10.74 2.13-10.802 1.787-10.854 1.442q-5.438.634-10.894 1.096-5.455.461-10.923.749-5.468.287-10.942.4t-10.949.053q-5.474-.061-10.945-.296-5.47-.236-10.93-.645t-10.904-.991-10.867-1.339q-5.422-.755-10.818-1.683t-10.76-2.027q-5.364-1.1-10.69-2.368-5.326-1.27-10.609-2.708t-10.518-3.043-10.415-3.377-10.302-3.707q-5.122-1.935-10.18-4.032t-10.046-4.355-9.902-4.671-9.748-4.985-9.585-5.292-9.412-5.595q-7.19-4.43-14.153-9.208-6.963-4.777-13.684-9.89t-13.182-10.551-12.649-11.185q-6.187-5.747-12.084-11.791-5.898-6.045-11.492-12.37-5.594-6.327-10.87-12.92-5.277-6.594-10.224-13.438t-9.552-13.922-8.857-14.375-8.141-14.792-7.406-15.174-6.652-15.518-5.883-15.827-5.099-16.096q-2.352-8.11-4.303-16.326t-3.497-16.519-2.682-16.67-1.86-16.781-1.036-16.853-.207-16.883.622-16.873 1.448-16.822 2.273-16.73 3.09-16.6 3.902-16.427 4.702-16.216 5.493-15.966 6.27-15.678 7.031-15.35 7.776-14.987q4.072-7.399 8.502-14.588 2.872-4.661 5.892-9.229 3.019-4.567 6.182-9.037 3.163-4.469 6.466-8.835t6.745-8.625 7.015-8.406 7.28-8.179 7.536-7.942 7.785-7.7 8.026-7.447 8.26-7.188 8.483-6.921 8.7-6.648 8.907-6.368 9.105-6.081 9.293-5.789 9.474-5.49 9.643-5.185 9.804-4.875 9.953-4.562 10.094-4.242 10.224-3.919 10.343-3.592 10.452-3.26 10.55-2.926q5.3-1.38 10.64-2.59t10.715-2.249q5.375-1.039 10.781-1.907 5.406-.867 10.837-1.563 5.431-.695 10.881-1.217t10.915-.87 10.936-.523T400 1v344l307.271-154.662Z"/></svg>