<svg xmlns="http://www.w3.org/2000/svg" width="800" height="800"><path fill="none" d="M0 0h800v800H0z"/><clipPath id="a"><path d="M0 690h800v110H0z"/></clipPath><g clip-path="url(#a)"><path fill="#4caf50" d="M123.3 720h40v20h-40z"/><path fill="none" stroke="#fff" stroke-miterlimit="10" stroke-width="2" d="M123.3 720h40v20h-40z"/><path fill="#ff9800" d="M377.64 720h40v20h-40z"/><path fill="none" stroke="#fff" stroke-miterlimit="10" stroke-width="2" d="M377.64 720h40v20h-40z"/><path fill="#f44336" d="M262.92 770h40v20h-40z"/><path fill="none" stroke="#fff" stroke-miterlimit="10" stroke-width="2" d="M262.92 770h40v20h-40z"/></g><path fill="#4caf50" d="M400 1q4.49 0 8.98.117 4.489.117 8.973.352t8.962.586q4.477.35 8.943.819t8.919 1.053 8.888 1.285q4.435.7 8.851 1.516t8.81 1.748 8.76 1.976 8.705 2.205q4.339 1.159 8.645 2.43 4.307 1.273 8.58 2.657 4.271 1.384 8.506 2.879 4.234 1.495 8.428 3.1t8.345 3.319 8.255 3.535 8.16 3.75q4.056 1.928 8.06 3.962 4.004 2.033 7.953 4.17t7.842 4.378 7.725 4.58 7.603 4.78 7.475 4.977 7.343 5.17q3.637 2.634 7.205 5.361t7.063 5.547 6.915 5.729q3.42 2.91 6.764 5.908t6.607 6.082 6.447 6.253q3.182 3.168 6.28 6.418 3.1 3.25 6.112 6.581L400 345z"/><path fill="none" stroke="#fff" stroke-linejoin="bevel" stroke-width="2" d="M400 1q4.49 0 8.98.117 4.489.117 8.973.352t8.962.586q4.477.35 8.943.819t8.919 1.053 8.888 1.285q4.435.7 8.851 1.516t8.81 1.748 8.76 1.976 8.705 2.205q4.339 1.159 8.645 2.43 4.307 1.273 8.58 2.657 4.271 1.384 8.506 2.879 4.234 1.495 8.428 3.1t8.345 3.319 8.255 3.535 8.16 3.75q4.056 1.928 8.06 3.962 4.004 2.033 7.953 4.17t7.842 4.378 7.725 4.58 7.603 4.78 7.475 4.977 7.343 5.17q3.637 2.634 7.205 5.361t7.063 5.547 6.915 5.729q3.42 2.91 6.764 5.908t6.607 6.082 6.447 6.253q3.182 3.168 6.28 6.418 3.1 3.25 6.112 6.581L400 345z"/><path fill="#ff9800" d="M655.104 114.223q14.422 15.943 26.748 33.557 12.325 17.615 22.362 36.627L400 345z"/><path fill="none" stroke="#fff" stroke-linejoin="bevel" stroke-width="2" d="M655.104 114.223q14.422 15.943 26.748 33.557 12.325 17.615 22.362 36.627L400 345l255.104-230.777Z"/><path fill="#f44336" d="M704.214 184.407q3.942 7.468 7.513 15.12 3.571 7.653 6.763 15.471 3.19 7.819 5.995 15.785 2.804 7.965 5.213 16.059 2.41 8.093 4.42 16.296t3.614 16.493 2.8 16.65q1.197 8.36 1.98 16.768.785 8.408 1.156 16.845t.327 16.88-.501 16.878-1.329 16.832-2.153 16.746-2.973 16.62q-1.69 8.275-3.784 16.456t-4.587 16.25q-2.493 8.067-5.38 16.004-2.885 7.936-6.157 15.721t-6.922 15.4q-3.65 7.616-7.669 15.043t-8.398 14.647-9.106 14.218q-4.728 6.998-9.794 13.754-5.065 6.757-10.456 13.257t-11.094 12.728q-5.704 6.228-11.706 12.169-6.002 5.94-12.288 11.579-6.286 5.638-12.842 10.962-6.555 5.324-13.364 10.32-6.808 4.995-13.854 9.65t-14.311 8.96q-7.266 4.303-14.734 8.246-4.888 2.58-9.856 5.002-4.969 2.422-10.013 4.683t-10.157 4.36-10.292 4.03-10.417 3.697-10.53 3.362-10.632 3.02-10.724 2.679-10.804 2.332-10.874 1.984-10.932 1.633-10.979 1.281-11.014.928-11.038.574-11.051.219-11.053-.137-11.042-.491-11.021-.846-10.988-1.2-10.944-1.552-10.888-1.903-10.822-2.252q-5.392-1.212-10.743-2.598t-10.655-2.942-10.554-3.282-10.444-3.62-10.322-3.954-10.19-4.284-10.046-4.608-9.893-4.93q-4.908-2.543-9.73-5.243-4.823-2.7-9.557-5.555-7.232-4.36-14.241-9.07-7.01-4.71-13.78-9.757-6.77-5.048-13.284-10.422t-12.756-11.062-12.198-11.674-11.611-12.258-10.996-12.813-10.353-13.338-9.687-13.83-8.996-14.287-8.284-14.713-7.553-15.1-6.802-15.454-6.036-15.769-5.255-16.046-4.461-16.284-3.657-16.483-2.844-16.644-2.023-16.762-1.199-16.842-.37-16.88q.02-8.445.457-16.879.436-8.433 1.286-16.835.849-8.402 2.11-16.752t2.93-16.628 3.741-16.465 4.545-16.26 5.338-16.02 6.117-15.736 6.882-15.419 7.63-15.061 8.36-14.67q2.854-4.733 5.859-9.373t6.156-9.18 6.448-8.978 6.734-8.765q3.437-4.33 7.011-8.545 3.574-4.216 7.282-8.315 3.708-4.1 7.546-8.077t7.801-7.83 8.05-7.576q4.084-3.724 8.287-7.314t8.519-7.043q4.316-3.453 8.74-6.766 4.425-3.312 8.954-6.481t9.157-6.19q4.628-3.022 9.351-5.894 4.723-2.871 9.536-5.59t9.71-5.28 9.876-4.965 10.03-4.646q5.051-2.243 10.173-4.322t10.307-3.992 10.43-3.659q5.244-1.745 10.542-3.322t10.644-2.981q5.345-1.406 10.734-2.638 5.388-1.233 10.813-2.292 5.425-1.06 10.88-1.944 5.457-.884 10.939-1.592 5.481-.709 10.983-1.24 5.502-.533 11.018-.888t11.04-.532T400 1v344z"/><path fill="none" stroke="#fff" stroke-linejoin="bevel" stroke-width="2" d="M704.214 184.407q3.942 7.468 7.513 15.12 3.571 7.653 6.763 15.471 3.19 7.819 5.995 15.785 2.804 7.965 5.213 16.059 2.41 8.093 4.42 16.296t3.614 16.493 2.8 16.65q1.197 8.36 1.98 16.768.785 8.408 1.156 16.845t.327 16.88-.501 16.878-1.329 16.832-2.153 16.746-2.973 16.62q-1.69 8.275-3.784 16.456t-4.587 16.25q-2.493 8.067-5.38 16.004-2.885 7.936-6.157 15.721t-6.922 15.4q-3.65 7.616-7.669 15.043t-8.398 14.647-9.106 14.218q-4.728 6.998-9.794 13.754-5.065 6.757-10.456 13.257t-11.094 12.728q-5.704 6.228-11.706 12.169-6.002 5.94-12.288 11.579-6.286 5.638-12.842 10.962-6.555 5.324-13.364 10.32-6.808 4.995-13.854 9.65t-14.311 8.96q-7.266 4.303-14.734 8.246-4.888 2.58-9.856 5.002-4.969 2.422-10.013 4.683t-10.157 4.36-10.292 4.03-10.417 3.697-10.53 3.362-10.632 3.02-10.724 2.679-10.804 2.332-10.874 1.984-10.932 1.633-10.979 1.281-11.014.928-11.038.574-11.051.219-11.053-.137-11.042-.491-11.021-.846-10.988-1.2-10.944-1.552-10.888-1.903-10.822-2.252q-5.392-1.212-10.743-2.598t-10.655-2.942-10.554-3.282-10.444-3.62-10.322-3.954-10.19-4.284-10.046-4.608-9.893-4.93q-4.908-2.543-9.73-5.243-4.823-2.7-9.557-5.555-7.232-4.36-14.241-9.07-7.01-4.71-13.78-9.757-6.77-5.048-13.284-10.422t-12.756-11.062-12.198-11.674-11.611-12.258-10.996-12.813-10.353-13.338-9.687-13.83-8.996-14.287-8.284-14.713-7.553-15.1-6.802-15.454-6.036-15.769-5.255-16.046-4.461-16.284-3.657-16.483-2.844-16.644-2.023-16.762-1.199-16.842-.37-16.88q.02-8.445.457-16.879.436-8.433 1.286-16.835.849-8.402 2.11-16.752t2.93-16.628 3.741-16.465 4.545-16.26 5.338-16.02 6.117-15.736 6.882-15.419 7.63-15.061 8.36-14.67q2.854-4.733 5.859-9.373t6.156-9.18 6.448-8.978 6.734-8.765q3.437-4.33 7.011-8.545 3.574-4.216 7.282-8.315 3.708-4.1 7.546-8.077t7.801-7.83 8.05-7.576q4.084-3.724 8.287-7.314t8.519-7.043q4.316-3.453 8.74-6.766 4.425-3.312 8.954-6.481t9.157-6.19q4.628-3.022 9.351-5.894 4.723-2.871 9.536-5.59t9.71-5.28 9.876-4.965 10.03-4.646q5.051-2.243 10.173-4.322t10.307-3.992 10.43-3.659q5.244-1.745 10.542-3.322t10.644-2.981q5.345-1.406 10.734-2.638 5.388-1.233 10.813-2.292 5.425-1.06 10.88-1.944 5.457-.884 10.939-1.592 5.481-.709 10.983-1.24 5.502-.533 11.018-.888t11.04-.532T400 1v344l304.214-160.593Z"/></svg>