<svg xmlns="http://www.w3.org/2000/svg" width="800" height="800"><path fill="none" d="M0 0h800v800H0z"/><clipPath id="a"><path d="M0 690h800v110H0z"/></clipPath><g clip-path="url(#a)"><path fill="#4caf50" d="M123.3 720h40v20h-40z"/><path fill="none" stroke="#fff" stroke-miterlimit="10" stroke-width="2" d="M123.3 720h40v20h-40z"/><path fill="#ff9800" d="M377.64 720h40v20h-40z"/><path fill="none" stroke="#fff" stroke-miterlimit="10" stroke-width="2" d="M377.64 720h40v20h-40z"/><path fill="#f44336" d="M262.92 770h40v20h-40z"/><path fill="none" stroke="#fff" stroke-miterlimit="10" stroke-width="2" d="M262.92 770h40v20h-40z"/></g><path fill="#4caf50" d="M400 1q4.26 0 8.518.105 4.258.106 8.512.317 4.254.21 8.502.527 4.247.316 8.486.737 4.238.421 8.465.947t8.44 1.157 8.408 1.365q4.195.735 8.371 1.573t8.33 1.78q4.155.941 8.284 1.985t8.232 2.19q4.102 1.146 8.175 2.393t8.113 2.595 8.047 2.795 7.975 2.993 7.898 3.19 7.817 3.384 7.731 3.577 7.64 3.767 7.544 3.956 7.444 4.14q3.697 2.117 7.34 4.324 3.642 2.208 7.23 4.504 3.586 2.297 7.116 4.682t6.998 4.857 6.875 5.028 6.75 5.198 6.618 5.362q3.275 2.722 6.483 5.525t6.345 5.684 6.202 5.839q3.064 2.958 6.055 5.99L400 345z"/><path fill="none" stroke="#fff" stroke-linejoin="bevel" stroke-width="2" d="M400 1q4.26 0 8.518.105 4.258.106 8.512.317 4.254.21 8.502.527 4.247.316 8.486.737 4.238.421 8.465.947t8.44 1.157 8.408 1.365q4.195.735 8.371 1.573t8.33 1.78q4.155.941 8.284 1.985t8.232 2.19q4.102 1.146 8.175 2.393t8.113 2.595 8.047 2.795 7.975 2.993 7.898 3.19 7.817 3.384 7.731 3.577 7.64 3.767 7.544 3.956 7.444 4.14q3.697 2.117 7.34 4.324 3.642 2.208 7.23 4.504 3.586 2.297 7.116 4.682t6.998 4.857 6.875 5.028 6.75 5.198 6.618 5.362q3.275 2.722 6.483 5.525t6.345 5.684 6.202 5.839q3.064 2.958 6.055 5.99L400 345z"/><path fill="#ff9800" d="M644.944 103.467q15.836 16.06 29.44 34.05t24.742 37.602L400 345z"/><path fill="none" stroke="#fff" stroke-linejoin="bevel" stroke-width="2" d="M644.944 103.467q15.836 16.06 29.44 34.05t24.742 37.602L400 345l244.944-241.533Z"/><path fill="#f44336" d="M699.126 175.12q4.17 7.342 7.976 14.881t7.235 15.256 6.478 15.592q3.048 7.875 5.706 15.891 2.657 8.016 4.918 16.152t4.12 16.374q1.86 8.237 3.313 16.556 1.452 8.32 2.495 16.7t1.673 16.8.847 16.864q.216 8.442.018 16.884t-.81 16.865-1.637 16.805-2.46 16.704q-1.434 8.322-3.275 16.563-1.841 8.242-4.085 16.383t-4.884 16.163-5.67 15.903q-3.031 7.883-6.445 15.606-3.414 7.724-7.203 15.272-3.788 7.547-7.943 14.899t-8.664 14.491-9.366 14.05-10.043 13.572-10.697 13.063-11.325 12.523q-5.817 6.122-11.927 11.952t-12.498 11.352q-6.388 5.523-13.04 10.726t-13.55 10.073q-6.9 4.87-14.03 9.395-7.13 4.526-14.472 8.696-4.879 2.77-9.845 5.38t-10.014 5.057q-5.048 2.447-10.174 4.728t-10.323 4.393-10.46 4.054-10.588 3.71-10.702 3.364-10.807 3.013-10.899 2.66-10.98 2.301-11.05 1.943-11.106 1.581-11.152 1.219-11.186.854-11.209.489-11.218.123-11.216-.243-11.202-.608-11.176-.973-11.14-1.337-11.088-1.7-11.028-2.06-10.955-2.419-10.87-2.775-10.774-3.128-10.666-3.477-10.547-3.823-10.417-4.166q-5.175-2.167-10.276-4.502-5.1-2.336-10.123-4.836t-9.96-5.163q-4.938-2.662-9.786-5.485-7.299-4.248-14.38-8.85-7.08-4.6-13.928-9.544-6.846-4.943-13.442-10.216t-12.926-10.864-12.376-11.485-11.798-12.078-11.192-12.643q-5.44-6.458-10.557-13.176t-9.898-13.679q-4.782-6.96-9.216-14.148t-8.51-14.583q-4.075-7.396-7.783-14.983t-7.04-15.347-6.278-15.674q-2.946-7.913-5.501-15.963t-4.711-16.213q-2.157-8.165-3.91-16.426t-3.1-16.597-2.281-16.73-1.458-16.82q-.523-8.43-.63-16.873-.109-8.445.197-16.884.307-8.439 1.027-16.853t1.851-16.782 2.674-16.672 3.488-16.52q1.946-8.217 4.294-16.329t5.09-16.099 5.875-15.83q3.131-7.842 6.644-15.521 3.512-7.68 7.397-15.178t8.134-14.796q2.822-4.849 5.8-9.603 2.98-4.754 6.112-9.408t6.415-9.204q3.282-4.55 6.711-8.99t7.001-8.766 7.283-8.533 7.558-8.291 7.824-8.04q3.977-3.957 8.082-7.781 4.104-3.825 8.33-7.514 4.228-3.688 8.573-7.237t8.803-6.954q4.458-3.406 9.025-6.664t9.238-6.366q4.671-3.107 9.44-6.06 4.77-2.954 9.634-5.75 4.863-2.797 9.816-5.433 4.952-2.637 9.987-5.11t10.149-4.782q5.113-2.307 10.3-4.447 5.185-2.14 10.438-4.11t10.567-3.767q5.315-1.798 10.685-3.421t10.79-3.07 10.885-2.717 10.968-2.36 11.038-2.002 11.098-1.64 11.146-1.279 11.182-.913 11.205-.55T400 1v344z"/><path fill="none" stroke="#fff" stroke-linejoin="bevel" stroke-width="2" d="M699.126 175.12q4.17 7.342 7.976 14.881t7.235 15.256 6.478 15.592q3.048 7.875 5.706 15.891 2.657 8.016 4.918 16.152t4.12 16.374q1.86 8.237 3.313 16.556 1.452 8.32 2.495 16.7t1.673 16.8.847 16.864q.216 8.442.018 16.884t-.81 16.865-1.637 16.805-2.46 16.704q-1.434 8.322-3.275 16.563-1.841 8.242-4.085 16.383t-4.884 16.163-5.67 15.903q-3.031 7.883-6.445 15.606-3.414 7.724-7.203 15.272-3.788 7.547-7.943 14.899t-8.664 14.491-9.366 14.05-10.043 13.572-10.697 13.063-11.325 12.523q-5.817 6.122-11.927 11.952t-12.498 11.352q-6.388 5.523-13.04 10.726t-13.55 10.073q-6.9 4.87-14.03 9.395-7.13 4.526-14.472 8.696-4.879 2.77-9.845 5.38t-10.014 5.057q-5.048 2.447-10.174 4.728t-10.323 4.393-10.46 4.054-10.588 3.71-10.702 3.364-10.807 3.013-10.899 2.66-10.98 2.301-11.05 1.943-11.106 1.581-11.152 1.219-11.186.854-11.209.489-11.218.123-11.216-.243-11.202-.608-11.176-.973-11.14-1.337-11.088-1.7-11.028-2.06-10.955-2.419-10.87-2.775-10.774-3.128-10.666-3.477-10.547-3.823-10.417-4.166q-5.175-2.167-10.276-4.502-5.1-2.336-10.123-4.836t-9.96-5.163q-4.938-2.662-9.786-5.485-7.299-4.248-14.38-8.85-7.08-4.6-13.928-9.544-6.846-4.943-13.442-10.216t-12.926-10.864-12.376-11.485-11.798-12.078-11.192-12.643q-5.44-6.458-10.557-13.176t-9.898-13.679q-4.782-6.96-9.216-14.148t-8.51-14.583q-4.075-7.396-7.783-14.983t-7.04-15.347-6.278-15.674q-2.946-7.913-5.501-15.963t-4.711-16.213q-2.157-8.165-3.91-16.426t-3.1-16.597-2.281-16.73-1.458-16.82q-.523-8.43-.63-16.873-.109-8.445.197-16.884.307-8.439 1.027-16.853t1.851-16.782 2.674-16.672 3.488-16.52q1.946-8.217 4.294-16.329t5.09-16.099 5.875-15.83q3.131-7.842 6.644-15.521 3.512-7.68 7.397-15.178t8.134-14.796q2.822-4.849 5.8-9.603 2.98-4.754 6.112-9.408t6.415-9.204q3.282-4.55 6.711-8.99t7.001-8.766 7.283-8.533 7.558-8.291 7.824-8.04q3.977-3.957 8.082-7.781 4.104-3.825 8.33-7.514 4.228-3.688 8.573-7.237t8.803-6.954q4.458-3.406 9.025-6.664t9.238-6.366q4.671-3.107 9.44-6.06 4.77-2.954 9.634-5.75 4.863-2.797 9.816-5.433 4.952-2.637 9.987-5.11t10.149-4.782q5.113-2.307 10.3-4.447 5.185-2.14 10.438-4.11t10.567-3.767q5.315-1.798 10.685-3.421t10.79-3.07 10.885-2.717 10.968-2.36 11.038-2.002 11.098-1.64 11.146-1.279 11.182-.913 11.205-.55T400 1v344l299.126-169.88Z"/></svg>