<svg xmlns="http://www.w3.org/2000/svg" width="800" height="800"><path fill="none" d="M0 0h800v800H0z"/><clipPath id="a"><path d="M0 740h800v60H0z"/></clipPath><g clip-path="url(#a)"><path fill="#4caf50" d="M144.605 770h40v20h-40z"/><path fill="none" stroke="#fff" stroke-miterlimit="10" stroke-width="2" d="M144.605 770h40v20h-40z"/><text x="194.605, 207.94484, 217.50539, 230.38625, 240.64992, 248.68703, 260.52295," y="787.5," fill="#666" font-family="DejaVu Serif" font-size="20">Trusted</text><path fill="#ff9800" d="M303.325 770h40v20h-40z"/><path fill="none" stroke="#fff" stroke-miterlimit="10" stroke-width="2" d="M303.325 770h40v20h-40z"/><text x="353.32501, 366.78204, 376.34259, 388.38361, 399.68243, 411.51837, 424.39923, 436.32306, 449.20392, 460.40509," y="787.5," fill="#666" font-family="DejaVu Serif" font-size="20">Provenance</text><path fill="#f44336" d="M502.245 770h40v20h-40z"/><path fill="none" stroke="#fff" stroke-miterlimit="10" stroke-width="2" d="M502.245 770h40v20h-40z"/><text x="552.245, 569.10046, 581.98132, 590.01843, 599.57898, 612.45984, 622.72351, 630.76062, 642.59656," y="787.5," fill="#666" font-family="DejaVu Serif" font-size="20">Untrusted</text></g><path fill="#4caf50" d="M400 1q8.512 0 17.014.392 8.503.393 16.978 1.177t16.906 1.958 16.798 2.736 16.653 3.507 16.474 4.271 16.26 5.027q8.072 2.7 16.01 5.77t15.728 6.503 15.41 7.221 15.062 7.924q7.44 4.136 14.68 8.61 7.241 4.475 14.268 9.278 7.026 4.804 13.824 9.926t13.352 10.553q6.555 5.43 12.852 11.157L400 370z"/><path fill="none" stroke="#fff" stroke-linejoin="bevel" stroke-width="2" d="M400 1q8.512 0 17.014.392 8.503.393 16.978 1.177t16.906 1.958 16.798 2.736 16.653 3.507 16.474 4.271 16.26 5.027q8.072 2.7 16.01 5.77t15.728 6.503 15.41 7.221 15.062 7.924q7.44 4.136 14.68 8.61 7.241 4.475 14.268 9.278 7.026 4.804 13.824 9.926t13.352 10.553q6.555 5.43 12.852 11.157L400 370z"/><path fill="#ff9800" d="M648.269 97.01q9.4 8.55 18.191 17.725t16.929 18.935 15.586 20.055 14.17 21.079L400 370z"/><path fill="none" stroke="#fff" stroke-linejoin="bevel" stroke-width="2" d="M648.269 97.01q9.4 8.55 18.191 17.725t16.929 18.935 15.586 20.055 14.17 21.079L400 370 648.269 97.01Z"/><path fill="#f44336" d="M713.144 174.804q4.792 7.687 9.201 15.6t8.424 16.033 7.627 16.427 6.812 16.782 5.98 17.095 5.135 17.369 4.276 17.6q1.922 8.851 3.407 17.787t2.53 17.934q1.045 8.998 1.648 18.036.602 9.039.76 18.096t-.129 18.11-1.017 18.084-1.903 18.01-2.784 17.897-3.66 17.738-4.525 17.537-5.38 17.294q-2.903 8.58-6.223 17.009t-7.05 16.683-7.86 16.317-8.65 15.912q-4.52 7.85-9.421 15.468t-10.169 14.987-10.892 14.47-11.589 13.919-12.258 13.333q-6.292 6.516-12.897 12.715-6.605 6.2-13.506 12.068t-14.081 11.39-14.624 10.685q-7.442 5.164-15.13 9.955-5.207 3.246-10.519 6.317-5.312 3.07-10.723 5.963t-10.915 5.604-11.096 5.237-11.264 4.866q-5.673 2.34-11.42 4.489t-11.562 4.106-11.692 3.72-11.81 3.329q-5.932 1.566-11.914 2.934-5.98 1.368-12.004 2.537t-12.083 2.136q-6.059.968-12.147 1.734-6.087.765-12.197 1.328t-12.235.922q-6.126.36-12.26.515t-12.269.107-12.266-.3-12.25-.709q-6.118-.456-12.219-1.115-6.1-.66-12.175-1.521-6.075-.862-12.118-1.925t-12.047-2.327-11.963-2.726-11.866-3.122-11.756-3.515-11.632-3.904-11.496-4.289-11.347-4.668-11.185-5.043-11.012-5.412-10.826-5.776q-7.92-4.396-15.615-9.175t-15.147-9.93q-7.45-5.151-14.64-10.662-7.19-5.51-14.1-11.367T147.9 639.456t-12.918-12.694-12.28-13.313q-5.975-6.808-11.61-13.9-5.636-7.092-10.916-14.452t-10.193-14.971-9.446-15.453q-4.534-7.842-8.677-15.898-4.143-8.055-7.886-16.304-3.743-8.25-7.077-16.672t-6.25-16.999q-2.916-8.576-5.408-17.285t-4.554-17.53-3.688-17.731-2.814-17.892-1.932-18.008-1.047-18.081-.158-18.11.731-18.097 1.618-18.04 2.501-17.937q1.47-8.939 3.378-17.794t4.248-17.606 5.106-17.377q2.766-8.626 5.952-17.105t6.785-16.793 7.6-16.44 8.399-16.046q2.977-5.365 6.132-10.628t6.482-10.418 6.824-10.196 7.16-9.965 7.488-9.72q3.824-4.798 7.806-9.466 3.982-4.669 8.117-9.202 4.134-4.533 8.418-8.927t8.71-8.641 8.993-8.348 9.265-8.044q4.7-3.944 9.528-7.73t9.78-7.411q4.95-3.624 10.02-7.081t10.25-6.744q5.181-3.287 10.469-6.4 5.287-3.112 10.676-6.047 5.388-2.936 10.87-5.69 5.483-2.754 11.055-5.325 5.57-2.57 11.225-4.955 5.653-2.384 11.383-4.578t11.53-4.198q5.8-2.003 11.662-3.812t11.783-3.422 11.89-3.028q5.971-1.416 11.985-2.632T338.93 6.09t12.133-1.83q6.082-.813 12.187-1.424t12.227-1.02 12.255-.611T400 1v369z"/><path fill="none" stroke="#fff" stroke-linejoin="bevel" stroke-width="2" d="M713.144 174.804q4.792 7.687 9.201 15.6t8.424 16.033 7.627 16.427 6.812 16.782 5.98 17.095 5.135 17.369 4.276 17.6q1.922 8.851 3.407 17.787t2.53 17.934q1.045 8.998 1.648 18.036.602 9.039.76 18.096t-.129 18.11-1.017 18.084-1.903 18.01-2.784 17.897-3.66 17.738-4.525 17.537-5.38 17.294q-2.903 8.58-6.223 17.009t-7.05 16.683-7.86 16.317-8.65 15.912q-4.52 7.85-9.421 15.468t-10.169 14.987-10.892 14.47-11.589 13.919-12.258 13.333q-6.292 6.516-12.897 12.715-6.605 6.2-13.506 12.068t-14.081 11.39-14.624 10.685q-7.442 5.164-15.13 9.955-5.207 3.246-10.519 6.317-5.312 3.07-10.723 5.963t-10.915 5.604-11.096 5.237-11.264 4.866q-5.673 2.34-11.42 4.489t-11.562 4.106-11.692 3.72-11.81 3.329q-5.932 1.566-11.914 2.934-5.98 1.368-12.004 2.537t-12.083 2.136q-6.059.968-12.147 1.734-6.087.765-12.197 1.328t-12.235.922q-6.126.36-12.26.515t-12.269.107-12.266-.3-12.25-.709q-6.118-.456-12.219-1.115-6.1-.66-12.175-1.521-6.075-.862-12.118-1.925t-12.047-2.327-11.963-2.726-11.866-3.122-11.756-3.515-11.632-3.904-11.496-4.289-11.347-4.668-11.185-5.043-11.012-5.412-10.826-5.776q-7.92-4.396-15.615-9.175t-15.147-9.93q-7.45-5.151-14.64-10.662-7.19-5.51-14.1-11.367T147.9 639.456t-12.918-12.694-12.28-13.313q-5.975-6.808-11.61-13.9-5.636-7.092-10.916-14.452t-10.193-14.971-9.446-15.453q-4.534-7.842-8.677-15.898-4.143-8.055-7.886-16.304-3.743-8.25-7.077-16.672t-6.25-16.999q-2.916-8.576-5.408-17.285t-4.554-17.53-3.688-17.731-2.814-17.892-1.932-18.008-1.047-18.081-.158-18.11.731-18.097 1.618-18.04 2.501-17.937q1.47-8.939 3.378-17.794t4.248-17.606 5.106-17.377q2.766-8.626 5.952-17.105t6.785-16.793 7.6-16.44 8.399-16.046q2.977-5.365 6.132-10.628t6.482-10.418 6.824-10.196 7.16-9.965 7.488-9.72q3.824-4.798 7.806-9.466 3.982-4.669 8.117-9.202 4.134-4.533 8.418-8.927t8.71-8.641 8.993-8.348 9.265-8.044q4.7-3.944 9.528-7.73t9.78-7.411q4.95-3.624 10.02-7.081t10.25-6.744q5.181-3.287 10.469-6.4 5.287-3.112 10.676-6.047 5.388-2.936 10.87-5.69 5.483-2.754 11.055-5.325 5.57-2.57 11.225-4.955 5.653-2.384 11.383-4.578t11.53-4.198q5.8-2.003 11.662-3.812t11.783-3.422 11.89-3.028q5.971-1.416 11.985-2.632T338.93 6.09t12.133-1.83q6.082-.813 12.187-1.424t12.227-1.02 12.255-.611T400 1v369l313.144-195.196Z"/></svg>