<svg xmlns="http://www.w3.org/2000/svg" width="800" height="800"><path fill="none" d="M0 0h800v800H0z"/><clipPath id="a"><path d="M0 740h800v60H0z"/></clipPath><g clip-path="url(#a)"><path fill="#4caf50" d="M144.605 770h40v20h-40z"/><path fill="none" stroke="#fff" stroke-miterlimit="10" stroke-width="2" d="M144.605 770h40v20h-40z"/><text x="194.605, 207.94484, 217.50539, 230.38625, 240.64992, 248.68703, 260.52295," y="787.5," fill="#666" font-family="DejaVu Serif" font-size="20">Trusted</text><path fill="#ff9800" d="M303.325 770h40v20h-40z"/><path fill="none" stroke="#fff" stroke-miterlimit="10" stroke-width="2" d="M303.325 770h40v20h-40z"/><text x="353.32501, 366.78204, 376.34259, 388.38361, 399.68243, 411.51837, 424.39923, 436.32306, 449.20392, 460.40509," y="787.5," fill="#666" font-family="DejaVu Serif" font-size="20">Provenance</text><path fill="#f44336" d="M502.245 770h40v20h-40z"/><path fill="none" stroke="#fff" stroke-miterlimit="10" stroke-width="2" d="M502.245 770h40v20h-40z"/><text x="552.245, 569.10046, 581.98132, 590.01843, 599.57898, 612.45984, 622.72351, 630.76062, 642.59656," y="787.5," fill="#666" font-family="DejaVu Serif" font-size="20">Untrusted</text></g><path fill="#4caf50" d="M400 1q6.668 0 13.331.24 6.664.242 13.314.723 6.65.482 13.28 1.203 6.628.722 13.226 1.682t13.158 2.159q6.56 1.198 13.07 2.632 6.513 1.435 12.968 3.103 6.456 1.67 12.847 3.57t12.71 4.031q6.318 2.13 12.555 4.488t12.385 4.939 12.199 5.383q6.05 2.801 11.996 5.82 5.945 3.018 11.778 6.25 5.832 3.23 11.544 6.67t11.297 7.084L400 370z"/><path fill="none" stroke="#fff" stroke-linejoin="bevel" stroke-width="2" d="M400 1q6.668 0 13.331.24 6.664.242 13.314.723 6.65.482 13.28 1.203 6.628.722 13.226 1.682t13.158 2.159q6.56 1.198 13.07 2.632 6.513 1.435 12.968 3.103 6.456 1.67 12.847 3.57t12.71 4.031q6.318 2.13 12.555 4.488t12.385 4.939 12.199 5.383q6.05 2.801 11.996 5.82 5.945 3.018 11.778 6.25 5.832 3.23 11.544 6.67t11.297 7.084L400 370z"/><path fill="#ff9800" d="M601.658 60.977q11.163 7.285 21.772 15.356t20.607 16.888q10 8.816 19.336 18.33 9.336 9.515 17.962 19.678L400 370z"/><path fill="none" stroke="#fff" stroke-linejoin="bevel" stroke-width="2" d="M601.658 60.977q11.163 7.285 21.772 15.356t20.607 16.888q10 8.816 19.336 18.33 9.336 9.515 17.962 19.678L400 370 601.658 60.977Z"/><path fill="#f44336" d="M681.335 131.229q5.862 6.906 11.377 14.092t10.672 14.633 9.941 15.14q4.785 7.691 9.186 15.609 4.402 7.917 8.41 16.04 4.007 8.124 7.611 16.435t6.797 16.788 5.964 17.1 5.119 17.374 4.26 17.603q1.913 8.854 3.39 17.791t2.514 17.937 1.63 18.037q.594 9.04.744 18.097t-.146 18.11-1.033 18.082q-.74 9.029-1.92 18.01-1.181 8.98-2.801 17.893t-3.676 17.735q-2.056 8.822-4.542 17.532t-5.396 17.29q-2.91 8.577-6.238 17.003t-7.065 16.676q-3.738 8.252-7.875 16.31t-8.666 15.904-9.435 15.46q-4.908 7.613-10.183 14.977t-10.905 14.46q-5.63 7.097-11.602 13.908t-12.27 13.322q-6.299 6.51-12.91 12.703-6.61 6.194-13.516 12.055-5 4.243-10.147 8.306t-10.436 7.941-10.712 7.565-10.973 7.18-11.222 6.784-11.456 6.382q-5.784 3.09-11.675 5.97-5.89 2.883-11.88 5.553t-12.07 5.127q-6.08 2.456-12.244 4.694t-12.404 4.257-12.546 3.813-12.675 3.365-12.786 2.912-12.881 2.456-12.96 1.997-13.024 1.535-13.07 1.072-13.099.606-13.113.14-13.11-.325q-6.55-.279-13.089-.79-6.537-.513-13.053-1.256-6.515-.744-13-1.719t-12.931-2.18-12.846-2.637-12.743-3.093q-6.345-1.659-12.626-3.543t-12.492-3.99q-6.21-2.105-12.342-4.43t-12.177-4.867-11.996-5.296q-8.22-3.805-16.244-8.01-8.024-4.203-15.832-8.796t-15.381-9.563-14.893-10.306-14.37-11.024q-7.05-5.689-13.811-11.717-6.762-6.027-13.22-12.38-6.458-6.352-12.597-13.013t-11.943-13.616-11.26-14.185-10.55-14.721-9.816-15.221-9.057-15.685-8.277-16.11-7.476-16.496-6.657-16.843-5.823-17.15-4.975-17.415-4.114-17.638-3.243-17.818-2.366-17.957-1.481-18.05-.594-18.102.294-18.11q.37-9.05 1.184-18.072.813-9.022 2.068-17.993t2.949-17.87T41.33 283.3t4.686-17.495 5.54-17.243q2.98-8.554 6.378-16.952 3.397-8.397 7.202-16.617 2.755-5.951 5.72-11.8t6.134-11.59 6.543-11.365 6.943-11.125 7.333-10.871 7.715-10.604 8.087-10.323 8.449-10.03 8.8-9.722 9.139-9.404 9.468-9.073 9.784-8.73q4.97-4.28 10.089-8.378 5.118-4.1 10.38-8.014 5.26-3.915 10.657-7.64 5.397-3.726 10.923-7.257t11.174-6.864 11.41-6.462 11.633-6.053 11.84-5.636 12.034-5.212 12.21-4.78q6.149-2.282 12.374-4.344t12.52-3.902q6.294-1.84 12.65-3.454t12.765-3.002q6.41-1.388 12.864-2.547t12.946-2.089q6.491-.929 13.012-1.627 6.52-.698 13.062-1.163t13.095-.699T400 1v369z"/><path fill="none" stroke="#fff" stroke-linejoin="bevel" stroke-width="2" d="M681.335 131.229q5.862 6.906 11.377 14.092t10.672 14.633 9.941 15.14q4.785 7.691 9.186 15.609 4.402 7.917 8.41 16.04 4.007 8.124 7.611 16.435t6.797 16.788 5.964 17.1 5.119 17.374 4.26 17.603q1.913 8.854 3.39 17.791t2.514 17.937 1.63 18.037q.594 9.04.744 18.097t-.146 18.11-1.033 18.082q-.74 9.029-1.92 18.01-1.181 8.98-2.801 17.893t-3.676 17.735q-2.056 8.822-4.542 17.532t-5.396 17.29q-2.91 8.577-6.238 17.003t-7.065 16.676q-3.738 8.252-7.875 16.31t-8.666 15.904-9.435 15.46q-4.908 7.613-10.183 14.977t-10.905 14.46q-5.63 7.097-11.602 13.908t-12.27 13.322q-6.299 6.51-12.91 12.703-6.61 6.194-13.516 12.055-5 4.243-10.147 8.306t-10.436 7.941-10.712 7.565-10.973 7.18-11.222 6.784-11.456 6.382q-5.784 3.09-11.675 5.97-5.89 2.883-11.88 5.553t-12.07 5.127q-6.08 2.456-12.244 4.694t-12.404 4.257-12.546 3.813-12.675 3.365-12.786 2.912-12.881 2.456-12.96 1.997-13.024 1.535-13.07 1.072-13.099.606-13.113.14-13.11-.325q-6.55-.279-13.089-.79-6.537-.513-13.053-1.256-6.515-.744-13-1.719t-12.931-2.18-12.846-2.637-12.743-3.093q-6.345-1.659-12.626-3.543t-12.492-3.99q-6.21-2.105-12.342-4.43t-12.177-4.867-11.996-5.296q-8.22-3.805-16.244-8.01-8.024-4.203-15.832-8.796t-15.381-9.563-14.893-10.306-14.37-11.024q-7.05-5.689-13.811-11.717-6.762-6.027-13.22-12.38-6.458-6.352-12.597-13.013t-11.943-13.616-11.26-14.185-10.55-14.721-9.816-15.221-9.057-15.685-8.277-16.11-7.476-16.496-6.657-16.843-5.823-17.15-4.975-17.415-4.114-17.638-3.243-17.818-2.366-17.957-1.481-18.05-.594-18.102.294-18.11q.37-9.05 1.184-18.072.813-9.022 2.068-17.993t2.949-17.87T41.33 283.3t4.686-17.495 5.54-17.243q2.98-8.554 6.378-16.952 3.397-8.397 7.202-16.617 2.755-5.951 5.72-11.8t6.134-11.59 6.543-11.365 6.943-11.125 7.333-10.871 7.715-10.604 8.087-10.323 8.449-10.03 8.8-9.722 9.139-9.404 9.468-9.073 9.784-8.73q4.97-4.28 10.089-8.378 5.118-4.1 10.38-8.014 5.26-3.915 10.657-7.64 5.397-3.726 10.923-7.257t11.174-6.864 11.41-6.462 11.633-6.053 11.84-5.636 12.034-5.212 12.21-4.78q6.149-2.282 12.374-4.344t12.52-3.902q6.294-1.84 12.65-3.454t12.765-3.002q6.41-1.388 12.864-2.547t12.946-2.089q6.491-.929 13.012-1.627 6.52-.698 13.062-1.163t13.095-.699T400 1v369l281.335-238.771Z"/></svg>