<svg xmlns="http://www.w3.org/2000/svg" width="800" height="800"><path fill="none" d="M0 0h800v800H0z"/><clipPath id="a"><path d="M0 740h800v60H0z"/></clipPath><g clip-path="url(#a)"><path fill="#4caf50" d="M144.605 770h40v20h-40z"/><path fill="none" stroke="#fff" stroke-miterlimit="10" stroke-width="2" d="M144.605 770h40v20h-40z"/><text x="194.605, 207.94484, 217.50539, 230.38625, 240.64992, 248.68703, 260.52295," y="787.5," fill="#666" font-family="DejaVu Serif" font-size="20">Trusted</text><path fill="#ff9800" d="M303.325 770h40v20h-40z"/><path fill="none" stroke="#fff" stroke-miterlimit="10" stroke-width="2" d="M303.325 770h40v20h-40z"/><text x="353.32501, 366.78204, 376.34259, 388.38361, 399.68243, 411.51837, 424.39923, 436.32306, 449.20392, 460.40509," y="787.5," fill="#666" font-family="DejaVu Serif" font-size="20">Provenance</text><path fill="#f44336" d="M502.245 770h40v20h-40z"/><path fill="none" stroke="#fff" stroke-miterlimit="10" stroke-width="2" d="M502.245 770h40v20h-40z"/><text x="552.245, 569.10046, 581.98132, 590.01843, 599.57898, 612.45984, 622.72351, 630.76062, 642.59656," y="787.5," fill="#666" font-family="DejaVu Serif" font-size="20">Untrusted</text></g><path fill="#4caf50" d="M400 1q6.858 0 13.71.255t13.692.764 13.653 1.272 13.597 1.779 13.522 2.282 13.427 2.784 13.314 3.28T508.1 17.19q6.556 2.009 13.034 4.26Q527.61 23.7 534 26.19t12.682 5.217 12.48 5.683q6.186 2.958 12.259 6.144 6.072 3.186 12.022 6.595t11.77 7.037 11.5 7.47L400 370z"/><path fill="none" stroke="#fff" stroke-linejoin="bevel" stroke-width="2" d="M400 1q6.858 0 13.71.255t13.692.764 13.653 1.272 13.597 1.779 13.522 2.282 13.427 2.784 13.314 3.28T508.1 17.19q6.556 2.009 13.034 4.26Q527.61 23.7 534 26.19t12.682 5.217 12.48 5.683q6.186 2.958 12.259 6.144 6.072 3.186 12.022 6.595t11.77 7.037 11.5 7.47L400 370z"/><path fill="#ff9800" d="M606.713 64.335q11.01 7.446 21.455 15.665 10.446 8.218 20.274 17.167 9.827 8.949 18.985 18.581t17.6 19.9L400 370z"/><path fill="none" stroke="#fff" stroke-linejoin="bevel" stroke-width="2" d="M606.713 64.335q11.01 7.446 21.455 15.665 10.446 8.218 20.274 17.167 9.827 8.949 18.985 18.581t17.6 19.9L400 370 606.713 64.335Z"/><path fill="#f44336" d="M685.026 135.648q5.753 6.997 11.156 14.267 5.403 7.271 10.442 14.799t9.704 15.292 8.941 15.75 8.158 16.17 7.355 16.551 6.534 16.892 5.697 17.192 4.846 17.451 3.985 17.668 3.112 17.842 2.234 17.973 1.349 18.061.46 18.106q.01 9.058-.427 18.106-.436 9.048-1.316 18.064t-2.2 17.977-3.08 17.848-3.952 17.675q-2.194 8.789-4.815 17.46-2.622 8.67-5.666 17.202-3.043 8.532-6.502 16.904-3.46 8.372-7.325 16.564t-8.128 16.185-8.913 15.767q-4.65 7.774-9.675 15.31t-10.415 14.817-11.13 14.289-11.817 13.725-12.477 13.128-13.105 12.5-13.704 11.843q-5.03 4.136-10.204 8.093-5.173 3.956-10.483 7.727t-10.75 7.352-11.002 6.97q-5.562 3.386-11.241 6.575t-11.467 6.175q-5.787 2.987-11.677 5.767t-11.873 5.351-12.055 4.93q-6.07 2.357-12.221 4.5t-12.372 4.066q-6.223 1.924-12.509 3.627t-12.628 3.183q-6.342 1.48-12.733 2.736-6.39 1.256-12.821 2.285t-12.895 1.83-12.95 1.376-12.992.916-13.015.458q-6.512.115-13.023-.001t-13.016-.462-12.99-.92-12.951-1.378-12.894-1.834q-6.43-1.031-12.82-2.288-6.391-1.258-12.733-2.74-6.342-1.481-12.627-3.186t-12.508-3.63q-6.221-1.926-12.371-4.07t-12.22-4.504T254.257 709q-5.983-2.573-11.872-5.355-8.19-3.869-16.181-8.135-7.991-4.267-15.763-8.92-7.772-4.654-15.306-9.683t-14.812-10.422-14.283-11.136-13.72-11.824-13.123-12.482q-6.408-6.403-12.494-13.112-6.087-6.709-11.837-13.708t-11.149-14.273-10.435-14.803-9.697-15.297q-4.66-7.768-8.934-15.755t-8.15-16.173-7.348-16.555-6.526-16.895-5.689-17.194q-2.633-8.667-4.838-17.453t-3.977-17.67-3.104-17.843-2.226-17.975-1.34-18.061T31 370.169t.436-18.106T32.76 334t2.21-17.976 3.087-17.847 3.96-17.673 4.823-17.457 5.673-17.2 6.51-16.901 7.333-16.561q2.782-5.889 5.77-11.676t6.178-11.464 6.579-11.24 6.971-11q3.583-5.44 7.356-10.748 3.772-5.309 7.73-10.481 3.957-5.173 8.095-10.202 4.137-5.03 8.45-9.91t8.794-9.606 9.128-9.29 9.45-8.96 9.76-8.623 10.06-8.273T181.02 73t10.617-7.543 10.876-7.163 11.123-6.775 11.355-6.378 11.573-5.973 11.776-5.561 11.965-5.143q6.028-2.465 12.14-4.717 6.11-2.25 12.298-4.285 6.187-2.034 12.442-3.85 6.254-1.814 12.57-3.407 6.314-1.592 12.682-2.961 6.367-1.37 12.779-2.513 6.411-1.143 12.86-2.06 6.447-.916 12.923-1.604 6.477-.689 12.973-1.148 6.497-.46 13.006-.69Q393.487 1 400 1v369z"/><path fill="none" stroke="#fff" stroke-linejoin="bevel" stroke-width="2" d="M685.026 135.648q5.753 6.997 11.156 14.267 5.403 7.271 10.442 14.799t9.704 15.292 8.941 15.75 8.158 16.17 7.355 16.551 6.534 16.892 5.697 17.192 4.846 17.451 3.985 17.668 3.112 17.842 2.234 17.973 1.349 18.061.46 18.106q.01 9.058-.427 18.106-.436 9.048-1.316 18.064t-2.2 17.977-3.08 17.848-3.952 17.675q-2.194 8.789-4.815 17.46-2.622 8.67-5.666 17.202-3.043 8.532-6.502 16.904-3.46 8.372-7.325 16.564t-8.128 16.185-8.913 15.767q-4.65 7.774-9.675 15.31t-10.415 14.817-11.13 14.289-11.817 13.725-12.477 13.128-13.105 12.5-13.704 11.843q-5.03 4.136-10.204 8.093-5.173 3.956-10.483 7.727t-10.75 7.352-11.002 6.97q-5.562 3.386-11.241 6.575t-11.467 6.175q-5.787 2.987-11.677 5.767t-11.873 5.351-12.055 4.93q-6.07 2.357-12.221 4.5t-12.372 4.066q-6.223 1.924-12.509 3.627t-12.628 3.183q-6.342 1.48-12.733 2.736-6.39 1.256-12.821 2.285t-12.895 1.83-12.95 1.376-12.992.916-13.015.458q-6.512.115-13.023-.001t-13.016-.462-12.99-.92-12.951-1.378-12.894-1.834q-6.43-1.031-12.82-2.288-6.391-1.258-12.733-2.74-6.342-1.481-12.627-3.186t-12.508-3.63q-6.221-1.926-12.371-4.07t-12.22-4.504T254.257 709q-5.983-2.573-11.872-5.355-8.19-3.869-16.181-8.135-7.991-4.267-15.763-8.92-7.772-4.654-15.306-9.683t-14.812-10.422-14.283-11.136-13.72-11.824-13.123-12.482q-6.408-6.403-12.494-13.112-6.087-6.709-11.837-13.708t-11.149-14.273-10.435-14.803-9.697-15.297q-4.66-7.768-8.934-15.755t-8.15-16.173-7.348-16.555-6.526-16.895-5.689-17.194q-2.633-8.667-4.838-17.453t-3.977-17.67-3.104-17.843-2.226-17.975-1.34-18.061T31 370.169t.436-18.106T32.76 334t2.21-17.976 3.087-17.847 3.96-17.673 4.823-17.457 5.673-17.2 6.51-16.901 7.333-16.561q2.782-5.889 5.77-11.676t6.178-11.464 6.579-11.24 6.971-11q3.583-5.44 7.356-10.748 3.772-5.309 7.73-10.481 3.957-5.173 8.095-10.202 4.137-5.03 8.45-9.91t8.794-9.606 9.128-9.29 9.45-8.96 9.76-8.623 10.06-8.273T181.02 73t10.617-7.543 10.876-7.163 11.123-6.775 11.355-6.378 11.573-5.973 11.776-5.561 11.965-5.143q6.028-2.465 12.14-4.717 6.11-2.25 12.298-4.285 6.187-2.034 12.442-3.85 6.254-1.814 12.57-3.407 6.314-1.592 12.682-2.961 6.367-1.37 12.779-2.513 6.411-1.143 12.86-2.06 6.447-.916 12.923-1.604 6.477-.689 12.973-1.148 6.497-.46 13.006-.69Q393.487 1 400 1v369l285.026-234.352Z"/></svg>