<?xml version="1.0" encoding="utf-8" ?><svg xmlns="http://www.w3.org/2000/svg" xmlns:xlink="http://www.w3.org/1999/xlink" width="800" height="800"><rect fill-opacity="0" width="800" height="800"/><clipPath id="cl_3"><rect y="740" width="800" height="60"/></clipPath><g clip-path="url(#cl_3)"><path fill="#4CAF50" d="M144.605 770L184.605 770L184.605 790L144.605 790L144.605 770Z"/><path fill="none" stroke="white" stroke-width="2" stroke-miterlimit="10" d="M144.605 770L184.605 770L184.605 790L144.605 790L144.605 770Z"/><text fill="#666" font-size="20" font-family="DejaVu Serif" x="194.605, 207.94484, 217.50539, 230.38625, 240.64992, 248.68703, 260.52295, " y="787.5, ">Trusted</text><path fill="#FF9800" d="M303.32501 770L343.32501 770L343.32501 790L303.32501 790L303.32501 770Z"/><path fill="none" stroke="white" stroke-width="2" stroke-miterlimit="10" d="M303.32501 770L343.32501 770L343.32501 790L303.32501 790L303.32501 770Z"/><text fill="#666" font-size="20" font-family="DejaVu Serif" x="353.32501, 366.78204, 376.34259, 388.38361, 399.68243, 411.51837, 424.39923, 436.32306, 449.20392, 460.40509, " y="787.5, ">Provenance</text><path fill="#F44336" d="M502.245 770L542.245 770L542.245 790L502.245 790L502.245 770Z"/><path fill="none" stroke="white" stroke-width="2" stroke-miterlimit="10" d="M502.245 770L542.245 770L542.245 790L502.245 790L502.245 770Z"/><text fill="#666" font-size="20" font-family="DejaVu Serif" x="552.245, 569.10046, 581.98132, 590.01843, 599.57898, 612.45984, 622.72351, 630.76062, 642.59656, " y="787.5, ">Untrusted</text></g><path fill="#4CAF50" d="M400 1Q410.4635 1 420.91019 1.5929379Q431.35687 2.1858759 441.7532 3.3698461Q452.14951 4.5538163 462.46204 6.3250141Q472.77454 8.0962114 482.97012 10.448944Q493.16565 12.80167 503.21152 15.728369Q513.25732 18.655067 523.12122 22.146336Q532.98511 25.6376 542.63525 29.682217Q552.2854 33.72683 561.69092 38.311798L400 370L400 370L400 370L400 1Z"/><path fill="none" stroke="white" stroke-width="2" stroke-linejoin="bevel" d="M400 1Q410.4635 1 420.91019 1.5929379Q431.35687 2.1858759 441.7532 3.3698461Q452.14951 4.5538163 462.46204 6.3250141Q472.77454 8.0962114 482.97012 10.448944Q493.16565 12.80167 503.21152 15.728369Q513.25732 18.655067 523.12122 22.146336Q532.98511 25.6376 542.63525 29.682217Q552.2854 33.72683 561.69092 38.311798L400 370L400 370L400 370L400 1Z"/><path fill="#FF9800" d="M561.69073 38.311737Q575.83386 45.206238 589.33881 53.279629Q602.84375 61.35302 615.61243 70.546692Q628.38104 79.740364 640.32074 89.987602Q652.26038 100.23483 663.28442 111.46124L400 370L400 370L400 370L561.6908 38.311752L561.69073 38.311737Z"/><path fill="none" stroke="white" stroke-width="2" stroke-linejoin="bevel" d="M561.69073 38.311737Q575.83386 45.206238 589.33881 53.279629Q602.84375 61.35302 615.61243 70.546692Q628.38104 79.740364 640.32074 89.987602Q652.26038 100.23483 663.28442 111.46124L400 370L400 370L400 370L561.6908 38.311752L561.69073 38.311737Z"/><path fill="#F44336" d="M663.28455 111.46133Q669.63129 117.92461 675.65326 124.69151Q681.67523 131.45842 687.35797 138.51266Q693.04065 145.56689 698.37036 152.89148Q703.70007 160.21606 708.66394 167.79333Q713.62787 175.37061 718.21399 183.18234Q722.80017 190.99405 726.99744 199.02139Q731.1947 207.04874 734.99304 215.27234Q738.79138 223.49596 742.18158 231.89604Q745.5719 240.29613 748.5459 248.85245Q751.51996 257.40878 754.07056 266.10074Q756.62109 274.79266 758.74213 283.5993Q760.86316 292.40594 762.54944 301.306Q764.23578 310.20612 765.4834 319.17822Q766.73096 328.15033 767.53687 337.17285Q768.34277 346.19537 768.70496 355.24658Q769.06714 364.29776 768.98474 373.35583Q768.90234 382.41388 768.37561 391.457Q767.84888 400.50012 766.87909 409.5065Q765.90918 418.51288 764.4986 427.46082Q763.08801 436.40872 761.24005 445.27667Q759.39209 454.14459 757.11127 462.91119Q754.83044 471.6778 752.12219 480.32196Q749.41394 488.96606 746.28479 497.46686Q743.15564 505.96765 739.61316 514.30469Q736.07068 522.64172 732.12341 530.79492Q728.17615 538.94812 723.83356 546.89777Q719.49097 554.84741 714.76355 562.57446Q710.03607 570.30139 704.93518 577.78717Q699.83429 585.27295 694.37219 592.49939Q688.91022 599.72583 683.10022 606.67554Q677.29016 613.62524 671.14606 620.28149Q665.00195 626.93774 658.5387 633.28455Q653.71033 638.02576 648.71143 642.58685Q643.71252 647.14795 638.54974 651.52264Q633.38696 655.89734 628.0672 660.07983Q622.74756 664.26233 617.27808 668.24695Q611.80859 672.23157 606.19666 676.01294Q600.58472 679.79431 594.83795 683.36743Q589.09119 686.94049 583.21729 690.30048Q577.34338 693.66046 571.35022 696.80286Q565.35706 699.94513 559.25269 702.86566Q553.14838 705.78613 546.94104 708.4809Q540.73364 711.1756 534.4317 713.64087Q528.12976 716.1062 521.74164 718.33887Q515.35352 720.57141 508.88782 722.5683Q502.42212 724.56519 495.8876 726.32361Q489.35306 728.08209 482.75845 729.59979Q476.16385 731.11749 469.51804 732.3924Q462.87219 733.66724 456.18405 734.69757Q449.49594 735.72791 442.77457 736.51233Q436.05316 737.29675 429.30753 737.83429Q422.56189 738.37177 415.80112 738.66156Q409.04028 738.95129 402.27341 738.99298Q395.50653 739.03467 388.74268 738.82825Q381.97882 738.62183 375.22705 738.16754Q368.47534 737.71326 361.74481 737.01172Q355.01422 736.31012 348.31393 735.36224Q341.61365 734.41431 334.95264 733.22144Q328.29156 732.02856 321.67874 730.59216Q315.06592 729.15588 308.51022 727.47815Q301.9545 725.80029 295.46469 723.8833Q288.97491 721.96619 282.55978 719.8125Q276.14465 717.65881 269.81281 715.2713Q263.48096 712.88385 257.24091 710.26587Q248.88785 706.76129 240.71681 702.85114Q232.54578 698.94092 224.57646 694.63458Q216.60712 690.32812 208.85869 685.63593Q201.11026 680.9436 193.60141 675.87683Q186.09256 670.81006 178.84137 665.38092Q171.59018 659.95178 164.61412 654.1734Q157.63806 648.39502 150.95393 642.28125Q144.26981 636.16748 137.89371 629.73315Q131.51762 623.29883 125.46494 616.55933Q119.41225 609.81995 113.69754 602.79163Q107.98282 595.76324 102.61986 588.46301Q97.256897 581.16272 92.258598 573.60809Q87.2603 566.05347 82.63871 558.2627Q78.017128 550.47192 73.783386 542.46381Q69.549637 534.45563 65.713936 526.24933Q61.878235 518.04309 58.449814 509.65854Q55.021393 501.27396 52.008511 492.73123Q48.995632 484.18854 46.405552 475.5083Q43.815472 466.82803 41.65443 458.03116Q39.493389 449.23425 37.766594 440.34192Q36.039795 431.44958 34.751408 422.48328Q33.46302 413.51691 32.616142 404.49817Q31.76926 395.47937 31.365931 386.42993Q30.962601 377.38046 31.003792 368.32211Q31.044983 359.26376 31.530598 350.21835Q32.016212 341.17291 32.94508 332.16223Q33.873947 323.15155 35.243828 314.19727Q36.613708 305.24304 38.421303 296.36676Q40.228897 287.49048 42.469852 278.71362Q44.710808 269.93677 47.379726 261.28043Q50.048645 252.62408 53.139088 244.10913Q56.229538 235.59418 59.73407 227.24112Q62.352093 221.00104 65.197144 214.86118Q68.042206 208.7213 71.110466 202.68988Q74.178726 196.65845 77.466064 190.74356Q80.753418 184.82869 84.255424 179.03833Q87.757431 173.24796 91.469376 167.58989Q95.181335 161.93179 99.098251 156.41364Q103.01516 150.89546 107.13177 145.52461Q111.24837 140.15378 115.55914 134.93748Q119.86989 129.72118 124.369 124.66644Q128.86812 119.61171 133.54955 114.72533Q138.23096 109.83896 143.08841 105.12752Q147.94583 100.41607 152.97276 95.885902Q157.99966 91.355713 163.1893 87.012901Q168.37894 82.670074 173.72433 78.520462Q179.0697 74.370834 184.56364 70.419998Q190.05757 66.469162 195.69267 62.722416Q201.32776 58.975666 207.09644 55.438049Q212.86511 51.900436 218.75963 48.576714Q224.65413 45.252983 230.66653 42.147614Q236.67896 39.042248 242.80119 36.159416Q248.9234 33.276581 255.14722 30.620159Q261.37103 27.963737 267.68805 25.537298Q274.00507 23.110859 280.4068 20.917667Q286.80856 18.724476 293.28644 16.767481Q299.76428 14.810483 306.30951 13.092314Q312.85477 11.374146 319.45862 9.8971157Q326.06244 8.420085 332.716 7.1861792Q339.36957 5.9522734 346.06393 4.9631529Q352.75824 3.974031 359.48434 3.2310236Q366.21045 2.4880159 372.95926 1.9921218Q379.70807 1.4962277 386.47052 1.2481139Q393.23297 1 400 1L400 370L400 370L400 370L663.28455 111.4613L663.28455 111.46133Z"/><path fill="none" stroke="white" stroke-width="2" stroke-linejoin="bevel" d="M663.28455 111.46133Q669.63129 117.92461 675.65326 124.69151Q681.67523 131.45842 687.35797 138.51266Q693.04065 145.56689 698.37036 152.89148Q703.70007 160.21606 708.66394 167.79333Q713.62787 175.37061 718.21399 183.18234Q722.80017 190.99405 726.99744 199.02139Q731.1947 207.04874 734.99304 215.27234Q738.79138 223.49596 742.18158 231.89604Q745.5719 240.29613 748.5459 248.85245Q751.51996 257.40878 754.07056 266.10074Q756.62109 274.79266 758.74213 283.5993Q760.86316 292.40594 762.54944 301.306Q764.23578 310.20612 765.4834 319.17822Q766.73096 328.15033 767.53687 337.17285Q768.34277 346.19537 768.70496 355.24658Q769.06714 364.29776 768.98474 373.35583Q768.90234 382.41388 768.37561 391.457Q767.84888 400.50012 766.87909 409.5065Q765.90918 418.51288 764.4986 427.46082Q763.08801 436.40872 761.24005 445.27667Q759.39209 454.14459 757.11127 462.91119Q754.83044 471.6778 752.12219 480.32196Q749.41394 488.96606 746.28479 497.46686Q743.15564 505.96765 739.61316 514.30469Q736.07068 522.64172 732.12341 530.79492Q728.17615 538.94812 723.83356 546.89777Q719.49097 554.84741 714.76355 562.57446Q710.03607 570.30139 704.93518 577.78717Q699.83429 585.27295 694.37219 592.49939Q688.91022 599.72583 683.10022 606.67554Q677.29016 613.62524 671.14606 620.28149Q665.00195 626.93774 658.5387 633.28455Q653.71033 638.02576 648.71143 642.58685Q643.71252 647.14795 638.54974 651.52264Q633.38696 655.89734 628.0672 660.07983Q622.74756 664.26233 617.27808 668.24695Q611.80859 672.23157 606.19666 676.01294Q600.58472 679.79431 594.83795 683.36743Q589.09119 686.94049 583.21729 690.30048Q577.34338 693.66046 571.35022 696.80286Q565.35706 699.94513 559.25269 702.86566Q553.14838 705.78613 546.94104 708.4809Q540.73364 711.1756 534.4317 713.64087Q528.12976 716.1062 521.74164 718.33887Q515.35352 720.57141 508.88782 722.5683Q502.42212 724.56519 495.8876 726.32361Q489.35306 728.08209 482.75845 729.59979Q476.16385 731.11749 469.51804 732.3924Q462.87219 733.66724 456.18405 734.69757Q449.49594 735.72791 442.77457 736.51233Q436.05316 737.29675 429.30753 737.83429Q422.56189 738.37177 415.80112 738.66156Q409.04028 738.95129 402.27341 738.99298Q395.50653 739.03467 388.74268 738.82825Q381.97882 738.62183 375.22705 738.16754Q368.47534 737.71326 361.74481 737.01172Q355.01422 736.31012 348.31393 735.36224Q341.61365 734.41431 334.95264 733.22144Q328.29156 732.02856 321.67874 730.59216Q315.06592 729.15588 308.51022 727.47815Q301.9545 725.80029 295.46469 723.8833Q288.97491 721.96619 282.55978 719.8125Q276.14465 717.65881 269.81281 715.2713Q263.48096 712.88385 257.24091 710.26587Q248.88785 706.76129 240.71681 702.85114Q232.54578 698.94092 224.57646 694.63458Q216.60712 690.32812 208.85869 685.63593Q201.11026 680.9436 193.60141 675.87683Q186.09256 670.81006 178.84137 665.38092Q171.59018 659.95178 164.61412 654.1734Q157.63806 648.39502 150.95393 642.28125Q144.26981 636.16748 137.89371 629.73315Q131.51762 623.29883 125.46494 616.55933Q119.41225 609.81995 113.69754 602.79163Q107.98282 595.76324 102.61986 588.46301Q97.256897 581.16272 92.258598 573.60809Q87.2603 566.05347 82.63871 558.2627Q78.017128 550.47192 73.783386 542.46381Q69.549637 534.45563 65.713936 526.24933Q61.878235 518.04309 58.449814 509.65854Q55.021393 501.27396 52.008511 492.73123Q48.995632 484.18854 46.405552 475.5083Q43.815472 466.82803 41.65443 458.03116Q39.493389 449.23425 37.766594 440.34192Q36.039795 431.44958 34.751408 422.48328Q33.46302 413.51691 32.616142 404.49817Q31.76926 395.47937 31.365931 386.42993Q30.962601 377.38046 31.003792 368.32211Q31.044983 359.26376 31.530598 350.21835Q32.016212 341.17291 32.94508 332.16223Q33.873947 323.15155 35.243828 314.19727Q36.613708 305.24304 38.421303 296.36676Q40.228897 287.49048 42.469852 278.71362Q44.710808 269.93677 47.379726 261.28043Q50.048645 252.62408 53.139088 244.10913Q56.229538 235.59418 59.73407 227.24112Q62.352093 221.00104 65.197144 214.86118Q68.042206 208.7213 71.110466 202.68988Q74.178726 196.65845 77.466064 190.74356Q80.753418 184.82869 84.255424 179.03833Q87.757431 173.24796 91.469376 167.58989Q95.181335 161.93179 99.098251 156.41364Q103.01516 150.89546 107.13177 145.52461Q111.24837 140.15378 115.55914 134.93748Q119.86989 129.72118 124.369 124.66644Q128.86812 119.61171 133.54955 114.72533Q138.23096 109.83896 143.08841 105.12752Q147.94583 100.41607 152.97276 95.885902Q157.99966 91.355713 163.1893 87.012901Q168.37894 82.670074 173.72433 78.520462Q179.0697 74.370834 184.56364 70.419998Q190.05757 66.469162 195.69267 62.722416Q201.32776 58.975666 207.09644 55.438049Q212.86511 51.900436 218.75963 48.576714Q224.65413 45.252983 230.66653 42.147614Q236.67896 39.042248 242.80119 36.159416Q248.9234 33.276581 255.14722 30.620159Q261.37103 27.963737 267.68805 25.537298Q274.00507 23.110859 280.4068 20.917667Q286.80856 18.724476 293.28644 16.767481Q299.76428 14.810483 306.30951 13.092314Q312.85477 11.374146 319.45862 9.8971157Q326.06244 8.420085 332.716 7.1861792Q339.36957 5.9522734 346.06393 4.9631529Q352.75824 3.974031 359.48434 3.2310236Q366.21045 2.4880159 372.95926 1.9921218Q379.70807 1.4962277 386.47052 1.2481139Q393.23297 1 400 1L400 370L400 370L400 370L663.28455 111.4613L663.28455 111.46133Z"/></svg>