<svg xmlns="http://www.w3.org/2000/svg" width="800" height="800"><path fill="none" d="M0 0h800v800H0z"/><clipPath id="a"><path d="M0 740h800v60H0z"/></clipPath><g clip-path="url(#a)"><path fill="#4caf50" d="M164.745 770h40v20h-40z"/><path fill="none" stroke="#fff" stroke-miterlimit="10" stroke-width="2" d="M164.745 770h40v20h-40z"/><text x="214.745, 226.2196, 232.87976, 244.00281, 254.00281, 259.55945, 270.6825," y="786.5," fill="#666" font-family="Liberation Sans" font-size="20">Trusted</text><path fill="#ff9800" d="M311.805 770h40v20h-40z"/><path fill="none" stroke="#fff" stroke-miterlimit="10" stroke-width="2" d="M311.805 770h40v20h-40z"/><text x="361.80499, 375.14484, 381.80499, 392.92804, 402.92804, 414.05109, 425.17413, 436.29718, 447.42023, 457.42023," y="786.5," fill="#666" font-family="Liberation Sans" font-size="20">Provenance</text><path fill="#f44336" d="M498.545 770h40v20h-40z"/><path fill="none" stroke="#fff" stroke-miterlimit="10" stroke-width="2" d="M498.545 770h40v20h-40z"/><text x="548.54498, 562.98834, 574.11139, 579.66803, 586.32819, 597.45123, 607.45123, 613.00787, 624.13092," y="786.5," fill="#666" font-family="Liberation Sans" font-size="20">Untrusted</text></g><path fill="#4caf50" d="M400 1q5.294 0 10.585.152t10.577.455 10.559.759 10.533 1.061q5.258.606 10.498 1.363t10.454 1.664q5.216.906 10.403 1.962t10.342 2.26q5.155 1.205 10.273 2.557 5.119 1.352 10.196 2.85t10.11 3.14q5.032 1.644 10.015 3.43t9.912 3.716 9.803 3.999q4.872 2.07 9.683 4.278 4.81 2.208 9.557 4.554 4.745 2.345 9.422 4.826 4.676 2.48 9.28 5.095 4.603 2.613 9.13 5.358 4.526 2.745 8.972 5.619t8.807 5.873 8.635 6.124 8.457 6.369 8.27 6.608q4.087 3.364 8.076 6.844t7.878 7.072 7.671 7.295 7.459 7.513 7.24 7.723 7.016 7.928 6.785 8.125 6.55 8.317L400 370z"/><path fill="none" stroke="#fff" stroke-linejoin="bevel" stroke-width="2" d="M400 1q5.294 0 10.585.152t10.577.455 10.559.759 10.533 1.061q5.258.606 10.498 1.363t10.454 1.664q5.216.906 10.403 1.962t10.342 2.26q5.155 1.205 10.273 2.557 5.119 1.352 10.196 2.85t10.11 3.14q5.032 1.644 10.015 3.43t9.912 3.716 9.803 3.999q4.872 2.07 9.683 4.278 4.81 2.208 9.557 4.554 4.745 2.345 9.422 4.826 4.676 2.48 9.28 5.095 4.603 2.613 9.13 5.358 4.526 2.745 8.972 5.619t8.807 5.873 8.635 6.124 8.457 6.369 8.27 6.608q4.087 3.364 8.076 6.844t7.878 7.072 7.671 7.295 7.459 7.513 7.24 7.723 7.016 7.928 6.785 8.125 6.55 8.317L400 370z"/><path fill="#ff9800" d="M693.148 145.89q13.436 17.575 24.677 36.63t20.123 39.318L400 370z"/><path fill="none" stroke="#fff" stroke-linejoin="bevel" stroke-width="2" d="M693.148 145.89q13.436 17.575 24.677 36.63t20.123 39.318L400 370l293.148-224.11Z"/><path fill="#f44336" d="M737.948 221.838q3.637 8.296 6.863 16.761t6.032 17.077 5.187 17.353 4.33 17.586 3.46 17.778 2.585 17.926 1.702 18.031.815 18.093-.073 18.112-.962 18.086-1.849 18.016-2.73 17.905-3.606 17.749-4.472 17.55-5.328 17.31-6.17 17.028-7 16.705-7.81 16.34-8.602 15.939-9.374 15.496q-4.877 7.634-10.123 15.019T689.975 598.2q-5.602 7.118-11.547 13.953-5.944 6.835-12.217 13.37-6.273 6.536-12.859 12.755t-13.469 12.108-14.047 11.433q-7.164 5.544-14.59 10.73-7.428 5.186-15.1 10-7.673 4.816-15.573 9.249-7.9 4.432-16.007 8.472t-16.404 7.677q-5.239 2.297-10.546 4.43t-10.678 4.101q-5.37 1.968-10.8 3.768t-10.911 3.431q-5.483 1.631-11.013 3.092-5.53 1.46-11.103 2.749-5.573 1.288-11.183 2.403t-11.253 2.055-11.31 1.706-11.358 1.354q-5.69.59-11.395 1.002t-11.42.648-11.434.294-11.438-.06q-5.72-.12-11.431-.416-5.713-.297-11.413-.77t-11.383-1.122-11.343-1.475q-5.66-.826-11.292-1.826t-11.23-2.175-11.156-2.522q-5.56-1.348-11.074-2.867-5.514-1.52-10.979-3.208-5.465-1.69-10.874-3.548t-10.76-3.882-10.633-4.214q-5.285-2.19-10.499-4.542-5.213-2.352-10.352-4.865-5.138-2.513-10.196-5.183t-10.031-5.497-9.856-5.806-9.671-6.108q-7.583-4.955-14.914-10.276-7.33-5.322-14.391-10.996-7.06-5.675-13.835-11.689-6.774-6.014-13.244-12.354t-12.622-12.988q-6.152-6.65-11.97-13.592-5.818-6.944-11.288-14.164t-10.58-14.7-9.846-15.201q-4.736-7.722-9.088-15.667t-8.308-16.093-7.509-16.482-6.69-16.83q-3.14-8.497-5.858-17.138-2.718-8.64-5.009-17.405-2.29-8.764-4.149-17.63t-3.279-17.812-2.4-17.951q-.98-9.006-1.518-18.048-.537-9.043-.63-18.1-.092-9.059.26-18.11.351-9.052 1.147-18.075.795-9.024 2.033-17.997t2.913-17.876 3.787-17.71q2.111-8.81 4.652-17.505t5.505-17.254 6.344-16.964q3.381-8.404 7.17-16.632t7.977-16.26 8.765-15.85 9.533-15.399q3.129-4.788 6.404-9.477t6.696-9.274 6.98-9.062 7.257-8.842 7.527-8.612 7.791-8.375 8.047-8.129 8.295-7.876 8.535-7.615 8.767-7.347 8.99-7.071q4.551-3.466 9.206-6.79 4.656-3.323 9.412-6.5t9.608-6.207q4.852-3.028 9.796-5.905t9.975-5.6 10.143-5.286 10.302-4.97 10.451-4.649 10.59-4.322q5.33-2.079 10.72-3.992t10.838-3.658q5.447-1.744 10.946-3.32t11.043-2.979 11.13-2.635q5.587-1.232 11.208-2.29 5.621-1.057 11.272-1.94 5.652-.883 11.328-1.59t11.37-1.24q5.696-.53 11.405-.885 5.709-.354 11.426-.532Q394.28 1 400 1v369z"/><path fill="none" stroke="#fff" stroke-linejoin="bevel" stroke-width="2" d="M737.948 221.838q3.637 8.296 6.863 16.761t6.032 17.077 5.187 17.353 4.33 17.586 3.46 17.778 2.585 17.926 1.702 18.031.815 18.093-.073 18.112-.962 18.086-1.849 18.016-2.73 17.905-3.606 17.749-4.472 17.55-5.328 17.31-6.17 17.028-7 16.705-7.81 16.34-8.602 15.939-9.374 15.496q-4.877 7.634-10.123 15.019T689.975 598.2q-5.602 7.118-11.547 13.953-5.944 6.835-12.217 13.37-6.273 6.536-12.859 12.755t-13.469 12.108-14.047 11.433q-7.164 5.544-14.59 10.73-7.428 5.186-15.1 10-7.673 4.816-15.573 9.249-7.9 4.432-16.007 8.472t-16.404 7.677q-5.239 2.297-10.546 4.43t-10.678 4.101q-5.37 1.968-10.8 3.768t-10.911 3.431q-5.483 1.631-11.013 3.092-5.53 1.46-11.103 2.749-5.573 1.288-11.183 2.403t-11.253 2.055-11.31 1.706-11.358 1.354q-5.69.59-11.395 1.002t-11.42.648-11.434.294-11.438-.06q-5.72-.12-11.431-.416-5.713-.297-11.413-.77t-11.383-1.122-11.343-1.475q-5.66-.826-11.292-1.826t-11.23-2.175-11.156-2.522q-5.56-1.348-11.074-2.867-5.514-1.52-10.979-3.208-5.465-1.69-10.874-3.548t-10.76-3.882-10.633-4.214q-5.285-2.19-10.499-4.542-5.213-2.352-10.352-4.865-5.138-2.513-10.196-5.183t-10.031-5.497-9.856-5.806-9.671-6.108q-7.583-4.955-14.914-10.276-7.33-5.322-14.391-10.996-7.06-5.675-13.835-11.689-6.774-6.014-13.244-12.354t-12.622-12.988q-6.152-6.65-11.97-13.592-5.818-6.944-11.288-14.164t-10.58-14.7-9.846-15.201q-4.736-7.722-9.088-15.667t-8.308-16.093-7.509-16.482-6.69-16.83q-3.14-8.497-5.858-17.138-2.718-8.64-5.009-17.405-2.29-8.764-4.149-17.63t-3.279-17.812-2.4-17.951q-.98-9.006-1.518-18.048-.537-9.043-.63-18.1-.092-9.059.26-18.11.351-9.052 1.147-18.075.795-9.024 2.033-17.997t2.913-17.876 3.787-17.71q2.111-8.81 4.652-17.505t5.505-17.254 6.344-16.964q3.381-8.404 7.17-16.632t7.977-16.26 8.765-15.85 9.533-15.399q3.129-4.788 6.404-9.477t6.696-9.274 6.98-9.062 7.257-8.842 7.527-8.612 7.791-8.375 8.047-8.129 8.295-7.876 8.535-7.615 8.767-7.347 8.99-7.071q4.551-3.466 9.206-6.79 4.656-3.323 9.412-6.5t9.608-6.207q4.852-3.028 9.796-5.905t9.975-5.6 10.143-5.286 10.302-4.97 10.451-4.649 10.59-4.322q5.33-2.079 10.72-3.992t10.838-3.658q5.447-1.744 10.946-3.32t11.043-2.979 11.13-2.635q5.587-1.232 11.208-2.29 5.621-1.057 11.272-1.94 5.652-.883 11.328-1.59t11.37-1.24q5.696-.53 11.405-.885 5.709-.354 11.426-.532Q394.28 1 400 1v369l337.948-148.162Z"/></svg>