<svg xmlns="http://www.w3.org/2000/svg" width="800" height="800"><path fill="none" d="M0 0h800v800H0z"/><clipPath id="a"><path d="M0 740h800v60H0z"/></clipPath><g clip-path="url(#a)"><path fill="#4caf50" d="M164.745 770h40v20h-40z"/><path fill="none" stroke="#fff" stroke-miterlimit="10" stroke-width="2" d="M164.745 770h40v20h-40z"/><text x="214.745, 226.2196, 232.87976, 244.00281, 254.00281, 259.55945, 270.6825," y="786.5," fill="#666" font-family="Liberation Sans" font-size="20">Trusted</text><path fill="#ff9800" d="M311.805 770h40v20h-40z"/><path fill="none" stroke="#fff" stroke-miterlimit="10" stroke-width="2" d="M311.805 770h40v20h-40z"/><text x="361.80499, 375.14484, 381.80499, 392.92804, 402.92804, 414.05109, 425.17413, 436.29718, 447.42023, 457.42023," y="786.5," fill="#666" font-family="Liberation Sans" font-size="20">Provenance</text><path fill="#f44336" d="M498.545 770h40v20h-40z"/><path fill="none" stroke="#fff" stroke-miterlimit="10" stroke-width="2" d="M498.545 770h40v20h-40z"/><text x="548.54498, 562.98834, 574.11139, 579.66803, 586.32819, 597.45123, 607.45123, 613.00787, 624.13092," y="786.5," fill="#666" font-family="Liberation Sans" font-size="20">Untrusted</text></g><path fill="#4caf50" d="M400 1q5.831 0 11.66.184t11.647.553 11.625.92 11.59 1.287 11.542 1.653 11.486 2.017 11.415 2.378T492.3 12.73t11.243 3.095 11.14 3.449q5.541 1.812 11.024 3.798 5.482 1.987 10.9 4.146 5.416 2.158 10.762 4.487t10.615 4.825q5.27 2.497 10.458 5.159t10.29 5.486 10.111 5.809 9.923 6.125 9.724 6.436 9.516 6.74q4.704 3.444 9.298 7.036 4.593 3.592 9.07 7.328 4.479 3.735 8.836 7.61t8.59 7.886q4.233 4.01 8.337 8.153 4.104 4.142 8.075 8.412t7.805 8.664 7.528 8.905 7.242 9.14 6.95 9.363 6.65 9.578 6.345 9.784L400 370z"/><path fill="none" stroke="#fff" stroke-linejoin="bevel" stroke-width="2" d="M400 1q5.831 0 11.66.184t11.647.553 11.625.92 11.59 1.287 11.542 1.653 11.486 2.017 11.415 2.378T492.3 12.73t11.243 3.095 11.14 3.449q5.541 1.812 11.024 3.798 5.482 1.987 10.9 4.146 5.416 2.158 10.762 4.487t10.615 4.825q5.27 2.497 10.458 5.159t10.29 5.486 10.111 5.809 9.923 6.125 9.724 6.436 9.516 6.74q4.704 3.444 9.298 7.036 4.593 3.592 9.07 7.328 4.479 3.735 8.836 7.61t8.59 7.886q4.233 4.01 8.337 8.153 4.104 4.142 8.075 8.412t7.805 8.664 7.528 8.905 7.242 9.14 6.95 9.363 6.65 9.578 6.345 9.784L400 370z"/><path fill="#ff9800" d="M712.732 174.144q9.837 15.707 18.051 32.322 8.214 16.614 14.722 33.967L400 370z"/><path fill="none" stroke="#fff" stroke-linejoin="bevel" stroke-width="2" d="M712.732 174.144q9.837 15.707 18.051 32.322 8.214 16.614 14.722 33.967L400 370l312.732-195.856Z"/><path fill="#f44336" d="M745.505 240.433q3.18 8.482 5.941 17.11t5.095 17.38 4.235 17.609 3.367 17.796 2.49 17.939q1.024 9 1.606 18.04.581 9.04.719 18.097.137 9.058-.17 18.11-.308 9.054-1.059 18.081-.75 9.028-1.944 18.007t-2.825 17.89q-1.633 8.91-3.7 17.73t-4.565 17.526-5.42 17.281-6.261 16.995-7.088 16.667-7.897 16.3q-4.148 8.052-8.687 15.891t-9.456 15.447-10.203 14.964-10.925 14.446-11.62 13.892q-5.981 6.803-12.289 13.305t-12.926 12.686-13.533 12.036-14.108 11.358-14.648 10.652-15.152 9.92q-7.699 4.775-15.622 9.166-7.923 4.39-16.052 8.387t-16.444 7.59-16.797 6.774q-5.21 1.953-10.475 3.748t-10.582 3.432q-5.317 1.636-10.68 3.11-5.365 1.475-10.77 2.788-5.407 1.312-10.85 2.461-5.443 1.15-10.918 2.134t-10.978 1.803-11.027 1.471q-5.524.653-11.066 1.139-5.542.485-11.096.804-5.554.318-11.115.47-5.56.15-11.124.133-5.563-.016-11.123-.2-5.56-.185-11.112-.537-5.551-.352-11.09-.872-5.539-.519-11.06-1.205-5.52-.686-11.017-1.538-5.498-.852-10.967-1.87-5.47-1.016-10.905-2.198-5.436-1.182-10.834-2.527t-10.753-2.852-10.662-3.176-10.562-3.495-10.45-3.812q-5.198-1.984-10.333-4.125t-10.202-4.435-10.064-4.74q-4.997-2.446-9.917-5.042t-9.76-5.338-9.595-5.63q-4.756-2.887-9.421-5.917-4.666-3.03-9.239-6.198-7.445-5.16-14.628-10.678t-14.087-11.384-13.512-12.06q-6.608-6.197-12.903-12.71t-12.265-13.327-11.595-13.912q-5.627-7.1-10.9-14.465-5.271-7.367-10.175-14.983t-9.429-15.463-8.658-15.908-7.868-16.313-7.058-16.68q-3.324-8.427-6.23-17.006t-5.389-17.291-4.534-17.535-3.668-17.736-2.793-17.895-1.912-18.01-1.026-18.082q-.29-9.054-.137-18.111.154-9.057.752-18.096.597-9.039 1.638-18.037 1.04-8.999 2.522-17.935 1.48-8.937 3.398-17.79t4.268-17.602q2.35-8.748 5.125-17.37 2.777-8.623 5.973-17.099t6.803-16.785 7.62-16.43 8.416-16.038 9.193-15.605 9.948-15.135q3.168-4.572 6.473-9.047 3.306-4.475 6.744-8.848t7.007-8.64 7.265-8.426 7.515-8.202q3.819-4.045 7.759-7.973t7.995-7.735q4.057-3.807 8.226-7.49t8.447-7.239q4.278-3.556 8.662-6.981 4.383-3.425 8.868-6.717t9.067-6.446 9.257-6.17 9.438-5.889 9.612-5.6 9.777-5.31 9.932-5.011q5.003-2.431 10.078-4.71t10.216-4.404 10.344-4.094 10.463-3.78 10.572-3.464 10.671-3.143q5.36-1.49 10.762-2.82 5.402-1.328 10.841-2.494 5.44-1.165 10.912-2.166t10.972-1.836 11.023-1.505 11.063-1.172 11.093-.837 11.113-.503T400 1v369z"/><path fill="none" stroke="#fff" stroke-linejoin="bevel" stroke-width="2" d="M745.505 240.433q3.18 8.482 5.941 17.11t5.095 17.38 4.235 17.609 3.367 17.796 2.49 17.939q1.024 9 1.606 18.04.581 9.04.719 18.097.137 9.058-.17 18.11-.308 9.054-1.059 18.081-.75 9.028-1.944 18.007t-2.825 17.89q-1.633 8.91-3.7 17.73t-4.565 17.526-5.42 17.281-6.261 16.995-7.088 16.667-7.897 16.3q-4.148 8.052-8.687 15.891t-9.456 15.447-10.203 14.964-10.925 14.446-11.62 13.892q-5.981 6.803-12.289 13.305t-12.926 12.686-13.533 12.036-14.108 11.358-14.648 10.652-15.152 9.92q-7.699 4.775-15.622 9.166-7.923 4.39-16.052 8.387t-16.444 7.59-16.797 6.774q-5.21 1.953-10.475 3.748t-10.582 3.432q-5.317 1.636-10.68 3.11-5.365 1.475-10.77 2.788-5.407 1.312-10.85 2.461-5.443 1.15-10.918 2.134t-10.978 1.803-11.027 1.471q-5.524.653-11.066 1.139-5.542.485-11.096.804-5.554.318-11.115.47-5.56.15-11.124.133-5.563-.016-11.123-.2-5.56-.185-11.112-.537-5.551-.352-11.09-.872-5.539-.519-11.06-1.205-5.52-.686-11.017-1.538-5.498-.852-10.967-1.87-5.47-1.016-10.905-2.198-5.436-1.182-10.834-2.527t-10.753-2.852-10.662-3.176-10.562-3.495-10.45-3.812q-5.198-1.984-10.333-4.125t-10.202-4.435-10.064-4.74q-4.997-2.446-9.917-5.042t-9.76-5.338-9.595-5.63q-4.756-2.887-9.421-5.917-4.666-3.03-9.239-6.198-7.445-5.16-14.628-10.678t-14.087-11.384-13.512-12.06q-6.608-6.197-12.903-12.71t-12.265-13.327-11.595-13.912q-5.627-7.1-10.9-14.465-5.271-7.367-10.175-14.983t-9.429-15.463-8.658-15.908-7.868-16.313-7.058-16.68q-3.324-8.427-6.23-17.006t-5.389-17.291-4.534-17.535-3.668-17.736-2.793-17.895-1.912-18.01-1.026-18.082q-.29-9.054-.137-18.111.154-9.057.752-18.096.597-9.039 1.638-18.037 1.04-8.999 2.522-17.935 1.48-8.937 3.398-17.79t4.268-17.602q2.35-8.748 5.125-17.37 2.777-8.623 5.973-17.099t6.803-16.785 7.62-16.43 8.416-16.038 9.193-15.605 9.948-15.135q3.168-4.572 6.473-9.047 3.306-4.475 6.744-8.848t7.007-8.64 7.265-8.426 7.515-8.202q3.819-4.045 7.759-7.973t7.995-7.735q4.057-3.807 8.226-7.49t8.447-7.239q4.278-3.556 8.662-6.981 4.383-3.425 8.868-6.717t9.067-6.446 9.257-6.17 9.438-5.889 9.612-5.6 9.777-5.31 9.932-5.011q5.003-2.431 10.078-4.71t10.216-4.404 10.344-4.094 10.463-3.78 10.572-3.464 10.671-3.143q5.36-1.49 10.762-2.82 5.402-1.328 10.841-2.494 5.44-1.165 10.912-2.166t10.972-1.836 11.023-1.505 11.063-1.172 11.093-.837 11.113-.503T400 1v369l345.505-129.567Z"/></svg>