<svg xmlns="http://www.w3.org/2000/svg" width="800" height="800"><path fill="none" d="M0 0h800v800H0z"/><clipPath id="a"><path d="M0 690h800v110H0z"/></clipPath><g clip-path="url(#a)"><path fill="#4caf50" d="M123.3 720h40v20h-40z"/><path fill="none" stroke="#fff" stroke-miterlimit="10" stroke-width="2" d="M123.3 720h40v20h-40z"/><path fill="#ff9800" d="M377.64 720h40v20h-40z"/><path fill="none" stroke="#fff" stroke-miterlimit="10" stroke-width="2" d="M377.64 720h40v20h-40z"/><path fill="#f44336" d="M262.92 770h40v20h-40z"/><path fill="none" stroke="#fff" stroke-miterlimit="10" stroke-width="2" d="M262.92 770h40v20h-40z"/></g><path fill="#4caf50" d="M400 1q4.414 0 8.826.113t8.82.34q4.407.226 8.808.566t8.79.791q4.391.452 8.768 1.017t8.74 1.242q4.36.676 8.703 1.465 4.343.788 8.664 1.688t8.617 1.91 8.565 2.13q4.27 1.12 8.508 2.35 4.24 1.229 8.445 2.566 4.206 1.338 8.377 2.783 4.17 1.445 8.302 2.997t8.223 3.208 8.137 3.419 8.047 3.626 7.952 3.832q3.95 1.967 7.85 4.034t7.745 4.234q3.845 2.167 7.633 4.432t7.517 4.626 7.396 4.817 7.27 5.006 7.139 5.19 7.003 5.372 6.864 5.55 6.718 5.724 6.57 5.894 6.416 6.061 6.259 6.224 6.097 6.382L400 345z"/><path fill="none" stroke="#fff" stroke-linejoin="bevel" stroke-width="2" d="M400 1q4.414 0 8.826.113t8.82.34q4.407.226 8.808.566t8.79.791q4.391.452 8.768 1.017t8.74 1.242q4.36.676 8.703 1.465 4.343.788 8.664 1.688t8.617 1.91 8.565 2.13q4.27 1.12 8.508 2.35 4.24 1.229 8.445 2.566 4.206 1.338 8.377 2.783 4.17 1.445 8.302 2.997t8.223 3.208 8.137 3.419 8.047 3.626 7.952 3.832q3.95 1.967 7.85 4.034t7.745 4.234q3.845 2.167 7.633 4.432t7.517 4.626 7.396 4.817 7.27 5.006 7.139 5.19 7.003 5.372 6.864 5.55 6.718 5.724 6.57 5.894 6.416 6.061 6.259 6.224 6.097 6.382L400 345z"/><path fill="#ff9800" d="M651.769 110.59q14.724 15.814 27.353 33.346 12.63 17.533 22.966 36.508L400 345z"/><path fill="none" stroke="#fff" stroke-linejoin="bevel" stroke-width="2" d="M651.769 110.59q14.724 15.814 27.353 33.346 12.63 17.533 22.966 36.508L400 345l251.769-234.41Z"/><path fill="#f44336" d="M702.088 180.444q4.04 7.416 7.71 15.02 3.671 7.606 6.965 15.382t6.2 15.704q2.909 7.929 5.424 15.99t4.632 16.237q2.116 8.175 3.83 16.444 1.712 8.27 3.018 16.612 1.305 8.344 2.199 16.74.894 8.398 1.375 16.83.481 8.43.548 16.875t-.28 16.882-1.11 16.848q-.76 8.41-1.934 16.773t-2.754 16.658q-1.582 8.295-3.57 16.503-1.986 8.207-4.374 16.308t-5.169 16.073q-2.782 7.974-5.952 15.8-3.17 7.828-6.72 15.49-3.55 7.663-7.471 15.141-3.922 7.48-8.206 14.757t-8.92 14.336q-4.636 7.058-9.613 13.88t-10.282 13.393-10.927 12.872-11.545 12.32-12.136 11.739-12.697 11.13-13.228 10.492-13.727 9.831-14.193 9.146-14.625 8.438q-4.884 2.661-9.853 5.163-4.968 2.501-10.015 4.84-5.046 2.34-10.166 4.516-5.12 2.175-10.306 4.183-5.188 2.01-10.437 3.849-5.25 1.84-10.556 3.509t-10.663 3.166q-5.357 1.496-10.76 2.819t-10.846 2.47-10.92 2.118q-5.477.97-10.983 1.764-5.506.793-11.034 1.408t-11.074 1.05-11.102.692-11.118.333-11.124-.028-11.117-.386-11.098-.746-11.069-1.105-11.027-1.461-10.974-1.818-10.91-2.171-10.833-2.523q-5.396-1.35-10.746-2.872-5.35-1.523-10.648-3.218t-10.539-3.56-10.417-3.9-10.287-4.234-10.144-4.564-9.99-4.89-9.828-5.21-9.654-5.526q-7.26-4.313-14.3-8.977-7.041-4.663-13.844-9.667t-13.351-10.335-12.829-10.978q-6.28-5.646-12.274-11.594-5.995-5.947-11.691-12.182t-11.079-12.741q-5.383-6.507-10.44-13.27-5.058-6.763-9.777-13.766-4.72-7.002-9.09-14.229t-8.38-14.657q-4.01-7.432-7.65-15.052-3.642-7.62-6.904-15.408-3.263-7.79-6.14-15.73-2.875-7.939-5.359-16.01t-4.567-16.255q-2.085-8.184-3.765-16.46-1.68-8.275-2.952-16.624t-2.133-16.749-1.31-16.833-.48-16.878q-.034-8.445.347-16.88.381-8.437 1.176-16.844t2-16.765 2.82-16.648q1.616-8.288 3.635-16.488 2.02-8.2 4.439-16.29t5.233-16.054 6.014-15.777 6.781-15.462 7.532-15.112 8.264-14.723q2.84-4.783 5.835-9.47 2.994-4.689 6.137-9.278 3.144-4.588 6.435-9.073t6.725-8.861 7.007-8.639q3.574-4.262 7.283-8.407t7.552-8.168q3.841-4.023 7.81-7.92 3.97-3.896 8.064-7.662t8.307-7.398 8.542-7.125 8.767-6.846 8.985-6.559q4.545-3.206 9.191-6.264t9.39-5.964q4.743-2.907 9.577-5.658 4.835-2.751 9.755-5.345t9.923-5.026q5.003-2.434 10.08-4.704 5.079-2.27 10.228-4.375t10.363-4.041q5.214-1.938 10.488-3.705 5.275-1.768 10.603-3.364 5.329-1.596 10.706-3.019 5.378-1.423 10.798-2.671 5.42-1.249 10.879-2.321t10.948-1.968 11.006-1.613q5.516-.718 11.052-1.257 5.537-.538 11.087-.898 5.551-.36 11.111-.54Q394.438 1 400 1v344z"/><path fill="none" stroke="#fff" stroke-linejoin="bevel" stroke-width="2" d="M702.088 180.444q4.04 7.416 7.71 15.02 3.671 7.606 6.965 15.382t6.2 15.704q2.909 7.929 5.424 15.99t4.632 16.237q2.116 8.175 3.83 16.444 1.712 8.27 3.018 16.612 1.305 8.344 2.199 16.74.894 8.398 1.375 16.83.481 8.43.548 16.875t-.28 16.882-1.11 16.848q-.76 8.41-1.934 16.773t-2.754 16.658q-1.582 8.295-3.57 16.503-1.986 8.207-4.374 16.308t-5.169 16.073q-2.782 7.974-5.952 15.8-3.17 7.828-6.72 15.49-3.55 7.663-7.471 15.141-3.922 7.48-8.206 14.757t-8.92 14.336q-4.636 7.058-9.613 13.88t-10.282 13.393-10.927 12.872-11.545 12.32-12.136 11.739-12.697 11.13-13.228 10.492-13.727 9.831-14.193 9.146-14.625 8.438q-4.884 2.661-9.853 5.163-4.968 2.501-10.015 4.84-5.046 2.34-10.166 4.516-5.12 2.175-10.306 4.183-5.188 2.01-10.437 3.849-5.25 1.84-10.556 3.509t-10.663 3.166q-5.357 1.496-10.76 2.819t-10.846 2.47-10.92 2.118q-5.477.97-10.983 1.764-5.506.793-11.034 1.408t-11.074 1.05-11.102.692-11.118.333-11.124-.028-11.117-.386-11.098-.746-11.069-1.105-11.027-1.461-10.974-1.818-10.91-2.171-10.833-2.523q-5.396-1.35-10.746-2.872-5.35-1.523-10.648-3.218t-10.539-3.56-10.417-3.9-10.287-4.234-10.144-4.564-9.99-4.89-9.828-5.21-9.654-5.526q-7.26-4.313-14.3-8.977-7.041-4.663-13.844-9.667t-13.351-10.335-12.829-10.978q-6.28-5.646-12.274-11.594-5.995-5.947-11.691-12.182t-11.079-12.741q-5.383-6.507-10.44-13.27-5.058-6.763-9.777-13.766-4.72-7.002-9.09-14.229t-8.38-14.657q-4.01-7.432-7.65-15.052-3.642-7.62-6.904-15.408-3.263-7.79-6.14-15.73-2.875-7.939-5.359-16.01t-4.567-16.255q-2.085-8.184-3.765-16.46-1.68-8.275-2.952-16.624t-2.133-16.749-1.31-16.833-.48-16.878q-.034-8.445.347-16.88.381-8.437 1.176-16.844t2-16.765 2.82-16.648q1.616-8.288 3.635-16.488 2.02-8.2 4.439-16.29t5.233-16.054 6.014-15.777 6.781-15.462 7.532-15.112 8.264-14.723q2.84-4.783 5.835-9.47 2.994-4.689 6.137-9.278 3.144-4.588 6.435-9.073t6.725-8.861 7.007-8.639q3.574-4.262 7.283-8.407t7.552-8.168q3.841-4.023 7.81-7.92 3.97-3.896 8.064-7.662t8.307-7.398 8.542-7.125 8.767-6.846 8.985-6.559q4.545-3.206 9.191-6.264t9.39-5.964q4.743-2.907 9.577-5.658 4.835-2.751 9.755-5.345t9.923-5.026q5.003-2.434 10.08-4.704 5.079-2.27 10.228-4.375t10.363-4.041q5.214-1.938 10.488-3.705 5.275-1.768 10.603-3.364 5.329-1.596 10.706-3.019 5.378-1.423 10.798-2.671 5.42-1.249 10.879-2.321t10.948-1.968 11.006-1.613q5.516-.718 11.052-1.257 5.537-.538 11.087-.898 5.551-.36 11.111-.54Q394.438 1 400 1v344l302.088-164.556Z"/></svg>