<svg xmlns="http://www.w3.org/2000/svg" width="800" height="800"><path fill="none" d="M0 0h800v800H0z"/><clipPath id="a"><path d="M0 740h800v60H0z"/></clipPath><g clip-path="url(#a)"><path fill="#4caf50" d="M144.605 770h40v20h-40z"/><path fill="none" stroke="#fff" stroke-miterlimit="10" stroke-width="2" d="M144.605 770h40v20h-40z"/><text x="194.605, 207.94484, 217.50539, 230.38625, 240.64992, 248.68703, 260.52295," y="787.5," fill="#666" font-family="DejaVu Serif" font-size="20">Trusted</text><path fill="#ff9800" d="M303.325 770h40v20h-40z"/><path fill="none" stroke="#fff" stroke-miterlimit="10" stroke-width="2" d="M303.325 770h40v20h-40z"/><text x="353.32501, 366.78204, 376.34259, 388.38361, 399.68243, 411.51837, 424.39923, 436.32306, 449.20392, 460.40509," y="787.5," fill="#666" font-family="DejaVu Serif" font-size="20">Provenance</text><path fill="#f44336" d="M502.245 770h40v20h-40z"/><path fill="none" stroke="#fff" stroke-miterlimit="10" stroke-width="2" d="M502.245 770h40v20h-40z"/><text x="552.245, 569.10046, 581.98132, 590.01843, 599.57898, 612.45984, 622.72351, 630.76062, 642.59656," y="787.5," fill="#666" font-family="DejaVu Serif" font-size="20">Untrusted</text></g><path fill="#4caf50" d="M400 1q7.076 0 14.148.271 7.07.272 14.127.814 7.055.542 14.085 1.354t14.023 1.894 13.94 2.43 13.837 2.963 13.713 3.49 13.569 4.015 13.405 4.53 13.221 5.043q6.563 2.648 13.019 5.545 6.456 2.898 12.796 6.04t12.555 6.527q6.216 3.384 12.296 7.003 6.081 3.62 12.019 7.47t11.723 7.924L400 370z"/><path fill="none" stroke="#fff" stroke-linejoin="bevel" stroke-width="2" d="M400 1q7.076 0 14.148.271 7.07.272 14.127.814 7.055.542 14.085 1.354t14.023 1.894 13.94 2.43 13.837 2.963 13.713 3.49 13.569 4.015 13.405 4.53 13.221 5.043q6.563 2.648 13.019 5.545 6.456 2.898 12.796 6.04t12.555 6.527q6.216 3.384 12.296 7.003 6.081 3.62 12.019 7.47t11.723 7.924L400 370z"/><path fill="#ff9800" d="M612.476 68.313q10.755 7.575 20.943 15.896t19.759 17.348 18.473 18.71 17.094 19.978L400 370z"/><path fill="none" stroke="#fff" stroke-linejoin="bevel" stroke-width="2" d="M612.476 68.313q10.755 7.575 20.943 15.896t19.759 17.348 18.473 18.71 17.094 19.978L400 370 612.476 68.313Z"/><path fill="#f44336" d="M688.745 140.245q5.64 7.089 10.926 14.445 5.286 7.357 10.204 14.964t9.457 15.446 8.688 15.891q4.149 8.053 7.898 16.3 3.749 8.245 7.088 16.666 3.34 8.42 6.262 16.994 2.923 8.574 5.421 17.281t4.566 17.527 3.701 17.729 2.826 17.89 1.946 18.006 1.059 18.08.17 18.111q-.136 9.058-.717 18.097t-1.605 18.04q-1.024 9-2.489 17.94t-3.365 17.796-4.235 17.61q-2.334 8.752-5.094 17.38t-5.94 17.11-6.773 16.797-7.589 16.445q-3.996 8.13-8.386 16.052-4.39 7.924-9.165 15.622-4.774 7.699-9.92 15.154-5.145 7.455-10.65 14.648-5.506 7.194-11.358 14.108t-12.036 13.534q-6.183 6.62-12.685 12.927-6.501 6.308-13.304 12.289t-13.891 11.621q-5.06 4.027-10.259 7.873-5.198 3.847-10.527 7.509-5.33 3.662-10.785 7.135t-11.028 6.753-11.257 6.362-11.474 5.964-11.675 5.559-11.863 5.145q-5.977 2.47-12.037 4.727t-12.194 4.303q-6.135 2.044-12.338 3.872t-12.465 3.438-12.579 2.999-12.676 2.556-12.758 2.11q-6.397.945-12.823 1.663-6.427.72-12.875 1.212-6.447.493-12.908.76t-12.928.308-12.93-.146-12.917-.599q-6.454-.412-12.889-1.05-6.435-.64-12.843-1.503t-12.783-1.95q-6.375-1.088-12.707-2.398t-12.615-2.842-12.508-3.281q-6.225-1.751-12.385-3.718t-12.247-4.15-12.095-4.576-11.926-4.997-11.744-5.412q-8.16-3.935-16.116-8.265t-15.69-9.046-15.228-9.805q-7.494-5.09-14.729-10.54-7.235-5.451-14.193-11.25-6.959-5.8-13.625-11.934-6.665-6.134-13.022-12.587-6.357-6.454-12.39-13.211-6.032-6.758-11.725-13.804-5.694-7.045-11.035-14.361-5.34-7.317-10.316-14.886-4.976-7.57-9.574-15.375t-8.808-15.825q-4.21-8.02-8.02-16.239-3.811-8.217-7.215-16.612t-6.39-16.947q-2.987-8.552-5.551-17.24t-4.699-17.491-3.834-17.7-2.962-17.869-2.08-17.991-1.197-18.072-.307-18.109.58-18.102 1.47-18.052 2.352-17.958 3.231-17.82 4.102-17.641 4.962-17.419 5.811-17.154 6.646-16.848 7.464-16.501q2.81-5.825 5.82-11.548 3.012-5.722 6.222-11.336t6.614-11.111 7-10.873 7.377-10.62q3.78-5.247 7.744-10.357 3.962-5.11 8.102-10.078t8.45-9.788 8.788-9.486 9.115-9.172 9.431-8.847 9.735-8.511 10.027-8.165 10.308-7.81 10.574-7.442 10.829-7.067q5.476-3.44 11.07-6.684 5.593-3.245 11.297-6.292t11.51-5.892 11.71-5.486 11.896-5.071 12.065-4.652 12.221-4.226 12.362-3.795 12.487-3.36 12.597-2.92T335.67 6.65q6.368-1.128 12.771-2.031t12.834-1.582q6.43-.68 12.882-1.132 6.45-.453 12.913-.68Q393.533 1 400 1v369z"/><path fill="none" stroke="#fff" stroke-linejoin="bevel" stroke-width="2" d="M688.745 140.245q5.64 7.089 10.926 14.445 5.286 7.357 10.204 14.964t9.457 15.446 8.688 15.891q4.149 8.053 7.898 16.3 3.749 8.245 7.088 16.666 3.34 8.42 6.262 16.994 2.923 8.574 5.421 17.281t4.566 17.527 3.701 17.729 2.826 17.89 1.946 18.006 1.059 18.08.17 18.111q-.136 9.058-.717 18.097t-1.605 18.04q-1.024 9-2.489 17.94t-3.365 17.796-4.235 17.61q-2.334 8.752-5.094 17.38t-5.94 17.11-6.773 16.797-7.589 16.445q-3.996 8.13-8.386 16.052-4.39 7.924-9.165 15.622-4.774 7.699-9.92 15.154-5.145 7.455-10.65 14.648-5.506 7.194-11.358 14.108t-12.036 13.534q-6.183 6.62-12.685 12.927-6.501 6.308-13.304 12.289t-13.891 11.621q-5.06 4.027-10.259 7.873-5.198 3.847-10.527 7.509-5.33 3.662-10.785 7.135t-11.028 6.753-11.257 6.362-11.474 5.964-11.675 5.559-11.863 5.145q-5.977 2.47-12.037 4.727t-12.194 4.303q-6.135 2.044-12.338 3.872t-12.465 3.438-12.579 2.999-12.676 2.556-12.758 2.11q-6.397.945-12.823 1.663-6.427.72-12.875 1.212-6.447.493-12.908.76t-12.928.308-12.93-.146-12.917-.599q-6.454-.412-12.889-1.05-6.435-.64-12.843-1.503t-12.783-1.95q-6.375-1.088-12.707-2.398t-12.615-2.842-12.508-3.281q-6.225-1.751-12.385-3.718t-12.247-4.15-12.095-4.576-11.926-4.997-11.744-5.412q-8.16-3.935-16.116-8.265t-15.69-9.046-15.228-9.805q-7.494-5.09-14.729-10.54-7.235-5.451-14.193-11.25-6.959-5.8-13.625-11.934-6.665-6.134-13.022-12.587-6.357-6.454-12.39-13.211-6.032-6.758-11.725-13.804-5.694-7.045-11.035-14.361-5.34-7.317-10.316-14.886-4.976-7.57-9.574-15.375t-8.808-15.825q-4.21-8.02-8.02-16.239-3.811-8.217-7.215-16.612t-6.39-16.947q-2.987-8.552-5.551-17.24t-4.699-17.491-3.834-17.7-2.962-17.869-2.08-17.991-1.197-18.072-.307-18.109.58-18.102 1.47-18.052 2.352-17.958 3.231-17.82 4.102-17.641 4.962-17.419 5.811-17.154 6.646-16.848 7.464-16.501q2.81-5.825 5.82-11.548 3.012-5.722 6.222-11.336t6.614-11.111 7-10.873 7.377-10.62q3.78-5.247 7.744-10.357 3.962-5.11 8.102-10.078t8.45-9.788 8.788-9.486 9.115-9.172 9.431-8.847 9.735-8.511 10.027-8.165 10.308-7.81 10.574-7.442 10.829-7.067q5.476-3.44 11.07-6.684 5.593-3.245 11.297-6.292t11.51-5.892 11.71-5.486 11.896-5.071 12.065-4.652 12.221-4.226 12.362-3.795 12.487-3.36 12.597-2.92T335.67 6.65q6.368-1.128 12.771-2.031t12.834-1.582q6.43-.68 12.882-1.132 6.45-.453 12.913-.68Q393.533 1 400 1v369l288.745-229.755Z"/></svg>