<svg xmlns="http://www.w3.org/2000/svg" width="800" height="800"><path fill="none" d="M0 0h800v800H0z"/><clipPath id="a"><path d="M0 740h800v60H0z"/></clipPath><g clip-path="url(#a)"><path fill="#4caf50" d="M144.605 770h40v20h-40z"/><path fill="none" stroke="#fff" stroke-miterlimit="10" stroke-width="2" d="M144.605 770h40v20h-40z"/><text x="194.605, 207.94484, 217.50539, 230.38625, 240.64992, 248.68703, 260.52295," y="787.5," fill="#666" font-family="DejaVu Serif" font-size="20">Trusted</text><path fill="#ff9800" d="M303.325 770h40v20h-40z"/><path fill="none" stroke="#fff" stroke-miterlimit="10" stroke-width="2" d="M303.325 770h40v20h-40z"/><text x="353.32501, 366.78204, 376.34259, 388.38361, 399.68243, 411.51837, 424.39923, 436.32306, 449.20392, 460.40509," y="787.5," fill="#666" font-family="DejaVu Serif" font-size="20">Provenance</text><path fill="#f44336" d="M502.245 770h40v20h-40z"/><path fill="none" stroke="#fff" stroke-miterlimit="10" stroke-width="2" d="M502.245 770h40v20h-40z"/><text x="552.245, 569.10046, 581.98132, 590.01843, 599.57898, 612.45984, 622.72351, 630.76062, 642.59656," y="787.5," fill="#666" font-family="DejaVu Serif" font-size="20">Untrusted</text></g><path fill="#4caf50" d="M400 1q7.748 0 15.489.325 7.74.325 15.461.975 7.72.65 15.407 1.623 7.687.974 15.325 2.269 7.64 1.295 15.217 2.91 7.577 1.614 15.08 3.546 7.504 1.93 14.92 4.175 7.415 2.245 14.73 4.799t14.516 5.412 14.276 6.017 14.01 6.611q6.937 3.453 13.722 7.193t13.407 7.763q6.622 4.022 13.07 8.319 6.446 4.296 12.708 8.86 6.261 4.563 12.325 9.385L400 370z"/><path fill="none" stroke="#fff" stroke-linejoin="bevel" stroke-width="2" d="M400 1q7.748 0 15.489.325 7.74.325 15.461.975 7.72.65 15.407 1.623 7.687.974 15.325 2.269 7.64 1.295 15.217 2.91 7.577 1.614 15.08 3.546 7.504 1.93 14.92 4.175 7.415 2.245 14.73 4.799t14.516 5.412 14.276 6.017 14.01 6.611q6.937 3.453 13.722 7.193t13.407 7.763q6.622 4.022 13.07 8.319 6.446 4.296 12.708 8.86 6.261 4.563 12.325 9.385L400 370z"/><path fill="#ff9800" d="M629.663 81.182q10.053 7.994 19.525 16.667 9.473 8.673 18.32 17.984 8.846 9.31 17.023 19.214 8.178 9.904 15.648 20.352L400 370z"/><path fill="none" stroke="#fff" stroke-linejoin="bevel" stroke-width="2" d="M629.663 81.182q10.053 7.994 19.525 16.667 9.473 8.673 18.32 17.984 8.846 9.31 17.023 19.214 8.178 9.904 15.648 20.352L400 370 629.663 81.182Z"/><path fill="#f44336" d="M700.179 155.399q5.268 7.369 10.168 14.987t9.42 15.469 8.651 15.912 7.86 16.317 7.049 16.683 6.222 17.01q2.902 8.58 5.38 17.294 2.477 8.713 4.524 17.537t3.66 17.738q1.61 8.913 2.783 17.896 1.173 8.982 1.903 18.011t1.017 18.083q.286 9.054.128 18.11-.159 9.058-.761 18.096-.603 9.039-1.648 18.037t-2.53 17.933-3.408 17.788-4.277 17.6-5.134 17.368-5.981 17.095-6.813 16.782-7.627 16.427-8.425 16.032-9.2 15.6-9.956 15.13q-5.164 7.443-10.686 14.624-5.523 7.18-11.39 14.08-5.869 6.902-12.068 13.506-6.2 6.605-12.716 12.897-6.516 6.293-13.333 12.258t-13.92 11.588q-7.1 5.624-14.47 10.892-5.14 3.674-10.402 7.17t-10.642 6.811-10.868 6.443-11.083 6.066-11.284 5.683-11.472 5.294q-5.782 2.549-11.647 4.898-5.865 2.35-11.807 4.496-5.943 2.148-11.955 4.09t-12.087 3.678q-6.075 1.735-12.206 3.262t-12.311 2.841-12.4 2.42-12.477 1.992q-6.255.89-12.537 1.565t-12.584 1.135-12.615.703-12.631.27-12.634-.161q-6.315-.19-12.62-.594-6.306-.405-12.593-1.026-6.288-.62-12.55-1.457-6.263-.835-12.494-1.885t-12.421-2.312q-6.19-1.262-12.335-2.735-6.144-1.474-12.234-3.157t-12.118-3.573q-6.03-1.89-11.99-3.986t-11.845-4.394-11.689-4.798q-5.803-2.498-11.517-5.194t-11.333-5.586q-8.055-4.144-15.897-8.677-7.843-4.534-15.453-9.447t-14.97-10.193-14.453-10.916-13.9-11.611-13.312-12.28-12.695-12.918q-6.188-6.615-12.045-13.525t-11.367-14.1-10.661-14.641-9.93-15.147q-4.78-7.695-9.176-15.615t-8.398-16.047-7.6-16.44-6.784-16.792-5.953-17.106-5.106-17.377q-2.34-8.75-4.247-17.606-1.907-8.855-3.378-17.794-1.47-8.938-2.5-17.938t-1.618-18.039q-.588-9.039-.73-18.096-.144-9.058.157-18.111.302-9.053 1.047-18.081t1.933-18.008 2.814-17.892q1.626-8.91 3.688-17.731t4.554-17.53q2.492-8.709 5.409-17.285t6.25-16.999 7.077-16.671q3.743-8.25 7.886-16.305 2.89-5.618 5.97-11.134 3.081-5.517 6.349-10.924 3.267-5.408 6.718-10.7 3.451-5.293 7.081-10.464t7.435-10.216 7.78-9.954 8.117-9.683 8.443-9.4 8.76-9.104 9.067-8.799 9.362-8.484q4.754-4.161 9.648-8.158 4.893-3.996 9.921-7.823t10.183-7.48q5.156-3.651 10.433-7.125t10.671-6.765 10.897-6.395q5.503-3.104 11.109-6.018 5.606-2.915 11.308-5.635 5.703-2.72 11.495-5.244t11.668-4.848 11.826-4.445q5.952-2.122 11.972-4.038t12.103-3.626 12.22-3.209 12.323-2.789 12.412-2.365q6.225-1.077 12.484-1.94 6.26-.862 12.544-1.51t12.589-1.08q6.303-.432 12.617-.649Q393.682 1 400 1v369z"/><path fill="none" stroke="#fff" stroke-linejoin="bevel" stroke-width="2" d="M700.179 155.399q5.268 7.369 10.168 14.987t9.42 15.469 8.651 15.912 7.86 16.317 7.049 16.683 6.222 17.01q2.902 8.58 5.38 17.294 2.477 8.713 4.524 17.537t3.66 17.738q1.61 8.913 2.783 17.896 1.173 8.982 1.903 18.011t1.017 18.083q.286 9.054.128 18.11-.159 9.058-.761 18.096-.603 9.039-1.648 18.037t-2.53 17.933-3.408 17.788-4.277 17.6-5.134 17.368-5.981 17.095-6.813 16.782-7.627 16.427-8.425 16.032-9.2 15.6-9.956 15.13q-5.164 7.443-10.686 14.624-5.523 7.18-11.39 14.08-5.869 6.902-12.068 13.506-6.2 6.605-12.716 12.897-6.516 6.293-13.333 12.258t-13.92 11.588q-7.1 5.624-14.47 10.892-5.14 3.674-10.402 7.17t-10.642 6.811-10.868 6.443-11.083 6.066-11.284 5.683-11.472 5.294q-5.782 2.549-11.647 4.898-5.865 2.35-11.807 4.496-5.943 2.148-11.955 4.09t-12.087 3.678q-6.075 1.735-12.206 3.262t-12.311 2.841-12.4 2.42-12.477 1.992q-6.255.89-12.537 1.565t-12.584 1.135-12.615.703-12.631.27-12.634-.161q-6.315-.19-12.62-.594-6.306-.405-12.593-1.026-6.288-.62-12.55-1.457-6.263-.835-12.494-1.885t-12.421-2.312q-6.19-1.262-12.335-2.735-6.144-1.474-12.234-3.157t-12.118-3.573q-6.03-1.89-11.99-3.986t-11.845-4.394-11.689-4.798q-5.803-2.498-11.517-5.194t-11.333-5.586q-8.055-4.144-15.897-8.677-7.843-4.534-15.453-9.447t-14.97-10.193-14.453-10.916-13.9-11.611-13.312-12.28-12.695-12.918q-6.188-6.615-12.045-13.525t-11.367-14.1-10.661-14.641-9.93-15.147q-4.78-7.695-9.176-15.615t-8.398-16.047-7.6-16.44-6.784-16.792-5.953-17.106-5.106-17.377q-2.34-8.75-4.247-17.606-1.907-8.855-3.378-17.794-1.47-8.938-2.5-17.938t-1.618-18.039q-.588-9.039-.73-18.096-.144-9.058.157-18.111.302-9.053 1.047-18.081t1.933-18.008 2.814-17.892q1.626-8.91 3.688-17.731t4.554-17.53q2.492-8.709 5.409-17.285t6.25-16.999 7.077-16.671q3.743-8.25 7.886-16.305 2.89-5.618 5.97-11.134 3.081-5.517 6.349-10.924 3.267-5.408 6.718-10.7 3.451-5.293 7.081-10.464t7.435-10.216 7.78-9.954 8.117-9.683 8.443-9.4 8.76-9.104 9.067-8.799 9.362-8.484q4.754-4.161 9.648-8.158 4.893-3.996 9.921-7.823t10.183-7.48q5.156-3.651 10.433-7.125t10.671-6.765 10.897-6.395q5.503-3.104 11.109-6.018 5.606-2.915 11.308-5.635 5.703-2.72 11.495-5.244t11.668-4.848 11.826-4.445q5.952-2.122 11.972-4.038t12.103-3.626 12.22-3.209 12.323-2.789 12.412-2.365q6.225-1.077 12.484-1.94 6.26-.862 12.544-1.51t12.589-1.08q6.303-.432 12.617-.649Q393.682 1 400 1v369l300.179-214.601Z"/></svg>