<svg xmlns="http://www.w3.org/2000/svg" width="800" height="800"><path fill="none" d="M0 0h800v800H0z"/><clipPath id="a"><path d="M0 690h800v110H0z"/></clipPath><g clip-path="url(#a)"><path fill="#4caf50" d="M123.3 720h40v20h-40z"/><path fill="none" stroke="#fff" stroke-miterlimit="10" stroke-width="2" d="M123.3 720h40v20h-40z"/><path fill="#ff9800" d="M377.64 720h40v20h-40z"/><path fill="none" stroke="#fff" stroke-miterlimit="10" stroke-width="2" d="M377.64 720h40v20h-40z"/><path fill="#f44336" d="M262.92 770h40v20h-40z"/><path fill="none" stroke="#fff" stroke-miterlimit="10" stroke-width="2" d="M262.92 770h40v20h-40z"/></g><path fill="#4caf50" d="M400 1q4.774 0 9.546.132 4.772.133 9.54.398 4.766.265 9.523.662 4.758.397 9.503.926 4.744.529 9.472 1.189 4.729.66 9.437 1.452t9.392 1.713q4.684.921 9.341 1.973 4.657 1.051 9.283 2.231t9.217 2.488 9.145 2.743 9.065 2.996 8.978 3.246 8.885 3.494q4.418 1.81 8.784 3.74t8.678 3.981q4.31 2.051 8.563 4.221 4.252 2.17 8.443 4.457t8.316 4.69 8.183 4.918 8.043 5.144 7.897 5.365 7.746 5.582 7.587 5.794 7.424 6.003 7.254 6.207 7.08 6.406 6.898 6.6 6.713 6.788q3.31 3.441 6.522 6.972t6.326 7.151 6.125 7.323L400 345z"/><path fill="none" stroke="#fff" stroke-linejoin="bevel" stroke-width="2" d="M400 1q4.774 0 9.546.132 4.772.133 9.54.398 4.766.265 9.523.662 4.758.397 9.503.926 4.744.529 9.472 1.189 4.729.66 9.437 1.452t9.392 1.713q4.684.921 9.341 1.973 4.657 1.051 9.283 2.231t9.217 2.488 9.145 2.743 9.065 2.996 8.978 3.246 8.885 3.494q4.418 1.81 8.784 3.74t8.678 3.981q4.31 2.051 8.563 4.221 4.252 2.17 8.443 4.457t8.316 4.69 8.183 4.918 8.043 5.144 7.897 5.365 7.746 5.582 7.587 5.794 7.424 6.003 7.254 6.207 7.08 6.406 6.898 6.6 6.713 6.788q3.31 3.441 6.522 6.972t6.326 7.151 6.125 7.323L400 345z"/><path fill="#ff9800" d="M666.91 127.985q13.332 16.398 24.557 34.305t20.174 37.054L400 345z"/><path fill="none" stroke="#fff" stroke-linejoin="bevel" stroke-width="2" d="M666.91 127.985q13.332 16.398 24.557 34.305t20.174 37.054L400 345l266.91-217.015Z"/><path fill="#f44336" d="M711.641 199.344q3.576 7.65 6.772 15.467 3.196 7.816 6.004 15.78 2.809 7.964 5.223 16.056 2.415 8.093 4.43 16.294 2.014 8.2 3.623 16.49t2.81 16.65q1.202 8.358 1.991 16.766t1.165 16.844.337 16.881q-.038 8.445-.491 16.877-.453 8.433-1.32 16.833-.865 8.4-2.143 16.748-1.277 8.347-2.962 16.622t-3.775 16.457q-2.09 8.182-4.577 16.252-2.489 8.07-5.37 16.008t-6.148 15.725-6.913 15.404q-3.646 7.618-7.66 15.047t-8.39 14.653q-4.374 7.223-9.098 14.223-4.723 7-9.785 13.76-5.061 6.76-10.448 13.263t-11.087 12.735q-5.7 6.23-11.698 12.175-5.999 5.944-12.282 11.586t-12.835 10.97-13.358 10.327-13.849 9.659-14.306 8.968-14.729 8.255q-7.465 3.947-15.116 7.522-4.889 2.285-9.848 4.416-4.958 2.13-9.981 4.105-5.023 1.974-10.106 3.79-5.082 1.815-10.219 3.47t-10.323 3.149-10.417 2.823-10.5 2.495-10.574 2.164q-5.303 1-10.636 1.831-5.332.833-10.688 1.497t-10.73 1.161-10.761.824q-5.387.328-10.782.486t-10.791.147-10.791-.191-10.78-.53-10.758-.867-10.725-1.205-10.682-1.54-10.629-1.875-10.564-2.208-10.49-2.537-10.405-2.866-10.31-3.19-10.206-3.513-10.09-3.83-9.964-4.146q-4.95-2.15-9.83-4.456-4.88-2.305-9.685-4.762t-9.532-5.063-9.367-5.36-9.195-5.652q-7.124-4.534-14.017-9.412t-13.539-10.09-13.027-10.74-12.485-11.368-11.911-11.966-11.31-12.536q-5.502-6.407-10.682-13.077-5.18-6.669-10.027-13.584-4.847-6.916-9.348-14.06t-8.648-14.502-7.925-14.91q-3.78-7.55-7.184-15.279-3.404-7.728-6.426-15.614-3.02-7.886-5.651-15.91t-4.865-16.169-4.065-16.387q-1.831-8.244-3.256-16.568-1.425-8.323-2.44-16.707t-1.616-16.807-.79-16.866q-.188-8.442.039-16.884.226-8.442.867-16.862.64-8.42 1.693-16.8 1.053-8.378 2.516-16.695 1.462-8.317 3.332-16.553 1.869-8.235 4.14-16.368 2.27-8.134 4.938-16.147t5.724-15.884 6.497-15.584 7.254-15.247 7.993-14.872q4.18-7.339 8.714-14.463 2.897-4.553 5.937-9.013 3.039-4.46 6.216-8.822t6.49-8.623q3.314-4.26 6.759-8.415t7.018-8.199 7.272-7.975q3.699-3.93 7.519-7.742 3.82-3.813 7.758-7.503t7.99-7.256 8.213-7.002 8.429-6.74 8.636-6.473q4.368-3.17 8.835-6.2 4.466-3.03 9.025-5.918 4.558-2.888 9.206-5.632t9.378-5.341 9.542-5.045q4.81-2.447 9.694-4.742t9.84-4.436 9.972-4.125 10.098-3.81 10.212-3.492 10.317-3.17 10.411-2.843 10.495-2.517 10.57-2.186 10.632-1.853 10.685-1.518 10.728-1.183 10.759-.846 10.78-.508T400 1v344z"/><path fill="none" stroke="#fff" stroke-linejoin="bevel" stroke-width="2" d="M711.641 199.344q3.576 7.65 6.772 15.467 3.196 7.816 6.004 15.78 2.809 7.964 5.223 16.056 2.415 8.093 4.43 16.294 2.014 8.2 3.623 16.49t2.81 16.65q1.202 8.358 1.991 16.766t1.165 16.844.337 16.881q-.038 8.445-.491 16.877-.453 8.433-1.32 16.833-.865 8.4-2.143 16.748-1.277 8.347-2.962 16.622t-3.775 16.457q-2.09 8.182-4.577 16.252-2.489 8.07-5.37 16.008t-6.148 15.725-6.913 15.404q-3.646 7.618-7.66 15.047t-8.39 14.653q-4.374 7.223-9.098 14.223-4.723 7-9.785 13.76-5.061 6.76-10.448 13.263t-11.087 12.735q-5.7 6.23-11.698 12.175-5.999 5.944-12.282 11.586t-12.835 10.97-13.358 10.327-13.849 9.659-14.306 8.968-14.729 8.255q-7.465 3.947-15.116 7.522-4.889 2.285-9.848 4.416-4.958 2.13-9.981 4.105-5.023 1.974-10.106 3.79-5.082 1.815-10.219 3.47t-10.323 3.149-10.417 2.823-10.5 2.495-10.574 2.164q-5.303 1-10.636 1.831-5.332.833-10.688 1.497t-10.73 1.161-10.761.824q-5.387.328-10.782.486t-10.791.147-10.791-.191-10.78-.53-10.758-.867-10.725-1.205-10.682-1.54-10.629-1.875-10.564-2.208-10.49-2.537-10.405-2.866-10.31-3.19-10.206-3.513-10.09-3.83-9.964-4.146q-4.95-2.15-9.83-4.456-4.88-2.305-9.685-4.762t-9.532-5.063-9.367-5.36-9.195-5.652q-7.124-4.534-14.017-9.412t-13.539-10.09-13.027-10.74-12.485-11.368-11.911-11.966-11.31-12.536q-5.502-6.407-10.682-13.077-5.18-6.669-10.027-13.584-4.847-6.916-9.348-14.06t-8.648-14.502-7.925-14.91q-3.78-7.55-7.184-15.279-3.404-7.728-6.426-15.614-3.02-7.886-5.651-15.91t-4.865-16.169-4.065-16.387q-1.831-8.244-3.256-16.568-1.425-8.323-2.44-16.707t-1.616-16.807-.79-16.866q-.188-8.442.039-16.884.226-8.442.867-16.862.64-8.42 1.693-16.8 1.053-8.378 2.516-16.695 1.462-8.317 3.332-16.553 1.869-8.235 4.14-16.368 2.27-8.134 4.938-16.147t5.724-15.884 6.497-15.584 7.254-15.247 7.993-14.872q4.18-7.339 8.714-14.463 2.897-4.553 5.937-9.013 3.039-4.46 6.216-8.822t6.49-8.623q3.314-4.26 6.759-8.415t7.018-8.199 7.272-7.975q3.699-3.93 7.519-7.742 3.82-3.813 7.758-7.503t7.99-7.256 8.213-7.002 8.429-6.74 8.636-6.473q4.368-3.17 8.835-6.2 4.466-3.03 9.025-5.918 4.558-2.888 9.206-5.632t9.378-5.341 9.542-5.045q4.81-2.447 9.694-4.742t9.84-4.436 9.972-4.125 10.098-3.81 10.212-3.492 10.317-3.17 10.411-2.843 10.495-2.517 10.57-2.186 10.632-1.853 10.685-1.518 10.728-1.183 10.759-.846 10.78-.508T400 1v344l311.641-145.656Z"/></svg>