<svg xmlns="http://www.w3.org/2000/svg" width="800" height="800"><path fill="none" d="M0 0h800v800H0z"/><clipPath id="a"><path d="M0 740h800v60H0z"/></clipPath><g clip-path="url(#a)"><path fill="#4caf50" d="M164.745 770h40v20h-40z"/><path fill="none" stroke="#fff" stroke-miterlimit="10" stroke-width="2" d="M164.745 770h40v20h-40z"/><text x="214.745, 226.2196, 232.87976, 244.00281, 254.00281, 259.55945, 270.6825," y="786.5," fill="#666" font-family="Liberation Sans" font-size="20">Trusted</text><path fill="#ff9800" d="M311.805 770h40v20h-40z"/><path fill="none" stroke="#fff" stroke-miterlimit="10" stroke-width="2" d="M311.805 770h40v20h-40z"/><text x="361.80499, 375.14484, 381.80499, 392.92804, 402.92804, 414.05109, 425.17413, 436.29718, 447.42023, 457.42023," y="786.5," fill="#666" font-family="Liberation Sans" font-size="20">Provenance</text><path fill="#f44336" d="M498.545 770h40v20h-40z"/><path fill="none" stroke="#fff" stroke-miterlimit="10" stroke-width="2" d="M498.545 770h40v20h-40z"/><text x="548.54498, 562.98834, 574.11139, 579.66803, 586.32819, 597.45123, 607.45123, 613.00787, 624.13092," y="786.5," fill="#666" font-family="Liberation Sans" font-size="20">Untrusted</text></g><path fill="#4caf50" d="M400 1q5.7 0 11.397.176t11.386.528 11.364.88 11.332 1.23 11.288 1.579 11.235 1.927 11.169 2.273 11.094 2.618q5.526 1.394 11.007 2.958t10.911 3.297 10.804 3.633 10.687 3.964 10.559 4.293 10.421 4.617 10.274 4.936 10.116 5.252 9.95 5.561 9.773 5.866 9.587 6.165 9.392 6.459 9.188 6.745 8.976 7.026 8.754 7.3 8.524 7.566q4.204 3.85 8.287 7.826 4.083 3.977 8.041 8.079 3.958 4.101 7.788 8.323 3.83 4.221 7.527 8.56 3.697 4.337 7.259 8.787 3.561 4.45 6.984 9.008t6.702 9.22q3.28 4.66 6.415 9.421L400 370z"/><path fill="none" stroke="#fff" stroke-linejoin="bevel" stroke-width="2" d="M400 1q5.7 0 11.397.176t11.386.528 11.364.88 11.332 1.23 11.288 1.579 11.235 1.927 11.169 2.273 11.094 2.618q5.526 1.394 11.007 2.958t10.911 3.297 10.804 3.633 10.687 3.964 10.559 4.293 10.421 4.617 10.274 4.936 10.116 5.252 9.95 5.561 9.773 5.866 9.587 6.165 9.392 6.459 9.188 6.745 8.976 7.026 8.754 7.3 8.524 7.566q4.204 3.85 8.287 7.826 4.083 3.977 8.041 8.079 3.958 4.101 7.788 8.323 3.83 4.221 7.527 8.56 3.697 4.337 7.259 8.787 3.561 4.45 6.984 9.008t6.702 9.22q3.28 4.66 6.415 9.421L400 370z"/><path fill="#ff9800" d="M708.191 167.074q10.686 16.228 19.608 33.49 8.922 17.26 15.982 35.363L400 370z"/><path fill="none" stroke="#fff" stroke-linejoin="bevel" stroke-width="2" d="M708.191 167.074q10.686 16.228 19.608 33.49 8.922 17.26 15.982 35.363L400 370l308.191-202.926Z"/><path fill="#f44336" d="M743.781 235.927q3.292 8.44 6.165 17.03t5.321 17.312q2.448 8.722 4.466 17.553 2.017 8.83 3.599 17.75 1.581 8.92 2.723 17.905 1.143 8.987 1.842 18.018t.956 18.086.067 18.111q-.19 9.057-.822 18.093-.633 9.037-1.709 18.03-1.075 8.995-2.59 17.926-1.517 8.93-3.469 17.776t-4.335 17.585q-2.384 8.74-5.194 17.351-2.81 8.612-6.038 17.075-3.23 8.464-6.87 16.758-3.64 8.295-7.682 16.402-4.043 8.106-8.479 16.004t-9.254 15.569-10.006 15.096-10.735 14.587-11.438 14.043q-5.892 6.88-12.113 13.464-6.222 6.584-12.76 12.854t-13.374 12.212-13.958 11.542-14.507 10.842-15.022 10.118-15.5 9.369-15.942 8.596-16.343 7.805q-8.268 3.7-16.707 6.992-5.218 2.035-10.496 3.91-5.277 1.877-10.609 3.591t-10.713 3.267q-5.381 1.552-10.807 2.94t-10.892 2.61-10.966 2.28-11.03 1.945-11.084 1.61-11.127 1.271-11.161.934-11.185.595-11.197.255-11.2-.084-11.192-.425-11.174-.764-11.146-1.103-11.107-1.44-11.058-1.778-11-2.112-10.93-2.445-10.85-2.775-10.762-3.103q-5.357-1.634-10.662-3.429t-10.554-3.75-10.434-4.07-10.307-4.383-10.169-4.695q-5.048-2.425-10.021-5.001t-9.865-5.303q-4.893-2.727-9.7-5.6-4.807-2.874-9.525-5.892t-9.342-6.178q-7.48-5.111-14.698-10.583-7.22-5.471-14.162-11.29-6.942-5.82-13.59-11.973t-12.986-12.625q-6.338-6.471-12.351-13.246t-11.686-13.837-10.994-14.393-10.274-14.916-9.53-15.402q-4.575-7.817-8.761-15.85-4.187-8.033-7.974-16.262t-7.167-16.633-6.342-16.965-5.501-17.256-4.649-17.504-3.783-17.712-2.91-17.876-2.03-17.998-1.144-18.075-.256-18.11q.094-9.057.633-18.1.539-9.042 1.52-18.047.983-9.005 2.405-17.951 1.423-8.947 3.282-17.812 1.86-8.865 4.153-17.63 2.292-8.763 5.012-17.403t5.86-17.137 6.694-16.83 7.512-16.48 8.311-16.091 9.09-15.665q4.739-7.72 9.85-15.2 3.16-4.624 6.458-9.15t6.734-8.95 7.002-8.741 7.264-8.525 7.52-8.3 7.767-8.07 8.01-7.829 8.243-7.582 8.47-7.329 8.687-7.068 8.899-6.801 9.1-6.529 9.296-6.249 9.48-5.964 9.657-5.673 9.824-5.378 9.983-5.077 10.133-4.772q5.103-2.31 10.273-4.462 5.17-2.154 10.404-4.149 5.233-1.995 10.524-3.83 5.292-1.836 10.636-3.51 5.345-1.674 10.738-3.185t10.83-2.858 10.91-2.528q5.475-1.18 10.983-2.195t11.045-1.861q5.536-.847 11.096-1.525 5.56-.679 11.137-1.188 5.577-.51 11.168-.85T388.8 1.17 400 1v369z"/><path fill="none" stroke="#fff" stroke-linejoin="bevel" stroke-width="2" d="M743.781 235.927q3.292 8.44 6.165 17.03t5.321 17.312q2.448 8.722 4.466 17.553 2.017 8.83 3.599 17.75 1.581 8.92 2.723 17.905 1.143 8.987 1.842 18.018t.956 18.086.067 18.111q-.19 9.057-.822 18.093-.633 9.037-1.709 18.03-1.075 8.995-2.59 17.926-1.517 8.93-3.469 17.776t-4.335 17.585q-2.384 8.74-5.194 17.351-2.81 8.612-6.038 17.075-3.23 8.464-6.87 16.758-3.64 8.295-7.682 16.402-4.043 8.106-8.479 16.004t-9.254 15.569-10.006 15.096-10.735 14.587-11.438 14.043q-5.892 6.88-12.113 13.464-6.222 6.584-12.76 12.854t-13.374 12.212-13.958 11.542-14.507 10.842-15.022 10.118-15.5 9.369-15.942 8.596-16.343 7.805q-8.268 3.7-16.707 6.992-5.218 2.035-10.496 3.91-5.277 1.877-10.609 3.591t-10.713 3.267q-5.381 1.552-10.807 2.94t-10.892 2.61-10.966 2.28-11.03 1.945-11.084 1.61-11.127 1.271-11.161.934-11.185.595-11.197.255-11.2-.084-11.192-.425-11.174-.764-11.146-1.103-11.107-1.44-11.058-1.778-11-2.112-10.93-2.445-10.85-2.775-10.762-3.103q-5.357-1.634-10.662-3.429t-10.554-3.75-10.434-4.07-10.307-4.383-10.169-4.695q-5.048-2.425-10.021-5.001t-9.865-5.303q-4.893-2.727-9.7-5.6-4.807-2.874-9.525-5.892t-9.342-6.178q-7.48-5.111-14.698-10.583-7.22-5.471-14.162-11.29-6.942-5.82-13.59-11.973t-12.986-12.625q-6.338-6.471-12.351-13.246t-11.686-13.837-10.994-14.393-10.274-14.916-9.53-15.402q-4.575-7.817-8.761-15.85-4.187-8.033-7.974-16.262t-7.167-16.633-6.342-16.965-5.501-17.256-4.649-17.504-3.783-17.712-2.91-17.876-2.03-17.998-1.144-18.075-.256-18.11q.094-9.057.633-18.1.539-9.042 1.52-18.047.983-9.005 2.405-17.951 1.423-8.947 3.282-17.812 1.86-8.865 4.153-17.63 2.292-8.763 5.012-17.403t5.86-17.137 6.694-16.83 7.512-16.48 8.311-16.091 9.09-15.665q4.739-7.72 9.85-15.2 3.16-4.624 6.458-9.15t6.734-8.95 7.002-8.741 7.264-8.525 7.52-8.3 7.767-8.07 8.01-7.829 8.243-7.582 8.47-7.329 8.687-7.068 8.899-6.801 9.1-6.529 9.296-6.249 9.48-5.964 9.657-5.673 9.824-5.378 9.983-5.077 10.133-4.772q5.103-2.31 10.273-4.462 5.17-2.154 10.404-4.149 5.233-1.995 10.524-3.83 5.292-1.836 10.636-3.51 5.345-1.674 10.738-3.185t10.83-2.858 10.91-2.528q5.475-1.18 10.983-2.195t11.045-1.861q5.536-.847 11.096-1.525 5.56-.679 11.137-1.188 5.577-.51 11.168-.85T388.8 1.17 400 1v369l343.781-134.072Z"/></svg>