<svg xmlns="http://www.w3.org/2000/svg" width="800" height="800"><path fill="none" d="M0 0h800v800H0z"/><clipPath id="a"><path d="M0 690h800v110H0z"/></clipPath><g clip-path="url(#a)"><path fill="#4caf50" d="M123.3 720h40v20h-40z"/><path fill="none" stroke="#fff" stroke-miterlimit="10" stroke-width="2" d="M123.3 720h40v20h-40z"/><path fill="#ff9800" d="M377.64 720h40v20h-40z"/><path fill="none" stroke="#fff" stroke-miterlimit="10" stroke-width="2" d="M377.64 720h40v20h-40z"/><path fill="#f44336" d="M262.92 770h40v20h-40z"/><path fill="none" stroke="#fff" stroke-miterlimit="10" stroke-width="2" d="M262.92 770h40v20h-40z"/></g><path fill="#4caf50" d="M400 1q4.792 0 9.583.133 4.79.134 9.575.4 4.784.268 9.56.668 4.775.4 9.538.933 4.762.533 9.508 1.198 4.746.666 9.471 1.463 4.726.797 9.427 1.726t9.375 1.988 9.316 2.248 9.25 2.507q4.607 1.318 9.176 2.764t9.096 3.018 9.008 3.27 8.914 3.52 8.812 3.767 8.703 4.011 8.589 4.252 8.467 4.49 8.338 4.723 8.204 4.954 8.062 5.18 7.916 5.404 7.761 5.621 7.602 5.836 7.436 6.045 7.265 6.25q3.59 3.176 7.088 6.45 3.5 3.274 6.906 6.645 3.407 3.37 6.718 6.834t6.525 7.02 6.327 7.197 6.124 7.372L400 345z"/><path fill="none" stroke="#fff" stroke-linejoin="bevel" stroke-width="2" d="M400 1q4.792 0 9.583.133 4.79.134 9.575.4 4.784.268 9.56.668 4.775.4 9.538.933 4.762.533 9.508 1.198 4.746.666 9.471 1.463 4.726.797 9.427 1.726t9.375 1.988 9.316 2.248 9.25 2.507q4.607 1.318 9.176 2.764t9.096 3.018 9.008 3.27 8.914 3.52 8.812 3.767 8.703 4.011 8.589 4.252 8.467 4.49 8.338 4.723 8.204 4.954 8.062 5.18 7.916 5.404 7.761 5.621 7.602 5.836 7.436 6.045 7.265 6.25q3.59 3.176 7.088 6.45 3.5 3.274 6.906 6.645 3.407 3.37 6.718 6.834t6.525 7.02 6.327 7.197 6.124 7.372L400 345z"/><path fill="#ff9800" d="M667.64 128.887q13.277 16.443 24.442 34.388t20.049 37.12L400 345z"/><path fill="none" stroke="#fff" stroke-linejoin="bevel" stroke-width="2" d="M667.64 128.887q13.277 16.443 24.442 34.388t20.049 37.12L400 345l267.64-216.113Z"/><path fill="#f44336" d="M712.13 200.396q3.55 7.662 6.72 15.49 3.17 7.827 5.951 15.8 2.782 7.974 5.17 16.074 2.386 8.1 4.373 16.308t3.569 16.503 2.754 16.658 1.933 16.773q.761 8.41 1.109 16.848.347 8.438.28 16.882t-.548 16.876q-.482 8.43-1.376 16.828-.895 8.397-2.2 16.74-1.305 8.344-3.019 16.613-1.713 8.269-3.83 16.444t-4.632 16.236-5.424 15.99-6.201 15.704-6.965 15.381q-3.67 7.605-7.71 15.021t-8.44 14.624-9.146 14.193q-4.747 6.984-9.831 13.727-5.084 6.742-10.493 13.228t-11.13 12.697-11.74 12.135-12.32 11.545-12.872 10.927-13.393 10.281q-6.822 4.977-13.88 9.612-7.06 4.636-14.337 8.92t-14.756 8.205-15.142 7.472q-4.888 2.265-9.846 4.375-4.957 2.11-9.978 4.065t-10.1 3.75q-5.08 1.797-10.214 3.433-5.133 1.636-10.315 3.111-5.183 1.475-10.409 2.786-5.225 1.312-10.49 2.46-5.264 1.147-10.562 2.128t-10.623 1.798-10.675 1.464-10.715 1.128-10.745.793-10.765.456-10.774.118-10.772-.219-10.76-.556q-5.376-.363-10.738-.893t-10.704-1.229-10.66-1.563q-5.318-.866-10.607-1.897t-10.541-2.228q-5.254-1.196-10.467-2.557t-10.382-2.883-10.286-3.207-10.18-3.528-10.066-3.845q-5.002-2-9.94-4.158-4.937-2.156-9.804-4.467t-9.66-4.772q-4.793-2.462-9.506-5.072-4.713-2.611-9.342-5.368t-9.17-5.658q-7.116-4.546-14.001-9.436t-13.522-10.111-13.01-10.764q-6.372-5.54-12.464-11.388t-11.892-11.986q-5.799-6.14-11.29-12.556t-10.658-13.094-10.005-13.602-9.324-14.076q-4.49-7.152-8.623-14.516t-7.9-14.922-7.158-15.292-6.4-15.625-5.625-15.92-4.837-16.176-4.037-16.395-3.228-16.573-2.411-16.711-1.589-16.81q-.587-8.424-.761-16.867t.067-16.884q.24-8.441.895-16.86.655-8.42 1.722-16.797t2.544-16.692q1.477-8.314 3.36-16.546t4.167-16.362 4.965-16.138 5.752-15.875 6.523-15.573 7.28-15.234 8.018-14.86q4.191-7.33 8.738-14.447 2.9-4.54 5.942-8.988 3.04-4.447 6.22-8.797t6.493-8.599q3.314-4.248 6.759-8.39t7.019-8.176 7.27-7.95q3.698-3.92 7.517-7.72 3.819-3.801 7.755-7.48t7.985-7.234 8.207-6.98q4.159-3.427 8.423-6.72 4.263-3.294 8.628-6.453t8.827-6.18 9.015-5.9 9.196-5.614 9.368-5.324q4.725-2.588 9.529-5.028t9.682-4.727 9.826-4.421 9.959-4.112 10.083-3.798 10.197-3.48 10.3-3.159q5.176-1.498 10.396-2.834t10.478-2.508 10.552-2.179q5.293-1.006 10.615-1.847 5.322-.84 10.668-1.514 5.346-.673 10.71-1.178 5.364-.506 10.741-.843 5.378-.337 10.763-.506T400 1v344z"/><path fill="none" stroke="#fff" stroke-linejoin="bevel" stroke-width="2" d="M712.13 200.396q3.55 7.662 6.72 15.49 3.17 7.827 5.951 15.8 2.782 7.974 5.17 16.074 2.386 8.1 4.373 16.308t3.569 16.503 2.754 16.658 1.933 16.773q.761 8.41 1.109 16.848.347 8.438.28 16.882t-.548 16.876q-.482 8.43-1.376 16.828-.895 8.397-2.2 16.74-1.305 8.344-3.019 16.613-1.713 8.269-3.83 16.444t-4.632 16.236-5.424 15.99-6.201 15.704-6.965 15.381q-3.67 7.605-7.71 15.021t-8.44 14.624-9.146 14.193q-4.747 6.984-9.831 13.727-5.084 6.742-10.493 13.228t-11.13 12.697-11.74 12.135-12.32 11.545-12.872 10.927-13.393 10.281q-6.822 4.977-13.88 9.612-7.06 4.636-14.337 8.92t-14.756 8.205-15.142 7.472q-4.888 2.265-9.846 4.375-4.957 2.11-9.978 4.065t-10.1 3.75q-5.08 1.797-10.214 3.433-5.133 1.636-10.315 3.111-5.183 1.475-10.409 2.786-5.225 1.312-10.49 2.46-5.264 1.147-10.562 2.128t-10.623 1.798-10.675 1.464-10.715 1.128-10.745.793-10.765.456-10.774.118-10.772-.219-10.76-.556q-5.376-.363-10.738-.893t-10.704-1.229-10.66-1.563q-5.318-.866-10.607-1.897t-10.541-2.228q-5.254-1.196-10.467-2.557t-10.382-2.883-10.286-3.207-10.18-3.528-10.066-3.845q-5.002-2-9.94-4.158-4.937-2.156-9.804-4.467t-9.66-4.772q-4.793-2.462-9.506-5.072-4.713-2.611-9.342-5.368t-9.17-5.658q-7.116-4.546-14.001-9.436t-13.522-10.111-13.01-10.764q-6.372-5.54-12.464-11.388t-11.892-11.986q-5.799-6.14-11.29-12.556t-10.658-13.094-10.005-13.602-9.324-14.076q-4.49-7.152-8.623-14.516t-7.9-14.922-7.158-15.292-6.4-15.625-5.625-15.92-4.837-16.176-4.037-16.395-3.228-16.573-2.411-16.711-1.589-16.81q-.587-8.424-.761-16.867t.067-16.884q.24-8.441.895-16.86.655-8.42 1.722-16.797t2.544-16.692q1.477-8.314 3.36-16.546t4.167-16.362 4.965-16.138 5.752-15.875 6.523-15.573 7.28-15.234 8.018-14.86q4.191-7.33 8.738-14.447 2.9-4.54 5.942-8.988 3.04-4.447 6.22-8.797t6.493-8.599q3.314-4.248 6.759-8.39t7.019-8.176 7.27-7.95q3.698-3.92 7.517-7.72 3.819-3.801 7.755-7.48t7.985-7.234 8.207-6.98q4.159-3.427 8.423-6.72 4.263-3.294 8.628-6.453t8.827-6.18 9.015-5.9 9.196-5.614 9.368-5.324q4.725-2.588 9.529-5.028t9.682-4.727 9.826-4.421 9.959-4.112 10.083-3.798 10.197-3.48 10.3-3.159q5.176-1.498 10.396-2.834t10.478-2.508 10.552-2.179q5.293-1.006 10.615-1.847 5.322-.84 10.668-1.514 5.346-.673 10.71-1.178 5.364-.506 10.741-.843 5.378-.337 10.763-.506T400 1v344l312.13-144.604Z"/></svg>