<svg xmlns="http://www.w3.org/2000/svg" width="800" height="800"><path fill="none" d="M0 0h800v800H0z"/><clipPath id="a"><path d="M0 690h800v110H0z"/></clipPath><g clip-path="url(#a)"><path fill="#4caf50" d="M123.3 720h40v20h-40z"/><path fill="none" stroke="#fff" stroke-miterlimit="10" stroke-width="2" d="M123.3 720h40v20h-40z"/><path fill="#ff9800" d="M377.64 720h40v20h-40z"/><path fill="none" stroke="#fff" stroke-miterlimit="10" stroke-width="2" d="M377.64 720h40v20h-40z"/><path fill="#f44336" d="M262.92 770h40v20h-40z"/><path fill="none" stroke="#fff" stroke-miterlimit="10" stroke-width="2" d="M262.92 770h40v20h-40z"/></g><path fill="#4caf50" d="M400 1q4.65 0 9.297.126 4.648.125 9.29.377 4.643.25 9.277.627t9.256.879 9.23 1.128q4.606.626 9.195 1.377 4.588.75 9.154 1.625 4.567.875 9.108 1.872t9.053 2.118 8.993 2.36q4.481 1.242 8.926 2.604t8.853 2.844 8.772 3.082 8.686 3.318 8.592 3.552q4.273 1.834 8.494 3.782 4.222 1.949 8.389 4.01 4.167 2.063 8.277 4.237T569 45.376q4.05 2.284 8.036 4.677t7.907 4.892 7.771 5.104 7.63 5.313 7.485 5.517q3.705 2.808 7.333 5.717 3.627 2.908 7.175 5.913t7.013 6.104 6.845 6.293 6.673 6.474q3.293 3.283 6.496 6.653 3.202 3.37 6.313 6.826t6.126 6.994L400 345z"/><path fill="none" stroke="#fff" stroke-linejoin="bevel" stroke-width="2" d="M400 1q4.65 0 9.297.126 4.648.125 9.29.377 4.643.25 9.277.627t9.256.879 9.23 1.128q4.606.626 9.195 1.377 4.588.75 9.154 1.625 4.567.875 9.108 1.872t9.053 2.118 8.993 2.36q4.481 1.242 8.926 2.604t8.853 2.844 8.772 3.082 8.686 3.318 8.592 3.552q4.273 1.834 8.494 3.782 4.222 1.949 8.389 4.01 4.167 2.063 8.277 4.237T569 45.376q4.05 2.284 8.036 4.677t7.907 4.892 7.771 5.104 7.63 5.313 7.485 5.517q3.705 2.808 7.333 5.717 3.627 2.908 7.175 5.913t7.013 6.104 6.845 6.293 6.673 6.474q3.293 3.283 6.496 6.653 3.202 3.37 6.313 6.826t6.126 6.994L400 345z"/><path fill="#ff9800" d="M661.805 121.853q13.898 16.307 25.666 34.212 11.767 17.904 21.222 37.13L400 345z"/><path fill="none" stroke="#fff" stroke-linejoin="bevel" stroke-width="2" d="M661.805 121.853q13.898 16.307 25.666 34.212 11.767 17.904 21.222 37.13L400 345l261.804-223.147Z"/><path fill="#f44336" d="M708.693 193.196q3.727 7.578 7.077 15.33t6.316 15.658 5.54 15.95q2.575 8.042 4.751 16.202t3.95 16.415q1.774 8.257 3.14 16.59t2.322 16.724q.956 8.39 1.5 16.818.542 8.427.671 16.87.129 8.445-.157 16.885t-.985 16.855-1.811 16.787q-1.112 8.371-2.633 16.678t-3.447 16.529-4.255 16.34-5.051 16.11-5.836 15.844-6.606 15.538q-3.494 7.689-7.36 15.196t-8.098 14.816-8.814 14.4q-4.584 7.093-9.51 13.952t-10.184 13.468q-5.257 6.608-10.832 12.951t-11.455 12.405q-5.88 6.062-12.05 11.827-6.17 5.766-12.615 11.223-6.445 5.456-13.15 10.59-6.706 5.132-13.655 9.93-6.95 4.799-14.125 9.25-7.177 4.452-14.563 8.546t-14.964 7.82q-4.89 2.405-9.855 4.654t-9.998 4.34q-5.034 2.09-10.13 4.02-5.098 1.93-10.253 3.698t-10.365 3.371-10.466 3.042q-5.258 1.437-10.558 2.708-5.3 1.27-10.638 2.372-5.337 1.101-10.707 2.034t-10.767 1.693q-5.397.762-10.815 1.352t-10.852 1.008-10.88.665-10.894.319-10.899-.026-10.893-.372-10.875-.716-10.848-1.06-10.808-1.404-10.759-1.745-10.697-2.085-10.627-2.423-10.544-2.759q-5.25-1.462-10.452-3.09-5.201-1.63-10.348-3.422t-10.235-3.746q-5.088-1.955-10.111-4.07-5.024-2.114-9.977-4.387t-9.833-4.701q-4.88-2.429-9.68-5.01t-9.515-5.315-9.343-5.613q-7.168-4.464-14.11-9.274-6.94-4.81-13.638-9.954-6.696-5.144-13.133-10.611t-12.596-11.244-12.03-11.847-11.434-12.424-10.81-12.97-10.162-13.484-9.487-13.967-8.79-14.416q-4.219-7.315-8.073-14.83-3.854-7.513-7.335-15.207t-6.58-15.55q-3.1-7.855-5.81-15.853t-5.024-16.12q-2.314-8.12-4.227-16.346-1.913-8.225-3.42-16.534-1.507-8.31-2.605-16.683t-1.783-16.79q-.685-8.416-.957-16.857t-.129-16.884.7-16.87q.557-8.426 1.527-16.815.97-8.388 2.35-16.72 1.38-8.33 3.167-16.584 1.788-8.254 3.978-16.41 2.19-8.155 4.778-16.194t5.567-15.94T84.458 208t7.102-15.318q3.74-7.572 7.846-14.95 4.106-7.38 8.57-14.549 2.88-4.626 5.906-9.16t6.194-8.968 6.474-8.767 6.75-8.558q3.442-4.226 7.016-8.34 3.575-4.115 7.278-8.114t7.531-7.879 7.777-7.636 8.015-7.386 8.244-7.128q4.18-3.5 8.467-6.864 4.288-3.365 8.68-6.592t8.884-6.314 9.08-6.029 9.266-5.738 9.443-5.443 9.61-5.14 9.77-4.833 9.917-4.521 10.055-4.205 10.184-3.884 10.302-3.56 10.409-3.23 10.506-2.9q5.276-1.368 10.593-2.566 5.316-1.2 10.669-2.23 5.352-1.03 10.734-1.89t10.788-1.548 10.832-1.206 10.865-.863 10.887-.517T400 1v344z"/><path fill="none" stroke="#fff" stroke-linejoin="bevel" stroke-width="2" d="M708.693 193.196q3.727 7.578 7.077 15.33t6.316 15.658 5.54 15.95q2.575 8.042 4.751 16.202t3.95 16.415q1.774 8.257 3.14 16.59t2.322 16.724q.956 8.39 1.5 16.818.542 8.427.671 16.87.129 8.445-.157 16.885t-.985 16.855-1.811 16.787q-1.112 8.371-2.633 16.678t-3.447 16.529-4.255 16.34-5.051 16.11-5.836 15.844-6.606 15.538q-3.494 7.689-7.36 15.196t-8.098 14.816-8.814 14.4q-4.584 7.093-9.51 13.952t-10.184 13.468q-5.257 6.608-10.832 12.951t-11.455 12.405q-5.88 6.062-12.05 11.827-6.17 5.766-12.615 11.223-6.445 5.456-13.15 10.59-6.706 5.132-13.655 9.93-6.95 4.799-14.125 9.25-7.177 4.452-14.563 8.546t-14.964 7.82q-4.89 2.405-9.855 4.654t-9.998 4.34q-5.034 2.09-10.13 4.02-5.098 1.93-10.253 3.698t-10.365 3.371-10.466 3.042q-5.258 1.437-10.558 2.708-5.3 1.27-10.638 2.372-5.337 1.101-10.707 2.034t-10.767 1.693q-5.397.762-10.815 1.352t-10.852 1.008-10.88.665-10.894.319-10.899-.026-10.893-.372-10.875-.716-10.848-1.06-10.808-1.404-10.759-1.745-10.697-2.085-10.627-2.423-10.544-2.759q-5.25-1.462-10.452-3.09-5.201-1.63-10.348-3.422t-10.235-3.746q-5.088-1.955-10.111-4.07-5.024-2.114-9.977-4.387t-9.833-4.701q-4.88-2.429-9.68-5.01t-9.515-5.315-9.343-5.613q-7.168-4.464-14.11-9.274-6.94-4.81-13.638-9.954-6.696-5.144-13.133-10.611t-12.596-11.244-12.03-11.847-11.434-12.424-10.81-12.97-10.162-13.484-9.487-13.967-8.79-14.416q-4.219-7.315-8.073-14.83-3.854-7.513-7.335-15.207t-6.58-15.55q-3.1-7.855-5.81-15.853t-5.024-16.12q-2.314-8.12-4.227-16.346-1.913-8.225-3.42-16.534-1.507-8.31-2.605-16.683t-1.783-16.79q-.685-8.416-.957-16.857t-.129-16.884.7-16.87q.557-8.426 1.527-16.815.97-8.388 2.35-16.72 1.38-8.33 3.167-16.584 1.788-8.254 3.978-16.41 2.19-8.155 4.778-16.194t5.567-15.94T84.458 208t7.102-15.318q3.74-7.572 7.846-14.95 4.106-7.38 8.57-14.549 2.88-4.626 5.906-9.16t6.194-8.968 6.474-8.767 6.75-8.558q3.442-4.226 7.016-8.34 3.575-4.115 7.278-8.114t7.531-7.879 7.777-7.636 8.015-7.386 8.244-7.128q4.18-3.5 8.467-6.864 4.288-3.365 8.68-6.592t8.884-6.314 9.08-6.029 9.266-5.738 9.443-5.443 9.61-5.14 9.77-4.833 9.917-4.521 10.055-4.205 10.184-3.884 10.302-3.56 10.409-3.23 10.506-2.9q5.276-1.368 10.593-2.566 5.316-1.2 10.669-2.23 5.352-1.03 10.734-1.89t10.788-1.548 10.832-1.206 10.865-.863 10.887-.517T400 1v344l308.693-151.804Z"/></svg>