<svg xmlns="http://www.w3.org/2000/svg" width="800" height="800"><path fill="none" d="M0 0h800v800H0z"/><clipPath id="a"><path d="M0 740h800v60H0z"/></clipPath><g clip-path="url(#a)"><path fill="#4caf50" d="M164.745 770h40v20h-40z"/><path fill="none" stroke="#fff" stroke-miterlimit="10" stroke-width="2" d="M164.745 770h40v20h-40z"/><text x="214.745, 226.2196, 232.87976, 244.00281, 254.00281, 259.55945, 270.6825," y="786.5," fill="#666" font-family="Liberation Sans" font-size="20">Trusted</text><path fill="#ff9800" d="M311.805 770h40v20h-40z"/><path fill="none" stroke="#fff" stroke-miterlimit="10" stroke-width="2" d="M311.805 770h40v20h-40z"/><text x="361.80499, 375.14484, 381.80499, 392.92804, 402.92804, 414.05109, 425.17413, 436.29718, 447.42023, 457.42023," y="786.5," fill="#666" font-family="Liberation Sans" font-size="20">Provenance</text><path fill="#f44336" d="M498.545 770h40v20h-40z"/><path fill="none" stroke="#fff" stroke-miterlimit="10" stroke-width="2" d="M498.545 770h40v20h-40z"/><text x="548.54498, 562.98834, 574.11139, 579.66803, 586.32819, 597.45123, 607.45123, 613.00787, 624.13092," y="786.5," fill="#666" font-family="Liberation Sans" font-size="20">Untrusted</text></g><path fill="#4caf50" d="M400 1q5.299 0 10.595.152t10.586.456 10.569.76 10.542 1.064T452.8 4.797t10.464 1.667 10.412 1.966 10.351 2.264 10.282 2.561q5.123 1.354 10.204 2.855t10.118 3.147 10.024 3.436 9.92 3.722 9.81 4.006 9.69 4.285 9.564 4.563q4.75 2.35 9.429 4.834 4.68 2.486 9.286 5.104t9.135 5.368 8.978 5.628q4.448 2.879 8.812 5.884t8.64 6.134 8.46 6.38 8.274 6.62 8.08 6.855q3.99 3.485 7.88 7.084 3.888 3.598 7.673 7.307 3.784 3.709 7.46 7.525t7.24 7.736q3.566 3.92 7.017 7.94 3.45 4.02 6.785 8.139t6.548 8.33L400 370z"/><path fill="none" stroke="#fff" stroke-linejoin="bevel" stroke-width="2" d="M400 1q5.299 0 10.595.152t10.586.456 10.569.76 10.542 1.064T452.8 4.797t10.464 1.667 10.412 1.966 10.351 2.264 10.282 2.561q5.123 1.354 10.204 2.855t10.118 3.147 10.024 3.436 9.92 3.722 9.81 4.006 9.69 4.285 9.564 4.563q4.75 2.35 9.429 4.834 4.68 2.486 9.286 5.104t9.135 5.368 8.978 5.628q4.448 2.879 8.812 5.884t8.64 6.134 8.46 6.38 8.274 6.62 8.08 6.855q3.99 3.485 7.88 7.084 3.888 3.598 7.673 7.307 3.784 3.709 7.46 7.525t7.24 7.736q3.566 3.92 7.017 7.94 3.45 4.02 6.785 8.139t6.548 8.33L400 370z"/><path fill="#ff9800" d="M693.336 146.137q13.233 17.339 24.33 36.116 11.098 18.777 19.906 38.73L400 370z"/><path fill="none" stroke="#fff" stroke-linejoin="bevel" stroke-width="2" d="M693.336 146.137q13.233 17.339 24.33 36.116 11.098 18.777 19.906 38.73L400 370l293.336-223.863Z"/><path fill="#f44336" d="M737.572 220.983q3.658 8.287 6.906 16.744t6.075 17.062 5.23 17.34 4.375 17.575q1.97 8.841 3.506 17.769t2.63 17.92q1.095 8.991 1.747 18.026t.861 18.09q.209 9.057-.028 18.112-.236 9.056-.916 18.089t-1.803 18.021-2.685 17.911-3.56 17.758-4.428 17.562q-2.43 8.727-5.284 17.324-2.855 8.597-6.128 17.043t-6.956 16.722-7.769 16.36q-4.085 8.086-8.562 15.96t-9.335 15.52-10.085 15.044q-5.228 7.399-10.812 14.531t-11.51 13.983-12.184 13.4q-6.257 6.552-12.827 12.788t-13.438 12.142q-6.868 5.906-14.018 11.468t-14.564 10.767-15.074 10.04-15.549 9.287-15.986 8.513-16.384 7.718q-5.24 2.313-10.548 4.462-5.31 2.15-10.682 4.133t-10.804 3.799q-5.432 1.815-10.918 3.462-5.485 1.646-11.02 3.121-5.533 1.475-11.11 2.778t-11.192 2.432q-5.615 1.129-11.262 2.083t-11.321 1.733-11.37 1.38-11.406 1.028-11.433.672-11.45.318q-5.726.07-11.452-.038t-11.446-.394-11.429-.748q-5.708-.463-11.4-1.103-5.69-.64-11.36-1.456-5.668-.816-11.309-1.808t-11.248-2.158-11.175-2.506q-5.568-1.34-11.092-2.852t-10.999-3.194-10.894-3.534-10.779-3.871-10.654-4.203q-5.294-2.185-10.518-4.532t-10.372-4.856-10.217-5.176-10.051-5.49-9.876-5.8q-4.893-2.977-9.692-6.103-7.59-4.946-14.927-10.258t-14.405-10.978-13.85-11.671-13.26-12.337q-6.478-6.331-12.638-12.973-6.16-6.641-11.987-13.577-5.827-6.935-11.306-14.149-5.48-7.213-10.598-14.686-5.12-7.474-9.865-15.19-4.746-7.715-9.108-15.654-4.362-7.94-8.329-16.083-3.967-8.144-7.53-16.472-3.562-8.329-6.712-16.822t-5.878-17.13q-2.73-8.638-5.031-17.4-2.302-8.76-4.172-17.624t-3.301-17.808-2.424-17.948q-.991-9.004-1.54-18.046-.548-9.042-.653-18.1t.237-18.11 1.124-18.076 2.01-18 2.891-17.879 3.765-17.716 4.63-17.51 5.482-17.261 6.323-16.972 7.149-16.64q3.778-8.233 7.956-16.27 4.178-8.038 8.746-15.861 4.567-7.823 9.512-15.412 3.127-4.798 6.402-9.497 3.274-4.7 6.692-9.294t6.978-9.082 7.257-8.86q3.697-4.375 7.528-8.632 3.83-4.258 7.792-8.394t8.049-8.148q4.088-4.011 8.298-7.894t8.539-7.632q4.328-3.75 8.771-7.364t8.996-7.089 9.212-6.805 9.418-6.517q4.76-3.185 9.616-6.22 4.857-3.037 9.805-5.92t9.983-5.613 10.153-5.3q5.118-2.571 10.313-4.982t10.462-4.66 10.602-4.333 10.73-4.002 10.85-3.667 10.96-3.328q5.505-1.58 11.056-2.987 5.552-1.408 11.144-2.642 5.593-1.235 11.22-2.295 5.629-1.06 11.287-1.946t11.342-1.595T365.689 2.6q5.703-.533 11.419-.888 5.716-.356 11.44-.533Q394.273 1 400 1v369z"/><path fill="none" stroke="#fff" stroke-linejoin="bevel" stroke-width="2" d="M737.572 220.983q3.658 8.287 6.906 16.744t6.075 17.062 5.23 17.34 4.375 17.575q1.97 8.841 3.506 17.769t2.63 17.92q1.095 8.991 1.747 18.026t.861 18.09q.209 9.057-.028 18.112-.236 9.056-.916 18.089t-1.803 18.021-2.685 17.911-3.56 17.758-4.428 17.562q-2.43 8.727-5.284 17.324-2.855 8.597-6.128 17.043t-6.956 16.722-7.769 16.36q-4.085 8.086-8.562 15.96t-9.335 15.52-10.085 15.044q-5.228 7.399-10.812 14.531t-11.51 13.983-12.184 13.4q-6.257 6.552-12.827 12.788t-13.438 12.142q-6.868 5.906-14.018 11.468t-14.564 10.767-15.074 10.04-15.549 9.287-15.986 8.513-16.384 7.718q-5.24 2.313-10.548 4.462-5.31 2.15-10.682 4.133t-10.804 3.799q-5.432 1.815-10.918 3.462-5.485 1.646-11.02 3.121-5.533 1.475-11.11 2.778t-11.192 2.432q-5.615 1.129-11.262 2.083t-11.321 1.733-11.37 1.38-11.406 1.028-11.433.672-11.45.318q-5.726.07-11.452-.038t-11.446-.394-11.429-.748q-5.708-.463-11.4-1.103-5.69-.64-11.36-1.456-5.668-.816-11.309-1.808t-11.248-2.158-11.175-2.506q-5.568-1.34-11.092-2.852t-10.999-3.194-10.894-3.534-10.779-3.871-10.654-4.203q-5.294-2.185-10.518-4.532t-10.372-4.856-10.217-5.176-10.051-5.49-9.876-5.8q-4.893-2.977-9.692-6.103-7.59-4.946-14.927-10.258t-14.405-10.978-13.85-11.671-13.26-12.337q-6.478-6.331-12.638-12.973-6.16-6.641-11.987-13.577-5.827-6.935-11.306-14.149-5.48-7.213-10.598-14.686-5.12-7.474-9.865-15.19-4.746-7.715-9.108-15.654-4.362-7.94-8.329-16.083-3.967-8.144-7.53-16.472-3.562-8.329-6.712-16.822t-5.878-17.13q-2.73-8.638-5.031-17.4-2.302-8.76-4.172-17.624t-3.301-17.808-2.424-17.948q-.991-9.004-1.54-18.046-.548-9.042-.653-18.1t.237-18.11 1.124-18.076 2.01-18 2.891-17.879 3.765-17.716 4.63-17.51 5.482-17.261 6.323-16.972 7.149-16.64q3.778-8.233 7.956-16.27 4.178-8.038 8.746-15.861 4.567-7.823 9.512-15.412 3.127-4.798 6.402-9.497 3.274-4.7 6.692-9.294t6.978-9.082 7.257-8.86q3.697-4.375 7.528-8.632 3.83-4.258 7.792-8.394t8.049-8.148q4.088-4.011 8.298-7.894t8.539-7.632q4.328-3.75 8.771-7.364t8.996-7.089 9.212-6.805 9.418-6.517q4.76-3.185 9.616-6.22 4.857-3.037 9.805-5.92t9.983-5.613 10.153-5.3q5.118-2.571 10.313-4.982t10.462-4.66 10.602-4.333 10.73-4.002 10.85-3.667 10.96-3.328q5.505-1.58 11.056-2.987 5.552-1.408 11.144-2.642 5.593-1.235 11.22-2.295 5.629-1.06 11.287-1.946t11.342-1.595T365.689 2.6q5.703-.533 11.419-.888 5.716-.356 11.44-.533Q394.273 1 400 1v369l337.572-149.016Z"/></svg>