<svg xmlns="http://www.w3.org/2000/svg" width="800" height="800"><path fill="none" d="M0 0h800v800H0z"/><clipPath id="a"><path d="M0 740h800v60H0z"/></clipPath><g clip-path="url(#a)"><path fill="#4caf50" d="M144.605 770h40v20h-40z"/><path fill="none" stroke="#fff" stroke-miterlimit="10" stroke-width="2" d="M144.605 770h40v20h-40z"/><text x="194.605, 207.94484, 217.50539, 230.38625, 240.64992, 248.68703, 260.52295," y="787.5," fill="#666" font-family="DejaVu Serif" font-size="20">Trusted</text><path fill="#ff9800" d="M303.325 770h40v20h-40z"/><path fill="none" stroke="#fff" stroke-miterlimit="10" stroke-width="2" d="M303.325 770h40v20h-40z"/><text x="353.32501, 366.78204, 376.34259, 388.38361, 399.68243, 411.51837, 424.39923, 436.32306, 449.20392, 460.40509," y="787.5," fill="#666" font-family="DejaVu Serif" font-size="20">Provenance</text><path fill="#f44336" d="M502.245 770h40v20h-40z"/><path fill="none" stroke="#fff" stroke-miterlimit="10" stroke-width="2" d="M502.245 770h40v20h-40z"/><text x="552.245, 569.10046, 581.98132, 590.01843, 599.57898, 612.45984, 622.72351, 630.76062, 642.59656," y="787.5," fill="#666" font-family="DejaVu Serif" font-size="20">Untrusted</text></g><path fill="#4caf50" d="M400 1q7.072 0 14.138.27 7.066.272 14.117.813 7.051.542 14.076 1.353t14.013 1.891q6.99 1.08 13.931 2.427 6.942 1.346 13.828 2.958t13.704 3.486q6.819 1.875 13.56 4.01 6.742 2.133 13.397 4.524t13.214 5.036q6.559 2.644 13.011 5.537 6.453 2.894 12.79 6.033 6.336 3.138 12.548 6.518t12.29 6.993 12.013 7.46 11.718 7.914L400 370z"/><path fill="none" stroke="#fff" stroke-linejoin="bevel" stroke-width="2" d="M400 1q7.072 0 14.138.27 7.066.272 14.117.813 7.051.542 14.076 1.353t14.013 1.891q6.99 1.08 13.931 2.427 6.942 1.346 13.828 2.958t13.704 3.486q6.819 1.875 13.56 4.01 6.742 2.133 13.397 4.524t13.214 5.036q6.559 2.644 13.011 5.537 6.453 2.894 12.79 6.033 6.336 3.138 12.548 6.518t12.29 6.993 12.013 7.46 11.718 7.914L400 370z"/><path fill="#ff9800" d="M612.348 68.223q10.711 7.537 20.86 15.814 10.15 8.277 19.687 17.253t18.414 18.605q8.876 9.629 17.048 19.863L400 370z"/><path fill="none" stroke="#fff" stroke-linejoin="bevel" stroke-width="2" d="M612.348 68.223q10.711 7.537 20.86 15.814 10.15 8.277 19.687 17.253t18.414 18.605q8.876 9.629 17.048 19.863L400 370 612.348 68.223Z"/><path fill="#f44336" d="M688.357 139.758q5.652 7.08 10.95 14.427t10.23 14.946q4.93 7.599 9.482 15.43 4.553 7.832 8.715 15.877 4.163 8.046 7.925 16.286 3.763 8.24 7.117 16.654t6.29 16.984 5.45 17.272q2.514 8.703 4.597 17.519 2.082 8.815 3.73 17.723t2.857 17.884q1.209 8.978 1.975 18.004.767 9.026 1.09 18.078.323 9.053.202 18.11-.122 9.058-.688 18.099-.566 9.04-1.574 18.043-1.01 9.002-2.458 17.944-1.45 8.941-3.336 17.801t-4.205 17.617-5.065 17.389q-2.745 8.632-5.911 17.12-3.166 8.486-6.744 16.808-3.579 8.322-7.562 16.458t-8.36 16.066q-4.376 7.931-9.137 15.638-4.76 7.706-9.894 15.17-5.133 7.463-10.626 14.666-5.494 7.203-11.334 14.127t-12.013 13.555q-6.172 6.63-12.663 12.948-6.49 6.319-13.284 12.311-6.793 5.993-13.871 11.645-5.058 4.038-10.253 7.896t-10.523 7.532-10.781 7.158q-5.454 3.484-11.026 6.775t-11.256 6.385-11.473 5.986-11.676 5.58q-5.886 2.688-11.864 5.168-5.977 2.48-12.038 4.748t-12.198 4.323-12.341 3.893-12.47 3.458-12.584 3.018-12.682 2.575-12.765 2.13q-6.4.952-12.831 1.68-6.43.727-12.883 1.228-6.452.502-12.917.777-6.466.275-12.937.323t-12.94-.13q-6.469-.18-12.928-.585-6.458-.406-12.899-1.038-6.44-.631-12.855-1.489-6.414-.857-12.795-1.938-6.38-1.082-12.719-2.387t-12.627-2.83-12.52-3.272-12.398-3.709-12.26-4.141-12.108-4.569-11.94-4.99-11.758-5.406q-8.162-3.928-16.122-8.252-7.96-4.323-15.699-9.032-7.738-4.71-15.236-9.792-7.498-5.083-14.737-10.528-7.24-5.445-14.203-11.239-6.964-5.793-13.634-11.921-6.671-6.128-13.034-12.577-6.362-6.448-12.4-13.2-6.038-6.753-11.737-13.793-5.7-7.041-11.047-14.353t-10.33-14.877q-4.981-7.566-9.586-15.366-4.605-7.801-8.82-15.819-4.217-8.017-8.035-16.231t-7.229-16.607-6.404-16.941q-2.995-8.55-5.566-17.235-2.571-8.686-4.713-17.488t-3.85-17.697-2.976-17.865q-1.27-8.97-2.097-17.99t-1.21-18.07-.324-18.11.566-18.102q.505-9.044 1.454-18.053.948-9.009 2.337-17.96t3.217-17.824 4.086-17.644 4.948-17.422 5.796-17.16 6.632-16.853 7.45-16.508q2.806-5.831 5.815-11.56 3.009-5.73 6.217-11.35t6.61-11.125 6.998-10.887 7.374-10.634 7.743-10.369 8.101-10.09 8.45-9.802q4.312-4.826 8.79-9.498t9.116-9.185 9.433-8.859 9.737-8.523 10.031-8.176 10.311-7.82q5.224-3.82 10.58-7.453 5.354-3.634 10.833-7.078 5.48-3.443 11.075-6.693 5.597-3.25 11.304-6.301t11.517-5.9 11.717-5.494 11.903-5.079q5.995-2.435 12.073-4.659 6.077-2.223 12.229-4.232t12.37-3.8q6.218-1.793 12.496-3.366 6.277-1.572 12.606-2.924t12.7-2.481q6.373-1.129 12.78-2.034 6.408-.905 12.844-1.584 6.436-.68 12.891-1.134 6.456-.453 12.923-.68Q393.53 1 400 1v369z"/><path fill="none" stroke="#fff" stroke-linejoin="bevel" stroke-width="2" d="M688.357 139.758q5.652 7.08 10.95 14.427t10.23 14.946q4.93 7.599 9.482 15.43 4.553 7.832 8.715 15.877 4.163 8.046 7.925 16.286 3.763 8.24 7.117 16.654t6.29 16.984 5.45 17.272q2.514 8.703 4.597 17.519 2.082 8.815 3.73 17.723t2.857 17.884q1.209 8.978 1.975 18.004.767 9.026 1.09 18.078.323 9.053.202 18.11-.122 9.058-.688 18.099-.566 9.04-1.574 18.043-1.01 9.002-2.458 17.944-1.45 8.941-3.336 17.801t-4.205 17.617-5.065 17.389q-2.745 8.632-5.911 17.12-3.166 8.486-6.744 16.808-3.579 8.322-7.562 16.458t-8.36 16.066q-4.376 7.931-9.137 15.638-4.76 7.706-9.894 15.17-5.133 7.463-10.626 14.666-5.494 7.203-11.334 14.127t-12.013 13.555q-6.172 6.63-12.663 12.948-6.49 6.319-13.284 12.311-6.793 5.993-13.871 11.645-5.058 4.038-10.253 7.896t-10.523 7.532-10.781 7.158q-5.454 3.484-11.026 6.775t-11.256 6.385-11.473 5.986-11.676 5.58q-5.886 2.688-11.864 5.168-5.977 2.48-12.038 4.748t-12.198 4.323-12.341 3.893-12.47 3.458-12.584 3.018-12.682 2.575-12.765 2.13q-6.4.952-12.831 1.68-6.43.727-12.883 1.228-6.452.502-12.917.777-6.466.275-12.937.323t-12.94-.13q-6.469-.18-12.928-.585-6.458-.406-12.899-1.038-6.44-.631-12.855-1.489-6.414-.857-12.795-1.938-6.38-1.082-12.719-2.387t-12.627-2.83-12.52-3.272-12.398-3.709-12.26-4.141-12.108-4.569-11.94-4.99-11.758-5.406q-8.162-3.928-16.122-8.252-7.96-4.323-15.699-9.032-7.738-4.71-15.236-9.792-7.498-5.083-14.737-10.528-7.24-5.445-14.203-11.239-6.964-5.793-13.634-11.921-6.671-6.128-13.034-12.577-6.362-6.448-12.4-13.2-6.038-6.753-11.737-13.793-5.7-7.041-11.047-14.353t-10.33-14.877q-4.981-7.566-9.586-15.366-4.605-7.801-8.82-15.819-4.217-8.017-8.035-16.231t-7.229-16.607-6.404-16.941q-2.995-8.55-5.566-17.235-2.571-8.686-4.713-17.488t-3.85-17.697-2.976-17.865q-1.27-8.97-2.097-17.99t-1.21-18.07-.324-18.11.566-18.102q.505-9.044 1.454-18.053.948-9.009 2.337-17.96t3.217-17.824 4.086-17.644 4.948-17.422 5.796-17.16 6.632-16.853 7.45-16.508q2.806-5.831 5.815-11.56 3.009-5.73 6.217-11.35t6.61-11.125 6.998-10.887 7.374-10.634 7.743-10.369 8.101-10.09 8.45-9.802q4.312-4.826 8.79-9.498t9.116-9.185 9.433-8.859 9.737-8.523 10.031-8.176 10.311-7.82q5.224-3.82 10.58-7.453 5.354-3.634 10.833-7.078 5.48-3.443 11.075-6.693 5.597-3.25 11.304-6.301t11.517-5.9 11.717-5.494 11.903-5.079q5.995-2.435 12.073-4.659 6.077-2.223 12.229-4.232t12.37-3.8q6.218-1.793 12.496-3.366 6.277-1.572 12.606-2.924t12.7-2.481q6.373-1.129 12.78-2.034 6.408-.905 12.844-1.584 6.436-.68 12.891-1.134 6.456-.453 12.923-.68Q393.53 1 400 1v369l288.357-230.241Z"/></svg>