<svg xmlns="http://www.w3.org/2000/svg" width="800" height="800"><path fill="none" d="M0 0h800v800H0z"/><clipPath id="a"><path d="M0 740h800v60H0z"/></clipPath><g clip-path="url(#a)"><path fill="#4caf50" d="M144.605 770h40v20h-40z"/><path fill="none" stroke="#fff" stroke-miterlimit="10" stroke-width="2" d="M144.605 770h40v20h-40z"/><text x="194.605, 207.94484, 217.50539, 230.38625, 240.64992, 248.68703, 260.52295," y="787.5," fill="#666" font-family="DejaVu Serif" font-size="20">Trusted</text><path fill="#ff9800" d="M303.325 770h40v20h-40z"/><path fill="none" stroke="#fff" stroke-miterlimit="10" stroke-width="2" d="M303.325 770h40v20h-40z"/><text x="353.32501, 366.78204, 376.34259, 388.38361, 399.68243, 411.51837, 424.39923, 436.32306, 449.20392, 460.40509," y="787.5," fill="#666" font-family="DejaVu Serif" font-size="20">Provenance</text><path fill="#f44336" d="M502.245 770h40v20h-40z"/><path fill="none" stroke="#fff" stroke-miterlimit="10" stroke-width="2" d="M502.245 770h40v20h-40z"/><text x="552.245, 569.10046, 581.98132, 590.01843, 599.57898, 612.45984, 622.72351, 630.76062, 642.59656," y="787.5," fill="#666" font-family="DejaVu Serif" font-size="20">Untrusted</text></g><path fill="#4caf50" d="M400 1q6.838 0 13.672.253 6.833.254 13.652.76 6.82.506 13.615 1.265 6.796.759 13.56 1.769 6.762 1.01 13.483 2.27t13.391 2.767q6.67 1.508 13.28 3.262t13.148 3.752 13.001 4.236 12.835 4.715 12.652 5.188 12.45 5.652T570.974 43t11.997 6.56 11.747 6.998 11.48 7.43L400 370z"/><path fill="none" stroke="#fff" stroke-linejoin="bevel" stroke-width="2" d="M400 1q6.838 0 13.672.253 6.833.254 13.652.76 6.82.506 13.615 1.265 6.796.759 13.56 1.769 6.762 1.01 13.483 2.27t13.391 2.767q6.67 1.508 13.28 3.262t13.148 3.752 13.001 4.236 12.835 4.715 12.652 5.188 12.45 5.652T570.974 43t11.997 6.56 11.747 6.998 11.48 7.43L400 370z"/><path fill="#ff9800" d="M606.197 63.987q11.054 7.449 21.543 15.676t20.356 17.19q9.868 8.962 19.063 18.614 9.195 9.65 17.67 19.94L400 370z"/><path fill="none" stroke="#fff" stroke-linejoin="bevel" stroke-width="2" d="M606.197 63.987q11.054 7.449 21.543 15.676t20.356 17.19q9.868 8.962 19.063 18.614 9.195 9.65 17.67 19.94L400 370 606.197 63.987Z"/><path fill="#f44336" d="M684.829 135.407q5.758 6.993 11.167 14.259 5.41 7.266 10.455 14.79 5.046 7.522 9.717 15.284 4.67 7.761 8.954 15.742t8.172 16.164 7.368 16.544 6.548 16.887q3.067 8.523 5.712 17.187t4.861 17.447 4 17.664 3.127 17.84 2.249 17.97 1.364 18.06.476 18.106q.016 9.058-.412 18.106-.429 9.049-1.3 18.065-.873 9.017-2.186 17.98-1.314 8.962-3.065 17.85-1.752 8.887-3.937 17.678-2.186 8.79-4.8 17.464t-5.651 17.207-6.489 16.91q-3.451 8.374-7.31 16.57t-8.115 16.192-8.899 15.774q-4.643 7.778-9.663 15.318-5.019 7.541-10.402 14.826-5.384 7.286-11.118 14.298t-11.806 13.735q-6.071 6.722-12.465 13.139t-13.095 12.512-13.693 11.854q-5.03 4.142-10.202 8.104t-10.48 7.738-10.748 7.364q-5.439 3.587-11 6.98-5.563 3.393-11.241 6.588-5.679 3.194-11.466 6.186-5.788 2.992-11.677 5.778-5.89 2.786-11.874 5.362t-12.056 4.94-12.222 4.51-12.375 4.077-12.51 3.637-12.631 3.193-12.736 2.745-12.825 2.294q-6.432 1.034-12.897 1.84-6.466.806-12.955 1.383-6.49.578-12.996.926-6.506.347-13.02.465t-13.028.006-13.02-.454-12.997-.913q-6.49-.571-12.956-1.371t-12.9-1.829-12.826-2.282-12.739-2.734-12.633-3.181q-6.29-1.703-12.514-3.626-6.225-1.923-12.378-4.065t-12.227-4.5-12.06-4.928-11.879-5.351q-8.191-3.866-16.184-8.13-7.993-4.262-15.766-8.912-7.774-4.65-15.31-9.677t-14.817-10.415-14.288-11.13-13.725-11.818-13.128-12.477-12.5-13.106-11.842-13.704-11.155-14.268-10.442-14.799-9.703-15.293-8.94-15.75-8.158-16.17-7.354-16.552-6.533-16.892-5.697-17.192-4.845-17.451q-2.21-8.785-3.984-17.668t-3.112-17.842q-1.337-8.96-2.233-17.974t-1.348-18.06-.46-18.106q-.009-9.059.428-18.107.436-9.048 1.316-18.063.88-9.016 2.201-17.977t3.081-17.848 3.953-17.675 4.815-17.46q2.622-8.67 5.666-17.202 3.044-8.531 6.503-16.903t7.325-16.564q2.78-5.892 5.767-11.683t6.176-11.471q3.19-5.681 6.577-11.247t6.97-11.007 7.354-10.754q3.773-5.312 7.73-10.488t8.094-10.208 8.45-9.917q4.313-4.884 8.795-9.612t9.129-9.295 9.451-8.968 9.762-8.628 10.06-8.278 10.346-7.918 10.62-7.548 10.879-7.168 11.125-6.78 11.358-6.382 11.576-5.978 11.78-5.565 11.969-5.147 12.143-4.72 12.302-4.289q6.19-2.035 12.446-3.851 6.257-1.816 12.575-3.41t12.686-2.964 12.784-2.514 12.864-2.062 12.929-1.606 12.978-1.148 13.01-.69Q393.484 1 400 1v369z"/><path fill="none" stroke="#fff" stroke-linejoin="bevel" stroke-width="2" d="M684.829 135.407q5.758 6.993 11.167 14.259 5.41 7.266 10.455 14.79 5.046 7.522 9.717 15.284 4.67 7.761 8.954 15.742t8.172 16.164 7.368 16.544 6.548 16.887q3.067 8.523 5.712 17.187t4.861 17.447 4 17.664 3.127 17.84 2.249 17.97 1.364 18.06.476 18.106q.016 9.058-.412 18.106-.429 9.049-1.3 18.065-.873 9.017-2.186 17.98-1.314 8.962-3.065 17.85-1.752 8.887-3.937 17.678-2.186 8.79-4.8 17.464t-5.651 17.207-6.489 16.91q-3.451 8.374-7.31 16.57t-8.115 16.192-8.899 15.774q-4.643 7.778-9.663 15.318-5.019 7.541-10.402 14.826-5.384 7.286-11.118 14.298t-11.806 13.735q-6.071 6.722-12.465 13.139t-13.095 12.512-13.693 11.854q-5.03 4.142-10.202 8.104t-10.48 7.738-10.748 7.364q-5.439 3.587-11 6.98-5.563 3.393-11.241 6.588-5.679 3.194-11.466 6.186-5.788 2.992-11.677 5.778-5.89 2.786-11.874 5.362t-12.056 4.94-12.222 4.51-12.375 4.077-12.51 3.637-12.631 3.193-12.736 2.745-12.825 2.294q-6.432 1.034-12.897 1.84-6.466.806-12.955 1.383-6.49.578-12.996.926-6.506.347-13.02.465t-13.028.006-13.02-.454-12.997-.913q-6.49-.571-12.956-1.371t-12.9-1.829-12.826-2.282-12.739-2.734-12.633-3.181q-6.29-1.703-12.514-3.626-6.225-1.923-12.378-4.065t-12.227-4.5-12.06-4.928-11.879-5.351q-8.191-3.866-16.184-8.13-7.993-4.262-15.766-8.912-7.774-4.65-15.31-9.677t-14.817-10.415-14.288-11.13-13.725-11.818-13.128-12.477-12.5-13.106-11.842-13.704-11.155-14.268-10.442-14.799-9.703-15.293-8.94-15.75-8.158-16.17-7.354-16.552-6.533-16.892-5.697-17.192-4.845-17.451q-2.21-8.785-3.984-17.668t-3.112-17.842q-1.337-8.96-2.233-17.974t-1.348-18.06-.46-18.106q-.009-9.059.428-18.107.436-9.048 1.316-18.063.88-9.016 2.201-17.977t3.081-17.848 3.953-17.675 4.815-17.46q2.622-8.67 5.666-17.202 3.044-8.531 6.503-16.903t7.325-16.564q2.78-5.892 5.767-11.683t6.176-11.471q3.19-5.681 6.577-11.247t6.97-11.007 7.354-10.754q3.773-5.312 7.73-10.488t8.094-10.208 8.45-9.917q4.313-4.884 8.795-9.612t9.129-9.295 9.451-8.968 9.762-8.628 10.06-8.278 10.346-7.918 10.62-7.548 10.879-7.168 11.125-6.78 11.358-6.382 11.576-5.978 11.78-5.565 11.969-5.147 12.143-4.72 12.302-4.289q6.19-2.035 12.446-3.851 6.257-1.816 12.575-3.41t12.686-2.964 12.784-2.514 12.864-2.062 12.929-1.606 12.978-1.148 13.01-.69Q393.484 1 400 1v369z"/></svg>