<svg xmlns="http://www.w3.org/2000/svg" width="800" height="800"><path fill="none" d="M0 0h800v800H0z"/><clipPath id="a"><path d="M0 690h800v110H0z"/></clipPath><g clip-path="url(#a)"><path fill="#4caf50" d="M123.3 720h40v20h-40z"/><path fill="none" stroke="#fff" stroke-miterlimit="10" stroke-width="2" d="M123.3 720h40v20h-40z"/><path fill="#ff9800" d="M377.64 720h40v20h-40z"/><path fill="none" stroke="#fff" stroke-miterlimit="10" stroke-width="2" d="M377.64 720h40v20h-40z"/><path fill="#f44336" d="M262.92 770h40v20h-40z"/><path fill="none" stroke="#fff" stroke-miterlimit="10" stroke-width="2" d="M262.92 770h40v20h-40z"/></g><path fill="#4caf50" d="M400 1q4.543 0 9.084.12t9.078.36 9.065.6 9.046.838 9.02 1.077 8.99 1.315 8.951 1.552 8.907 1.788 8.857 2.022 8.8 2.255 8.738 2.487 8.67 2.717 8.593 2.945 8.514 3.171 8.427 3.395 8.334 3.616 8.236 3.835 8.131 4.05 8.022 4.265 7.907 4.474 7.785 4.682 7.66 4.886 7.527 5.086 7.39 5.283 7.249 5.477 7.101 5.666 6.95 5.852 6.792 6.033 6.63 6.21q3.275 3.15 6.465 6.384t6.293 6.552q3.104 3.317 6.118 6.715L400 345z"/><path fill="none" stroke="#fff" stroke-linejoin="bevel" stroke-width="2" d="M400 1q4.543 0 9.084.12t9.078.36 9.065.6 9.046.838 9.02 1.077 8.99 1.315 8.951 1.552 8.907 1.788 8.857 2.022 8.8 2.255 8.738 2.487 8.67 2.717 8.593 2.945 8.514 3.171 8.427 3.395 8.334 3.616 8.236 3.835 8.131 4.05 8.022 4.265 7.907 4.474 7.785 4.682 7.66 4.886 7.527 5.086 7.39 5.283 7.249 5.477 7.101 5.666 6.95 5.852 6.792 6.033 6.63 6.21q3.275 3.15 6.465 6.384t6.293 6.552q3.104 3.317 6.118 6.715L400 345z"/><path fill="#ff9800" d="M657.33 116.708q14.22 16.028 26.34 33.696t21.954 36.703L400 345z"/><path fill="none" stroke="#fff" stroke-linejoin="bevel" stroke-width="2" d="M657.33 116.708q14.22 16.028 26.34 33.696t21.954 36.703L400 345l257.33-228.292Z"/><path fill="#f44336" d="M705.624 187.107q3.876 7.503 7.38 15.187 3.502 7.684 6.624 15.53t5.856 15.837q2.733 7.99 5.07 16.104 2.338 8.115 4.275 16.335t3.468 16.524 2.654 16.675 1.831 16.784 1.006 16.855.178 16.883-.65 16.872-1.479 16.82-2.301 16.726-3.12 16.594-3.93 16.42q-2.166 8.163-4.73 16.209t-5.52 15.956q-2.957 7.91-6.298 15.666-3.34 7.756-7.058 15.339-3.717 7.582-7.802 14.973t-8.527 14.573-9.232 14.137-9.915 13.667-10.573 13.164-11.207 12.629-11.812 12.064-12.39 11.47q-6.337 5.583-12.939 10.848t-13.455 10.2-13.94 9.528-14.39 8.832q-7.303 4.24-14.805 8.116-4.89 2.526-9.858 4.894t-10.009 4.577q-5.04 2.208-10.15 4.254t-10.281 3.927q-5.172 1.881-10.402 3.596t-10.51 3.262q-5.283 1.547-10.611 2.924t-10.698 2.583q-5.37 1.206-10.776 2.24-5.406 1.033-10.841 1.893-5.436.86-10.897 1.546-5.46.685-10.94 1.196t-10.974.846-10.994.494-11.005.142q-5.503-.016-11.004-.21-5.5-.192-10.991-.561t-10.968-.913-10.933-1.263-10.887-1.613-10.83-1.96q-5.399-1.066-10.761-2.305-5.362-1.238-10.682-2.648t-10.592-2.989q-5.273-1.579-10.491-3.326-5.22-1.747-10.38-3.66t-10.257-3.99q-5.096-2.077-10.124-4.316-5.027-2.24-9.98-4.638t-9.828-4.954-9.664-5.267-9.49-5.573q-7.213-4.392-14.201-9.133t-13.736-9.818-13.238-10.481-12.707-11.118-12.147-11.728-11.556-12.31-10.939-12.862q-5.31-6.565-10.294-13.383-4.983-6.818-9.625-13.872t-8.933-14.328-8.219-14.749-7.485-15.134-6.734-15.483-5.966-15.796-5.184-16.068-4.39-16.304-3.583-16.5-2.77-16.656-1.95-16.771-1.124-16.847-.296-16.882.533-16.876 1.36-16.83q.887-8.397 2.184-16.742 1.298-8.344 3.003-16.615t3.815-16.448 4.617-16.24 5.409-15.995 6.187-15.71 6.95-15.388 7.697-15.028q4.033-7.419 8.425-14.632 2.862-4.7 5.874-9.307t6.168-9.114 6.457-8.913 6.739-8.702 7.013-8.481 7.281-8.253 7.542-8.015 7.794-7.77q3.96-3.823 8.039-7.518 4.08-3.694 8.275-7.256 4.195-3.561 8.503-6.987t8.722-6.712 8.932-6.43q4.517-3.143 9.133-6.14t9.325-5.845q4.71-2.848 9.508-5.544t9.68-5.237q4.881-2.541 9.842-4.925 4.96-2.383 9.995-4.607t10.137-4.285 10.27-3.959q5.165-1.897 10.39-3.628 5.224-1.73 10.5-3.294 5.278-1.563 10.602-2.956t10.69-2.616 10.769-2.272 10.836-1.927q5.433-.876 10.892-1.579 5.458-.702 10.936-1.23 5.478-.527 10.97-.879t10.994-.528T400 1v344z"/><path fill="none" stroke="#fff" stroke-linejoin="bevel" stroke-width="2" d="M705.624 187.107q3.876 7.503 7.38 15.187 3.502 7.684 6.624 15.53t5.856 15.837q2.733 7.99 5.07 16.104 2.338 8.115 4.275 16.335t3.468 16.524 2.654 16.675 1.831 16.784 1.006 16.855.178 16.883-.65 16.872-1.479 16.82-2.301 16.726-3.12 16.594-3.93 16.42q-2.166 8.163-4.73 16.209t-5.52 15.956q-2.957 7.91-6.298 15.666-3.34 7.756-7.058 15.339-3.717 7.582-7.802 14.973t-8.527 14.573-9.232 14.137-9.915 13.667-10.573 13.164-11.207 12.629-11.812 12.064-12.39 11.47q-6.337 5.583-12.939 10.848t-13.455 10.2-13.94 9.528-14.39 8.832q-7.303 4.24-14.805 8.116-4.89 2.526-9.858 4.894t-10.009 4.577q-5.04 2.208-10.15 4.254t-10.281 3.927q-5.172 1.881-10.402 3.596t-10.51 3.262q-5.283 1.547-10.611 2.924t-10.698 2.583q-5.37 1.206-10.776 2.24-5.406 1.033-10.841 1.893-5.436.86-10.897 1.546-5.46.685-10.94 1.196t-10.974.846-10.994.494-11.005.142q-5.503-.016-11.004-.21-5.5-.192-10.991-.561t-10.968-.913-10.933-1.263-10.887-1.613-10.83-1.96q-5.399-1.066-10.761-2.305-5.362-1.238-10.682-2.648t-10.592-2.989q-5.273-1.579-10.491-3.326-5.22-1.747-10.38-3.66t-10.257-3.99q-5.096-2.077-10.124-4.316-5.027-2.24-9.98-4.638t-9.828-4.954-9.664-5.267-9.49-5.573q-7.213-4.392-14.201-9.133t-13.736-9.818-13.238-10.481-12.707-11.118-12.147-11.728-11.556-12.31-10.939-12.862q-5.31-6.565-10.294-13.383-4.983-6.818-9.625-13.872t-8.933-14.328-8.219-14.749-7.485-15.134-6.734-15.483-5.966-15.796-5.184-16.068-4.39-16.304-3.583-16.5-2.77-16.656-1.95-16.771-1.124-16.847-.296-16.882.533-16.876 1.36-16.83q.887-8.397 2.184-16.742 1.298-8.344 3.003-16.615t3.815-16.448 4.617-16.24 5.409-15.995 6.187-15.71 6.95-15.388 7.697-15.028q4.033-7.419 8.425-14.632 2.862-4.7 5.874-9.307t6.168-9.114 6.457-8.913 6.739-8.702 7.013-8.481 7.281-8.253 7.542-8.015 7.794-7.77q3.96-3.823 8.039-7.518 4.08-3.694 8.275-7.256 4.195-3.561 8.503-6.987t8.722-6.712 8.932-6.43q4.517-3.143 9.133-6.14t9.325-5.845q4.71-2.848 9.508-5.544t9.68-5.237q4.881-2.541 9.842-4.925 4.96-2.383 9.995-4.607t10.137-4.285 10.27-3.959q5.165-1.897 10.39-3.628 5.224-1.73 10.5-3.294 5.278-1.563 10.602-2.956t10.69-2.616 10.769-2.272 10.836-1.927q5.433-.876 10.892-1.579 5.458-.702 10.936-1.23 5.478-.527 10.97-.879t10.994-.528T400 1v344l305.624-157.893Z"/></svg>