<svg xmlns="http://www.w3.org/2000/svg" width="800" height="800"><path fill="none" d="M0 0h800v800H0z"/><clipPath id="a"><path d="M0 740h800v60H0z"/></clipPath><g clip-path="url(#a)"><path fill="#4caf50" d="M164.745 770h40v20h-40z"/><path fill="none" stroke="#fff" stroke-miterlimit="10" stroke-width="2" d="M164.745 770h40v20h-40z"/><text x="214.745, 226.2196, 232.87976, 244.00281, 254.00281, 259.55945, 270.6825," y="786.5," fill="#666" font-family="Liberation Sans" font-size="20">Trusted</text><path fill="#ff9800" d="M311.805 770h40v20h-40z"/><path fill="none" stroke="#fff" stroke-miterlimit="10" stroke-width="2" d="M311.805 770h40v20h-40z"/><text x="361.80499, 375.14484, 381.80499, 392.92804, 402.92804, 414.05109, 425.17413, 436.29718, 447.42023, 457.42023," y="786.5," fill="#666" font-family="Liberation Sans" font-size="20">Provenance</text><path fill="#f44336" d="M498.545 770h40v20h-40z"/><path fill="none" stroke="#fff" stroke-miterlimit="10" stroke-width="2" d="M498.545 770h40v20h-40z"/><text x="548.54498, 562.98834, 574.11139, 579.66803, 586.32819, 597.45123, 607.45123, 613.00787, 624.13092," y="786.5," fill="#666" font-family="Liberation Sans" font-size="20">Untrusted</text></g><path fill="#4caf50" d="M400 1q5.53 0 11.057.166 5.527.165 11.046.497 5.52.33 11.027.827 5.508.497 10.997 1.158 5.49.661 10.958 1.487 5.468.825 10.908 1.814t10.849 2.14 10.78 2.465 10.7 2.787 10.613 3.105q5.284 1.633 10.515 3.423t10.408 3.736 10.291 4.046 10.165 4.353q5.05 2.252 10.03 4.655t9.887 4.954 9.733 5.247 9.572 5.538 9.401 5.82q4.658 2.982 9.223 6.101 4.566 3.12 9.036 6.375t8.841 6.642q4.37 3.387 8.638 6.903 4.267 3.517 8.427 7.16t8.21 7.409 7.982 7.652 7.75 7.887q3.817 4.002 7.511 8.116t7.264 8.337 7.01 8.552q3.442 4.328 6.752 8.757 3.31 4.43 6.486 8.956L400 370z"/><path fill="none" stroke="#fff" stroke-linejoin="bevel" stroke-width="2" d="M400 1q5.53 0 11.057.166 5.527.165 11.046.497 5.52.33 11.027.827 5.508.497 10.997 1.158 5.49.661 10.958 1.487 5.468.825 10.908 1.814t10.849 2.14 10.78 2.465 10.7 2.787 10.613 3.105q5.284 1.633 10.515 3.423t10.408 3.736 10.291 4.046 10.165 4.353q5.05 2.252 10.03 4.655t9.887 4.954 9.733 5.247 9.572 5.538 9.401 5.82q4.658 2.982 9.223 6.101 4.566 3.12 9.036 6.375t8.841 6.642q4.37 3.387 8.638 6.903 4.267 3.517 8.427 7.16t8.21 7.409 7.982 7.652 7.75 7.887q3.817 4.002 7.511 8.116t7.264 8.337 7.01 8.552q3.442 4.328 6.752 8.757 3.31 4.43 6.486 8.956L400 370z"/><path fill="#ff9800" d="M702.067 158.065q11.497 16.386 21.153 33.918 9.656 17.533 17.36 36.008L400 370z"/><path fill="none" stroke="#fff" stroke-linejoin="bevel" stroke-width="2" d="M702.067 158.065q11.497 16.386 21.153 33.918 9.656 17.533 17.36 36.008L400 370l302.067-211.935Z"/><path fill="#f44336" d="M740.58 227.99q3.486 8.361 6.557 16.883t5.722 17.184 4.871 17.444 4.01 17.662T764.878 315t2.26 17.97 1.374 18.06.487 18.104-.402 18.107-1.29 18.066-2.175 17.98-3.054 17.852-3.927 17.68q-2.18 8.793-4.79 17.467-2.609 8.675-5.64 17.211-3.032 8.536-6.48 16.913-3.446 8.377-7.3 16.575t-8.105 16.197-8.89 15.779-9.654 15.324q-5.015 7.544-10.394 14.832t-11.109 14.304-11.798 13.742-12.457 13.147-13.088 12.519-13.686 11.862q-6.99 5.763-14.252 11.176-7.264 5.413-14.784 10.464-7.52 5.05-15.278 9.725t-15.738 8.964-16.158 8.181-16.54 7.378q-5.232 2.182-10.527 4.201-5.296 2.02-10.651 3.875-5.355 1.856-10.765 3.547-5.41 1.69-10.868 3.214-5.46 1.524-10.962 2.879-5.504 1.355-11.046 2.54t-11.118 2.201-11.18 1.858q-5.605.843-11.233 1.514-5.628.67-11.273 1.168-5.646.497-11.304.821t-11.324.474-11.334.126q-5.667-.025-11.331-.223t-11.32-.57-11.296-.918-11.263-1.264-11.22-1.61-11.164-1.953q-5.567-1.062-11.099-2.295t-11.023-2.635-10.937-2.972-10.84-3.307q-5.396-1.737-10.735-3.638-5.339-1.902-10.617-3.967-5.278-2.064-10.49-4.29t-10.354-4.61-10.208-4.927q-5.065-2.541-10.05-5.237t-9.886-5.544-9.71-5.844-9.527-6.14q-7.538-5.024-14.82-10.412-7.282-5.387-14.291-11.126t-13.728-11.814q-6.72-6.075-13.132-12.473-6.413-6.397-12.504-13.102t-11.846-13.7q-5.755-6.996-11.16-14.265-5.404-7.27-10.446-14.796t-9.707-15.29-8.946-15.748-8.162-16.168-7.359-16.549-6.538-16.89-5.701-17.19q-2.64-8.666-4.851-17.45-2.211-8.785-3.99-17.667-1.777-8.882-3.116-17.841t-2.238-17.973q-.899-9.014-1.354-18.06-.455-9.048-.466-18.106-.01-9.059.423-18.107.434-9.048 1.312-18.064.877-9.015 2.196-17.977 1.318-8.962 3.075-17.849 1.757-8.886 3.948-17.676t4.81-17.46q2.619-8.672 5.66-17.205t6.499-16.905 7.32-16.566q3.863-8.194 8.124-16.188t8.909-15.769 9.671-15.312q3.144-4.716 6.43-9.334 3.287-4.617 6.714-9.131 3.426-4.515 6.99-8.922 3.564-4.406 7.262-8.702 3.697-4.295 7.525-8.475t7.782-8.24 8.031-7.997 8.273-7.747 8.507-7.489 8.734-7.224 8.95-6.953 9.16-6.674q4.632-3.267 9.361-6.39t9.553-6.1 9.736-5.802 9.909-5.502 10.073-5.194q5.077-2.52 10.228-4.883 5.152-2.363 10.374-4.566 5.221-2.204 10.508-4.246t10.634-3.92q5.348-1.88 10.75-3.593t10.855-3.26q5.452-1.547 10.95-2.926t11.034-2.588 11.108-2.248 11.173-1.906 11.226-1.561 11.268-1.216 11.3-.87 11.322-.522T400 1v369z"/><path fill="none" stroke="#fff" stroke-linejoin="bevel" stroke-width="2" d="M740.58 227.99q3.486 8.361 6.557 16.883t5.722 17.184 4.871 17.444 4.01 17.662T764.878 315t2.26 17.97 1.374 18.06.487 18.104-.402 18.107-1.29 18.066-2.175 17.98-3.054 17.852-3.927 17.68q-2.18 8.793-4.79 17.467-2.609 8.675-5.64 17.211-3.032 8.536-6.48 16.913-3.446 8.377-7.3 16.575t-8.105 16.197-8.89 15.779-9.654 15.324q-5.015 7.544-10.394 14.832t-11.109 14.304-11.798 13.742-12.457 13.147-13.088 12.519-13.686 11.862q-6.99 5.763-14.252 11.176-7.264 5.413-14.784 10.464-7.52 5.05-15.278 9.725t-15.738 8.964-16.158 8.181-16.54 7.378q-5.232 2.182-10.527 4.201-5.296 2.02-10.651 3.875-5.355 1.856-10.765 3.547-5.41 1.69-10.868 3.214-5.46 1.524-10.962 2.879-5.504 1.355-11.046 2.54t-11.118 2.201-11.18 1.858q-5.605.843-11.233 1.514-5.628.67-11.273 1.168-5.646.497-11.304.821t-11.324.474-11.334.126q-5.667-.025-11.331-.223t-11.32-.57-11.296-.918-11.263-1.264-11.22-1.61-11.164-1.953q-5.567-1.062-11.099-2.295t-11.023-2.635-10.937-2.972-10.84-3.307q-5.396-1.737-10.735-3.638-5.339-1.902-10.617-3.967-5.278-2.064-10.49-4.29t-10.354-4.61-10.208-4.927q-5.065-2.541-10.05-5.237t-9.886-5.544-9.71-5.844-9.527-6.14q-7.538-5.024-14.82-10.412-7.282-5.387-14.291-11.126t-13.728-11.814q-6.72-6.075-13.132-12.473-6.413-6.397-12.504-13.102t-11.846-13.7q-5.755-6.996-11.16-14.265-5.404-7.27-10.446-14.796t-9.707-15.29-8.946-15.748-8.162-16.168-7.359-16.549-6.538-16.89-5.701-17.19q-2.64-8.666-4.851-17.45-2.211-8.785-3.99-17.667-1.777-8.882-3.116-17.841t-2.238-17.973q-.899-9.014-1.354-18.06-.455-9.048-.466-18.106-.01-9.059.423-18.107.434-9.048 1.312-18.064.877-9.015 2.196-17.977 1.318-8.962 3.075-17.849 1.757-8.886 3.948-17.676t4.81-17.46q2.619-8.672 5.66-17.205t6.499-16.905 7.32-16.566q3.863-8.194 8.124-16.188t8.909-15.769 9.671-15.312q3.144-4.716 6.43-9.334 3.287-4.617 6.714-9.131 3.426-4.515 6.99-8.922 3.564-4.406 7.262-8.702 3.697-4.295 7.525-8.475t7.782-8.24 8.031-7.997 8.273-7.747 8.507-7.489 8.734-7.224 8.95-6.953 9.16-6.674q4.632-3.267 9.361-6.39t9.553-6.1 9.736-5.802 9.909-5.502 10.073-5.194q5.077-2.52 10.228-4.883 5.152-2.363 10.374-4.566 5.221-2.204 10.508-4.246t10.634-3.92q5.348-1.88 10.75-3.593t10.855-3.26q5.452-1.547 10.95-2.926t11.034-2.588 11.108-2.248 11.173-1.906 11.226-1.561 11.268-1.216 11.3-.87 11.322-.522T400 1v369l340.58-142.01Z"/></svg>