<svg xmlns="http://www.w3.org/2000/svg" width="800" height="800"><path fill="none" d="M0 0h800v800H0z"/><clipPath id="a"><path d="M0 690h800v110H0z"/></clipPath><g clip-path="url(#a)"><path fill="#4caf50" d="M123.3 720h40v20h-40z"/><path fill="none" stroke="#fff" stroke-miterlimit="10" stroke-width="2" d="M123.3 720h40v20h-40z"/><path fill="#ff9800" d="M377.64 720h40v20h-40z"/><path fill="none" stroke="#fff" stroke-miterlimit="10" stroke-width="2" d="M377.64 720h40v20h-40z"/><path fill="#f44336" d="M262.92 770h40v20h-40z"/><path fill="none" stroke="#fff" stroke-miterlimit="10" stroke-width="2" d="M262.92 770h40v20h-40z"/></g><path fill="#4caf50" d="M400 1q4.198 0 8.395.102 4.197.103 8.39.308t8.38.512 8.366.716q4.178.41 8.345.92 4.167.511 8.32 1.124t8.29 1.326 8.256 1.529 8.216 1.729 8.17 1.93q4.075 1.014 8.122 2.127 4.048 1.114 8.068 2.326t8.008 2.522 7.944 2.717 7.875 2.91q3.92 1.502 7.803 3.1t7.724 3.29q3.842 1.693 7.641 3.479 3.8 1.785 7.555 3.663t7.462 3.847 7.367 4.027 7.266 4.207 7.161 4.382 7.053 4.556 6.938 4.726 6.822 4.895q3.38 2.489 6.7 5.06t6.575 5.22 6.445 5.381 6.312 5.536 6.175 5.689 6.034 5.837L400 345z"/><path fill="none" stroke="#fff" stroke-linejoin="bevel" stroke-width="2" d="M400 1q4.198 0 8.395.102 4.197.103 8.39.308t8.38.512 8.366.716q4.178.41 8.345.92 4.167.511 8.32 1.124t8.29 1.326 8.256 1.529 8.216 1.729 8.17 1.93q4.075 1.014 8.122 2.127 4.048 1.114 8.068 2.326t8.008 2.522 7.944 2.717 7.875 2.91q3.92 1.502 7.803 3.1t7.724 3.29q3.842 1.693 7.641 3.479 3.8 1.785 7.555 3.663t7.462 3.847 7.367 4.027 7.266 4.207 7.161 4.382 7.053 4.556 6.938 4.726 6.822 4.895q3.38 2.489 6.7 5.06t6.575 5.22 6.445 5.381 6.312 5.536 6.175 5.689 6.034 5.837L400 345z"/><path fill="#ff9800" d="M642.178 100.693q16.07 15.93 29.915 33.828 13.845 17.897 25.226 37.454L400 345z"/><path fill="none" stroke="#fff" stroke-linejoin="bevel" stroke-width="2" d="M642.178 100.693q16.07 15.93 29.915 33.828 13.845 17.897 25.226 37.454L400 345l242.178-244.307Z"/><path fill="#f44336" d="M697.319 171.975q4.247 7.299 8.131 14.797t7.396 15.179 6.643 15.522q3.13 7.843 5.872 15.83 2.742 7.988 5.089 16.1t4.293 16.33q1.946 8.217 3.486 16.52t2.671 16.672 1.85 16.782q.72 8.414 1.025 16.854t.196 16.883-.632 16.872q-.523 8.429-1.46 16.822t-2.283 16.729q-1.347 8.336-3.1 16.597-1.755 8.26-3.913 16.425-2.157 8.164-4.713 16.213t-5.503 15.962-6.28 15.674-7.04 15.346q-3.71 7.586-7.786 14.982-4.077 7.396-8.512 14.582-4.434 7.187-9.216 14.147t-9.9 13.678q-5.118 6.717-10.559 13.175t-11.192 12.642-11.8 12.077-12.378 11.483-12.926 10.863-13.444 10.215-13.929 9.543-14.38 8.848q-4.873 2.836-9.837 5.51t-10.012 5.186-10.177 4.855q-5.128 2.343-10.33 4.518-5.203 2.174-10.473 4.177t-10.605 3.832q-5.333 1.83-10.724 3.483-5.39 1.653-10.832 3.129t-10.93 2.772-11.014 2.413-11.087 2.05-11.149 1.686-11.197 1.32q-5.61.568-11.236.952-5.625.384-11.26.583-5.635.2-11.273.214-5.639.014-11.274-.156-5.636-.17-11.264-.525t-11.24-.894-11.204-1.262-11.157-1.628-11.098-1.993-11.027-2.356-10.943-2.716-10.849-3.073-10.742-3.427q-5.342-1.801-10.623-3.777-5.281-1.975-10.495-4.123-5.213-2.147-10.353-4.465t-10.202-4.802-10.04-5.133-9.864-5.46q-7.321-4.21-14.427-8.774t-13.977-9.471-13.497-10.146-12.982-10.795-12.437-11.42q-6.079-5.862-11.862-12.015t-11.258-12.584q-5.474-6.43-10.627-13.12-5.152-6.691-9.97-13.627-4.818-6.935-9.29-14.099-4.471-7.163-8.586-14.538-4.115-7.374-7.863-14.942-3.748-7.567-7.12-15.31-3.372-7.741-6.36-15.64-2.989-7.898-5.586-15.934t-4.797-16.188T63.88 418.2t-3.187-16.58-2.37-16.718q-.98-8.388-1.546-16.813-.567-8.426-.72-16.87-.152-8.443.11-16.883.261-8.44.937-16.859.675-8.417 1.763-16.792 1.088-8.374 2.585-16.685 1.498-8.31 3.401-16.538 1.904-8.228 4.209-16.352t5.005-16.125q2.7-8.001 5.79-15.86 3.09-7.86 6.563-15.557 3.472-7.698 7.317-15.217 3.846-7.518 8.055-14.839 2.811-4.888 5.78-9.68 2.97-4.794 6.095-9.487t6.402-9.282q3.277-4.588 6.703-9.066t6.997-8.843 7.282-8.608 7.56-8.365q3.85-4.12 7.831-8.112t8.093-7.852q4.11-3.86 8.345-7.582t8.59-7.305 8.823-7.019 9.05-6.726 9.265-6.426 9.47-6.12q4.786-2.981 9.667-5.805 4.88-2.823 9.85-5.485 4.971-2.662 10.026-5.16 5.055-2.497 10.19-4.828 5.134-2.33 10.342-4.491 5.208-2.162 10.483-4.15 5.276-1.99 10.614-3.805t10.734-3.455q5.394-1.64 10.84-3.101t10.937-2.744 11.02-2.384 11.093-2.022 11.153-1.657q5.59-.738 11.2-1.291 5.612-.554 11.238-.923 5.627-.37 11.262-.554T400 1v344z"/><path fill="none" stroke="#fff" stroke-linejoin="bevel" stroke-width="2" d="M697.319 171.975q4.247 7.299 8.131 14.797t7.396 15.179 6.643 15.522q3.13 7.843 5.872 15.83 2.742 7.988 5.089 16.1t4.293 16.33q1.946 8.217 3.486 16.52t2.671 16.672 1.85 16.782q.72 8.414 1.025 16.854t.196 16.883-.632 16.872q-.523 8.429-1.46 16.822t-2.283 16.729q-1.347 8.336-3.1 16.597-1.755 8.26-3.913 16.425-2.157 8.164-4.713 16.213t-5.503 15.962-6.28 15.674-7.04 15.346q-3.71 7.586-7.786 14.982-4.077 7.396-8.512 14.582-4.434 7.187-9.216 14.147t-9.9 13.678q-5.118 6.717-10.559 13.175t-11.192 12.642-11.8 12.077-12.378 11.483-12.926 10.863-13.444 10.215-13.929 9.543-14.38 8.848q-4.873 2.836-9.837 5.51t-10.012 5.186-10.177 4.855q-5.128 2.343-10.33 4.518-5.203 2.174-10.473 4.177t-10.605 3.832q-5.333 1.83-10.724 3.483-5.39 1.653-10.832 3.129t-10.93 2.772-11.014 2.413-11.087 2.05-11.149 1.686-11.197 1.32q-5.61.568-11.236.952-5.625.384-11.26.583-5.635.2-11.273.214-5.639.014-11.274-.156-5.636-.17-11.264-.525t-11.24-.894-11.204-1.262-11.157-1.628-11.098-1.993-11.027-2.356-10.943-2.716-10.849-3.073-10.742-3.427q-5.342-1.801-10.623-3.777-5.281-1.975-10.495-4.123-5.213-2.147-10.353-4.465t-10.202-4.802-10.04-5.133-9.864-5.46q-7.321-4.21-14.427-8.774t-13.977-9.471-13.497-10.146-12.982-10.795-12.437-11.42q-6.079-5.862-11.862-12.015t-11.258-12.584q-5.474-6.43-10.627-13.12-5.152-6.691-9.97-13.627-4.818-6.935-9.29-14.099-4.471-7.163-8.586-14.538-4.115-7.374-7.863-14.942-3.748-7.567-7.12-15.31-3.372-7.741-6.36-15.64-2.989-7.898-5.586-15.934t-4.797-16.188T63.88 418.2t-3.187-16.58-2.37-16.718q-.98-8.388-1.546-16.813-.567-8.426-.72-16.87-.152-8.443.11-16.883.261-8.44.937-16.859.675-8.417 1.763-16.792 1.088-8.374 2.585-16.685 1.498-8.31 3.401-16.538 1.904-8.228 4.209-16.352t5.005-16.125q2.7-8.001 5.79-15.86 3.09-7.86 6.563-15.557 3.472-7.698 7.317-15.217 3.846-7.518 8.055-14.839 2.811-4.888 5.78-9.68 2.97-4.794 6.095-9.487t6.402-9.282q3.277-4.588 6.703-9.066t6.997-8.843 7.282-8.608 7.56-8.365q3.85-4.12 7.831-8.112t8.093-7.852q4.11-3.86 8.345-7.582t8.59-7.305 8.823-7.019 9.05-6.726 9.265-6.426 9.47-6.12q4.786-2.981 9.667-5.805 4.88-2.823 9.85-5.485 4.971-2.662 10.026-5.16 5.055-2.497 10.19-4.828 5.134-2.33 10.342-4.491 5.208-2.162 10.483-4.15 5.276-1.99 10.614-3.805t10.734-3.455q5.394-1.64 10.84-3.101t10.937-2.744 11.02-2.384 11.093-2.022 11.153-1.657q5.59-.738 11.2-1.291 5.612-.554 11.238-.923 5.627-.37 11.262-.554T400 1v344l297.319-173.025Z"/></svg>