<svg xmlns="http://www.w3.org/2000/svg" width="800" height="800"><path fill="none" d="M0 0h800v800H0z"/><clipPath id="a"><path d="M0 690h800v110H0z"/></clipPath><g clip-path="url(#a)"><path fill="#4caf50" d="M123.3 720h40v20h-40z"/><path fill="none" stroke="#fff" stroke-miterlimit="10" stroke-width="2" d="M123.3 720h40v20h-40z"/><path fill="#ff9800" d="M377.64 720h40v20h-40z"/><path fill="none" stroke="#fff" stroke-miterlimit="10" stroke-width="2" d="M377.64 720h40v20h-40z"/><path fill="#f44336" d="M262.92 770h40v20h-40z"/><path fill="none" stroke="#fff" stroke-miterlimit="10" stroke-width="2" d="M262.92 770h40v20h-40z"/></g><path fill="#4caf50" d="M400 1q4.674 0 9.347.127t9.34.38q4.667.255 9.326.635 4.659.381 9.306.888t9.278 1.14q4.63.634 9.243 1.392 4.612.76 9.202 1.643 4.59.884 9.155 1.892t9.1 2.14q4.534 1.132 9.037 2.386t8.97 2.632q4.467 1.376 8.895 2.874 4.428 1.497 8.813 3.114t8.726 3.353 8.632 3.589 8.53 3.822 8.424 4.052 8.31 4.28 8.192 4.503 8.065 4.725 7.935 4.943 7.797 5.155 7.654 5.366 7.506 5.572 7.351 5.774 7.192 5.972 7.027 6.164 6.857 6.353q3.385 3.224 6.681 6.538t6.502 6.716q3.205 3.402 6.317 6.89 3.111 3.489 6.127 7.06L400 345z"/><path fill="none" stroke="#fff" stroke-linejoin="bevel" stroke-width="2" d="M400 1q4.674 0 9.347.127t9.34.38q4.667.255 9.326.635 4.659.381 9.306.888t9.278 1.14q4.63.634 9.243 1.392 4.612.76 9.202 1.643 4.59.884 9.155 1.892t9.1 2.14q4.534 1.132 9.037 2.386t8.97 2.632q4.467 1.376 8.895 2.874 4.428 1.497 8.813 3.114t8.726 3.353 8.632 3.589 8.53 3.822 8.424 4.052 8.31 4.28 8.192 4.503 8.065 4.725 7.935 4.943 7.797 5.155 7.654 5.366 7.506 5.572 7.351 5.774 7.192 5.972 7.027 6.164 6.857 6.353q3.385 3.224 6.681 6.538t6.502 6.716q3.205 3.402 6.317 6.89 3.111 3.489 6.127 7.06L400 345z"/><path fill="#ff9800" d="M662.837 123.07q13.775 16.315 25.428 34.208 11.652 17.894 21.002 37.09L400 345z"/><path fill="none" stroke="#fff" stroke-linejoin="bevel" stroke-width="2" d="M662.837 123.07q13.775 16.315 25.428 34.208 11.652 17.894 21.002 37.09L400 345l262.837-221.93Z"/><path fill="#f44336" d="M709.267 194.369q3.698 7.592 7.019 15.356 3.32 7.764 6.256 15.682t5.48 15.97q2.544 8.053 4.69 16.22 2.145 8.168 3.887 16.432t3.077 16.601 2.259 16.733 1.435 16.823.607 16.873q.097 8.445-.22 16.883-.318 8.44-1.05 16.852-.731 8.413-1.875 16.78-1.143 8.367-2.695 16.668-1.553 8.3-3.51 16.515-1.959 8.215-4.317 16.324-2.359 8.108-5.113 16.091-2.753 7.983-5.895 15.822t-6.665 15.513-7.419 15.168-8.153 14.785-8.87 14.367q-4.61 7.075-9.562 13.915-4.953 6.84-10.235 13.429t-10.881 12.91-11.502 12.361-12.094 11.782-12.658 11.174-13.19 10.54-13.693 9.88-14.16 9.195-14.595 8.49-14.994 7.764q-4.89 2.382-9.854 4.608-4.964 2.227-9.995 4.295-5.032 2.068-10.126 3.976-5.095 1.908-10.247 3.654t-10.357 3.329-10.457 2.999q-5.253 1.416-10.547 2.667t-10.626 2.332q-5.331 1.082-10.694 1.995t-10.752 1.655q-5.39.743-10.8 1.315-5.41.573-10.834.973-5.426.401-10.86.63-5.436.229-10.876.286t-10.878-.058-10.872-.402-10.853-.745q-5.42-.459-10.824-1.089t-10.785-1.43-10.733-1.77-10.673-2.109q-5.32-1.139-10.6-2.445-5.281-1.306-10.518-2.78-5.237-1.472-10.425-3.11-5.187-1.637-10.32-3.438-5.134-1.8-10.208-3.763t-10.083-4.084q-5.01-2.122-9.949-4.4-4.94-2.28-9.805-4.714t-9.65-5.02-9.488-5.324q-4.701-2.737-9.314-5.621-7.16-4.477-14.092-9.3t-13.619-9.98-13.113-10.636-12.575-11.267-12.007-11.87q-5.858-6.084-11.41-12.446-5.553-6.363-10.787-12.99-5.233-6.628-10.135-13.504-4.902-6.877-9.46-13.985-4.56-7.109-8.764-14.432t-8.044-14.845q-3.84-7.521-7.307-15.222-3.466-7.7-6.55-15.562t-5.78-15.864q-2.694-8.004-4.993-16.13t-4.196-16.354q-1.898-8.229-3.39-16.54-1.49-8.313-2.572-16.688t-1.751-16.793q-.67-8.418-.925-16.86-.256-8.44-.097-16.883.159-8.444.732-16.869t1.558-16.812 2.382-16.716 3.2-16.578q1.802-8.25 4.008-16.402 2.206-8.151 4.809-16.185t5.597-15.93 6.372-15.635 7.131-15.305 7.874-14.936 8.597-14.531q2.884-4.613 5.912-9.132 3.029-4.52 6.199-8.94 3.17-4.422 6.478-8.74t6.75-8.531 7.018-8.313 7.277-8.087 7.529-7.852q3.826-3.867 7.773-7.611t8.01-7.361 8.239-7.104q4.175-3.487 8.46-6.84 4.283-3.353 8.67-6.57 4.388-3.215 8.875-6.291 4.488-3.076 9.07-6.008t9.254-5.718 9.431-5.423q4.759-2.637 9.598-5.122t9.755-4.815q4.915-2.33 9.902-4.505t10.04-4.19 10.167-3.87q5.114-1.854 10.284-3.546t10.392-3.22 10.488-2.889q5.267-1.361 10.574-2.556 5.307-1.194 10.65-2.22 5.342-1.027 10.714-1.883t10.77-1.543 10.811-1.202 10.845-.86q5.43-.343 10.867-.515T400 1v344z"/><path fill="none" stroke="#fff" stroke-linejoin="bevel" stroke-width="2" d="M709.267 194.369q3.698 7.592 7.019 15.356 3.32 7.764 6.256 15.682t5.48 15.97q2.544 8.053 4.69 16.22 2.145 8.168 3.887 16.432t3.077 16.601 2.259 16.733 1.435 16.823.607 16.873q.097 8.445-.22 16.883-.318 8.44-1.05 16.852-.731 8.413-1.875 16.78-1.143 8.367-2.695 16.668-1.553 8.3-3.51 16.515-1.959 8.215-4.317 16.324-2.359 8.108-5.113 16.091-2.753 7.983-5.895 15.822t-6.665 15.513-7.419 15.168-8.153 14.785-8.87 14.367q-4.61 7.075-9.562 13.915-4.953 6.84-10.235 13.429t-10.881 12.91-11.502 12.361-12.094 11.782-12.658 11.174-13.19 10.54-13.693 9.88-14.16 9.195-14.595 8.49-14.994 7.764q-4.89 2.382-9.854 4.608-4.964 2.227-9.995 4.295-5.032 2.068-10.126 3.976-5.095 1.908-10.247 3.654t-10.357 3.329-10.457 2.999q-5.253 1.416-10.547 2.667t-10.626 2.332q-5.331 1.082-10.694 1.995t-10.752 1.655q-5.39.743-10.8 1.315-5.41.573-10.834.973-5.426.401-10.86.63-5.436.229-10.876.286t-10.878-.058-10.872-.402-10.853-.745q-5.42-.459-10.824-1.089t-10.785-1.43-10.733-1.77-10.673-2.109q-5.32-1.139-10.6-2.445-5.281-1.306-10.518-2.78-5.237-1.472-10.425-3.11-5.187-1.637-10.32-3.438-5.134-1.8-10.208-3.763t-10.083-4.084q-5.01-2.122-9.949-4.4-4.94-2.28-9.805-4.714t-9.65-5.02-9.488-5.324q-4.701-2.737-9.314-5.621-7.16-4.477-14.092-9.3t-13.619-9.98-13.113-10.636-12.575-11.267-12.007-11.87q-5.858-6.084-11.41-12.446-5.553-6.363-10.787-12.99-5.233-6.628-10.135-13.504-4.902-6.877-9.46-13.985-4.56-7.109-8.764-14.432t-8.044-14.845q-3.84-7.521-7.307-15.222-3.466-7.7-6.55-15.562t-5.78-15.864q-2.694-8.004-4.993-16.13t-4.196-16.354q-1.898-8.229-3.39-16.54-1.49-8.313-2.572-16.688t-1.751-16.793q-.67-8.418-.925-16.86-.256-8.44-.097-16.883.159-8.444.732-16.869t1.558-16.812 2.382-16.716 3.2-16.578q1.802-8.25 4.008-16.402 2.206-8.151 4.809-16.185t5.597-15.93 6.372-15.635 7.131-15.305 7.874-14.936 8.597-14.531q2.884-4.613 5.912-9.132 3.029-4.52 6.199-8.94 3.17-4.422 6.478-8.74t6.75-8.531 7.018-8.313 7.277-8.087 7.529-7.852q3.826-3.867 7.773-7.611t8.01-7.361 8.239-7.104q4.175-3.487 8.46-6.84 4.283-3.353 8.67-6.57 4.388-3.215 8.875-6.291 4.488-3.076 9.07-6.008t9.254-5.718 9.431-5.423q4.759-2.637 9.598-5.122t9.755-4.815q4.915-2.33 9.902-4.505t10.04-4.19 10.167-3.87q5.114-1.854 10.284-3.546t10.392-3.22 10.488-2.889q5.267-1.361 10.574-2.556 5.307-1.194 10.65-2.22 5.342-1.027 10.714-1.883t10.77-1.543 10.811-1.202 10.845-.86q5.43-.343 10.867-.515T400 1v344l309.267-150.632Z"/></svg>