<svg xmlns="http://www.w3.org/2000/svg" width="800" height="800"><path fill="none" d="M0 0h800v800H0z"/><clipPath id="a"><path d="M0 740h800v60H0z"/></clipPath><g clip-path="url(#a)"><path fill="#4caf50" d="M164.745 770h40v20h-40z"/><path fill="none" stroke="#fff" stroke-miterlimit="10" stroke-width="2" d="M164.745 770h40v20h-40z"/><text x="214.745, 226.2196, 232.87976, 244.00281, 254.00281, 259.55945, 270.6825," y="786.5," fill="#666" font-family="Liberation Sans" font-size="20">Trusted</text><path fill="#ff9800" d="M311.805 770h40v20h-40z"/><path fill="none" stroke="#fff" stroke-miterlimit="10" stroke-width="2" d="M311.805 770h40v20h-40z"/><text x="361.80499, 375.14484, 381.80499, 392.92804, 402.92804, 414.05109, 425.17413, 436.29718, 447.42023, 457.42023," y="786.5," fill="#666" font-family="Liberation Sans" font-size="20">Provenance</text><path fill="#f44336" d="M498.545 770h40v20h-40z"/><path fill="none" stroke="#fff" stroke-miterlimit="10" stroke-width="2" d="M498.545 770h40v20h-40z"/><text x="548.54498, 562.98834, 574.11139, 579.66803, 586.32819, 597.45123, 607.45123, 613.00787, 624.13092," y="786.5," fill="#666" font-family="Liberation Sans" font-size="20">Untrusted</text></g><path fill="#4caf50" d="M400 1q5.586 0 11.168.17 5.583.168 11.159.506 5.575.338 11.137.845t11.108 1.18 11.066 1.518 11.015 1.85q5.494 1.01 10.954 2.184t10.883 2.515 10.802 2.842q5.38 1.503 10.712 3.168t10.61 3.491q5.278 1.826 10.5 3.81 5.22 1.985 10.38 4.127 5.158 2.142 10.249 4.438 5.091 2.297 10.11 4.747 5.02 2.45 9.964 5.051 4.943 2.6 9.805 5.35t9.638 5.644 9.464 5.934q4.687 3.038 9.28 6.217t9.087 6.495 8.886 6.767 8.678 7.033q4.285 3.583 8.46 7.293t8.236 7.545 8.004 7.791 7.765 8.03 7.517 8.261 7.265 8.485q3.568 4.297 7.004 8.7 3.436 4.404 6.738 8.91 3.301 4.505 6.465 9.108L400 370z"/><path fill="none" stroke="#fff" stroke-linejoin="bevel" stroke-width="2" d="M400 1q5.586 0 11.168.17 5.583.168 11.159.506 5.575.338 11.137.845t11.108 1.18 11.066 1.518 11.015 1.85q5.494 1.01 10.954 2.184t10.883 2.515 10.802 2.842q5.38 1.503 10.712 3.168t10.61 3.491q5.278 1.826 10.5 3.81 5.22 1.985 10.38 4.127 5.158 2.142 10.249 4.438 5.091 2.297 10.11 4.747 5.02 2.45 9.964 5.051 4.943 2.6 9.805 5.35t9.638 5.644 9.464 5.934q4.687 3.038 9.28 6.217t9.087 6.495 8.886 6.767 8.678 7.033q4.285 3.583 8.46 7.293t8.236 7.545 8.004 7.791 7.765 8.03 7.517 8.261 7.265 8.485q3.568 4.297 7.004 8.7 3.436 4.404 6.738 8.91 3.301 4.505 6.465 9.108L400 370z"/><path fill="#ff9800" d="M704.109 161.005q11.292 16.432 20.749 33.985t16.966 36.022L400 370z"/><path fill="none" stroke="#fff" stroke-linejoin="bevel" stroke-width="2" d="M704.109 161.005q11.292 16.432 20.749 33.985t16.966 36.022L400 370l304.109-208.995Z"/><path fill="#f44336" d="M741.824 231.012q3.412 8.391 6.408 16.94t5.569 17.234 4.717 17.486 3.853 17.697 2.98 17.865 2.1 17.989 1.215 18.07.326 18.11q-.059 9.057-.562 18.102t-1.45 18.053q-.947 9.009-2.334 17.96t-3.213 17.825-4.083 17.645-4.944 17.423-5.793 17.16q-3.107 8.51-6.628 16.855-3.52 8.347-7.447 16.51t-8.248 16.124-9.03 15.7q-4.707 7.74-9.789 15.238-5.081 7.5-10.525 14.74-5.443 7.24-11.235 14.205t-11.92 13.637-12.573 13.035-13.198 12.403q-6.751 6.04-13.79 11.74-7.04 5.702-14.351 11.05-7.31 5.349-14.875 10.332t-15.365 9.59-15.816 8.824q-8.016 4.218-16.23 8.038t-16.605 7.232q-5.227 2.125-10.516 4.089t-10.635 3.766-10.746 3.44q-5.4 1.637-10.846 3.108-5.447 1.472-10.936 2.776-5.49 1.305-11.016 2.44-5.526 1.137-11.085 2.103t-11.144 1.763q-5.586.796-11.193 1.42-5.608.625-11.231 1.079t-11.26.734q-5.634.281-11.275.39t-11.283.044q-5.642-.064-11.279-.3t-11.264-.645-11.24-.989-11.203-1.332-11.158-1.674q-5.567-.922-11.102-2.014-5.535-1.093-11.035-2.353-5.499-1.261-10.957-2.69-5.459-1.428-10.87-3.022-5.413-1.595-10.773-3.354-5.361-1.76-10.666-3.682-5.304-1.922-10.547-4.006-5.244-2.083-10.42-4.326-5.178-2.243-10.284-4.644-5.106-2.4-10.136-4.955t-9.98-5.263-9.815-5.565-9.64-5.863-9.456-6.155q-7.515-5.058-14.774-10.477t-14.241-11.19q-6.984-5.769-13.676-11.874t-13.076-12.531-12.446-13.158q-6.062-6.732-11.785-13.753-5.724-7.02-11.097-14.314-5.372-7.293-10.38-14.841-5.008-7.549-9.64-15.333-4.631-7.785-8.875-15.788-4.245-8.003-8.09-16.204-3.847-8.201-7.286-16.581-3.44-8.38-6.464-16.92-3.023-8.538-5.625-17.215t-4.773-17.471q-2.173-8.794-3.911-17.684t-3.038-17.855-2.159-17.982-1.274-18.067-.385-18.107.503-18.105 1.392-18.058 2.275-17.967 3.154-17.835 4.026-17.658 4.888-17.44q2.657-8.66 5.737-17.179t6.573-16.876 7.393-16.534 8.196-16.15 8.978-15.73 9.74-15.27q3.15-4.681 6.44-9.264 3.292-4.582 6.722-9.062t6.996-8.852 7.263-8.635q3.697-4.261 7.523-8.408t7.777-8.174 8.023-7.933 8.262-7.684 8.493-7.428 8.716-7.164q4.413-3.516 8.931-6.895 4.519-3.38 9.138-6.618 4.62-3.24 9.336-6.336t9.525-6.048q4.809-2.95 9.706-5.754 4.896-2.802 9.876-5.454t10.04-5.15 10.191-4.84 10.335-4.526q5.203-2.184 10.47-4.208 5.266-2.024 10.591-3.886 5.326-1.863 10.707-3.561 5.38-1.699 10.81-3.232t10.904-2.9 10.987-2.564q5.513-1.199 11.06-2.228t11.124-1.889q5.577-.859 11.176-1.547 5.6-.689 11.219-1.206 5.618-.516 11.25-.861t11.27-.518T400 1v369z"/><path fill="none" stroke="#fff" stroke-linejoin="bevel" stroke-width="2" d="M741.824 231.012q3.412 8.391 6.408 16.94t5.569 17.234 4.717 17.486 3.853 17.697 2.98 17.865 2.1 17.989 1.215 18.07.326 18.11q-.059 9.057-.562 18.102t-1.45 18.053q-.947 9.009-2.334 17.96t-3.213 17.825-4.083 17.645-4.944 17.423-5.793 17.16q-3.107 8.51-6.628 16.855-3.52 8.347-7.447 16.51t-8.248 16.124-9.03 15.7q-4.707 7.74-9.789 15.238-5.081 7.5-10.525 14.74-5.443 7.24-11.235 14.205t-11.92 13.637-12.573 13.035-13.198 12.403q-6.751 6.04-13.79 11.74-7.04 5.702-14.351 11.05-7.31 5.349-14.875 10.332t-15.365 9.59-15.816 8.824q-8.016 4.218-16.23 8.038t-16.605 7.232q-5.227 2.125-10.516 4.089t-10.635 3.766-10.746 3.44q-5.4 1.637-10.846 3.108-5.447 1.472-10.936 2.776-5.49 1.305-11.016 2.44-5.526 1.137-11.085 2.103t-11.144 1.763q-5.586.796-11.193 1.42-5.608.625-11.231 1.079t-11.26.734q-5.634.281-11.275.39t-11.283.044q-5.642-.064-11.279-.3t-11.264-.645-11.24-.989-11.203-1.332-11.158-1.674q-5.567-.922-11.102-2.014-5.535-1.093-11.035-2.353-5.499-1.261-10.957-2.69-5.459-1.428-10.87-3.022-5.413-1.595-10.773-3.354-5.361-1.76-10.666-3.682-5.304-1.922-10.547-4.006-5.244-2.083-10.42-4.326-5.178-2.243-10.284-4.644-5.106-2.4-10.136-4.955t-9.98-5.263-9.815-5.565-9.64-5.863-9.456-6.155q-7.515-5.058-14.774-10.477t-14.241-11.19q-6.984-5.769-13.676-11.874t-13.076-12.531-12.446-13.158q-6.062-6.732-11.785-13.753-5.724-7.02-11.097-14.314-5.372-7.293-10.38-14.841-5.008-7.549-9.64-15.333-4.631-7.785-8.875-15.788-4.245-8.003-8.09-16.204-3.847-8.201-7.286-16.581-3.44-8.38-6.464-16.92-3.023-8.538-5.625-17.215t-4.773-17.471q-2.173-8.794-3.911-17.684t-3.038-17.855-2.159-17.982-1.274-18.067-.385-18.107.503-18.105 1.392-18.058 2.275-17.967 3.154-17.835 4.026-17.658 4.888-17.44q2.657-8.66 5.737-17.179t6.573-16.876 7.393-16.534 8.196-16.15 8.978-15.73 9.74-15.27q3.15-4.681 6.44-9.264 3.292-4.582 6.722-9.062t6.996-8.852 7.263-8.635q3.697-4.261 7.523-8.408t7.777-8.174 8.023-7.933 8.262-7.684 8.493-7.428 8.716-7.164q4.413-3.516 8.931-6.895 4.519-3.38 9.138-6.618 4.62-3.24 9.336-6.336t9.525-6.048q4.809-2.95 9.706-5.754 4.896-2.802 9.876-5.454t10.04-5.15 10.191-4.84 10.335-4.526q5.203-2.184 10.47-4.208 5.266-2.024 10.591-3.886 5.326-1.863 10.707-3.561 5.38-1.699 10.81-3.232t10.904-2.9 10.987-2.564q5.513-1.199 11.06-2.228t11.124-1.889q5.577-.859 11.176-1.547 5.6-.689 11.219-1.206 5.618-.516 11.25-.861t11.27-.518T400 1v369l341.824-138.988Z"/></svg>