<svg xmlns="http://www.w3.org/2000/svg" width="800" height="800"><path fill="none" d="M0 0h800v800H0z"/><clipPath id="a"><path d="M0 740h800v60H0z"/></clipPath><g clip-path="url(#a)"><path fill="#4caf50" d="M144.605 770h40v20h-40z"/><path fill="none" stroke="#fff" stroke-miterlimit="10" stroke-width="2" d="M144.605 770h40v20h-40z"/><text x="194.605, 207.94484, 217.50539, 230.38625, 240.64992, 248.68703, 260.52295," y="787.5," fill="#666" font-family="DejaVu Serif" font-size="20">Trusted</text><path fill="#ff9800" d="M303.325 770h40v20h-40z"/><path fill="none" stroke="#fff" stroke-miterlimit="10" stroke-width="2" d="M303.325 770h40v20h-40z"/><text x="353.32501, 366.78204, 376.34259, 388.38361, 399.68243, 411.51837, 424.39923, 436.32306, 449.20392, 460.40509," y="787.5," fill="#666" font-family="DejaVu Serif" font-size="20">Provenance</text><path fill="#f44336" d="M502.245 770h40v20h-40z"/><path fill="none" stroke="#fff" stroke-miterlimit="10" stroke-width="2" d="M502.245 770h40v20h-40z"/><text x="552.245, 569.10046, 581.98132, 590.01843, 599.57898, 612.45984, 622.72351, 630.76062, 642.59656," y="787.5," fill="#666" font-family="DejaVu Serif" font-size="20">Untrusted</text></g><path fill="#4caf50" d="M400 1q8.41 0 16.81.383 8.401.383 16.776 1.149 8.374.765 16.705 1.911t16.601 2.67 16.463 3.425 16.289 4.17 16.082 4.909 15.842 5.636 15.569 6.351T562.4 38.66q7.552 3.7 14.926 7.742t14.558 8.414q7.183 4.373 14.16 9.069 6.976 4.696 13.731 9.704t13.275 10.32 12.792 10.914L400 370z"/><path fill="none" stroke="#fff" stroke-linejoin="bevel" stroke-width="2" d="M400 1q8.41 0 16.81.383 8.401.383 16.776 1.149 8.374.765 16.705 1.911t16.601 2.67 16.463 3.425 16.289 4.17 16.082 4.909 15.842 5.636 15.569 6.351T562.4 38.66q7.552 3.7 14.926 7.742t14.558 8.414q7.183 4.373 14.16 9.069 6.976 4.696 13.731 9.704t13.275 10.32 12.792 10.914L400 370z"/><path fill="#ff9800" d="M645.842 94.822q9.505 8.492 18.401 17.62 8.897 9.127 17.142 18.846 8.246 9.72 15.801 19.985 7.555 10.266 14.384 21.028L400 370z"/><path fill="none" stroke="#fff" stroke-linejoin="bevel" stroke-width="2" d="M645.842 94.822q9.505 8.492 18.401 17.62 8.897 9.127 17.142 18.846 8.246 9.72 15.801 19.985 7.555 10.266 14.384 21.028L400 370 645.841 94.822Z"/><path fill="#f44336" d="M711.57 172.301q4.854 7.649 9.326 15.526 4.472 7.878 8.552 15.965t7.759 16.366 6.946 16.726 6.117 17.047 5.273 17.327 4.417 17.565 3.55 17.76 2.673 17.913 1.792 18.022q.675 9.034.905 18.09.231 9.055.017 18.11t-.872 18.09q-.658 9.035-1.759 18.027-1.1 8.991-2.641 17.918t-3.517 17.766-4.385 17.573-5.241 17.336-6.086 17.058-6.916 16.74-7.729 16.38q-4.065 8.094-8.523 15.98t-9.297 15.543q-4.839 7.658-10.048 15.068-5.21 7.411-10.776 14.557t-11.477 14.011q-5.91 6.865-12.15 13.431t-12.795 12.818-13.409 12.176-13.99 11.502-14.537 10.802-15.05 10.076q-5.2 3.3-10.508 6.425t-10.716 6.07q-5.41 2.945-10.913 5.708-5.505 2.764-11.098 5.342t-11.27 4.968q-5.676 2.39-11.428 4.59-5.753 2.198-11.576 4.204-5.823 2.007-11.71 3.817t-11.83 3.424q-5.944 1.613-11.939 3.027-5.994 1.414-12.032 2.627t-12.114 2.224q-6.075 1.01-12.181 1.818t-12.235 1.411q-6.13.603-12.275 1.002-6.146.398-12.302.591-6.156.194-12.315.181-6.159-.012-12.314-.23t-12.3-.641q-6.143-.423-12.27-1.051-6.127-.629-12.23-1.46-6.102-.833-12.173-1.868t-12.105-2.273q-6.033-1.237-12.022-2.675t-11.925-3.075-11.817-3.472-11.695-3.863-11.558-4.252-11.41-4.636-11.25-5.013q-5.583-2.6-11.076-5.386t-10.89-5.753q-7.938-4.364-15.652-9.112t-15.186-9.87-14.683-10.603-14.146-11.31q-6.934-5.83-13.573-11.992t-12.969-12.642q-6.329-6.48-12.333-13.264-6.003-6.783-11.667-13.853t-10.973-14.409-10.253-14.93q-4.943-7.59-9.508-15.415t-8.74-15.863-7.952-16.272-7.143-16.643q-3.367-8.41-6.318-16.974t-5.478-17.263-4.624-17.511q-2.097-8.813-3.759-17.717-1.662-8.905-2.885-17.88-1.224-8.976-2.005-18-.781-9.025-1.119-18.078t-.23-18.11q.107-9.057.658-18.099t1.546-18.045q.994-9.004 2.429-17.948t3.307-17.807 4.177-17.623 5.036-17.397 5.884-17.13 6.718-16.819 7.534-16.47 8.334-16.08q2.967-5.397 6.113-10.692 3.145-5.295 6.466-10.482 3.32-5.187 6.813-10.26t7.15-10.027q3.66-4.954 7.483-9.783 3.822-4.83 7.804-9.528 3.981-4.7 8.118-9.262 4.136-4.564 8.422-8.986t8.717-8.7 9.003-8.405 9.279-8.099 9.543-7.785 9.798-7.462 10.042-7.13q5.08-3.483 10.274-6.793t10.495-6.445q5.301-3.135 10.704-6.091t10.902-5.731 11.086-5.364 11.26-4.99 11.42-4.613 11.567-4.229q5.82-2.017 11.702-3.84 5.883-1.822 11.824-3.448t11.932-3.05q5.992-1.427 12.027-2.652 6.036-1.225 12.11-2.248t12.177-1.843 12.232-1.436 12.273-1.026 12.3-.616T400 1v369z"/><path fill="none" stroke="#fff" stroke-linejoin="bevel" stroke-width="2" d="M711.57 172.301q4.854 7.649 9.326 15.526 4.472 7.878 8.552 15.965t7.759 16.366 6.946 16.726 6.117 17.047 5.273 17.327 4.417 17.565 3.55 17.76 2.673 17.913 1.792 18.022q.675 9.034.905 18.09.231 9.055.017 18.11t-.872 18.09q-.658 9.035-1.759 18.027-1.1 8.991-2.641 17.918t-3.517 17.766-4.385 17.573-5.241 17.336-6.086 17.058-6.916 16.74-7.729 16.38q-4.065 8.094-8.523 15.98t-9.297 15.543q-4.839 7.658-10.048 15.068-5.21 7.411-10.776 14.557t-11.477 14.011q-5.91 6.865-12.15 13.431t-12.795 12.818-13.409 12.176-13.99 11.502-14.537 10.802-15.05 10.076q-5.2 3.3-10.508 6.425t-10.716 6.07q-5.41 2.945-10.913 5.708-5.505 2.764-11.098 5.342t-11.27 4.968q-5.676 2.39-11.428 4.59-5.753 2.198-11.576 4.204-5.823 2.007-11.71 3.817t-11.83 3.424q-5.944 1.613-11.939 3.027-5.994 1.414-12.032 2.627t-12.114 2.224q-6.075 1.01-12.181 1.818t-12.235 1.411q-6.13.603-12.275 1.002-6.146.398-12.302.591-6.156.194-12.315.181-6.159-.012-12.314-.23t-12.3-.641q-6.143-.423-12.27-1.051-6.127-.629-12.23-1.46-6.102-.833-12.173-1.868t-12.105-2.273q-6.033-1.237-12.022-2.675t-11.925-3.075-11.817-3.472-11.695-3.863-11.558-4.252-11.41-4.636-11.25-5.013q-5.583-2.6-11.076-5.386t-10.89-5.753q-7.938-4.364-15.652-9.112t-15.186-9.87-14.683-10.603-14.146-11.31q-6.934-5.83-13.573-11.992t-12.969-12.642q-6.329-6.48-12.333-13.264-6.003-6.783-11.667-13.853t-10.973-14.409-10.253-14.93q-4.943-7.59-9.508-15.415t-8.74-15.863-7.952-16.272-7.143-16.643q-3.367-8.41-6.318-16.974t-5.478-17.263-4.624-17.511q-2.097-8.813-3.759-17.717-1.662-8.905-2.885-17.88-1.224-8.976-2.005-18-.781-9.025-1.119-18.078t-.23-18.11q.107-9.057.658-18.099t1.546-18.045q.994-9.004 2.429-17.948t3.307-17.807 4.177-17.623 5.036-17.397 5.884-17.13 6.718-16.819 7.534-16.47 8.334-16.08q2.967-5.397 6.113-10.692 3.145-5.295 6.466-10.482 3.32-5.187 6.813-10.26t7.15-10.027q3.66-4.954 7.483-9.783 3.822-4.83 7.804-9.528 3.981-4.7 8.118-9.262 4.136-4.564 8.422-8.986t8.717-8.7 9.003-8.405 9.279-8.099 9.543-7.785 9.798-7.462 10.042-7.13q5.08-3.483 10.274-6.793t10.495-6.445q5.301-3.135 10.704-6.091t10.902-5.731 11.086-5.364 11.26-4.99 11.42-4.613 11.567-4.229q5.82-2.017 11.702-3.84 5.883-1.822 11.824-3.448t11.932-3.05q5.992-1.427 12.027-2.652 6.036-1.225 12.11-2.248t12.177-1.843 12.232-1.436 12.273-1.026 12.3-.616T400 1v369l311.57-197.7z"/></svg>