<svg xmlns="http://www.w3.org/2000/svg" width="800" height="800"><path fill="none" d="M0 0h800v800H0z"/><clipPath id="a"><path d="M0 740h800v60H0z"/></clipPath><g clip-path="url(#a)"><path fill="#4caf50" d="M144.605 770h40v20h-40z"/><path fill="none" stroke="#fff" stroke-miterlimit="10" stroke-width="2" d="M144.605 770h40v20h-40z"/><text x="194.605, 207.94484, 217.50539, 230.38625, 240.64992, 248.68703, 260.52295," y="787.5," fill="#666" font-family="DejaVu Serif" font-size="20">Trusted</text><path fill="#ff9800" d="M303.325 770h40v20h-40z"/><path fill="none" stroke="#fff" stroke-miterlimit="10" stroke-width="2" d="M303.325 770h40v20h-40z"/><text x="353.32501, 366.78204, 376.34259, 388.38361, 399.68243, 411.51837, 424.39923, 436.32306, 449.20392, 460.40509," y="787.5," fill="#666" font-family="DejaVu Serif" font-size="20">Provenance</text><path fill="#f44336" d="M502.245 770h40v20h-40z"/><path fill="none" stroke="#fff" stroke-miterlimit="10" stroke-width="2" d="M502.245 770h40v20h-40z"/><text x="552.245, 569.10046, 581.98132, 590.01843, 599.57898, 612.45984, 622.72351, 630.76062, 642.59656," y="787.5," fill="#666" font-family="DejaVu Serif" font-size="20">Untrusted</text></g><path fill="#4caf50" d="M400 1q6.566 0 13.127.234 6.562.233 13.11.7 6.55.467 13.078 1.166 6.528.7 13.028 1.631 6.499.932 12.961 2.094t12.879 2.553q6.416 1.39 12.78 3.01 6.362 1.618 12.664 3.462 6.301 1.843 12.533 3.91t12.386 4.354q6.155 2.288 12.224 4.792t12.045 5.224 11.852 5.65 11.643 6.066 11.42 6.478q5.653 3.34 11.183 6.88L400 370z"/><path fill="none" stroke="#fff" stroke-linejoin="bevel" stroke-width="2" d="M400 1q6.566 0 13.127.234 6.562.233 13.11.7 6.55.467 13.078 1.166 6.528.7 13.028 1.631 6.499.932 12.961 2.094t12.879 2.553q6.416 1.39 12.78 3.01 6.362 1.618 12.664 3.462 6.301 1.843 12.533 3.91t12.386 4.354q6.155 2.288 12.224 4.792t12.045 5.224 11.852 5.65 11.643 6.066 11.42 6.478q5.653 3.34 11.183 6.88L400 370z"/><path fill="#ff9800" d="M598.913 59.203q11.424 7.312 22.281 15.443t21.088 17.037 19.78 18.539 18.365 19.941L400 370z"/><path fill="none" stroke="#fff" stroke-linejoin="bevel" stroke-width="2" d="M598.913 59.203q11.424 7.312 22.281 15.443t21.088 17.037 19.78 18.539 18.365 19.941L400 370 598.913 59.203Z"/><path fill="#f44336" d="M680.427 130.163q5.888 6.884 11.43 14.049 5.543 7.165 10.728 14.593t9.998 15.101 9.245 15.574 8.47 16.009 7.675 16.405 6.86 16.762 6.03 17.078 5.183 17.354 4.327 17.587 3.458 17.778q1.51 8.932 2.582 17.927 1.07 8.995 1.699 18.031.628 9.037.812 18.093.184 9.057-.077 18.112-.26 9.054-.965 18.085t-1.851 18.017-2.734 17.904q-1.586 8.918-3.608 17.748t-4.475 17.55-5.33 17.31q-2.879 8.588-6.174 17.026t-7.002 16.703q-3.706 8.266-7.813 16.34t-8.605 15.937-9.377 15.495-10.126 15.016-10.85 14.502-11.549 13.951-12.22 13.368q-6.273 6.535-12.86 12.753t-13.471 12.106q-4.992 4.27-10.133 8.358-5.14 4.09-10.424 7.993t-10.701 7.616q-5.419 3.713-10.966 7.231-5.548 3.518-11.217 6.836t-11.452 6.432-11.675 6.02-11.88 5.602-12.074 5.175-12.25 4.742q-6.166 2.262-12.41 4.303t-12.556 3.859-12.685 3.409q-6.373 1.592-12.798 2.955-6.426 1.364-12.896 2.499-6.47 1.134-12.976 2.037-6.507.904-13.04 1.575-6.535.67-13.09 1.109-6.553.438-13.119.643-6.565.204-13.134.175t-13.132-.292q-6.564-.263-13.114-.76-6.55-.496-13.078-1.225t-13.026-1.69-12.957-2.153-12.873-2.613-12.772-3.069-12.654-3.521q-6.296-1.874-12.521-3.97t-12.372-4.413-12.207-4.85q-6.06-2.535-12.027-5.283-8.227-3.79-16.26-7.978-8.03-4.189-15.848-8.767-7.816-4.577-15.399-9.533T183.21 668.6t-14.391-10.997q-7.06-5.675-13.834-11.69-6.773-6.015-13.243-12.355t-12.621-12.99-11.969-13.593-11.287-14.164-10.578-14.7-9.845-15.203-9.086-15.667-8.307-16.094-7.508-16.482-6.69-16.831-5.855-17.139-5.007-17.405-4.148-17.63-3.277-17.813-2.4-17.952-1.516-18.047-.628-18.101.26-18.11 1.15-18.074 2.034-17.997 2.915-17.876 3.788-17.71q2.112-8.81 4.653-17.504 2.542-8.694 5.506-17.254t6.347-16.963 7.17-16.631q2.749-5.967 5.707-11.831 2.959-5.865 6.124-11.62 3.166-5.756 6.534-11.396 3.369-5.64 6.935-11.155 3.567-5.516 7.328-10.901 3.761-5.386 7.712-10.634t8.084-10.352 8.449-10.058 8.8-9.752 9.143-9.431q4.655-4.635 9.472-9.1 4.817-4.466 9.79-8.758t10.095-8.403 10.389-8.039 10.667-7.664 10.934-7.28 11.186-6.885 11.424-6.483 11.647-6.073 11.856-5.654 12.05-5.228 12.229-4.796 12.391-4.358q6.234-2.07 12.539-3.915t12.67-3.465q6.365-1.62 12.785-3.013t12.884-2.555 12.967-2.095q6.502-.932 13.034-1.633 6.531-.7 13.083-1.167t13.117-.701T400 1v369z"/><path fill="none" stroke="#fff" stroke-linejoin="bevel" stroke-width="2" d="M680.427 130.163q5.888 6.884 11.43 14.049 5.543 7.165 10.728 14.593t9.998 15.101 9.245 15.574 8.47 16.009 7.675 16.405 6.86 16.762 6.03 17.078 5.183 17.354 4.327 17.587 3.458 17.778q1.51 8.932 2.582 17.927 1.07 8.995 1.699 18.031.628 9.037.812 18.093.184 9.057-.077 18.112-.26 9.054-.965 18.085t-1.851 18.017-2.734 17.904q-1.586 8.918-3.608 17.748t-4.475 17.55-5.33 17.31q-2.879 8.588-6.174 17.026t-7.002 16.703q-3.706 8.266-7.813 16.34t-8.605 15.937-9.377 15.495-10.126 15.016-10.85 14.502-11.549 13.951-12.22 13.368q-6.273 6.535-12.86 12.753t-13.471 12.106q-4.992 4.27-10.133 8.358-5.14 4.09-10.424 7.993t-10.701 7.616q-5.419 3.713-10.966 7.231-5.548 3.518-11.217 6.836t-11.452 6.432-11.675 6.02-11.88 5.602-12.074 5.175-12.25 4.742q-6.166 2.262-12.41 4.303t-12.556 3.859-12.685 3.409q-6.373 1.592-12.798 2.955-6.426 1.364-12.896 2.499-6.47 1.134-12.976 2.037-6.507.904-13.04 1.575-6.535.67-13.09 1.109-6.553.438-13.119.643-6.565.204-13.134.175t-13.132-.292q-6.564-.263-13.114-.76-6.55-.496-13.078-1.225t-13.026-1.69-12.957-2.153-12.873-2.613-12.772-3.069-12.654-3.521q-6.296-1.874-12.521-3.97t-12.372-4.413-12.207-4.85q-6.06-2.535-12.027-5.283-8.227-3.79-16.26-7.978-8.03-4.189-15.848-8.767-7.816-4.577-15.399-9.533T183.21 668.6t-14.391-10.997q-7.06-5.675-13.834-11.69-6.773-6.015-13.243-12.355t-12.621-12.99-11.969-13.593-11.287-14.164-10.578-14.7-9.845-15.203-9.086-15.667-8.307-16.094-7.508-16.482-6.69-16.831-5.855-17.139-5.007-17.405-4.148-17.63-3.277-17.813-2.4-17.952-1.516-18.047-.628-18.101.26-18.11 1.15-18.074 2.034-17.997 2.915-17.876 3.788-17.71q2.112-8.81 4.653-17.504 2.542-8.694 5.506-17.254t6.347-16.963 7.17-16.631q2.749-5.967 5.707-11.831 2.959-5.865 6.124-11.62 3.166-5.756 6.534-11.396 3.369-5.64 6.935-11.155 3.567-5.516 7.328-10.901 3.761-5.386 7.712-10.634t8.084-10.352 8.449-10.058 8.8-9.752 9.143-9.431q4.655-4.635 9.472-9.1 4.817-4.466 9.79-8.758t10.095-8.403 10.389-8.039 10.667-7.664 10.934-7.28 11.186-6.885 11.424-6.483 11.647-6.073 11.856-5.654 12.05-5.228 12.229-4.796 12.391-4.358q6.234-2.07 12.539-3.915t12.67-3.465q6.365-1.62 12.785-3.013t12.884-2.555 12.967-2.095q6.502-.932 13.034-1.633 6.531-.7 13.083-1.167t13.117-.701T400 1v369l280.427-239.837Z"/></svg>