<svg xmlns="http://www.w3.org/2000/svg" width="800" height="800"><path fill="none" d="M0 0h800v800H0z"/><clipPath id="a"><path d="M0 740h800v60H0z"/></clipPath><g clip-path="url(#a)"><path fill="#4caf50" d="M144.605 770h40v20h-40z"/><path fill="none" stroke="#fff" stroke-miterlimit="10" stroke-width="2" d="M144.605 770h40v20h-40z"/><text x="194.605, 207.94484, 217.50539, 230.38625, 240.64992, 248.68703, 260.52295," y="787.5," fill="#666" font-family="DejaVu Serif" font-size="20">Trusted</text><path fill="#ff9800" d="M303.325 770h40v20h-40z"/><path fill="none" stroke="#fff" stroke-miterlimit="10" stroke-width="2" d="M303.325 770h40v20h-40z"/><text x="353.32501, 366.78204, 376.34259, 388.38361, 399.68243, 411.51837, 424.39923, 436.32306, 449.20392, 460.40509," y="787.5," fill="#666" font-family="DejaVu Serif" font-size="20">Provenance</text><path fill="#f44336" d="M502.245 770h40v20h-40z"/><path fill="none" stroke="#fff" stroke-miterlimit="10" stroke-width="2" d="M502.245 770h40v20h-40z"/><text x="552.245, 569.10046, 581.98132, 590.01843, 599.57898, 612.45984, 622.72351, 630.76062, 642.59656," y="787.5," fill="#666" font-family="DejaVu Serif" font-size="20">Untrusted</text></g><path fill="#4caf50" d="M400 1q6.488 0 12.972.228t12.955.684 12.924 1.139 12.875 1.592 12.812 2.045T477.27 9.18t12.636 2.94 12.525 3.381 12.399 3.82 12.256 4.253 12.1 4.682 11.927 5.104 11.741 5.52 11.54 5.93q5.717 3.066 11.323 6.331t11.094 6.726L400 370z"/><path fill="none" stroke="#fff" stroke-linejoin="bevel" stroke-width="2" d="M400 1q6.488 0 12.972.228t12.955.684 12.924 1.139 12.875 1.592 12.812 2.045T477.27 9.18t12.636 2.94 12.525 3.381 12.399 3.82 12.256 4.253 12.1 4.682 11.927 5.104 11.741 5.52 11.54 5.93q5.717 3.066 11.323 6.331t11.094 6.726L400 370z"/><path fill="#ff9800" d="M596.811 57.868q11.721 7.39 22.854 15.639 11.134 8.249 21.617 17.309t20.259 18.881 18.784 20.348L400 370z"/><path fill="none" stroke="#fff" stroke-linejoin="bevel" stroke-width="2" d="M596.811 57.868q11.721 7.39 22.854 15.639 11.134 8.249 21.617 17.309t20.259 18.881 18.784 20.348L400 370 596.811 57.868Z"/><path fill="#f44336" d="M680.326 130.045q5.89 6.881 11.436 14.044 5.546 7.162 10.733 14.588t10.005 15.097 9.252 15.57 8.477 16.005 7.681 16.402 6.867 16.76 6.037 17.075 5.191 17.351 4.334 17.586 3.466 17.776 2.59 17.926 1.706 18.03q.632 9.037.82 18.094.188 9.056-.07 18.11-.256 9.056-.957 18.087-.7 9.031-1.844 18.017-1.143 8.986-2.725 17.906t-3.601 17.75-4.468 17.551-5.323 17.312-6.167 17.029-6.994 16.706-7.806 16.343-8.599 15.94-9.37 15.5-10.12 15.02q-5.243 7.386-10.843 14.506t-11.543 13.957q-5.943 6.836-12.214 13.373t-12.856 12.758-13.466 12.112q-4.99 4.272-10.13 8.364t-10.423 7.998q-5.283 3.906-10.7 7.622-5.419 3.716-10.966 7.237t-11.216 6.841-11.452 6.438-11.674 6.026q-5.89 2.91-11.881 5.607-5.99 2.698-12.074 5.18-6.082 2.483-12.25 4.748-6.167 2.264-12.411 4.308t-12.557 3.864-12.686 3.414-12.8 2.96-12.897 2.503-12.978 2.042q-6.508.906-13.043 1.579t-13.09 1.114-13.122.646q-6.567.207-13.137.18-6.57-.028-13.134-.289-6.565-.26-13.116-.755-6.552-.495-13.081-1.223-6.53-.727-13.03-1.687t-12.96-2.15-12.876-2.61-12.775-3.066-12.657-3.52q-6.298-1.872-12.524-3.967-6.227-2.095-12.376-4.411t-12.21-4.849-12.03-5.28q-8.228-3.788-16.26-7.975-8.034-4.187-15.851-8.763t-15.401-9.53-14.915-10.275q-7.332-5.32-14.393-10.994t-13.836-11.687q-6.775-6.014-13.246-12.352-6.471-6.339-12.624-12.987-6.152-6.649-11.971-13.591-5.82-6.942-11.29-14.162-5.472-7.22-10.582-14.699t-9.848-15.2q-4.737-7.72-9.09-15.665t-8.31-16.092-7.511-16.48-6.693-16.83q-3.14-8.497-5.86-17.138-2.719-8.64-5.01-17.404-2.293-8.764-4.152-17.63-1.86-8.865-3.281-17.81-1.422-8.947-2.403-17.952t-1.52-18.048q-.538-9.042-.632-18.1t.257-18.11 1.145-18.075 2.03-17.997 2.911-17.876 3.785-17.712 4.65-17.504 5.502-17.255 6.343-16.965 7.167-16.633q2.747-5.968 5.705-11.834 2.958-5.867 6.123-11.624t6.533-11.398 6.935-11.159 7.327-10.905 7.71-10.636 8.085-10.356 8.448-10.061q4.314-4.956 8.801-9.755 4.487-4.798 9.143-9.434 4.655-4.636 9.472-9.104 4.818-4.467 9.791-8.76t10.096-8.406q5.123-4.114 10.39-8.042 5.266-3.928 10.668-7.666 5.403-3.739 10.935-7.282t11.188-6.888 11.425-6.486 11.649-6.074 11.858-5.657 12.052-5.23 12.23-4.798 12.393-4.36 12.54-3.915q6.306-1.846 12.673-3.467t12.787-3.014 12.887-2.556 12.97-2.096q6.503-.932 13.035-1.633 6.533-.7 13.086-1.168 6.554-.467 13.12-.701T400 1v369z"/><path fill="none" stroke="#fff" stroke-linejoin="bevel" stroke-width="2" d="M680.326 130.045q5.89 6.881 11.436 14.044 5.546 7.162 10.733 14.588t10.005 15.097 9.252 15.57 8.477 16.005 7.681 16.402 6.867 16.76 6.037 17.075 5.191 17.351 4.334 17.586 3.466 17.776 2.59 17.926 1.706 18.03q.632 9.037.82 18.094.188 9.056-.07 18.11-.256 9.056-.957 18.087-.7 9.031-1.844 18.017-1.143 8.986-2.725 17.906t-3.601 17.75-4.468 17.551-5.323 17.312-6.167 17.029-6.994 16.706-7.806 16.343-8.599 15.94-9.37 15.5-10.12 15.02q-5.243 7.386-10.843 14.506t-11.543 13.957q-5.943 6.836-12.214 13.373t-12.856 12.758-13.466 12.112q-4.99 4.272-10.13 8.364t-10.423 7.998q-5.283 3.906-10.7 7.622-5.419 3.716-10.966 7.237t-11.216 6.841-11.452 6.438-11.674 6.026q-5.89 2.91-11.881 5.607-5.99 2.698-12.074 5.18-6.082 2.483-12.25 4.748-6.167 2.264-12.411 4.308t-12.557 3.864-12.686 3.414-12.8 2.96-12.897 2.503-12.978 2.042q-6.508.906-13.043 1.579t-13.09 1.114-13.122.646q-6.567.207-13.137.18-6.57-.028-13.134-.289-6.565-.26-13.116-.755-6.552-.495-13.081-1.223-6.53-.727-13.03-1.687t-12.96-2.15-12.876-2.61-12.775-3.066-12.657-3.52q-6.298-1.872-12.524-3.967-6.227-2.095-12.376-4.411t-12.21-4.849-12.03-5.28q-8.228-3.788-16.26-7.975-8.034-4.187-15.851-8.763t-15.401-9.53-14.915-10.275q-7.332-5.32-14.393-10.994t-13.836-11.687q-6.775-6.014-13.246-12.352-6.471-6.339-12.624-12.987-6.152-6.649-11.971-13.591-5.82-6.942-11.29-14.162-5.472-7.22-10.582-14.699t-9.848-15.2q-4.737-7.72-9.09-15.665t-8.31-16.092-7.511-16.48-6.693-16.83q-3.14-8.497-5.86-17.138-2.719-8.64-5.01-17.404-2.293-8.764-4.152-17.63-1.86-8.865-3.281-17.81-1.422-8.947-2.403-17.952t-1.52-18.048q-.538-9.042-.632-18.1t.257-18.11 1.145-18.075 2.03-17.997 2.911-17.876 3.785-17.712 4.65-17.504 5.502-17.255 6.343-16.965 7.167-16.633q2.747-5.968 5.705-11.834 2.958-5.867 6.123-11.624t6.533-11.398 6.935-11.159 7.327-10.905 7.71-10.636 8.085-10.356 8.448-10.061q4.314-4.956 8.801-9.755 4.487-4.798 9.143-9.434 4.655-4.636 9.472-9.104 4.818-4.467 9.791-8.76t10.096-8.406q5.123-4.114 10.39-8.042 5.266-3.928 10.668-7.666 5.403-3.739 10.935-7.282t11.188-6.888 11.425-6.486 11.649-6.074 11.858-5.657 12.052-5.23 12.23-4.798 12.393-4.36 12.54-3.915q6.306-1.846 12.673-3.467t12.787-3.014 12.887-2.556 12.97-2.096q6.503-.932 13.035-1.633 6.533-.7 13.086-1.168 6.554-.467 13.12-.701T400 1v369l280.326-239.955Z"/></svg>