<svg xmlns="http://www.w3.org/2000/svg" width="800" height="800"><path fill="none" d="M0 0h800v800H0z"/><clipPath id="a"><path d="M0 690h800v110H0z"/></clipPath><g clip-path="url(#a)"><path fill="#4caf50" d="M123.3 720h40v20h-40z"/><path fill="none" stroke="#fff" stroke-miterlimit="10" stroke-width="2" d="M123.3 720h40v20h-40z"/><path fill="#ff9800" d="M377.64 720h40v20h-40z"/><path fill="none" stroke="#fff" stroke-miterlimit="10" stroke-width="2" d="M377.64 720h40v20h-40z"/><path fill="#f44336" d="M262.92 770h40v20h-40z"/><path fill="none" stroke="#fff" stroke-miterlimit="10" stroke-width="2" d="M262.92 770h40v20h-40z"/></g><path fill="#4caf50" d="M400 1q8.339 0 16.668.404t16.628 1.211 16.55 2.016 16.433 2.815 16.278 3.607 16.083 4.393q7.989 2.39 15.852 5.166 7.864 2.775 15.583 5.929 7.72 3.153 15.278 6.676 7.557 3.523 14.935 7.409t14.56 8.124 14.149 8.82q6.967 4.58 13.704 9.494t13.229 10.148q6.491 5.234 12.721 10.777t12.184 11.38L400 345z"/><path fill="none" stroke="#fff" stroke-linejoin="bevel" stroke-width="2" d="M400 1q8.339 0 16.668.404t16.628 1.211 16.55 2.016 16.433 2.815 16.278 3.607 16.083 4.393q7.989 2.39 15.852 5.166 7.864 2.775 15.583 5.929 7.72 3.153 15.278 6.676 7.557 3.523 14.935 7.409t14.56 8.124 14.149 8.82q6.967 4.58 13.704 9.494t13.229 10.148q6.491 5.234 12.721 10.777t12.184 11.38L400 345z"/><path fill="#ff9800" d="M640.835 99.37q16.365 16.045 30.457 34.12t25.661 37.859L400 345z"/><path fill="none" stroke="#fff" stroke-linejoin="bevel" stroke-width="2" d="M640.835 99.37q16.365 16.045 30.457 34.12t25.661 37.859L400 345 640.835 99.37Z"/><path fill="#f44336" d="M696.953 171.348q4.263 7.29 8.163 14.78t7.428 15.163 6.675 15.509 5.906 15.818 5.123 16.088 4.327 16.32 3.52 16.514q1.559 8.3 2.707 16.666 1.15 8.366 1.886 16.779.737 8.412 1.06 16.85.323 8.44.232 16.883-.091 8.445-.597 16.874-.505 8.43-1.424 16.824t-2.248 16.734q-1.33 8.34-3.066 16.604-1.737 8.264-3.877 16.433t-4.68 16.223-5.468 15.974-6.247 15.687-7.009 15.36-7.754 15q-4.06 7.403-8.48 14.6-4.42 7.195-9.187 14.166-4.767 6.97-9.87 13.698-5.104 6.728-10.532 13.198-5.427 6.47-11.166 12.665-5.738 6.195-11.774 12.102-6.035 5.906-12.353 11.51-6.318 5.603-12.904 10.889-6.585 5.286-13.422 10.243t-13.909 9.573-14.361 8.878q-4.873 2.85-9.836 5.537-4.963 2.688-10.011 5.211-5.049 2.524-10.177 4.88-5.129 2.357-10.332 4.544t-10.476 4.202-10.607 3.856q-5.335 1.842-10.728 3.507t-10.838 3.152q-5.444 1.487-10.935 2.795-5.49 1.308-11.02 2.435-5.531 1.127-11.096 2.072-5.564.945-11.157 1.707-5.592.762-11.207 1.34-5.614.578-11.244.972-5.63.393-11.271.602-5.64.209-11.284.232t-11.286-.138-11.276-.508-11.252-.878q-5.62-.532-11.218-1.247t-11.17-1.614-11.112-1.98q-5.54-1.08-11.041-2.343t-10.958-2.704-10.864-3.062q-5.406-1.62-10.757-3.416-5.35-1.797-10.639-3.768t-10.51-4.115q-5.221-2.143-10.37-4.457-5.147-2.314-10.217-4.795-5.069-2.482-10.054-5.128t-9.881-5.455q-7.325-4.202-14.435-8.758-7.11-4.557-13.988-9.457t-13.507-10.13-12.994-10.783-12.45-11.406-11.873-12.003q-5.79-6.148-11.272-12.572-5.48-6.424-10.64-13.11t-9.985-13.615q-4.825-6.93-9.304-14.09-4.48-7.158-8.602-14.528-4.123-7.37-7.879-14.934t-7.136-15.302-6.377-15.634-5.602-15.928-4.814-16.183-4.014-16.4-3.204-16.578q-1.4-8.328-2.388-16.715-.988-8.386-1.564-16.811-.575-8.426-.737-16.869t.091-16.884q.253-8.44.92-16.86.667-8.417 1.746-16.793t2.567-16.688 3.384-16.542 4.19-16.356 4.99-16.13q2.692-8.004 5.773-15.867 3.082-7.862 6.546-15.564 3.464-7.701 7.301-15.224 3.838-7.522 8.04-14.847 2.808-4.896 5.776-9.697t6.091-9.502 6.4-9.297q3.275-4.596 6.7-9.082t6.996-8.858 7.282-8.623 7.561-8.38q3.85-4.127 7.832-8.127 3.983-3.999 8.095-7.865 4.111-3.867 8.348-7.596 4.236-3.73 8.593-7.319 4.356-3.588 8.828-7.032t9.054-6.739 9.27-6.438 9.477-6.13 9.673-5.817 9.858-5.496 10.033-5.17 10.198-4.837 10.35-4.5 10.493-4.159 10.623-3.812 10.743-3.461 10.85-3.108q5.451-1.464 10.947-2.75 5.496-1.284 11.031-2.388t11.104-2.026q5.568-.922 11.164-1.66 5.595-.74 11.212-1.294t11.249-.925q5.632-.37 11.273-.555Q394.355 1 400 1v344z"/><path fill="none" stroke="#fff" stroke-linejoin="bevel" stroke-width="2" d="M696.953 171.348q4.263 7.29 8.163 14.78t7.428 15.163 6.675 15.509 5.906 15.818 5.123 16.088 4.327 16.32 3.52 16.514q1.559 8.3 2.707 16.666 1.15 8.366 1.886 16.779.737 8.412 1.06 16.85.323 8.44.232 16.883-.091 8.445-.597 16.874-.505 8.43-1.424 16.824t-2.248 16.734q-1.33 8.34-3.066 16.604-1.737 8.264-3.877 16.433t-4.68 16.223-5.468 15.974-6.247 15.687-7.009 15.36-7.754 15q-4.06 7.403-8.48 14.6-4.42 7.195-9.187 14.166-4.767 6.97-9.87 13.698-5.104 6.728-10.532 13.198-5.427 6.47-11.166 12.665-5.738 6.195-11.774 12.102-6.035 5.906-12.353 11.51-6.318 5.603-12.904 10.889-6.585 5.286-13.422 10.243t-13.909 9.573-14.361 8.878q-4.873 2.85-9.836 5.537-4.963 2.688-10.011 5.211-5.049 2.524-10.177 4.88-5.129 2.357-10.332 4.544t-10.476 4.202-10.607 3.856q-5.335 1.842-10.728 3.507t-10.838 3.152q-5.444 1.487-10.935 2.795-5.49 1.308-11.02 2.435-5.531 1.127-11.096 2.072-5.564.945-11.157 1.707-5.592.762-11.207 1.34-5.614.578-11.244.972-5.63.393-11.271.602-5.64.209-11.284.232t-11.286-.138-11.276-.508-11.252-.878q-5.62-.532-11.218-1.247t-11.17-1.614-11.112-1.98q-5.54-1.08-11.041-2.343t-10.958-2.704-10.864-3.062q-5.406-1.62-10.757-3.416-5.35-1.797-10.639-3.768t-10.51-4.115q-5.221-2.143-10.37-4.457-5.147-2.314-10.217-4.795-5.069-2.482-10.054-5.128t-9.881-5.455q-7.325-4.202-14.435-8.758-7.11-4.557-13.988-9.457t-13.507-10.13-12.994-10.783-12.45-11.406-11.873-12.003q-5.79-6.148-11.272-12.572-5.48-6.424-10.64-13.11t-9.985-13.615q-4.825-6.93-9.304-14.09-4.48-7.158-8.602-14.528-4.123-7.37-7.879-14.934t-7.136-15.302-6.377-15.634-5.602-15.928-4.814-16.183-4.014-16.4-3.204-16.578q-1.4-8.328-2.388-16.715-.988-8.386-1.564-16.811-.575-8.426-.737-16.869t.091-16.884q.253-8.44.92-16.86.667-8.417 1.746-16.793t2.567-16.688 3.384-16.542 4.19-16.356 4.99-16.13q2.692-8.004 5.773-15.867 3.082-7.862 6.546-15.564 3.464-7.701 7.301-15.224 3.838-7.522 8.04-14.847 2.808-4.896 5.776-9.697t6.091-9.502 6.4-9.297q3.275-4.596 6.7-9.082t6.996-8.858 7.282-8.623 7.561-8.38q3.85-4.127 7.832-8.127 3.983-3.999 8.095-7.865 4.111-3.867 8.348-7.596 4.236-3.73 8.593-7.319 4.356-3.588 8.828-7.032t9.054-6.739 9.27-6.438 9.477-6.13 9.673-5.817 9.858-5.496 10.033-5.17 10.198-4.837 10.35-4.5 10.493-4.159 10.623-3.812 10.743-3.461 10.85-3.108q5.451-1.464 10.947-2.75 5.496-1.284 11.031-2.388t11.104-2.026q5.568-.922 11.164-1.66 5.595-.74 11.212-1.294t11.249-.925q5.632-.37 11.273-.555Q394.355 1 400 1v344l296.953-173.652Z"/></svg>