<svg xmlns="http://www.w3.org/2000/svg" width="800" height="800"><path fill="none" d="M0 0h800v800H0z"/><clipPath id="a"><path d="M0 740h800v60H0z"/></clipPath><g clip-path="url(#a)"><path fill="#4caf50" d="M164.745 770h40v20h-40z"/><path fill="none" stroke="#fff" stroke-miterlimit="10" stroke-width="2" d="M164.745 770h40v20h-40z"/><text x="214.745, 226.2196, 232.87976, 244.00281, 254.00281, 259.55945, 270.6825," y="786.5," fill="#666" font-family="Liberation Sans" font-size="20">Trusted</text><path fill="#ff9800" d="M311.805 770h40v20h-40z"/><path fill="none" stroke="#fff" stroke-miterlimit="10" stroke-width="2" d="M311.805 770h40v20h-40z"/><text x="361.80499, 375.14484, 381.80499, 392.92804, 402.92804, 414.05109, 425.17413, 436.29718, 447.42023, 457.42023," y="786.5," fill="#666" font-family="Liberation Sans" font-size="20">Provenance</text><path fill="#f44336" d="M498.545 770h40v20h-40z"/><path fill="none" stroke="#fff" stroke-miterlimit="10" stroke-width="2" d="M498.545 770h40v20h-40z"/><text x="548.54498, 562.98834, 574.11139, 579.66803, 586.32819, 597.45123, 607.45123, 613.00787, 624.13092," y="786.5," fill="#666" font-family="Liberation Sans" font-size="20">Untrusted</text></g><path fill="#4caf50" d="M400 1q5.371 0 10.74.156 5.37.157 10.732.47 5.363.312 10.714.78 5.35.469 10.686 1.093 5.335.624 10.65 1.403 5.314.78 10.604 1.713t10.55 2.02 10.487 2.327q5.227 1.24 10.415 2.631t10.333 2.933 10.244 3.233q5.099 1.69 10.146 3.53 5.047 1.838 10.038 3.822 4.992 1.985 9.923 4.114 4.932 2.13 9.8 4.401 4.867 2.272 9.666 4.684t9.526 4.964 9.378 5.239q4.65 2.688 9.221 5.51t9.057 5.775q4.487 2.954 8.885 6.037 4.399 3.083 8.706 6.293t8.519 6.543 8.324 6.79q4.113 3.454 8.124 7.028 4.01 3.573 7.915 7.261t7.7 7.49q3.797 3.8 7.48 7.71 3.684 3.909 7.252 7.924 3.569 4.015 7.019 8.132t6.778 8.333 6.533 8.527L400 370z"/><path fill="none" stroke="#fff" stroke-linejoin="bevel" stroke-width="2" d="M400 1q5.371 0 10.74.156 5.37.157 10.732.47 5.363.312 10.714.78 5.35.469 10.686 1.093 5.335.624 10.65 1.403 5.314.78 10.604 1.713t10.55 2.02 10.487 2.327q5.227 1.24 10.415 2.631t10.333 2.933 10.244 3.233q5.099 1.69 10.146 3.53 5.047 1.838 10.038 3.822 4.992 1.985 9.923 4.114 4.932 2.13 9.8 4.401 4.867 2.272 9.666 4.684t9.526 4.964 9.378 5.239q4.65 2.688 9.221 5.51t9.057 5.775q4.487 2.954 8.885 6.037 4.399 3.083 8.706 6.293t8.519 6.543 8.324 6.79q4.113 3.454 8.124 7.028 4.01 3.573 7.915 7.261t7.7 7.49q3.797 3.8 7.48 7.71 3.684 3.909 7.252 7.924 3.569 4.015 7.019 8.132t6.778 8.333 6.533 8.527L400 370z"/><path fill="#ff9800" d="M696.145 149.866q12.849 17.285 23.6 35.948 10.75 18.664 19.257 38.45L400 370z"/><path fill="none" stroke="#fff" stroke-linejoin="bevel" stroke-width="2" d="M696.145 149.866q12.849 17.285 23.6 35.948 10.75 18.664 19.257 38.45L400 370l296.145-220.134Z"/><path fill="#f44336" d="M739.002 224.265q3.577 8.322 6.742 16.81t5.91 17.12 5.062 17.389 4.204 17.617 3.333 17.802 2.456 17.944 1.573 18.043.685 18.099-.203 18.11-1.092 18.078-1.978 18.003-2.858 17.885-3.733 17.722-4.598 17.519q-2.513 8.702-5.451 17.271t-6.293 16.983q-3.355 8.414-7.119 16.654t-7.927 16.285T719 555.474t-9.485 15.43-10.231 14.945-10.952 14.425-11.646 13.87-12.313 13.282-12.95 12.662-13.555 12.012-14.129 11.332-14.667 10.624q-7.464 5.133-15.171 9.893t-15.639 9.136q-7.93 4.376-16.067 8.357-8.137 3.982-16.459 7.56-5.236 2.25-10.539 4.339-5.302 2.088-10.667 4.011t-10.787 3.68q-5.422 1.757-10.895 3.346-5.473 1.588-10.993 3.007-5.52 1.418-11.081 2.666t-11.158 2.323-11.224 1.977-11.28 1.63-11.325 1.28q-5.672.552-11.36.93-5.686.377-11.381.578-5.696.202-11.395.227-5.7.026-11.397-.125-5.697-.15-11.387-.477t-11.367-.828-11.335-1.179-11.295-1.529-11.241-1.876-11.178-2.223-11.104-2.567-11.02-2.909q-5.487-1.54-10.925-3.248-5.437-1.708-10.819-3.583t-10.703-3.916-10.577-4.245-10.441-4.569-10.295-4.89q-5.11-2.523-10.14-5.204-5.028-2.681-9.973-5.516-4.944-2.835-9.798-5.821t-9.614-6.121q-7.565-4.982-14.877-10.33-7.311-5.348-14.351-11.047t-13.793-11.739q-6.752-6.038-13.2-12.4-6.448-6.363-12.576-13.035-6.127-6.67-11.92-13.635t-11.238-14.203q-5.444-7.24-10.527-14.738t-9.791-15.237-9.032-15.699-8.25-16.123q-3.928-8.162-7.45-16.508t-6.63-16.854q-3.11-8.509-5.796-17.16t-4.947-17.422q-2.26-8.772-4.086-17.645t-3.215-17.823q-1.388-8.952-2.336-17.96-.948-9.01-1.453-18.054t-.565-18.102q-.06-9.058.324-18.109.384-9.05 1.212-18.07.828-9.021 2.098-17.99 1.27-8.97 2.977-17.865 1.708-8.896 3.85-17.698t4.715-17.487 5.567-17.234 6.405-16.941 7.23-16.606 8.035-16.232 8.822-15.817 9.587-15.366q3.135-4.76 6.415-9.42t6.703-9.218 6.984-9.006q3.562-4.45 7.26-8.787t7.526-8.558q3.83-4.22 7.788-8.32t8.04-8.078 8.287-7.825q4.204-3.848 8.524-7.565 4.32-3.716 8.754-7.298t8.975-7.024 9.188-6.744 9.391-6.457 9.587-6.164q4.84-3.008 9.772-5.865 4.931-2.857 9.949-5.56 5.017-2.704 10.115-5.25 5.099-2.548 10.273-4.936 5.175-2.389 10.42-4.616 5.247-2.227 10.559-4.292t10.686-3.964q5.373-1.899 10.802-3.631 5.43-1.733 10.91-3.297t11.007-2.958 11.093-2.616 11.168-2.273q5.601-1.05 11.233-1.927 5.631-.877 11.287-1.58 5.656-.702 11.33-1.229t11.363-.88 11.385-.527T400 1v369z"/><path fill="none" stroke="#fff" stroke-linejoin="bevel" stroke-width="2" d="M739.002 224.265q3.577 8.322 6.742 16.81t5.91 17.12 5.062 17.389 4.204 17.617 3.333 17.802 2.456 17.944 1.573 18.043.685 18.099-.203 18.11-1.092 18.078-1.978 18.003-2.858 17.885-3.733 17.722-4.598 17.519q-2.513 8.702-5.451 17.271t-6.293 16.983q-3.355 8.414-7.119 16.654t-7.927 16.285T719 555.474t-9.485 15.43-10.231 14.945-10.952 14.425-11.646 13.87-12.313 13.282-12.95 12.662-13.555 12.012-14.129 11.332-14.667 10.624q-7.464 5.133-15.171 9.893t-15.639 9.136q-7.93 4.376-16.067 8.357-8.137 3.982-16.459 7.56-5.236 2.25-10.539 4.339-5.302 2.088-10.667 4.011t-10.787 3.68q-5.422 1.757-10.895 3.346-5.473 1.588-10.993 3.007-5.52 1.418-11.081 2.666t-11.158 2.323-11.224 1.977-11.28 1.63-11.325 1.28q-5.672.552-11.36.93-5.686.377-11.381.578-5.696.202-11.395.227-5.7.026-11.397-.125-5.697-.15-11.387-.477t-11.367-.828-11.335-1.179-11.295-1.529-11.241-1.876-11.178-2.223-11.104-2.567-11.02-2.909q-5.487-1.54-10.925-3.248-5.437-1.708-10.819-3.583t-10.703-3.916-10.577-4.245-10.441-4.569-10.295-4.89q-5.11-2.523-10.14-5.204-5.028-2.681-9.973-5.516-4.944-2.835-9.798-5.821t-9.614-6.121q-7.565-4.982-14.877-10.33-7.311-5.348-14.351-11.047t-13.793-11.739q-6.752-6.038-13.2-12.4-6.448-6.363-12.576-13.035-6.127-6.67-11.92-13.635t-11.238-14.203q-5.444-7.24-10.527-14.738t-9.791-15.237-9.032-15.699-8.25-16.123q-3.928-8.162-7.45-16.508t-6.63-16.854q-3.11-8.509-5.796-17.16t-4.947-17.422q-2.26-8.772-4.086-17.645t-3.215-17.823q-1.388-8.952-2.336-17.96-.948-9.01-1.453-18.054t-.565-18.102q-.06-9.058.324-18.109.384-9.05 1.212-18.07.828-9.021 2.098-17.99 1.27-8.97 2.977-17.865 1.708-8.896 3.85-17.698t4.715-17.487 5.567-17.234 6.405-16.941 7.23-16.606 8.035-16.232 8.822-15.817 9.587-15.366q3.135-4.76 6.415-9.42t6.703-9.218 6.984-9.006q3.562-4.45 7.26-8.787t7.526-8.558q3.83-4.22 7.788-8.32t8.04-8.078 8.287-7.825q4.204-3.848 8.524-7.565 4.32-3.716 8.754-7.298t8.975-7.024 9.188-6.744 9.391-6.457 9.587-6.164q4.84-3.008 9.772-5.865 4.931-2.857 9.949-5.56 5.017-2.704 10.115-5.25 5.099-2.548 10.273-4.936 5.175-2.389 10.42-4.616 5.247-2.227 10.559-4.292t10.686-3.964q5.373-1.899 10.802-3.631 5.43-1.733 10.91-3.297t11.007-2.958 11.093-2.616 11.168-2.273q5.601-1.05 11.233-1.927 5.631-.877 11.287-1.58 5.656-.702 11.33-1.229t11.363-.88 11.385-.527T400 1v369l339.002-145.735Z"/></svg>