<svg xmlns="http://www.w3.org/2000/svg" width="800" height="800"><path fill="none" d="M0 0h800v800H0z"/><clipPath id="a"><path d="M0 740h800v60H0z"/></clipPath><g clip-path="url(#a)"><path fill="#4caf50" d="M144.605 770h40v20h-40z"/><path fill="none" stroke="#fff" stroke-miterlimit="10" stroke-width="2" d="M144.605 770h40v20h-40z"/><text x="194.605, 207.94484, 217.50539, 230.38625, 240.64992, 248.68703, 260.52295," y="787.5," fill="#666" font-family="DejaVu Serif" font-size="20">Trusted</text><path fill="#ff9800" d="M303.325 770h40v20h-40z"/><path fill="none" stroke="#fff" stroke-miterlimit="10" stroke-width="2" d="M303.325 770h40v20h-40z"/><text x="353.32501, 366.78204, 376.34259, 388.38361, 399.68243, 411.51837, 424.39923, 436.32306, 449.20392, 460.40509," y="787.5," fill="#666" font-family="DejaVu Serif" font-size="20">Provenance</text><path fill="#f44336" d="M502.245 770h40v20h-40z"/><path fill="none" stroke="#fff" stroke-miterlimit="10" stroke-width="2" d="M502.245 770h40v20h-40z"/><text x="552.245, 569.10046, 581.98132, 590.01843, 599.57898, 612.45984, 622.72351, 630.76062, 642.59656," y="787.5," fill="#666" font-family="DejaVu Serif" font-size="20">Untrusted</text></g><path fill="#4caf50" d="M400 1q7.368 0 14.73.294 7.363.294 14.708.882t14.66 1.469 14.59 2.052q7.275 1.172 14.497 2.633t14.38 3.21 14.24 3.782q7.083 2.033 14.078 4.347 6.996 2.314 13.893 4.905t13.687 5.456q6.788 2.865 13.457 5.998t13.207 6.53q6.539 3.398 12.937 7.054 6.397 3.655 12.644 7.563t12.332 8.062 12 8.548L400 370z"/><path fill="none" stroke="#fff" stroke-linejoin="bevel" stroke-width="2" d="M400 1q7.368 0 14.73.294 7.363.294 14.708.882t14.66 1.469 14.59 2.052q7.275 1.172 14.497 2.633t14.38 3.21 14.24 3.782q7.083 2.033 14.078 4.347 6.996 2.314 13.893 4.905t13.687 5.456q6.788 2.865 13.457 5.998t13.207 6.53q6.539 3.398 12.937 7.054 6.397 3.655 12.644 7.563t12.332 8.062 12 8.548L400 370z"/><path fill="#ff9800" d="M620.04 73.785q10.545 7.833 20.506 16.396t19.287 17.812 17.973 19.139 16.566 20.368L400 370z"/><path fill="none" stroke="#fff" stroke-linejoin="bevel" stroke-width="2" d="M620.04 73.785q10.545 7.833 20.506 16.396t19.287 17.812 17.973 19.139 16.566 20.368L400 370 620.04 73.785Z"/><path fill="#f44336" d="M694.372 147.5q5.462 7.226 10.563 14.712 5.1 7.486 9.828 15.213t9.07 15.677q4.343 7.95 8.29 16.102 3.947 8.154 7.49 16.49 3.542 8.338 6.672 16.838t5.837 17.145q2.708 8.644 4.99 17.411 2.28 8.767 4.128 17.635t3.258 17.816q1.411 8.947 2.38 17.954.97 9.006 1.497 18.05.527 9.042.61 18.1t-.28 18.11-1.168 18.073-2.054 17.995-2.933 17.872q-1.687 8.9-3.808 17.707t-4.671 17.499-5.525 17.248-6.364 16.956-7.189 16.624-7.995 16.251-8.784 15.839-9.55 15.389-10.293 14.902q-5.33 7.325-11.013 14.379t-11.704 13.82-12.369 13.231-13.003 12.608-13.606 11.954-14.176 11.272q-5.102 3.856-10.334 7.533-5.232 3.676-10.588 7.17t-10.83 6.799q-5.475 3.306-11.06 6.42t-11.275 6.032-11.478 5.639-11.666 5.237q-5.878 2.517-11.84 4.83-5.962 2.312-12.001 4.416t-12.147 3.999-12.277 3.574-12.395 3.148-12.496 2.716-12.582 2.281-12.654 1.844-12.71 1.405-12.752.963-12.777.52-12.787.079-12.783-.366-12.762-.808q-6.374-.514-12.726-1.25-6.353-.735-12.676-1.69-6.323-.954-12.61-2.128-6.285-1.173-12.527-2.563t-12.432-2.997q-6.19-1.606-12.32-3.425-6.13-1.82-12.195-3.85-6.063-2.03-12.053-4.27t-11.899-4.686-11.728-5.095q-5.82-2.649-11.546-5.498-8.11-4.036-16.011-8.465-7.902-4.429-15.577-9.24-7.675-4.812-15.105-9.994t-14.596-10.723q-7.166-5.54-14.052-11.426-6.886-5.885-13.475-12.101-6.59-6.217-12.865-12.749t-12.224-13.364-11.553-13.948q-5.606-7.116-10.855-14.498T89.15 568.83t-9.383-15.492-8.61-15.934-7.818-16.337-7.007-16.701q-3.298-8.437-6.179-17.025-2.88-8.588-5.336-17.307-2.456-8.72-4.48-17.549-2.026-8.83-3.615-17.747t-2.739-17.903-1.857-18.016-.97-18.085-.083-18.112q.18-9.056.806-18.093.625-9.037 1.693-18.032 1.068-8.996 2.576-17.928t3.453-17.779q1.944-8.847 4.32-17.588t5.18-17.356 6.023-17.08 6.855-16.764 7.669-16.408q2.85-5.725 5.895-11.348 3.046-5.622 6.285-11.136 3.238-5.514 6.666-10.913 3.428-5.398 7.041-10.674 3.613-5.277 7.407-10.425t7.763-10.161 8.11-9.887q4.142-4.873 8.45-9.6t8.775-9.3 9.093-8.991 9.4-8.671q4.774-4.254 9.693-8.34 4.92-4.086 9.977-8 5.058-3.912 10.248-7.648t10.507-7.289 10.753-6.92q5.437-3.367 10.987-6.544t11.207-6.159 11.413-5.767 11.607-5.368 11.785-4.962 11.95-4.552 12.101-4.134T299 15.092q6.15-1.75 12.358-3.287t12.465-2.856 12.556-2.423T349.01 4.54q6.334-.884 12.694-1.547 6.36-.664 12.74-1.107t12.77-.664T400 1v369z"/><path fill="none" stroke="#fff" stroke-linejoin="bevel" stroke-width="2" d="M694.372 147.5q5.462 7.226 10.563 14.712 5.1 7.486 9.828 15.213t9.07 15.677q4.343 7.95 8.29 16.102 3.947 8.154 7.49 16.49 3.542 8.338 6.672 16.838t5.837 17.145q2.708 8.644 4.99 17.411 2.28 8.767 4.128 17.635t3.258 17.816q1.411 8.947 2.38 17.954.97 9.006 1.497 18.05.527 9.042.61 18.1t-.28 18.11-1.168 18.073-2.054 17.995-2.933 17.872q-1.687 8.9-3.808 17.707t-4.671 17.499-5.525 17.248-6.364 16.956-7.189 16.624-7.995 16.251-8.784 15.839-9.55 15.389-10.293 14.902q-5.33 7.325-11.013 14.379t-11.704 13.82-12.369 13.231-13.003 12.608-13.606 11.954-14.176 11.272q-5.102 3.856-10.334 7.533-5.232 3.676-10.588 7.17t-10.83 6.799q-5.475 3.306-11.06 6.42t-11.275 6.032-11.478 5.639-11.666 5.237q-5.878 2.517-11.84 4.83-5.962 2.312-12.001 4.416t-12.147 3.999-12.277 3.574-12.395 3.148-12.496 2.716-12.582 2.281-12.654 1.844-12.71 1.405-12.752.963-12.777.52-12.787.079-12.783-.366-12.762-.808q-6.374-.514-12.726-1.25-6.353-.735-12.676-1.69-6.323-.954-12.61-2.128-6.285-1.173-12.527-2.563t-12.432-2.997q-6.19-1.606-12.32-3.425-6.13-1.82-12.195-3.85-6.063-2.03-12.053-4.27t-11.899-4.686-11.728-5.095q-5.82-2.649-11.546-5.498-8.11-4.036-16.011-8.465-7.902-4.429-15.577-9.24-7.675-4.812-15.105-9.994t-14.596-10.723q-7.166-5.54-14.052-11.426-6.886-5.885-13.475-12.101-6.59-6.217-12.865-12.749t-12.224-13.364-11.553-13.948q-5.606-7.116-10.855-14.498T89.15 568.83t-9.383-15.492-8.61-15.934-7.818-16.337-7.007-16.701q-3.298-8.437-6.179-17.025-2.88-8.588-5.336-17.307-2.456-8.72-4.48-17.549-2.026-8.83-3.615-17.747t-2.739-17.903-1.857-18.016-.97-18.085-.083-18.112q.18-9.056.806-18.093.625-9.037 1.693-18.032 1.068-8.996 2.576-17.928t3.453-17.779q1.944-8.847 4.32-17.588t5.18-17.356 6.023-17.08 6.855-16.764 7.669-16.408q2.85-5.725 5.895-11.348 3.046-5.622 6.285-11.136 3.238-5.514 6.666-10.913 3.428-5.398 7.041-10.674 3.613-5.277 7.407-10.425t7.763-10.161 8.11-9.887q4.142-4.873 8.45-9.6t8.775-9.3 9.093-8.991 9.4-8.671q4.774-4.254 9.693-8.34 4.92-4.086 9.977-8 5.058-3.912 10.248-7.648t10.507-7.289 10.753-6.92q5.437-3.367 10.987-6.544t11.207-6.159 11.413-5.767 11.607-5.368 11.785-4.962 11.95-4.552 12.101-4.134T299 15.092q6.15-1.75 12.358-3.287t12.465-2.856 12.556-2.423T349.01 4.54q6.334-.884 12.694-1.547 6.36-.664 12.74-1.107t12.77-.664T400 1v369l294.372-222.5Z"/></svg>