<svg xmlns="http://www.w3.org/2000/svg" width="800" height="800"><path fill="none" d="M0 0h800v800H0z"/><clipPath id="a"><path d="M0 690h800v110H0z"/></clipPath><g clip-path="url(#a)"><path fill="#4caf50" d="M123.3 720h40v20h-40z"/><path fill="none" stroke="#fff" stroke-miterlimit="10" stroke-width="2" d="M123.3 720h40v20h-40z"/><path fill="#ff9800" d="M377.64 720h40v20h-40z"/><path fill="none" stroke="#fff" stroke-miterlimit="10" stroke-width="2" d="M377.64 720h40v20h-40z"/><path fill="#f44336" d="M262.92 770h40v20h-40z"/><path fill="none" stroke="#fff" stroke-miterlimit="10" stroke-width="2" d="M262.92 770h40v20h-40z"/></g><path fill="#4caf50" d="M400 1q4.54 0 9.08.12 4.538.12 9.073.36 4.534.239 9.06.598 4.526.36 9.042.838 4.515.478 9.016 1.076 4.501.597 8.985 1.314 4.484.716 8.947 1.55t8.903 1.786 8.852 2.02 8.797 2.254 8.733 2.484 8.666 2.715q4.314 1.414 8.59 2.942 4.276 1.527 8.51 3.167t8.423 3.392 8.33 3.612 8.233 3.831 8.129 4.047 8.019 4.26 7.903 4.47 7.783 4.678 7.657 4.881 7.525 5.082 7.389 5.278 7.246 5.472 7.1 5.66 6.948 5.847 6.791 6.028q3.356 3.058 6.63 6.204t6.463 6.378 6.293 6.546 6.118 6.71L400 345z"/><path fill="none" stroke="#fff" stroke-linejoin="bevel" stroke-width="2" d="M400 1q4.54 0 9.08.12 4.538.12 9.073.36 4.534.239 9.06.598 4.526.36 9.042.838 4.515.478 9.016 1.076 4.501.597 8.985 1.314 4.484.716 8.947 1.55t8.903 1.786 8.852 2.02 8.797 2.254 8.733 2.484 8.666 2.715q4.314 1.414 8.59 2.942 4.276 1.527 8.51 3.167t8.423 3.392 8.33 3.612 8.233 3.831 8.129 4.047 8.019 4.26 7.903 4.47 7.783 4.678 7.657 4.881 7.525 5.082 7.389 5.278 7.246 5.472 7.1 5.66 6.948 5.847 6.791 6.028q3.356 3.058 6.63 6.204t6.463 6.378 6.293 6.546 6.118 6.71L400 345z"/><path fill="#ff9800" d="M657.234 116.6q14.202 15.994 26.312 33.625 12.111 17.63 21.944 36.625L400 345z"/><path fill="none" stroke="#fff" stroke-linejoin="bevel" stroke-width="2" d="M657.234 116.6q14.202 15.994 26.312 33.625 12.111 17.63 21.944 36.625L400 345l257.234-228.4Z"/><path fill="#f44336" d="M705.49 186.85q3.883 7.499 7.393 15.18 3.51 7.68 6.638 15.524t5.868 15.832 5.085 16.1 4.289 16.331 3.482 16.522q1.538 8.303 2.667 16.672t1.846 16.783 1.02 16.854.192 16.883-.637 16.872-1.463 16.821q-.939 8.393-2.288 16.729t-3.105 16.596-3.916 16.424-4.717 16.212-5.507 15.961q-2.95 7.913-6.284 15.672-3.334 7.758-7.045 15.344t-7.79 14.98q-4.078 7.395-8.514 14.58-4.437 7.186-9.22 14.145-4.784 6.96-9.904 13.675t-10.562 13.173-11.196 12.638-11.802 12.075q-6.05 5.892-12.381 11.48t-12.93 10.859q-6.597 5.27-13.446 10.212-6.848 4.94-13.93 9.54-7.083 4.598-14.383 8.843-7.3 4.246-14.8 8.128-4.889 2.532-9.857 4.905t-10.01 4.587q-5.04 2.213-10.15 4.264-5.11 2.05-10.282 3.937-5.173 1.886-10.403 3.606t-10.513 3.271-10.613 2.933-10.7 2.592-10.779 2.248T454 684.735q-5.438.865-10.9 1.555t-10.945 1.204q-5.481.515-10.977.854-5.495.339-10.998.501-5.504.163-11.01.15-5.505-.013-11.008-.203t-10.996-.555q-5.494-.365-10.973-.906t-10.938-1.258-10.892-1.606-10.836-1.955-10.767-2.3-10.688-2.643q-5.323-1.408-10.598-2.985t-10.497-3.322-10.386-3.656-10.263-3.986-10.13-4.313-9.987-4.635-9.834-4.953-9.67-5.264-9.496-5.571q-7.215-4.39-14.206-9.127t-13.74-9.813q-6.75-5.075-13.242-10.475T167.31 598.36t-12.152-11.723-11.561-12.304-10.944-12.858-10.3-13.379-9.631-13.868-8.939-14.324-8.225-14.745-7.492-15.131-6.74-15.481-5.973-15.793-5.191-16.066-4.396-16.302-3.59-16.498q-1.594-8.294-2.778-16.655t-1.956-16.77-1.131-16.847q-.36-8.437-.304-16.882.056-8.444.526-16.876.47-8.431 1.353-16.83t2.177-16.743 2.996-16.617q1.702-8.271 3.808-16.45 2.106-8.177 4.61-16.242t5.402-15.997 6.18-15.712q3.283-7.78 6.944-15.39t7.69-15.032 8.42-14.636q2.861-4.704 5.872-9.313t6.167-9.121 6.456-8.919 6.738-8.707 7.014-8.488q3.574-4.188 7.281-8.259 3.707-4.07 7.542-8.021 3.835-3.95 7.795-7.776t8.04-7.523 8.276-7.261 8.504-6.993 8.724-6.717 8.934-6.434 9.136-6.146 9.328-5.85 9.51-5.548 9.682-5.24q4.884-2.544 9.846-4.93t9.998-4.61 10.14-4.289q5.105-2.063 10.274-3.961 5.168-1.9 10.394-3.632t10.505-3.296q5.279-1.564 10.605-2.959 5.326-1.394 10.695-2.618 5.368-1.223 10.772-2.274 5.405-1.05 10.84-1.928 5.436-.877 10.897-1.58 5.46-.703 10.94-1.231 5.481-.528 10.976-.88 5.494-.353 10.997-.529T400 1v344z"/><path fill="none" stroke="#fff" stroke-linejoin="bevel" stroke-width="2" d="M705.49 186.85q3.883 7.499 7.393 15.18 3.51 7.68 6.638 15.524t5.868 15.832 5.085 16.1 4.289 16.331 3.482 16.522q1.538 8.303 2.667 16.672t1.846 16.783 1.02 16.854.192 16.883-.637 16.872-1.463 16.821q-.939 8.393-2.288 16.729t-3.105 16.596-3.916 16.424-4.717 16.212-5.507 15.961q-2.95 7.913-6.284 15.672-3.334 7.758-7.045 15.344t-7.79 14.98q-4.078 7.395-8.514 14.58-4.437 7.186-9.22 14.145-4.784 6.96-9.904 13.675t-10.562 13.173-11.196 12.638-11.802 12.075q-6.05 5.892-12.381 11.48t-12.93 10.859q-6.597 5.27-13.446 10.212-6.848 4.94-13.93 9.54-7.083 4.598-14.383 8.843-7.3 4.246-14.8 8.128-4.889 2.532-9.857 4.905t-10.01 4.587q-5.04 2.213-10.15 4.264-5.11 2.05-10.282 3.937-5.173 1.886-10.403 3.606t-10.513 3.271-10.613 2.933-10.7 2.592-10.779 2.248T454 684.735q-5.438.865-10.9 1.555t-10.945 1.204q-5.481.515-10.977.854-5.495.339-10.998.501-5.504.163-11.01.15-5.505-.013-11.008-.203t-10.996-.555q-5.494-.365-10.973-.906t-10.938-1.258-10.892-1.606-10.836-1.955-10.767-2.3-10.688-2.643q-5.323-1.408-10.598-2.985t-10.497-3.322-10.386-3.656-10.263-3.986-10.13-4.313-9.987-4.635-9.834-4.953-9.67-5.264-9.496-5.571q-7.215-4.39-14.206-9.127t-13.74-9.813q-6.75-5.075-13.242-10.475T167.31 598.36t-12.152-11.723-11.561-12.304-10.944-12.858-10.3-13.379-9.631-13.868-8.939-14.324-8.225-14.745-7.492-15.131-6.74-15.481-5.973-15.793-5.191-16.066-4.396-16.302-3.59-16.498q-1.594-8.294-2.778-16.655t-1.956-16.77-1.131-16.847q-.36-8.437-.304-16.882.056-8.444.526-16.876.47-8.431 1.353-16.83t2.177-16.743 2.996-16.617q1.702-8.271 3.808-16.45 2.106-8.177 4.61-16.242t5.402-15.997 6.18-15.712q3.283-7.78 6.944-15.39t7.69-15.032 8.42-14.636q2.861-4.704 5.872-9.313t6.167-9.121 6.456-8.919 6.738-8.707 7.014-8.488q3.574-4.188 7.281-8.259 3.707-4.07 7.542-8.021 3.835-3.95 7.795-7.776t8.04-7.523 8.276-7.261 8.504-6.993 8.724-6.717 8.934-6.434 9.136-6.146 9.328-5.85 9.51-5.548 9.682-5.24q4.884-2.544 9.846-4.93t9.998-4.61 10.14-4.289q5.105-2.063 10.274-3.961 5.168-1.9 10.394-3.632t10.505-3.296q5.279-1.564 10.605-2.959 5.326-1.394 10.695-2.618 5.368-1.223 10.772-2.274 5.405-1.05 10.84-1.928 5.436-.877 10.897-1.58 5.46-.703 10.94-1.231 5.481-.528 10.976-.88 5.494-.353 10.997-.529T400 1v344l305.49-158.15Z"/></svg>