<svg xmlns="http://www.w3.org/2000/svg" width="800" height="800"><path fill="none" d="M0 0h800v800H0z"/><clipPath id="a"><path d="M0 740h800v60H0z"/></clipPath><g clip-path="url(#a)"><path fill="#4caf50" d="M144.605 770h40v20h-40z"/><path fill="none" stroke="#fff" stroke-miterlimit="10" stroke-width="2" d="M144.605 770h40v20h-40z"/><text x="194.605, 207.94484, 217.50539, 230.38625, 240.64992, 248.68703, 260.52295," y="787.5," fill="#666" font-family="DejaVu Serif" font-size="20">Trusted</text><path fill="#ff9800" d="M303.325 770h40v20h-40z"/><path fill="none" stroke="#fff" stroke-miterlimit="10" stroke-width="2" d="M303.325 770h40v20h-40z"/><text x="353.32501, 366.78204, 376.34259, 388.38361, 399.68243, 411.51837, 424.39923, 436.32306, 449.20392, 460.40509," y="787.5," fill="#666" font-family="DejaVu Serif" font-size="20">Provenance</text><path fill="#f44336" d="M502.245 770h40v20h-40z"/><path fill="none" stroke="#fff" stroke-miterlimit="10" stroke-width="2" d="M502.245 770h40v20h-40z"/><text x="552.245, 569.10046, 581.98132, 590.01843, 599.57898, 612.45984, 622.72351, 630.76062, 642.59656," y="787.5," fill="#666" font-family="DejaVu Serif" font-size="20">Untrusted</text></g><path fill="#4caf50" d="M400 1q7.422 0 14.838.298 7.416.299 14.813.895t14.766 1.49 14.694 2.082q7.326 1.19 14.598 2.672t14.48 3.256 14.336 3.836 14.17 4.41q7.041 2.346 13.982 4.975t13.77 5.534 13.537 6.082q6.708 3.178 13.282 6.623t13.004 7.15 12.706 7.669 12.387 8.173q6.112 4.21 12.05 8.664L400 370z"/><path fill="none" stroke="#fff" stroke-linejoin="bevel" stroke-width="2" d="M400 1q7.422 0 14.838.298 7.416.299 14.813.895t14.766 1.49 14.694 2.082q7.326 1.19 14.598 2.672t14.48 3.256 14.336 3.836 14.17 4.41q7.041 2.346 13.982 4.975t13.77 5.534 13.537 6.082q6.708 3.178 13.282 6.623t13.004 7.15 12.706 7.669 12.387 8.173q6.112 4.21 12.05 8.664L400 370z"/><path fill="#ff9800" d="M621.412 74.81q10.493 7.87 20.4 16.464 9.907 8.596 19.18 17.872 9.271 9.277 17.861 19.189t16.454 20.408L400 370z"/><path fill="none" stroke="#fff" stroke-linejoin="bevel" stroke-width="2" d="M621.412 74.81q10.493 7.87 20.4 16.464 9.907 8.596 19.18 17.872 9.271 9.277 17.861 19.189t16.454 20.408L400 370 621.412 74.81Z"/><path fill="#f44336" d="M695.307 148.743q5.432 7.25 10.501 14.757 5.07 7.507 9.764 15.254 4.695 7.747 9.004 15.715 4.31 7.968 8.222 16.137t7.42 16.522 6.601 16.866 5.765 17.17 4.916 17.43 4.054 17.653q1.81 8.875 3.184 17.829 1.372 8.954 2.304 17.964t1.42 18.056q.49 9.045.533 18.103.045 9.059-.356 18.108t-1.244 18.069-2.13 17.986q-1.284 8.967-3.008 17.86t-3.882 17.69q-2.158 8.798-4.746 17.479-2.587 8.68-5.597 17.225-3.01 8.543-6.436 16.929-3.425 8.386-7.258 16.593t-8.064 16.217-8.85 15.802-9.615 15.349-10.356 14.858-11.073 14.332q-5.713 7.03-11.763 13.772t-12.424 13.178-13.057 12.553q-6.682 6.115-13.656 11.896-6.974 5.78-14.223 11.212-5.108 3.828-10.346 7.476-5.237 3.648-10.597 7.113t-10.837 6.742-11.064 6.363-11.278 5.977-11.477 5.584-11.664 5.183-11.835 4.777-11.994 4.364-12.138 3.947-12.267 3.525-12.382 3.099-12.481 2.668-12.566 2.235q-6.302 1.01-12.636 1.8t-12.69 1.361q-6.358.57-12.73.922-6.374.35-12.755.48t-12.763.04q-6.382-.09-12.757-.402t-12.736-.843q-6.36-.532-12.699-1.283t-12.646-1.721q-6.309-.97-12.58-2.158t-12.498-2.592-12.4-3.022-12.288-3.449-12.162-3.872q-6.048-2.041-12.021-4.29t-11.865-4.704-11.695-5.111q-5.804-2.657-11.512-5.512-8.101-4.054-15.994-8.5t-15.557-9.272-15.084-10.026-14.573-10.753-14.028-11.456-13.45-12.13-12.838-12.775q-6.262-6.546-12.195-13.39t-11.524-13.973q-5.59-7.127-10.825-14.52-5.234-7.394-10.098-15.035t-9.35-15.512q-4.484-7.87-8.576-15.952-4.093-8.081-7.784-16.353t-6.971-16.716-6.143-17.038q-2.863-8.594-5.3-17.319-2.438-8.724-4.444-17.558t-3.576-17.754q-1.57-8.922-2.702-17.91-1.13-8.987-1.819-18.019-.688-9.032-.933-18.087-.244-9.056-.044-18.112t.845-18.091 1.73-18.029q1.088-8.993 2.615-17.922t3.49-17.772q1.963-8.843 4.358-17.58 2.394-8.735 5.215-17.343t6.06-17.068q3.24-8.46 6.89-16.75t7.703-16.391q2.856-5.708 5.908-11.314 3.051-5.606 6.295-11.103t6.675-10.879 7.048-10.64q3.615-5.26 7.41-10.392t7.767-10.129 8.112-9.854 8.448-9.567 8.773-9.27 9.09-8.96 9.393-8.642q4.771-4.239 9.686-8.31 4.916-4.072 9.969-7.972 5.053-3.899 10.238-7.621t10.495-7.263 10.74-6.896 10.973-6.52 11.191-6.136 11.397-5.746 11.589-5.349 11.766-4.944 11.931-4.534 12.08-4.12 12.216-3.698 12.336-3.275 12.443-2.845 12.533-2.414 12.609-1.978 12.67-1.542 12.715-1.102 12.747-.662T400 1v369z"/><path fill="none" stroke="#fff" stroke-linejoin="bevel" stroke-width="2" d="M695.307 148.743q5.432 7.25 10.501 14.757 5.07 7.507 9.764 15.254 4.695 7.747 9.004 15.715 4.31 7.968 8.222 16.137t7.42 16.522 6.601 16.866 5.765 17.17 4.916 17.43 4.054 17.653q1.81 8.875 3.184 17.829 1.372 8.954 2.304 17.964t1.42 18.056q.49 9.045.533 18.103.045 9.059-.356 18.108t-1.244 18.069-2.13 17.986q-1.284 8.967-3.008 17.86t-3.882 17.69q-2.158 8.798-4.746 17.479-2.587 8.68-5.597 17.225-3.01 8.543-6.436 16.929-3.425 8.386-7.258 16.593t-8.064 16.217-8.85 15.802-9.615 15.349-10.356 14.858-11.073 14.332q-5.713 7.03-11.763 13.772t-12.424 13.178-13.057 12.553q-6.682 6.115-13.656 11.896-6.974 5.78-14.223 11.212-5.108 3.828-10.346 7.476-5.237 3.648-10.597 7.113t-10.837 6.742-11.064 6.363-11.278 5.977-11.477 5.584-11.664 5.183-11.835 4.777-11.994 4.364-12.138 3.947-12.267 3.525-12.382 3.099-12.481 2.668-12.566 2.235q-6.302 1.01-12.636 1.8t-12.69 1.361q-6.358.57-12.73.922-6.374.35-12.755.48t-12.763.04q-6.382-.09-12.757-.402t-12.736-.843q-6.36-.532-12.699-1.283t-12.646-1.721q-6.309-.97-12.58-2.158t-12.498-2.592-12.4-3.022-12.288-3.449-12.162-3.872q-6.048-2.041-12.021-4.29t-11.865-4.704-11.695-5.111q-5.804-2.657-11.512-5.512-8.101-4.054-15.994-8.5t-15.557-9.272-15.084-10.026-14.573-10.753-14.028-11.456-13.45-12.13-12.838-12.775q-6.262-6.546-12.195-13.39t-11.524-13.973q-5.59-7.127-10.825-14.52-5.234-7.394-10.098-15.035t-9.35-15.512q-4.484-7.87-8.576-15.952-4.093-8.081-7.784-16.353t-6.971-16.716-6.143-17.038q-2.863-8.594-5.3-17.319-2.438-8.724-4.444-17.558t-3.576-17.754q-1.57-8.922-2.702-17.91-1.13-8.987-1.819-18.019-.688-9.032-.933-18.087-.244-9.056-.044-18.112t.845-18.091 1.73-18.029q1.088-8.993 2.615-17.922t3.49-17.772q1.963-8.843 4.358-17.58 2.394-8.735 5.215-17.343t6.06-17.068q3.24-8.46 6.89-16.75t7.703-16.391q2.856-5.708 5.908-11.314 3.051-5.606 6.295-11.103t6.675-10.879 7.048-10.64q3.615-5.26 7.41-10.392t7.767-10.129 8.112-9.854 8.448-9.567 8.773-9.27 9.09-8.96 9.393-8.642q4.771-4.239 9.686-8.31 4.916-4.072 9.969-7.972 5.053-3.899 10.238-7.621t10.495-7.263 10.74-6.896 10.973-6.52 11.191-6.136 11.397-5.746 11.589-5.349 11.766-4.944 11.931-4.534 12.08-4.12 12.216-3.698 12.336-3.275 12.443-2.845 12.533-2.414 12.609-1.978 12.67-1.542 12.715-1.102 12.747-.662T400 1v369l295.308-221.257Z"/></svg>