<svg xmlns="http://www.w3.org/2000/svg" width="800" height="800"><path fill="none" d="M0 0h800v800H0z"/><clipPath id="a"><path d="M0 740h800v60H0z"/></clipPath><g clip-path="url(#a)"><path fill="#4caf50" d="M138.975 770h40v20h-40z"/><path fill="none" stroke="#fff" stroke-miterlimit="10" stroke-width="2" d="M138.975 770h40v20h-40z"/><text x="188.97501, 200.97696, 212.97891, 224.98087, 236.98282, 248.98477, 260.98672," y="785.5," fill="#666" font-family="Liberation Mono" font-size="20">Trusted</text><path fill="#ff9800" d="M302.985 770h40v20h-40z"/><path fill="none" stroke="#fff" stroke-miterlimit="10" stroke-width="2" d="M302.985 770h40v20h-40z"/><text x="352.98502, 364.98697, 376.98892, 388.99088, 400.99283, 412.99478, 424.99673, 436.99869, 449.00064, 461.00259," y="785.5," fill="#666" font-family="Liberation Mono" font-size="20">Provenance</text><path fill="#f44336" d="M503.005 770h40v20h-40z"/><path fill="none" stroke="#fff" stroke-miterlimit="10" stroke-width="2" d="M503.005 770h40v20h-40z"/><text x="553.005, 565.00696, 577.00891, 589.01086, 601.01282, 613.01477, 625.01672, 637.01868, 649.02063," y="785.5," fill="#666" font-family="Liberation Mono" font-size="20">Untrusted</text></g><path fill="#4caf50" d="M400 1q5.921 0 11.84.19 5.917.19 11.826.57t11.803.949q5.894.569 11.766 1.327 5.873.758 11.718 1.704t11.656 2.079 11.585 2.452 11.5 2.822q5.726 1.503 11.402 3.19 5.676 1.686 11.295 3.554t11.175 3.915 11.043 4.27 10.901 4.624q5.414 2.4 10.747 4.97 5.334 2.572 10.582 5.314t10.406 5.65 10.22 5.98 10.022 6.305q4.96 3.234 9.814 6.624 4.855 3.39 9.597 6.935 4.743 3.545 9.37 7.24t9.133 7.537 8.886 7.825 8.63 8.107 8.366 8.38 8.093 8.643 7.811 8.899 7.522 9.145q3.687 4.632 7.224 9.381t6.92 9.608q3.383 4.86 6.608 9.826t6.289 10.032L400 370z"/><path fill="none" stroke="#fff" stroke-linejoin="bevel" stroke-width="2" d="M400 1q5.921 0 11.84.19 5.917.19 11.826.57t11.803.949q5.894.569 11.766 1.327 5.873.758 11.718 1.704t11.656 2.079 11.585 2.452 11.5 2.822q5.726 1.503 11.402 3.19 5.676 1.686 11.295 3.554t11.175 3.915 11.043 4.27 10.901 4.624q5.414 2.4 10.747 4.97 5.334 2.572 10.582 5.314t10.406 5.65 10.22 5.98 10.022 6.305q4.96 3.234 9.814 6.624 4.855 3.39 9.597 6.935 4.743 3.545 9.37 7.24t9.133 7.537 8.886 7.825 8.63 8.107 8.366 8.38 8.093 8.643 7.811 8.899 7.522 9.145q3.687 4.632 7.224 9.381t6.92 9.608q3.383 4.86 6.608 9.826t6.289 10.032L400 370z"/><path fill="#ff9800" d="M715.75 179.047q9.49 15.692 17.377 32.248 7.888 16.556 14.095 33.813L400 370z"/><path fill="none" stroke="#fff" stroke-linejoin="bevel" stroke-width="2" d="M715.75 179.047q9.49 15.692 17.377 32.248 7.888 16.556 14.095 33.813L400 370l315.75-190.953Z"/><path fill="#f44336" d="M747.222 245.108q3.066 8.523 5.71 17.187t4.86 17.448 3.997 17.664 3.126 17.84 2.247 17.971 1.363 18.06q.46 9.047.474 18.106.016 9.058-.414 18.106t-1.302 18.065-2.187 17.979q-1.314 8.962-3.067 17.85-1.752 8.887-3.938 17.678-2.187 8.79-4.802 17.463t-5.652 17.207-6.49 16.909q-3.453 8.374-7.312 16.57t-8.116 16.19q-4.257 7.997-8.9 15.774-4.645 7.777-9.665 15.318t-10.404 14.825-11.119 14.296q-5.735 7.012-11.807 13.734t-12.466 13.138-13.097 12.51-13.694 11.853-14.26 11.167-14.79 10.453-15.285 9.716-15.743 8.953-16.164 8.17-16.546 7.367-16.887 6.547q-5.198 1.87-10.45 3.583t-10.552 3.268-10.645 2.951-10.73 2.632-10.802 2.309-10.867 1.984q-5.449.91-10.922 1.658t-10.967 1.33q-5.493.584-11.001 1.003t-11.027.672q-5.518.253-11.041.34-5.524.09-11.047.012-5.524-.077-11.043-.32t-11.028-.65-11.003-.98-10.97-1.31q-5.474-.736-10.924-1.636t-10.871-1.963-10.808-2.287-10.734-2.61q-5.348-1.386-10.651-2.93-5.304-1.545-10.56-3.248-5.254-1.703-10.456-3.563-5.202-1.859-10.346-3.873-5.143-2.015-10.224-4.182t-10.096-4.486q-5.014-2.318-9.956-4.786t-9.809-5.082-9.652-5.373-9.487-5.66q-4.7-2.901-9.313-5.941-4.612-3.04-9.131-6.218-7.41-5.21-14.556-10.777t-14.01-11.478q-6.864-5.91-13.43-12.151t-12.818-12.796q-6.251-6.556-12.174-13.41t-11.501-13.99q-5.58-7.137-10.801-14.539-5.222-7.402-10.075-15.05-4.853-7.65-9.324-15.527-4.472-7.878-8.551-15.966-4.08-8.088-7.757-16.366-3.678-8.278-6.945-16.727T49.72 486.04t-5.272-17.327-4.415-17.565-3.549-17.76-2.672-17.914-1.79-18.022-.904-18.09-.015-18.11.873-18.09q.66-9.035 1.76-18.027 1.102-8.99 2.643-17.917t3.518-17.767q1.978-8.84 4.387-17.572t5.243-17.336 6.087-17.058 6.917-16.738 7.73-16.38 8.524-15.98 9.298-15.542 10.05-15.067q3.177-4.52 6.488-8.941 3.31-4.422 6.752-8.743 3.442-4.32 7.012-8.537 3.57-4.216 7.264-8.323t7.51-8.102 7.748-7.873 7.981-7.638 8.206-7.396 8.424-7.146 8.634-6.892 8.836-6.63 9.031-6.362 9.218-6.089 9.395-5.81 9.565-5.527 9.726-5.238 9.88-4.944 10.021-4.647 10.157-4.344 10.283-4.038 10.398-3.73 10.506-3.415 10.603-3.1 10.691-2.78q5.367-1.311 10.77-2.46t10.839-2.137 10.897-1.81 10.947-1.484 10.986-1.156 11.016-.826q5.515-.33 11.036-.496Q394.476 1 400 1v369z"/><path fill="none" stroke="#fff" stroke-linejoin="bevel" stroke-width="2" d="M747.222 245.108q3.066 8.523 5.71 17.187t4.86 17.448 3.997 17.664 3.126 17.84 2.247 17.971 1.363 18.06q.46 9.047.474 18.106.016 9.058-.414 18.106t-1.302 18.065-2.187 17.979q-1.314 8.962-3.067 17.85-1.752 8.887-3.938 17.678-2.187 8.79-4.802 17.463t-5.652 17.207-6.49 16.909q-3.453 8.374-7.312 16.57t-8.116 16.19q-4.257 7.997-8.9 15.774-4.645 7.777-9.665 15.318t-10.404 14.825-11.119 14.296q-5.735 7.012-11.807 13.734t-12.466 13.138-13.097 12.51-13.694 11.853-14.26 11.167-14.79 10.453-15.285 9.716-15.743 8.953-16.164 8.17-16.546 7.367-16.887 6.547q-5.198 1.87-10.45 3.583t-10.552 3.268-10.645 2.951-10.73 2.632-10.802 2.309-10.867 1.984q-5.449.91-10.922 1.658t-10.967 1.33q-5.493.584-11.001 1.003t-11.027.672q-5.518.253-11.041.34-5.524.09-11.047.012-5.524-.077-11.043-.32t-11.028-.65-11.003-.98-10.97-1.31q-5.474-.736-10.924-1.636t-10.871-1.963-10.808-2.287-10.734-2.61q-5.348-1.386-10.651-2.93-5.304-1.545-10.56-3.248-5.254-1.703-10.456-3.563-5.202-1.859-10.346-3.873-5.143-2.015-10.224-4.182t-10.096-4.486q-5.014-2.318-9.956-4.786t-9.809-5.082-9.652-5.373-9.487-5.66q-4.7-2.901-9.313-5.941-4.612-3.04-9.131-6.218-7.41-5.21-14.556-10.777t-14.01-11.478q-6.864-5.91-13.43-12.151t-12.818-12.796q-6.251-6.556-12.174-13.41t-11.501-13.99q-5.58-7.137-10.801-14.539-5.222-7.402-10.075-15.05-4.853-7.65-9.324-15.527-4.472-7.878-8.551-15.966-4.08-8.088-7.757-16.366-3.678-8.278-6.945-16.727T49.72 486.04t-5.272-17.327-4.415-17.565-3.549-17.76-2.672-17.914-1.79-18.022-.904-18.09-.015-18.11.873-18.09q.66-9.035 1.76-18.027 1.102-8.99 2.643-17.917t3.518-17.767q1.978-8.84 4.387-17.572t5.243-17.336 6.087-17.058 6.917-16.738 7.73-16.38 8.524-15.98 9.298-15.542 10.05-15.067q3.177-4.52 6.488-8.941 3.31-4.422 6.752-8.743 3.442-4.32 7.012-8.537 3.57-4.216 7.264-8.323t7.51-8.102 7.748-7.873 7.981-7.638 8.206-7.396 8.424-7.146 8.634-6.892 8.836-6.63 9.031-6.362 9.218-6.089 9.395-5.81 9.565-5.527 9.726-5.238 9.88-4.944 10.021-4.647 10.157-4.344 10.283-4.038 10.398-3.73 10.506-3.415 10.603-3.1 10.691-2.78q5.367-1.311 10.77-2.46t10.839-2.137 10.897-1.81 10.947-1.484 10.986-1.156 11.016-.826q5.515-.33 11.036-.496Q394.476 1 400 1v369l347.222-124.893Z"/></svg>