<svg xmlns="http://www.w3.org/2000/svg" width="800" height="800"><path fill="none" d="M0 0h800v800H0z"/><clipPath id="a"><path d="M0 740h800v60H0z"/></clipPath><g clip-path="url(#a)"><path fill="#4caf50" d="M144.605 770h40v20h-40z"/><path fill="none" stroke="#fff" stroke-miterlimit="10" stroke-width="2" d="M144.605 770h40v20h-40z"/><text x="194.605, 207.94484, 217.50539, 230.38625, 240.64992, 248.68703, 260.52295," y="787.5," fill="#666" font-family="DejaVu Serif" font-size="20">Trusted</text><path fill="#ff9800" d="M303.325 770h40v20h-40z"/><path fill="none" stroke="#fff" stroke-miterlimit="10" stroke-width="2" d="M303.325 770h40v20h-40z"/><text x="353.32501, 366.78204, 376.34259, 388.38361, 399.68243, 411.51837, 424.39923, 436.32306, 449.20392, 460.40509," y="787.5," fill="#666" font-family="DejaVu Serif" font-size="20">Provenance</text><path fill="#f44336" d="M502.245 770h40v20h-40z"/><path fill="none" stroke="#fff" stroke-miterlimit="10" stroke-width="2" d="M502.245 770h40v20h-40z"/><text x="552.245, 569.10046, 581.98132, 590.01843, 599.57898, 612.45984, 622.72351, 630.76062, 642.59656," y="787.5," fill="#666" font-family="DejaVu Serif" font-size="20">Untrusted</text></g><path fill="#4caf50" d="M400 1q6.337 0 12.67.218 6.334.217 12.656.652t12.625 1.087 12.581 1.52q6.277.867 12.521 1.95t12.447 2.38 12.358 2.805 12.254 3.228q6.1 1.72 12.136 3.647 6.037 1.928 12.004 4.062 5.967 2.133 11.857 4.47 5.89 2.338 11.697 4.877t11.522 5.274 11.334 5.667 11.133 6.053 10.92 6.432L400 370z"/><path fill="none" stroke="#fff" stroke-linejoin="bevel" stroke-width="2" d="M400 1q6.337 0 12.67.218 6.334.217 12.656.652t12.625 1.087 12.581 1.52q6.277.867 12.521 1.95t12.447 2.38 12.358 2.805 12.254 3.228q6.1 1.72 12.136 3.647 6.037 1.928 12.004 4.062 5.967 2.133 11.857 4.47 5.89 2.338 11.697 4.877t11.522 5.274 11.334 5.667 11.133 6.053 10.92 6.432L400 370z"/><path fill="#ff9800" d="M592.714 55.322q12.099 7.41 23.593 15.726t22.316 17.491 20.906 19.153q10.086 9.979 19.375 20.702L400 370z"/><path fill="none" stroke="#fff" stroke-linejoin="bevel" stroke-width="2" d="M592.714 55.322q12.099 7.41 23.593 15.726t22.316 17.491 20.906 19.153q10.086 9.979 19.375 20.702L400 370 592.714 55.322Z"/><path fill="#f44336" d="M678.904 128.394q5.931 6.846 11.519 13.976t10.82 14.524q5.23 7.396 10.093 15.038t9.344 15.515 8.571 15.955q4.09 8.083 7.778 16.357t6.966 16.718 6.137 17.04 5.294 17.32 4.438 17.56 3.57 17.756q1.568 8.921 2.695 17.91 1.128 8.987 1.813 18.02.686 9.032.927 18.088.241 9.055.038 18.11-.203 9.057-.85 18.092-.648 9.036-1.738 18.028-1.09 8.993-2.62 17.921t-3.496 17.771-4.364 17.578-5.221 17.342-6.066 17.066-6.896 16.747-7.709 16.389-8.504 15.99-9.279 15.555-10.03 15.08-10.759 14.57-11.46 14.024-12.135 13.445T655 636.713t-13.394 12.19q-4.978 4.314-10.108 8.446-5.13 4.133-10.403 8.08t-10.685 7.702q-5.41 3.756-10.952 7.317-5.542 3.56-11.208 6.92-5.665 3.36-11.446 6.517-5.782 3.156-11.673 6.104-5.89 2.948-11.882 5.683-5.992 2.736-12.078 5.256t-12.258 4.821-12.422 4.38-12.57 3.935-12.703 3.484-12.82 3.027-12.918 2.569-13.002 2.105-13.07 1.64-13.12 1.173-13.152.704-13.17.234-13.17-.236-13.153-.706-13.119-1.176-13.069-1.642-13.002-2.108-12.918-2.571-12.819-3.03-12.702-3.486-12.57-3.937-12.421-4.383-12.257-4.823-12.077-5.258q-8.24-3.764-16.284-7.927-8.045-4.163-15.876-8.716t-15.43-9.485-14.945-10.23-14.425-10.952-13.87-11.647-13.283-12.312-12.662-12.95-12.012-13.555-11.331-14.129-10.625-14.667-9.893-15.171-9.136-15.638-8.358-16.068-7.56-16.458-6.742-16.81-5.91-17.12-5.063-17.39-4.203-17.616T35.747 429t-2.456-17.944-1.573-18.043-.685-18.099.203-18.11 1.092-18.079 1.977-18.003 2.858-17.884q1.65-8.907 3.733-17.723t4.598-17.518q2.513-8.703 5.451-17.272t6.293-16.983q3.355-8.414 7.118-16.654 2.737-5.991 5.686-11.881t6.106-11.671 6.518-11.446 6.923-11.206 7.319-10.951 7.704-10.684 8.081-10.401 8.448-10.107q4.313-4.978 8.802-9.798t9.147-9.478 9.479-9.146q4.82-4.488 9.8-8.802 4.977-4.313 10.106-8.446 5.13-4.133 10.403-8.08t10.684-7.704q5.41-3.756 10.952-7.317t11.206-6.922 11.447-6.518q5.78-3.156 11.671-6.105 5.89-2.948 11.882-5.684t12.078-5.257 12.257-4.822 12.422-4.382 12.57-3.936 12.702-3.484q6.383-1.63 12.819-3.03t12.919-2.569 13.002-2.107 13.069-1.641q6.55-.704 13.12-1.174t13.152-.705T400 1v369z"/><path fill="none" stroke="#fff" stroke-linejoin="bevel" stroke-width="2" d="M678.904 128.394q5.931 6.846 11.519 13.976t10.82 14.524q5.23 7.396 10.093 15.038t9.344 15.515 8.571 15.955q4.09 8.083 7.778 16.357t6.966 16.718 6.137 17.04 5.294 17.32 4.438 17.56 3.57 17.756q1.568 8.921 2.695 17.91 1.128 8.987 1.813 18.02.686 9.032.927 18.088.241 9.055.038 18.11-.203 9.057-.85 18.092-.648 9.036-1.738 18.028-1.09 8.993-2.62 17.921t-3.496 17.771-4.364 17.578-5.221 17.342-6.066 17.066-6.896 16.747-7.709 16.389-8.504 15.99-9.279 15.555-10.03 15.08-10.759 14.57-11.46 14.024-12.135 13.445T655 636.713t-13.394 12.19q-4.978 4.314-10.108 8.446-5.13 4.133-10.403 8.08t-10.685 7.702q-5.41 3.756-10.952 7.317-5.542 3.56-11.208 6.92-5.665 3.36-11.446 6.517-5.782 3.156-11.673 6.104-5.89 2.948-11.882 5.683-5.992 2.736-12.078 5.256t-12.258 4.821-12.422 4.38-12.57 3.935-12.703 3.484-12.82 3.027-12.918 2.569-13.002 2.105-13.07 1.64-13.12 1.173-13.152.704-13.17.234-13.17-.236-13.153-.706-13.119-1.176-13.069-1.642-13.002-2.108-12.918-2.571-12.819-3.03-12.702-3.486-12.57-3.937-12.421-4.383-12.257-4.823-12.077-5.258q-8.24-3.764-16.284-7.927-8.045-4.163-15.876-8.716t-15.43-9.485-14.945-10.23-14.425-10.952-13.87-11.647-13.283-12.312-12.662-12.95-12.012-13.555-11.331-14.129-10.625-14.667-9.893-15.171-9.136-15.638-8.358-16.068-7.56-16.458-6.742-16.81-5.91-17.12-5.063-17.39-4.203-17.616T35.747 429t-2.456-17.944-1.573-18.043-.685-18.099.203-18.11 1.092-18.079 1.977-18.003 2.858-17.884q1.65-8.907 3.733-17.723t4.598-17.518q2.513-8.703 5.451-17.272t6.293-16.983q3.355-8.414 7.118-16.654 2.737-5.991 5.686-11.881t6.106-11.671 6.518-11.446 6.923-11.206 7.319-10.951 7.704-10.684 8.081-10.401 8.448-10.107q4.313-4.978 8.802-9.798t9.147-9.478 9.479-9.146q4.82-4.488 9.8-8.802 4.977-4.313 10.106-8.446 5.13-4.133 10.403-8.08t10.684-7.704q5.41-3.756 10.952-7.317t11.206-6.922 11.447-6.518q5.78-3.156 11.671-6.105 5.89-2.948 11.882-5.684t12.078-5.257 12.257-4.822 12.422-4.382 12.57-3.936 12.702-3.484q6.383-1.63 12.819-3.03t12.919-2.569 13.002-2.107 13.069-1.641q6.55-.704 13.12-1.174t13.152-.705T400 1v369l278.904-241.606Z"/></svg>