<svg xmlns="http://www.w3.org/2000/svg" width="800" height="800"><path fill="none" d="M0 0h800v800H0z"/><clipPath id="a"><path d="M0 690h800v110H0z"/></clipPath><g clip-path="url(#a)"><path fill="#4caf50" d="M123.3 720h40v20h-40z"/><path fill="none" stroke="#fff" stroke-miterlimit="10" stroke-width="2" d="M123.3 720h40v20h-40z"/><path fill="#ff9800" d="M377.64 720h40v20h-40z"/><path fill="none" stroke="#fff" stroke-miterlimit="10" stroke-width="2" d="M377.64 720h40v20h-40z"/><path fill="#f44336" d="M262.92 770h40v20h-40z"/><path fill="none" stroke="#fff" stroke-miterlimit="10" stroke-width="2" d="M262.92 770h40v20h-40z"/></g><path fill="#4caf50" d="M400 1q4.613 0 9.225.124 4.61.123 9.217.37 4.607.248 9.205.619 4.598.37 9.185.864 4.586.494 9.158 1.111t9.125 1.356 9.086 1.6 9.04 1.843 8.986 2.085 8.927 2.325q4.449 1.222 8.862 2.564 4.414 1.34 8.79 2.8 4.377 1.46 8.712 3.035 4.336 1.576 8.628 3.268t8.536 3.497 8.44 3.726 8.337 3.95q4.141 2.031 8.227 4.173T567.8 44.7t7.993 4.608q3.965 2.357 7.866 4.82t7.733 5.03 7.596 5.235 7.454 5.436 7.304 5.635 7.151 5.829 6.992 6.018 6.828 6.204 6.66 6.384 6.485 6.56q3.199 3.325 6.307 6.733 3.109 3.409 6.125 6.9L400 345z"/><path fill="none" stroke="#fff" stroke-linejoin="bevel" stroke-width="2" d="M400 1q4.613 0 9.225.124 4.61.123 9.217.37 4.607.248 9.205.619 4.598.37 9.185.864 4.586.494 9.158 1.111t9.125 1.356 9.086 1.6 9.04 1.843 8.986 2.085 8.927 2.325q4.449 1.222 8.862 2.564 4.414 1.34 8.79 2.8 4.377 1.46 8.712 3.035 4.336 1.576 8.628 3.268t8.536 3.497 8.44 3.726 8.337 3.95q4.141 2.031 8.227 4.173T567.8 44.7t7.993 4.608q3.965 2.357 7.866 4.82t7.733 5.03 7.596 5.235 7.454 5.436 7.304 5.635 7.151 5.829 6.992 6.018 6.828 6.204 6.66 6.384 6.485 6.56q3.199 3.325 6.307 6.733 3.109 3.409 6.125 6.9L400 345z"/><path fill="#ff9800" d="M660.293 120.092q14.032 16.24 25.936 34.097t21.498 37.057L400 345z"/><path fill="none" stroke="#fff" stroke-linejoin="bevel" stroke-width="2" d="M660.293 120.092q14.032 16.24 25.936 34.097t21.498 37.057L400 345l260.293-224.908Z"/><path fill="#f44336" d="M707.727 191.246q3.774 7.554 7.173 15.285t6.415 15.618 5.641 15.914 4.854 16.172 4.054 16.39q1.825 8.245 3.245 16.57 1.418 8.325 2.427 16.709t1.605 16.808q.597 8.423.779 16.866t-.05 16.884q-.232 8.442-.879 16.862-.646 8.42-1.704 16.798-1.06 8.378-2.527 16.694-1.469 8.316-3.344 16.55t-4.15 16.366-4.95 16.143-5.735 15.88-6.508 15.58-7.264 15.242-8.003 14.867q-4.185 7.335-8.724 14.457-4.539 7.12-9.422 14.01t-10.098 13.532q-5.215 6.642-10.75 13.02t-11.376 12.477-11.974 11.904-12.544 11.301-13.084 10.673-13.591 10.018-14.067 9.338-14.508 8.638-14.914 7.915q-4.89 2.443-9.857 4.73t-10.002 4.415-10.137 4.095-10.262 3.77q-5.162 1.805-10.377 3.444t-10.482 3.11q-5.265 1.473-10.574 2.777t-10.658 2.44q-5.348 1.134-10.73 2.099-5.381.964-10.79 1.757-5.41.793-10.842 1.413t-10.88 1.068-10.91.722-10.927.375-10.933.027-10.929-.32q-5.461-.247-10.912-.667t-10.886-1.014-10.849-1.36q-5.413-.765-10.8-1.702-5.386-.938-10.74-2.046-5.353-1.108-10.67-2.386-5.315-1.277-10.588-2.723t-10.496-3.06-10.394-3.39-10.281-3.72-10.158-4.044q-5.047-2.102-10.024-4.365-4.977-2.262-9.88-4.68-4.903-2.42-9.727-4.994-4.823-2.573-9.563-5.3-4.739-2.725-9.39-5.6-7.182-4.44-14.138-9.228-6.957-4.788-13.67-9.912-6.713-5.123-13.166-10.57-6.454-5.446-12.632-11.203-6.179-5.756-12.068-11.81-5.888-6.052-11.473-12.387-5.584-6.334-10.851-12.935T120.904 546.1q-4.937-6.852-9.531-13.937-4.595-7.086-8.836-14.388t-8.12-14.804-7.383-15.184-6.63-15.529q-3.123-7.846-5.859-15.835t-5.075-16.103q-2.34-8.115-4.279-16.334t-3.472-16.523q-1.534-8.304-2.658-16.674t-1.836-16.784-1.01-16.854q-.299-8.44-.182-16.884t.646-16.872 1.474-16.82 2.297-16.727q1.354-8.335 3.115-16.594t3.925-16.422 4.727-16.21q2.562-8.046 5.516-15.957t6.293-15.668 7.054-15.34 7.798-14.976 8.524-14.575q2.875-4.65 5.896-9.207t6.186-9.015 6.47-8.814 6.745-8.603q3.442-4.249 7.016-8.385 3.575-4.137 7.28-8.158t7.534-7.923 7.782-7.679q3.953-3.777 8.023-7.427t8.254-7.17 8.479-6.903 8.693-6.63 8.9-6.35 9.097-6.065q4.596-2.96 9.285-5.773 4.688-2.812 9.464-5.474 4.775-2.662 9.633-5.17 4.857-2.51 9.792-4.863t9.942-4.549q5.007-2.195 10.082-4.23 5.074-2.035 10.21-3.908t10.33-3.581 10.439-3.251 10.537-2.918 10.624-2.582 10.7-2.243 10.767-1.901 10.821-1.559 10.866-1.213 10.898-.868q5.457-.348 10.921-.521Q394.533 1 400 1v344z"/><path fill="none" stroke="#fff" stroke-linejoin="bevel" stroke-width="2" d="M707.727 191.246q3.774 7.554 7.173 15.285t6.415 15.618 5.641 15.914 4.854 16.172 4.054 16.39q1.825 8.245 3.245 16.57 1.418 8.325 2.427 16.709t1.605 16.808q.597 8.423.779 16.866t-.05 16.884q-.232 8.442-.879 16.862-.646 8.42-1.704 16.798-1.06 8.378-2.527 16.694-1.469 8.316-3.344 16.55t-4.15 16.366-4.95 16.143-5.735 15.88-6.508 15.58-7.264 15.242-8.003 14.867q-4.185 7.335-8.724 14.457-4.539 7.12-9.422 14.01t-10.098 13.532q-5.215 6.642-10.75 13.02t-11.376 12.477-11.974 11.904-12.544 11.301-13.084 10.673-13.591 10.018-14.067 9.338-14.508 8.638-14.914 7.915q-4.89 2.443-9.857 4.73t-10.002 4.415-10.137 4.095-10.262 3.77q-5.162 1.805-10.377 3.444t-10.482 3.11q-5.265 1.473-10.574 2.777t-10.658 2.44q-5.348 1.134-10.73 2.099-5.381.964-10.79 1.757-5.41.793-10.842 1.413t-10.88 1.068-10.91.722-10.927.375-10.933.027-10.929-.32q-5.461-.247-10.912-.667t-10.886-1.014-10.849-1.36q-5.413-.765-10.8-1.702-5.386-.938-10.74-2.046-5.353-1.108-10.67-2.386-5.315-1.277-10.588-2.723t-10.496-3.06-10.394-3.39-10.281-3.72-10.158-4.044q-5.047-2.102-10.024-4.365-4.977-2.262-9.88-4.68-4.903-2.42-9.727-4.994-4.823-2.573-9.563-5.3-4.739-2.725-9.39-5.6-7.182-4.44-14.138-9.228-6.957-4.788-13.67-9.912-6.713-5.123-13.166-10.57-6.454-5.446-12.632-11.203-6.179-5.756-12.068-11.81-5.888-6.052-11.473-12.387-5.584-6.334-10.851-12.935T120.904 546.1q-4.937-6.852-9.531-13.937-4.595-7.086-8.836-14.388t-8.12-14.804-7.383-15.184-6.63-15.529q-3.123-7.846-5.859-15.835t-5.075-16.103q-2.34-8.115-4.279-16.334t-3.472-16.523q-1.534-8.304-2.658-16.674t-1.836-16.784-1.01-16.854q-.299-8.44-.182-16.884t.646-16.872 1.474-16.82 2.297-16.727q1.354-8.335 3.115-16.594t3.925-16.422 4.727-16.21q2.562-8.046 5.516-15.957t6.293-15.668 7.054-15.34 7.798-14.976 8.524-14.575q2.875-4.65 5.896-9.207t6.186-9.015 6.47-8.814 6.745-8.603q3.442-4.249 7.016-8.385 3.575-4.137 7.28-8.158t7.534-7.923 7.782-7.679q3.953-3.777 8.023-7.427t8.254-7.17 8.479-6.903 8.693-6.63 8.9-6.35 9.097-6.065q4.596-2.96 9.285-5.773 4.688-2.812 9.464-5.474 4.775-2.662 9.633-5.17 4.857-2.51 9.792-4.863t9.942-4.549q5.007-2.195 10.082-4.23 5.074-2.035 10.21-3.908t10.33-3.581 10.439-3.251 10.537-2.918 10.624-2.582 10.7-2.243 10.767-1.901 10.821-1.559 10.866-1.213 10.898-.868q5.457-.348 10.921-.521Q394.533 1 400 1v344l307.727-153.754Z"/></svg>