<svg xmlns="http://www.w3.org/2000/svg" width="800" height="800"><path fill="none" d="M0 0h800v800H0z"/><clipPath id="a"><path d="M0 740h800v60H0z"/></clipPath><g clip-path="url(#a)"><path fill="#4caf50" d="M164.745 770h40v20h-40z"/><path fill="none" stroke="#fff" stroke-miterlimit="10" stroke-width="2" d="M164.745 770h40v20h-40z"/><text x="214.745, 226.2196, 232.87976, 244.00281, 254.00281, 259.55945, 270.6825," y="786.5," fill="#666" font-family="Liberation Sans" font-size="20">Trusted</text><path fill="#ff9800" d="M311.805 770h40v20h-40z"/><path fill="none" stroke="#fff" stroke-miterlimit="10" stroke-width="2" d="M311.805 770h40v20h-40z"/><text x="361.80499, 375.14484, 381.80499, 392.92804, 402.92804, 414.05109, 425.17413, 436.29718, 447.42023, 457.42023," y="786.5," fill="#666" font-family="Liberation Sans" font-size="20">Provenance</text><path fill="#f44336" d="M498.545 770h40v20h-40z"/><path fill="none" stroke="#fff" stroke-miterlimit="10" stroke-width="2" d="M498.545 770h40v20h-40z"/><text x="548.54498, 562.98834, 574.11139, 579.66803, 586.32819, 597.45123, 607.45123, 613.00787, 624.13092," y="786.5," fill="#666" font-family="Liberation Sans" font-size="20">Untrusted</text></g><path fill="#4caf50" d="M400 1q5.87 0 11.737.187 5.867.186 11.725.56 5.859.373 11.702.932 5.843.56 11.666 1.305t11.619 1.674 11.559 2.044 11.489 2.41 11.406 2.774q5.68 1.478 11.312 3.136 5.63 1.658 11.206 3.494t11.09 3.849 10.962 4.2q5.447 2.186 10.823 4.545 5.375 2.36 10.672 4.888 5.298 2.53 10.512 5.225 5.214 2.696 10.34 5.557 5.126 2.86 10.158 5.883 5.033 3.022 9.966 6.203 4.934 3.18 9.764 6.516t9.551 6.824 9.33 7.125q4.608 3.636 9.098 7.417t8.857 7.703 8.608 7.981 8.35 8.251 8.084 8.512 7.808 8.765 7.525 9.01 7.236 9.243 6.937 9.47 6.633 9.684q3.24 4.896 6.322 9.892L400 370z"/><path fill="none" stroke="#fff" stroke-linejoin="bevel" stroke-width="2" d="M400 1q5.87 0 11.737.187 5.867.186 11.725.56 5.859.373 11.702.932 5.843.56 11.666 1.305t11.619 1.674 11.559 2.044 11.489 2.41 11.406 2.774q5.68 1.478 11.312 3.136 5.63 1.658 11.206 3.494t11.09 3.849 10.962 4.2q5.447 2.186 10.823 4.545 5.375 2.36 10.672 4.888 5.298 2.53 10.512 5.225 5.214 2.696 10.34 5.557 5.126 2.86 10.158 5.883 5.033 3.022 9.966 6.203 4.934 3.18 9.764 6.516t9.551 6.824 9.33 7.125q4.608 3.636 9.098 7.417t8.857 7.703 8.608 7.981 8.35 8.251 8.084 8.512 7.808 8.765 7.525 9.01 7.236 9.243 6.937 9.47 6.633 9.684q3.24 4.896 6.322 9.892L400 370z"/><path fill="#ff9800" d="M714.047 176.258q9.69 15.708 17.764 32.303 8.074 16.596 14.453 33.914L400 370z"/><path fill="none" stroke="#fff" stroke-linejoin="bevel" stroke-width="2" d="M714.047 176.258q9.69 15.708 17.764 32.303 8.074 16.596 14.453 33.914L400 370l314.047-193.741Z"/><path fill="#f44336" d="M746.264 242.475q3.13 8.5 5.84 17.144t4.992 17.41 4.131 17.634 3.262 17.815 2.383 17.954 1.5 18.05.612 18.1-.277 18.11q-.36 9.051-1.165 18.074-.804 9.022-2.05 17.995-1.246 8.972-2.931 17.872t-3.805 17.708-4.668 17.5-5.522 17.248-6.361 16.958-7.186 16.625-7.993 16.252-8.78 15.84q-4.586 7.813-9.548 15.391-4.963 7.578-10.291 14.904t-11.01 14.38-11.703 13.823-12.366 13.233-13.001 12.61q-6.656 6.144-13.604 11.956-6.95 5.81-14.175 11.274t-14.71 10.565q-7.485 5.103-15.211 9.831-7.726 4.729-15.675 9.073t-16.102 8.293-16.489 7.492-16.836 6.675q-5.205 1.916-10.464 3.676-5.26 1.759-10.57 3.36t-10.665 3.04-10.753 2.72-10.829 2.394q-5.432 1.116-10.896 2.068t-10.954 1.74-11 1.409-11.039 1.078-11.065.747-11.083.413-11.09.08-11.088-.253-11.076-.587-11.052-.919q-5.52-.543-11.02-1.25-5.5-.709-10.978-1.582-5.476-.873-10.925-1.91-5.448-1.038-10.862-2.239-5.415-1.2-10.79-2.563-5.377-1.363-10.71-2.887-5.332-1.524-10.616-3.207t-10.516-3.525-10.405-3.839-10.285-4.15-10.155-4.457-10.018-4.76-9.869-5.06-9.713-5.354-9.548-5.643q-4.731-2.894-9.373-5.928-4.643-3.034-9.192-6.207-7.43-5.181-14.597-10.721t-14.053-11.425-13.476-12.1-12.866-12.748-12.225-13.363-11.554-13.947-10.857-14.497-10.131-15.012q-4.882-7.631-9.383-15.492-4.502-7.86-8.612-15.933-4.11-8.072-7.82-16.337-3.708-8.264-7.008-16.7t-6.18-17.024-5.338-17.307q-2.456-8.72-4.482-17.548-2.025-8.83-3.615-17.747t-2.74-17.903q-1.151-8.985-1.86-18.016-.708-9.03-.972-18.085t-.084-18.111q.18-9.057.805-18.094t1.692-18.032 2.574-17.928 3.451-17.78 4.32-17.588 5.177-17.356 6.022-17.08 6.854-16.765 7.668-16.409 8.463-16.012 9.24-15.577q4.81-7.676 9.992-15.106 3.172-4.549 6.48-9 3.307-4.452 6.747-8.803 3.44-4.35 7.01-8.595t7.264-8.38 7.513-8.159 7.754-7.929 7.99-7.692 8.217-7.45 8.437-7.198 8.65-6.942q4.376-3.405 8.854-6.678t9.05-6.41q4.575-3.136 9.24-6.134 4.666-2.998 9.42-5.855 4.754-2.856 9.592-5.568 4.837-2.712 9.754-5.278t9.909-4.982 10.054-4.682 10.19-4.378 10.317-4.07 10.435-3.757 10.543-3.443 10.642-3.124 10.73-2.802 10.81-2.48 10.88-2.153 10.94-1.825 10.99-1.495q5.505-.665 11.029-1.165 5.523-.5 11.059-.832 5.536-.334 11.08-.5Q394.453 1 400 1v369z"/><path fill="none" stroke="#fff" stroke-linejoin="bevel" stroke-width="2" d="M746.264 242.475q3.13 8.5 5.84 17.144t4.992 17.41 4.131 17.634 3.262 17.815 2.383 17.954 1.5 18.05.612 18.1-.277 18.11q-.36 9.051-1.165 18.074-.804 9.022-2.05 17.995-1.246 8.972-2.931 17.872t-3.805 17.708-4.668 17.5-5.522 17.248-6.361 16.958-7.186 16.625-7.993 16.252-8.78 15.84q-4.586 7.813-9.548 15.391-4.963 7.578-10.291 14.904t-11.01 14.38-11.703 13.823-12.366 13.233-13.001 12.61q-6.656 6.144-13.604 11.956-6.95 5.81-14.175 11.274t-14.71 10.565q-7.485 5.103-15.211 9.831-7.726 4.729-15.675 9.073t-16.102 8.293-16.489 7.492-16.836 6.675q-5.205 1.916-10.464 3.676-5.26 1.759-10.57 3.36t-10.665 3.04-10.753 2.72-10.829 2.394q-5.432 1.116-10.896 2.068t-10.954 1.74-11 1.409-11.039 1.078-11.065.747-11.083.413-11.09.08-11.088-.253-11.076-.587-11.052-.919q-5.52-.543-11.02-1.25-5.5-.709-10.978-1.582-5.476-.873-10.925-1.91-5.448-1.038-10.862-2.239-5.415-1.2-10.79-2.563-5.377-1.363-10.71-2.887-5.332-1.524-10.616-3.207t-10.516-3.525-10.405-3.839-10.285-4.15-10.155-4.457-10.018-4.76-9.869-5.06-9.713-5.354-9.548-5.643q-4.731-2.894-9.373-5.928-4.643-3.034-9.192-6.207-7.43-5.181-14.597-10.721t-14.053-11.425-13.476-12.1-12.866-12.748-12.225-13.363-11.554-13.947-10.857-14.497-10.131-15.012q-4.882-7.631-9.383-15.492-4.502-7.86-8.612-15.933-4.11-8.072-7.82-16.337-3.708-8.264-7.008-16.7t-6.18-17.024-5.338-17.307q-2.456-8.72-4.482-17.548-2.025-8.83-3.615-17.747t-2.74-17.903q-1.151-8.985-1.86-18.016-.708-9.03-.972-18.085t-.084-18.111q.18-9.057.805-18.094t1.692-18.032 2.574-17.928 3.451-17.78 4.32-17.588 5.177-17.356 6.022-17.08 6.854-16.765 7.668-16.409 8.463-16.012 9.24-15.577q4.81-7.676 9.992-15.106 3.172-4.549 6.48-9 3.307-4.452 6.747-8.803 3.44-4.35 7.01-8.595t7.264-8.38 7.513-8.159 7.754-7.929 7.99-7.692 8.217-7.45 8.437-7.198 8.65-6.942q4.376-3.405 8.854-6.678t9.05-6.41q4.575-3.136 9.24-6.134 4.666-2.998 9.42-5.855 4.754-2.856 9.592-5.568 4.837-2.712 9.754-5.278t9.909-4.982 10.054-4.682 10.19-4.378 10.317-4.07 10.435-3.757 10.543-3.443 10.642-3.124 10.73-2.802 10.81-2.48 10.88-2.153 10.94-1.825 10.99-1.495q5.505-.665 11.029-1.165 5.523-.5 11.059-.832 5.536-.334 11.08-.5Q394.453 1 400 1v369l346.264-127.525Z"/></svg>